<?xml version="1.0" encoding="UTF-8"?>
<svg id="_Шар_1" data-name="Шар 1" xmlns="http://www.w3.org/2000/svg" viewBox="0 0 1401.51 533.37">
  <defs>
    <style>
      .cls-1 {
        fill: #faf9f6;
      }

      .cls-2 {
        fill: #efbc30;
      }
    </style>
  </defs>
  <g>
    <path class="cls-1" d="M539.76,240.72c-.06,1.06-.14,2.11-.24,3.17-38.92-76.1-135.2-133.4-250.82-140.21-43.46-2.56-85.06,2.3-122.56,13.13,40.63-41.2,104.2-65.81,174.11-61.7,115.81,6.82,205.14,89.91,199.51,185.61Z"/>
    <path class="cls-1" d="M126.16,200.92c-1.35,28.53,5.29,63.62,23.75,95.25-45.92-13.86-82.46-42.81-78.86-98.75,3.4-52.33,54.17-73.84,95.55-80.73-24.8,20.87-39.17,57.38-40.44,84.23Z"/>
    <path class="cls-1" d="M80.72,292.65c.06-1.06.14-2.11.24-3.17,38.92,76.1,135.2,133.4,250.82,140.21,43.46,2.56,85.06-2.3,122.56-13.13-40.63,41.2-104.2,65.81-174.11,61.7-115.81-6.82-205.14-89.91-199.51-185.61Z"/>
    <path class="cls-1" d="M494.32,332.45c1.35-28.53-5.29-63.62-23.75-95.25,45.92,13.86,82.46,42.81,78.86,98.75-3.4,52.33-54.17,73.84-95.55,80.73,24.8-20.87,39.17-57.38,40.44-84.23Z"/>
    <path class="cls-2" d="M424.41,264.54c-65.58,0-112.76-47.18-112.76-112.76,0,65.58-47.18,112.76-112.76,112.76,65.58,0,112.76,47.18,112.76,112.76,0-65.58,47.18-112.76,112.76-112.76Z"/>
  </g>
  <g>
    <path class="cls-1" d="M639.04,283.93h26.09c3.5,24.93,18.64,37.97,47.06,37.97,13.75,0,26.79-2.56,36.58-7.69,4.66-7.69,7.22-15.84,7.22-25.86,0-60.81-109.73-6.99-109.73-81.77,0-32.85,29.12-48.69,62.67-48.69,37.74,0,64.53,15.14,70.59,54.98l-24.46,2.56c-4.43-26.79-19.1-38.21-45.43-38.21-12.58,0-22.83,1.86-31.45,6.06-4.66,6.29-7.22,14.21-7.22,23.53,0,58.71,109.73,6.76,109.73,81.54,0,35.41-32.38,52.88-68.49,52.88-47.99,0-69.66-22.13-73.15-57.31Z"/>
    <path class="cls-1" d="M802.35,282.3c0-30.05,0-59.87-.7-90.16h24.93l-2.56,37.74h2.33c7.92-25.63,25.86-40.54,52.42-40.54,38.21,0,59.64,27.02,59.64,76.18s-22.13,75.71-59.64,75.71c-26.56,0-43.57-13.05-52.42-38.44h-2.33c1.63,17.01,2.33,27.26,2.33,36.81l.23,32.62h-24.93c.7-31.22.7-58.94.7-89.93ZM905.55,307.69c5.59-14.21,8.15-26.09,8.15-42.17,0-37.28-16.08-56.38-44.5-56.38-13.98,0-26.79,5.82-36.11,19.8-4.19,11.18-6.52,23.06-6.52,37.98,0,36.34,15.61,54.98,44.73,54.98,13.98,0,25.63-5.13,34.25-14.21Z"/>
    <path class="cls-1" d="M954.7,264.59c0-48.69,25.39-75.95,67.33-75.95s65.7,25.63,66.63,71.52l-109.03,6.99c.7,37.51,15.61,56.38,43.57,56.38,14.21,0,25.86-4.89,34.25-13.75,2.56-8.62,4.19-15.84,5.13-24.23h24.46c-5.82,37.28-29.35,55.21-65,55.21-41.93,0-67.33-27.26-67.33-76.18ZM1021.1,205.88c-14.44,0-26.56,4.89-35.64,15.61-3.03,9.55-4.89,19.8-5.59,31.45l83.64-5.59c-3.96-27.72-18.17-41.47-42.4-41.47Z"/>
    <path class="cls-1" d="M1107.52,248.05c0-30.29-.93-57.54-1.17-87.6l25.39-1.4c-.47,30.29-1.4,58.94-1.17,88.99.23,28.42.7,55.91,1.4,85.73v4.43h-25.39c.23-30.05.93-60.34.93-90.16Z"/>
    <path class="cls-1" d="M1156.68,248.05c0-30.29-.93-57.54-1.17-87.6l25.39-1.4c-.47,30.29-1.4,58.94-1.17,88.99.23,28.42.7,55.91,1.4,85.73v4.43h-25.39c.23-30.05.93-60.34.93-90.16Z"/>
    <path class="cls-1" d="M1203.04,370.82l2.33-17.71c8.85.93,23.76,2.1,30.99,2.1,12.11-2.8,19.34-16.08,27.72-36.11h-.47c-1.86,6.06-4.89,7.92-10.48,7.92-6.52,0-8.62-3.73-12.58-15.84l-45.43-119.05h24.93l42.63,118.58h3.26l40.3-118.58h24.46l-47.29,133.73c-13.98,39.14-27.96,49.62-52.88,49.62-10.48,0-20.04-2.1-27.49-4.66Z"/>
  </g>
</svg>