<svg width="489" height="273" viewBox="0 0 489 273" fill="none" xmlns="http://www.w3.org/2000/svg">
<path d="M181.062 60L186.846 42.48H193.206L199.206 60H195.126L190.278 45.192L191.526 45.696H188.43L189.726 45.192L184.998 60H181.062ZM185.454 55.656L186.654 52.392H193.518L194.742 55.656H185.454ZM201.48 60V42.48H205.416V60H201.48ZM214.104 60V46.848H217.152V52.488H217.08C217.08 50.632 217.472 49.2 218.256 48.192C219.056 47.184 220.208 46.68 221.712 46.68H222.216V49.992H221.256C220.2 49.992 219.384 50.28 218.808 50.856C218.232 51.416 217.944 52.232 217.944 53.304V60H214.104ZM230.099 60.456C228.979 60.456 227.987 60.264 227.123 59.88C226.275 59.496 225.563 58.984 224.987 58.344C224.427 57.688 223.995 56.96 223.691 56.16C223.403 55.344 223.259 54.512 223.259 53.664V53.184C223.259 52.304 223.403 51.464 223.691 50.664C223.995 49.848 224.427 49.12 224.987 48.48C225.547 47.84 226.243 47.336 227.075 46.968C227.923 46.584 228.883 46.392 229.955 46.392C231.363 46.392 232.547 46.712 233.507 47.352C234.483 47.976 235.227 48.8 235.739 49.824C236.251 50.832 236.507 51.936 236.507 53.136V54.432H224.867V52.248H234.179L232.931 53.256C232.931 52.472 232.819 51.8 232.595 51.24C232.371 50.68 232.035 50.256 231.587 49.968C231.155 49.664 230.611 49.512 229.955 49.512C229.283 49.512 228.715 49.664 228.251 49.968C227.787 50.272 227.435 50.72 227.195 51.312C226.955 51.888 226.835 52.6 226.835 53.448C226.835 54.232 226.947 54.92 227.171 55.512C227.395 56.088 227.747 56.536 228.227 56.856C228.707 57.176 229.331 57.336 230.099 57.336C230.803 57.336 231.379 57.2 231.827 56.928C232.275 56.656 232.579 56.32 232.739 55.92H236.267C236.075 56.8 235.699 57.584 235.139 58.272C234.579 58.96 233.875 59.496 233.027 59.88C232.179 60.264 231.203 60.456 230.099 60.456ZM246.936 60V56.112H246.288V51.888C246.288 51.216 246.128 50.712 245.808 50.376C245.488 50.04 244.976 49.872 244.272 49.872C243.92 49.872 243.456 49.88 242.88 49.896C242.304 49.912 241.712 49.936 241.104 49.968C240.496 50 239.944 50.032 239.448 50.064V46.824C239.816 46.792 240.248 46.76 240.744 46.728C241.24 46.696 241.752 46.672 242.28 46.656C242.808 46.64 243.304 46.632 243.768 46.632C245.112 46.632 246.24 46.824 247.152 47.208C248.08 47.592 248.784 48.176 249.264 48.96C249.744 49.728 249.984 50.72 249.984 51.936V60H246.936ZM242.736 60.336C241.792 60.336 240.96 60.168 240.24 59.832C239.536 59.496 238.984 59.016 238.584 58.392C238.184 57.752 237.984 56.992 237.984 56.112C237.984 55.152 238.232 54.368 238.728 53.76C239.224 53.136 239.92 52.68 240.816 52.392C241.712 52.088 242.744 51.936 243.912 51.936H246.72V54.072H243.888C243.216 54.072 242.696 54.24 242.328 54.576C241.976 54.896 241.8 55.336 241.8 55.896C241.8 56.424 241.976 56.856 242.328 57.192C242.696 57.512 243.216 57.672 243.888 57.672C244.32 57.672 244.704 57.6 245.04 57.456C245.392 57.296 245.68 57.032 245.904 56.664C246.128 56.296 246.256 55.784 246.288 55.128L247.2 56.088C247.12 57 246.896 57.768 246.528 58.392C246.176 59.016 245.68 59.496 245.04 59.832C244.416 60.168 243.648 60.336 242.736 60.336ZM258.606 60.432C257.678 60.432 256.83 60.264 256.062 59.928C255.31 59.592 254.654 59.128 254.094 58.536C253.534 57.928 253.102 57.216 252.798 56.4C252.51 55.584 252.366 54.704 252.366 53.76V53.208C252.366 52.264 252.502 51.384 252.774 50.568C253.062 49.752 253.47 49.04 253.998 48.432C254.542 47.808 255.19 47.328 255.942 46.992C256.694 46.64 257.534 46.464 258.462 46.464C259.518 46.464 260.43 46.696 261.198 47.16C261.966 47.608 262.566 48.28 262.998 49.176C263.43 50.056 263.67 51.144 263.718 52.44L262.71 51.504V42.48H266.574V60H263.526V54.552H264.054C264.006 55.8 263.742 56.864 263.262 57.744C262.798 58.624 262.166 59.296 261.366 59.76C260.566 60.208 259.646 60.432 258.606 60.432ZM259.566 57.216C260.158 57.216 260.694 57.088 261.174 56.832C261.67 56.56 262.062 56.168 262.35 55.656C262.654 55.144 262.806 54.528 262.806 53.808V52.92C262.806 52.216 262.654 51.624 262.35 51.144C262.046 50.664 261.646 50.296 261.15 50.04C260.654 49.784 260.118 49.656 259.542 49.656C258.902 49.656 258.326 49.824 257.814 50.16C257.318 50.48 256.926 50.928 256.638 51.504C256.35 52.064 256.206 52.72 256.206 53.472C256.206 54.24 256.35 54.904 256.638 55.464C256.926 56.024 257.326 56.456 257.838 56.76C258.35 57.064 258.926 57.216 259.566 57.216ZM270.621 60V46.848H274.461V60H270.621ZM268.869 49.68V46.848H274.461V49.68H268.869ZM272.109 45.552C271.389 45.552 270.853 45.368 270.501 45C270.165 44.616 269.997 44.136 269.997 43.56C269.997 42.968 270.165 42.488 270.501 42.12C270.853 41.736 271.389 41.544 272.109 41.544C272.829 41.544 273.357 41.736 273.693 42.12C274.045 42.488 274.221 42.968 274.221 43.56C274.221 44.136 274.045 44.616 273.693 45C273.357 45.368 272.829 45.552 272.109 45.552ZM277.952 60V46.848H281V52.488H280.784C280.784 51.144 280.952 50.024 281.288 49.128C281.64 48.232 282.168 47.56 282.872 47.112C283.576 46.664 284.432 46.44 285.44 46.44H285.608C287.144 46.44 288.312 46.944 289.112 47.952C289.928 48.944 290.336 50.456 290.336 52.488V60H286.496V52.272C286.496 51.568 286.288 50.992 285.872 50.544C285.456 50.096 284.896 49.872 284.192 49.872C283.472 49.872 282.888 50.104 282.44 50.568C282.008 51.016 281.792 51.608 281.792 52.344V60H277.952ZM298.732 65.232C298.092 65.232 297.436 65.208 296.764 65.16C296.092 65.112 295.476 65.048 294.916 64.968V61.728C295.476 61.808 296.092 61.872 296.764 61.92C297.452 61.984 298.076 62.016 298.636 62.016C299.676 62.016 300.516 61.896 301.156 61.656C301.812 61.416 302.292 61.048 302.596 60.552C302.9 60.072 303.052 59.448 303.052 58.68V56.064L303.748 54.528C303.716 55.696 303.484 56.696 303.052 57.528C302.636 58.36 302.052 59 301.3 59.448C300.548 59.88 299.652 60.096 298.612 60.096C297.716 60.096 296.9 59.936 296.164 59.616C295.444 59.28 294.828 58.816 294.316 58.224C293.804 57.632 293.412 56.944 293.14 56.16C292.868 55.36 292.732 54.496 292.732 53.568V53.016C292.732 52.088 292.876 51.224 293.164 50.424C293.452 49.624 293.868 48.928 294.412 48.336C294.956 47.744 295.604 47.288 296.356 46.968C297.108 46.632 297.94 46.464 298.852 46.464C299.908 46.464 300.82 46.696 301.588 47.16C302.372 47.624 302.988 48.304 303.436 49.2C303.884 50.096 304.124 51.176 304.156 52.44L303.628 52.584V46.848H306.676V58.44C306.676 60.056 306.388 61.36 305.812 62.352C305.236 63.344 304.356 64.072 303.172 64.536C302.004 65 300.524 65.232 298.732 65.232ZM299.812 56.856C300.404 56.856 300.94 56.728 301.42 56.472C301.9 56.2 302.276 55.816 302.548 55.32C302.836 54.824 302.98 54.224 302.98 53.52V52.824C302.98 52.136 302.828 51.56 302.524 51.096C302.236 50.616 301.852 50.256 301.372 50.016C300.892 49.76 300.38 49.632 299.836 49.632C299.196 49.632 298.628 49.784 298.132 50.088C297.636 50.392 297.252 50.816 296.98 51.36C296.708 51.904 296.572 52.544 296.572 53.28C296.572 54.032 296.708 54.68 296.98 55.224C297.268 55.752 297.652 56.16 298.132 56.448C298.628 56.72 299.188 56.856 299.812 56.856Z" fill="#FAF9F6"/>
<rect x="21" y="148" width="447" height="101" rx="16" fill="#FAF9F6" fill-opacity="0.1"/>
<path d="M47.64 182.5V171.574H43.644V169.99H53.508V171.574H49.512V182.5H47.64ZM54.9214 169.306H56.6854V174.634C57.2854 173.626 58.2214 173.122 59.4934 173.122C60.3694 173.122 61.1014 173.404 61.6894 173.968C62.2894 174.52 62.5894 175.414 62.5894 176.65V182.5H60.8254V176.938C60.8254 175.39 60.1954 174.616 58.9354 174.616C57.4354 174.616 56.6854 175.582 56.6854 177.514V182.5H54.9214V169.306ZM65.2222 182.5V173.338H66.9862V182.5H65.2222ZM66.9862 171.34H65.2222V169.306H66.9862V171.34ZM68.7548 179.854H70.5188C70.7588 180.85 71.4728 181.348 72.6608 181.348C73.8248 181.348 74.4068 180.916 74.4068 180.052C74.4068 179.644 74.2628 179.332 73.9748 179.116C73.6988 178.888 73.1528 178.672 72.3368 178.468C71.0648 178.168 70.2068 177.808 69.7628 177.388C69.3308 176.968 69.1148 176.416 69.1148 175.732C69.1148 175.012 69.3968 174.4 69.9608 173.896C70.5248 173.38 71.3708 173.122 72.4988 173.122C73.6268 173.122 74.4788 173.386 75.0548 173.914C75.6308 174.43 75.9488 175.054 76.0088 175.786H74.3168C74.1128 174.898 73.4828 174.454 72.4268 174.454C71.8748 174.454 71.4728 174.562 71.2208 174.778C70.9808 174.994 70.8608 175.264 70.8608 175.588C70.8608 175.924 70.9928 176.188 71.2568 176.38C71.5208 176.56 72.0548 176.746 72.8588 176.938C74.1908 177.25 75.0848 177.64 75.5408 178.108C75.9968 178.564 76.2248 179.164 76.2248 179.908C76.2248 180.736 75.9068 181.414 75.2708 181.942C74.6468 182.458 73.7528 182.716 72.5888 182.716C71.4248 182.716 70.5248 182.458 69.8888 181.942C69.2528 181.426 68.8748 180.73 68.7548 179.854ZM81.9384 179.854H83.7024C83.9424 180.85 84.6564 181.348 85.8444 181.348C87.0084 181.348 87.5904 180.916 87.5904 180.052C87.5904 179.644 87.4464 179.332 87.1584 179.116C86.8824 178.888 86.3364 178.672 85.5204 178.468C84.2484 178.168 83.3904 177.808 82.9464 177.388C82.5144 176.968 82.2984 176.416 82.2984 175.732C82.2984 175.012 82.5804 174.4 83.1444 173.896C83.7084 173.38 84.5544 173.122 85.6824 173.122C86.8104 173.122 87.6624 173.386 88.2384 173.914C88.8144 174.43 89.1324 175.054 89.1924 175.786H87.5004C87.2964 174.898 86.6664 174.454 85.6104 174.454C85.0584 174.454 84.6564 174.562 84.4044 174.778C84.1644 174.994 84.0444 175.264 84.0444 175.588C84.0444 175.924 84.1764 176.188 84.4404 176.38C84.7044 176.56 85.2384 176.746 86.0424 176.938C87.3744 177.25 88.2684 177.64 88.7244 178.108C89.1804 178.564 89.4084 179.164 89.4084 179.908C89.4084 180.736 89.0904 181.414 88.4544 181.942C87.8304 182.458 86.9364 182.716 85.7724 182.716C84.6084 182.716 83.7084 182.458 83.0724 181.942C82.4364 181.426 82.0584 180.73 81.9384 179.854ZM93.0546 186.082H91.2906V175.57C91.2906 174.562 91.2846 173.818 91.2726 173.338H92.9826C93.0306 173.722 93.0546 174.184 93.0546 174.724C93.6186 173.656 94.5906 173.122 95.9706 173.122C97.0506 173.122 97.9326 173.536 98.6166 174.364C99.3006 175.192 99.6426 176.296 99.6426 177.676C99.6426 179.26 99.2646 180.496 98.5086 181.384C97.7526 182.272 96.7986 182.716 95.6466 182.716C94.4106 182.716 93.5466 182.29 93.0546 181.438V186.082ZM97.8246 177.748C97.8246 176.788 97.6146 176.026 97.1946 175.462C96.7866 174.886 96.2166 174.598 95.4846 174.598C94.5966 174.598 93.9546 174.874 93.5586 175.426C93.1626 175.978 92.9646 176.806 92.9646 177.91C92.9646 179.014 93.1446 179.848 93.5046 180.412C93.8766 180.964 94.4946 181.24 95.3586 181.24C96.1626 181.24 96.7746 180.934 97.1946 180.322C97.6146 179.71 97.8246 178.852 97.8246 177.748ZM101.644 182.5V175.822C101.644 175.366 101.638 174.868 101.626 174.328C101.626 173.788 101.626 173.458 101.626 173.338H103.354C103.39 173.59 103.408 174.196 103.408 175.156C103.648 174.544 104.032 174.058 104.56 173.698C105.088 173.326 105.724 173.134 106.468 173.122V174.868C104.428 174.904 103.408 175.996 103.408 178.144V182.5H101.644ZM115.514 178.252H109.142C109.154 179.14 109.37 179.866 109.79 180.43C110.21 180.982 110.786 181.258 111.518 181.258C112.13 181.258 112.586 181.138 112.886 180.898C113.198 180.658 113.438 180.334 113.606 179.926H115.388C115.28 180.262 115.142 180.58 114.974 180.88C114.806 181.168 114.572 181.462 114.272 181.762C113.984 182.05 113.594 182.284 113.102 182.464C112.622 182.632 112.076 182.716 111.464 182.716C110.108 182.716 109.082 182.26 108.386 181.348C107.702 180.436 107.36 179.326 107.36 178.018C107.36 176.578 107.72 175.402 108.44 174.49C109.172 173.578 110.216 173.122 111.572 173.122C112.28 173.122 112.904 173.254 113.444 173.518C113.984 173.782 114.398 174.13 114.686 174.562C114.986 174.994 115.202 175.456 115.334 175.948C115.478 176.44 115.55 176.956 115.55 177.496C115.55 177.832 115.538 178.084 115.514 178.252ZM109.196 177.046H113.768C113.756 176.29 113.564 175.678 113.192 175.21C112.82 174.73 112.274 174.49 111.554 174.49C110.15 174.49 109.364 175.342 109.196 177.046ZM124.483 176.146V180.43C124.483 181.414 124.525 182.104 124.609 182.5H122.935C122.875 182.32 122.821 181.942 122.773 181.366C122.305 182.266 121.381 182.716 120.001 182.716C118.981 182.716 118.207 182.44 117.679 181.888C117.163 181.336 116.905 180.676 116.905 179.908C116.905 178.9 117.277 178.15 118.021 177.658C118.777 177.154 119.851 176.902 121.243 176.902H122.755V176.164C122.755 175.036 122.137 174.472 120.901 174.472C120.241 174.472 119.791 174.598 119.551 174.85C119.311 175.09 119.143 175.432 119.047 175.876H117.337C117.409 175.084 117.727 174.424 118.291 173.896C118.855 173.368 119.743 173.11 120.955 173.122C123.307 173.122 124.483 174.13 124.483 176.146ZM122.773 178.378V178.09H121.369C119.593 178.09 118.705 178.66 118.705 179.8C118.705 180.268 118.855 180.646 119.155 180.934C119.455 181.222 119.869 181.366 120.397 181.366C120.901 181.366 121.315 181.288 121.639 181.132C121.975 180.976 122.221 180.748 122.377 180.448C122.533 180.148 122.635 179.842 122.683 179.53C122.743 179.206 122.773 178.822 122.773 178.378ZM133.144 169.306H134.908V179.926C134.908 181.054 134.914 181.912 134.926 182.5H133.216C133.168 182.164 133.144 181.75 133.144 181.258C132.664 182.23 131.722 182.716 130.318 182.716C129.154 182.716 128.224 182.284 127.528 181.42C126.844 180.556 126.502 179.422 126.502 178.018C126.502 176.578 126.874 175.402 127.618 174.49C128.362 173.578 129.364 173.122 130.624 173.122C131.932 173.122 132.772 173.494 133.144 174.238V169.306ZM128.338 177.964C128.338 178.996 128.554 179.8 128.986 180.376C129.43 180.952 130.006 181.24 130.714 181.24C131.218 181.24 131.638 181.156 131.974 180.988C132.31 180.808 132.562 180.55 132.73 180.214C132.91 179.878 133.03 179.524 133.09 179.152C133.162 178.768 133.198 178.318 133.198 177.802C133.198 176.722 133.036 175.918 132.712 175.39C132.388 174.862 131.764 174.598 130.84 174.598C130.048 174.598 129.43 174.892 128.986 175.48C128.554 176.068 128.338 176.896 128.338 177.964ZM143.803 186.082H142.039V175.57C142.039 174.562 142.033 173.818 142.021 173.338H143.731C143.779 173.722 143.803 174.184 143.803 174.724C144.367 173.656 145.339 173.122 146.719 173.122C147.799 173.122 148.681 173.536 149.365 174.364C150.049 175.192 150.391 176.296 150.391 177.676C150.391 179.26 150.013 180.496 149.257 181.384C148.501 182.272 147.547 182.716 146.395 182.716C145.159 182.716 144.295 182.29 143.803 181.438V186.082ZM148.573 177.748C148.573 176.788 148.363 176.026 147.943 175.462C147.535 174.886 146.965 174.598 146.233 174.598C145.345 174.598 144.703 174.874 144.307 175.426C143.911 175.978 143.713 176.806 143.713 177.91C143.713 179.014 143.893 179.848 144.253 180.412C144.625 180.964 145.243 181.24 146.107 181.24C146.911 181.24 147.523 180.934 147.943 180.322C148.363 179.71 148.573 178.852 148.573 177.748ZM156.242 173.122C157.526 173.122 158.552 173.56 159.32 174.436C160.1 175.3 160.49 176.452 160.49 177.892C160.49 179.284 160.106 180.436 159.338 181.348C158.57 182.26 157.502 182.716 156.134 182.716C154.826 182.716 153.788 182.272 153.02 181.384C152.252 180.484 151.868 179.332 151.868 177.928C151.868 176.524 152.258 175.372 153.038 174.472C153.818 173.572 154.886 173.122 156.242 173.122ZM158.024 175.48C157.592 174.88 156.974 174.58 156.17 174.58C155.366 174.58 154.748 174.874 154.316 175.462C153.896 176.05 153.686 176.866 153.686 177.91C153.686 178.906 153.914 179.716 154.37 180.34C154.826 180.952 155.438 181.258 156.206 181.258C156.986 181.258 157.592 180.958 158.024 180.358C158.468 179.758 158.69 178.948 158.69 177.928C158.69 176.896 158.468 176.08 158.024 175.48ZM162.482 182.5V173.338H164.246V182.5H162.482ZM164.246 171.34H162.482V169.306H164.246V171.34ZM166.877 182.5V175.642C166.877 174.574 166.871 173.806 166.859 173.338H168.587C168.635 173.698 168.659 174.178 168.659 174.778C169.163 173.674 170.105 173.122 171.485 173.122C172.409 173.122 173.147 173.416 173.699 174.004C174.263 174.592 174.545 175.462 174.545 176.614V182.5H172.781V176.83C172.781 175.354 172.163 174.616 170.927 174.616C169.415 174.616 168.659 175.612 168.659 177.604V182.5H166.877ZM175.921 174.742V173.338H177.469V170.674H179.233V173.338H181.213V174.742H179.233V179.944C179.233 180.4 179.305 180.73 179.449 180.934C179.593 181.126 179.863 181.222 180.259 181.222C180.607 181.222 180.859 181.198 181.015 181.15V182.464C180.703 182.572 180.229 182.626 179.593 182.626C178.849 182.626 178.309 182.44 177.973 182.068C177.637 181.684 177.469 181.096 177.469 180.304V174.742H175.921ZM182.257 179.854H184.021C184.261 180.85 184.975 181.348 186.163 181.348C187.327 181.348 187.909 180.916 187.909 180.052C187.909 179.644 187.765 179.332 187.477 179.116C187.201 178.888 186.655 178.672 185.839 178.468C184.567 178.168 183.709 177.808 183.265 177.388C182.833 176.968 182.617 176.416 182.617 175.732C182.617 175.012 182.899 174.4 183.463 173.896C184.027 173.38 184.873 173.122 186.001 173.122C187.129 173.122 187.981 173.386 188.557 173.914C189.133 174.43 189.451 175.054 189.511 175.786H187.819C187.615 174.898 186.985 174.454 185.929 174.454C185.377 174.454 184.975 174.562 184.723 174.778C184.483 174.994 184.363 175.264 184.363 175.588C184.363 175.924 184.495 176.188 184.759 176.38C185.023 176.56 185.557 176.746 186.361 176.938C187.693 177.25 188.587 177.64 189.043 178.108C189.499 178.564 189.727 179.164 189.727 179.908C189.727 180.736 189.409 181.414 188.773 181.942C188.149 182.458 187.255 182.716 186.091 182.716C184.927 182.716 184.027 182.458 183.391 181.942C182.755 181.426 182.377 180.73 182.257 179.854ZM195.098 174.742V173.338H196.646V170.674H198.41V173.338H200.39V174.742H198.41V179.944C198.41 180.4 198.482 180.73 198.626 180.934C198.77 181.126 199.04 181.222 199.436 181.222C199.784 181.222 200.036 181.198 200.192 181.15V182.464C199.88 182.572 199.406 182.626 198.77 182.626C198.026 182.626 197.486 182.44 197.15 182.068C196.814 181.684 196.646 181.096 196.646 180.304V174.742H195.098ZM205.706 173.122C206.99 173.122 208.016 173.56 208.784 174.436C209.564 175.3 209.954 176.452 209.954 177.892C209.954 179.284 209.57 180.436 208.802 181.348C208.034 182.26 206.966 182.716 205.598 182.716C204.29 182.716 203.252 182.272 202.484 181.384C201.716 180.484 201.332 179.332 201.332 177.928C201.332 176.524 201.722 175.372 202.502 174.472C203.282 173.572 204.35 173.122 205.706 173.122ZM207.488 175.48C207.056 174.88 206.438 174.58 205.634 174.58C204.83 174.58 204.212 174.874 203.78 175.462C203.36 176.05 203.15 176.866 203.15 177.91C203.15 178.906 203.378 179.716 203.834 180.34C204.29 180.952 204.902 181.258 205.67 181.258C206.45 181.258 207.056 180.958 207.488 180.358C207.932 179.758 208.154 178.948 208.154 177.928C208.154 176.896 207.932 176.08 207.488 175.48ZM223.43 176.146V180.43C223.43 181.414 223.472 182.104 223.556 182.5H221.882C221.822 182.32 221.768 181.942 221.72 181.366C221.252 182.266 220.328 182.716 218.948 182.716C217.928 182.716 217.154 182.44 216.626 181.888C216.11 181.336 215.852 180.676 215.852 179.908C215.852 178.9 216.224 178.15 216.968 177.658C217.724 177.154 218.798 176.902 220.19 176.902H221.702V176.164C221.702 175.036 221.084 174.472 219.848 174.472C219.188 174.472 218.738 174.598 218.498 174.85C218.258 175.09 218.09 175.432 217.994 175.876H216.284C216.356 175.084 216.674 174.424 217.238 173.896C217.802 173.368 218.69 173.11 219.902 173.122C222.254 173.122 223.43 174.13 223.43 176.146ZM221.72 178.378V178.09H220.316C218.54 178.09 217.652 178.66 217.652 179.8C217.652 180.268 217.802 180.646 218.102 180.934C218.402 181.222 218.816 181.366 219.344 181.366C219.848 181.366 220.262 181.288 220.586 181.132C220.922 180.976 221.168 180.748 221.324 180.448C221.48 180.148 221.582 179.842 221.63 179.53C221.69 179.206 221.72 178.822 221.72 178.378ZM229.481 174.742V173.338H231.029V170.674H232.793V173.338H234.773V174.742H232.793V179.944C232.793 180.4 232.865 180.73 233.009 180.934C233.153 181.126 233.423 181.222 233.819 181.222C234.167 181.222 234.419 181.198 234.575 181.15V182.464C234.263 182.572 233.789 182.626 233.153 182.626C232.409 182.626 231.869 182.44 231.533 182.068C231.197 181.684 231.029 181.096 231.029 180.304V174.742H229.481ZM236.363 182.5V175.822C236.363 175.366 236.357 174.868 236.345 174.328C236.345 173.788 236.345 173.458 236.345 173.338H238.073C238.109 173.59 238.127 174.196 238.127 175.156C238.367 174.544 238.751 174.058 239.279 173.698C239.807 173.326 240.443 173.134 241.187 173.122V174.868C239.147 174.904 238.127 175.996 238.127 178.144V182.5H236.363ZM250.214 173.338V179.836C250.214 180.148 250.214 180.628 250.214 181.276C250.226 181.924 250.232 182.332 250.232 182.5H248.504C248.468 182.26 248.45 181.822 248.45 181.186C247.97 182.206 247.064 182.716 245.732 182.716C244.832 182.716 244.1 182.452 243.536 181.924C242.972 181.384 242.69 180.526 242.69 179.35V173.338H244.454V178.972C244.454 180.46 245.054 181.204 246.254 181.204C247.046 181.204 247.61 180.97 247.946 180.502C248.282 180.022 248.45 179.23 248.45 178.126V173.338H250.214ZM251.893 174.742V173.338H253.441V170.674H255.205V173.338H257.185V174.742H255.205V179.944C255.205 180.4 255.277 180.73 255.421 180.934C255.565 181.126 255.835 181.222 256.231 181.222C256.579 181.222 256.831 181.198 256.987 181.15V182.464C256.675 182.572 256.201 182.626 255.565 182.626C254.821 182.626 254.281 182.44 253.945 182.068C253.609 181.684 253.441 181.096 253.441 180.304V174.742H251.893ZM258.81 169.306H260.574V174.634C261.174 173.626 262.11 173.122 263.382 173.122C264.258 173.122 264.99 173.404 265.578 173.968C266.178 174.52 266.478 175.414 266.478 176.65V182.5H264.714V176.938C264.714 175.39 264.084 174.616 262.824 174.616C261.324 174.616 260.574 175.582 260.574 177.514V182.5H258.81V169.306ZM272.512 174.742V173.338H274.06V170.674H275.824V173.338H277.804V174.742H275.824V179.944C275.824 180.4 275.896 180.73 276.04 180.934C276.184 181.126 276.454 181.222 276.85 181.222C277.198 181.222 277.45 181.198 277.606 181.15V182.464C277.294 182.572 276.82 182.626 276.184 182.626C275.44 182.626 274.9 182.44 274.564 182.068C274.228 181.684 274.06 181.096 274.06 180.304V174.742H272.512ZM279.429 169.306H281.193V174.634C281.793 173.626 282.729 173.122 284.001 173.122C284.877 173.122 285.609 173.404 286.197 173.968C286.797 174.52 287.097 175.414 287.097 176.65V182.5H285.333V176.938C285.333 175.39 284.703 174.616 283.443 174.616C281.943 174.616 281.193 175.582 281.193 177.514V182.5H279.429V169.306ZM296.591 176.146V180.43C296.591 181.414 296.633 182.104 296.717 182.5H295.043C294.983 182.32 294.929 181.942 294.881 181.366C294.413 182.266 293.489 182.716 292.109 182.716C291.089 182.716 290.315 182.44 289.787 181.888C289.271 181.336 289.013 180.676 289.013 179.908C289.013 178.9 289.385 178.15 290.129 177.658C290.885 177.154 291.959 176.902 293.351 176.902H294.863V176.164C294.863 175.036 294.245 174.472 293.009 174.472C292.349 174.472 291.899 174.598 291.659 174.85C291.419 175.09 291.251 175.432 291.155 175.876H289.445C289.517 175.084 289.835 174.424 290.399 173.896C290.963 173.368 291.851 173.11 293.063 173.122C295.415 173.122 296.591 174.13 296.591 176.146ZM294.881 178.378V178.09H293.477C291.701 178.09 290.813 178.66 290.813 179.8C290.813 180.268 290.963 180.646 291.263 180.934C291.563 181.222 291.977 181.366 292.505 181.366C293.009 181.366 293.423 181.288 293.747 181.132C294.083 180.976 294.329 180.748 294.485 180.448C294.641 180.148 294.743 179.842 294.791 179.53C294.851 179.206 294.881 178.822 294.881 178.378ZM297.983 174.742V173.338H299.531V170.674H301.295V173.338H303.275V174.742H301.295V179.944C301.295 180.4 301.367 180.73 301.511 180.934C301.655 181.126 301.925 181.222 302.321 181.222C302.669 181.222 302.921 181.198 303.077 181.15V182.464C302.765 182.572 302.291 182.626 301.655 182.626C300.911 182.626 300.371 182.44 300.035 182.068C299.699 181.684 299.531 181.096 299.531 180.304V174.742H297.983ZM308.605 173.338H310.477C311.605 177.694 312.223 180.208 312.331 180.88H312.349C312.541 179.944 313.213 177.43 314.365 173.338H316.075C317.251 177.742 317.887 180.202 317.983 180.718H318.001C318.229 179.674 318.871 177.214 319.927 173.338H321.709L318.901 182.5H316.993C315.769 177.748 315.151 175.33 315.139 175.246H315.121C315.025 175.846 314.389 178.264 313.213 182.5H311.251L308.605 173.338ZM330.024 176.146V180.43C330.024 181.414 330.066 182.104 330.15 182.5H328.476C328.416 182.32 328.362 181.942 328.314 181.366C327.846 182.266 326.922 182.716 325.542 182.716C324.522 182.716 323.748 182.44 323.22 181.888C322.704 181.336 322.446 180.676 322.446 179.908C322.446 178.9 322.818 178.15 323.562 177.658C324.318 177.154 325.392 176.902 326.784 176.902H328.296V176.164C328.296 175.036 327.678 174.472 326.442 174.472C325.782 174.472 325.332 174.598 325.092 174.85C324.852 175.09 324.684 175.432 324.588 175.876H322.878C322.95 175.084 323.268 174.424 323.832 173.896C324.396 173.368 325.284 173.11 326.496 173.122C328.848 173.122 330.024 174.13 330.024 176.146ZM328.314 178.378V178.09H326.91C325.134 178.09 324.246 178.66 324.246 179.8C324.246 180.268 324.396 180.646 324.696 180.934C324.996 181.222 325.41 181.366 325.938 181.366C326.442 181.366 326.856 181.288 327.18 181.132C327.516 180.976 327.762 180.748 327.918 180.448C328.074 180.148 328.176 179.842 328.224 179.53C328.284 179.206 328.314 178.822 328.314 178.378ZM332.673 182.5V175.642C332.673 174.574 332.667 173.806 332.655 173.338H334.383C334.431 173.698 334.455 174.178 334.455 174.778C334.959 173.674 335.901 173.122 337.281 173.122C338.205 173.122 338.943 173.416 339.495 174.004C340.059 174.592 340.341 175.462 340.341 176.614V182.5H338.577V176.83C338.577 175.354 337.959 174.616 336.723 174.616C335.211 174.616 334.455 175.612 334.455 177.604V182.5H332.673ZM341.718 174.742V173.338H343.266V170.674H345.03V173.338H347.01V174.742H345.03V179.944C345.03 180.4 345.102 180.73 345.246 180.934C345.39 181.126 345.66 181.222 346.056 181.222C346.404 181.222 346.656 181.198 346.812 181.15V182.464C346.5 182.572 346.026 182.626 345.39 182.626C344.646 182.626 344.106 182.44 343.77 182.068C343.434 181.684 343.266 181.096 343.266 180.304V174.742H341.718ZM348.054 179.854H349.818C350.058 180.85 350.772 181.348 351.96 181.348C353.124 181.348 353.706 180.916 353.706 180.052C353.706 179.644 353.562 179.332 353.274 179.116C352.998 178.888 352.452 178.672 351.636 178.468C350.364 178.168 349.506 177.808 349.062 177.388C348.63 176.968 348.414 176.416 348.414 175.732C348.414 175.012 348.696 174.4 349.26 173.896C349.824 173.38 350.67 173.122 351.798 173.122C352.926 173.122 353.778 173.386 354.354 173.914C354.93 174.43 355.248 175.054 355.308 175.786H353.616C353.412 174.898 352.782 174.454 351.726 174.454C351.174 174.454 350.772 174.562 350.52 174.778C350.28 174.994 350.16 175.264 350.16 175.588C350.16 175.924 350.292 176.188 350.556 176.38C350.82 176.56 351.354 176.746 352.158 176.938C353.49 177.25 354.384 177.64 354.84 178.108C355.296 178.564 355.524 179.164 355.524 179.908C355.524 180.736 355.206 181.414 354.57 181.942C353.946 182.458 353.052 182.716 351.888 182.716C350.724 182.716 349.824 182.458 349.188 181.942C348.552 181.426 348.174 180.73 348.054 179.854ZM360.895 174.742V173.338H362.443V170.674H364.207V173.338H366.187V174.742H364.207V179.944C364.207 180.4 364.279 180.73 364.423 180.934C364.567 181.126 364.837 181.222 365.233 181.222C365.581 181.222 365.833 181.198 365.989 181.15V182.464C365.677 182.572 365.203 182.626 364.567 182.626C363.823 182.626 363.283 182.44 362.947 182.068C362.611 181.684 362.443 181.096 362.443 180.304V174.742H360.895ZM371.503 173.122C372.787 173.122 373.813 173.56 374.581 174.436C375.361 175.3 375.751 176.452 375.751 177.892C375.751 179.284 375.367 180.436 374.599 181.348C373.831 182.26 372.763 182.716 371.395 182.716C370.087 182.716 369.049 182.272 368.281 181.384C367.513 180.484 367.129 179.332 367.129 177.928C367.129 176.524 367.519 175.372 368.299 174.472C369.079 173.572 370.147 173.122 371.503 173.122ZM373.285 175.48C372.853 174.88 372.235 174.58 371.431 174.58C370.627 174.58 370.009 174.874 369.577 175.462C369.157 176.05 368.947 176.866 368.947 177.91C368.947 178.906 369.175 179.716 369.631 180.34C370.087 180.952 370.699 181.258 371.467 181.258C372.247 181.258 372.853 180.958 373.285 180.358C373.729 179.758 373.951 178.948 373.951 177.928C373.951 176.896 373.729 176.08 373.285 175.48ZM381.487 179.854H383.251C383.491 180.85 384.205 181.348 385.393 181.348C386.557 181.348 387.139 180.916 387.139 180.052C387.139 179.644 386.995 179.332 386.707 179.116C386.431 178.888 385.885 178.672 385.069 178.468C383.797 178.168 382.939 177.808 382.495 177.388C382.063 176.968 381.847 176.416 381.847 175.732C381.847 175.012 382.129 174.4 382.693 173.896C383.257 173.38 384.103 173.122 385.231 173.122C386.359 173.122 387.211 173.386 387.787 173.914C388.363 174.43 388.681 175.054 388.741 175.786H387.049C386.845 174.898 386.215 174.454 385.159 174.454C384.607 174.454 384.205 174.562 383.953 174.778C383.713 174.994 383.593 175.264 383.593 175.588C383.593 175.924 383.725 176.188 383.989 176.38C384.253 176.56 384.787 176.746 385.591 176.938C386.923 177.25 387.817 177.64 388.273 178.108C388.729 178.564 388.957 179.164 388.957 179.908C388.957 180.736 388.639 181.414 388.003 181.942C387.379 182.458 386.485 182.716 385.321 182.716C384.157 182.716 383.257 182.458 382.621 181.942C381.985 181.426 381.607 180.73 381.487 179.854ZM398.257 173.338V179.836C398.257 180.148 398.257 180.628 398.257 181.276C398.269 181.924 398.275 182.332 398.275 182.5H396.547C396.511 182.26 396.493 181.822 396.493 181.186C396.013 182.206 395.107 182.716 393.775 182.716C392.875 182.716 392.143 182.452 391.579 181.924C391.015 181.384 390.733 180.526 390.733 179.35V173.338H392.497V178.972C392.497 180.46 393.097 181.204 394.297 181.204C395.089 181.204 395.653 180.97 395.989 180.502C396.325 180.022 396.493 179.23 396.493 178.126V173.338H398.257ZM400.877 182.5V175.822C400.877 175.366 400.871 174.868 400.859 174.328C400.859 173.788 400.859 173.458 400.859 173.338H402.587C402.623 173.59 402.641 174.196 402.641 175.156C402.881 174.544 403.265 174.058 403.793 173.698C404.321 173.326 404.957 173.134 405.701 173.122V174.868C403.661 174.904 402.641 175.996 402.641 178.144V182.5H400.877ZM409.889 182.5H408.125V174.742H406.685V173.338H408.125V172.294C408.125 171.346 408.341 170.584 408.773 170.008C409.205 169.42 409.895 169.126 410.843 169.126C411.323 169.126 411.671 169.162 411.887 169.234V170.71C411.707 170.662 411.455 170.638 411.131 170.638C410.687 170.638 410.369 170.776 410.177 171.052C409.985 171.328 409.889 171.784 409.889 172.42V173.338H411.689V174.742H409.889V182.5ZM419.884 176.146V180.43C419.884 181.414 419.926 182.104 420.01 182.5H418.336C418.276 182.32 418.222 181.942 418.174 181.366C417.706 182.266 416.782 182.716 415.402 182.716C414.382 182.716 413.608 182.44 413.08 181.888C412.564 181.336 412.306 180.676 412.306 179.908C412.306 178.9 412.678 178.15 413.422 177.658C414.178 177.154 415.252 176.902 416.644 176.902H418.156V176.164C418.156 175.036 417.538 174.472 416.302 174.472C415.642 174.472 415.192 174.598 414.952 174.85C414.712 175.09 414.544 175.432 414.448 175.876H412.738C412.81 175.084 413.128 174.424 413.692 173.896C414.256 173.368 415.144 173.11 416.356 173.122C418.708 173.122 419.884 174.13 419.884 176.146ZM418.174 178.378V178.09H416.77C414.994 178.09 414.106 178.66 414.106 179.8C414.106 180.268 414.256 180.646 414.556 180.934C414.856 181.222 415.27 181.366 415.798 181.366C416.302 181.366 416.716 181.288 417.04 181.132C417.376 180.976 417.622 180.748 417.778 180.448C417.934 180.148 418.036 179.842 418.084 179.53C418.144 179.206 418.174 178.822 418.174 178.378ZM428.149 179.674H429.895C429.679 180.562 429.259 181.294 428.635 181.87C428.023 182.434 427.159 182.716 426.043 182.716C424.759 182.716 423.751 182.29 423.019 181.438C422.287 180.574 421.921 179.416 421.921 177.964C421.921 176.596 422.299 175.45 423.055 174.526C423.811 173.59 424.849 173.122 426.169 173.122C426.805 173.122 427.369 173.23 427.861 173.446C428.365 173.65 428.749 173.92 429.013 174.256C429.289 174.58 429.493 174.91 429.625 175.246C429.769 175.57 429.859 175.894 429.895 176.218H428.149C427.909 175.126 427.237 174.58 426.133 174.58C425.377 174.58 424.789 174.88 424.369 175.48C423.949 176.08 423.739 176.89 423.739 177.91C423.739 178.942 423.943 179.764 424.351 180.376C424.759 180.976 425.335 181.276 426.079 181.276C427.099 181.276 427.789 180.742 428.149 179.674ZM439.356 178.252H432.984C432.996 179.14 433.212 179.866 433.632 180.43C434.052 180.982 434.628 181.258 435.36 181.258C435.972 181.258 436.428 181.138 436.728 180.898C437.04 180.658 437.28 180.334 437.448 179.926H439.23C439.122 180.262 438.984 180.58 438.816 180.88C438.648 181.168 438.414 181.462 438.114 181.762C437.826 182.05 437.436 182.284 436.944 182.464C436.464 182.632 435.918 182.716 435.306 182.716C433.95 182.716 432.924 182.26 432.228 181.348C431.544 180.436 431.202 179.326 431.202 178.018C431.202 176.578 431.562 175.402 432.282 174.49C433.014 173.578 434.058 173.122 435.414 173.122C436.122 173.122 436.746 173.254 437.286 173.518C437.826 173.782 438.24 174.13 438.528 174.562C438.828 174.994 439.044 175.456 439.176 175.948C439.32 176.44 439.392 176.956 439.392 177.496C439.392 177.832 439.38 178.084 439.356 178.252ZM433.038 177.046H437.61C437.598 176.29 437.406 175.678 437.034 175.21C436.662 174.73 436.116 174.49 435.396 174.49C433.992 174.49 433.206 175.342 433.038 177.046ZM443.03 182.5H441.158V179.746H443.03V182.5ZM47.64 202.5V191.574H43.644V189.99H53.508V191.574H49.512V202.5H47.64ZM54.9214 189.306H56.6854V194.634C57.2854 193.626 58.2214 193.122 59.4934 193.122C60.3694 193.122 61.1014 193.404 61.6894 193.968C62.2894 194.52 62.5894 195.414 62.5894 196.65V202.5H60.8254V196.938C60.8254 195.39 60.1954 194.616 58.9354 194.616C57.4354 194.616 56.6854 195.582 56.6854 197.514V202.5H54.9214V189.306ZM72.7462 198.252H66.3742C66.3862 199.14 66.6022 199.866 67.0222 200.43C67.4422 200.982 68.0182 201.258 68.7502 201.258C69.3622 201.258 69.8182 201.138 70.1182 200.898C70.4302 200.658 70.6702 200.334 70.8382 199.926H72.6202C72.5122 200.262 72.3742 200.58 72.2062 200.88C72.0382 201.168 71.8042 201.462 71.5042 201.762C71.2162 202.05 70.8262 202.284 70.3342 202.464C69.8542 202.632 69.3082 202.716 68.6962 202.716C67.3402 202.716 66.3142 202.26 65.6182 201.348C64.9342 200.436 64.5922 199.326 64.5922 198.018C64.5922 196.578 64.9522 195.402 65.6722 194.49C66.4042 193.578 67.4482 193.122 68.8042 193.122C69.5122 193.122 70.1362 193.254 70.6762 193.518C71.2162 193.782 71.6302 194.13 71.9182 194.562C72.2182 194.994 72.4342 195.456 72.5662 195.948C72.7102 196.44 72.7822 196.956 72.7822 197.496C72.7822 197.832 72.7702 198.084 72.7462 198.252ZM66.4282 197.046H71.0002C70.9882 196.29 70.7962 195.678 70.4242 195.21C70.0522 194.73 69.5062 194.49 68.7862 194.49C67.3822 194.49 66.5962 195.342 66.4282 197.046ZM84.8831 199.674H86.6291C86.4131 200.562 85.9931 201.294 85.3691 201.87C84.7571 202.434 83.8931 202.716 82.7771 202.716C81.4931 202.716 80.4851 202.29 79.7531 201.438C79.0211 200.574 78.6551 199.416 78.6551 197.964C78.6551 196.596 79.0331 195.45 79.7891 194.526C80.5451 193.59 81.5831 193.122 82.9031 193.122C83.5391 193.122 84.1031 193.23 84.5951 193.446C85.0991 193.65 85.4831 193.92 85.7471 194.256C86.0231 194.58 86.2271 194.91 86.3591 195.246C86.5031 195.57 86.5931 195.894 86.6291 196.218H84.8831C84.6431 195.126 83.9711 194.58 82.8671 194.58C82.1111 194.58 81.5231 194.88 81.1031 195.48C80.6831 196.08 80.4731 196.89 80.4731 197.91C80.4731 198.942 80.6771 199.764 81.0851 200.376C81.4931 200.976 82.0691 201.276 82.8131 201.276C83.8331 201.276 84.5231 200.742 84.8831 199.674ZM92.31 193.122C93.594 193.122 94.62 193.56 95.388 194.436C96.168 195.3 96.558 196.452 96.558 197.892C96.558 199.284 96.174 200.436 95.406 201.348C94.638 202.26 93.57 202.716 92.202 202.716C90.894 202.716 89.856 202.272 89.088 201.384C88.32 200.484 87.936 199.332 87.936 197.928C87.936 196.524 88.326 195.372 89.106 194.472C89.886 193.572 90.954 193.122 92.31 193.122ZM94.092 195.48C93.66 194.88 93.042 194.58 92.238 194.58C91.434 194.58 90.816 194.874 90.384 195.462C89.964 196.05 89.754 196.866 89.754 197.91C89.754 198.906 89.982 199.716 90.438 200.34C90.894 200.952 91.506 201.258 92.274 201.258C93.054 201.258 93.66 200.958 94.092 200.358C94.536 199.758 94.758 198.948 94.758 197.928C94.758 196.896 94.536 196.08 94.092 195.48ZM98.5503 202.5V195.642C98.5503 194.574 98.5443 193.806 98.5323 193.338H100.26C100.308 193.698 100.332 194.178 100.332 194.778C100.836 193.674 101.778 193.122 103.158 193.122C104.082 193.122 104.82 193.416 105.372 194.004C105.936 194.592 106.218 195.462 106.218 196.614V202.5H104.454V196.83C104.454 195.354 103.836 194.616 102.6 194.616C101.088 194.616 100.332 195.612 100.332 197.604V202.5H98.5503ZM108.834 202.5V195.642C108.834 194.574 108.828 193.806 108.816 193.338H110.544C110.592 193.698 110.616 194.178 110.616 194.778C111.12 193.674 112.062 193.122 113.442 193.122C114.366 193.122 115.104 193.416 115.656 194.004C116.22 194.592 116.502 195.462 116.502 196.614V202.5H114.738V196.83C114.738 195.354 114.12 194.616 112.884 194.616C111.372 194.616 110.616 195.612 110.616 197.604V202.5H108.834ZM126.641 198.252H120.269C120.281 199.14 120.497 199.866 120.917 200.43C121.337 200.982 121.913 201.258 122.645 201.258C123.257 201.258 123.713 201.138 124.013 200.898C124.325 200.658 124.565 200.334 124.733 199.926H126.515C126.407 200.262 126.269 200.58 126.101 200.88C125.933 201.168 125.699 201.462 125.399 201.762C125.111 202.05 124.721 202.284 124.229 202.464C123.749 202.632 123.203 202.716 122.591 202.716C121.235 202.716 120.209 202.26 119.513 201.348C118.829 200.436 118.487 199.326 118.487 198.018C118.487 196.578 118.847 195.402 119.567 194.49C120.299 193.578 121.343 193.122 122.699 193.122C123.407 193.122 124.031 193.254 124.571 193.518C125.111 193.782 125.525 194.13 125.813 194.562C126.113 194.994 126.329 195.456 126.461 195.948C126.605 196.44 126.677 196.956 126.677 197.496C126.677 197.832 126.665 198.084 126.641 198.252ZM120.323 197.046H124.895C124.883 196.29 124.691 195.678 124.319 195.21C123.947 194.73 123.401 194.49 122.681 194.49C121.277 194.49 120.491 195.342 120.323 197.046ZM134.383 199.674H136.129C135.913 200.562 135.493 201.294 134.869 201.87C134.257 202.434 133.393 202.716 132.277 202.716C130.993 202.716 129.985 202.29 129.253 201.438C128.521 200.574 128.155 199.416 128.155 197.964C128.155 196.596 128.533 195.45 129.289 194.526C130.045 193.59 131.083 193.122 132.403 193.122C133.039 193.122 133.603 193.23 134.095 193.446C134.599 193.65 134.983 193.92 135.247 194.256C135.523 194.58 135.727 194.91 135.859 195.246C136.003 195.57 136.093 195.894 136.129 196.218H134.383C134.143 195.126 133.471 194.58 132.367 194.58C131.611 194.58 131.023 194.88 130.603 195.48C130.183 196.08 129.973 196.89 129.973 197.91C129.973 198.942 130.177 199.764 130.585 200.376C130.993 200.976 131.569 201.276 132.313 201.276C133.333 201.276 134.023 200.742 134.383 199.674ZM137.038 194.742V193.338H138.586V190.674H140.35V193.338H142.33V194.742H140.35V199.944C140.35 200.4 140.422 200.73 140.566 200.934C140.71 201.126 140.98 201.222 141.376 201.222C141.724 201.222 141.976 201.198 142.132 201.15V202.464C141.82 202.572 141.346 202.626 140.71 202.626C139.966 202.626 139.426 202.44 139.09 202.068C138.754 201.684 138.586 201.096 138.586 200.304V194.742H137.038ZM143.955 202.5V193.338H145.719V202.5H143.955ZM145.719 191.34H143.955V189.306H145.719V191.34ZM152.093 193.122C153.377 193.122 154.403 193.56 155.171 194.436C155.951 195.3 156.341 196.452 156.341 197.892C156.341 199.284 155.957 200.436 155.189 201.348C154.421 202.26 153.353 202.716 151.985 202.716C150.677 202.716 149.639 202.272 148.871 201.384C148.103 200.484 147.719 199.332 147.719 197.928C147.719 196.524 148.109 195.372 148.889 194.472C149.669 193.572 150.737 193.122 152.093 193.122ZM153.875 195.48C153.443 194.88 152.825 194.58 152.021 194.58C151.217 194.58 150.599 194.874 150.167 195.462C149.747 196.05 149.537 196.866 149.537 197.91C149.537 198.906 149.765 199.716 150.221 200.34C150.677 200.952 151.289 201.258 152.057 201.258C152.837 201.258 153.443 200.958 153.875 200.358C154.319 199.758 154.541 198.948 154.541 197.928C154.541 196.896 154.319 196.08 153.875 195.48ZM158.334 202.5V195.642C158.334 194.574 158.328 193.806 158.316 193.338H160.044C160.092 193.698 160.116 194.178 160.116 194.778C160.62 193.674 161.562 193.122 162.942 193.122C163.866 193.122 164.604 193.416 165.156 194.004C165.72 194.592 166.002 195.462 166.002 196.614V202.5H164.238V196.83C164.238 195.354 163.62 194.616 162.384 194.616C160.872 194.616 160.116 195.612 160.116 197.604V202.5H158.334ZM173.134 202.5V195.696C173.134 194.628 173.128 193.842 173.116 193.338H174.808C174.856 193.698 174.88 194.148 174.88 194.688C175.444 193.644 176.326 193.122 177.526 193.122C178.15 193.122 178.678 193.266 179.11 193.554C179.542 193.842 179.848 194.226 180.028 194.706C180.652 193.65 181.618 193.122 182.926 193.122C183.766 193.122 184.456 193.398 184.996 193.95C185.548 194.49 185.824 195.336 185.824 196.488V202.5H184.096V196.686C184.096 196.098 183.964 195.606 183.7 195.21C183.436 194.814 182.992 194.616 182.368 194.616C181.684 194.616 181.174 194.85 180.838 195.318C180.514 195.774 180.352 196.416 180.352 197.244V202.5H178.624V196.758C178.624 195.33 178.06 194.616 176.932 194.616C176.26 194.616 175.75 194.868 175.402 195.372C175.054 195.864 174.88 196.548 174.88 197.424V202.5H173.134ZM195.305 196.146V200.43C195.305 201.414 195.347 202.104 195.431 202.5H193.757C193.697 202.32 193.643 201.942 193.595 201.366C193.127 202.266 192.203 202.716 190.823 202.716C189.803 202.716 189.029 202.44 188.501 201.888C187.985 201.336 187.727 200.676 187.727 199.908C187.727 198.9 188.099 198.15 188.843 197.658C189.599 197.154 190.673 196.902 192.065 196.902H193.577V196.164C193.577 195.036 192.959 194.472 191.723 194.472C191.063 194.472 190.613 194.598 190.373 194.85C190.133 195.09 189.965 195.432 189.869 195.876H188.159C188.231 195.084 188.549 194.424 189.113 193.896C189.677 193.368 190.565 193.11 191.777 193.122C194.129 193.122 195.305 194.13 195.305 196.146ZM193.595 198.378V198.09H192.191C190.415 198.09 189.527 198.66 189.527 199.8C189.527 200.268 189.677 200.646 189.977 200.934C190.277 201.222 190.691 201.366 191.219 201.366C191.723 201.366 192.137 201.288 192.461 201.132C192.797 200.976 193.043 200.748 193.199 200.448C193.355 200.148 193.457 199.842 193.505 199.53C193.565 199.206 193.595 198.822 193.595 198.378ZM196.697 193.338H198.605C199.997 197.502 200.807 200.028 201.035 200.916H201.053C201.341 199.812 202.115 197.286 203.375 193.338H205.157L201.899 202.896C201.443 204.24 200.975 205.134 200.495 205.578C200.027 206.034 199.307 206.262 198.335 206.262C198.023 206.262 197.681 206.244 197.309 206.208V204.696C197.537 204.732 197.783 204.75 198.047 204.75C198.599 204.75 199.019 204.612 199.307 204.336C199.595 204.06 199.865 203.562 200.117 202.842L196.697 193.338ZM213.208 202.5H211.444V194.742H210.004V193.338H211.444V192.294C211.444 191.346 211.66 190.584 212.092 190.008C212.524 189.42 213.214 189.126 214.162 189.126C214.642 189.126 214.99 189.162 215.206 189.234V190.71C215.026 190.662 214.774 190.638 214.45 190.638C214.006 190.638 213.688 190.776 213.496 191.052C213.304 191.328 213.208 191.784 213.208 192.42V193.338H215.008V194.742H213.208V202.5ZM223.848 198.252H217.476C217.488 199.14 217.704 199.866 218.124 200.43C218.544 200.982 219.12 201.258 219.852 201.258C220.464 201.258 220.92 201.138 221.22 200.898C221.532 200.658 221.772 200.334 221.94 199.926H223.722C223.614 200.262 223.476 200.58 223.308 200.88C223.14 201.168 222.906 201.462 222.606 201.762C222.318 202.05 221.928 202.284 221.436 202.464C220.956 202.632 220.41 202.716 219.798 202.716C218.442 202.716 217.416 202.26 216.72 201.348C216.036 200.436 215.694 199.326 215.694 198.018C215.694 196.578 216.054 195.402 216.774 194.49C217.506 193.578 218.55 193.122 219.906 193.122C220.614 193.122 221.238 193.254 221.778 193.518C222.318 193.782 222.732 194.13 223.02 194.562C223.32 194.994 223.536 195.456 223.668 195.948C223.812 196.44 223.884 196.956 223.884 197.496C223.884 197.832 223.872 198.084 223.848 198.252ZM217.53 197.046H222.102C222.09 196.29 221.898 195.678 221.526 195.21C221.154 194.73 220.608 194.49 219.888 194.49C218.484 194.49 217.698 195.342 217.53 197.046ZM233.498 198.252H227.126C227.138 199.14 227.354 199.866 227.774 200.43C228.194 200.982 228.77 201.258 229.502 201.258C230.114 201.258 230.57 201.138 230.87 200.898C231.182 200.658 231.422 200.334 231.59 199.926H233.372C233.264 200.262 233.126 200.58 232.958 200.88C232.79 201.168 232.556 201.462 232.256 201.762C231.968 202.05 231.578 202.284 231.086 202.464C230.606 202.632 230.06 202.716 229.448 202.716C228.092 202.716 227.066 202.26 226.37 201.348C225.686 200.436 225.344 199.326 225.344 198.018C225.344 196.578 225.704 195.402 226.424 194.49C227.156 193.578 228.2 193.122 229.556 193.122C230.264 193.122 230.888 193.254 231.428 193.518C231.968 193.782 232.382 194.13 232.67 194.562C232.97 194.994 233.186 195.456 233.318 195.948C233.462 196.44 233.534 196.956 233.534 197.496C233.534 197.832 233.522 198.084 233.498 198.252ZM227.18 197.046H231.752C231.74 196.29 231.548 195.678 231.176 195.21C230.804 194.73 230.258 194.49 229.538 194.49C228.134 194.49 227.348 195.342 227.18 197.046ZM237.318 202.5H235.554V189.306H237.318V202.5ZM244.466 202.5V193.338H246.23V202.5H244.466ZM246.23 191.34H244.466V189.306H246.23V191.34ZM248.861 202.5V195.642C248.861 194.574 248.855 193.806 248.843 193.338H250.571C250.619 193.698 250.643 194.178 250.643 194.778C251.147 193.674 252.089 193.122 253.469 193.122C254.393 193.122 255.131 193.416 255.683 194.004C256.247 194.592 256.529 195.462 256.529 196.614V202.5H254.765V196.83C254.765 195.354 254.147 194.616 252.911 194.616C251.399 194.616 250.643 195.612 250.643 197.604V202.5H248.861ZM257.905 194.742V193.338H259.453V190.674H261.217V193.338H263.197V194.742H261.217V199.944C261.217 200.4 261.289 200.73 261.433 200.934C261.577 201.126 261.847 201.222 262.243 201.222C262.591 201.222 262.843 201.198 262.999 201.15V202.464C262.687 202.572 262.213 202.626 261.577 202.626C260.833 202.626 260.293 202.44 259.957 202.068C259.621 201.684 259.453 201.096 259.453 200.304V194.742H257.905ZM272.293 198.252H265.921C265.933 199.14 266.149 199.866 266.569 200.43C266.989 200.982 267.565 201.258 268.297 201.258C268.909 201.258 269.365 201.138 269.665 200.898C269.977 200.658 270.217 200.334 270.385 199.926H272.167C272.059 200.262 271.921 200.58 271.753 200.88C271.585 201.168 271.351 201.462 271.051 201.762C270.763 202.05 270.373 202.284 269.881 202.464C269.401 202.632 268.855 202.716 268.243 202.716C266.887 202.716 265.861 202.26 265.165 201.348C264.481 200.436 264.139 199.326 264.139 198.018C264.139 196.578 264.499 195.402 265.219 194.49C265.951 193.578 266.995 193.122 268.351 193.122C269.059 193.122 269.683 193.254 270.223 193.518C270.763 193.782 271.177 194.13 271.465 194.562C271.765 194.994 271.981 195.456 272.113 195.948C272.257 196.44 272.329 196.956 272.329 197.496C272.329 197.832 272.317 198.084 272.293 198.252ZM265.975 197.046H270.547C270.535 196.29 270.343 195.678 269.971 195.21C269.599 194.73 269.053 194.49 268.333 194.49C266.929 194.49 266.143 195.342 265.975 197.046ZM274.296 202.5V195.642C274.296 194.574 274.29 193.806 274.278 193.338H276.006C276.054 193.698 276.078 194.178 276.078 194.778C276.582 193.674 277.524 193.122 278.904 193.122C279.828 193.122 280.566 193.416 281.118 194.004C281.682 194.592 281.964 195.462 281.964 196.614V202.5H280.2V196.83C280.2 195.354 279.582 194.616 278.346 194.616C276.834 194.616 276.078 195.612 276.078 197.604V202.5H274.296ZM283.7 199.854H285.464C285.704 200.85 286.418 201.348 287.606 201.348C288.77 201.348 289.352 200.916 289.352 200.052C289.352 199.644 289.208 199.332 288.92 199.116C288.644 198.888 288.098 198.672 287.282 198.468C286.01 198.168 285.152 197.808 284.708 197.388C284.276 196.968 284.06 196.416 284.06 195.732C284.06 195.012 284.342 194.4 284.906 193.896C285.47 193.38 286.316 193.122 287.444 193.122C288.572 193.122 289.424 193.386 290 193.914C290.576 194.43 290.894 195.054 290.954 195.786H289.262C289.058 194.898 288.428 194.454 287.372 194.454C286.82 194.454 286.418 194.562 286.166 194.778C285.926 194.994 285.806 195.264 285.806 195.588C285.806 195.924 285.938 196.188 286.202 196.38C286.466 196.56 287 196.746 287.804 196.938C289.136 197.25 290.03 197.64 290.486 198.108C290.942 198.564 291.17 199.164 291.17 199.908C291.17 200.736 290.852 201.414 290.216 201.942C289.592 202.458 288.698 202.716 287.534 202.716C286.37 202.716 285.47 202.458 284.834 201.942C284.198 201.426 283.82 200.73 283.7 199.854ZM300.717 198.252H294.345C294.357 199.14 294.573 199.866 294.993 200.43C295.413 200.982 295.989 201.258 296.721 201.258C297.333 201.258 297.789 201.138 298.089 200.898C298.401 200.658 298.641 200.334 298.809 199.926H300.591C300.483 200.262 300.345 200.58 300.177 200.88C300.009 201.168 299.775 201.462 299.475 201.762C299.187 202.05 298.797 202.284 298.305 202.464C297.825 202.632 297.279 202.716 296.667 202.716C295.311 202.716 294.285 202.26 293.589 201.348C292.905 200.436 292.563 199.326 292.563 198.018C292.563 196.578 292.923 195.402 293.643 194.49C294.375 193.578 295.419 193.122 296.775 193.122C297.483 193.122 298.107 193.254 298.647 193.518C299.187 193.782 299.601 194.13 299.889 194.562C300.189 194.994 300.405 195.456 300.537 195.948C300.681 196.44 300.753 196.956 300.753 197.496C300.753 197.832 300.741 198.084 300.717 198.252ZM294.399 197.046H298.971C298.959 196.29 298.767 195.678 298.395 195.21C298.023 194.73 297.477 194.49 296.757 194.49C295.353 194.49 294.567 195.342 294.399 197.046ZM303.164 204.57H301.742C302.486 202.95 302.918 201.342 303.038 199.746H304.838C304.646 201.666 304.088 203.274 303.164 204.57ZM311.474 199.44V189.306H313.238V194.58C313.778 193.608 314.732 193.122 316.1 193.122C317.252 193.122 318.164 193.548 318.836 194.4C319.508 195.252 319.844 196.362 319.844 197.73C319.844 199.17 319.49 200.364 318.782 201.312C318.086 202.248 317.114 202.716 315.866 202.716C314.606 202.716 313.724 202.26 313.22 201.348C313.22 201.78 313.196 202.164 313.148 202.5H311.456C311.468 201.816 311.474 200.796 311.474 199.44ZM318.044 197.766C318.044 196.806 317.834 196.038 317.414 195.462C316.994 194.886 316.406 194.598 315.65 194.598C314.762 194.598 314.12 194.88 313.724 195.444C313.34 196.008 313.148 196.842 313.148 197.946C313.148 200.142 313.964 201.24 315.596 201.24C316.364 201.24 316.964 200.934 317.396 200.322C317.828 199.698 318.044 198.846 318.044 197.766ZM329.333 193.338V199.836C329.333 200.148 329.333 200.628 329.333 201.276C329.345 201.924 329.351 202.332 329.351 202.5H327.623C327.587 202.26 327.569 201.822 327.569 201.186C327.089 202.206 326.183 202.716 324.851 202.716C323.951 202.716 323.219 202.452 322.655 201.924C322.091 201.384 321.809 200.526 321.809 199.35V193.338H323.573V198.972C323.573 200.46 324.173 201.204 325.373 201.204C326.165 201.204 326.729 200.97 327.065 200.502C327.401 200.022 327.569 199.23 327.569 198.126V193.338H329.333ZM331.012 194.742V193.338H332.56V190.674H334.324V193.338H336.304V194.742H334.324V199.944C334.324 200.4 334.396 200.73 334.54 200.934C334.684 201.126 334.954 201.222 335.35 201.222C335.698 201.222 335.95 201.198 336.106 201.15V202.464C335.794 202.572 335.32 202.626 334.684 202.626C333.94 202.626 333.4 202.44 333.064 202.068C332.728 201.684 332.56 201.096 332.56 200.304V194.742H331.012ZM342.535 202.5V193.338H344.299V202.5H342.535ZM344.299 191.34H342.535V189.306H344.299V191.34ZM345.866 194.742V193.338H347.414V190.674H349.178V193.338H351.158V194.742H349.178V199.944C349.178 200.4 349.25 200.73 349.394 200.934C349.538 201.126 349.808 201.222 350.204 201.222C350.552 201.222 350.804 201.198 350.96 201.15V202.464C350.648 202.572 350.174 202.626 349.538 202.626C348.794 202.626 348.254 202.44 347.918 202.068C347.582 201.684 347.414 201.096 347.414 200.304V194.742H345.866ZM357.388 202.5V193.338H359.152V202.5H357.388ZM359.152 191.34H357.388V189.306H359.152V191.34ZM360.921 199.854H362.685C362.925 200.85 363.639 201.348 364.827 201.348C365.991 201.348 366.573 200.916 366.573 200.052C366.573 199.644 366.429 199.332 366.141 199.116C365.865 198.888 365.319 198.672 364.503 198.468C363.231 198.168 362.373 197.808 361.929 197.388C361.497 196.968 361.281 196.416 361.281 195.732C361.281 195.012 361.563 194.4 362.127 193.896C362.691 193.38 363.537 193.122 364.665 193.122C365.793 193.122 366.645 193.386 367.221 193.914C367.797 194.43 368.115 195.054 368.175 195.786H366.483C366.279 194.898 365.649 194.454 364.593 194.454C364.041 194.454 363.639 194.562 363.387 194.778C363.147 194.994 363.027 195.264 363.027 195.588C363.027 195.924 363.159 196.188 363.423 196.38C363.687 196.56 364.221 196.746 365.025 196.938C366.357 197.25 367.251 197.64 367.707 198.108C368.163 198.564 368.391 199.164 368.391 199.908C368.391 200.736 368.073 201.414 367.437 201.942C366.813 202.458 365.919 202.716 364.755 202.716C363.591 202.716 362.691 202.458 362.055 201.942C361.419 201.426 361.041 200.73 360.921 199.854ZM374.878 189.306H376.642V194.634C377.242 193.626 378.178 193.122 379.45 193.122C380.326 193.122 381.058 193.404 381.646 193.968C382.246 194.52 382.546 195.414 382.546 196.65V202.5H380.782V196.938C380.782 195.39 380.152 194.616 378.892 194.616C377.392 194.616 376.642 195.582 376.642 197.514V202.5H374.878V189.306ZM392.703 198.252H386.331C386.343 199.14 386.559 199.866 386.979 200.43C387.399 200.982 387.975 201.258 388.707 201.258C389.319 201.258 389.775 201.138 390.075 200.898C390.387 200.658 390.627 200.334 390.795 199.926H392.577C392.469 200.262 392.331 200.58 392.163 200.88C391.995 201.168 391.761 201.462 391.461 201.762C391.173 202.05 390.783 202.284 390.291 202.464C389.811 202.632 389.265 202.716 388.653 202.716C387.297 202.716 386.271 202.26 385.575 201.348C384.891 200.436 384.549 199.326 384.549 198.018C384.549 196.578 384.909 195.402 385.629 194.49C386.361 193.578 387.405 193.122 388.761 193.122C389.469 193.122 390.093 193.254 390.633 193.518C391.173 193.782 391.587 194.13 391.875 194.562C392.175 194.994 392.391 195.456 392.523 195.948C392.667 196.44 392.739 196.956 392.739 197.496C392.739 197.832 392.727 198.084 392.703 198.252ZM386.385 197.046H390.957C390.945 196.29 390.753 195.678 390.381 195.21C390.009 194.73 389.463 194.49 388.743 194.49C387.339 194.49 386.553 195.342 386.385 197.046ZM394.707 202.5V195.822C394.707 195.366 394.701 194.868 394.689 194.328C394.689 193.788 394.689 193.458 394.689 193.338H396.417C396.453 193.59 396.471 194.196 396.471 195.156C396.711 194.544 397.095 194.058 397.623 193.698C398.151 193.326 398.787 193.134 399.531 193.122V194.868C397.491 194.904 396.471 195.996 396.471 198.144V202.5H394.707ZM408.576 198.252H402.204C402.216 199.14 402.432 199.866 402.852 200.43C403.272 200.982 403.848 201.258 404.58 201.258C405.192 201.258 405.648 201.138 405.948 200.898C406.26 200.658 406.5 200.334 406.668 199.926H408.45C408.342 200.262 408.204 200.58 408.036 200.88C407.868 201.168 407.634 201.462 407.334 201.762C407.046 202.05 406.656 202.284 406.164 202.464C405.684 202.632 405.138 202.716 404.526 202.716C403.17 202.716 402.144 202.26 401.448 201.348C400.764 200.436 400.422 199.326 400.422 198.018C400.422 196.578 400.782 195.402 401.502 194.49C402.234 193.578 403.278 193.122 404.634 193.122C405.342 193.122 405.966 193.254 406.506 193.518C407.046 193.782 407.46 194.13 407.748 194.562C408.048 194.994 408.264 195.456 408.396 195.948C408.54 196.44 408.612 196.956 408.612 197.496C408.612 197.832 408.6 198.084 408.576 198.252ZM402.258 197.046H406.83C406.818 196.29 406.626 195.678 406.254 195.21C405.882 194.73 405.336 194.49 404.616 194.49C403.212 194.49 402.426 195.342 402.258 197.046ZM413.981 194.742V193.338H415.529V190.674H417.293V193.338H419.273V194.742H417.293V199.944C417.293 200.4 417.365 200.73 417.509 200.934C417.653 201.126 417.923 201.222 418.319 201.222C418.667 201.222 418.919 201.198 419.075 201.15V202.464C418.763 202.572 418.289 202.626 417.653 202.626C416.909 202.626 416.369 202.44 416.033 202.068C415.697 201.684 415.529 201.096 415.529 200.304V194.742H413.981ZM424.589 193.122C425.873 193.122 426.899 193.56 427.667 194.436C428.447 195.3 428.837 196.452 428.837 197.892C428.837 199.284 428.453 200.436 427.685 201.348C426.917 202.26 425.849 202.716 424.481 202.716C423.173 202.716 422.135 202.272 421.367 201.384C420.599 200.484 420.215 199.332 420.215 197.928C420.215 196.524 420.605 195.372 421.385 194.472C422.165 193.572 423.233 193.122 424.589 193.122ZM426.371 195.48C425.939 194.88 425.321 194.58 424.517 194.58C423.713 194.58 423.095 194.874 422.663 195.462C422.243 196.05 422.033 196.866 422.033 197.91C422.033 198.906 422.261 199.716 422.717 200.34C423.173 200.952 423.785 201.258 424.553 201.258C425.333 201.258 425.939 200.958 426.371 200.358C426.815 199.758 427.037 198.948 427.037 197.928C427.037 196.896 426.815 196.08 426.371 195.48ZM44.04 219.854H45.804C46.044 220.85 46.758 221.348 47.946 221.348C49.11 221.348 49.692 220.916 49.692 220.052C49.692 219.644 49.548 219.332 49.26 219.116C48.984 218.888 48.438 218.672 47.622 218.468C46.35 218.168 45.492 217.808 45.048 217.388C44.616 216.968 44.4 216.416 44.4 215.732C44.4 215.012 44.682 214.4 45.246 213.896C45.81 213.38 46.656 213.122 47.784 213.122C48.912 213.122 49.764 213.386 50.34 213.914C50.916 214.43 51.234 215.054 51.294 215.786H49.602C49.398 214.898 48.768 214.454 47.712 214.454C47.16 214.454 46.758 214.562 46.506 214.778C46.266 214.994 46.146 215.264 46.146 215.588C46.146 215.924 46.278 216.188 46.542 216.38C46.806 216.56 47.34 216.746 48.144 216.938C49.476 217.25 50.37 217.64 50.826 218.108C51.282 218.564 51.51 219.164 51.51 219.908C51.51 220.736 51.192 221.414 50.556 221.942C49.932 222.458 49.038 222.716 47.874 222.716C46.71 222.716 45.81 222.458 45.174 221.942C44.538 221.426 44.16 220.73 44.04 219.854ZM53.357 209.306H55.121V214.634C55.721 213.626 56.657 213.122 57.929 213.122C58.805 213.122 59.537 213.404 60.125 213.968C60.725 214.52 61.025 215.414 61.025 216.65V222.5H59.261V216.938C59.261 215.39 58.631 214.616 57.371 214.616C55.871 214.616 55.121 215.582 55.121 217.514V222.5H53.357V209.306ZM67.4018 213.122C68.6858 213.122 69.7118 213.56 70.4798 214.436C71.2598 215.3 71.6498 216.452 71.6498 217.892C71.6498 219.284 71.2658 220.436 70.4978 221.348C69.7298 222.26 68.6618 222.716 67.2938 222.716C65.9858 222.716 64.9478 222.272 64.1798 221.384C63.4118 220.484 63.0278 219.332 63.0278 217.928C63.0278 216.524 63.4178 215.372 64.1978 214.472C64.9778 213.572 66.0458 213.122 67.4018 213.122ZM69.1838 215.48C68.7518 214.88 68.1338 214.58 67.3298 214.58C66.5258 214.58 65.9078 214.874 65.4758 215.462C65.0558 216.05 64.8458 216.866 64.8458 217.91C64.8458 218.906 65.0738 219.716 65.5298 220.34C65.9858 220.952 66.5978 221.258 67.3658 221.258C68.1458 221.258 68.7518 220.958 69.1838 220.358C69.6278 219.758 69.8498 218.948 69.8498 217.928C69.8498 216.896 69.6278 216.08 69.1838 215.48ZM72.6542 213.338H74.5262C75.6542 217.694 76.2722 220.208 76.3802 220.88H76.3982C76.5902 219.944 77.2622 217.43 78.4142 213.338H80.1242C81.3002 217.742 81.9362 220.202 82.0322 220.718H82.0502C82.2782 219.674 82.9202 217.214 83.9762 213.338H85.7582L82.9502 222.5H81.0422C79.8182 217.748 79.2002 215.33 79.1882 215.246H79.1702C79.0742 215.846 78.4382 218.264 77.2622 222.5H75.3002L72.6542 213.338ZM91.1113 213.338H92.9833C94.1113 217.694 94.7293 220.208 94.8373 220.88H94.8553C95.0473 219.944 95.7193 217.43 96.8713 213.338H98.5813C99.7573 217.742 100.393 220.202 100.489 220.718H100.507C100.735 219.674 101.377 217.214 102.433 213.338H104.215L101.407 222.5H99.4993C98.2753 217.748 97.6573 215.33 97.6453 215.246H97.6273C97.5313 215.846 96.8953 218.264 95.7193 222.5H93.7573L91.1113 213.338ZM105.81 209.306H107.574V214.634C108.174 213.626 109.11 213.122 110.382 213.122C111.258 213.122 111.99 213.404 112.578 213.968C113.178 214.52 113.478 215.414 113.478 216.65V222.5H111.714V216.938C111.714 215.39 111.084 214.616 109.824 214.616C108.324 214.616 107.574 215.582 107.574 217.514V222.5H105.81V209.306ZM122.971 216.146V220.43C122.971 221.414 123.013 222.104 123.097 222.5H121.423C121.363 222.32 121.309 221.942 121.261 221.366C120.793 222.266 119.869 222.716 118.489 222.716C117.469 222.716 116.695 222.44 116.167 221.888C115.651 221.336 115.393 220.676 115.393 219.908C115.393 218.9 115.765 218.15 116.509 217.658C117.265 217.154 118.339 216.902 119.731 216.902H121.243V216.164C121.243 215.036 120.625 214.472 119.389 214.472C118.729 214.472 118.279 214.598 118.039 214.85C117.799 215.09 117.631 215.432 117.535 215.876H115.825C115.897 215.084 116.215 214.424 116.779 213.896C117.343 213.368 118.231 213.11 119.443 213.122C121.795 213.122 122.971 214.13 122.971 216.146ZM121.261 218.378V218.09H119.857C118.081 218.09 117.193 218.66 117.193 219.8C117.193 220.268 117.343 220.646 117.643 220.934C117.943 221.222 118.357 221.366 118.885 221.366C119.389 221.366 119.803 221.288 120.127 221.132C120.463 220.976 120.709 220.748 120.865 220.448C121.021 220.148 121.123 219.842 121.171 219.53C121.231 219.206 121.261 218.822 121.261 218.378ZM124.364 214.742V213.338H125.912V210.674H127.676V213.338H129.656V214.742H127.676V219.944C127.676 220.4 127.748 220.73 127.892 220.934C128.036 221.126 128.306 221.222 128.702 221.222C129.05 221.222 129.302 221.198 129.458 221.15V222.464C129.146 222.572 128.672 222.626 128.036 222.626C127.292 222.626 126.752 222.44 126.416 222.068C126.08 221.684 125.912 221.096 125.912 220.304V214.742H124.364ZM135.886 222.5V215.642C135.886 214.574 135.88 213.806 135.868 213.338H137.596C137.644 213.698 137.668 214.178 137.668 214.778C138.172 213.674 139.114 213.122 140.494 213.122C141.418 213.122 142.156 213.416 142.708 214.004C143.272 214.592 143.554 215.462 143.554 216.614V222.5H141.79V216.83C141.79 215.354 141.172 214.616 139.936 214.616C138.424 214.616 137.668 215.612 137.668 217.604V222.5H135.886ZM153.693 218.252H147.321C147.333 219.14 147.549 219.866 147.969 220.43C148.389 220.982 148.965 221.258 149.697 221.258C150.309 221.258 150.765 221.138 151.065 220.898C151.377 220.658 151.617 220.334 151.785 219.926H153.567C153.459 220.262 153.321 220.58 153.153 220.88C152.985 221.168 152.751 221.462 152.451 221.762C152.163 222.05 151.773 222.284 151.281 222.464C150.801 222.632 150.255 222.716 149.643 222.716C148.287 222.716 147.261 222.26 146.565 221.348C145.881 220.436 145.539 219.326 145.539 218.018C145.539 216.578 145.899 215.402 146.619 214.49C147.351 213.578 148.395 213.122 149.751 213.122C150.459 213.122 151.083 213.254 151.623 213.518C152.163 213.782 152.577 214.13 152.865 214.562C153.165 214.994 153.381 215.456 153.513 215.948C153.657 216.44 153.729 216.956 153.729 217.496C153.729 217.832 153.717 218.084 153.693 218.252ZM147.375 217.046H151.947C151.935 216.29 151.743 215.678 151.371 215.21C150.999 214.73 150.453 214.49 149.733 214.49C148.329 214.49 147.543 215.342 147.375 217.046ZM163.344 218.252H156.972C156.984 219.14 157.2 219.866 157.62 220.43C158.04 220.982 158.616 221.258 159.348 221.258C159.96 221.258 160.416 221.138 160.716 220.898C161.028 220.658 161.268 220.334 161.436 219.926H163.218C163.11 220.262 162.972 220.58 162.804 220.88C162.636 221.168 162.402 221.462 162.102 221.762C161.814 222.05 161.424 222.284 160.932 222.464C160.452 222.632 159.906 222.716 159.294 222.716C157.938 222.716 156.912 222.26 156.216 221.348C155.532 220.436 155.19 219.326 155.19 218.018C155.19 216.578 155.55 215.402 156.27 214.49C157.002 213.578 158.046 213.122 159.402 213.122C160.11 213.122 160.734 213.254 161.274 213.518C161.814 213.782 162.228 214.13 162.516 214.562C162.816 214.994 163.032 215.456 163.164 215.948C163.308 216.44 163.38 216.956 163.38 217.496C163.38 217.832 163.368 218.084 163.344 218.252ZM157.026 217.046H161.598C161.586 216.29 161.394 215.678 161.022 215.21C160.65 214.73 160.104 214.49 159.384 214.49C157.98 214.49 157.194 215.342 157.026 217.046ZM171.482 209.306H173.246V219.926C173.246 221.054 173.252 221.912 173.264 222.5H171.554C171.506 222.164 171.482 221.75 171.482 221.258C171.002 222.23 170.06 222.716 168.656 222.716C167.492 222.716 166.562 222.284 165.866 221.42C165.182 220.556 164.84 219.422 164.84 218.018C164.84 216.578 165.212 215.402 165.956 214.49C166.7 213.578 167.702 213.122 168.962 213.122C170.27 213.122 171.11 213.494 171.482 214.238V209.306ZM166.676 217.964C166.676 218.996 166.892 219.8 167.324 220.376C167.768 220.952 168.344 221.24 169.052 221.24C169.556 221.24 169.976 221.156 170.312 220.988C170.648 220.808 170.9 220.55 171.068 220.214C171.248 219.878 171.368 219.524 171.428 219.152C171.5 218.768 171.536 218.318 171.536 217.802C171.536 216.722 171.374 215.918 171.05 215.39C170.726 214.862 170.102 214.598 169.178 214.598C168.386 214.598 167.768 214.892 167.324 215.48C166.892 216.068 166.676 216.896 166.676 217.964ZM174.997 219.854H176.761C177.001 220.85 177.715 221.348 178.903 221.348C180.067 221.348 180.649 220.916 180.649 220.052C180.649 219.644 180.505 219.332 180.217 219.116C179.941 218.888 179.395 218.672 178.579 218.468C177.307 218.168 176.449 217.808 176.005 217.388C175.573 216.968 175.357 216.416 175.357 215.732C175.357 215.012 175.639 214.4 176.203 213.896C176.767 213.38 177.613 213.122 178.741 213.122C179.869 213.122 180.721 213.386 181.297 213.914C181.873 214.43 182.191 215.054 182.251 215.786H180.559C180.355 214.898 179.725 214.454 178.669 214.454C178.117 214.454 177.715 214.562 177.463 214.778C177.223 214.994 177.103 215.264 177.103 215.588C177.103 215.924 177.235 216.188 177.499 216.38C177.763 216.56 178.297 216.746 179.101 216.938C180.433 217.25 181.327 217.64 181.783 218.108C182.239 218.564 182.467 219.164 182.467 219.908C182.467 220.736 182.149 221.414 181.513 221.942C180.889 222.458 179.995 222.716 178.831 222.716C177.667 222.716 176.767 222.458 176.131 221.942C175.495 221.426 175.117 220.73 174.997 219.854ZM188.955 209.306H190.719V214.634C191.319 213.626 192.255 213.122 193.527 213.122C194.403 213.122 195.135 213.404 195.723 213.968C196.323 214.52 196.623 215.414 196.623 216.65V222.5H194.859V216.938C194.859 215.39 194.229 214.616 192.969 214.616C191.469 214.616 190.719 215.582 190.719 217.514V222.5H188.955V209.306ZM202.999 213.122C204.283 213.122 205.309 213.56 206.077 214.436C206.857 215.3 207.247 216.452 207.247 217.892C207.247 219.284 206.863 220.436 206.095 221.348C205.327 222.26 204.259 222.716 202.891 222.716C201.583 222.716 200.545 222.272 199.777 221.384C199.009 220.484 198.625 219.332 198.625 217.928C198.625 216.524 199.015 215.372 199.795 214.472C200.575 213.572 201.643 213.122 202.999 213.122ZM204.781 215.48C204.349 214.88 203.731 214.58 202.927 214.58C202.123 214.58 201.505 214.874 201.073 215.462C200.653 216.05 200.443 216.866 200.443 217.91C200.443 218.906 200.671 219.716 201.127 220.34C201.583 220.952 202.195 221.258 202.963 221.258C203.743 221.258 204.349 220.958 204.781 220.358C205.225 219.758 205.447 218.948 205.447 217.928C205.447 216.896 205.225 216.08 204.781 215.48ZM209.24 222.5V215.642C209.24 214.574 209.234 213.806 209.222 213.338H210.95C210.998 213.698 211.022 214.178 211.022 214.778C211.526 213.674 212.468 213.122 213.848 213.122C214.772 213.122 215.51 213.416 216.062 214.004C216.626 214.592 216.908 215.462 216.908 216.614V222.5H215.144V216.83C215.144 215.354 214.526 214.616 213.29 214.616C211.778 214.616 211.022 215.612 211.022 217.604V222.5H209.24ZM227.047 218.252H220.675C220.687 219.14 220.903 219.866 221.323 220.43C221.743 220.982 222.319 221.258 223.051 221.258C223.663 221.258 224.119 221.138 224.419 220.898C224.731 220.658 224.971 220.334 225.139 219.926H226.921C226.813 220.262 226.675 220.58 226.507 220.88C226.339 221.168 226.105 221.462 225.805 221.762C225.517 222.05 225.127 222.284 224.635 222.464C224.155 222.632 223.609 222.716 222.997 222.716C221.641 222.716 220.615 222.26 219.919 221.348C219.235 220.436 218.893 219.326 218.893 218.018C218.893 216.578 219.253 215.402 219.973 214.49C220.705 213.578 221.749 213.122 223.105 213.122C223.813 213.122 224.437 213.254 224.977 213.518C225.517 213.782 225.931 214.13 226.219 214.562C226.519 214.994 226.735 215.456 226.867 215.948C227.011 216.44 227.083 216.956 227.083 217.496C227.083 217.832 227.071 218.084 227.047 218.252ZM220.729 217.046H225.301C225.289 216.29 225.097 215.678 224.725 215.21C224.353 214.73 223.807 214.49 223.087 214.49C221.683 214.49 220.897 215.342 220.729 217.046ZM228.399 219.854H230.163C230.403 220.85 231.117 221.348 232.305 221.348C233.469 221.348 234.051 220.916 234.051 220.052C234.051 219.644 233.907 219.332 233.619 219.116C233.343 218.888 232.797 218.672 231.981 218.468C230.709 218.168 229.851 217.808 229.407 217.388C228.975 216.968 228.759 216.416 228.759 215.732C228.759 215.012 229.041 214.4 229.605 213.896C230.169 213.38 231.015 213.122 232.143 213.122C233.271 213.122 234.123 213.386 234.699 213.914C235.275 214.43 235.593 215.054 235.653 215.786H233.961C233.757 214.898 233.127 214.454 232.071 214.454C231.519 214.454 231.117 214.562 230.865 214.778C230.625 214.994 230.505 215.264 230.505 215.588C230.505 215.924 230.637 216.188 230.901 216.38C231.165 216.56 231.699 216.746 232.503 216.938C233.835 217.25 234.729 217.64 235.185 218.108C235.641 218.564 235.869 219.164 235.869 219.908C235.869 220.736 235.551 221.414 234.915 221.942C234.291 222.458 233.397 222.716 232.233 222.716C231.069 222.716 230.169 222.458 229.533 221.942C228.897 221.426 228.519 220.73 228.399 219.854ZM236.653 214.742V213.338H238.201V210.674H239.965V213.338H241.945V214.742H239.965V219.944C239.965 220.4 240.037 220.73 240.181 220.934C240.325 221.126 240.595 221.222 240.991 221.222C241.339 221.222 241.591 221.198 241.747 221.15V222.464C241.435 222.572 240.961 222.626 240.325 222.626C239.581 222.626 239.041 222.44 238.705 222.068C238.369 221.684 238.201 221.096 238.201 220.304V214.742H236.653ZM242.928 213.338H244.836C246.228 217.502 247.038 220.028 247.266 220.916H247.284C247.572 219.812 248.346 217.286 249.606 213.338H251.388L248.13 222.896C247.674 224.24 247.206 225.134 246.726 225.578C246.258 226.034 245.538 226.262 244.566 226.262C244.254 226.262 243.912 226.244 243.54 226.208V224.696C243.768 224.732 244.014 224.75 244.278 224.75C244.83 224.75 245.25 224.612 245.538 224.336C245.826 224.06 246.096 223.562 246.348 222.842L242.928 213.338ZM252.012 224.57H250.59C251.334 222.95 251.766 221.342 251.886 219.746H253.686C253.494 221.666 252.936 223.274 252.012 224.57ZM260.322 222.5V215.822C260.322 215.366 260.316 214.868 260.304 214.328C260.304 213.788 260.304 213.458 260.304 213.338H262.032C262.068 213.59 262.086 214.196 262.086 215.156C262.326 214.544 262.71 214.058 263.238 213.698C263.766 213.326 264.402 213.134 265.146 213.122V214.868C263.106 214.904 262.086 215.996 262.086 218.144V222.5H260.322ZM274.192 218.252H267.82C267.832 219.14 268.048 219.866 268.468 220.43C268.888 220.982 269.464 221.258 270.196 221.258C270.808 221.258 271.264 221.138 271.564 220.898C271.876 220.658 272.116 220.334 272.284 219.926H274.066C273.958 220.262 273.82 220.58 273.652 220.88C273.484 221.168 273.25 221.462 272.95 221.762C272.662 222.05 272.272 222.284 271.78 222.464C271.3 222.632 270.754 222.716 270.142 222.716C268.786 222.716 267.76 222.26 267.064 221.348C266.38 220.436 266.038 219.326 266.038 218.018C266.038 216.578 266.398 215.402 267.118 214.49C267.85 213.578 268.894 213.122 270.25 213.122C270.958 213.122 271.582 213.254 272.122 213.518C272.662 213.782 273.076 214.13 273.364 214.562C273.664 214.994 273.88 215.456 274.012 215.948C274.156 216.44 274.228 216.956 274.228 217.496C274.228 217.832 274.216 218.084 274.192 218.252ZM267.874 217.046H272.446C272.434 216.29 272.242 215.678 271.87 215.21C271.498 214.73 270.952 214.49 270.232 214.49C268.828 214.49 268.042 215.342 267.874 217.046ZM278.012 222.5H276.248V209.306H278.012V222.5ZM288.166 218.252H281.794C281.806 219.14 282.022 219.866 282.442 220.43C282.862 220.982 283.438 221.258 284.17 221.258C284.782 221.258 285.238 221.138 285.538 220.898C285.85 220.658 286.09 220.334 286.258 219.926H288.04C287.932 220.262 287.794 220.58 287.626 220.88C287.458 221.168 287.224 221.462 286.924 221.762C286.636 222.05 286.246 222.284 285.754 222.464C285.274 222.632 284.728 222.716 284.116 222.716C282.76 222.716 281.734 222.26 281.038 221.348C280.354 220.436 280.012 219.326 280.012 218.018C280.012 216.578 280.372 215.402 281.092 214.49C281.824 213.578 282.868 213.122 284.224 213.122C284.932 213.122 285.556 213.254 286.096 213.518C286.636 213.782 287.05 214.13 287.338 214.562C287.638 214.994 287.854 215.456 287.986 215.948C288.13 216.44 288.202 216.956 288.202 217.496C288.202 217.832 288.19 218.084 288.166 218.252ZM281.848 217.046H286.42C286.408 216.29 286.216 215.678 285.844 215.21C285.472 214.73 284.926 214.49 284.206 214.49C282.802 214.49 282.016 215.342 281.848 217.046ZM297.135 216.146V220.43C297.135 221.414 297.177 222.104 297.261 222.5H295.587C295.527 222.32 295.473 221.942 295.425 221.366C294.957 222.266 294.033 222.716 292.653 222.716C291.633 222.716 290.859 222.44 290.331 221.888C289.815 221.336 289.557 220.676 289.557 219.908C289.557 218.9 289.929 218.15 290.673 217.658C291.429 217.154 292.503 216.902 293.895 216.902H295.407V216.164C295.407 215.036 294.789 214.472 293.553 214.472C292.893 214.472 292.443 214.598 292.203 214.85C291.963 215.09 291.795 215.432 291.699 215.876H289.989C290.061 215.084 290.379 214.424 290.943 213.896C291.507 213.368 292.395 213.11 293.607 213.122C295.959 213.122 297.135 214.13 297.135 216.146ZM295.425 218.378V218.09H294.021C292.245 218.09 291.357 218.66 291.357 219.8C291.357 220.268 291.507 220.646 291.807 220.934C292.107 221.222 292.521 221.366 293.049 221.366C293.553 221.366 293.967 221.288 294.291 221.132C294.627 220.976 294.873 220.748 295.029 220.448C295.185 220.148 295.287 219.842 295.335 219.53C295.395 219.206 295.425 218.822 295.425 218.378ZM298.888 219.854H300.652C300.892 220.85 301.606 221.348 302.794 221.348C303.958 221.348 304.54 220.916 304.54 220.052C304.54 219.644 304.396 219.332 304.108 219.116C303.832 218.888 303.286 218.672 302.47 218.468C301.198 218.168 300.34 217.808 299.896 217.388C299.464 216.968 299.248 216.416 299.248 215.732C299.248 215.012 299.53 214.4 300.094 213.896C300.658 213.38 301.504 213.122 302.632 213.122C303.76 213.122 304.612 213.386 305.188 213.914C305.764 214.43 306.082 215.054 306.142 215.786H304.45C304.246 214.898 303.616 214.454 302.56 214.454C302.008 214.454 301.606 214.562 301.354 214.778C301.114 214.994 300.994 215.264 300.994 215.588C300.994 215.924 301.126 216.188 301.39 216.38C301.654 216.56 302.188 216.746 302.992 216.938C304.324 217.25 305.218 217.64 305.674 218.108C306.13 218.564 306.358 219.164 306.358 219.908C306.358 220.736 306.04 221.414 305.404 221.942C304.78 222.458 303.886 222.716 302.722 222.716C301.558 222.716 300.658 222.458 300.022 221.942C299.386 221.426 299.008 220.73 298.888 219.854ZM315.904 218.252H309.532C309.544 219.14 309.76 219.866 310.18 220.43C310.6 220.982 311.176 221.258 311.908 221.258C312.52 221.258 312.976 221.138 313.276 220.898C313.588 220.658 313.828 220.334 313.996 219.926H315.778C315.67 220.262 315.532 220.58 315.364 220.88C315.196 221.168 314.962 221.462 314.662 221.762C314.374 222.05 313.984 222.284 313.492 222.464C313.012 222.632 312.466 222.716 311.854 222.716C310.498 222.716 309.472 222.26 308.776 221.348C308.092 220.436 307.75 219.326 307.75 218.018C307.75 216.578 308.11 215.402 308.83 214.49C309.562 213.578 310.606 213.122 311.962 213.122C312.67 213.122 313.294 213.254 313.834 213.518C314.374 213.782 314.788 214.13 315.076 214.562C315.376 214.994 315.592 215.456 315.724 215.948C315.868 216.44 315.94 216.956 315.94 217.496C315.94 217.832 315.928 218.084 315.904 218.252ZM309.586 217.046H314.158C314.146 216.29 313.954 215.678 313.582 215.21C313.21 214.73 312.664 214.49 311.944 214.49C310.54 214.49 309.754 215.342 309.586 217.046ZM318.351 224.57H316.929C317.673 222.95 318.105 221.342 318.225 219.746H320.025C319.833 221.666 319.275 223.274 318.351 224.57ZM333.628 216.146V220.43C333.628 221.414 333.67 222.104 333.754 222.5H332.08C332.02 222.32 331.966 221.942 331.918 221.366C331.45 222.266 330.526 222.716 329.146 222.716C328.126 222.716 327.352 222.44 326.824 221.888C326.308 221.336 326.05 220.676 326.05 219.908C326.05 218.9 326.422 218.15 327.166 217.658C327.922 217.154 328.996 216.902 330.388 216.902H331.9V216.164C331.9 215.036 331.282 214.472 330.046 214.472C329.386 214.472 328.936 214.598 328.696 214.85C328.456 215.09 328.288 215.432 328.192 215.876H326.482C326.554 215.084 326.872 214.424 327.436 213.896C328 213.368 328.888 213.11 330.1 213.122C332.452 213.122 333.628 214.13 333.628 216.146ZM331.918 218.378V218.09H330.514C328.738 218.09 327.85 218.66 327.85 219.8C327.85 220.268 328 220.646 328.3 220.934C328.6 221.222 329.014 221.366 329.542 221.366C330.046 221.366 330.46 221.288 330.784 221.132C331.12 220.976 331.366 220.748 331.522 220.448C331.678 220.148 331.78 219.842 331.828 219.53C331.888 219.206 331.918 218.822 331.918 218.378ZM336.277 222.5V215.642C336.277 214.574 336.271 213.806 336.259 213.338H337.987C338.035 213.698 338.059 214.178 338.059 214.778C338.563 213.674 339.505 213.122 340.885 213.122C341.809 213.122 342.547 213.416 343.099 214.004C343.663 214.592 343.945 215.462 343.945 216.614V222.5H342.181V216.83C342.181 215.354 341.563 214.616 340.327 214.616C338.815 214.616 338.059 215.612 338.059 217.604V222.5H336.277ZM352.572 209.306H354.336V219.926C354.336 221.054 354.342 221.912 354.354 222.5H352.644C352.596 222.164 352.572 221.75 352.572 221.258C352.092 222.23 351.15 222.716 349.746 222.716C348.582 222.716 347.652 222.284 346.956 221.42C346.272 220.556 345.93 219.422 345.93 218.018C345.93 216.578 346.302 215.402 347.046 214.49C347.79 213.578 348.792 213.122 350.052 213.122C351.36 213.122 352.2 213.494 352.572 214.238V209.306ZM347.766 217.964C347.766 218.996 347.982 219.8 348.414 220.376C348.858 220.952 349.434 221.24 350.142 221.24C350.646 221.24 351.066 221.156 351.402 220.988C351.738 220.808 351.99 220.55 352.158 220.214C352.338 219.878 352.458 219.524 352.518 219.152C352.59 218.768 352.626 218.318 352.626 217.802C352.626 216.722 352.464 215.918 352.14 215.39C351.816 214.862 351.192 214.598 350.268 214.598C349.476 214.598 348.858 214.892 348.414 215.48C347.982 216.068 347.766 216.896 347.766 217.964ZM361.466 209.306H363.23V214.634C363.83 213.626 364.766 213.122 366.038 213.122C366.914 213.122 367.646 213.404 368.234 213.968C368.834 214.52 369.134 215.414 369.134 216.65V222.5H367.37V216.938C367.37 215.39 366.74 214.616 365.48 214.616C363.98 214.616 363.23 215.582 363.23 217.514V222.5H361.466V209.306ZM379.291 218.252H372.919C372.931 219.14 373.147 219.866 373.567 220.43C373.987 220.982 374.563 221.258 375.295 221.258C375.907 221.258 376.363 221.138 376.663 220.898C376.975 220.658 377.215 220.334 377.383 219.926H379.165C379.057 220.262 378.919 220.58 378.751 220.88C378.583 221.168 378.349 221.462 378.049 221.762C377.761 222.05 377.371 222.284 376.879 222.464C376.399 222.632 375.853 222.716 375.241 222.716C373.885 222.716 372.859 222.26 372.163 221.348C371.479 220.436 371.137 219.326 371.137 218.018C371.137 216.578 371.497 215.402 372.217 214.49C372.949 213.578 373.993 213.122 375.349 213.122C376.057 213.122 376.681 213.254 377.221 213.518C377.761 213.782 378.175 214.13 378.463 214.562C378.763 214.994 378.979 215.456 379.111 215.948C379.255 216.44 379.327 216.956 379.327 217.496C379.327 217.832 379.315 218.084 379.291 218.252ZM372.973 217.046H377.545C377.533 216.29 377.341 215.678 376.969 215.21C376.597 214.73 376.051 214.49 375.331 214.49C373.927 214.49 373.141 215.342 372.973 217.046ZM388.26 216.146V220.43C388.26 221.414 388.302 222.104 388.386 222.5H386.712C386.652 222.32 386.598 221.942 386.55 221.366C386.082 222.266 385.158 222.716 383.778 222.716C382.758 222.716 381.984 222.44 381.456 221.888C380.94 221.336 380.682 220.676 380.682 219.908C380.682 218.9 381.054 218.15 381.798 217.658C382.554 217.154 383.628 216.902 385.02 216.902H386.532V216.164C386.532 215.036 385.914 214.472 384.678 214.472C384.018 214.472 383.568 214.598 383.328 214.85C383.088 215.09 382.92 215.432 382.824 215.876H381.114C381.186 215.084 381.504 214.424 382.068 213.896C382.632 213.368 383.52 213.11 384.732 213.122C387.084 213.122 388.26 214.13 388.26 216.146ZM386.55 218.378V218.09H385.146C383.37 218.09 382.482 218.66 382.482 219.8C382.482 220.268 382.632 220.646 382.932 220.934C383.232 221.222 383.646 221.366 384.174 221.366C384.678 221.366 385.092 221.288 385.416 221.132C385.752 220.976 385.998 220.748 386.154 220.448C386.31 220.148 386.412 219.842 386.46 219.53C386.52 219.206 386.55 218.822 386.55 218.378ZM392.674 222.5H390.91V209.306H392.674V222.5ZM395.304 222.5V213.338H397.068V222.5H395.304ZM397.068 211.34H395.304V209.306H397.068V211.34ZM399.699 222.5V215.642C399.699 214.574 399.693 213.806 399.681 213.338H401.409C401.457 213.698 401.481 214.178 401.481 214.778C401.985 213.674 402.927 213.122 404.307 213.122C405.231 213.122 405.969 213.416 406.521 214.004C407.085 214.592 407.367 215.462 407.367 216.614V222.5H405.603V216.83C405.603 215.354 404.985 214.616 403.749 214.616C402.237 214.616 401.481 215.612 401.481 217.604V222.5H399.699ZM417.686 215.984V221.618C417.686 223.142 417.344 224.294 416.66 225.074C415.988 225.866 414.902 226.262 413.402 226.262C412.718 226.262 412.124 226.172 411.62 225.992C411.116 225.824 410.726 225.59 410.45 225.29C410.174 224.99 409.964 224.69 409.82 224.39C409.688 224.09 409.598 223.772 409.55 223.436H411.35C411.614 224.408 412.328 224.894 413.492 224.894C414.44 224.894 415.088 224.618 415.436 224.066C415.784 223.526 415.958 222.698 415.958 221.582V220.898C415.442 221.93 414.506 222.446 413.15 222.446C412.01 222.446 411.092 222.026 410.396 221.186C409.7 220.346 409.352 219.26 409.352 217.928C409.352 216.476 409.73 215.312 410.486 214.436C411.242 213.56 412.19 213.122 413.33 213.122C414.098 213.122 414.698 213.266 415.13 213.554C415.562 213.83 415.838 214.148 415.958 214.508C415.982 213.956 416.006 213.566 416.03 213.338H417.704C417.704 213.506 417.698 213.908 417.686 214.544C417.686 215.18 417.686 215.66 417.686 215.984ZM411.188 217.856C411.188 218.792 411.404 219.542 411.836 220.106C412.28 220.67 412.862 220.952 413.582 220.952C414.482 220.952 415.112 220.682 415.472 220.142C415.832 219.59 416.012 218.792 416.012 217.748C416.012 216.692 415.838 215.906 415.49 215.39C415.154 214.862 414.536 214.598 413.636 214.598C412.856 214.598 412.25 214.892 411.818 215.48C411.398 216.068 411.188 216.86 411.188 217.856ZM421.69 222.5H419.818V219.746H421.69V222.5Z" fill="#FAF9F6"/>
</svg>
