<svg width="376" height="143" viewBox="0 0 376 143" fill="none" xmlns="http://www.w3.org/2000/svg">
<rect x="0.5" y="0.5" width="375" height="142" rx="15.5" fill="#FAF9F6" fill-opacity="0.1"/>
<rect x="0.5" y="0.5" width="375" height="142" rx="15.5" stroke="#FAF9F6"/>
<path d="M107.413 47.352L102.301 36.48H106.333L110.005 44.616L109.309 44.4H111.325L110.581 44.616L113.893 36.48H117.709L113.005 47.352H107.413ZM108.277 54V46.8H112.141V54H108.277ZM124.671 54.456C123.519 54.456 122.495 54.28 121.599 53.928C120.703 53.56 119.943 53.064 119.319 52.44C118.711 51.816 118.247 51.104 117.927 50.304C117.607 49.488 117.447 48.632 117.447 47.736V47.184C117.447 46.272 117.607 45.408 117.927 44.592C118.263 43.76 118.743 43.032 119.367 42.408C120.007 41.784 120.775 41.296 121.671 40.944C122.567 40.576 123.567 40.392 124.671 40.392C125.807 40.392 126.815 40.576 127.695 40.944C128.591 41.296 129.351 41.784 129.975 42.408C130.599 43.032 131.079 43.76 131.415 44.592C131.751 45.408 131.919 46.272 131.919 47.184V47.736C131.919 48.632 131.759 49.488 131.439 50.304C131.119 51.104 130.647 51.816 130.023 52.44C129.415 53.064 128.663 53.56 127.767 53.928C126.871 54.28 125.839 54.456 124.671 54.456ZM124.671 51.216C125.423 51.216 126.047 51.056 126.543 50.736C127.039 50.416 127.415 49.968 127.671 49.392C127.943 48.816 128.079 48.176 128.079 47.472C128.079 46.72 127.943 46.064 127.671 45.504C127.399 44.928 127.007 44.472 126.495 44.136C125.999 43.8 125.391 43.632 124.671 43.632C123.967 43.632 123.359 43.8 122.847 44.136C122.335 44.472 121.943 44.928 121.671 45.504C121.415 46.064 121.287 46.72 121.287 47.472C121.287 48.176 121.415 48.816 121.671 49.392C121.927 49.968 122.311 50.416 122.823 50.736C123.335 51.056 123.951 51.216 124.671 51.216ZM138.979 54.408C137.459 54.408 136.291 53.92 135.475 52.944C134.659 51.952 134.251 50.464 134.251 48.48V40.848H138.091V48.672C138.091 49.376 138.291 49.936 138.691 50.352C139.091 50.768 139.627 50.976 140.299 50.976C140.987 50.976 141.547 50.76 141.979 50.328C142.411 49.896 142.627 49.312 142.627 48.576V40.848H146.467V54H143.419V48.456H143.683C143.683 49.784 143.507 50.896 143.155 51.792C142.819 52.672 142.315 53.328 141.643 53.76C140.971 54.192 140.139 54.408 139.147 54.408H138.979ZM149.948 54V40.848H152.996V46.488H152.924C152.924 44.632 153.316 43.2 154.1 42.192C154.9 41.184 156.052 40.68 157.556 40.68H158.06V43.992H157.1C156.044 43.992 155.228 44.28 154.652 44.856C154.076 45.416 153.788 46.232 153.788 47.304V54H149.948ZM174.496 58.8V50.112L175.528 48.72C175.496 49.904 175.256 50.928 174.808 51.792C174.376 52.64 173.768 53.296 172.984 53.76C172.2 54.208 171.28 54.432 170.224 54.432C169.312 54.432 168.48 54.264 167.728 53.928C166.976 53.576 166.328 53.104 165.784 52.512C165.256 51.904 164.848 51.192 164.56 50.376C164.288 49.56 164.152 48.68 164.152 47.736V47.184C164.152 46.24 164.296 45.36 164.584 44.544C164.888 43.728 165.312 43.016 165.856 42.408C166.416 41.8 167.072 41.328 167.824 40.992C168.592 40.64 169.44 40.464 170.368 40.464C171.456 40.464 172.392 40.704 173.176 41.184C173.976 41.648 174.6 42.328 175.048 43.224C175.496 44.104 175.736 45.184 175.768 46.464H175.312V40.848H178.36V58.8H174.496ZM171.352 51.192C171.944 51.192 172.48 51.064 172.96 50.808C173.456 50.536 173.848 50.144 174.136 49.632C174.44 49.12 174.592 48.504 174.592 47.784V46.896C174.592 46.192 174.44 45.6 174.136 45.12C173.832 44.64 173.432 44.272 172.936 44.016C172.44 43.76 171.912 43.632 171.352 43.632C170.696 43.632 170.112 43.8 169.6 44.136C169.104 44.456 168.712 44.904 168.424 45.48C168.136 46.04 167.992 46.704 167.992 47.472C167.992 48.224 168.136 48.88 168.424 49.44C168.712 50 169.104 50.432 169.6 50.736C170.112 51.04 170.696 51.192 171.352 51.192ZM186.223 54.408C184.703 54.408 183.535 53.92 182.719 52.944C181.903 51.952 181.495 50.464 181.495 48.48V40.848H185.335V48.672C185.335 49.376 185.535 49.936 185.935 50.352C186.335 50.768 186.871 50.976 187.543 50.976C188.231 50.976 188.791 50.76 189.223 50.328C189.655 49.896 189.871 49.312 189.871 48.576V40.848H193.711V54H190.663V48.456H190.927C190.927 49.784 190.751 50.896 190.399 51.792C190.063 52.672 189.559 53.328 188.887 53.76C188.215 54.192 187.383 54.408 186.391 54.408H186.223ZM203.216 54.456C202.096 54.456 201.104 54.264 200.24 53.88C199.392 53.496 198.68 52.984 198.104 52.344C197.544 51.688 197.112 50.96 196.808 50.16C196.52 49.344 196.376 48.512 196.376 47.664V47.184C196.376 46.304 196.52 45.464 196.808 44.664C197.112 43.848 197.544 43.12 198.104 42.48C198.664 41.84 199.36 41.336 200.192 40.968C201.04 40.584 202 40.392 203.072 40.392C204.48 40.392 205.664 40.712 206.624 41.352C207.6 41.976 208.344 42.8 208.856 43.824C209.368 44.832 209.624 45.936 209.624 47.136V48.432H197.984V46.248H207.296L206.048 47.256C206.048 46.472 205.936 45.8 205.712 45.24C205.488 44.68 205.152 44.256 204.704 43.968C204.272 43.664 203.728 43.512 203.072 43.512C202.4 43.512 201.832 43.664 201.368 43.968C200.904 44.272 200.552 44.72 200.312 45.312C200.072 45.888 199.952 46.6 199.952 47.448C199.952 48.232 200.064 48.92 200.288 49.512C200.512 50.088 200.864 50.536 201.344 50.856C201.824 51.176 202.448 51.336 203.216 51.336C203.92 51.336 204.496 51.2 204.944 50.928C205.392 50.656 205.696 50.32 205.856 49.92H209.384C209.192 50.8 208.816 51.584 208.256 52.272C207.696 52.96 206.992 53.496 206.144 53.88C205.296 54.264 204.32 54.456 203.216 54.456ZM217.101 54.408C215.229 54.408 213.765 54.024 212.709 53.256C211.653 52.488 211.093 51.408 211.029 50.016H214.437C214.501 50.432 214.749 50.808 215.181 51.144C215.629 51.464 216.293 51.624 217.173 51.624C217.845 51.624 218.397 51.512 218.829 51.288C219.277 51.048 219.501 50.712 219.501 50.28C219.501 49.896 219.333 49.592 218.997 49.368C218.661 49.128 218.061 48.96 217.197 48.864L216.165 48.768C214.581 48.608 213.389 48.168 212.589 47.448C211.805 46.728 211.413 45.808 211.413 44.688C211.413 43.76 211.645 42.984 212.109 42.36C212.573 41.736 213.213 41.264 214.029 40.944C214.861 40.624 215.805 40.464 216.861 40.464C218.557 40.464 219.925 40.84 220.965 41.592C222.005 42.328 222.549 43.4 222.597 44.808H219.189C219.125 44.376 218.901 44.016 218.517 43.728C218.133 43.424 217.565 43.272 216.813 43.272C216.221 43.272 215.749 43.384 215.397 43.608C215.045 43.832 214.869 44.136 214.869 44.52C214.869 44.888 215.021 45.168 215.325 45.36C215.629 45.552 216.125 45.688 216.813 45.768L217.845 45.864C219.461 46.04 220.717 46.488 221.613 47.208C222.509 47.928 222.957 48.896 222.957 50.112C222.957 50.992 222.717 51.76 222.237 52.416C221.757 53.056 221.077 53.552 220.197 53.904C219.317 54.24 218.285 54.408 217.101 54.408ZM231.361 54.168C230.033 54.168 228.961 54.008 228.145 53.688C227.329 53.352 226.729 52.8 226.345 52.032C225.977 51.248 225.793 50.192 225.793 48.864V37.296H229.369V49.008C229.369 49.632 229.529 50.112 229.849 50.448C230.185 50.768 230.657 50.928 231.265 50.928H233.209V54.168H231.361ZM223.801 43.656V40.848H233.209V43.656H223.801ZM236.355 54V40.848H240.195V54H236.355ZM234.603 43.68V40.848H240.195V43.68H234.603ZM237.843 39.552C237.123 39.552 236.587 39.368 236.235 39C235.899 38.616 235.731 38.136 235.731 37.56C235.731 36.968 235.899 36.488 236.235 36.12C236.587 35.736 237.123 35.544 237.843 35.544C238.563 35.544 239.091 35.736 239.427 36.12C239.779 36.488 239.955 36.968 239.955 37.56C239.955 38.136 239.779 38.616 239.427 39C239.091 39.368 238.563 39.552 237.843 39.552ZM250.094 54.456C248.942 54.456 247.918 54.28 247.022 53.928C246.126 53.56 245.366 53.064 244.742 52.44C244.134 51.816 243.67 51.104 243.35 50.304C243.03 49.488 242.87 48.632 242.87 47.736V47.184C242.87 46.272 243.03 45.408 243.35 44.592C243.686 43.76 244.166 43.032 244.79 42.408C245.43 41.784 246.198 41.296 247.094 40.944C247.99 40.576 248.99 40.392 250.094 40.392C251.23 40.392 252.238 40.576 253.118 40.944C254.014 41.296 254.774 41.784 255.398 42.408C256.022 43.032 256.502 43.76 256.838 44.592C257.174 45.408 257.342 46.272 257.342 47.184V47.736C257.342 48.632 257.182 49.488 256.862 50.304C256.542 51.104 256.07 51.816 255.446 52.44C254.838 53.064 254.086 53.56 253.19 53.928C252.294 54.28 251.262 54.456 250.094 54.456ZM250.094 51.216C250.846 51.216 251.47 51.056 251.966 50.736C252.462 50.416 252.838 49.968 253.094 49.392C253.366 48.816 253.502 48.176 253.502 47.472C253.502 46.72 253.366 46.064 253.094 45.504C252.822 44.928 252.43 44.472 251.918 44.136C251.422 43.8 250.814 43.632 250.094 43.632C249.39 43.632 248.782 43.8 248.27 44.136C247.758 44.472 247.366 44.928 247.094 45.504C246.838 46.064 246.71 46.72 246.71 47.472C246.71 48.176 246.838 48.816 247.094 49.392C247.35 49.968 247.734 50.416 248.246 50.736C248.758 51.056 249.374 51.216 250.094 51.216ZM259.962 54V40.848H263.01V46.488H262.794C262.794 45.144 262.962 44.024 263.298 43.128C263.65 42.232 264.178 41.56 264.882 41.112C265.586 40.664 266.442 40.44 267.45 40.44H267.618C269.154 40.44 270.322 40.944 271.122 41.952C271.938 42.944 272.346 44.456 272.346 46.488V54H268.506V46.272C268.506 45.568 268.298 44.992 267.882 44.544C267.466 44.096 266.906 43.872 266.202 43.872C265.482 43.872 264.898 44.104 264.45 44.568C264.018 45.016 263.802 45.608 263.802 46.344V54H259.962Z" fill="#FAF9F6"/>
<rect x="39.5" y="78" width="297" height="41" rx="20.5" fill="#FAF9F6" fill-opacity="0.1"/>
<g clip-path="url(#clip0_1242_41981)">
<path d="M83.6539 106.474H66.5293C65.4182 106.474 64.5147 105.57 64.5147 104.459C64.5147 103.348 65.4183 102.445 66.5293 102.445H68.544C69.1 102.445 69.5513 101.993 69.5513 101.437C69.5513 100.881 69.1 100.43 68.544 100.43H66.5293C64.3071 100.43 62.5 102.237 62.5 104.459C62.5 106.681 64.3071 108.489 66.5293 108.489H83.6539C84.21 108.489 84.6613 108.037 84.6613 107.481C84.6613 106.925 84.21 106.474 83.6539 106.474Z" fill="white"/>
<path d="M85.3749 88.6379C83.872 87.137 81.4262 87.135 79.9202 88.6379L78.379 90.1791C78.3598 90.1953 78.3366 90.2013 78.3186 90.2195C78.3005 90.2376 78.2944 90.2608 78.2782 90.2799L73.1096 95.4485C72.1144 96.4457 71.5664 97.7714 71.5664 99.1806V101.437C71.5664 101.993 72.0177 102.444 72.5737 102.444H74.8302C76.2394 102.444 77.565 101.896 78.5644 100.9L85.3739 94.0906C86.8758 92.5877 86.8758 90.1408 85.3749 88.6379ZM77.141 99.4748C76.5235 100.09 75.7025 100.43 74.8302 100.43H73.5811V99.1806C73.5811 98.3083 73.9205 97.4873 74.535 96.8708L79.0408 92.365L81.6457 94.97L77.141 99.4748ZM83.9495 92.6662L83.0701 93.5457L80.4652 90.9407L81.3435 90.0623C82.0617 89.3451 83.2313 89.3461 83.9485 90.0623C84.6657 90.7805 84.6657 91.949 83.9495 92.6662Z" fill="white"/>
</g>
<path d="M97.716 103L94.836 91.32H97.54L99.796 101.24L99.236 100.872H100.692L100.068 101.24L101.812 91.752H103.988L101.7 103H97.716ZM104.676 103L102.212 91.752H104.5L106.516 101.24L105.908 100.872H107.3L106.772 101.24L108.74 91.32H111.3L108.74 103H104.676ZM112.847 103V91.32H115.407V98.056H115.023C115.023 97.1707 115.135 96.424 115.359 95.816C115.583 95.208 115.914 94.7493 116.351 94.44C116.788 94.12 117.338 93.96 117.999 93.96H118.111C119.082 93.96 119.823 94.3067 120.335 95C120.847 95.6827 121.103 96.6853 121.103 98.008V103H118.543V97.848C118.543 97.368 118.399 96.984 118.111 96.696C117.834 96.3973 117.466 96.248 117.007 96.248C116.527 96.248 116.138 96.4027 115.839 96.712C115.551 97.0213 115.407 97.432 115.407 97.944V103H112.847ZM128.619 103V100.408H128.187V97.592C128.187 97.144 128.08 96.808 127.867 96.584C127.654 96.36 127.312 96.248 126.843 96.248C126.608 96.248 126.299 96.2533 125.915 96.264C125.531 96.2747 125.136 96.2907 124.731 96.312C124.326 96.3333 123.958 96.3547 123.627 96.376V94.216C123.872 94.1947 124.16 94.1733 124.491 94.152C124.822 94.1307 125.163 94.1147 125.515 94.104C125.867 94.0933 126.198 94.088 126.507 94.088C127.403 94.088 128.155 94.216 128.763 94.472C129.382 94.728 129.851 95.1173 130.171 95.64C130.491 96.152 130.651 96.8133 130.651 97.624V103H128.619ZM125.819 103.224C125.19 103.224 124.635 103.112 124.155 102.888C123.686 102.664 123.318 102.344 123.051 101.928C122.784 101.501 122.651 100.995 122.651 100.408C122.651 99.768 122.816 99.2453 123.147 98.84C123.478 98.424 123.942 98.12 124.539 97.928C125.136 97.7253 125.824 97.624 126.603 97.624H128.475V99.048H126.587C126.139 99.048 125.792 99.16 125.547 99.384C125.312 99.5973 125.195 99.8907 125.195 100.264C125.195 100.616 125.312 100.904 125.547 101.128C125.792 101.341 126.139 101.448 126.587 101.448C126.875 101.448 127.131 101.4 127.355 101.304C127.59 101.197 127.782 101.021 127.931 100.776C128.08 100.531 128.166 100.189 128.187 99.752L128.795 100.392C128.742 101 128.592 101.512 128.347 101.928C128.112 102.344 127.782 102.664 127.355 102.888C126.939 103.112 126.427 103.224 125.819 103.224ZM136.845 103.112C135.96 103.112 135.245 103.005 134.701 102.792C134.157 102.568 133.757 102.2 133.501 101.688C133.256 101.165 133.133 100.461 133.133 99.576V91.864H135.517V99.672C135.517 100.088 135.624 100.408 135.837 100.632C136.061 100.845 136.376 100.952 136.781 100.952H138.077V103.112H136.845ZM131.805 96.104V94.232H138.077V96.104H131.805ZM143.651 103V94.232H146.211V103H143.651ZM142.483 96.12V94.232H146.211V96.12H142.483ZM144.643 93.368C144.163 93.368 143.806 93.2453 143.571 93C143.347 92.744 143.235 92.424 143.235 92.04C143.235 91.6453 143.347 91.3253 143.571 91.08C143.806 90.824 144.163 90.696 144.643 90.696C145.123 90.696 145.475 90.824 145.699 91.08C145.934 91.3253 146.051 91.6453 146.051 92.04C146.051 92.424 145.934 92.744 145.699 93C145.475 93.2453 145.123 93.368 144.643 93.368ZM151.945 103.272C150.697 103.272 149.721 103.016 149.017 102.504C148.313 101.992 147.94 101.272 147.897 100.344H150.169C150.212 100.621 150.377 100.872 150.665 101.096C150.964 101.309 151.406 101.416 151.993 101.416C152.441 101.416 152.809 101.341 153.097 101.192C153.396 101.032 153.545 100.808 153.545 100.52C153.545 100.264 153.433 100.061 153.209 99.912C152.985 99.752 152.585 99.64 152.009 99.576L151.321 99.512C150.265 99.4053 149.47 99.112 148.937 98.632C148.414 98.152 148.153 97.5387 148.153 96.792C148.153 96.1733 148.308 95.656 148.617 95.24C148.926 94.824 149.353 94.5093 149.897 94.296C150.452 94.0827 151.081 93.976 151.785 93.976C152.916 93.976 153.828 94.2267 154.521 94.728C155.214 95.2187 155.577 95.9333 155.609 96.872H153.337C153.294 96.584 153.145 96.344 152.889 96.152C152.633 95.9493 152.254 95.848 151.753 95.848C151.358 95.848 151.044 95.9227 150.809 96.072C150.574 96.2213 150.457 96.424 150.457 96.68C150.457 96.9253 150.558 97.112 150.761 97.24C150.964 97.368 151.294 97.4587 151.753 97.512L152.441 97.576C153.518 97.6933 154.356 97.992 154.953 98.472C155.55 98.952 155.849 99.5973 155.849 100.408C155.849 100.995 155.689 101.507 155.369 101.944C155.049 102.371 154.596 102.701 154.009 102.936C153.422 103.16 152.734 103.272 151.945 103.272ZM164.928 103.112C164.043 103.112 163.328 103.005 162.784 102.792C162.24 102.568 161.84 102.2 161.584 101.688C161.339 101.165 161.216 100.461 161.216 99.576V91.864H163.6V99.672C163.6 100.088 163.707 100.408 163.92 100.632C164.144 100.845 164.459 100.952 164.864 100.952H166.16V103.112H164.928ZM159.888 96.104V94.232H166.16V96.104H159.888ZM167.92 103V91.32H170.48V98.056H170.096C170.096 97.1707 170.208 96.424 170.432 95.816C170.656 95.208 170.987 94.7493 171.424 94.44C171.861 94.12 172.411 93.96 173.072 93.96H173.184C174.155 93.96 174.896 94.3067 175.408 95C175.92 95.6827 176.176 96.6853 176.176 98.008V103H173.616V97.848C173.616 97.368 173.472 96.984 173.184 96.696C172.907 96.3973 172.539 96.248 172.08 96.248C171.6 96.248 171.211 96.4027 170.912 96.712C170.624 97.0213 170.48 97.432 170.48 97.944V103H167.92ZM178.812 103V94.232H181.372V103H178.812ZM177.644 96.12V94.232H181.372V96.12H177.644ZM179.804 93.368C179.324 93.368 178.966 93.2453 178.732 93C178.508 92.744 178.396 92.424 178.396 92.04C178.396 91.6453 178.508 91.3253 178.732 91.08C178.966 90.824 179.324 90.696 179.804 90.696C180.284 90.696 180.636 90.824 180.86 91.08C181.094 91.3253 181.212 91.6453 181.212 92.04C181.212 92.424 181.094 92.744 180.86 93C180.636 93.2453 180.284 93.368 179.804 93.368ZM187.106 103.272C185.858 103.272 184.882 103.016 184.178 102.504C183.474 101.992 183.101 101.272 183.058 100.344H185.33C185.373 100.621 185.538 100.872 185.826 101.096C186.125 101.309 186.567 101.416 187.154 101.416C187.602 101.416 187.97 101.341 188.258 101.192C188.557 101.032 188.706 100.808 188.706 100.52C188.706 100.264 188.594 100.061 188.37 99.912C188.146 99.752 187.746 99.64 187.17 99.576L186.482 99.512C185.426 99.4053 184.631 99.112 184.098 98.632C183.575 98.152 183.314 97.5387 183.314 96.792C183.314 96.1733 183.469 95.656 183.778 95.24C184.087 94.824 184.514 94.5093 185.058 94.296C185.613 94.0827 186.242 93.976 186.946 93.976C188.077 93.976 188.989 94.2267 189.682 94.728C190.375 95.2187 190.738 95.9333 190.77 96.872H188.498C188.455 96.584 188.306 96.344 188.05 96.152C187.794 95.9493 187.415 95.848 186.914 95.848C186.519 95.848 186.205 95.9227 185.97 96.072C185.735 96.2213 185.618 96.424 185.618 96.68C185.618 96.9253 185.719 97.112 185.922 97.24C186.125 97.368 186.455 97.4587 186.914 97.512L187.602 97.576C188.679 97.6933 189.517 97.992 190.114 98.472C190.711 98.952 191.01 99.5973 191.01 100.408C191.01 100.995 190.85 101.507 190.53 101.944C190.21 102.371 189.757 102.701 189.17 102.936C188.583 103.16 187.895 103.272 187.106 103.272ZM200.089 103.112C199.203 103.112 198.489 103.005 197.945 102.792C197.401 102.568 197.001 102.2 196.745 101.688C196.499 101.165 196.377 100.461 196.377 99.576V91.864H198.761V99.672C198.761 100.088 198.867 100.408 199.081 100.632C199.305 100.845 199.619 100.952 200.025 100.952H201.321V103.112H200.089ZM195.049 96.104V94.232H201.321V96.104H195.049ZM207.065 103.304C206.319 103.304 205.657 103.176 205.081 102.92C204.516 102.664 204.041 102.323 203.657 101.896C203.284 101.459 202.996 100.973 202.793 100.44C202.601 99.896 202.505 99.3413 202.505 98.776V98.456C202.505 97.8693 202.601 97.3093 202.793 96.776C202.996 96.232 203.284 95.7467 203.657 95.32C204.031 94.8933 204.495 94.5573 205.049 94.312C205.615 94.056 206.255 93.928 206.969 93.928C207.908 93.928 208.697 94.1413 209.337 94.568C209.988 94.984 210.484 95.5333 210.825 96.216C211.167 96.888 211.337 97.624 211.337 98.424V99.288H203.577V97.832H209.785L208.953 98.504C208.953 97.9813 208.879 97.5333 208.729 97.16C208.58 96.7867 208.356 96.504 208.057 96.312C207.769 96.1093 207.407 96.008 206.969 96.008C206.521 96.008 206.143 96.1093 205.833 96.312C205.524 96.5147 205.289 96.8133 205.129 97.208C204.969 97.592 204.889 98.0667 204.889 98.632C204.889 99.1547 204.964 99.6133 205.113 100.008C205.263 100.392 205.497 100.691 205.817 100.904C206.137 101.117 206.553 101.224 207.065 101.224C207.535 101.224 207.919 101.133 208.217 100.952C208.516 100.771 208.719 100.547 208.825 100.28H211.177C211.049 100.867 210.799 101.389 210.425 101.848C210.052 102.307 209.583 102.664 209.017 102.92C208.452 103.176 207.801 103.304 207.065 103.304ZM218.368 103V100.408H217.936V97.592C217.936 97.144 217.829 96.808 217.616 96.584C217.403 96.36 217.061 96.248 216.592 96.248C216.357 96.248 216.048 96.2533 215.664 96.264C215.28 96.2747 214.885 96.2907 214.48 96.312C214.075 96.3333 213.707 96.3547 213.376 96.376V94.216C213.621 94.1947 213.909 94.1733 214.24 94.152C214.571 94.1307 214.912 94.1147 215.264 94.104C215.616 94.0933 215.947 94.088 216.256 94.088C217.152 94.088 217.904 94.216 218.512 94.472C219.131 94.728 219.6 95.1173 219.92 95.64C220.24 96.152 220.4 96.8133 220.4 97.624V103H218.368ZM215.568 103.224C214.939 103.224 214.384 103.112 213.904 102.888C213.435 102.664 213.067 102.344 212.8 101.928C212.533 101.501 212.4 100.995 212.4 100.408C212.4 99.768 212.565 99.2453 212.896 98.84C213.227 98.424 213.691 98.12 214.288 97.928C214.885 97.7253 215.573 97.624 216.352 97.624H218.224V99.048H216.336C215.888 99.048 215.541 99.16 215.296 99.384C215.061 99.5973 214.944 99.8907 214.944 100.264C214.944 100.616 215.061 100.904 215.296 101.128C215.541 101.341 215.888 101.448 216.336 101.448C216.624 101.448 216.88 101.4 217.104 101.304C217.339 101.197 217.531 101.021 217.68 100.776C217.829 100.531 217.915 100.189 217.936 99.752L218.544 100.392C218.491 101 218.341 101.512 218.096 101.928C217.861 102.344 217.531 102.664 217.104 102.888C216.688 103.112 216.176 103.224 215.568 103.224ZM226.547 103.304C225.789 103.304 225.128 103.181 224.563 102.936C224.008 102.68 223.544 102.339 223.171 101.912C222.797 101.485 222.52 101.005 222.339 100.472C222.157 99.928 222.067 99.368 222.067 98.792V98.488C222.067 97.8907 222.163 97.32 222.355 96.776C222.547 96.2213 222.829 95.7307 223.203 95.304C223.576 94.8773 224.04 94.5413 224.595 94.296C225.16 94.0507 225.805 93.928 226.531 93.928C227.32 93.928 228.019 94.0827 228.627 94.392C229.235 94.6907 229.72 95.112 230.083 95.656C230.445 96.2 230.648 96.824 230.691 97.528H228.179C228.136 97.1333 227.976 96.8027 227.699 96.536C227.432 96.2587 227.043 96.12 226.531 96.12C226.104 96.12 225.747 96.2267 225.459 96.44C225.181 96.6533 224.973 96.9467 224.835 97.32C224.696 97.6933 224.627 98.136 224.627 98.648C224.627 99.1173 224.691 99.544 224.819 99.928C224.947 100.301 225.149 100.595 225.427 100.808C225.715 101.011 226.088 101.112 226.547 101.112C226.888 101.112 227.176 101.053 227.411 100.936C227.656 100.808 227.848 100.637 227.987 100.424C228.136 100.2 228.227 99.944 228.259 99.656H230.755C230.723 100.381 230.52 101.021 230.147 101.576C229.773 102.12 229.277 102.547 228.659 102.856C228.04 103.155 227.336 103.304 226.547 103.304ZM232.43 103V91.32H234.99V98.056H234.606C234.606 97.1707 234.718 96.424 234.942 95.816C235.166 95.208 235.497 94.7493 235.934 94.44C236.372 94.12 236.921 93.96 237.582 93.96H237.694C238.665 93.96 239.406 94.3067 239.918 95C240.43 95.6827 240.686 96.6853 240.686 98.008V103H238.126V97.848C238.126 97.368 237.982 96.984 237.694 96.696C237.417 96.3973 237.049 96.248 236.59 96.248C236.11 96.248 235.721 96.4027 235.422 96.712C235.134 97.0213 234.99 97.432 234.99 97.944V103H232.43ZM243.322 103V94.232H245.882V103H243.322ZM242.154 96.12V94.232H245.882V96.12H242.154ZM244.314 93.368C243.834 93.368 243.477 93.2453 243.242 93C243.018 92.744 242.906 92.424 242.906 92.04C242.906 91.6453 243.018 91.3253 243.242 91.08C243.477 90.824 243.834 90.696 244.314 90.696C244.794 90.696 245.146 90.824 245.37 91.08C245.605 91.3253 245.722 91.6453 245.722 92.04C245.722 92.424 245.605 92.744 245.37 93C245.146 93.2453 244.794 93.368 244.314 93.368ZM248.288 103V94.232H250.32V97.992H250.176C250.176 97.096 250.288 96.3493 250.512 95.752C250.747 95.1547 251.099 94.7067 251.568 94.408C252.038 94.1093 252.608 93.96 253.28 93.96H253.392C254.416 93.96 255.195 94.296 255.728 94.968C256.272 95.6293 256.544 96.6373 256.544 97.992V103H253.984V97.848C253.984 97.3787 253.846 96.9947 253.568 96.696C253.291 96.3973 252.918 96.248 252.448 96.248C251.968 96.248 251.579 96.4027 251.28 96.712C250.992 97.0107 250.848 97.4053 250.848 97.896V103H248.288ZM262.22 106.488C261.793 106.488 261.356 106.472 260.908 106.44C260.46 106.408 260.049 106.365 259.676 106.312V104.152C260.049 104.205 260.46 104.248 260.908 104.28C261.367 104.323 261.783 104.344 262.156 104.344C262.849 104.344 263.409 104.264 263.836 104.104C264.273 103.944 264.593 103.699 264.796 103.368C264.999 103.048 265.1 102.632 265.1 102.12V100.376L265.564 99.352C265.543 100.131 265.388 100.797 265.1 101.352C264.823 101.907 264.433 102.333 263.932 102.632C263.431 102.92 262.833 103.064 262.14 103.064C261.543 103.064 260.999 102.957 260.508 102.744C260.028 102.52 259.617 102.211 259.276 101.816C258.935 101.421 258.673 100.963 258.492 100.44C258.311 99.9067 258.22 99.3307 258.22 98.712V98.344C258.22 97.7253 258.316 97.1493 258.508 96.616C258.7 96.0827 258.977 95.6187 259.34 95.224C259.703 94.8293 260.135 94.5253 260.636 94.312C261.137 94.088 261.692 93.976 262.3 93.976C263.004 93.976 263.612 94.1307 264.124 94.44C264.647 94.7493 265.057 95.2027 265.356 95.8C265.655 96.3973 265.815 97.1173 265.836 97.96L265.484 98.056V94.232H267.516V101.96C267.516 103.037 267.324 103.907 266.94 104.568C266.556 105.229 265.969 105.715 265.18 106.024C264.401 106.333 263.415 106.488 262.22 106.488ZM262.94 100.904C263.335 100.904 263.692 100.819 264.012 100.648C264.332 100.467 264.583 100.211 264.764 99.88C264.956 99.5493 265.052 99.1493 265.052 98.68V98.216C265.052 97.7573 264.951 97.3733 264.748 97.064C264.556 96.744 264.3 96.504 263.98 96.344C263.66 96.1733 263.319 96.088 262.956 96.088C262.529 96.088 262.151 96.1893 261.82 96.392C261.489 96.5947 261.233 96.8773 261.052 97.24C260.871 97.6027 260.78 98.0293 260.78 98.52C260.78 99.0213 260.871 99.4533 261.052 99.816C261.244 100.168 261.5 100.44 261.82 100.632C262.151 100.813 262.524 100.904 262.94 100.904ZM273.169 103V94.232H275.201V98.008H275.057C275.057 97.112 275.169 96.3653 275.393 95.768C275.617 95.1707 275.953 94.7227 276.401 94.424C276.849 94.1147 277.398 93.96 278.049 93.96H278.161C278.822 93.96 279.372 94.1147 279.809 94.424C280.257 94.7227 280.593 95.1707 280.817 95.768C281.052 96.3653 281.169 97.112 281.169 98.008H280.545C280.545 97.112 280.657 96.3653 280.881 95.768C281.116 95.1707 281.457 94.7227 281.905 94.424C282.353 94.1147 282.902 93.96 283.553 93.96H283.665C284.326 93.96 284.881 94.1147 285.329 94.424C285.788 94.7227 286.134 95.1707 286.369 95.768C286.604 96.3653 286.721 97.112 286.721 98.008V103H284.161V97.864C284.161 97.384 284.033 96.9947 283.777 96.696C283.532 96.3973 283.18 96.248 282.721 96.248C282.262 96.248 281.9 96.4027 281.633 96.712C281.366 97.0107 281.233 97.4107 281.233 97.912V103H278.657V97.864C278.657 97.384 278.529 96.9947 278.273 96.696C278.028 96.3973 277.681 96.248 277.233 96.248C276.764 96.248 276.396 96.4027 276.129 96.712C275.862 97.0107 275.729 97.4107 275.729 97.912V103H273.169ZM292.958 103.304C292.211 103.304 291.55 103.176 290.974 102.92C290.408 102.664 289.934 102.323 289.55 101.896C289.176 101.459 288.888 100.973 288.686 100.44C288.494 99.896 288.398 99.3413 288.398 98.776V98.456C288.398 97.8693 288.494 97.3093 288.686 96.776C288.888 96.232 289.176 95.7467 289.55 95.32C289.923 94.8933 290.387 94.5573 290.942 94.312C291.507 94.056 292.147 93.928 292.862 93.928C293.8 93.928 294.59 94.1413 295.23 94.568C295.88 94.984 296.376 95.5333 296.718 96.216C297.059 96.888 297.23 97.624 297.23 98.424V99.288H289.47V97.832H295.678L294.846 98.504C294.846 97.9813 294.771 97.5333 294.622 97.16C294.472 96.7867 294.248 96.504 293.95 96.312C293.662 96.1093 293.299 96.008 292.862 96.008C292.414 96.008 292.035 96.1093 291.726 96.312C291.416 96.5147 291.182 96.8133 291.022 97.208C290.862 97.592 290.782 98.0667 290.782 98.632C290.782 99.1547 290.856 99.6133 291.006 100.008C291.155 100.392 291.39 100.691 291.71 100.904C292.03 101.117 292.446 101.224 292.958 101.224C293.427 101.224 293.811 101.133 294.11 100.952C294.408 100.771 294.611 100.547 294.718 100.28H297.07C296.942 100.867 296.691 101.389 296.318 101.848C295.944 102.307 295.475 102.664 294.91 102.92C294.344 103.176 293.694 103.304 292.958 103.304ZM300.395 99.08V96.296H301.883C302.448 96.296 302.869 96.1467 303.147 95.848C303.424 95.5387 303.563 95.1653 303.563 94.728C303.563 94.4187 303.499 94.152 303.371 93.928C303.253 93.6933 303.077 93.512 302.843 93.384C302.619 93.2453 302.347 93.176 302.027 93.176C301.685 93.176 301.397 93.2507 301.163 93.4C300.928 93.5387 300.747 93.7253 300.619 93.96C300.491 94.1947 300.427 94.4613 300.427 94.76H297.979C297.979 94.056 298.133 93.4213 298.443 92.856C298.763 92.28 299.232 91.8213 299.851 91.48C300.469 91.1387 301.216 90.968 302.091 90.968C302.901 90.968 303.6 91.1227 304.187 91.432C304.773 91.7307 305.227 92.1467 305.547 92.68C305.867 93.2133 306.027 93.8267 306.027 94.52V94.712C306.027 95.3947 305.861 95.9973 305.531 96.52C305.211 97.032 304.741 97.4373 304.123 97.736C303.504 98.024 302.752 98.1787 301.867 98.2L302.971 97.32L302.939 99.08H300.395ZM300.203 103V100.424H303.115V103H300.203Z" fill="white"/>
<defs>
<clipPath id="clip0_1242_41981">
<rect width="24" height="24" fill="white" transform="translate(62.5 86)"/>
</clipPath>
</defs>
</svg>
