<svg width="396" height="259" viewBox="0 0 396 259" fill="none" xmlns="http://www.w3.org/2000/svg">
<rect x="0.5" y="0.5" width="395" height="258" rx="15.5" fill="#FAF9F6" fill-opacity="0.1"/>
<rect x="0.5" y="0.5" width="395" height="258" rx="15.5" stroke="#FAF9F6"/>
<path d="M99.008 67.456C97.424 67.456 96.064 67.184 94.928 66.64C93.792 66.08 92.864 65.352 92.144 64.456C91.424 63.544 90.888 62.568 90.536 61.528C90.2 60.472 90.032 59.448 90.032 58.456V57.928C90.032 56.84 90.208 55.768 90.56 54.712C90.912 53.64 91.448 52.672 92.168 51.808C92.904 50.944 93.824 50.256 94.928 49.744C96.048 49.216 97.368 48.952 98.888 48.952C100.472 48.952 101.872 49.248 103.088 49.84C104.304 50.432 105.272 51.256 105.992 52.312C106.728 53.352 107.16 54.576 107.288 55.984H103.328C103.216 55.28 102.96 54.68 102.56 54.184C102.16 53.688 101.64 53.304 101 53.032C100.376 52.76 99.672 52.624 98.888 52.624C98.104 52.624 97.408 52.76 96.8 53.032C96.192 53.304 95.68 53.688 95.264 54.184C94.864 54.68 94.552 55.272 94.328 55.96C94.12 56.632 94.016 57.384 94.016 58.216C94.016 59.032 94.12 59.784 94.328 60.472C94.552 61.144 94.872 61.736 95.288 62.248C95.72 62.744 96.248 63.128 96.872 63.4C97.496 63.656 98.208 63.784 99.008 63.784C100.224 63.784 101.248 63.488 102.08 62.896C102.928 62.304 103.44 61.488 103.616 60.448H107.552C107.408 61.728 106.976 62.904 106.256 63.976C105.552 65.032 104.584 65.88 103.352 66.52C102.136 67.144 100.688 67.456 99.008 67.456ZM117.831 67V63.112H117.183V58.888C117.183 58.216 117.023 57.712 116.703 57.376C116.383 57.04 115.871 56.872 115.167 56.872C114.815 56.872 114.351 56.88 113.775 56.896C113.199 56.912 112.607 56.936 111.999 56.968C111.391 57 110.839 57.032 110.343 57.064V53.824C110.711 53.792 111.143 53.76 111.639 53.728C112.135 53.696 112.647 53.672 113.175 53.656C113.703 53.64 114.199 53.632 114.663 53.632C116.007 53.632 117.135 53.824 118.047 54.208C118.975 54.592 119.679 55.176 120.159 55.96C120.639 56.728 120.879 57.72 120.879 58.936V67H117.831ZM113.631 67.336C112.687 67.336 111.855 67.168 111.135 66.832C110.431 66.496 109.879 66.016 109.479 65.392C109.079 64.752 108.879 63.992 108.879 63.112C108.879 62.152 109.127 61.368 109.623 60.76C110.119 60.136 110.815 59.68 111.711 59.392C112.607 59.088 113.639 58.936 114.807 58.936H117.615V61.072H114.783C114.111 61.072 113.591 61.24 113.223 61.576C112.871 61.896 112.695 62.336 112.695 62.896C112.695 63.424 112.871 63.856 113.223 64.192C113.591 64.512 114.111 64.672 114.783 64.672C115.215 64.672 115.599 64.6 115.935 64.456C116.287 64.296 116.575 64.032 116.799 63.664C117.023 63.296 117.151 62.784 117.183 62.128L118.095 63.088C118.015 64 117.791 64.768 117.423 65.392C117.071 66.016 116.575 66.496 115.935 66.832C115.311 67.168 114.543 67.336 113.631 67.336ZM124.077 67V53.848H127.125V59.488H127.053C127.053 57.632 127.445 56.2 128.229 55.192C129.029 54.184 130.181 53.68 131.685 53.68H132.189V56.992H131.229C130.173 56.992 129.357 57.28 128.781 57.856C128.205 58.416 127.917 59.232 127.917 60.304V67H124.077ZM139.473 67.432C138.545 67.432 137.697 67.264 136.929 66.928C136.177 66.592 135.521 66.128 134.961 65.536C134.401 64.928 133.969 64.216 133.665 63.4C133.377 62.584 133.233 61.704 133.233 60.76V60.208C133.233 59.264 133.369 58.384 133.641 57.568C133.929 56.752 134.337 56.04 134.865 55.432C135.409 54.808 136.057 54.328 136.809 53.992C137.561 53.64 138.401 53.464 139.329 53.464C140.385 53.464 141.297 53.696 142.065 54.16C142.833 54.608 143.433 55.28 143.865 56.176C144.297 57.056 144.537 58.144 144.585 59.44L143.577 58.504V49.48H147.441V67H144.393V61.552H144.921C144.873 62.8 144.609 63.864 144.129 64.744C143.665 65.624 143.033 66.296 142.233 66.76C141.433 67.208 140.513 67.432 139.473 67.432ZM140.433 64.216C141.025 64.216 141.561 64.088 142.041 63.832C142.537 63.56 142.929 63.168 143.217 62.656C143.521 62.144 143.673 61.528 143.673 60.808V59.92C143.673 59.216 143.521 58.624 143.217 58.144C142.913 57.664 142.513 57.296 142.017 57.04C141.521 56.784 140.985 56.656 140.409 56.656C139.769 56.656 139.193 56.824 138.681 57.16C138.185 57.48 137.793 57.928 137.505 58.504C137.217 59.064 137.073 59.72 137.073 60.472C137.073 61.24 137.217 61.904 137.505 62.464C137.793 63.024 138.193 63.456 138.705 63.76C139.217 64.064 139.793 64.216 140.433 64.216ZM155.856 67.408C153.984 67.408 152.52 67.024 151.464 66.256C150.408 65.488 149.848 64.408 149.784 63.016H153.192C153.256 63.432 153.504 63.808 153.936 64.144C154.384 64.464 155.048 64.624 155.928 64.624C156.6 64.624 157.152 64.512 157.584 64.288C158.032 64.048 158.256 63.712 158.256 63.28C158.256 62.896 158.088 62.592 157.752 62.368C157.416 62.128 156.816 61.96 155.952 61.864L154.92 61.768C153.336 61.608 152.144 61.168 151.344 60.448C150.56 59.728 150.168 58.808 150.168 57.688C150.168 56.76 150.4 55.984 150.864 55.36C151.328 54.736 151.968 54.264 152.784 53.944C153.616 53.624 154.56 53.464 155.616 53.464C157.312 53.464 158.68 53.84 159.72 54.592C160.76 55.328 161.304 56.4 161.352 57.808H157.944C157.88 57.376 157.656 57.016 157.272 56.728C156.888 56.424 156.32 56.272 155.568 56.272C154.976 56.272 154.504 56.384 154.152 56.608C153.8 56.832 153.624 57.136 153.624 57.52C153.624 57.888 153.776 58.168 154.08 58.36C154.384 58.552 154.88 58.688 155.568 58.768L156.6 58.864C158.216 59.04 159.472 59.488 160.368 60.208C161.264 60.928 161.712 61.896 161.712 63.112C161.712 63.992 161.472 64.76 160.992 65.416C160.512 66.056 159.832 66.552 158.952 66.904C158.072 67.24 157.04 67.408 155.856 67.408ZM169.119 67V53.848H172.167V59.488H172.095C172.095 57.632 172.487 56.2 173.271 55.192C174.071 54.184 175.223 53.68 176.727 53.68H177.231V56.992H176.271C175.215 56.992 174.399 57.28 173.823 57.856C173.247 58.416 172.959 59.232 172.959 60.304V67H169.119ZM185.114 67.456C183.994 67.456 183.002 67.264 182.138 66.88C181.29 66.496 180.578 65.984 180.002 65.344C179.442 64.688 179.01 63.96 178.706 63.16C178.418 62.344 178.274 61.512 178.274 60.664V60.184C178.274 59.304 178.418 58.464 178.706 57.664C179.01 56.848 179.442 56.12 180.002 55.48C180.562 54.84 181.258 54.336 182.09 53.968C182.938 53.584 183.898 53.392 184.97 53.392C186.378 53.392 187.562 53.712 188.522 54.352C189.498 54.976 190.242 55.8 190.754 56.824C191.266 57.832 191.522 58.936 191.522 60.136V61.432H179.882V59.248H189.194L187.946 60.256C187.946 59.472 187.834 58.8 187.61 58.24C187.386 57.68 187.05 57.256 186.602 56.968C186.17 56.664 185.626 56.512 184.97 56.512C184.298 56.512 183.73 56.664 183.266 56.968C182.802 57.272 182.45 57.72 182.21 58.312C181.97 58.888 181.85 59.6 181.85 60.448C181.85 61.232 181.962 61.92 182.186 62.512C182.41 63.088 182.762 63.536 183.242 63.856C183.722 64.176 184.346 64.336 185.114 64.336C185.818 64.336 186.394 64.2 186.842 63.928C187.29 63.656 187.594 63.32 187.754 62.92H191.282C191.09 63.8 190.714 64.584 190.154 65.272C189.594 65.96 188.89 66.496 188.042 66.88C187.194 67.264 186.218 67.456 185.114 67.456ZM199.91 67.456C198.774 67.456 197.782 67.272 196.934 66.904C196.102 66.52 195.406 66.008 194.846 65.368C194.286 64.728 193.87 64.008 193.598 63.208C193.326 62.392 193.19 61.552 193.19 60.688V60.232C193.19 59.336 193.334 58.48 193.622 57.664C193.91 56.832 194.334 56.096 194.894 55.456C195.454 54.816 196.15 54.312 196.982 53.944C197.83 53.576 198.798 53.392 199.886 53.392C201.07 53.392 202.118 53.624 203.03 54.088C203.942 54.536 204.67 55.168 205.214 55.984C205.758 56.8 206.062 57.736 206.126 58.792H202.358C202.294 58.2 202.054 57.704 201.638 57.304C201.238 56.888 200.654 56.68 199.886 56.68C199.246 56.68 198.71 56.84 198.278 57.16C197.862 57.48 197.55 57.92 197.342 58.48C197.134 59.04 197.03 59.704 197.03 60.472C197.03 61.176 197.126 61.816 197.318 62.392C197.51 62.952 197.814 63.392 198.23 63.712C198.662 64.016 199.222 64.168 199.91 64.168C200.422 64.168 200.854 64.08 201.206 63.904C201.574 63.712 201.862 63.456 202.07 63.136C202.294 62.8 202.43 62.416 202.478 61.984H206.222C206.174 63.072 205.87 64.032 205.31 64.864C204.75 65.68 204.006 66.32 203.078 66.784C202.15 67.232 201.094 67.456 199.91 67.456ZM215.026 67.456C213.874 67.456 212.85 67.28 211.954 66.928C211.058 66.56 210.298 66.064 209.674 65.44C209.066 64.816 208.602 64.104 208.282 63.304C207.962 62.488 207.802 61.632 207.802 60.736V60.184C207.802 59.272 207.962 58.408 208.282 57.592C208.618 56.76 209.098 56.032 209.722 55.408C210.362 54.784 211.13 54.296 212.026 53.944C212.922 53.576 213.922 53.392 215.026 53.392C216.162 53.392 217.17 53.576 218.05 53.944C218.946 54.296 219.706 54.784 220.33 55.408C220.954 56.032 221.434 56.76 221.77 57.592C222.106 58.408 222.274 59.272 222.274 60.184V60.736C222.274 61.632 222.114 62.488 221.794 63.304C221.474 64.104 221.002 64.816 220.378 65.44C219.77 66.064 219.018 66.56 218.122 66.928C217.226 67.28 216.194 67.456 215.026 67.456ZM215.026 64.216C215.778 64.216 216.402 64.056 216.898 63.736C217.394 63.416 217.77 62.968 218.026 62.392C218.298 61.816 218.434 61.176 218.434 60.472C218.434 59.72 218.298 59.064 218.026 58.504C217.754 57.928 217.362 57.472 216.85 57.136C216.354 56.8 215.746 56.632 215.026 56.632C214.322 56.632 213.714 56.8 213.202 57.136C212.69 57.472 212.298 57.928 212.026 58.504C211.77 59.064 211.642 59.72 211.642 60.472C211.642 61.176 211.77 61.816 212.026 62.392C212.282 62.968 212.666 63.416 213.178 63.736C213.69 64.056 214.306 64.216 215.026 64.216ZM230.078 72.232C229.438 72.232 228.782 72.208 228.11 72.16C227.438 72.112 226.822 72.048 226.262 71.968V68.728C226.822 68.808 227.438 68.872 228.11 68.92C228.798 68.984 229.422 69.016 229.982 69.016C231.022 69.016 231.862 68.896 232.502 68.656C233.158 68.416 233.638 68.048 233.942 67.552C234.246 67.072 234.398 66.448 234.398 65.68V63.064L235.094 61.528C235.062 62.696 234.83 63.696 234.398 64.528C233.982 65.36 233.398 66 232.646 66.448C231.894 66.88 230.998 67.096 229.958 67.096C229.062 67.096 228.246 66.936 227.51 66.616C226.79 66.28 226.174 65.816 225.662 65.224C225.15 64.632 224.758 63.944 224.486 63.16C224.214 62.36 224.078 61.496 224.078 60.568V60.016C224.078 59.088 224.222 58.224 224.51 57.424C224.798 56.624 225.214 55.928 225.758 55.336C226.302 54.744 226.95 54.288 227.702 53.968C228.454 53.632 229.286 53.464 230.198 53.464C231.254 53.464 232.166 53.696 232.934 54.16C233.718 54.624 234.334 55.304 234.782 56.2C235.23 57.096 235.47 58.176 235.502 59.44L234.974 59.584V53.848H238.022V65.44C238.022 67.056 237.734 68.36 237.158 69.352C236.582 70.344 235.702 71.072 234.518 71.536C233.35 72 231.87 72.232 230.078 72.232ZM231.158 63.856C231.75 63.856 232.286 63.728 232.766 63.472C233.246 63.2 233.622 62.816 233.894 62.32C234.182 61.824 234.326 61.224 234.326 60.52V59.824C234.326 59.136 234.174 58.56 233.87 58.096C233.582 57.616 233.198 57.256 232.718 57.016C232.238 56.76 231.726 56.632 231.182 56.632C230.542 56.632 229.974 56.784 229.478 57.088C228.982 57.392 228.598 57.816 228.326 58.36C228.054 58.904 227.918 59.544 227.918 60.28C227.918 61.032 228.054 61.68 228.326 62.224C228.614 62.752 228.998 63.16 229.478 63.448C229.974 63.72 230.534 63.856 231.158 63.856ZM241.287 67V53.848H244.335V59.488H244.119C244.119 58.144 244.287 57.024 244.623 56.128C244.975 55.232 245.503 54.56 246.207 54.112C246.911 53.664 247.767 53.44 248.775 53.44H248.943C250.479 53.44 251.647 53.944 252.447 54.952C253.263 55.944 253.671 57.456 253.671 59.488V67H249.831V59.272C249.831 58.568 249.623 57.992 249.207 57.544C248.791 57.096 248.231 56.872 247.527 56.872C246.807 56.872 246.223 57.104 245.775 57.568C245.343 58.016 245.127 58.608 245.127 59.344V67H241.287ZM257.508 67V53.848H261.348V67H257.508ZM255.756 56.68V53.848H261.348V56.68H255.756ZM258.996 52.552C258.276 52.552 257.74 52.368 257.388 52C257.052 51.616 256.884 51.136 256.884 50.56C256.884 49.968 257.052 49.488 257.388 49.12C257.74 48.736 258.276 48.544 258.996 48.544C259.716 48.544 260.244 48.736 260.58 49.12C260.932 49.488 261.108 49.968 261.108 50.56C261.108 51.136 260.932 51.616 260.58 52C260.244 52.368 259.716 52.552 258.996 52.552ZM263.975 67V64.312L270.143 56.92V57.304L269.567 56.584L269.999 56.8H263.999V53.848H274.343V56.536L268.175 63.928V63.568L268.751 64.288L268.319 64.048H274.535V67H263.975ZM282.686 67.456C281.566 67.456 280.574 67.264 279.71 66.88C278.862 66.496 278.15 65.984 277.574 65.344C277.014 64.688 276.582 63.96 276.278 63.16C275.99 62.344 275.846 61.512 275.846 60.664V60.184C275.846 59.304 275.99 58.464 276.278 57.664C276.582 56.848 277.014 56.12 277.574 55.48C278.134 54.84 278.83 54.336 279.662 53.968C280.51 53.584 281.47 53.392 282.542 53.392C283.95 53.392 285.134 53.712 286.094 54.352C287.07 54.976 287.814 55.8 288.326 56.824C288.838 57.832 289.094 58.936 289.094 60.136V61.432H277.454V59.248H286.766L285.518 60.256C285.518 59.472 285.406 58.8 285.182 58.24C284.958 57.68 284.622 57.256 284.174 56.968C283.742 56.664 283.198 56.512 282.542 56.512C281.87 56.512 281.302 56.664 280.838 56.968C280.374 57.272 280.022 57.72 279.782 58.312C279.542 58.888 279.422 59.6 279.422 60.448C279.422 61.232 279.534 61.92 279.758 62.512C279.982 63.088 280.334 63.536 280.814 63.856C281.294 64.176 281.918 64.336 282.686 64.336C283.39 64.336 283.966 64.2 284.414 63.928C284.862 63.656 285.166 63.32 285.326 62.92H288.854C288.662 63.8 288.286 64.584 287.726 65.272C287.166 65.96 286.462 66.496 285.614 66.88C284.766 67.264 283.79 67.456 282.686 67.456ZM297.003 67.432C296.075 67.432 295.227 67.264 294.459 66.928C293.707 66.592 293.051 66.128 292.491 65.536C291.931 64.928 291.499 64.216 291.195 63.4C290.907 62.584 290.763 61.704 290.763 60.76V60.208C290.763 59.264 290.899 58.384 291.171 57.568C291.459 56.752 291.867 56.04 292.395 55.432C292.939 54.808 293.587 54.328 294.339 53.992C295.091 53.64 295.931 53.464 296.859 53.464C297.915 53.464 298.827 53.696 299.595 54.16C300.363 54.608 300.963 55.28 301.395 56.176C301.827 57.056 302.067 58.144 302.115 59.44L301.107 58.504V49.48H304.971V67H301.923V61.552H302.451C302.403 62.8 302.139 63.864 301.659 64.744C301.195 65.624 300.563 66.296 299.763 66.76C298.963 67.208 298.043 67.432 297.003 67.432ZM297.963 64.216C298.555 64.216 299.091 64.088 299.571 63.832C300.067 63.56 300.459 63.168 300.747 62.656C301.051 62.144 301.203 61.528 301.203 60.808V59.92C301.203 59.216 301.051 58.624 300.747 58.144C300.443 57.664 300.043 57.296 299.547 57.04C299.051 56.784 298.515 56.656 297.939 56.656C297.299 56.656 296.723 56.824 296.211 57.16C295.715 57.48 295.323 57.928 295.035 58.504C294.747 59.064 294.603 59.72 294.603 60.472C294.603 61.24 294.747 61.904 295.035 62.464C295.323 63.024 295.723 63.456 296.235 63.76C296.747 64.064 297.323 64.216 297.963 64.216Z" fill="#FAF9F6"/>
</svg>
