<svg width="375" height="812" viewBox="0 0 375 812" fill="none" xmlns="http://www.w3.org/2000/svg">
<g clip-path="url(#clip0_1255_42482)">
<rect width="375" height="812" fill="#432D69"/>
<ellipse opacity="0.8" cx="188.5" cy="453.5" rx="436.5" ry="341.5" fill="url(#paint0_radial_1255_42482)"/>
<rect x="121" y="799" width="134" height="5" rx="2.5" fill="#FAF9F6"/>
<path opacity="0.35" d="M338.667 17.8333H355.333C356.53 17.8333 357.5 18.8036 357.5 20.0002V26.0002C357.5 27.1967 356.53 28.1663 355.333 28.1663H338.667C337.47 28.1663 336.5 27.1967 336.5 26.0002V20.0002C336.5 18.8036 337.47 17.8333 338.667 17.8333Z" stroke="#FAF9F6"/>
<path opacity="0.4" d="M359 21V25C359.805 24.6612 360.328 23.8731 360.328 23C360.328 22.1269 359.805 21.3388 359 21" fill="#FAF9F6"/>
<path d="M338 20.6666C338 19.9302 338.597 19.3333 339.333 19.3333H354.667C355.403 19.3333 356 19.9302 356 20.6666V25.3333C356 26.0696 355.403 26.6666 354.667 26.6666H339.333C338.597 26.6666 338 26.0696 338 25.3333V20.6666Z" fill="#FAF9F6"/>
<path d="M321.121 25.7311C322.397 24.6522 324.265 24.6522 325.541 25.7311C325.605 25.7892 325.642 25.8713 325.644 25.9577C325.645 26.0442 325.612 26.1276 325.55 26.1882L323.553 28.2038C323.494 28.263 323.414 28.2965 323.331 28.2966C323.248 28.2966 323.168 28.263 323.109 28.2038L321.111 26.1882C321.05 26.1276 321.016 26.0441 321.018 25.9577C321.019 25.8712 321.057 25.7891 321.121 25.7311ZM318.456 23.0417C321.204 20.4856 325.46 20.4857 328.208 23.0417C328.27 23.1015 328.306 23.1841 328.307 23.2702C328.308 23.3564 328.274 23.4395 328.213 23.5007L327.059 24.6677C326.94 24.7868 326.747 24.7894 326.625 24.6735C325.723 23.8563 324.549 23.4039 323.331 23.404C322.114 23.4045 320.941 23.8568 320.039 24.6735C319.917 24.7893 319.724 24.7867 319.605 24.6677L318.451 23.5007C318.391 23.4396 318.357 23.3563 318.357 23.2702C318.358 23.1841 318.394 23.1015 318.456 23.0417ZM315.791 20.36C320.006 16.3209 326.656 16.3206 330.871 20.36C330.932 20.42 330.966 20.5021 330.967 20.5876C330.967 20.6731 330.933 20.7554 330.873 20.8161L329.717 21.9831C329.598 22.1026 329.405 22.1038 329.284 21.986C327.678 20.4593 325.547 19.6082 323.331 19.6081C321.115 19.6081 318.983 20.4591 317.377 21.986C317.256 22.104 317.063 22.1028 316.944 21.9831L315.788 20.8161C315.728 20.7553 315.694 20.6732 315.694 20.5876C315.695 20.5021 315.73 20.42 315.791 20.36Z" fill="#FAF9F6"/>
<path d="M295.667 24.3335C296.219 24.3335 296.667 24.7812 296.667 25.3335V27.3335C296.667 27.8856 296.219 28.3335 295.667 28.3335H294.667C294.115 28.3335 293.667 27.8856 293.667 27.3335V25.3335C293.667 24.7812 294.115 24.3335 294.667 24.3335H295.667ZM300.334 22.3335C300.886 22.3337 301.334 22.7813 301.334 23.3335V27.3335C301.334 27.8855 300.886 28.3333 300.334 28.3335H299.334C298.782 28.3335 298.334 27.8856 298.334 27.3335V23.3335C298.334 22.7812 298.782 22.3335 299.334 22.3335H300.334ZM305 19.9995C305.552 19.9995 306 20.4474 306 20.9995V27.3335C306 27.8856 305.552 28.3335 305 28.3335H304C303.448 28.3333 303 27.8855 303 27.3335V20.9995C303 20.4475 303.448 19.9997 304 19.9995H305ZM309.667 17.6665C310.219 17.6665 310.667 18.1142 310.667 18.6665V27.3335C310.667 27.8856 310.219 28.3335 309.667 28.3335H308.667C308.115 28.3335 307.667 27.8856 307.667 27.3335V18.6665C307.667 18.1142 308.115 17.6665 308.667 17.6665H309.667Z" fill="#FAF9F6"/>
<path d="M37.3203 28.2563C40.0083 28.2563 41.605 26.1543 41.605 22.5947C41.605 21.2544 41.3486 20.1265 40.8579 19.2549C40.1475 17.8999 38.9243 17.1675 37.3789 17.1675C35.0791 17.1675 33.4531 18.7129 33.4531 20.8809C33.4531 22.917 34.918 24.3965 36.9321 24.3965C38.1699 24.3965 39.1733 23.8179 39.6714 22.8145H39.6934C39.6934 22.8145 39.7227 22.8145 39.73 22.8145C39.7446 22.8145 39.7959 22.8145 39.7959 22.8145C39.7959 25.2314 38.8804 26.6743 37.335 26.6743C36.4268 26.6743 35.7236 26.1763 35.4819 25.3779H33.5996C33.9146 27.1138 35.3867 28.2563 37.3203 28.2563ZM37.3862 22.895C36.1704 22.895 35.3062 22.0308 35.3062 20.8223C35.3062 19.6431 36.2144 18.7422 37.3936 18.7422C38.5728 18.7422 39.481 19.6577 39.481 20.8516C39.481 22.0308 38.5947 22.895 37.3862 22.895Z" fill="#FAF9F6"/>
<path d="M44.6961 28.1538C45.3919 28.1538 45.868 27.6558 45.868 26.9966C45.868 26.3301 45.3919 25.8394 44.6961 25.8394C44.0076 25.8394 43.5242 26.3301 43.5242 26.9966C43.5242 27.6558 44.0076 28.1538 44.6961 28.1538ZM44.6961 22.6606C45.3919 22.6606 45.868 22.1699 45.868 21.5107C45.868 20.8442 45.3919 20.3535 44.6961 20.3535C44.0076 20.3535 43.5242 20.8442 43.5242 21.5107C43.5242 22.1699 44.0076 22.6606 44.6961 22.6606Z" fill="#FAF9F6"/>
<path d="M52.7237 28H54.5328V26.0298H55.961V24.4331H54.5328V17.4312H51.8668C49.9991 20.2437 48.5123 22.5947 47.5602 24.3452V26.0298H52.7237V28ZM49.3106 24.3672C50.5411 22.1992 51.6397 20.4634 52.6505 18.9692H52.753V24.4771H49.3106V24.3672Z" fill="#FAF9F6"/>
<path d="M59.9896 28H61.8793V17.4312H59.997L57.2357 19.3647V21.1812L59.8651 19.3354H59.9896V28Z" fill="#FAF9F6"/>
<rect opacity="0.3" y="660" width="375" height="152" fill="url(#paint1_linear_1255_42482)"/>
<path d="M34.2929 67.2929C34.6834 66.9024 35.3164 66.9024 35.707 67.2929C36.0975 67.6834 36.0975 68.3164 35.707 68.707L30.414 73.9999L35.707 79.2929L35.7758 79.3686C36.0962 79.7614 36.0731 80.3408 35.707 80.707C35.3408 81.0731 34.7614 81.0962 34.3686 80.7758L34.2929 80.707L28.2929 74.707C27.9024 74.3164 27.9024 73.6834 28.2929 73.2929L34.2929 67.2929Z" fill="#FAF9F6"/>
<path d="M130.669 81L135.649 66.4H140.289L145.409 81H142.489L138.149 68.34L139.169 68.78H136.669L137.709 68.34L133.509 81H130.669ZM134.149 77.12L135.049 74.72H140.969L141.849 77.12H134.149ZM147.48 81V69.66C147.48 68.42 147.82 67.5067 148.5 66.92C149.193 66.32 150.213 66.02 151.56 66.02H152.58V68.16H151.36C150.947 68.16 150.627 68.2733 150.4 68.5C150.187 68.7133 150.08 69.02 150.08 69.42V81H147.48ZM154.56 81V69.78C154.56 68.54 154.9 67.6267 155.58 67.04C156.273 66.44 157.293 66.14 158.64 66.14H159.9V68.28H158.44C158.027 68.28 157.707 68.3933 157.48 68.62C157.267 68.8333 157.16 69.14 157.16 69.54V81H154.56ZM161.98 81V70.14H164.76V81H161.98ZM146.14 72.24V70.2H159.66V72.24H146.14ZM160.6 72.22V70.14H164.76V72.22H160.6ZM162.98 68.84C162.447 68.84 162.047 68.7 161.78 68.42C161.527 68.1267 161.4 67.76 161.4 67.32C161.4 66.88 161.527 66.52 161.78 66.24C162.047 65.96 162.447 65.82 162.98 65.82C163.527 65.82 163.927 65.96 164.18 66.24C164.447 66.52 164.58 66.88 164.58 67.32C164.58 67.76 164.447 68.1267 164.18 68.42C163.927 68.7 163.527 68.84 162.98 68.84ZM167.963 81V70.14H170.163V74.74H170.103C170.103 73.18 170.436 72 171.103 71.2C171.769 70.4 172.749 70 174.043 70H174.443V72.42H173.683C172.749 72.42 172.023 72.6733 171.503 73.18C170.996 73.6733 170.743 74.3933 170.743 75.34V81H167.963ZM176.303 81V70.14H178.503V74.8H178.303C178.303 73.7067 178.443 72.7933 178.723 72.06C179.003 71.3133 179.416 70.7533 179.963 70.38C180.523 69.9933 181.216 69.8 182.043 69.8H182.163C183.003 69.8 183.696 69.9933 184.243 70.38C184.803 70.7533 185.216 71.3133 185.483 72.06C185.763 72.7933 185.903 73.7067 185.903 74.8H185.203C185.203 73.7067 185.343 72.7933 185.623 72.06C185.916 71.3133 186.336 70.7533 186.883 70.38C187.443 69.9933 188.136 69.8 188.963 69.8H189.083C189.923 69.8 190.623 69.9933 191.183 70.38C191.743 70.7533 192.163 71.3133 192.443 72.06C192.736 72.7933 192.883 73.7067 192.883 74.8V81H190.103V74.54C190.103 73.86 189.929 73.32 189.583 72.92C189.236 72.5067 188.743 72.3 188.103 72.3C187.463 72.3 186.949 72.5133 186.563 72.94C186.176 73.3533 185.983 73.9133 185.983 74.62V81H183.203V74.54C183.203 73.86 183.029 73.32 182.683 72.92C182.336 72.5067 181.843 72.3 181.203 72.3C180.563 72.3 180.049 72.5133 179.663 72.94C179.276 73.3533 179.083 73.9133 179.083 74.62V81H176.303ZM202.433 81V77.78H201.973V74.2C201.973 73.5733 201.82 73.1067 201.513 72.8C201.207 72.4933 200.733 72.34 200.093 72.34C199.76 72.34 199.36 72.3467 198.893 72.36C198.427 72.3733 197.953 72.3933 197.473 72.42C197.007 72.4333 196.587 72.4533 196.213 72.48V70.12C196.52 70.0933 196.867 70.0667 197.253 70.04C197.64 70.0133 198.033 70 198.433 70C198.847 69.9867 199.233 69.98 199.593 69.98C200.713 69.98 201.64 70.1267 202.373 70.42C203.12 70.7133 203.68 71.1733 204.053 71.8C204.44 72.4267 204.633 73.2467 204.633 74.26V81H202.433ZM198.933 81.28C198.147 81.28 197.453 81.14 196.853 80.86C196.267 80.58 195.807 80.18 195.473 79.66C195.153 79.14 194.993 78.5133 194.993 77.78C194.993 76.98 195.187 76.3267 195.573 75.82C195.973 75.3133 196.527 74.9333 197.233 74.68C197.953 74.4267 198.793 74.3 199.753 74.3H202.273V75.96H199.713C199.073 75.96 198.58 76.12 198.233 76.44C197.9 76.7467 197.733 77.1467 197.733 77.64C197.733 78.1333 197.9 78.5333 198.233 78.84C198.58 79.1467 199.073 79.3 199.713 79.3C200.1 79.3 200.453 79.2333 200.773 79.1C201.107 78.9533 201.38 78.7133 201.593 78.38C201.82 78.0333 201.947 77.5667 201.973 76.98L202.653 77.76C202.587 78.52 202.4 79.16 202.093 79.68C201.8 80.2 201.387 80.6 200.853 80.88C200.333 81.1467 199.693 81.28 198.933 81.28ZM212.331 81.14C211.331 81.14 210.505 81.0133 209.851 80.76C209.211 80.4933 208.731 80.0533 208.411 79.44C208.091 78.8133 207.931 77.9733 207.931 76.92L207.951 67.08H210.551L210.531 77.1C210.531 77.6333 210.671 78.0467 210.951 78.34C211.245 78.62 211.658 78.76 212.191 78.76H213.891V81.14H212.331ZM206.211 72.18V70.14H213.891V72.18H206.211ZM216.745 81V70.14H219.525V81H216.745ZM215.225 72.22V70.14H219.525V72.22H215.225ZM217.765 68.84C217.218 68.84 216.811 68.7 216.545 68.42C216.291 68.1267 216.165 67.7667 216.165 67.34C216.165 66.8867 216.291 66.52 216.545 66.24C216.811 65.96 217.218 65.82 217.765 65.82C218.311 65.82 218.711 65.96 218.965 66.24C219.218 66.52 219.345 66.8867 219.345 67.34C219.345 67.7667 219.218 68.1267 218.965 68.42C218.711 68.7 218.311 68.84 217.765 68.84ZM227.948 81.38C226.988 81.38 226.142 81.2267 225.408 80.92C224.675 80.6133 224.055 80.2 223.548 79.68C223.042 79.1467 222.655 78.5467 222.388 77.88C222.135 77.2133 222.008 76.52 222.008 75.8V75.38C222.008 74.6333 222.142 73.9267 222.408 73.26C222.688 72.58 223.082 71.98 223.588 71.46C224.108 70.9267 224.735 70.5133 225.468 70.22C226.202 69.9133 227.028 69.76 227.948 69.76C228.868 69.76 229.695 69.9133 230.428 70.22C231.162 70.5133 231.782 70.9267 232.288 71.46C232.808 71.98 233.202 72.58 233.468 73.26C233.735 73.9267 233.868 74.6333 233.868 75.38V75.8C233.868 76.52 233.735 77.2133 233.468 77.88C233.215 78.5467 232.835 79.1467 232.328 79.68C231.822 80.2 231.202 80.6133 230.468 80.92C229.735 81.2267 228.895 81.38 227.948 81.38ZM227.948 79C228.628 79 229.202 78.8533 229.668 78.56C230.135 78.2533 230.488 77.8467 230.728 77.34C230.968 76.82 231.088 76.2333 231.088 75.58C231.088 74.9133 230.962 74.3267 230.708 73.82C230.468 73.3 230.108 72.8933 229.628 72.6C229.162 72.2933 228.602 72.14 227.948 72.14C227.295 72.14 226.728 72.2933 226.248 72.6C225.782 72.8933 225.422 73.3 225.168 73.82C224.915 74.3267 224.788 74.9133 224.788 75.58C224.788 76.2333 224.908 76.82 225.148 77.34C225.402 77.8467 225.762 78.2533 226.228 78.56C226.695 78.8533 227.268 79 227.948 79ZM236.303 81V70.14H238.503V74.8H238.303C238.303 73.6933 238.449 72.7733 238.743 72.04C239.036 71.2933 239.469 70.7333 240.043 70.36C240.629 69.9867 241.356 69.8 242.223 69.8H242.343C243.636 69.8 244.616 70.22 245.283 71.06C245.949 71.8867 246.283 73.1267 246.283 74.78V81H243.503V74.54C243.503 73.8733 243.309 73.3333 242.923 72.92C242.549 72.5067 242.029 72.3 241.363 72.3C240.683 72.3 240.129 72.5133 239.703 72.94C239.289 73.3533 239.083 73.9133 239.083 74.62V81H236.303Z" fill="#FAF9F6"/>
<g clip-path="url(#clip1_1255_42482)">
<path d="M345 70.3333V73.9999M345 77.6666H345.009M354.166 73.9999C354.166 79.0625 350.062 83.1666 345 83.1666C339.937 83.1666 335.833 79.0625 335.833 73.9999C335.833 68.9373 339.937 64.8333 345 64.8333C350.062 64.8333 354.166 68.9373 354.166 73.9999Z" stroke="#FAF9F6" stroke-width="2" stroke-linecap="round" stroke-linejoin="round"/>
</g>
<path d="M64.5302 167V149.48H69.9542L73.9622 159.32H74.4182L78.3782 149.48H83.8982V167H80.0102V152.048L80.5622 152.096L75.9302 163.448H72.1862L67.5302 152.096L68.1302 152.048V167H64.5302ZM87.4071 172.208V168.944H90.1431C90.5591 168.944 90.9111 168.888 91.1991 168.776C91.4871 168.68 91.7191 168.512 91.8951 168.272C92.0711 168.032 92.2151 167.704 92.3271 167.288L95.5671 153.848H99.2151L95.5431 168.056C95.2871 169.08 94.9271 169.896 94.4631 170.504C94.0151 171.112 93.4071 171.544 92.6391 171.8C91.8871 172.072 90.9271 172.208 89.7591 172.208H87.4071ZM91.5351 166.712V163.712H94.3191V166.712H91.5351ZM89.9511 166.712L85.9191 153.848H89.7831L93.5991 166.712H89.9511ZM112.182 167.456C111.062 167.456 110.07 167.264 109.206 166.88C108.358 166.496 107.646 165.984 107.07 165.344C106.51 164.688 106.078 163.96 105.774 163.16C105.486 162.344 105.342 161.512 105.342 160.664V160.184C105.342 159.304 105.486 158.464 105.774 157.664C106.078 156.848 106.51 156.12 107.07 155.48C107.63 154.84 108.326 154.336 109.158 153.968C110.006 153.584 110.966 153.392 112.038 153.392C113.446 153.392 114.63 153.712 115.59 154.352C116.566 154.976 117.31 155.8 117.822 156.824C118.334 157.832 118.59 158.936 118.59 160.136V161.432H106.95V159.248H116.262L115.014 160.256C115.014 159.472 114.902 158.8 114.678 158.24C114.454 157.68 114.118 157.256 113.67 156.968C113.238 156.664 112.694 156.512 112.038 156.512C111.366 156.512 110.798 156.664 110.334 156.968C109.87 157.272 109.518 157.72 109.278 158.312C109.038 158.888 108.918 159.6 108.918 160.448C108.918 161.232 109.03 161.92 109.254 162.512C109.478 163.088 109.83 163.536 110.31 163.856C110.79 164.176 111.414 164.336 112.182 164.336C112.886 164.336 113.462 164.2 113.91 163.928C114.358 163.656 114.662 163.32 114.822 162.92H118.35C118.158 163.8 117.782 164.584 117.222 165.272C116.662 165.96 115.958 166.496 115.11 166.88C114.262 167.264 113.286 167.456 112.182 167.456ZM121.074 167V153.848H124.122V159.488H123.906C123.906 158.144 124.074 157.024 124.41 156.128C124.762 155.232 125.29 154.56 125.994 154.112C126.698 153.664 127.554 153.44 128.562 153.44H128.73C130.266 153.44 131.434 153.944 132.234 154.952C133.05 155.944 133.458 157.456 133.458 159.488V167H129.618V159.272C129.618 158.568 129.41 157.992 128.994 157.544C128.578 157.096 128.018 156.872 127.314 156.872C126.594 156.872 126.01 157.104 125.562 157.568C125.13 158.016 124.914 158.608 124.914 159.344V167H121.074ZM142.694 167.456C141.574 167.456 140.582 167.264 139.718 166.88C138.87 166.496 138.158 165.984 137.582 165.344C137.022 164.688 136.59 163.96 136.286 163.16C135.998 162.344 135.854 161.512 135.854 160.664V160.184C135.854 159.304 135.998 158.464 136.286 157.664C136.59 156.848 137.022 156.12 137.582 155.48C138.142 154.84 138.838 154.336 139.67 153.968C140.518 153.584 141.478 153.392 142.55 153.392C143.958 153.392 145.142 153.712 146.102 154.352C147.078 154.976 147.822 155.8 148.334 156.824C148.846 157.832 149.102 158.936 149.102 160.136V161.432H137.462V159.248H146.774L145.526 160.256C145.526 159.472 145.414 158.8 145.19 158.24C144.966 157.68 144.63 157.256 144.182 156.968C143.75 156.664 143.206 156.512 142.55 156.512C141.878 156.512 141.31 156.664 140.846 156.968C140.382 157.272 140.03 157.72 139.79 158.312C139.55 158.888 139.43 159.6 139.43 160.448C139.43 161.232 139.542 161.92 139.766 162.512C139.99 163.088 140.342 163.536 140.822 163.856C141.302 164.176 141.926 164.336 142.694 164.336C143.398 164.336 143.974 164.2 144.422 163.928C144.87 163.656 145.174 163.32 145.334 162.92H148.862C148.67 163.8 148.294 164.584 147.734 165.272C147.174 165.96 146.47 166.496 145.622 166.88C144.774 167.264 143.798 167.456 142.694 167.456ZM151.587 167V153.848H154.635V159.488H154.563C154.563 157.632 154.955 156.2 155.739 155.192C156.539 154.184 157.691 153.68 159.195 153.68H159.699V156.992H158.739C157.683 156.992 156.867 157.28 156.291 157.856C155.715 158.416 155.427 159.232 155.427 160.304V167H151.587ZM166.742 172.232C166.102 172.232 165.446 172.208 164.774 172.16C164.102 172.112 163.486 172.048 162.926 171.968V168.728C163.486 168.808 164.102 168.872 164.774 168.92C165.462 168.984 166.086 169.016 166.646 169.016C167.686 169.016 168.526 168.896 169.166 168.656C169.822 168.416 170.302 168.048 170.606 167.552C170.91 167.072 171.062 166.448 171.062 165.68V163.064L171.758 161.528C171.726 162.696 171.494 163.696 171.062 164.528C170.646 165.36 170.062 166 169.31 166.448C168.558 166.88 167.662 167.096 166.622 167.096C165.726 167.096 164.91 166.936 164.174 166.616C163.454 166.28 162.838 165.816 162.326 165.224C161.814 164.632 161.422 163.944 161.15 163.16C160.878 162.36 160.742 161.496 160.742 160.568V160.016C160.742 159.088 160.886 158.224 161.174 157.424C161.462 156.624 161.878 155.928 162.422 155.336C162.966 154.744 163.614 154.288 164.366 153.968C165.118 153.632 165.95 153.464 166.862 153.464C167.918 153.464 168.83 153.696 169.598 154.16C170.382 154.624 170.998 155.304 171.446 156.2C171.894 157.096 172.134 158.176 172.166 159.44L171.638 159.584V153.848H174.686V165.44C174.686 167.056 174.398 168.36 173.822 169.352C173.246 170.344 172.366 171.072 171.182 171.536C170.014 172 168.534 172.232 166.742 172.232ZM167.822 163.856C168.414 163.856 168.95 163.728 169.43 163.472C169.91 163.2 170.286 162.816 170.558 162.32C170.846 161.824 170.99 161.224 170.99 160.52V159.824C170.99 159.136 170.838 158.56 170.534 158.096C170.246 157.616 169.862 157.256 169.382 157.016C168.902 156.76 168.39 156.632 167.846 156.632C167.206 156.632 166.638 156.784 166.142 157.088C165.646 157.392 165.262 157.816 164.99 158.36C164.718 158.904 164.582 159.544 164.582 160.28C164.582 161.032 164.718 161.68 164.99 162.224C165.278 162.752 165.662 163.16 166.142 163.448C166.638 163.72 167.198 163.856 167.822 163.856ZM177.807 172.208V168.944H180.543C180.959 168.944 181.311 168.888 181.599 168.776C181.887 168.68 182.119 168.512 182.295 168.272C182.471 168.032 182.615 167.704 182.727 167.288L185.967 153.848H189.615L185.943 168.056C185.687 169.08 185.327 169.896 184.863 170.504C184.415 171.112 183.807 171.544 183.039 171.8C182.287 172.072 181.327 172.208 180.159 172.208H177.807ZM181.935 166.712V163.712H184.719V166.712H181.935ZM180.351 166.712L176.319 153.848H180.183L183.999 166.712H180.351ZM196.822 167V153.968C196.822 152.448 197.246 151.32 198.094 150.584C198.958 149.848 200.23 149.48 201.91 149.48H203.086V152.336H201.742C201.31 152.336 200.974 152.456 200.734 152.696C200.51 152.936 200.398 153.272 200.398 153.704V167H196.822ZM195.286 157.016V154.208H203.182V157.016H195.286ZM205.582 167V149.48H209.422V167H205.582ZM204.166 152.312V149.48H209.422V152.312H204.166ZM219.289 167.456C218.137 167.456 217.113 167.28 216.217 166.928C215.321 166.56 214.561 166.064 213.937 165.44C213.329 164.816 212.865 164.104 212.545 163.304C212.225 162.488 212.065 161.632 212.065 160.736V160.184C212.065 159.272 212.225 158.408 212.545 157.592C212.881 156.76 213.361 156.032 213.985 155.408C214.625 154.784 215.393 154.296 216.289 153.944C217.185 153.576 218.185 153.392 219.289 153.392C220.425 153.392 221.433 153.576 222.313 153.944C223.209 154.296 223.969 154.784 224.593 155.408C225.217 156.032 225.697 156.76 226.033 157.592C226.369 158.408 226.537 159.272 226.537 160.184V160.736C226.537 161.632 226.377 162.488 226.057 163.304C225.737 164.104 225.265 164.816 224.641 165.44C224.033 166.064 223.281 166.56 222.385 166.928C221.489 167.28 220.457 167.456 219.289 167.456ZM219.289 164.216C220.041 164.216 220.665 164.056 221.161 163.736C221.657 163.416 222.033 162.968 222.289 162.392C222.561 161.816 222.697 161.176 222.697 160.472C222.697 159.72 222.561 159.064 222.289 158.504C222.017 157.928 221.625 157.472 221.113 157.136C220.617 156.8 220.009 156.632 219.289 156.632C218.585 156.632 217.977 156.8 217.465 157.136C216.953 157.472 216.561 157.928 216.289 158.504C216.033 159.064 215.905 159.72 215.905 160.472C215.905 161.176 216.033 161.816 216.289 162.392C216.545 162.968 216.929 163.416 217.441 163.736C217.953 164.056 218.569 164.216 219.289 164.216ZM233.676 167L236.076 154.28H240.276L243.06 167H240.084L237.228 154.376H238.932L236.364 167H233.676ZM232.764 167L232.74 163.808H235.38L235.404 167H232.764ZM231.036 167L227.508 153.848H231.276L234.564 167H231.036ZM241.068 167L241.092 163.808H243.732V167H241.068ZM242.148 167L245.076 153.848H248.604L245.436 167H242.148ZM255.768 167.408C253.896 167.408 252.432 167.024 251.376 166.256C250.32 165.488 249.76 164.408 249.696 163.016H253.104C253.168 163.432 253.416 163.808 253.848 164.144C254.296 164.464 254.96 164.624 255.84 164.624C256.512 164.624 257.064 164.512 257.496 164.288C257.944 164.048 258.168 163.712 258.168 163.28C258.168 162.896 258 162.592 257.664 162.368C257.328 162.128 256.728 161.96 255.864 161.864L254.832 161.768C253.248 161.608 252.056 161.168 251.256 160.448C250.472 159.728 250.08 158.808 250.08 157.688C250.08 156.76 250.312 155.984 250.776 155.36C251.24 154.736 251.88 154.264 252.696 153.944C253.528 153.624 254.472 153.464 255.528 153.464C257.224 153.464 258.592 153.84 259.632 154.592C260.672 155.328 261.216 156.4 261.264 157.808H257.856C257.792 157.376 257.568 157.016 257.184 156.728C256.8 156.424 256.232 156.272 255.48 156.272C254.888 156.272 254.416 156.384 254.064 156.608C253.712 156.832 253.536 157.136 253.536 157.52C253.536 157.888 253.688 158.168 253.992 158.36C254.296 158.552 254.792 158.688 255.48 158.768L256.512 158.864C258.128 159.04 259.384 159.488 260.28 160.208C261.176 160.928 261.624 161.896 261.624 163.112C261.624 163.992 261.384 164.76 260.904 165.416C260.424 166.056 259.744 166.552 258.864 166.904C257.984 167.24 256.952 167.408 255.768 167.408ZM269.199 167V149.48H273.063V167H269.199ZM267.639 152.312V149.48H273.063V152.312H267.639ZM277.166 167V153.848H281.006V167H277.166ZM275.414 156.68V153.848H281.006V156.68H275.414ZM278.654 152.552C277.934 152.552 277.398 152.368 277.046 152C276.71 151.616 276.542 151.136 276.542 150.56C276.542 149.968 276.71 149.488 277.046 149.12C277.398 148.736 277.934 148.544 278.654 148.544C279.374 148.544 279.902 148.736 280.238 149.12C280.59 149.488 280.766 149.968 280.766 150.56C280.766 151.136 280.59 151.616 280.238 152C279.902 152.368 279.374 152.552 278.654 152.552ZM293.761 167L289.609 160.856H287.761L293.113 153.848H297.145L292.105 160.376L292.153 158.504L298.081 167H293.761ZM284.497 167V149.48H288.337V167H284.497ZM305.297 167.456C304.177 167.456 303.185 167.264 302.321 166.88C301.473 166.496 300.761 165.984 300.185 165.344C299.625 164.688 299.193 163.96 298.889 163.16C298.601 162.344 298.457 161.512 298.457 160.664V160.184C298.457 159.304 298.601 158.464 298.889 157.664C299.193 156.848 299.625 156.12 300.185 155.48C300.745 154.84 301.441 154.336 302.273 153.968C303.121 153.584 304.081 153.392 305.153 153.392C306.561 153.392 307.745 153.712 308.705 154.352C309.681 154.976 310.425 155.8 310.937 156.824C311.449 157.832 311.705 158.936 311.705 160.136V161.432H300.065V159.248H309.377L308.129 160.256C308.129 159.472 308.017 158.8 307.793 158.24C307.569 157.68 307.233 157.256 306.785 156.968C306.353 156.664 305.809 156.512 305.153 156.512C304.481 156.512 303.913 156.664 303.449 156.968C302.985 157.272 302.633 157.72 302.393 158.312C302.153 158.888 302.033 159.6 302.033 160.448C302.033 161.232 302.145 161.92 302.369 162.512C302.593 163.088 302.945 163.536 303.425 163.856C303.905 164.176 304.529 164.336 305.297 164.336C306.001 164.336 306.577 164.2 307.025 163.928C307.473 163.656 307.777 163.32 307.937 162.92H311.465C311.273 163.8 310.897 164.584 310.337 165.272C309.777 165.96 309.073 166.496 308.225 166.88C307.377 167.264 306.401 167.456 305.297 167.456ZM75.4104 199V185.848H78.4584V191.512H78.2424C78.2424 190.168 78.4104 189.048 78.7464 188.152C79.0824 187.256 79.5864 186.584 80.2584 186.136C80.9304 185.672 81.7544 185.44 82.7304 185.44H82.8984C83.8904 185.44 84.7144 185.672 85.3704 186.136C86.0424 186.584 86.5464 187.256 86.8824 188.152C87.2344 189.048 87.4104 190.168 87.4104 191.512H86.4744C86.4744 190.168 86.6424 189.048 86.9784 188.152C87.3304 187.256 87.8424 186.584 88.5144 186.136C89.1864 185.672 90.0104 185.44 90.9864 185.44H91.1544C92.1464 185.44 92.9784 185.672 93.6504 186.136C94.3384 186.584 94.8584 187.256 95.2104 188.152C95.5624 189.048 95.7384 190.168 95.7384 191.512V199H91.8984V191.296C91.8984 190.576 91.7064 189.992 91.3224 189.544C90.9544 189.096 90.4264 188.872 89.7384 188.872C89.0504 188.872 88.5064 189.104 88.1064 189.568C87.7064 190.016 87.5064 190.616 87.5064 191.368V199H83.6424V191.296C83.6424 190.576 83.4504 189.992 83.0664 189.544C82.6984 189.096 82.1784 188.872 81.5064 188.872C80.8024 188.872 80.2504 189.104 79.8504 189.568C79.4504 190.016 79.2504 190.616 79.2504 191.368V199H75.4104ZM105.36 199.456C104.208 199.456 103.184 199.28 102.288 198.928C101.392 198.56 100.632 198.064 100.008 197.44C99.4 196.816 98.936 196.104 98.616 195.304C98.296 194.488 98.136 193.632 98.136 192.736V192.184C98.136 191.272 98.296 190.408 98.616 189.592C98.952 188.76 99.432 188.032 100.056 187.408C100.696 186.784 101.464 186.296 102.36 185.944C103.256 185.576 104.256 185.392 105.36 185.392C106.496 185.392 107.504 185.576 108.384 185.944C109.28 186.296 110.04 186.784 110.664 187.408C111.288 188.032 111.768 188.76 112.104 189.592C112.44 190.408 112.608 191.272 112.608 192.184V192.736C112.608 193.632 112.448 194.488 112.128 195.304C111.808 196.104 111.336 196.816 110.712 197.44C110.104 198.064 109.352 198.56 108.456 198.928C107.56 199.28 106.528 199.456 105.36 199.456ZM105.36 196.216C106.112 196.216 106.736 196.056 107.232 195.736C107.728 195.416 108.104 194.968 108.36 194.392C108.632 193.816 108.768 193.176 108.768 192.472C108.768 191.72 108.632 191.064 108.36 190.504C108.088 189.928 107.696 189.472 107.184 189.136C106.688 188.8 106.08 188.632 105.36 188.632C104.656 188.632 104.048 188.8 103.536 189.136C103.024 189.472 102.632 189.928 102.36 190.504C102.104 191.064 101.976 191.72 101.976 192.472C101.976 193.176 102.104 193.816 102.36 194.392C102.616 194.968 103 195.416 103.512 195.736C104.024 196.056 104.64 196.216 105.36 196.216ZM121.636 199.456C120.484 199.456 119.46 199.28 118.564 198.928C117.668 198.56 116.908 198.064 116.284 197.44C115.676 196.816 115.212 196.104 114.892 195.304C114.572 194.488 114.412 193.632 114.412 192.736V192.184C114.412 191.272 114.572 190.408 114.892 189.592C115.228 188.76 115.708 188.032 116.332 187.408C116.972 186.784 117.74 186.296 118.636 185.944C119.532 185.576 120.532 185.392 121.636 185.392C122.772 185.392 123.78 185.576 124.66 185.944C125.556 186.296 126.316 186.784 126.94 187.408C127.564 188.032 128.044 188.76 128.38 189.592C128.716 190.408 128.884 191.272 128.884 192.184V192.736C128.884 193.632 128.724 194.488 128.404 195.304C128.084 196.104 127.612 196.816 126.988 197.44C126.38 198.064 125.628 198.56 124.732 198.928C123.836 199.28 122.804 199.456 121.636 199.456ZM121.636 196.216C122.388 196.216 123.012 196.056 123.508 195.736C124.004 195.416 124.38 194.968 124.636 194.392C124.908 193.816 125.044 193.176 125.044 192.472C125.044 191.72 124.908 191.064 124.636 190.504C124.364 189.928 123.972 189.472 123.46 189.136C122.964 188.8 122.356 188.632 121.636 188.632C120.932 188.632 120.324 188.8 119.812 189.136C119.3 189.472 118.908 189.928 118.636 190.504C118.38 191.064 118.252 191.72 118.252 192.472C118.252 193.176 118.38 193.816 118.636 194.392C118.892 194.968 119.276 195.416 119.788 195.736C120.3 196.056 120.916 196.216 121.636 196.216ZM131.504 199V185.848H134.552V191.488H134.336C134.336 190.144 134.504 189.024 134.84 188.128C135.192 187.232 135.72 186.56 136.424 186.112C137.128 185.664 137.984 185.44 138.992 185.44H139.16C140.696 185.44 141.864 185.944 142.664 186.952C143.48 187.944 143.888 189.456 143.888 191.488V199H140.048V191.272C140.048 190.568 139.84 189.992 139.424 189.544C139.008 189.096 138.448 188.872 137.744 188.872C137.024 188.872 136.44 189.104 135.992 189.568C135.56 190.016 135.344 190.608 135.344 191.344V199H131.504ZM147.268 199V181.48H151.132V199H147.268ZM145.708 184.312V181.48H151.132V184.312H145.708ZM155.234 199V185.848H159.074V199H155.234ZM153.482 188.68V185.848H159.074V188.68H153.482ZM156.722 184.552C156.002 184.552 155.466 184.368 155.114 184C154.778 183.616 154.61 183.136 154.61 182.56C154.61 181.968 154.778 181.488 155.114 181.12C155.466 180.736 156.002 180.544 156.722 180.544C157.442 180.544 157.97 180.736 158.306 181.12C158.658 181.488 158.834 181.968 158.834 182.56C158.834 183.136 158.658 183.616 158.306 184C157.97 184.368 157.442 184.552 156.722 184.552ZM167.75 204.232C167.11 204.232 166.454 204.208 165.782 204.16C165.11 204.112 164.494 204.048 163.934 203.968V200.728C164.494 200.808 165.11 200.872 165.782 200.92C166.47 200.984 167.094 201.016 167.654 201.016C168.694 201.016 169.534 200.896 170.174 200.656C170.83 200.416 171.31 200.048 171.614 199.552C171.918 199.072 172.07 198.448 172.07 197.68V195.064L172.766 193.528C172.734 194.696 172.502 195.696 172.07 196.528C171.654 197.36 171.07 198 170.318 198.448C169.566 198.88 168.67 199.096 167.63 199.096C166.734 199.096 165.918 198.936 165.182 198.616C164.462 198.28 163.846 197.816 163.334 197.224C162.822 196.632 162.43 195.944 162.158 195.16C161.886 194.36 161.75 193.496 161.75 192.568V192.016C161.75 191.088 161.894 190.224 162.182 189.424C162.47 188.624 162.886 187.928 163.43 187.336C163.974 186.744 164.622 186.288 165.374 185.968C166.126 185.632 166.958 185.464 167.87 185.464C168.926 185.464 169.838 185.696 170.606 186.16C171.39 186.624 172.006 187.304 172.454 188.2C172.902 189.096 173.142 190.176 173.174 191.44L172.646 191.584V185.848H175.694V197.44C175.694 199.056 175.406 200.36 174.83 201.352C174.254 202.344 173.374 203.072 172.19 203.536C171.022 204 169.542 204.232 167.75 204.232ZM168.83 195.856C169.422 195.856 169.958 195.728 170.438 195.472C170.918 195.2 171.294 194.816 171.566 194.32C171.854 193.824 171.998 193.224 171.998 192.52V191.824C171.998 191.136 171.846 190.56 171.542 190.096C171.254 189.616 170.87 189.256 170.39 189.016C169.91 188.76 169.398 188.632 168.854 188.632C168.214 188.632 167.646 188.784 167.15 189.088C166.654 189.392 166.27 189.816 165.998 190.36C165.726 190.904 165.59 191.544 165.59 192.28C165.59 193.032 165.726 193.68 165.998 194.224C166.286 194.752 166.67 195.16 167.15 195.448C167.646 195.72 168.206 195.856 168.83 195.856ZM178.959 199V181.48H182.799V191.584H182.223C182.223 190.256 182.391 189.136 182.727 188.224C183.063 187.312 183.559 186.624 184.215 186.16C184.871 185.68 185.695 185.44 186.687 185.44H186.855C188.311 185.44 189.423 185.96 190.191 187C190.959 188.024 191.343 189.528 191.343 191.512V199H187.503V191.272C187.503 190.552 187.287 189.976 186.855 189.544C186.439 189.096 185.887 188.872 185.199 188.872C184.479 188.872 183.895 189.104 183.447 189.568C183.015 190.032 182.799 190.648 182.799 191.416V199H178.959ZM200.531 199.168C199.203 199.168 198.131 199.008 197.315 198.688C196.499 198.352 195.899 197.8 195.515 197.032C195.147 196.248 194.963 195.192 194.963 193.864V182.296H198.539V194.008C198.539 194.632 198.699 195.112 199.019 195.448C199.355 195.768 199.827 195.928 200.435 195.928H202.379V199.168H200.531ZM192.971 188.656V185.848H202.379V188.656H192.971ZM208.561 193.696V190.744H229.633V193.696H208.561ZM242.641 199.456C241.505 199.456 240.513 199.272 239.665 198.904C238.833 198.52 238.137 198.008 237.577 197.368C237.017 196.728 236.601 196.008 236.329 195.208C236.057 194.392 235.921 193.552 235.921 192.688V192.232C235.921 191.336 236.065 190.48 236.353 189.664C236.641 188.832 237.065 188.096 237.625 187.456C238.185 186.816 238.881 186.312 239.713 185.944C240.561 185.576 241.529 185.392 242.617 185.392C243.801 185.392 244.849 185.624 245.761 186.088C246.673 186.536 247.401 187.168 247.945 187.984C248.489 188.8 248.793 189.736 248.857 190.792H245.089C245.025 190.2 244.785 189.704 244.369 189.304C243.969 188.888 243.385 188.68 242.617 188.68C241.977 188.68 241.441 188.84 241.009 189.16C240.593 189.48 240.281 189.92 240.073 190.48C239.865 191.04 239.761 191.704 239.761 192.472C239.761 193.176 239.857 193.816 240.049 194.392C240.241 194.952 240.545 195.392 240.961 195.712C241.393 196.016 241.953 196.168 242.641 196.168C243.153 196.168 243.585 196.08 243.937 195.904C244.305 195.712 244.593 195.456 244.801 195.136C245.025 194.8 245.161 194.416 245.209 193.984H248.953C248.905 195.072 248.601 196.032 248.041 196.864C247.481 197.68 246.737 198.32 245.809 198.784C244.881 199.232 243.825 199.456 242.641 199.456ZM259.293 199V195.112H258.645V190.888C258.645 190.216 258.485 189.712 258.165 189.376C257.845 189.04 257.333 188.872 256.629 188.872C256.277 188.872 255.813 188.88 255.237 188.896C254.661 188.912 254.069 188.936 253.461 188.968C252.853 189 252.301 189.032 251.805 189.064V185.824C252.173 185.792 252.605 185.76 253.101 185.728C253.597 185.696 254.109 185.672 254.637 185.656C255.165 185.64 255.661 185.632 256.125 185.632C257.469 185.632 258.597 185.824 259.509 186.208C260.437 186.592 261.141 187.176 261.621 187.96C262.101 188.728 262.341 189.72 262.341 190.936V199H259.293ZM255.093 199.336C254.149 199.336 253.317 199.168 252.597 198.832C251.893 198.496 251.341 198.016 250.941 197.392C250.541 196.752 250.341 195.992 250.341 195.112C250.341 194.152 250.589 193.368 251.085 192.76C251.581 192.136 252.277 191.68 253.173 191.392C254.069 191.088 255.101 190.936 256.269 190.936H259.077V193.072H256.245C255.573 193.072 255.053 193.24 254.685 193.576C254.333 193.896 254.157 194.336 254.157 194.896C254.157 195.424 254.333 195.856 254.685 196.192C255.053 196.512 255.573 196.672 256.245 196.672C256.677 196.672 257.061 196.6 257.397 196.456C257.749 196.296 258.037 196.032 258.261 195.664C258.485 195.296 258.613 194.784 258.645 194.128L259.557 195.088C259.477 196 259.253 196.768 258.885 197.392C258.533 198.016 258.037 198.496 257.397 198.832C256.773 199.168 256.005 199.336 255.093 199.336ZM265.707 199V181.48H269.571V199H265.707ZM264.147 184.312V181.48H269.571V184.312H264.147ZM273.05 199V185.848H276.098V191.512H275.882C275.882 190.168 276.05 189.048 276.386 188.152C276.722 187.256 277.226 186.584 277.898 186.136C278.57 185.672 279.394 185.44 280.37 185.44H280.538C281.53 185.44 282.354 185.672 283.01 186.136C283.682 186.584 284.186 187.256 284.522 188.152C284.874 189.048 285.05 190.168 285.05 191.512H284.114C284.114 190.168 284.282 189.048 284.618 188.152C284.97 187.256 285.482 186.584 286.154 186.136C286.826 185.672 287.65 185.44 288.626 185.44H288.794C289.786 185.44 290.618 185.672 291.29 186.136C291.978 186.584 292.498 187.256 292.85 188.152C293.202 189.048 293.378 190.168 293.378 191.512V199H289.538V191.296C289.538 190.576 289.346 189.992 288.962 189.544C288.594 189.096 288.066 188.872 287.378 188.872C286.69 188.872 286.146 189.104 285.746 189.568C285.346 190.016 285.146 190.616 285.146 191.368V199H281.282V191.296C281.282 190.576 281.09 189.992 280.706 189.544C280.338 189.096 279.818 188.872 279.146 188.872C278.442 188.872 277.89 189.104 277.49 189.568C277.09 190.016 276.89 190.616 276.89 191.368V199H273.05ZM297.959 203.104L295.007 201.952L297.527 194.608L300.791 195.808L297.959 203.104ZM56.4756 231.408C54.6036 231.408 53.1396 231.024 52.0836 230.256C51.0276 229.488 50.4676 228.408 50.4036 227.016H53.8116C53.8756 227.432 54.1236 227.808 54.5556 228.144C55.0036 228.464 55.6676 228.624 56.5476 228.624C57.2196 228.624 57.7716 228.512 58.2036 228.288C58.6516 228.048 58.8756 227.712 58.8756 227.28C58.8756 226.896 58.7076 226.592 58.3716 226.368C58.0356 226.128 57.4356 225.96 56.5716 225.864L55.5396 225.768C53.9556 225.608 52.7636 225.168 51.9636 224.448C51.1796 223.728 50.7876 222.808 50.7876 221.688C50.7876 220.76 51.0196 219.984 51.4836 219.36C51.9476 218.736 52.5876 218.264 53.4036 217.944C54.2356 217.624 55.1796 217.464 56.2356 217.464C57.9316 217.464 59.2996 217.84 60.3396 218.592C61.3796 219.328 61.9236 220.4 61.9716 221.808H58.5636C58.4996 221.376 58.2756 221.016 57.8916 220.728C57.5076 220.424 56.9396 220.272 56.1876 220.272C55.5956 220.272 55.1236 220.384 54.7716 220.608C54.4196 220.832 54.2436 221.136 54.2436 221.52C54.2436 221.888 54.3956 222.168 54.6996 222.36C55.0036 222.552 55.4996 222.688 56.1876 222.768L57.2196 222.864C58.8356 223.04 60.0916 223.488 60.9876 224.208C61.8836 224.928 62.3316 225.896 62.3316 227.112C62.3316 227.992 62.0916 228.76 61.6116 229.416C61.1316 230.056 60.4516 230.552 59.5716 230.904C58.6916 231.24 57.6596 231.408 56.4756 231.408ZM70.7355 231.168C69.4075 231.168 68.3355 231.008 67.5195 230.688C66.7035 230.352 66.1035 229.8 65.7195 229.032C65.3515 228.248 65.1675 227.192 65.1675 225.864V214.296H68.7435V226.008C68.7435 226.632 68.9035 227.112 69.2235 227.448C69.5595 227.768 70.0315 227.928 70.6395 227.928H72.5835V231.168H70.7355ZM63.1755 220.656V217.848H72.5835V220.656H63.1755ZM81.0829 231.456C79.9629 231.456 78.9709 231.264 78.1069 230.88C77.2589 230.496 76.5469 229.984 75.9709 229.344C75.4109 228.688 74.9789 227.96 74.6749 227.16C74.3869 226.344 74.2429 225.512 74.2429 224.664V224.184C74.2429 223.304 74.3869 222.464 74.6749 221.664C74.9789 220.848 75.4109 220.12 75.9709 219.48C76.5309 218.84 77.2269 218.336 78.0589 217.968C78.9069 217.584 79.8669 217.392 80.9389 217.392C82.3469 217.392 83.5309 217.712 84.4909 218.352C85.4669 218.976 86.2109 219.8 86.7229 220.824C87.2349 221.832 87.4909 222.936 87.4909 224.136V225.432H75.8509V223.248H85.1629L83.9149 224.256C83.9149 223.472 83.8029 222.8 83.5789 222.24C83.3549 221.68 83.0189 221.256 82.5709 220.968C82.1389 220.664 81.5949 220.512 80.9389 220.512C80.2669 220.512 79.6989 220.664 79.2349 220.968C78.7709 221.272 78.4189 221.72 78.1789 222.312C77.9389 222.888 77.8189 223.6 77.8189 224.448C77.8189 225.232 77.9309 225.92 78.1549 226.512C78.3789 227.088 78.7309 227.536 79.2109 227.856C79.6909 228.176 80.3149 228.336 81.0829 228.336C81.7869 228.336 82.3629 228.2 82.8109 227.928C83.2589 227.656 83.5629 227.32 83.7229 226.92H87.2509C87.0589 227.8 86.6829 228.584 86.1229 229.272C85.5629 229.96 84.8589 230.496 84.0109 230.88C83.1629 231.264 82.1869 231.456 81.0829 231.456ZM97.9194 231V227.112H97.2714V222.888C97.2714 222.216 97.1114 221.712 96.7914 221.376C96.4714 221.04 95.9594 220.872 95.2554 220.872C94.9034 220.872 94.4394 220.88 93.8634 220.896C93.2874 220.912 92.6954 220.936 92.0874 220.968C91.4794 221 90.9274 221.032 90.4314 221.064V217.824C90.7994 217.792 91.2314 217.76 91.7274 217.728C92.2234 217.696 92.7354 217.672 93.2634 217.656C93.7914 217.64 94.2874 217.632 94.7514 217.632C96.0954 217.632 97.2234 217.824 98.1354 218.208C99.0634 218.592 99.7674 219.176 100.247 219.96C100.727 220.728 100.967 221.72 100.967 222.936V231H97.9194ZM93.7194 231.336C92.7754 231.336 91.9434 231.168 91.2234 230.832C90.5194 230.496 89.9674 230.016 89.5674 229.392C89.1674 228.752 88.9674 227.992 88.9674 227.112C88.9674 226.152 89.2154 225.368 89.7114 224.76C90.2074 224.136 90.9034 223.68 91.7994 223.392C92.6954 223.088 93.7274 222.936 94.8954 222.936H97.7034V225.072H94.8714C94.1994 225.072 93.6794 225.24 93.3114 225.576C92.9594 225.896 92.7834 226.336 92.7834 226.896C92.7834 227.424 92.9594 227.856 93.3114 228.192C93.6794 228.512 94.1994 228.672 94.8714 228.672C95.3034 228.672 95.6874 228.6 96.0234 228.456C96.3754 228.296 96.6634 228.032 96.8874 227.664C97.1114 227.296 97.2394 226.784 97.2714 226.128L98.1834 227.088C98.1034 228 97.8794 228.768 97.5114 229.392C97.1594 230.016 96.6634 230.496 96.0234 230.832C95.3994 231.168 94.6314 231.336 93.7194 231.336ZM109.589 231.432C108.661 231.432 107.813 231.264 107.045 230.928C106.293 230.592 105.637 230.128 105.077 229.536C104.517 228.928 104.085 228.216 103.781 227.4C103.493 226.584 103.349 225.704 103.349 224.76V224.208C103.349 223.264 103.485 222.384 103.757 221.568C104.045 220.752 104.453 220.04 104.981 219.432C105.525 218.808 106.173 218.328 106.925 217.992C107.677 217.64 108.517 217.464 109.445 217.464C110.501 217.464 111.413 217.696 112.181 218.16C112.949 218.608 113.549 219.28 113.981 220.176C114.413 221.056 114.653 222.144 114.701 223.44L113.693 222.504V213.48H117.557V231H114.509V225.552H115.037C114.989 226.8 114.725 227.864 114.245 228.744C113.781 229.624 113.149 230.296 112.349 230.76C111.549 231.208 110.629 231.432 109.589 231.432ZM110.549 228.216C111.141 228.216 111.677 228.088 112.157 227.832C112.653 227.56 113.045 227.168 113.333 226.656C113.637 226.144 113.789 225.528 113.789 224.808V223.92C113.789 223.216 113.637 222.624 113.333 222.144C113.029 221.664 112.629 221.296 112.133 221.04C111.637 220.784 111.101 220.656 110.525 220.656C109.885 220.656 109.309 220.824 108.797 221.16C108.301 221.48 107.909 221.928 107.621 222.504C107.333 223.064 107.189 223.72 107.189 224.472C107.189 225.24 107.333 225.904 107.621 226.464C107.909 227.024 108.309 227.456 108.821 227.76C109.333 228.064 109.909 228.216 110.549 228.216ZM120.836 236.208V232.944H123.572C123.988 232.944 124.34 232.888 124.628 232.776C124.916 232.68 125.148 232.512 125.324 232.272C125.5 232.032 125.644 231.704 125.756 231.288L128.996 217.848H132.644L128.972 232.056C128.716 233.08 128.356 233.896 127.892 234.504C127.444 235.112 126.836 235.544 126.068 235.8C125.316 236.072 124.356 236.208 123.188 236.208H120.836ZM124.964 230.712V227.712H127.748V230.712H124.964ZM123.38 230.712L119.348 217.848H123.212L127.028 230.712H123.38ZM135.109 235.104L132.157 233.952L134.677 226.608L137.941 227.808L135.109 235.104ZM153.166 231V227.112H152.518V222.888C152.518 222.216 152.358 221.712 152.038 221.376C151.718 221.04 151.206 220.872 150.502 220.872C150.15 220.872 149.686 220.88 149.11 220.896C148.534 220.912 147.942 220.936 147.334 220.968C146.726 221 146.174 221.032 145.678 221.064V217.824C146.046 217.792 146.478 217.76 146.974 217.728C147.47 217.696 147.982 217.672 148.51 217.656C149.038 217.64 149.534 217.632 149.998 217.632C151.342 217.632 152.47 217.824 153.382 218.208C154.31 218.592 155.014 219.176 155.494 219.96C155.974 220.728 156.214 221.72 156.214 222.936V231H153.166ZM148.966 231.336C148.022 231.336 147.19 231.168 146.47 230.832C145.766 230.496 145.214 230.016 144.814 229.392C144.414 228.752 144.214 227.992 144.214 227.112C144.214 226.152 144.462 225.368 144.958 224.76C145.454 224.136 146.15 223.68 147.046 223.392C147.942 223.088 148.974 222.936 150.142 222.936H152.95V225.072H150.118C149.446 225.072 148.926 225.24 148.558 225.576C148.206 225.896 148.03 226.336 148.03 226.896C148.03 227.424 148.206 227.856 148.558 228.192C148.926 228.512 149.446 228.672 150.118 228.672C150.55 228.672 150.934 228.6 151.27 228.456C151.622 228.296 151.91 228.032 152.134 227.664C152.358 227.296 152.486 226.784 152.518 226.128L153.43 227.088C153.35 228 153.126 228.768 152.758 229.392C152.406 230.016 151.91 230.496 151.27 230.832C150.646 231.168 149.878 231.336 148.966 231.336ZM159.412 231V217.848H162.46V223.488H162.244C162.244 222.144 162.412 221.024 162.748 220.128C163.1 219.232 163.628 218.56 164.332 218.112C165.036 217.664 165.892 217.44 166.9 217.44H167.068C168.604 217.44 169.772 217.944 170.572 218.952C171.388 219.944 171.796 221.456 171.796 223.488V231H167.956V223.272C167.956 222.568 167.748 221.992 167.332 221.544C166.916 221.096 166.356 220.872 165.652 220.872C164.932 220.872 164.348 221.104 163.9 221.568C163.468 222.016 163.252 222.608 163.252 223.344V231H159.412ZM180.433 231.432C179.505 231.432 178.657 231.264 177.889 230.928C177.137 230.592 176.481 230.128 175.921 229.536C175.361 228.928 174.929 228.216 174.625 227.4C174.337 226.584 174.193 225.704 174.193 224.76V224.208C174.193 223.264 174.329 222.384 174.601 221.568C174.889 220.752 175.297 220.04 175.825 219.432C176.369 218.808 177.017 218.328 177.769 217.992C178.521 217.64 179.361 217.464 180.289 217.464C181.345 217.464 182.257 217.696 183.025 218.16C183.793 218.608 184.393 219.28 184.825 220.176C185.257 221.056 185.497 222.144 185.545 223.44L184.537 222.504V213.48H188.401V231H185.353V225.552H185.881C185.833 226.8 185.569 227.864 185.089 228.744C184.625 229.624 183.993 230.296 183.193 230.76C182.393 231.208 181.473 231.432 180.433 231.432ZM181.393 228.216C181.985 228.216 182.521 228.088 183.001 227.832C183.497 227.56 183.889 227.168 184.177 226.656C184.481 226.144 184.633 225.528 184.633 224.808V223.92C184.633 223.216 184.481 222.624 184.177 222.144C183.873 221.664 183.473 221.296 182.977 221.04C182.481 220.784 181.945 220.656 181.369 220.656C180.729 220.656 180.153 220.824 179.641 221.16C179.145 221.48 178.753 221.928 178.465 222.504C178.177 223.064 178.033 223.72 178.033 224.472C178.033 225.24 178.177 225.904 178.465 226.464C178.753 227.024 179.153 227.456 179.665 227.76C180.177 228.064 180.753 228.216 181.393 228.216ZM196.803 235.8V217.848H199.851V223.536L199.443 223.512C199.507 222.2 199.779 221.096 200.259 220.2C200.739 219.288 201.387 218.608 202.203 218.16C203.019 217.696 203.939 217.464 204.963 217.464C205.875 217.464 206.699 217.632 207.435 217.968C208.187 218.304 208.827 218.776 209.355 219.384C209.899 219.976 210.307 220.68 210.579 221.496C210.867 222.296 211.011 223.176 211.011 224.136V224.688C211.011 225.632 210.875 226.52 210.603 227.352C210.331 228.168 209.931 228.88 209.403 229.488C208.891 230.096 208.259 230.576 207.507 230.928C206.771 231.264 205.923 231.432 204.963 231.432C203.971 231.432 203.075 231.232 202.275 230.832C201.491 230.416 200.859 229.792 200.379 228.96C199.899 228.112 199.635 227.04 199.587 225.744L200.643 227.184V235.8H196.803ZM203.883 228.216C204.539 228.216 205.107 228.056 205.587 227.736C206.083 227.416 206.467 226.968 206.739 226.392C207.011 225.816 207.147 225.152 207.147 224.4C207.147 223.648 207.011 222.992 206.739 222.432C206.467 221.872 206.091 221.44 205.611 221.136C205.131 220.816 204.555 220.656 203.883 220.656C203.307 220.656 202.763 220.792 202.251 221.064C201.739 221.336 201.323 221.728 201.003 222.24C200.699 222.736 200.547 223.344 200.547 224.064V224.952C200.547 225.64 200.707 226.232 201.027 226.728C201.363 227.208 201.787 227.576 202.299 227.832C202.811 228.088 203.339 228.216 203.883 228.216ZM220.026 231.456C218.874 231.456 217.85 231.28 216.954 230.928C216.058 230.56 215.298 230.064 214.674 229.44C214.066 228.816 213.602 228.104 213.282 227.304C212.962 226.488 212.802 225.632 212.802 224.736V224.184C212.802 223.272 212.962 222.408 213.282 221.592C213.618 220.76 214.098 220.032 214.722 219.408C215.362 218.784 216.13 218.296 217.026 217.944C217.922 217.576 218.922 217.392 220.026 217.392C221.162 217.392 222.17 217.576 223.05 217.944C223.946 218.296 224.706 218.784 225.33 219.408C225.954 220.032 226.434 220.76 226.77 221.592C227.106 222.408 227.274 223.272 227.274 224.184V224.736C227.274 225.632 227.114 226.488 226.794 227.304C226.474 228.104 226.002 228.816 225.378 229.44C224.77 230.064 224.018 230.56 223.122 230.928C222.226 231.28 221.194 231.456 220.026 231.456ZM220.026 228.216C220.778 228.216 221.402 228.056 221.898 227.736C222.394 227.416 222.77 226.968 223.026 226.392C223.298 225.816 223.434 225.176 223.434 224.472C223.434 223.72 223.298 223.064 223.026 222.504C222.754 221.928 222.362 221.472 221.85 221.136C221.354 220.8 220.746 220.632 220.026 220.632C219.322 220.632 218.714 220.8 218.202 221.136C217.69 221.472 217.298 221.928 217.026 222.504C216.77 223.064 216.642 223.72 216.642 224.472C216.642 225.176 216.77 225.816 217.026 226.392C217.282 226.968 217.666 227.416 218.178 227.736C218.69 228.056 219.306 228.216 220.026 228.216ZM234.413 231L236.813 218.28H241.013L243.797 231H240.821L237.965 218.376H239.669L237.101 231H234.413ZM233.501 231L233.477 227.808H236.117L236.141 231H233.501ZM231.773 231L228.245 217.848H232.013L235.301 231H231.773ZM241.805 231L241.829 227.808H244.469V231H241.805ZM242.885 231L245.813 217.848H249.341L246.173 231H242.885ZM257.373 231.456C256.253 231.456 255.261 231.264 254.397 230.88C253.549 230.496 252.837 229.984 252.261 229.344C251.701 228.688 251.269 227.96 250.965 227.16C250.677 226.344 250.533 225.512 250.533 224.664V224.184C250.533 223.304 250.677 222.464 250.965 221.664C251.269 220.848 251.701 220.12 252.261 219.48C252.821 218.84 253.517 218.336 254.349 217.968C255.197 217.584 256.157 217.392 257.229 217.392C258.637 217.392 259.821 217.712 260.781 218.352C261.757 218.976 262.501 219.8 263.013 220.824C263.525 221.832 263.781 222.936 263.781 224.136V225.432H252.141V223.248H261.453L260.205 224.256C260.205 223.472 260.093 222.8 259.869 222.24C259.645 221.68 259.309 221.256 258.861 220.968C258.429 220.664 257.885 220.512 257.229 220.512C256.557 220.512 255.989 220.664 255.525 220.968C255.061 221.272 254.709 221.72 254.469 222.312C254.229 222.888 254.109 223.6 254.109 224.448C254.109 225.232 254.221 225.92 254.445 226.512C254.669 227.088 255.021 227.536 255.501 227.856C255.981 228.176 256.605 228.336 257.373 228.336C258.077 228.336 258.653 228.2 259.101 227.928C259.549 227.656 259.853 227.32 260.013 226.92H263.541C263.349 227.8 262.973 228.584 262.413 229.272C261.853 229.96 261.149 230.496 260.301 230.88C259.453 231.264 258.477 231.456 257.373 231.456ZM266.266 231V217.848H269.314V223.488H269.242C269.242 221.632 269.634 220.2 270.418 219.192C271.218 218.184 272.37 217.68 273.874 217.68H274.378V220.992H273.418C272.362 220.992 271.546 221.28 270.97 221.856C270.394 222.416 270.106 223.232 270.106 224.304V231H266.266ZM276.689 231V217.728C276.689 216.208 277.121 215.08 277.985 214.344C278.849 213.608 280.121 213.24 281.801 213.24H283.481V216.12H281.633C281.201 216.12 280.865 216.24 280.625 216.48C280.385 216.72 280.265 217.056 280.265 217.488V231H276.689ZM275.129 220.92V218.112H283.673V220.92H275.129ZM289.945 231.408C288.425 231.408 287.257 230.92 286.441 229.944C285.625 228.952 285.217 227.464 285.217 225.48V217.848H289.057V225.672C289.057 226.376 289.257 226.936 289.657 227.352C290.057 227.768 290.593 227.976 291.265 227.976C291.953 227.976 292.513 227.76 292.945 227.328C293.377 226.896 293.593 226.312 293.593 225.576V217.848H297.433V231H294.385V225.456H294.649C294.649 226.784 294.473 227.896 294.121 228.792C293.785 229.672 293.281 230.328 292.609 230.76C291.937 231.192 291.105 231.408 290.113 231.408H289.945ZM301.082 231V213.48H304.946V231H301.082ZM299.522 216.312V213.48H304.946V216.312H299.522ZM307.824 231V226.704H312.048V231H307.824ZM314.111 221.664V219.48H314.855C315.287 219.48 315.631 219.416 315.887 219.288C316.159 219.16 316.359 218.936 316.487 218.616C316.615 218.28 316.679 217.824 316.679 217.248V215.496L317.399 216.984C317.287 217.08 317.127 217.16 316.919 217.224C316.711 217.272 316.479 217.296 316.223 217.296C315.663 217.296 315.191 217.128 314.807 216.792C314.423 216.44 314.231 215.952 314.231 215.328C314.231 214.736 314.415 214.24 314.783 213.84C315.151 213.424 315.679 213.216 316.367 213.216C316.815 213.216 317.223 213.32 317.591 213.528C317.975 213.736 318.279 214.088 318.503 214.584C318.743 215.08 318.863 215.752 318.863 216.6V216.96C318.863 218.096 318.695 219.008 318.359 219.696C318.039 220.384 317.567 220.888 316.943 221.208C316.319 221.512 315.551 221.664 314.639 221.664H314.111ZM319.751 221.664V219.48H320.495C320.927 219.48 321.271 219.416 321.527 219.288C321.799 219.16 321.999 218.936 322.127 218.616C322.255 218.28 322.319 217.824 322.319 217.248V215.496L323.039 216.984C322.927 217.08 322.767 217.16 322.559 217.224C322.351 217.272 322.119 217.296 321.863 217.296C321.303 217.296 320.831 217.128 320.447 216.792C320.063 216.44 319.871 215.952 319.871 215.328C319.871 214.736 320.055 214.24 320.423 213.84C320.791 213.424 321.319 213.216 322.007 213.216C322.455 213.216 322.863 213.32 323.231 213.528C323.615 213.736 323.919 214.088 324.143 214.584C324.383 215.08 324.503 215.752 324.503 216.6V216.96C324.503 218.096 324.335 219.008 323.999 219.696C323.679 220.384 323.207 220.888 322.583 221.208C321.959 221.512 321.191 221.664 320.279 221.664H319.751Z" fill="#FAF9F6"/>
<rect x="20.5" y="719.5" width="39" height="39" rx="19.5" stroke="#FAF9F6"/>
<path fill-rule="evenodd" clip-rule="evenodd" d="M37.7587 728H42.2413C43.0463 728 43.7106 728 44.2518 728.044C44.8139 728.09 45.3306 728.189 45.816 728.436C46.5686 728.819 47.1805 729.431 47.564 730.184C47.8113 730.669 47.9099 731.186 47.9558 731.748C48 732.289 48 732.954 48 733.759V748C48 748.391 47.7727 748.745 47.4179 748.909C47.0631 749.072 46.6457 749.013 46.3492 748.759L40 743.317L33.6508 748.759C33.3543 749.013 32.9369 749.072 32.5821 748.909C32.2273 748.745 32 748.391 32 748L32 733.759C32 732.954 32 732.289 32.0442 731.748C32.0901 731.186 32.1887 730.669 32.436 730.184C32.8195 729.431 33.4314 728.819 34.184 728.436C34.6694 728.189 35.1861 728.09 35.7482 728.044C36.2894 728 36.9537 728 37.7587 728ZM35.911 730.038C35.4726 730.073 35.2484 730.138 35.092 730.218C34.7157 730.41 34.4097 730.716 34.218 731.092C34.1383 731.248 34.0734 731.473 34.0376 731.911C34.0008 732.361 34 732.943 34 733.8V745.826L39.3492 741.241C39.7237 740.92 40.2763 740.92 40.6508 741.241L46 745.826V733.8C46 732.943 45.9992 732.361 45.9624 731.911C45.9266 731.473 45.8617 731.248 45.782 731.092C45.5903 730.716 45.2843 730.41 44.908 730.218C44.7516 730.138 44.5274 730.073 44.089 730.038C43.6389 730.001 43.0566 730 42.2 730H37.8C36.9434 730 36.3611 730.001 35.911 730.038Z" fill="#FAF9F6"/>
<rect x="76.5" y="719.5" width="39" height="39" rx="19.5" stroke="#FAF9F6"/>
<path d="M89.333 739V745.667C89.333 746.109 89.5086 746.533 89.8212 746.845C90.1337 747.158 90.5576 747.333 90.9997 747.333H101C101.442 747.333 101.866 747.158 102.178 746.845C102.491 746.533 102.666 746.109 102.666 745.667V739M92.6663 734L95.9997 730.667L99.333 734M95.9997 730.667V741.5" stroke="#FAF9F6" stroke-width="2" stroke-linecap="round" stroke-linejoin="round"/>
<rect x="132.5" y="719.5" width="39" height="39" rx="19.5" stroke="#FAF9F6"/>
<g clip-path="url(#clip2_1255_42482)">
<path d="M156.584 734.417H156.592M147.834 730.667H156.167C158.468 730.667 160.334 732.532 160.334 734.833V743.167C160.334 745.468 158.468 747.333 156.167 747.333H147.834C145.532 747.333 143.667 745.468 143.667 743.167V734.833C143.667 732.532 145.532 730.667 147.834 730.667ZM155.334 738.475C155.437 739.169 155.318 739.877 154.995 740.499C154.672 741.122 154.161 741.626 153.535 741.941C152.909 742.257 152.199 742.366 151.507 742.255C150.815 742.144 150.175 741.817 149.679 741.321C149.184 740.825 148.857 740.186 148.745 739.494C148.634 738.801 148.744 738.092 149.059 737.465C149.374 736.839 149.879 736.328 150.501 736.005C151.123 735.682 151.832 735.564 152.525 735.667C153.233 735.772 153.888 736.101 154.393 736.607C154.899 737.113 155.229 737.768 155.334 738.475Z" stroke="#FAF9F6" stroke-width="2" stroke-linecap="round" stroke-linejoin="round"/>
</g>
<rect x="196" y="717" width="159" height="44" rx="22" fill="#FF9A26"/>
<mask id="mask0_1255_42482" style="mask-type:luminance" maskUnits="userSpaceOnUse" x="217" y="727" width="24" height="24">
<path d="M217 727H241V751H217V727Z" fill="white"/>
</mask>
<g mask="url(#mask0_1255_42482)">
<path d="M237.438 751C237.826 751 238.141 750.685 238.141 750.297V747.484C238.141 747.096 237.826 746.781 237.438 746.781H221.969C220.804 746.781 219.859 747.726 219.859 748.891C219.859 750.056 220.804 751 221.969 751H237.438ZM221.266 748.891C221.266 748.502 221.58 748.188 221.969 748.188H236.734V749.594H221.969C221.58 749.594 221.266 749.279 221.266 748.891Z" fill="#FAF9F6"/>
<path d="M222.672 727.703V747.484C222.672 747.873 222.987 748.188 223.375 748.188C223.763 748.188 224.078 747.873 224.078 747.484V727.703C224.078 727.315 223.763 727 223.375 727C222.987 727 222.672 727.315 222.672 727.703Z" fill="#FAF9F6"/>
<path d="M233.922 727.703C233.922 729.645 235.496 731.219 237.438 731.219C237.826 731.219 238.141 730.904 238.141 730.516C238.141 730.127 237.826 729.812 237.438 729.812C236.273 729.812 235.328 728.868 235.328 727.703C235.328 727.315 235.013 727 234.625 727C234.237 727 233.922 727.315 233.922 727.703Z" fill="#FAF9F6"/>
<path d="M233.922 747.484C233.922 747.873 234.237 748.188 234.625 748.188C235.013 748.188 235.328 747.873 235.328 747.484C235.328 746.319 236.273 745.375 237.438 745.375C237.826 745.375 238.141 745.06 238.141 744.672C238.141 744.284 237.826 743.969 237.438 743.969C235.496 743.969 233.922 745.543 233.922 747.484Z" fill="#FAF9F6"/>
<path d="M230.406 742.516C230.695 742.516 230.954 742.339 231.06 742.07L232.142 739.329L234.883 738.248C235.152 738.142 235.328 737.883 235.328 737.594C235.328 737.305 235.152 737.046 234.883 736.94L232.142 735.858L231.06 733.117C230.954 732.848 230.695 732.672 230.406 732.672C230.117 732.672 229.858 732.848 229.752 733.117L228.671 735.858L225.93 736.94C225.661 737.046 225.484 737.305 225.484 737.594C225.484 737.883 225.661 738.142 225.93 738.248L228.671 739.329L229.752 742.07L229.763 742.095C229.874 742.35 230.127 742.516 230.406 742.516ZM229.867 738.529C229.796 738.348 229.652 738.204 229.471 738.133L228.104 737.594L229.471 737.055C229.652 736.983 229.796 736.84 229.867 736.658L230.406 735.291L230.945 736.658L230.952 736.675C231.026 736.849 231.166 736.985 231.342 737.055L232.709 737.594L231.342 738.133C231.16 738.204 231.017 738.348 230.945 738.529L230.406 739.896L229.867 738.529Z" fill="#FAF9F6"/>
<path d="M236.734 747.484C236.734 747.873 237.049 748.187 237.438 748.188C237.826 748.188 238.141 747.873 238.141 747.484V727.703C238.141 727.315 237.826 727 237.438 727H228.531C228.253 727 228.002 727.164 227.889 727.418L227.594 728.081L227.299 727.418C227.186 727.164 226.934 727 226.656 727H221.969C220.804 727 219.859 727.944 219.859 729.109V748.891C219.859 749.279 220.174 749.594 220.562 749.594C220.951 749.594 221.266 749.279 221.266 748.891V729.109C221.266 728.721 221.58 728.406 221.969 728.406H226.199L226.951 730.098L226.962 730.122C227.08 730.362 227.325 730.516 227.594 730.516C227.872 730.516 228.123 730.352 228.236 730.098L228.988 728.406H236.734V747.484Z" fill="#FAF9F6"/>
</g>
<path d="M254.553 744.304C253.518 744.304 252.644 744.139 251.929 743.808C251.225 743.477 250.686 743.024 250.313 742.448C249.94 741.861 249.753 741.2 249.753 740.464H251.977C251.977 740.773 252.062 741.077 252.233 741.376C252.404 741.664 252.676 741.899 253.049 742.08C253.433 742.261 253.934 742.352 254.553 742.352C255.108 742.352 255.572 742.272 255.945 742.112C256.318 741.952 256.596 741.744 256.777 741.488C256.958 741.221 257.049 740.923 257.049 740.592C257.049 740.176 256.873 739.845 256.521 739.6C256.169 739.344 255.625 739.184 254.889 739.12L253.865 739.04C252.745 738.944 251.849 738.597 251.177 738C250.516 737.392 250.185 736.592 250.185 735.6C250.185 734.853 250.361 734.213 250.713 733.68C251.065 733.136 251.556 732.72 252.185 732.432C252.825 732.133 253.572 731.984 254.425 731.984C255.31 731.984 256.073 732.139 256.713 732.448C257.353 732.757 257.849 733.195 258.201 733.76C258.553 734.315 258.729 734.971 258.729 735.728H256.505C256.505 735.408 256.425 735.115 256.265 734.848C256.116 734.571 255.886 734.352 255.577 734.192C255.278 734.021 254.894 733.936 254.425 733.936C253.977 733.936 253.604 734.011 253.305 734.16C253.006 734.309 252.782 734.512 252.633 734.768C252.484 735.024 252.409 735.301 252.409 735.6C252.409 735.963 252.542 736.283 252.809 736.56C253.076 736.827 253.497 736.981 254.073 737.024L255.097 737.12C255.929 737.184 256.66 737.36 257.289 737.648C257.918 737.936 258.404 738.325 258.745 738.816C259.097 739.307 259.273 739.899 259.273 740.592C259.273 741.328 259.081 741.979 258.697 742.544C258.313 743.099 257.764 743.531 257.049 743.84C256.345 744.149 255.513 744.304 254.553 744.304ZM261.214 747.2V735.312H262.974V739.056L262.702 739.04C262.745 738.155 262.926 737.413 263.246 736.816C263.577 736.219 264.014 735.776 264.558 735.488C265.102 735.189 265.71 735.04 266.382 735.04C267.001 735.04 267.556 735.152 268.046 735.376C268.548 735.6 268.974 735.915 269.326 736.32C269.689 736.725 269.966 737.2 270.158 737.744C270.35 738.277 270.446 738.853 270.446 739.472V739.808C270.446 740.437 270.35 741.024 270.158 741.568C269.977 742.101 269.705 742.576 269.342 742.992C268.99 743.397 268.564 743.717 268.062 743.952C267.561 744.176 267.001 744.288 266.382 744.288C265.732 744.288 265.134 744.155 264.59 743.888C264.057 743.611 263.625 743.189 263.294 742.624C262.964 742.048 262.777 741.307 262.734 740.4L263.438 741.472V747.2H261.214ZM265.822 742.416C266.302 742.416 266.718 742.299 267.07 742.064C267.433 741.829 267.716 741.504 267.918 741.088C268.121 740.661 268.222 740.181 268.222 739.648C268.222 739.093 268.121 738.613 267.918 738.208C267.716 737.803 267.433 737.488 267.07 737.264C266.718 737.029 266.302 736.912 265.822 736.912C265.385 736.912 264.98 737.008 264.606 737.2C264.244 737.392 263.945 737.675 263.71 738.048C263.486 738.421 263.374 738.869 263.374 739.392V740.032C263.374 740.533 263.492 740.96 263.726 741.312C263.961 741.664 264.265 741.936 264.638 742.128C265.012 742.32 265.406 742.416 265.822 742.416ZM276.33 744.304C275.583 744.304 274.927 744.176 274.362 743.92C273.807 743.664 273.343 743.323 272.97 742.896C272.607 742.459 272.33 741.973 272.138 741.44C271.956 740.907 271.866 740.363 271.866 739.808V739.504C271.866 738.928 271.956 738.373 272.138 737.84C272.33 737.296 272.607 736.816 272.97 736.4C273.343 735.973 273.802 735.637 274.346 735.392C274.89 735.136 275.519 735.008 276.234 735.008C277.172 735.008 277.956 735.216 278.586 735.632C279.226 736.037 279.706 736.576 280.026 737.248C280.346 737.909 280.506 738.624 280.506 739.392V740.192H272.81V738.832H279.114L278.426 739.504C278.426 738.949 278.346 738.475 278.186 738.08C278.026 737.685 277.78 737.381 277.45 737.168C277.13 736.955 276.724 736.848 276.234 736.848C275.743 736.848 275.327 736.96 274.986 737.184C274.644 737.408 274.383 737.733 274.202 738.16C274.031 738.576 273.946 739.077 273.946 739.664C273.946 740.208 274.031 740.693 274.202 741.12C274.372 741.536 274.634 741.867 274.986 742.112C275.338 742.347 275.786 742.464 276.33 742.464C276.874 742.464 277.316 742.357 277.658 742.144C277.999 741.92 278.218 741.648 278.314 741.328H280.362C280.234 741.925 279.988 742.448 279.626 742.896C279.263 743.344 278.799 743.691 278.234 743.936C277.679 744.181 277.044 744.304 276.33 744.304ZM282.516 744V732.32H284.74V744H282.516ZM281.428 733.984V732.32H284.74V733.984H281.428ZM287.431 744V732.32H289.655V744H287.431ZM286.343 733.984V732.32H289.655V733.984H286.343ZM297.338 744.288C296.623 744.288 295.994 744.139 295.45 743.84C294.906 743.531 294.479 743.083 294.17 742.496C293.86 741.909 293.69 741.2 293.658 740.368H293.994V744H292.234V732.32H294.458V738.16L293.866 739.072C293.908 738.176 294.084 737.429 294.394 736.832C294.714 736.235 295.14 735.787 295.674 735.488C296.207 735.189 296.81 735.04 297.482 735.04C298.079 735.04 298.623 735.152 299.114 735.376C299.604 735.6 300.026 735.915 300.378 736.32C300.73 736.715 300.996 737.179 301.178 737.712C301.37 738.245 301.466 738.827 301.466 739.456V739.792C301.466 740.421 301.37 741.008 301.178 741.552C300.986 742.096 300.708 742.576 300.346 742.992C299.983 743.397 299.546 743.717 299.034 743.952C298.532 744.176 297.967 744.288 297.338 744.288ZM296.842 742.416C297.322 742.416 297.738 742.299 298.09 742.064C298.452 741.819 298.735 741.488 298.938 741.072C299.14 740.656 299.242 740.176 299.242 739.632C299.242 739.077 299.14 738.597 298.938 738.192C298.735 737.787 298.452 737.472 298.09 737.248C297.738 737.024 297.322 736.912 296.842 736.912C296.404 736.912 295.999 737.008 295.626 737.2C295.263 737.392 294.964 737.675 294.73 738.048C294.506 738.421 294.394 738.869 294.394 739.392V740.032C294.394 740.533 294.511 740.96 294.746 741.312C294.98 741.664 295.284 741.936 295.658 742.128C296.031 742.32 296.426 742.416 296.842 742.416ZM307.637 744.304C306.869 744.304 306.192 744.181 305.605 743.936C305.019 743.691 304.523 743.36 304.117 742.944C303.712 742.517 303.403 742.037 303.189 741.504C302.987 740.971 302.885 740.416 302.885 739.84V739.504C302.885 738.907 302.992 738.341 303.205 737.808C303.429 737.264 303.744 736.784 304.149 736.368C304.565 735.941 305.067 735.611 305.653 735.376C306.24 735.131 306.901 735.008 307.637 735.008C308.373 735.008 309.035 735.131 309.621 735.376C310.208 735.611 310.704 735.941 311.109 736.368C311.525 736.784 311.84 737.264 312.053 737.808C312.267 738.341 312.373 738.907 312.373 739.504V739.84C312.373 740.416 312.267 740.971 312.053 741.504C311.851 742.037 311.547 742.517 311.141 742.944C310.736 743.36 310.24 743.691 309.653 743.936C309.067 744.181 308.395 744.304 307.637 744.304ZM307.637 742.4C308.181 742.4 308.64 742.283 309.013 742.048C309.387 741.803 309.669 741.477 309.861 741.072C310.053 740.656 310.149 740.187 310.149 739.664C310.149 739.131 310.048 738.661 309.845 738.256C309.653 737.84 309.365 737.515 308.981 737.28C308.608 737.035 308.16 736.912 307.637 736.912C307.115 736.912 306.661 737.035 306.277 737.28C305.904 737.515 305.616 737.84 305.413 738.256C305.211 738.661 305.109 739.131 305.109 739.664C305.109 740.187 305.205 740.656 305.397 741.072C305.6 741.477 305.888 741.803 306.261 742.048C306.635 742.283 307.093 742.4 307.637 742.4ZM318.537 744.304C317.769 744.304 317.091 744.181 316.505 743.936C315.918 743.691 315.422 743.36 315.017 742.944C314.611 742.517 314.302 742.037 314.089 741.504C313.886 740.971 313.785 740.416 313.785 739.84V739.504C313.785 738.907 313.891 738.341 314.105 737.808C314.329 737.264 314.643 736.784 315.049 736.368C315.465 735.941 315.966 735.611 316.553 735.376C317.139 735.131 317.801 735.008 318.537 735.008C319.273 735.008 319.934 735.131 320.521 735.376C321.107 735.611 321.603 735.941 322.009 736.368C322.425 736.784 322.739 737.264 322.953 737.808C323.166 738.341 323.273 738.907 323.273 739.504V739.84C323.273 740.416 323.166 740.971 322.953 741.504C322.75 742.037 322.446 742.517 322.041 742.944C321.635 743.36 321.139 743.691 320.553 743.936C319.966 744.181 319.294 744.304 318.537 744.304ZM318.537 742.4C319.081 742.4 319.539 742.283 319.913 742.048C320.286 741.803 320.569 741.477 320.761 741.072C320.953 740.656 321.049 740.187 321.049 739.664C321.049 739.131 320.947 738.661 320.745 738.256C320.553 737.84 320.265 737.515 319.881 737.28C319.507 737.035 319.059 736.912 318.537 736.912C318.014 736.912 317.561 737.035 317.177 737.28C316.803 737.515 316.515 737.84 316.313 738.256C316.11 738.661 316.009 739.131 316.009 739.664C316.009 740.187 316.105 740.656 316.297 741.072C316.499 741.477 316.787 741.803 317.161 742.048C317.534 742.283 317.993 742.4 318.537 742.4ZM331.34 744L328.428 739.936H327.132L330.828 735.312H333.148L329.74 739.584L329.788 738.464L333.852 744H331.34ZM325.26 744V732.32H327.484V744H325.26Z" fill="#FAF9F6"/>
</g>
<defs>
<radialGradient id="paint0_radial_1255_42482" cx="0" cy="0" r="1" gradientTransform="matrix(263.8 -289.143 369.579 206.386 188.5 453.5)" gradientUnits="userSpaceOnUse">
<stop offset="0.153846" stop-color="#815DEF"/>
<stop offset="0.966346" stop-color="#8361EF" stop-opacity="0"/>
</radialGradient>
<linearGradient id="paint1_linear_1255_42482" x1="188" y1="812" x2="188" y2="665.029" gradientUnits="userSpaceOnUse">
<stop stop-color="#3E2C4D"/>
<stop offset="0.870192" stop-color="#3E2C4D" stop-opacity="0"/>
</linearGradient>
<clipPath id="clip0_1255_42482">
<rect width="375" height="812" fill="white"/>
</clipPath>
<clipPath id="clip1_1255_42482">
<rect width="22" height="22" fill="white" transform="translate(334 63)"/>
</clipPath>
<clipPath id="clip2_1255_42482">
<rect width="20" height="20" fill="white" transform="translate(142 729)"/>
</clipPath>
</defs>
</svg>
