<svg width="94" height="156" viewBox="0 0 94 156" fill="none" xmlns="http://www.w3.org/2000/svg">
<rect x="0.5" y="0.5" width="93" height="155" rx="7.5" fill="#FAF9F6" stroke="#815DEF"/>
<mask id="mask0_1255_44641" style="mask-type:alpha" maskUnits="userSpaceOnUse" x="0" y="0" width="94" height="115">
<path d="M8 0.5H86C90.1421 0.5 93.5 3.85786 93.5 8V114.5H0.5V8C0.500001 3.85787 3.85787 0.5 8 0.5Z" fill="#FAF9F6" stroke="#815DEF"/>
</mask>
<g mask="url(#mask0_1255_44641)">
<path d="M83.4251 22.9495L82.1817 23.6247L81.5017 24.8635L80.8265 23.6247L79.583 22.9495L80.8265 22.2742L81.5017 21.04L82.1817 22.2742L83.4251 22.9495Z" fill="#FF9A26"/>
<path d="M67.689 83.2732L66.4502 83.9485L65.7703 85.1826L65.0904 83.9485L63.8516 83.2732L65.0904 82.5979L65.7703 81.3638L66.4502 82.5979L67.689 83.2732Z" fill="#FF9A26"/>
<path d="M62.221 51.791L60.9776 52.4663L60.2976 53.6958L59.6224 52.4663L58.3789 51.791L59.6224 51.1157L60.2976 49.8816L60.9776 51.1157L62.221 51.791Z" fill="#FF9A26"/>
<path d="M35.5035 51.791L34.2647 52.4663L33.5848 53.6958L32.9048 52.4663L31.666 51.791L32.9048 51.1157L33.5848 49.8816L34.2647 51.1157L35.5035 51.791Z" fill="#FF9A26"/>
<path d="M30.0357 83.2732L28.7923 83.9485L28.117 85.1826L27.437 83.9485L26.1982 83.2732L27.437 82.5979L28.117 81.3638L28.7923 82.5979L30.0357 83.2732Z" fill="#FF9A26"/>
<path d="M26.8736 47.9675L25.6348 48.6428L24.9549 49.8816L24.2796 48.6428L23.0361 47.9675L24.2796 47.2969L24.9549 46.0627L25.6348 47.2969L26.8736 47.9675Z" fill="#FF9A26"/>
<path d="M15.9947 69.1482L14.7559 69.8235L14.076 71.0576L13.4007 69.8235L12.1572 69.1482L13.4007 68.4729L14.076 67.2388L14.7559 68.4729L15.9947 69.1482Z" fill="#FF9A26"/>
<path d="M81.7249 69.1482L80.4861 69.8235L79.8015 71.0576L79.1263 69.8235L77.8828 69.1482L79.1263 68.4729L79.8015 67.2388L80.4861 68.4729L81.7249 69.1482Z" fill="#FF9A26"/>
<path d="M28.2381 14.7576L26.2262 15.8521L25.1225 17.8593L24.0234 15.8521L22.0068 14.7576L24.0234 13.6632L25.1225 11.6606L26.2262 13.6632L28.2381 14.7576Z" fill="#EFBC30"/>
<path d="M71.8755 14.7576L69.859 15.8521L68.7599 17.8593L67.6608 15.8521L65.6396 14.7576L67.6608 13.6632L68.7599 11.6606L69.859 13.6632L71.8755 14.7576Z" fill="#EFBC30"/>
<path d="M14.2994 22.9495L13.0606 23.6247L12.376 24.8635L11.7007 23.6247L10.4619 22.9495L11.7007 22.2742L12.376 21.04L13.0606 22.2742L14.2994 22.9495Z" fill="#EFBC30"/>
<path d="M70.8463 47.9675L69.6075 48.6428L68.9275 49.8816L68.2522 48.6428L67.0088 47.9675L68.2522 47.2969L68.9275 46.0627L69.6075 47.2969L70.8463 47.9675Z" fill="#EFBC30"/>
<path d="M23.2742 62.6141L21.2623 63.7085L20.1586 65.7111L19.0595 63.7085L17.043 62.6141L19.0595 61.515L20.1586 59.5171L21.2623 61.515L23.2742 62.6141Z" fill="#EFBC30"/>
<path d="M88.5062 103.83C89.6426 103.83 90.5647 104.747 90.5647 105.883C90.5647 107.02 89.6426 107.933 88.5062 107.933C88.4783 107.933 88.441 107.933 88.4131 107.933V103.839C88.441 103.839 88.4783 103.839 88.5062 103.839V103.83Z" fill="#EFBC30"/>
<path d="M88.4133 114.318V131.554C88.4133 132.317 87.7893 132.937 87.0209 132.937H6.5458C5.77737 132.937 5.15332 132.317 5.15332 131.554V114.318H88.4087H88.4133Z" fill="#432D69"/>
<path d="M88.413 107.928V114.317H50.2852V114.215L66.0681 96.4805C82.3494 93.0901 87.8728 85.988 88.4084 85.2476V103.834C87.3093 103.881 86.4384 104.78 86.4384 105.883C86.4384 106.987 87.3093 107.881 88.4084 107.928H88.413ZM80.0162 105.762C82.559 105.744 84.0912 104.053 84.0912 104.053C82.7174 102.861 81.3016 102.465 80.0162 102.46C81.7999 100.658 81.6835 98.39 81.6835 98.39C79.8625 98.5157 78.5818 99.2329 77.669 100.127C77.6504 97.5982 75.9506 96.08 75.9506 96.08C74.7444 97.4539 74.3485 98.8696 74.3485 100.15C72.5695 98.6414 70.3387 98.3853 70.3387 98.3853C70.6181 100.271 71.2655 101.575 72.0432 102.474C69.7054 102.651 67.931 104.048 67.931 104.048C69.4678 105.185 70.8557 105.65 72.0432 105.739C70.511 107.509 70.2549 109.749 70.2549 109.749C72.1503 109.469 73.459 108.822 74.3671 108.049C74.5441 110.377 75.9506 112.142 75.9506 112.142C77.0869 110.624 77.5526 109.255 77.6504 108.077C79.4667 109.87 81.7626 109.749 81.7626 109.749C81.6369 107.937 80.9197 106.661 80.0162 105.758V105.762Z" fill="#432D69"/>
<path d="M88.4133 103.834V107.928C87.3142 107.882 86.4434 106.983 86.4434 105.884C86.4434 104.785 87.3142 103.881 88.4133 103.834Z" fill="#F9CF81"/>
<path d="M49.6707 34.0613L48.0687 30.8153L48.0035 30.6849L52.1856 22.2043H52.7305C53.0565 22.2043 53.3499 22.0739 53.5641 21.8643C53.7737 21.6501 53.9087 21.3567 53.9087 21.0307C53.9087 20.3834 53.3825 19.8571 52.7351 19.8571H40.8408C40.5148 19.8571 40.2168 19.9875 40.0026 20.1971C39.793 20.4113 39.6579 20.7047 39.6579 21.0307C39.6579 21.678 40.1842 22.2043 40.8362 22.2043H41.1389L45.7029 30.8526L44.1427 33.6981L41.1436 39.1702H40.8408C40.5148 39.1702 40.2168 39.3006 40.0026 39.5148C39.793 39.7244 39.6579 40.0178 39.6579 40.3438C39.6579 40.9865 40.1842 41.5127 40.8362 41.5127H52.7305C53.0565 41.5127 53.3499 41.3823 53.5641 41.1728C53.7737 40.9585 53.9087 40.6698 53.9087 40.3438C53.9087 39.6965 53.3825 39.1702 52.7351 39.1702H52.1903L49.6707 34.0613ZM26.8136 5.73206C31.3496 4.73544 36.7472 4.03221 43.1368 3.85059H49.9362C56.1814 4.03221 61.4952 4.7075 65.9986 5.66686C82.1635 9.0945 87.8685 16.1174 88.4087 16.83V85.2524C87.8731 85.9929 82.3498 93.0997 66.0685 96.4854C61.6768 97.3982 56.4981 98.0455 50.4252 98.2225H43.6258C36.9708 98.0316 31.3683 97.2771 26.6832 96.2153C11.1889 92.7224 5.67958 85.9463 5.15332 85.2478V16.8207C5.67958 16.0895 11.0586 9.17833 26.8136 5.73206ZM82.1821 23.6247L83.4256 22.9494L82.1821 22.2742L81.5022 21.04L80.8222 22.2742L79.5834 22.9494L80.8222 23.6247L81.5022 24.8635L82.1821 23.6247ZM80.6499 60.9096C80.7943 60.5231 83.5513 52.8156 82.3358 44.1114C81.111 35.3141 74.2697 27.9698 74.0508 27.737L75.8112 25.9719L73.4221 23.6108L71.9597 25.0731L69.9385 23.2289L66.5062 26.8009L61.3182 32.1938L63.0926 33.9589L46.7833 50.3007L30.4787 33.9589L32.2578 32.1938L27.0697 26.8009L23.6328 23.2289L21.6162 25.0731L20.1539 23.6108L17.7648 25.9719L19.5252 27.737C19.5252 27.737 12.4836 35.1744 11.2402 44.1161C10.0247 52.8249 12.7817 60.5278 12.9261 60.9143C12.9261 60.9283 12.9261 60.9329 12.9261 60.9329C12.9261 60.9329 13.6759 48.5031 28.1176 36.3573L44.4129 52.6898L14.3418 82.8214L16.7356 85.1826L46.788 55.065L76.8357 85.1826L79.2248 82.8214L49.1538 52.6852L65.4537 36.3526C79.8908 48.4984 80.6406 60.9283 80.6406 60.9283C80.6406 60.9283 80.6406 60.9283 80.6406 60.9096H80.6499ZM80.4869 69.8234L81.7257 69.1481L80.4869 68.4728L79.8023 67.2387L79.1224 68.4728L77.8836 69.1481L79.1224 69.8234L79.8023 71.0575L80.4869 69.8234ZM74.8239 63.7086L76.8357 62.6141L74.8239 61.5151L73.7201 59.5125L72.621 61.5151L70.6045 62.6141L72.621 63.7086L73.7201 65.7158L74.8239 63.7086ZM69.8594 15.852L71.8759 14.7576L69.8594 13.6585L68.7603 11.6559L67.6565 13.6585L65.64 14.7576L67.6565 15.852L68.7603 17.8592L69.8594 15.852ZM69.6079 48.6428L70.8467 47.9675L69.6079 47.2922L68.928 46.0581L68.248 47.2922L67.0092 47.9675L68.248 48.6428L68.928 49.8816L69.6079 48.6428ZM66.4504 83.9484L67.6892 83.2731L66.4504 82.5979L65.7704 81.3637L65.0905 82.5979L63.8517 83.2731L65.0905 83.9484L65.7704 85.1826L66.4504 83.9484ZM59.3762 17.3283L62.245 8.43785C62.245 8.43785 59.6929 8.15842 59.2691 9.75116C59.2691 9.75116 57.6018 9.26682 57.1827 11.1343C56.7682 13.0018 58.2259 13.8355 58.2259 13.8355C58.2259 13.8355 55.0963 14.7296 54.1928 12.4476C54.1928 12.4476 56.1395 10.4404 54.1928 8.02337C54.1928 8.02337 51.4917 8.97342 52.5256 12.103C52.5256 12.103 50.2296 13.9705 48.7673 12.2427C48.7673 12.2427 50.509 12.1729 50.2995 10.5103C50.0899 8.84768 48.4878 8.99205 48.4878 8.99205C48.4878 8.99205 49.3354 6.50049 46.788 5.11732C44.2452 6.50049 45.0881 8.99205 45.0881 8.99205C45.0881 8.99205 43.4861 8.85234 43.2765 10.5103C43.0716 12.1729 44.8087 12.2427 44.8087 12.2427C43.351 13.9705 41.0551 12.103 41.0551 12.103C42.0843 8.97342 39.3832 8.02337 39.3832 8.02337C37.4411 10.4451 39.3832 12.4476 39.3832 12.4476C38.4797 14.7296 35.3501 13.8355 35.3501 13.8355C35.3501 13.8355 36.8124 13.0018 36.3933 11.1343C35.9788 9.26682 34.3069 9.75116 34.3069 9.75116C33.8924 8.15842 31.331 8.43785 31.331 8.43785L34.1998 17.3283C34.1998 17.3283 40.3518 17.8592 46.6669 17.8592C52.982 17.8592 59.3808 17.3283 59.3808 17.3283H59.3762ZM60.9782 52.4663L62.2217 51.791L60.9782 51.1157L60.2983 49.8816L59.6184 51.1157L58.3796 51.791L59.6184 52.4663L60.2983 53.7004L60.9782 52.4663ZM58.6916 87.3994C59.3482 85.5784 57.7322 84.2931 57.7322 84.2931V74.4106C57.7322 69.1807 52.33 63.7039 46.7833 63.7039C41.2367 63.7039 35.8344 69.1807 35.8344 74.4106V84.2931C35.8344 84.2931 34.2184 85.5784 34.8797 87.3994C35.5364 89.2203 37.7392 89.1504 39.2015 89.2948C40.6685 89.4392 42.061 92.6293 42.061 92.6293H51.5103C51.5103 92.6293 52.9028 89.4392 54.3698 89.2948C55.8368 89.1504 58.0349 89.2203 58.6963 87.3994H58.6916ZM34.265 52.4663L35.5038 51.791L34.265 51.1157L33.5804 49.8816L32.9005 51.1157L31.6617 51.791L32.9005 52.4663L33.5804 53.7004L34.265 52.4663ZM28.7929 83.9484L30.0317 83.2731L28.7929 82.5979L28.1129 81.3637L27.433 82.5979L26.1942 83.2731L27.433 83.9484L28.1129 85.1826L28.7929 83.9484ZM26.2268 15.852L28.2387 14.7576L26.2268 13.6585L25.1231 11.6559L24.024 13.6585L22.0074 14.7576L24.024 15.852L25.1231 17.8592L26.2268 15.852ZM25.6353 48.6428L26.8741 47.9675L25.6353 47.2922L24.9554 46.0581L24.2755 47.2922L23.0367 47.9675L24.2755 48.6428L24.9554 49.8816L25.6353 48.6428ZM21.2623 63.7086L23.2742 62.6141L21.2623 61.5151L20.1586 59.5125L19.0595 61.5151L17.043 62.6141L19.0595 63.7086L20.1586 65.7158L21.2623 63.7086ZM14.7563 69.8234L15.9951 69.1481L14.7563 68.4728L14.0764 67.2387L13.3964 68.4728L12.1576 69.1481L13.3964 69.8234L14.0764 71.0575L14.7563 69.8234ZM13.0611 23.6247L14.2999 22.9494L13.0611 22.2742L12.3765 21.04L11.6966 22.2742L10.4578 22.9494L11.6966 23.6247L12.3765 24.8635L13.0611 23.6247Z" fill="#815DEF"/>
<path d="M88.4134 4.76331V16.8253C87.8732 16.1127 82.1682 9.08978 66.0033 5.66214L50.6768 -11.5552L55.2407 -16.4685H65.7658C65.7658 -15.3368 66.6926 -14.4194 67.8289 -14.4194C68.9653 -14.4194 69.8874 -15.3368 69.8874 -16.4685H79.1225C79.1225 -15.3368 80.0492 -14.4194 81.1856 -14.4194C82.3219 -14.4194 83.2487 -15.3368 83.2487 -16.4685H87.0163C87.7847 -16.4685 88.4088 -15.8491 88.4088 -15.0853V-7.8016C87.3097 -7.75503 86.4388 -6.8562 86.4388 -5.75247C86.4388 -4.64873 87.3097 -3.75456 88.4088 -3.70799V4.76331H88.4134ZM80.0166 -1.76131C82.5594 -1.7846 84.0916 -3.47513 84.0916 -3.47513C82.7178 -4.6627 81.302 -5.06321 80.0166 -5.06321C81.8003 -6.87018 81.6839 -9.13354 81.6839 -9.13354C79.8629 -9.0078 78.5822 -8.29526 77.6694 -7.39643C77.6508 -9.92525 75.951 -11.4481 75.951 -11.4481C74.7448 -10.0743 74.3489 -8.65385 74.3489 -7.37315C72.5699 -8.88205 70.3391 -9.1382 70.3391 -9.1382C70.6186 -7.25672 71.2659 -5.95272 72.0436 -5.0539C69.7058 -4.87693 67.9314 -3.47979 67.9314 -3.47979C69.4682 -2.3388 70.8561 -1.87774 72.0436 -1.7846C70.5114 -0.0195509 70.2553 2.22053 70.2553 2.22053C72.1507 1.9411 73.4594 1.29842 74.3675 0.525334C74.5445 2.84924 75.951 4.61429 75.951 4.61429C77.0873 3.09606 77.553 1.72687 77.6508 0.548619C79.4671 2.34627 81.7631 2.22053 81.7631 2.22053C81.6373 0.413563 80.9201 -0.86249 80.0166 -1.76597V-1.76131Z" fill="#432D69"/>
<path d="M84.087 -3.47039C84.087 -3.47039 82.5594 -1.77985 80.012 -1.75656C80.9155 -0.853083 81.6327 0.422969 81.7584 2.22993C81.7584 2.22993 79.4624 2.35567 77.6462 0.558025C77.5484 1.73628 77.0827 3.10547 75.9463 4.62369C75.9463 4.62369 74.5399 2.85864 74.3629 0.53474C73.4594 1.30782 72.1508 1.9505 70.2507 2.22993C70.2507 2.22993 70.5068 -0.00548736 72.039 -1.77519C70.8514 -1.86834 69.4636 -2.32939 67.9268 -3.47039C67.9268 -3.47039 69.7011 -4.87218 72.039 -5.04449C71.2613 -5.94332 70.6139 -7.24731 70.3345 -9.12879C70.3345 -9.12879 72.5653 -8.87265 74.3443 -7.36374C74.3443 -8.64445 74.7401 -10.0649 75.9463 -11.4387C75.9463 -11.4387 77.6462 -9.9205 77.6648 -7.38703C78.5729 -8.28585 79.8583 -8.99839 81.6792 -9.12413C81.6792 -9.12413 81.8003 -6.85611 80.012 -5.05381C81.2974 -5.05381 82.7131 -4.65329 84.087 -3.46573V-3.47039ZM77.5949 -3.40984C77.5949 -4.28072 76.8871 -4.98395 76.0115 -4.98395C75.136 -4.98395 74.4281 -4.28072 74.4281 -3.40984C74.4281 -2.53896 75.136 -1.83573 76.0115 -1.83573C76.8871 -1.83573 77.5949 -2.53896 77.5949 -3.40984Z" fill="#432D69"/>
<path d="M84.087 104.053C84.087 104.053 82.5594 105.744 80.012 105.762C80.9155 106.666 81.6327 107.942 81.7584 109.753C81.7584 109.753 79.4624 109.874 77.6462 108.081C77.5484 109.26 77.0827 110.629 75.9463 112.147C75.9463 112.147 74.5399 110.382 74.3629 108.054C73.4594 108.827 72.1508 109.474 70.2507 109.753C70.2507 109.753 70.5068 107.518 72.039 105.744C70.8514 105.655 69.4636 105.189 67.9268 104.053C67.9268 104.053 69.7011 102.651 72.039 102.479C71.2613 101.58 70.6139 100.276 70.3345 98.39C70.3345 98.39 72.5653 98.6461 74.3443 100.155C74.3443 98.8743 74.7401 97.4586 75.9463 96.0847C75.9463 96.0847 77.6462 97.5983 77.6648 100.132C78.5729 99.2376 79.8583 98.5204 81.6792 98.3946C81.6792 98.3946 81.8003 100.667 80.012 102.465C81.2974 102.465 82.7131 102.865 84.087 104.058V104.053ZM77.5949 104.114C77.5949 103.243 76.8871 102.539 76.0115 102.539C75.136 102.539 74.4281 103.243 74.4281 104.114C74.4281 104.984 75.136 105.688 76.0115 105.688C76.8871 105.688 77.5949 104.98 77.5949 104.114Z" fill="#F9CF81"/>
<path d="M82.3356 44.1115C83.5511 52.8203 80.7941 60.5232 80.6497 60.9097C80.7428 60.4114 82.6895 49.6907 78.4888 41.8807C74.1949 33.8798 70.9023 30.8899 70.9023 30.8899L74.0506 27.7371C74.2648 27.9653 81.1108 35.3142 82.3356 44.1115Z" fill="#FAF9F6"/>
<path d="M78.4889 41.8853C82.6849 49.6953 80.7429 60.416 80.6498 60.9143C80.6498 60.9283 80.6498 60.9329 80.6498 60.9329C80.6498 60.9329 79.9 48.5031 65.4629 36.3573L70.9071 30.8992C70.9071 30.8992 74.1996 33.889 78.4935 41.89L78.4889 41.8853Z" fill="#FAF9F6"/>
<path d="M49.1576 52.6804L79.2286 82.8213L76.8395 85.1825L46.7871 55.0649L49.1576 52.6804Z" fill="#432D69"/>
<path d="M76.0112 105.688C76.8857 105.688 77.5946 104.983 77.5946 104.114C77.5946 103.244 76.8857 102.54 76.0112 102.54C75.1367 102.54 74.4277 103.244 74.4277 104.114C74.4277 104.983 75.1367 105.688 76.0112 105.688Z" fill="#F579A4"/>
<path d="M76.8396 62.6141L74.8231 63.7085L73.724 65.7111L72.6249 63.7085L70.6084 62.6141L72.6249 61.515L73.724 59.5171L74.8231 61.515L76.8396 62.6141Z" fill="#EFBC30"/>
<path d="M71.9594 25.0732L68.4432 28.594L66.5059 26.8057L69.9382 23.229L71.9594 25.0732Z" fill="#FAF9F6"/>
<path d="M68.4428 28.594L63.0917 33.959L61.3174 32.1986L66.5054 26.8057L68.4428 28.594Z" fill="#FAF9F6"/>
<path d="M66.073 96.4807L50.29 114.215V114.317H46.0986V98.2178H50.4344C56.5073 98.0409 61.686 97.3935 66.0777 96.4807H66.073Z" fill="#F579A4"/>
<path d="M50.6758 -11.5552L66.0024 5.66222C61.4943 4.70751 56.1852 4.03223 49.94 3.84595H47.2109V-7.8248L50.6805 -11.5598L50.6758 -11.5552Z" fill="#432D69"/>
<path d="M62.2446 8.43796L59.3758 17.3284C56.3952 14.9346 49.0649 14.7064 46.7829 14.7064C44.5009 14.7064 37.1706 14.9346 34.1901 17.3284L31.3213 8.43796C31.3213 8.43796 33.878 8.15853 34.2972 9.75127C34.2972 9.75127 35.9644 9.26693 36.3836 11.1344C36.8027 13.0019 35.3404 13.8356 35.3404 13.8356C35.3404 13.8356 38.4746 14.7297 39.3735 12.4477C39.3735 12.4477 37.4314 10.4405 39.3735 8.02347C39.3735 8.02347 42.0792 8.97353 41.0454 12.1031C41.0454 12.1031 43.3413 13.9706 44.799 12.2428C44.799 12.2428 43.0619 12.173 43.2668 10.5104C43.4764 8.84779 45.0784 8.99216 45.0784 8.99216C45.0784 8.99216 44.2308 6.5006 46.7783 5.11743C49.3211 6.5006 48.4781 8.99216 48.4781 8.99216C48.4781 8.99216 50.0802 8.85244 50.2897 10.5104C50.4993 12.173 48.7576 12.2428 48.7576 12.2428C50.2199 13.9706 52.5158 12.1031 52.5158 12.1031C51.4866 8.97353 54.1831 8.02347 54.1831 8.02347C56.1298 10.4452 54.1831 12.4477 54.1831 12.4477C55.0866 14.7297 58.2162 13.8356 58.2162 13.8356C58.2162 13.8356 56.7585 13.0019 57.173 11.1344C57.5875 9.26693 59.2594 9.75127 59.2594 9.75127C59.6785 8.15853 62.2353 8.43796 62.2353 8.43796H62.2446ZM46.7829 11.3021C47.2347 11.3021 47.5979 10.9342 47.5979 10.4871C47.5979 10.04 47.2347 9.67675 46.7829 9.67675C46.3312 9.67675 45.9679 10.04 45.9679 10.4871C45.9679 10.9342 46.3312 11.3021 46.7829 11.3021Z" fill="#EFBC30"/>
<path d="M49.894 92.6292H42.0561C42.0561 92.6292 40.6636 89.4391 39.1966 89.2947C37.7342 89.1504 35.5314 89.2202 34.8748 87.3993C34.2135 85.5784 35.8295 84.293 35.8295 84.293V74.4106C35.8295 69.1806 41.2317 63.7039 46.7784 63.7039C52.325 63.7039 57.7273 69.1806 57.7273 74.4106V84.293C57.7273 84.293 59.3433 85.5784 58.6866 87.3993C58.0253 89.2202 55.8272 89.1504 54.3602 89.2947C52.8932 89.4391 51.5007 92.6292 51.5007 92.6292H49.8893H49.894ZM55.245 81.4009C55.9762 79.9619 55.0401 78.0338 53.1586 77.0884C51.2772 76.1477 49.1628 76.5529 48.4363 77.9873C47.7051 79.4263 48.6366 81.3543 50.518 82.2997C52.3995 83.2405 54.5139 82.8353 55.245 81.4009ZM49.894 86.8172C50.2619 84.9217 46.783 82.0063 46.783 82.0063C46.783 82.0063 43.3088 84.9217 43.6721 86.8172C44.04 88.7126 46.3034 88.7126 46.783 87.8371C47.2627 88.7126 49.5307 88.7126 49.894 86.8172ZM43.0527 82.2997C44.9342 81.3543 45.8702 79.4263 45.1391 77.9873C44.4079 76.5482 42.2936 76.1477 40.4121 77.0884C38.5306 78.0338 37.5992 79.9619 38.3304 81.4009C39.0569 82.84 41.1712 83.2405 43.0527 82.2997Z" fill="#FAF9F6"/>
<path d="M59.3764 17.3283C59.3764 17.3283 52.9775 17.8592 46.6624 17.8592C40.3474 17.8592 34.1953 17.3283 34.1953 17.3283C37.1759 14.9345 44.5108 14.7063 46.7882 14.7063C49.0655 14.7063 56.4005 14.9345 59.381 17.3283H59.3764Z" fill="#FF9A26"/>
<path d="M53.1592 77.0886C55.0406 78.034 55.9767 79.962 55.2455 81.4011C54.5144 82.8402 52.4 83.2407 50.5186 82.2999C48.6371 81.3545 47.7057 79.4265 48.4368 77.9874C49.1633 76.5484 51.2777 76.1479 53.1592 77.0886Z" fill="#432D69"/>
<path d="M52.7305 19.8572C53.3779 19.8572 53.9041 20.3834 53.9041 21.0308C53.9041 21.3568 53.7691 21.6502 53.5595 21.8644C53.3453 22.074 53.0519 22.2044 52.7259 22.2044H40.8316C40.1796 22.2044 39.6533 21.6781 39.6533 21.0308C39.6533 20.7048 39.7884 20.4114 39.9979 20.1971C40.2122 19.9876 40.5102 19.8572 40.8362 19.8572H52.7305Z" fill="#EFBC30"/>
<path d="M52.7305 39.1748C53.3779 39.1748 53.9041 39.7011 53.9041 40.3484C53.9041 40.6744 53.7691 40.9631 53.5595 41.1774C53.3453 41.3869 53.0519 41.5173 52.7259 41.5173H40.8316C40.1796 41.5173 39.6533 40.9911 39.6533 40.3484C39.6533 40.0224 39.7884 39.729 39.9979 39.5194C40.2122 39.3052 40.5102 39.1748 40.8362 39.1748H52.7305Z" fill="#EFBC30"/>
<path d="M52.1856 22.2043L48.0035 30.6896L48.0687 30.82L48.0035 30.8526H45.7075L41.1436 22.2043H52.1856Z" fill="#F579A4"/>
<path d="M49.671 34.0613L52.1905 39.1702H41.1484L44.1476 33.6981L44.2221 33.7353C44.5668 33.4186 45.1303 33.4978 45.5261 33.7493C45.9173 34.0008 46.2014 34.3873 46.5414 34.704C46.886 35.0254 47.3424 35.2815 47.8035 35.1837C48.176 35.0999 48.4508 34.7971 48.7302 34.5317C48.9864 34.2849 49.3124 34.0427 49.671 34.0613Z" fill="#FAF9F6"/>
<path d="M46.7831 82.0063C46.7831 82.0063 50.262 84.9217 49.894 86.8172C49.5308 88.7126 47.2628 88.7126 46.7831 87.8371C46.3034 88.7126 44.04 88.7126 43.6721 86.8172C43.3089 84.9217 46.7831 82.0063 46.7831 82.0063Z" fill="#432D69"/>
<path d="M48.0688 30.8201L49.6708 34.0661C49.3169 34.0428 48.9862 34.2896 48.7301 34.5365C48.4506 34.8019 48.1759 35.1046 47.8033 35.1885C47.3422 35.2863 46.8858 35.0301 46.5412 34.7088C46.1966 34.3921 45.9125 34.0055 45.526 33.7541C45.1301 33.5026 44.5666 33.4234 44.222 33.7401L44.1475 33.7028L45.7076 30.8573H48.0036L48.0688 30.8247V30.8201Z" fill="#F579A4"/>
<path d="M47.5978 10.4871C47.5978 10.9342 47.2345 11.3021 46.7828 11.3021C46.331 11.3021 45.9678 10.9342 45.9678 10.4871C45.9678 10.04 46.331 9.67676 46.7828 9.67676C47.2345 9.67676 47.5978 10.04 47.5978 10.4871Z" fill="#432D69"/>
<path d="M47.207 3.79005V3.85059H43.1367C36.7471 4.03222 31.3495 4.7401 26.8135 5.73207L42.806 -12.2351L47.1977 -7.81084L47.2117 -7.82481V3.78539L47.207 3.79005Z" fill="#432D69"/>
<path d="M73.422 23.6108L71.9597 25.0732L68.4436 28.594L63.0925 33.959L46.7833 50.3055L44.4128 52.6806L14.3418 82.8215L16.7356 85.1826L46.788 55.065L49.1584 52.6806L65.4584 36.3527L70.9025 30.8946L74.0554 27.7371L75.8111 25.972L73.422 23.6108Z" fill="#432D69"/>
<path d="M30.4784 33.959L46.7829 50.3055L44.4125 52.6806L28.1172 36.3527L22.6684 30.8946L19.5202 27.7324L17.7598 25.972L20.1489 23.6108L21.6159 25.0732L25.1227 28.594L30.4784 33.959Z" fill="#432D69"/>
<path d="M46.0934 114.215V114.318H42.5959V114.215L26.6592 96.3132L26.6871 96.2107C31.3722 97.2679 36.9747 98.027 43.6297 98.2179H46.0934V114.215Z" fill="#FFC0D6"/>
<path d="M45.1342 77.9875C45.8654 79.4265 44.9293 81.3546 43.0478 82.3C41.1663 83.2407 39.052 82.8355 38.3255 81.4011C37.5943 79.9621 38.5258 78.034 40.4072 77.0886C42.2887 76.1479 44.403 76.5531 45.1342 77.9875Z" fill="#432D69"/>
<path d="M5.15775 4.76331V-3.70799C6.25218 -3.75456 7.12771 -4.65339 7.12771 -5.75247C7.12771 -6.85155 6.25218 -7.75503 5.15775 -7.8016V-15.0853C5.15775 -15.8491 5.78181 -16.4685 6.55023 -16.4685H10.3225C10.3225 -15.3368 11.2446 -14.4194 12.3809 -14.4194C13.5173 -14.4194 14.4441 -15.3368 14.4441 -16.4685H23.6791C23.6791 -15.3368 24.6012 -14.4194 25.7376 -14.4194C26.8739 -14.4194 27.8007 -15.3368 27.8007 -16.4685H38.6005L42.8013 -12.2352L26.8087 5.732C11.0537 9.17827 5.67469 16.0894 5.14844 16.8206V4.76331H5.15775ZM22.6872 -1.76131C25.2299 -1.7846 26.7575 -3.47513 26.7575 -3.47513C25.3836 -4.6627 23.9679 -5.06321 22.6872 -5.06321C24.4708 -6.87018 24.3497 -9.13354 24.3497 -9.13354C22.5335 -9.0078 21.2528 -8.29526 20.34 -7.39643C20.3167 -9.92525 18.6215 -11.4481 18.6215 -11.4481C17.4153 -10.0743 17.0148 -8.65385 17.0194 -7.37315C15.2404 -8.88205 13.005 -9.1382 13.005 -9.1382C13.2844 -7.25672 13.9364 -5.95272 14.7142 -5.0539C12.3716 -4.87693 10.5973 -3.47979 10.5973 -3.47979C12.1388 -2.3388 13.5219 -1.87774 14.7095 -1.7846C13.182 -0.0195509 12.9258 2.22053 12.9258 2.22053C14.8166 1.9411 16.1253 1.29842 17.0334 0.525334C17.215 2.84924 18.6215 4.61429 18.6215 4.61429C19.7532 3.09606 20.2235 1.72687 20.3167 0.548619C22.1376 2.34627 24.4336 2.22053 24.4336 2.22053C24.3078 0.413563 23.586 -0.86249 22.6872 -1.76597V-1.76131Z" fill="#432D69"/>
<path d="M42.5968 114.215V114.317H5.1582V107.928C6.25263 107.881 7.12817 106.982 7.12817 105.883C7.12817 104.784 6.25263 103.881 5.1582 103.834V85.2429C5.68446 85.9415 11.1985 92.7223 26.6881 96.2104L26.6601 96.3129L42.5968 114.215ZM22.6876 105.762C25.2304 105.744 26.7579 104.053 26.7579 104.053C25.3841 102.861 23.9683 102.465 22.6876 102.46C24.4713 100.658 24.3502 98.39 24.3502 98.39C22.5339 98.5157 21.2532 99.2329 20.3404 100.127C20.3171 97.5983 18.6219 96.08 18.6219 96.08C17.4157 97.4539 17.0152 98.8697 17.0199 100.15C15.2409 98.6415 13.0055 98.3853 13.0055 98.3853C13.2849 100.271 13.9369 101.575 14.7146 102.474C12.3721 102.651 10.5977 104.048 10.5977 104.048C12.1392 105.185 13.5224 105.65 14.71 105.739C13.1824 107.509 12.9263 109.749 12.9263 109.749C14.8171 109.469 16.1257 108.822 17.0339 108.049C17.2155 110.377 18.6219 112.142 18.6219 112.142C19.7536 110.624 20.224 109.255 20.3171 108.077C22.1381 109.87 24.434 109.749 24.434 109.749C24.3083 107.937 23.5864 106.661 22.6876 105.758V105.762Z" fill="#432D69"/>
<path d="M27.0697 26.8057L32.2578 32.1986L30.4787 33.959L25.123 28.594L27.0697 26.8057Z" fill="#FAF9F6"/>
<path d="M22.669 30.8946L28.1132 36.3527C13.6714 48.4985 12.9216 60.9283 12.9216 60.9283C12.9216 60.9283 12.9216 60.9283 12.9216 60.9097C12.8285 60.4114 10.8865 49.6907 15.0825 41.8807C19.3811 33.8798 22.6737 30.8899 22.6737 30.8899L22.669 30.8946Z" fill="#FAF9F6"/>
<path d="M27.0697 26.8057L25.123 28.594L21.6162 25.0732L23.6327 23.229L27.0697 26.8057Z" fill="#FAF9F6"/>
<path d="M26.7579 -3.47039C26.7579 -3.47039 25.235 -1.77985 22.6875 -1.75656C23.591 -0.853083 24.3082 0.422969 24.434 2.22993C24.434 2.22993 22.138 2.35567 20.3171 0.558025C20.2239 1.73628 19.7536 3.10547 18.6219 4.62369C18.6219 4.62369 17.2154 2.85864 17.0338 0.53474C16.1303 1.30782 14.817 1.9505 12.9262 2.22993C12.9262 2.22993 13.1824 -0.00548736 14.7099 -1.77519C13.5223 -1.86834 12.1392 -2.32939 10.5977 -3.47039C10.5977 -3.47039 12.372 -4.87218 14.7146 -5.04449C13.9368 -5.94332 13.2848 -7.24731 13.0054 -9.12879C13.0054 -9.12879 15.2408 -8.87265 17.0198 -7.36374C17.0198 -8.64445 17.4157 -10.0649 18.6219 -11.4387C18.6219 -11.4387 20.3171 -9.9205 20.3404 -7.38703C21.2485 -8.28585 22.5339 -8.99839 24.3501 -9.12413C24.3501 -9.12413 24.4759 -6.85611 22.6875 -5.05381C23.9683 -5.05381 25.384 -4.65329 26.7579 -3.46573V-3.47039ZM20.2612 -3.40984C20.2612 -4.28072 19.5533 -4.98395 18.6778 -4.98395C17.8022 -4.98395 17.0943 -4.28072 17.0943 -3.40984C17.0943 -2.53896 17.8069 -1.83573 18.6778 -1.83573C19.5486 -1.83573 20.2612 -2.53896 20.2612 -3.40984Z" fill="#432D69"/>
<path d="M26.7579 104.053C26.7579 104.053 25.235 105.744 22.6875 105.762C23.591 106.666 24.3082 107.942 24.434 109.753C24.434 109.753 22.138 109.874 20.3171 108.081C20.2239 109.26 19.7536 110.629 18.6219 112.147C18.6219 112.147 17.2154 110.382 17.0338 108.054C16.1303 108.827 14.817 109.474 12.9262 109.753C12.9262 109.753 13.1824 107.518 14.7099 105.744C13.5223 105.655 12.1392 105.189 10.5977 104.053C10.5977 104.053 12.372 102.651 14.7146 102.479C13.9368 101.58 13.2848 100.276 13.0054 98.39C13.0054 98.39 15.2408 98.6461 17.0198 100.155C17.0198 98.8743 17.4157 97.4586 18.6219 96.0847C18.6219 96.0847 20.3171 97.5983 20.3404 100.132C21.2485 99.2376 22.5339 98.5204 24.3501 98.3946C24.3501 98.3946 24.4759 100.667 22.6875 102.465C23.9683 102.465 25.384 102.865 26.7579 104.058V104.053ZM20.2612 104.114C20.2612 103.243 19.5533 102.539 18.6778 102.539C17.8022 102.539 17.0943 103.243 17.0943 104.114C17.0943 104.984 17.8069 105.688 18.6778 105.688C19.5486 105.688 20.2612 104.98 20.2612 104.114Z" fill="#F9CF81"/>
<path d="M19.5202 27.7324L22.6684 30.8899C22.6684 30.8899 19.3758 33.8798 15.0773 41.8808C10.8859 49.6908 12.8233 60.4114 12.9164 60.9098C12.772 60.5232 10.015 52.8157 11.2305 44.1115C12.474 35.1745 19.5155 27.7324 19.5155 27.7324H19.5202Z" fill="#FAF9F6"/>
<path d="M18.6772 105.688C19.5517 105.688 20.2606 104.983 20.2606 104.114C20.2606 103.244 19.5517 102.54 18.6772 102.54C17.8027 102.54 17.0938 103.244 17.0938 104.114C17.0938 104.983 17.8027 105.688 18.6772 105.688Z" fill="#F579A4"/>
<path d="M5.1582 103.834C6.25263 103.881 7.12817 104.78 7.12817 105.884C7.12817 106.987 6.25263 107.882 5.1582 107.928V103.834Z" fill="#F9CF81"/>
<path d="M5.15745 103.834V107.928C5.12951 107.928 5.09691 107.928 5.06896 107.928C3.92797 107.928 3.00586 107.01 3.00586 105.879C3.00586 104.747 3.92797 103.825 5.06896 103.825C5.09691 103.825 5.12951 103.825 5.15745 103.825V103.834Z" fill="#EFBC30"/>
<path d="M0.579627 137.417L0.570312 86.1421L5.14826 90.7666V103.821C5.12032 103.821 5.08772 103.821 5.05978 103.821C3.92344 103.821 3.00133 104.738 3.00133 105.87C3.00133 107.001 3.92344 107.923 5.05978 107.923C5.08772 107.923 5.12032 107.923 5.14826 107.923V131.554C5.14826 132.313 5.77698 132.937 6.5454 132.937H87.0251C87.7889 132.937 88.4176 132.313 88.4176 131.554V107.923C88.4455 107.923 88.4781 107.923 88.5061 107.923C89.6424 107.923 90.5692 107.006 90.5692 105.87C90.5692 104.733 89.6424 103.821 88.5061 103.821C88.4781 103.821 88.4455 103.821 88.4176 103.821V90.7666H88.4269L93.0002 86.2492L92.9909 137.417H0.579627Z" fill="#F579A4"/>
<path d="M92.9959 76.8789V86.249L88.4273 90.7664H88.418V81.3917H88.4273L92.9959 76.8789Z" fill="#F9CF81"/>
<path d="M92.9957 55.0372V76.8791L88.4224 81.3919H88.4131V32.3524C90.574 32.3198 90.8115 34.7834 90.9605 36.3994V50.3522C90.9605 52.1498 91.0257 54.0732 92.9724 55.0372H92.991H92.9957Z" fill="#FFC0D6"/>
<path d="M92.9959 8.75914V55.037H92.9773C91.0306 54.0776 90.9654 52.1495 90.9654 50.3519V36.3992C90.8164 34.7831 90.5742 32.3195 88.418 32.3521V4.72607L92.9959 8.75914Z" fill="#F579A4"/>
<path d="M92.9957 -20.9998V8.75925L88.4178 4.72619V-3.74978C88.4457 -3.74978 88.4783 -3.74978 88.5063 -3.74978C89.6426 -3.74978 90.5694 -4.66723 90.5694 -5.80357C90.5694 -6.9399 89.6426 -7.8527 88.5063 -7.8527C88.4783 -7.8527 88.4457 -7.8527 88.4178 -7.8527V-15.1411C88.4178 -15.9002 87.7891 -16.5243 87.0253 -16.5243H83.2531C83.2531 -17.6559 82.3309 -18.5734 81.1899 -18.5734C80.0489 -18.5734 79.1315 -17.6559 79.1315 -16.5243H69.8964C69.8964 -17.6559 68.9743 -18.5734 67.8333 -18.5734C66.6923 -18.5734 65.7749 -17.6559 65.7749 -16.5243H55.2451L59.3387 -20.9998H92.9957Z" fill="#F579A4"/>
<path d="M0.579627 -21H34.5021L38.6004 -16.5152H27.7959C27.7959 -17.6469 26.8737 -18.5643 25.7374 -18.5643C24.6011 -18.5643 23.6743 -17.6469 23.6743 -16.5152H14.4392C14.4392 -17.6469 13.5171 -18.5643 12.3808 -18.5643C11.2444 -18.5643 10.3177 -17.6469 10.3177 -16.5152H6.55006C5.78163 -16.5152 5.15292 -15.8911 5.15292 -15.132V-7.84363C5.12498 -7.84363 5.09238 -7.84363 5.06444 -7.84363C3.9281 -7.84363 3.00599 -6.92618 3.00599 -5.7945C3.00599 -4.66282 3.9281 -3.74071 5.06444 -3.74071C5.09238 -3.74071 5.12498 -3.74071 5.15292 -3.74071V4.73991L0.570312 8.65189L0.579627 -21Z" fill="#F579A4"/>
<path d="M5.15292 81.3916V90.7664H5.14826L0.570312 86.1419V76.7671L5.14826 81.3916H5.15292Z" fill="#F9CF81"/>
<path d="M5.15292 32.3524V81.3919L0.570312 76.7673V54.9301H0.588941C2.53562 53.9707 2.60082 52.1498 2.60082 50.3522V36.3994C2.74985 34.7834 2.99667 32.3198 5.14826 32.3524H5.15292Z" fill="#FFC0D6"/>
<path d="M5.15292 4.72607V32.3475C2.99667 32.3149 2.7545 34.7785 2.60547 36.3945V50.3472C2.60547 52.1449 2.54028 53.9658 0.593598 54.9252H0.570312V8.65203L5.14826 4.72607H5.15292Z" fill="#F579A4"/>
<path d="M87.0212 133.146H6.54616C5.66131 133.146 4.93945 132.429 4.93945 131.549V-15.0852C4.93945 -15.9654 5.66131 -16.6826 6.54616 -16.6826H87.0212C87.9061 -16.6826 88.6279 -15.9654 88.6279 -15.0852V131.554C88.6279 132.434 87.9061 133.151 87.0212 133.151V133.146ZM6.54616 -16.2542C5.89882 -16.2542 5.37257 -15.7279 5.37257 -15.0852V131.554C5.37257 132.196 5.89882 132.723 6.54616 132.723H87.0212C87.6686 132.723 88.1995 132.196 88.1995 131.554V-15.0852C88.1995 -15.7279 87.6732 -16.2542 87.0212 -16.2542H6.54616Z" fill="#432D69"/>
<path d="M88.4136 114.103H5.1582V114.532H88.4136V114.103Z" fill="#432D69"/>
<path d="M5.06444 108.142C3.80702 108.142 2.78711 107.127 2.78711 105.879C2.78711 104.631 3.81168 103.611 5.06444 103.611C5.1017 103.611 5.1343 103.611 5.17156 103.611C6.38706 103.667 7.33712 104.659 7.33712 105.874C7.33712 107.09 6.38241 108.082 5.16224 108.133C5.14361 108.133 5.1017 108.133 5.06444 108.133V108.142ZM5.08307 104.044H5.06444C4.04453 104.044 3.21556 104.868 3.21556 105.884C3.21556 106.899 4.04453 107.718 5.06444 107.718C5.08307 107.718 5.10636 107.718 5.12499 107.718C6.13558 107.672 6.90866 106.871 6.90866 105.884C6.90866 104.896 6.13558 104.091 5.14361 104.049H5.12499C5.12499 104.049 5.09704 104.049 5.08307 104.049V104.044Z" fill="#432D69"/>
<path d="M88.5066 108.142C88.4647 108.142 88.4228 108.142 88.3809 108.138C87.1793 108.086 86.2246 107.094 86.2246 105.883C86.2246 104.673 87.1747 103.676 88.3902 103.62C88.4274 103.62 88.4647 103.62 88.5019 103.62C89.7547 103.62 90.7746 104.635 90.7746 105.888C90.7746 107.141 89.7547 108.152 88.5019 108.152L88.5066 108.142ZM88.488 104.044C88.488 104.044 88.46 104.044 88.4461 104.044H88.4274C87.4401 104.086 86.6624 104.896 86.6624 105.883C86.6624 106.871 87.4355 107.672 88.4274 107.714C88.4693 107.718 88.488 107.714 88.5113 107.714C89.5265 107.714 90.3555 106.889 90.3555 105.879C90.3555 104.868 89.5265 104.039 88.5113 104.039H88.488V104.044Z" fill="#432D69"/>
<path d="M16.7353 85.4804L14.0342 82.8212L73.4218 23.3079L76.1183 25.9671L65.6118 36.5015L16.74 85.4804H16.7353ZM14.6443 82.8166L16.7353 84.875L46.6387 54.9111L49.0092 52.5313L75.5128 25.9717L73.4265 23.9133L44.5663 52.834L14.6443 82.8166Z" fill="#432D69"/>
<path d="M80.8505 60.9839L80.45 60.8349C80.478 60.7557 83.3561 52.9597 82.1266 44.1391C80.9297 35.5141 74.1862 28.1885 73.8975 27.8811L74.2002 27.5784C74.5029 27.8997 81.3302 35.3232 82.5457 44.0786C83.7892 53.0063 80.8785 60.9047 80.8459 60.9839H80.8505Z" fill="#432D69"/>
<path d="M80.4307 60.9421C80.4214 60.821 79.5086 48.4563 65.3184 36.5155L65.5978 36.1895C79.9371 48.2561 80.8545 60.793 80.8592 60.9141L80.4307 60.9421Z" fill="#432D69"/>
<path d="M80.8591 60.9518L80.4307 60.9285L80.4493 60.84C80.5238 60.4208 82.4751 49.7514 78.3023 41.9833C74.0783 34.1174 70.7904 31.081 70.7578 31.0484L71.0466 30.7317C71.0792 30.7596 74.4137 33.838 78.6796 41.7784C82.9222 49.6769 80.9476 60.4907 80.8591 60.9471V60.9518Z" fill="#432D69"/>
<path d="M62.939 34.1127L61.0156 32.2032L69.9294 22.9309L72.1042 24.9195L71.8155 25.2315L69.948 23.5317L61.6164 32.1939L63.2464 33.8099L62.939 34.1127Z" fill="#432D69"/>
<path d="M68.2994 28.7522L66.3574 26.9592L66.6508 26.6472L68.5928 28.4402L68.2994 28.7522Z" fill="#432D69"/>
<path d="M76.8362 85.4806L46.6348 55.214L46.9421 54.9113L76.8409 84.8799L78.9272 82.8168L49.0052 52.8342L49.3126 52.5315L79.5327 82.8214L76.8362 85.4806Z" fill="#432D69"/>
<path d="M44.2588 52.834L17.457 25.9717L20.1535 23.3079L46.9366 50.1562L46.6339 50.4542L20.1488 23.9133L18.0625 25.9717L44.5615 52.5313L44.2588 52.834Z" fill="#432D69"/>
<path d="M12.7163 60.9844C12.6884 60.9052 9.77304 53.0067 11.0165 44.079C12.2553 35.1746 19.2875 27.658 19.3621 27.5835L19.6741 27.8769C19.6042 27.9514 12.6651 35.3702 11.445 44.1349C10.2155 52.9555 13.0889 60.7515 13.1215 60.8307L12.721 60.9797L12.7163 60.9844Z" fill="#432D69"/>
<path d="M13.1355 60.9421L12.707 60.9141C12.7163 60.7884 13.6291 48.2561 27.9731 36.1895L28.2478 36.5155C14.0529 48.4563 13.1401 60.8163 13.1308 60.9421H13.1355Z" fill="#432D69"/>
<path d="M12.7168 60.9748C12.6237 60.4951 10.6444 49.6906 14.8917 41.7828C19.1576 33.8424 22.4968 30.764 22.5294 30.7361L22.8181 31.0528C22.7855 31.0807 19.4976 34.1218 15.2689 41.9877C11.0915 49.7651 13.0475 60.4252 13.1313 60.877L13.1406 60.9329H12.7122H12.9264L12.7168 60.9794V60.9748Z" fill="#432D69"/>
<path d="M30.633 34.1127L30.3303 33.8099L31.9556 32.1939L23.624 23.5317L21.7612 25.2315L21.4678 24.9195L23.6427 22.9309L32.5564 32.2032L30.633 34.1127Z" fill="#432D69"/>
<path d="M25.2719 28.7522L24.9785 28.4402L26.9205 26.6472L27.2139 26.9592L25.2719 28.7522Z" fill="#432D69"/>
<path d="M46.7834 92.8433H41.9167L41.8608 92.7129C41.4883 91.856 40.2774 89.6159 39.1783 89.5042C39.006 89.4855 38.8197 89.4716 38.6288 89.4576C37.2223 89.3505 35.2989 89.2015 34.6749 87.469C34.0602 85.7738 35.285 84.4978 35.6203 84.1951V74.4104C35.6203 69.0035 41.2554 63.4941 46.7834 63.4941V63.9226C41.465 63.9226 36.0487 69.2177 36.0487 74.4151V84.4L35.9696 84.4652C35.909 84.5117 34.4793 85.6807 35.0801 87.334C35.611 88.8103 37.3015 88.936 38.6614 89.0431C38.857 89.0571 39.0433 89.0711 39.2202 89.0897C40.636 89.2294 41.9074 91.8048 42.1961 92.4242H46.7834V92.8526V92.8433Z" fill="#432D69"/>
<path d="M43.8865 90.1702H43.458V92.6291H43.8865V90.1702Z" fill="#432D69"/>
<path d="M40.981 83.0214C40.7202 83.0214 40.4687 82.9981 40.2219 82.9515C39.2625 82.7699 38.522 82.253 38.1448 81.4939C37.3624 79.9524 38.3404 77.8893 40.3197 76.8973C42.3036 75.9053 44.553 76.3524 45.3307 77.8939C46.1131 79.4354 45.1351 81.4939 43.1512 82.4905C42.4526 82.8398 41.7028 83.0214 40.981 83.0214ZM42.4899 76.7948C41.8519 76.7948 41.1673 76.9532 40.5106 77.2792C38.7409 78.1687 37.8514 79.971 38.522 81.3029C38.8434 81.9363 39.4721 82.3741 40.2964 82.5324C41.144 82.6907 42.0847 82.5417 42.9509 82.1086C44.7206 81.2191 45.6148 79.4168 44.9395 78.0848C44.5157 77.2466 43.5703 76.7948 42.4852 76.7948H42.4899Z" fill="#432D69"/>
<path d="M45.5777 88.6147C45.4612 88.6147 45.3448 88.6054 45.2237 88.5868C44.3063 88.4424 43.645 87.7951 43.4633 86.8543C43.0815 84.8611 46.4998 81.9644 46.6488 81.8386L46.9236 82.1646C46.891 82.1926 43.5472 85.0194 43.8825 86.7705C44.0967 87.8603 44.935 88.1071 45.2889 88.1583C45.8524 88.2468 46.4113 88.0605 46.5976 87.7252L46.9748 87.9301C46.742 88.3493 46.1971 88.6054 45.5777 88.6054V88.6147Z" fill="#432D69"/>
<path d="M51.5102 92.8434H46.7832V92.4149H51.3705C51.6592 91.7955 52.9306 89.2248 54.3464 89.0804C54.5233 89.0618 54.7096 89.0478 54.9052 89.0338C56.2651 88.9314 57.9556 88.801 58.4912 87.3247C59.0873 85.6714 57.6576 84.5071 57.597 84.4559L57.5179 84.3907V84.2882V74.4058C57.5179 69.2085 52.1016 63.9133 46.7832 63.9133V63.4849C52.3112 63.4849 57.9463 68.9942 57.9463 74.4012V84.1858C58.2816 84.4931 59.5065 85.7645 58.8964 87.4597C58.2677 89.1922 56.3443 89.3412 54.9378 89.4483C54.7469 89.4623 54.5606 89.4763 54.3883 89.4949C53.2892 89.602 52.0784 91.8467 51.7058 92.7036L51.6499 92.834H51.5102V92.8434Z" fill="#432D69"/>
<path d="M50.1091 90.1702H49.6807V92.6291H50.1091V90.1702Z" fill="#432D69"/>
<path d="M52.5857 83.0168C51.8825 83.0168 51.1327 82.8445 50.4201 82.4906C49.4701 82.0109 48.7156 81.2797 48.3058 80.4228C47.882 79.5473 47.8634 78.6485 48.2452 77.894C48.6271 77.1395 49.363 76.6226 50.3223 76.441C51.2584 76.2593 52.3016 76.427 53.2517 76.902C55.2356 77.8987 56.2136 79.9618 55.4312 81.4986C54.9329 82.4813 53.8291 83.0215 52.5857 83.0215V83.0168ZM51.0861 76.7949C50.8532 76.7949 50.625 76.8135 50.4061 76.8601C49.5818 77.0185 48.9485 77.4516 48.6318 78.0896C48.3104 78.723 48.3337 79.4914 48.697 80.2412C49.0696 81.0143 49.7542 81.6802 50.6204 82.1134C52.3901 82.9982 54.3833 82.6349 55.0586 81.3077C55.7339 79.9804 54.8397 78.1734 53.0654 77.2839C52.4273 76.9626 51.7427 76.7996 51.0907 76.7996L51.0861 76.7949Z" fill="#432D69"/>
<path d="M47.9948 88.6149C47.3754 88.6149 46.8259 88.3588 46.5977 87.9397L46.9749 87.7347C47.1565 88.0701 47.7247 88.2563 48.2882 88.1679C48.6375 88.112 49.4804 87.8698 49.69 86.78C50.03 85.029 46.6861 82.2021 46.6489 82.1741L46.9237 81.8481C47.068 81.9692 50.4957 84.866 50.1091 86.8639C49.9275 87.8046 49.2708 88.4519 48.3534 88.5963C48.2323 88.6149 48.1159 88.6243 47.9995 88.6243L47.9948 88.6149Z" fill="#432D69"/>
<path d="M45.4333 90.1702H45.0049V92.6291H45.4333V90.1702Z" fill="#432D69"/>
<path d="M48.4275 90.1702H47.999V92.6291H48.4275V90.1702Z" fill="#432D69"/>
<path d="M46.9978 90.1702H46.5693V92.6291H46.9978V90.1702Z" fill="#432D69"/>
<path d="M34.0831 17.6914L31.042 8.25609L31.3028 8.22815C31.4099 8.21417 33.8502 7.97201 34.4463 9.50886C34.7211 9.46694 35.2334 9.44831 35.7084 9.72774C36.1555 9.9932 36.4536 10.4496 36.5979 11.0923C36.9053 12.4522 36.2719 13.3137 35.8342 13.7282C36.6631 13.8726 38.4515 13.9844 39.1314 12.4894C38.7495 12.019 37.4362 10.105 39.2106 7.89283L39.3037 7.77641L39.4481 7.82763C39.476 7.83695 42.2517 8.85686 41.3016 12.0284C41.7254 12.3357 43.2297 13.2998 44.3614 12.387C44.068 12.3078 43.6814 12.1494 43.4066 11.8234C43.1133 11.4788 42.9968 11.0317 43.0667 10.4869C43.2297 9.21546 44.1611 8.82891 44.8178 8.77769C44.678 8.05118 44.529 6.09984 46.6853 4.92625L46.7877 4.87036L46.8902 4.92625C49.0464 6.09984 48.9021 8.05118 48.7577 8.77769C49.4143 8.82426 50.3504 9.21546 50.5088 10.4822C50.5786 11.0271 50.4622 11.4742 50.1688 11.8188C49.8894 12.1448 49.5075 12.3078 49.2094 12.3823C50.3411 13.2904 51.8454 12.3311 52.2692 12.0237C51.3144 8.84755 54.0901 7.83229 54.118 7.82298L54.2624 7.77175L54.3602 7.88818C56.1392 10.1003 54.8259 12.0144 54.444 12.4848C55.1193 13.9564 56.9123 13.854 57.7413 13.7189C57.3035 13.2998 56.6748 12.4382 56.9775 11.0876C57.1219 10.4449 57.4199 9.98388 57.867 9.72308C58.3374 9.44366 58.8497 9.46694 59.1291 9.5042C59.7252 7.96735 62.1655 8.21418 62.2727 8.22349L62.5335 8.25143L59.4923 17.6868L59.2502 17.4912C56.2044 15.0415 48.3385 14.9204 46.7924 14.9204C45.2462 14.9204 37.3803 15.0462 34.3346 17.4912L34.0924 17.6868L34.0831 17.6914ZM46.7831 14.492C48.9347 14.492 56.0507 14.6736 59.2642 16.9742L61.9513 8.63332C61.3226 8.61469 59.7671 8.69386 59.4737 9.80691L59.4178 10.0165L59.2083 9.95594C59.2083 9.95594 58.5889 9.78828 58.0766 10.091C57.7366 10.2913 57.5084 10.6592 57.392 11.1808C57.0148 12.876 58.3188 13.6444 58.3327 13.649L58.7705 13.9005L58.2862 14.0402C58.2536 14.0495 54.961 14.9623 53.9923 12.5267L53.9411 12.4009L54.0389 12.3031C54.1134 12.2286 55.7667 10.4682 54.1227 8.28403C53.6011 8.52155 51.8966 9.52283 52.7256 12.0377L52.7721 12.1774L52.6604 12.2705C51.8081 12.9644 49.8661 13.8772 48.5993 12.3823L48.3199 12.0516L48.7577 12.033C48.7577 12.033 49.4656 11.9958 49.8475 11.544C50.057 11.2972 50.1362 10.9572 50.085 10.5381C49.9033 9.10834 48.5621 9.19683 48.5062 9.20614L48.1802 9.23408L48.2827 8.92672C48.3153 8.83357 49.0138 6.64938 46.7877 5.36402C44.5523 6.65404 45.2602 8.83357 45.2928 8.92672L45.3952 9.23408L45.0692 9.20614C45.0134 9.20149 43.6721 9.10834 43.4905 10.5381C43.4392 10.9572 43.5184 11.2972 43.7327 11.544C44.1145 11.9958 44.8131 12.0284 44.8178 12.033L45.2509 12.0516L44.9714 12.3823C43.7094 13.8772 41.7673 12.9644 40.9151 12.2705L40.8033 12.1774L40.8499 12.0377C41.6789 9.52283 39.9697 8.52155 39.4481 8.28403C37.8134 10.4636 39.4621 12.2286 39.5319 12.3031L39.6251 12.4009L39.5738 12.5267C38.6145 14.9623 35.3126 14.0495 35.28 14.0402L34.7956 13.9005L35.2334 13.649C35.2893 13.6164 36.5514 12.8666 36.1741 11.1808C36.0577 10.6592 35.8249 10.2913 35.4895 10.091C34.9773 9.78363 34.3625 9.95128 34.3579 9.95594L34.1483 10.0165L34.0924 9.80691C33.8037 8.69386 32.2482 8.61934 31.6148 8.63797L34.302 16.9789C37.5154 14.6783 44.6315 14.4966 46.7831 14.4966V14.492Z" fill="#432D69"/>
<path d="M46.6625 18.0687C40.408 18.0687 34.2373 17.5425 34.1768 17.5378L34.214 17.114C34.2746 17.1187 40.4266 17.6403 46.6625 17.6403C52.8984 17.6403 59.2973 17.1187 59.3625 17.114L59.3997 17.5378C59.3345 17.5425 52.9217 18.0687 46.6672 18.0687H46.6625Z" fill="#432D69"/>
<path d="M75.9558 112.496L75.7834 112.278C75.7276 112.208 74.4841 110.629 74.1954 108.463C73.1755 109.227 71.8621 109.73 70.288 109.963L70.0133 110.005L70.0459 109.73C70.0552 109.642 70.2974 107.653 71.634 105.916C70.3719 105.739 69.0865 105.171 67.8105 104.225L67.5869 104.058L67.8058 103.885C67.8757 103.83 69.4637 102.595 71.6386 102.307C70.8748 101.291 70.3672 99.9874 70.1344 98.418L70.0924 98.1432L70.3719 98.1758C70.4604 98.1851 72.421 98.4226 74.1535 99.7173C74.2466 98.3388 74.8008 97.072 75.7928 95.9357L75.9371 95.7727L76.1001 95.9171C76.17 95.9776 77.6696 97.3421 77.8652 99.6567C78.9037 98.7719 80.1844 98.2736 81.67 98.1758L81.8889 98.1618L81.8982 98.376C81.9029 98.4645 81.9914 100.49 80.4871 102.265C81.8517 102.367 83.1091 102.917 84.2315 103.89L84.3945 104.034L84.2501 104.197C84.1896 104.267 82.8157 105.758 80.4871 105.953C81.3767 106.982 81.875 108.254 81.9774 109.739L81.9914 109.954L81.7725 109.963C81.6747 109.968 79.6116 110.056 77.814 108.519C77.623 109.767 77.0548 111.025 76.1234 112.273L75.9558 112.496ZM74.5493 107.616L74.5819 108.035C74.7123 109.791 75.5832 111.234 75.9511 111.779C76.836 110.536 77.3343 109.283 77.4367 108.058L77.474 107.602L77.8 107.923C79.2018 109.306 80.9203 109.507 81.5257 109.53C81.3813 108.081 80.8225 106.866 79.8584 105.907L79.4998 105.548H80.0121C81.9728 105.529 83.3233 104.468 83.7704 104.062C82.6434 103.145 81.3813 102.675 80.0168 102.67H79.5045L79.8631 102.307C81.2463 100.914 81.4418 99.2143 81.4651 98.6182C80.0168 98.7626 78.792 99.3168 77.8186 100.276L77.4554 100.635V100.127C77.4367 98.1758 76.3702 96.8345 75.9604 96.3968C75.0337 97.5238 74.5633 98.7859 74.5633 100.15V100.611L74.2093 100.313C72.8727 99.1771 71.2428 98.7719 70.6001 98.6461C70.8655 100.164 71.4058 101.408 72.2068 102.339L72.4815 102.661L72.0577 102.693C70.2927 102.824 68.8443 103.685 68.2995 104.058C69.5662 104.947 70.8283 105.441 72.0577 105.534L72.4815 105.567L72.2068 105.888C71.0518 107.225 70.6373 108.855 70.5162 109.497C72.0391 109.236 73.2872 108.696 74.228 107.895L74.5493 107.62V107.616Z" fill="#432D69"/>
<path d="M76.0115 105.902C75.0195 105.902 74.2139 105.101 74.2139 104.114C74.2139 103.126 75.0195 102.325 76.0115 102.325C77.0035 102.325 77.8092 103.126 77.8092 104.114C77.8092 105.101 77.0035 105.902 76.0115 105.902ZM76.0115 102.754C75.2571 102.754 74.6423 103.364 74.6423 104.114C74.6423 104.864 75.2571 105.474 76.0115 105.474C76.766 105.474 77.3807 104.864 77.3807 104.114C77.3807 103.364 76.766 102.754 76.0115 102.754Z" fill="#432D69"/>
<path d="M18.6313 112.496L18.459 112.278C18.4031 112.208 17.1597 110.629 16.8663 108.463C15.8464 109.227 14.5331 109.73 12.9636 109.963L12.6888 110.005L12.7214 109.73C12.7307 109.642 12.9729 107.653 14.3049 105.916C13.0474 105.739 11.7621 105.171 10.4814 104.225L10.2578 104.058L10.4767 103.885C10.5466 103.83 12.1346 102.595 14.3142 102.307C13.5457 101.291 13.0381 99.9874 12.8053 98.418L12.7633 98.1432L13.0428 98.1758C13.1313 98.1851 15.0966 98.4226 16.829 99.7173C16.9222 98.3434 17.4717 97.0767 18.4683 95.9357L18.6127 95.7727L18.7757 95.9171C18.8455 95.9776 20.3405 97.3421 20.5407 99.6567C21.5793 98.7719 22.8553 98.2736 24.3409 98.1711L24.5598 98.1571L24.5738 98.3714C24.5785 98.4645 24.6716 100.486 23.1674 102.26C24.5272 102.363 25.7847 102.912 26.907 103.885L27.07 104.03L26.9257 104.193C26.8651 104.263 25.4913 105.753 23.1674 105.949C24.0569 106.982 24.5552 108.254 24.6576 109.735L24.6716 109.949L24.4527 109.958C24.3596 109.968 22.2918 110.051 20.4895 108.515C20.3032 109.753 19.7351 111.015 18.8036 112.268L18.636 112.492L18.6313 112.496ZM17.2156 107.616L17.2482 108.035C17.3832 109.795 18.2494 111.234 18.622 111.779C19.5069 110.526 20.0052 109.278 20.103 108.058L20.1402 107.602L20.4662 107.923C21.8773 109.311 23.5958 109.507 24.1966 109.535C24.0522 108.095 23.4934 106.875 22.5293 105.907L22.1707 105.548H22.6784C24.639 105.529 25.9896 104.468 26.432 104.062C25.305 103.145 24.0429 102.675 22.683 102.67H22.1707L22.5293 102.307C23.9078 100.919 24.1034 99.2143 24.1267 98.6182C22.6784 98.7626 21.4582 99.3168 20.4849 100.276L20.1216 100.63V100.122C20.103 98.1711 19.0365 96.8299 18.6267 96.3921C17.6952 97.5238 17.2249 98.7859 17.2295 100.146V100.611L16.8756 100.309C15.5343 99.1724 13.9043 98.7626 13.2617 98.6415C13.5271 100.16 14.0673 101.398 14.873 102.335L15.1478 102.656L14.724 102.689C12.9543 102.819 11.5059 103.681 10.961 104.048C12.2324 104.938 13.4945 105.432 14.7193 105.525L15.1431 105.557L14.8684 105.879C13.7134 107.22 13.3036 108.845 13.1778 109.493C14.7007 109.232 15.9442 108.692 16.8849 107.891L17.2062 107.616H17.2156Z" fill="#432D69"/>
<path d="M18.6775 105.902C17.6856 105.902 16.8799 105.101 16.8799 104.114C16.8799 103.126 17.6856 102.325 18.6775 102.325C19.6695 102.325 20.4752 103.126 20.4752 104.114C20.4752 105.101 19.6695 105.902 18.6775 105.902ZM18.6775 102.754C17.9231 102.754 17.3083 103.364 17.3083 104.114C17.3083 104.864 17.9231 105.474 18.6775 105.474C19.432 105.474 20.0467 104.864 20.0467 104.114C20.0467 103.364 19.432 102.754 18.6775 102.754Z" fill="#432D69"/>
<path d="M51.9953 39.2677L47.7666 30.6846L51.9953 22.1108L52.3818 22.3018L48.2416 30.6893L52.3818 39.0767L51.9953 39.2677Z" fill="#432D69"/>
<path d="M41.3343 39.2726L40.957 39.0723L45.4651 30.8525L40.957 22.3067L41.3343 22.1064L45.9495 30.8572L41.3343 39.2726Z" fill="#432D69"/>
<path d="M52.7304 22.4185H40.8407C40.0723 22.4185 39.4482 21.7944 39.4482 21.0306C39.4482 20.6627 39.5926 20.3134 39.8534 20.048C40.1235 19.7872 40.4728 19.6428 40.8454 19.6428H52.735C53.5034 19.6428 54.1275 20.2669 54.1275 21.0306C54.1275 21.3986 53.9831 21.7478 53.7223 22.0133C53.4522 22.2741 53.1029 22.4185 52.735 22.4185H52.7304ZM40.8407 20.0713C40.5846 20.0713 40.3378 20.1691 40.1561 20.3507C39.9792 20.5323 39.8767 20.7745 39.8767 21.0306C39.8767 21.5616 40.3098 21.99 40.8407 21.99H52.7304C52.9865 21.99 53.2287 21.8922 53.415 21.7106C53.5919 21.529 53.6944 21.2868 53.6944 21.0306C53.6944 20.4997 53.2613 20.0713 52.735 20.0713H40.8454H40.8407Z" fill="#432D69"/>
<path d="M52.7304 41.7314H40.8407C40.0723 41.7314 39.4482 41.112 39.4482 40.3483C39.4482 39.985 39.5973 39.6264 39.8534 39.3703C40.1189 39.1048 40.4682 38.9604 40.8407 38.9604H52.7304C53.4988 38.9604 54.1228 39.5845 54.1228 40.3483C54.1228 40.7115 53.9785 41.0608 53.7177 41.3263C53.4476 41.5871 53.0983 41.7314 52.7304 41.7314ZM40.8407 39.3842C40.5846 39.3842 40.3378 39.4867 40.1561 39.6683C39.9792 39.8453 39.8767 40.0921 39.8767 40.3436C39.8767 40.8699 40.3098 41.2983 40.8407 41.2983H52.7304C52.9865 41.2983 53.2287 41.2005 53.415 41.0189C53.5919 40.8373 53.6944 40.5951 53.6944 40.3436C53.6944 39.8127 53.2613 39.3842 52.735 39.3842H40.8454H40.8407Z" fill="#432D69"/>
<path d="M47.5985 35.4212C47.2026 35.4212 46.7835 35.2302 46.3923 34.867C46.2665 34.7552 46.1501 34.6294 46.0337 34.5037C45.8288 34.2848 45.6332 34.0799 45.405 33.9309C45.0883 33.7306 44.6272 33.6514 44.3618 33.8936L44.0684 33.5816C44.5108 33.1718 45.1907 33.2882 45.6332 33.5723C45.9079 33.7492 46.1315 33.9821 46.3457 34.2103C46.4575 34.3267 46.5646 34.4432 46.681 34.5503C46.8952 34.7505 47.319 35.0672 47.7521 34.9787C48.0176 34.9182 48.2411 34.704 48.474 34.4758L48.5765 34.378C48.8233 34.1404 49.2098 33.8238 49.6755 33.8517C49.6988 33.8517 49.7361 33.8517 49.7733 33.861L49.6895 34.2802C49.4287 34.2662 49.1726 34.4012 48.8699 34.69L48.7674 34.7878C48.5159 35.0346 48.2272 35.3094 47.8406 35.3979C47.7568 35.4165 47.6776 35.4258 47.5891 35.4258L47.5985 35.4212Z" fill="#432D69"/>
<path d="M45.6048 27.9695L43.1133 23.4894L43.4858 23.2798L45.9821 27.7646L45.6048 27.9695Z" fill="#432D69"/>
<path d="M48.004 30.6382H45.708V31.0666H48.004V30.6382Z" fill="#432D69"/>
<path d="M5.29369 16.9975L4.92578 16.774C4.92578 16.774 4.94441 16.746 4.99098 16.6855C5.54984 15.9171 10.9474 8.98261 26.7723 5.52236C31.7089 4.44191 37.2136 3.80389 43.1375 3.63623H49.9415C55.749 3.80854 61.1652 4.41863 66.0505 5.45717C82.2759 8.89878 87.9902 15.9124 88.5863 16.6995C88.6282 16.746 88.6469 16.7786 88.6469 16.7786L88.2743 16.9929L88.2417 16.9556C87.6549 16.1779 82.0338 9.28066 65.9574 5.87631C61.1 4.84708 55.707 4.237 49.9322 4.06468H43.1421C37.2509 4.23234 31.7741 4.86571 26.8608 5.9415C11.1896 9.36915 5.88515 16.1825 5.33095 16.9463C5.30301 16.9789 5.29369 16.9929 5.29369 16.9975Z" fill="#432D69"/>
<path d="M46.0947 98.4272H43.6311C37.4791 98.2502 31.7648 97.5749 26.6419 96.4153C11.0406 92.8992 5.55915 86.1277 4.98632 85.364C4.94441 85.3221 4.92578 85.2895 4.92578 85.2895L5.29369 85.0659L5.33095 85.1078C5.89446 85.8576 11.2828 92.5127 26.7397 95.9962C31.8346 97.1465 37.521 97.8218 43.6404 97.9987H50.4305C56.0517 97.8311 61.3002 97.2489 66.0272 96.2663C82.22 92.8945 87.6735 85.9042 88.237 85.1171C88.2603 85.0845 88.2743 85.0706 88.2743 85.0659L88.6422 85.2848C88.6422 85.2848 88.6236 85.3127 88.577 85.3733C88.0042 86.165 82.4622 93.2811 66.1111 96.6808C61.3608 97.6681 56.0843 98.2549 50.4305 98.4225H46.0901L46.0947 98.4272Z" fill="#432D69"/>
<path d="M47.4265 0.246007H46.998V-1.0347H47.4265V0.246007ZM47.4265 -2.74386H46.998V-7.8667H47.4265V-2.74386Z" fill="#815DEF"/>
<path d="M46.3083 114.215H45.8799V109.092H46.3083V114.215ZM46.3083 107.383H45.8799V106.103H46.3083V107.383ZM46.3083 100.98H45.8799V99.2705H46.3083V100.98Z" fill="#432D69"/>
<path d="M42.434 114.355L39.0203 110.522L39.3416 110.238L42.7553 114.071L42.434 114.355ZM37.884 109.241L37.0317 108.282L37.353 107.998L38.2053 108.957L37.884 109.241ZM33.618 104.449L32.4817 103.168L32.803 102.884L33.9394 104.165L33.618 104.449ZM31.6248 102.209L28.2111 98.3762L28.5325 98.0921L31.9461 101.925L31.6248 102.209ZM27.0748 97.0955L26.502 96.4528L26.8233 96.1687L27.3961 96.8114L27.0748 97.0955Z" fill="#432D69"/>
<path d="M50.4483 114.355L50.127 114.071L53.5406 110.233L53.862 110.517L50.4483 114.355ZM54.9983 109.241L54.677 108.957L55.5292 107.998L55.8506 108.282L54.9983 109.241ZM59.2642 104.449L58.9429 104.165L60.0792 102.889L60.4006 103.173L59.2642 104.454V104.449ZM61.2575 102.209L60.9361 101.925L64.3498 98.0874L64.6711 98.3715L61.2575 102.209ZM65.8075 97.0955L65.4861 96.8114L66.0543 96.1687L66.3757 96.4481L65.8028 97.0908L65.8075 97.0955Z" fill="#432D69"/>
<path d="M25.1232 18.3015L23.8658 16.0056L21.5605 14.7574L23.8658 13.5047L25.1232 11.2134L26.3853 13.5047L28.6859 14.7574L26.3853 16.0056L25.1232 18.3015ZM22.4594 14.7574L24.1872 15.6935L25.1279 17.412L26.0733 15.6935L27.7964 14.7574L26.0733 13.8167L25.1279 12.1029L24.1872 13.8167L22.4594 14.7574Z" fill="#432D69"/>
<path d="M20.1584 66.1582L18.901 63.8623L16.5957 62.6141L18.901 61.3614L20.1584 59.0701L21.4205 61.3614L23.7211 62.6141L21.4205 63.8623L20.1584 66.1582ZM17.4899 62.6141L19.2177 63.5502L20.1584 65.2687L21.1038 63.5502L22.8269 62.6141L21.1038 61.6734L20.1584 59.9596L19.2177 61.6734L17.4899 62.6141Z" fill="#432D69"/>
<path d="M12.3768 25.306L11.5432 23.7785L10.0156 22.9449L11.5432 22.1112L12.3768 20.593L13.2197 22.1112L14.7519 22.9449L13.2244 23.7785L12.3814 25.306H12.3768ZM10.9098 22.9495L11.8598 23.4665L12.3814 24.4165L12.903 23.4665L13.8531 22.9495L12.903 22.4326L12.3814 21.4872L11.8598 22.4326L10.9098 22.9495Z" fill="#432D69"/>
<path d="M33.5848 54.1427L32.7512 52.6244L31.2236 51.7908L32.7512 50.9572L33.5848 49.439L34.4277 50.9572L35.9553 51.7908L34.4277 52.6244L33.5848 54.1427ZM32.1131 51.7908L33.0632 52.3078L33.5848 53.2531L34.111 52.3078L35.0611 51.7908L34.111 51.2739L33.5848 50.3285L33.0632 51.2739L32.1131 51.7908Z" fill="#432D69"/>
<path d="M24.9557 50.3285L24.1174 48.801L22.5898 47.9673L24.1174 47.1337L24.9557 45.6108L25.7939 47.1337L27.3215 47.9673L25.7939 48.801L24.9557 50.3285ZM23.4887 47.9673L24.4387 48.4843L24.9603 49.4343L25.4819 48.4843L26.432 47.9673L25.4819 47.4504L24.9603 46.505L24.4387 47.4504L23.4887 47.9673Z" fill="#432D69"/>
<path d="M14.0768 71.5001L13.2385 69.9772L11.7109 69.1483L13.2385 68.3146L14.0768 66.7917L14.915 68.3146L16.4426 69.1483L14.915 69.9772L14.0768 71.5001ZM12.6051 69.1483L13.5552 69.6652L14.0768 70.6106L14.5984 69.6652L15.5484 69.1483L14.5984 68.6313L14.0768 67.6859L13.5552 68.6313L12.6051 69.1483Z" fill="#432D69"/>
<path d="M28.1178 85.6249L27.2795 84.102L25.752 83.2684L27.2795 82.4347L28.1178 80.9119L28.9561 82.4347L30.4836 83.2684L28.9561 84.102L28.1178 85.6249ZM26.6461 83.273L27.5962 83.79L28.1178 84.7354L28.6394 83.79L29.5894 83.273L28.6394 82.7561L28.1178 81.8107L27.5962 82.7561L26.6461 83.273Z" fill="#432D69"/>
<path d="M68.7607 18.3015L67.4986 16.0056L65.1934 14.7574L67.4986 13.5047L68.7607 11.2134L70.0181 13.5047L72.3234 14.7574L70.0181 16.0056L68.7607 18.3015ZM66.0922 14.7574L67.82 15.6935L68.7654 17.412L69.7061 15.6935L71.4339 14.7574L69.7061 13.8167L68.7654 12.1029L67.82 13.8167L66.0922 14.7574Z" fill="#432D69"/>
<path d="M73.7248 66.1582L72.4674 63.8623L70.1621 62.6141L72.4674 61.3614L73.7248 59.0701L74.9869 61.3614L77.2875 62.6141L74.9869 63.8623L73.7248 66.1582ZM71.0563 62.6141L72.7841 63.5502L73.7248 65.2687L74.6702 63.5502L76.3933 62.6141L74.6702 61.6734L73.7248 59.9596L72.7841 61.6734L71.0563 62.6141Z" fill="#432D69"/>
<path d="M81.5025 25.306L80.6643 23.7785L79.1367 22.9449L80.6689 22.1113L81.5025 20.5884L82.3408 22.1113L83.8777 22.9449L82.3408 23.7785L81.5025 25.306ZM80.0355 22.9495L80.9856 23.4665L81.5025 24.4165L82.0241 23.4665L82.9788 22.9495L82.0241 22.4326L81.5025 21.4872L80.9809 22.4326L80.0309 22.9495H80.0355Z" fill="#432D69"/>
<path d="M60.2984 54.1429L59.4602 52.6201L57.9326 51.7864L59.4602 50.9528L60.2984 49.4299L61.1367 50.9528L62.6736 51.7864L61.1367 52.6201L60.2984 54.1429ZM58.8268 51.7911L59.7768 52.308L60.2984 53.2534L60.82 52.308L61.7747 51.7911L60.82 51.2742L60.2984 50.3288L59.7768 51.2742L58.8268 51.7911Z" fill="#432D69"/>
<path d="M68.9283 50.3285L68.09 48.801L66.5625 47.9673L68.09 47.1337L68.9283 45.6108L69.7666 47.1337L71.2988 47.9673L69.7713 48.801L68.933 50.3285H68.9283ZM67.4567 47.9673L68.4067 48.4843L68.9283 49.4343L69.4499 48.4843L70.4 47.9673L69.4499 47.4504L68.9283 46.505L68.4067 47.4504L67.4567 47.9673Z" fill="#432D69"/>
<path d="M79.8026 71.5001L78.9689 69.9772L77.4414 69.1483L78.9689 68.3146L79.8026 66.7917L80.6455 68.31L82.173 69.1436L80.6455 69.9772L79.8026 71.4954V71.5001ZM78.3309 69.1483L79.281 69.6652L79.8026 70.6106L80.3242 69.6652L81.2742 69.1483L80.3242 68.6313L79.8026 67.6859L79.281 68.6313L78.3309 69.1483Z" fill="#432D69"/>
<path d="M65.7701 85.6249L64.9318 84.102L63.4043 83.2684L64.9318 82.4347L65.7701 80.9119L66.6084 82.4347L68.1359 83.2684L66.6084 84.102L65.7701 85.6249ZM64.2985 83.273L65.2485 83.79L65.7701 84.7354L66.2917 83.79L67.2418 83.273L66.2917 82.7561L65.7701 81.8107L65.2485 82.7561L64.2985 83.273Z" fill="#432D69"/>
<path d="M4.99037 81.5358L0.580078 76.8926V76.711V76.2686L5.3024 81.2424L4.99037 81.5358Z" fill="#432D69"/>
<path d="M0.580078 9.31319V8.72639L0.715135 8.60065L5.13009 4.45581L5.42349 4.76784L5.29774 4.88427L0.580078 9.31319Z" fill="#432D69"/>
<path d="M4.99037 90.9154L0.580078 86.263V85.5784L1.0877 86.1698L5.3024 90.622L4.99037 90.9154Z" fill="#432D69"/>
<path d="M0.580078 55.3956V54.9532C0.580078 54.9532 0.794306 54.8368 0.80362 54.8321C2.42896 54.0171 2.41033 52.4803 2.3917 50.8549C2.3917 50.6873 2.3917 50.515 2.3917 50.3473V36.3946C2.54073 34.7879 2.78755 32.1333 5.11146 32.1333C5.13009 32.1333 5.14871 32.1333 5.16269 32.1333C5.2046 32.1333 5.25117 32.1333 5.29309 32.138L5.24186 32.5618C5.21391 32.5618 5.18597 32.5618 5.15803 32.5618C3.33244 32.5385 3.00644 34.4479 2.82015 36.4132V50.3473C2.82015 50.515 2.82015 50.6826 2.82015 50.8503C2.83878 52.5362 2.85741 54.2826 0.989905 55.214C0.985248 55.214 0.584735 55.391 0.580078 55.391L0.580078 55.3956Z" fill="#432D69"/>
<path d="M88.5806 81.5362L88.2686 81.2428L92.9909 76.2737V76.8977L92.8651 77.0281L88.5806 81.5362Z" fill="#432D69"/>
<path d="M92.9777 9.3225L92.5632 8.91268L88.2041 4.81907L88.4416 4.45581L88.5627 4.56758L92.9916 8.72639L92.9777 9.3225Z" fill="#432D69"/>
<path d="M88.5806 90.9154L88.2686 90.622L92.9909 85.6436V86.2676L92.8651 86.398L88.5806 90.9154Z" fill="#432D69"/>
<path d="M92.9913 55.4189C92.9913 55.4189 92.5722 55.214 92.5582 55.2093C90.7093 54.2732 90.7326 52.5361 90.7513 50.8549C90.7513 50.6873 90.7513 50.5196 90.7513 50.3519V36.3992C90.5696 34.4665 90.2436 32.5664 88.4599 32.5664C88.446 32.5664 88.432 32.5664 88.4134 32.5664C88.3854 32.5664 88.3528 32.5664 88.3249 32.5664L88.2783 32.1426C88.3435 32.1379 88.4041 32.1379 88.4599 32.1379C90.7792 32.1379 91.026 34.7925 91.1751 36.3806V50.3519C91.1751 50.5196 91.1751 50.6873 91.1751 50.8596C91.1564 52.4803 91.1378 54.0124 92.7538 54.8274C92.7631 54.8321 92.9774 54.9159 92.9867 54.9206V55.4189H92.9913Z" fill="#432D69"/>
<path d="M8 0.5H86C90.1421 0.5 93.5 3.85786 93.5 8V114.5H0.5V8C0.500001 3.85787 3.85787 0.5 8 0.5Z" stroke="#815DEF"/>
</g>
<path d="M29.8704 138.048V136.464H31.6824C32.1384 136.464 32.5424 136.396 32.8944 136.26C33.2544 136.116 33.5584 135.916 33.8064 135.66C34.0544 135.404 34.2424 135.104 34.3704 134.76C34.5064 134.408 34.5744 134.02 34.5744 133.596C34.5744 133.156 34.5064 132.764 34.3704 132.42C34.2424 132.068 34.0544 131.768 33.8064 131.52C33.5584 131.272 33.2544 131.084 32.8944 130.956C32.5424 130.828 32.1384 130.764 31.6824 130.764H29.8704V129.18H31.5744C32.3664 129.18 33.0584 129.296 33.6504 129.528C34.2424 129.76 34.7344 130.08 35.1264 130.488C35.5184 130.888 35.8104 131.348 36.0024 131.868C36.2024 132.38 36.3024 132.912 36.3024 133.464V133.728C36.3024 134.256 36.2024 134.776 36.0024 135.288C35.8104 135.8 35.5184 136.264 35.1264 136.68C34.7344 137.096 34.2424 137.428 33.6504 137.676C33.0584 137.924 32.3664 138.048 31.5744 138.048H29.8704ZM28.4064 138.048V129.18H30.1104V138.048H28.4064ZM40.7323 138.228C40.1723 138.228 39.6803 138.132 39.2563 137.94C38.8403 137.748 38.4923 137.492 38.2123 137.172C37.9403 136.844 37.7323 136.48 37.5883 136.08C37.4523 135.68 37.3843 135.272 37.3843 134.856V134.628C37.3843 134.196 37.4523 133.78 37.5883 133.38C37.7323 132.972 37.9403 132.612 38.2123 132.3C38.4923 131.98 38.8363 131.728 39.2443 131.544C39.6523 131.352 40.1243 131.256 40.6603 131.256C41.3643 131.256 41.9523 131.412 42.4243 131.724C42.9043 132.028 43.2643 132.432 43.5043 132.936C43.7443 133.432 43.8643 133.968 43.8643 134.544V135.144H38.0923V134.124H42.8203L42.3043 134.628C42.3043 134.212 42.2443 133.856 42.1243 133.56C42.0043 133.264 41.8203 133.036 41.5723 132.876C41.3323 132.716 41.0283 132.636 40.6603 132.636C40.2923 132.636 39.9803 132.72 39.7243 132.888C39.4683 133.056 39.2723 133.3 39.1363 133.62C39.0083 133.932 38.9443 134.308 38.9443 134.748C38.9443 135.156 39.0083 135.52 39.1363 135.84C39.2643 136.152 39.4603 136.4 39.7243 136.584C39.9883 136.76 40.3243 136.848 40.7323 136.848C41.1403 136.848 41.4723 136.768 41.7283 136.608C41.9843 136.44 42.1483 136.236 42.2203 135.996H43.7563C43.6603 136.444 43.4763 136.836 43.2043 137.172C42.9323 137.508 42.5843 137.768 42.1603 137.952C41.7443 138.136 41.2683 138.228 40.7323 138.228ZM49.3257 138V136.068H49.0497V133.92C49.0497 133.544 48.9577 133.264 48.7737 133.08C48.5897 132.896 48.3057 132.804 47.9217 132.804C47.7217 132.804 47.4817 132.808 47.2017 132.816C46.9217 132.824 46.6377 132.836 46.3497 132.852C46.0697 132.86 45.8177 132.872 45.5937 132.888V131.472C45.7777 131.456 45.9857 131.44 46.2177 131.424C46.4497 131.408 46.6857 131.4 46.9257 131.4C47.1737 131.392 47.4057 131.388 47.6217 131.388C48.2937 131.388 48.8497 131.476 49.2897 131.652C49.7377 131.828 50.0737 132.104 50.2977 132.48C50.5297 132.856 50.6457 133.348 50.6457 133.956V138H49.3257ZM47.2257 138.168C46.7537 138.168 46.3377 138.084 45.9777 137.916C45.6257 137.748 45.3497 137.508 45.1497 137.196C44.9577 136.884 44.8617 136.508 44.8617 136.068C44.8617 135.588 44.9777 135.196 45.2097 134.892C45.4497 134.588 45.7817 134.36 46.2057 134.208C46.6377 134.056 47.1417 133.98 47.7177 133.98H49.2297V134.976H47.6937C47.3097 134.976 47.0137 135.072 46.8057 135.264C46.6057 135.448 46.5057 135.688 46.5057 135.984C46.5057 136.28 46.6057 136.52 46.8057 136.704C47.0137 136.888 47.3097 136.98 47.6937 136.98C47.9257 136.98 48.1377 136.94 48.3297 136.86C48.5297 136.772 48.6937 136.628 48.8217 136.428C48.9577 136.22 49.0337 135.94 49.0497 135.588L49.4577 136.056C49.4177 136.512 49.3057 136.896 49.1217 137.208C48.9457 137.52 48.6977 137.76 48.3777 137.928C48.0657 138.088 47.6817 138.168 47.2257 138.168ZM55.3844 138.084C54.7844 138.084 54.2884 138.008 53.8964 137.856C53.5124 137.696 53.2244 137.432 53.0324 137.064C52.8404 136.688 52.7444 136.184 52.7444 135.552L52.7564 129.648H54.3164L54.3044 135.66C54.3044 135.98 54.3884 136.228 54.5564 136.404C54.7324 136.572 54.9804 136.656 55.3004 136.656H56.3204V138.084H55.3844ZM51.7124 132.708V131.484H56.3204V132.708H51.7124ZM57.8403 138V129.24H59.5083V134.352H59.2203C59.2203 133.696 59.3043 133.14 59.4723 132.684C59.6403 132.228 59.8883 131.88 60.2163 131.64C60.5523 131.4 60.9763 131.28 61.4883 131.28H61.5603C62.3043 131.28 62.8683 131.536 63.2523 132.048C63.6363 132.56 63.8283 133.304 63.8283 134.28V138H62.1603V134.124C62.1603 133.708 62.0403 133.38 61.8003 133.14C61.5683 132.9 61.2603 132.78 60.8763 132.78C60.4683 132.78 60.1363 132.916 59.8803 133.188C59.6323 133.452 59.5083 133.8 59.5083 134.232V138H57.8403Z" fill="#432D69"/>
</svg>
