<svg width="94" height="156" viewBox="0 0 94 156" fill="none" xmlns="http://www.w3.org/2000/svg">
<rect x="0.5" y="0.5" width="93" height="155" rx="7.5" fill="#FAF9F6" stroke="#815DEF"/>
<path d="M14.8661 138.228C14.2341 138.228 13.6781 138.104 13.1981 137.856C12.7181 137.608 12.3461 137.244 12.0821 136.764C11.8181 136.284 11.6861 135.696 11.6861 135V134.616H13.3781V135.144C13.3781 135.608 13.5141 135.976 13.7861 136.248C14.0581 136.512 14.4141 136.644 14.8541 136.644C15.3021 136.644 15.6581 136.512 15.9221 136.248C16.1941 135.976 16.3301 135.608 16.3301 135.144V130.5H18.0341V135C18.0341 135.696 17.9021 136.284 17.6381 136.764C17.3741 137.244 17.0061 137.608 16.5341 137.856C16.0621 138.104 15.5061 138.228 14.8661 138.228ZM12.7541 130.74V129.24H18.0341V130.74H12.7541ZM22.2533 138.204C21.5013 138.204 20.9173 137.956 20.5013 137.46C20.0933 136.964 19.8893 136.228 19.8893 135.252V131.472H21.5573V135.396C21.5573 135.796 21.6693 136.116 21.8933 136.356C22.1173 136.588 22.4213 136.704 22.8053 136.704C23.1893 136.704 23.5013 136.58 23.7413 136.332C23.9893 136.084 24.1133 135.748 24.1133 135.324V131.472H25.7813V138H24.4613V135.228H24.5933C24.5933 135.884 24.5093 136.432 24.3413 136.872C24.1733 137.312 23.9213 137.644 23.5853 137.868C23.2493 138.092 22.8293 138.204 22.3253 138.204H22.2533ZM30.5174 138.216C30.0614 138.216 29.6414 138.132 29.2574 137.964C28.8734 137.796 28.5414 137.56 28.2614 137.256C27.9814 136.952 27.7654 136.6 27.6134 136.2C27.4614 135.792 27.3854 135.352 27.3854 134.88V134.628C27.3854 134.164 27.4574 133.728 27.6014 133.32C27.7534 132.912 27.9614 132.556 28.2254 132.252C28.4974 131.948 28.8214 131.712 29.1974 131.544C29.5814 131.368 30.0054 131.28 30.4694 131.28C30.9814 131.28 31.4294 131.392 31.8134 131.616C32.2054 131.832 32.5174 132.16 32.7494 132.6C32.9814 133.04 33.1094 133.592 33.1334 134.256L32.6414 133.68V129.24H34.3094V138H32.9894V135.228H33.2774C33.2534 135.892 33.1174 136.448 32.8694 136.896C32.6214 137.336 32.2934 137.668 31.8854 137.892C31.4854 138.108 31.0294 138.216 30.5174 138.216ZM30.8894 136.812C31.2174 136.812 31.5174 136.74 31.7894 136.596C32.0614 136.444 32.2774 136.228 32.4374 135.948C32.6054 135.66 32.6894 135.324 32.6894 134.94V134.46C32.6894 134.076 32.6054 133.756 32.4374 133.5C32.2694 133.236 32.0494 133.036 31.7774 132.9C31.5054 132.756 31.2094 132.684 30.8894 132.684C30.5294 132.684 30.2094 132.772 29.9294 132.948C29.6574 133.116 29.4414 133.356 29.2814 133.668C29.1294 133.98 29.0534 134.344 29.0534 134.76C29.0534 135.176 29.1334 135.54 29.2934 135.852C29.4534 136.156 29.6694 136.392 29.9414 136.56C30.2214 136.728 30.5374 136.812 30.8894 136.812ZM38.872 140.568C38.56 140.568 38.24 140.556 37.912 140.532C37.592 140.508 37.292 140.476 37.012 140.436V139.044C37.3 139.076 37.608 139.104 37.936 139.128C38.264 139.16 38.572 139.176 38.86 139.176C39.396 139.176 39.828 139.112 40.156 138.984C40.492 138.856 40.736 138.652 40.888 138.372C41.048 138.1 41.128 137.752 41.128 137.328V136.044L41.488 135.228C41.464 135.828 41.34 136.34 41.116 136.764C40.892 137.18 40.588 137.5 40.204 137.724C39.82 137.94 39.376 138.048 38.872 138.048C38.424 138.048 38.016 137.964 37.648 137.796C37.288 137.628 36.976 137.396 36.712 137.1C36.456 136.804 36.256 136.456 36.112 136.056C35.968 135.656 35.896 135.228 35.896 134.772V134.52C35.896 134.064 35.968 133.64 36.112 133.248C36.264 132.848 36.476 132.5 36.748 132.204C37.02 131.908 37.344 131.68 37.72 131.52C38.096 131.36 38.512 131.28 38.968 131.28C39.504 131.28 39.968 131.396 40.36 131.628C40.76 131.86 41.072 132.196 41.296 132.636C41.52 133.076 41.644 133.616 41.668 134.256L41.38 134.304V131.484H42.7V137.232C42.7 138.024 42.564 138.664 42.292 139.152C42.02 139.64 41.6 139.996 41.032 140.22C40.472 140.452 39.752 140.568 38.872 140.568ZM39.352 136.62C39.672 136.62 39.964 136.548 40.228 136.404C40.492 136.26 40.704 136.052 40.864 135.78C41.024 135.508 41.104 135.18 41.104 134.796V134.376C41.104 134.008 41.02 133.696 40.852 133.44C40.692 133.184 40.48 132.992 40.216 132.864C39.952 132.728 39.664 132.66 39.352 132.66C39 132.66 38.688 132.744 38.416 132.912C38.152 133.072 37.944 133.3 37.792 133.596C37.64 133.892 37.564 134.244 37.564 134.652C37.564 135.052 37.64 135.4 37.792 135.696C37.944 135.992 38.152 136.22 38.416 136.38C38.688 136.54 39 136.62 39.352 136.62ZM47.5554 138.228C46.9954 138.228 46.5034 138.132 46.0794 137.94C45.6634 137.748 45.3154 137.492 45.0354 137.172C44.7634 136.844 44.5554 136.48 44.4114 136.08C44.2754 135.68 44.2074 135.272 44.2074 134.856V134.628C44.2074 134.196 44.2754 133.78 44.4114 133.38C44.5554 132.972 44.7634 132.612 45.0354 132.3C45.3154 131.98 45.6594 131.728 46.0674 131.544C46.4754 131.352 46.9474 131.256 47.4834 131.256C48.1874 131.256 48.7754 131.412 49.2474 131.724C49.7274 132.028 50.0874 132.432 50.3274 132.936C50.5674 133.432 50.6874 133.968 50.6874 134.544V135.144H44.9154V134.124H49.6434L49.1274 134.628C49.1274 134.212 49.0674 133.856 48.9474 133.56C48.8274 133.264 48.6434 133.036 48.3954 132.876C48.1554 132.716 47.8514 132.636 47.4834 132.636C47.1154 132.636 46.8034 132.72 46.5474 132.888C46.2914 133.056 46.0954 133.3 45.9594 133.62C45.8314 133.932 45.7674 134.308 45.7674 134.748C45.7674 135.156 45.8314 135.52 45.9594 135.84C46.0874 136.152 46.2834 136.4 46.5474 136.584C46.8114 136.76 47.1474 136.848 47.5554 136.848C47.9634 136.848 48.2954 136.768 48.5514 136.608C48.8074 136.44 48.9714 136.236 49.0434 135.996H50.5794C50.4834 136.444 50.2994 136.836 50.0274 137.172C49.7554 137.508 49.4074 137.768 48.9834 137.952C48.5674 138.136 48.0914 138.228 47.5554 138.228ZM52.2008 138V131.484H53.5208V134.28H53.4008C53.4008 133.624 53.4848 133.076 53.6528 132.636C53.8208 132.188 54.0688 131.852 54.3968 131.628C54.7328 131.396 55.1488 131.28 55.6448 131.28H55.7168C56.2208 131.28 56.6368 131.396 56.9648 131.628C57.3008 131.852 57.5488 132.188 57.7088 132.636C57.8768 133.076 57.9608 133.624 57.9608 134.28H57.5408C57.5408 133.624 57.6248 133.076 57.7928 132.636C57.9688 132.188 58.2208 131.852 58.5488 131.628C58.8848 131.396 59.3008 131.28 59.7968 131.28H59.8688C60.3728 131.28 60.7928 131.396 61.1288 131.628C61.4648 131.852 61.7168 132.188 61.8848 132.636C62.0608 133.076 62.1488 133.624 62.1488 134.28V138H60.4808V134.124C60.4808 133.716 60.3768 133.392 60.1688 133.152C59.9608 132.904 59.6648 132.78 59.2808 132.78C58.8968 132.78 58.5888 132.908 58.3568 133.164C58.1248 133.412 58.0088 133.748 58.0088 134.172V138H56.3408V134.124C56.3408 133.716 56.2368 133.392 56.0288 133.152C55.8208 132.904 55.5248 132.78 55.1408 132.78C54.7568 132.78 54.4488 132.908 54.2168 133.164C53.9848 133.412 53.8688 133.748 53.8688 134.172V138H52.2008ZM66.9673 138.228C66.4073 138.228 65.9153 138.132 65.4913 137.94C65.0753 137.748 64.7273 137.492 64.4473 137.172C64.1753 136.844 63.9673 136.48 63.8233 136.08C63.6873 135.68 63.6193 135.272 63.6193 134.856V134.628C63.6193 134.196 63.6873 133.78 63.8233 133.38C63.9673 132.972 64.1753 132.612 64.4473 132.3C64.7273 131.98 65.0713 131.728 65.4793 131.544C65.8873 131.352 66.3593 131.256 66.8953 131.256C67.5993 131.256 68.1873 131.412 68.6593 131.724C69.1393 132.028 69.4993 132.432 69.7393 132.936C69.9793 133.432 70.0993 133.968 70.0993 134.544V135.144H64.3273V134.124H69.0553L68.5393 134.628C68.5393 134.212 68.4793 133.856 68.3593 133.56C68.2393 133.264 68.0553 133.036 67.8073 132.876C67.5673 132.716 67.2633 132.636 66.8953 132.636C66.5273 132.636 66.2153 132.72 65.9593 132.888C65.7033 133.056 65.5073 133.3 65.3713 133.62C65.2433 133.932 65.1793 134.308 65.1793 134.748C65.1793 135.156 65.2433 135.52 65.3713 135.84C65.4993 136.152 65.6953 136.4 65.9593 136.584C66.2233 136.76 66.5593 136.848 66.9673 136.848C67.3753 136.848 67.7073 136.768 67.9633 136.608C68.2193 136.44 68.3833 136.236 68.4553 135.996H69.9913C69.8953 136.444 69.7113 136.836 69.4393 137.172C69.1673 137.508 68.8193 137.768 68.3953 137.952C67.9793 138.136 67.5033 138.228 66.9673 138.228ZM71.6127 138V131.484H72.9327V134.28H72.8127C72.8127 133.616 72.9007 133.064 73.0767 132.624C73.2527 132.176 73.5127 131.84 73.8567 131.616C74.2087 131.392 74.6447 131.28 75.1647 131.28H75.2367C76.0127 131.28 76.6007 131.532 77.0007 132.036C77.4007 132.532 77.6007 133.276 77.6007 134.268V138H75.9327V134.124C75.9327 133.724 75.8167 133.4 75.5847 133.152C75.3607 132.904 75.0487 132.78 74.6487 132.78C74.2407 132.78 73.9087 132.908 73.6527 133.164C73.4047 133.412 73.2807 133.748 73.2807 134.172V138H71.6127ZM82.3459 138.084C81.7459 138.084 81.2499 138.008 80.8579 137.856C80.4739 137.696 80.1859 137.432 79.9939 137.064C79.8019 136.688 79.7059 136.184 79.7059 135.552L79.7179 129.648H81.2779L81.2659 135.66C81.2659 135.98 81.3499 136.228 81.5179 136.404C81.6939 136.572 81.9419 136.656 82.2619 136.656H83.2819V138.084H82.3459ZM78.6739 132.708V131.484H83.2819V132.708H78.6739Z" fill="#432D69"/>
<mask id="mask0_1255_44642" style="mask-type:alpha" maskUnits="userSpaceOnUse" x="0" y="0" width="94" height="115">
<path d="M8 0.5H86C90.1421 0.5 93.5 3.85786 93.5 8V114.5H0.5V8C0.500001 3.85787 3.85787 0.5 8 0.5Z" fill="#FAF9F6" stroke="#815DEF"/>
</mask>
<g mask="url(#mask0_1255_44642)">
<g clip-path="url(#clip0_1255_44642)">
<path d="M74.8211 -0.806667L73.5832 -0.141687L72.9063 1.07362L72.234 -0.141687L70.9961 -0.806667L72.234 -1.46706L72.9063 -2.68237L73.5832 -1.46706L74.8211 -0.806667Z" fill="#FF9A26"/>
<path d="M30.0098 67.237L28.7766 67.902L28.0996 69.1173L27.4274 67.902L26.1895 67.237L27.4274 66.572L28.0996 65.3567L28.7766 66.572L30.0098 67.237Z" fill="#FF9A26"/>
<path d="M19.9906 57.8769L18.7573 58.5419L18.0804 59.7526L17.4081 58.5419L16.1748 57.8769L17.4081 57.2119L18.0804 55.9966L18.7573 57.2119L19.9906 57.8769Z" fill="#FF9A26"/>
<path d="M73.9813 63.5177L72.7434 64.1827L72.0664 65.398L71.3895 64.1827L70.1562 63.5177L71.3895 62.8528L72.0664 61.6375L72.7434 62.8528L73.9813 63.5177Z" fill="#FF9A26"/>
<path d="M80.1524 6.91648L78.9191 7.58146L78.2422 8.79677L77.5699 7.58146L76.332 6.91648L77.5699 6.25608L78.2422 5.04077L78.9191 6.25608L80.1524 6.91648Z" fill="#EFBC30"/>
<path d="M83.0736 51.0022L81.1865 52.0203L80.1526 53.8777L79.1187 52.0203L77.2363 51.0022L79.1187 49.9887L80.1526 48.1313L81.1865 49.9887L83.0736 51.0022Z" fill="#EFBC30"/>
<path d="M14.4319 51.0022L12.5449 52.0203L11.511 53.8777L10.4771 52.0203L8.59473 51.0022L10.4771 49.9887L11.511 48.1313L12.5449 49.9887L14.4319 51.0022Z" fill="#EFBC30"/>
<path d="M25.6934 74.1528L23.8018 75.1617L22.7679 77.0236L21.7386 75.1617L19.8516 74.1528L21.7386 73.1347L22.7679 71.2727L23.8018 73.1347L25.6934 74.1528Z" fill="#EFBC30"/>
<path d="M72.9249 76.1294L71.0379 77.1475L70.0086 79.0049L68.9747 77.1475L67.083 76.1294L68.9747 75.1159L70.0086 73.2585L71.0379 75.1159L72.9249 76.1294Z" fill="#EFBC30"/>
<path d="M17.5564 67.471L17.3292 71.0986H12.206V79.6608L12.1967 79.7342C11.237 79.615 10.2494 79.6333 9.26185 79.7984L9.24331 79.6608V71.0986H5.55273V67.471H9.1274V63.7747H12.3126V67.471H17.5517H17.5564Z" fill="#FAF9F6"/>
<path d="M88.4426 67.4708V71.0984H84.7845V79.6606L83.7367 79.6836C83.0968 79.6423 82.457 79.6561 81.8311 79.7386L81.8218 79.6652V71.103H76.6986L76.4668 67.4754H81.7059V63.7791H84.8958V67.4754H88.438L88.4426 67.4708Z" fill="#FAF9F6"/>
<path d="M25.7028 113.795C25.8279 114.611 25.9485 115.428 26.0783 116.244H5.55762V109.956C6.64717 109.91 7.51881 109.021 7.51881 107.938C7.51881 106.856 6.64717 105.966 5.55762 105.921V81.1237C6.77235 80.4403 8.02418 80.0092 9.26673 79.8029C10.2543 79.6378 11.2418 79.624 12.2016 79.7387C17.1903 80.3119 21.5207 84.3523 22.2996 89.8051C22.7355 92.8457 23.1574 95.8908 23.5793 98.9314C23.9595 101.656 24.335 104.38 24.7245 107.104C25.0398 109.337 25.3643 111.571 25.7028 113.795Z" fill="#432D69"/>
<path d="M88.4431 109.952V116.239H67.9502C68.0754 115.432 68.1959 114.625 68.3165 113.818C68.6549 111.584 68.9795 109.351 69.2994 107.118C69.6888 104.394 70.069 101.665 70.4446 98.9407C70.8711 95.8909 71.293 92.8458 71.7289 89.8006C72.5124 84.3478 76.8382 80.3074 81.8269 79.7342C82.4528 79.6562 83.0927 79.6379 83.7325 79.6791C85.2996 79.78 86.8945 80.2341 88.4384 81.1008V105.916C87.3442 105.962 86.4772 106.852 86.4772 107.934C86.4772 109.016 87.3442 109.906 88.4384 109.952H88.4431Z" fill="#432D69"/>
<path d="M9.24819 79.6562L9.26673 79.7938C8.02418 80.0002 6.77235 80.4267 5.55762 81.1146V71.094H9.24819V79.6562Z" fill="#815DEF"/>
<path d="M88.4423 71.0986V81.1008C86.8984 80.234 85.3081 79.78 83.7363 79.6791L84.7842 79.6562V71.094H88.4423V71.0986Z" fill="#815DEF"/>
<path d="M39.1529 87.8194L39.3059 87.769C40.9564 86.3106 41.2114 83.6507 41.7678 81.6558C41.8512 81.3439 41.9486 81.0229 42.1526 80.7706C42.3566 80.5138 42.709 80.3441 43.0196 80.445C43.5667 80.6239 43.321 82.3391 43.321 82.8114C43.3071 83.9855 43.0752 85.1503 42.7646 86.2739C42.4262 87.4892 41.6472 88.6725 41.4432 89.9153C41.1141 91.8552 41.9022 94.0015 41.7771 96.0194C41.7446 96.5238 41.6936 97.0329 41.6194 97.5328C41.3691 99.2755 40.8591 100.991 40.108 102.591L40.0384 105.21L39.9828 107.393C35.8935 109.874 33.7746 106.957 33.7746 106.957L34.1734 103.655L34.3588 102.119C32.2307 100.908 31.3034 98.4225 30.5755 96.1065C30.5616 96.0698 30.5477 96.0285 30.5384 95.9872C30.1072 94.6023 29.6622 93.1852 28.8925 91.9332C28.2156 90.8279 27.177 90.1079 26.4862 89.0348C26.2405 88.6541 26.0272 88.1496 26.2822 87.7782C26.9777 86.7371 29.2727 88.3331 29.843 88.833C30.5894 89.4888 31.2246 90.2638 31.8644 91.0205C31.8042 86.0355 31.7578 81.7154 31.6975 76.7303C31.6975 76.5285 31.6975 76.3084 31.8181 76.1479C31.934 75.9828 31.8505 75.5654 31.9757 75.726C32.8613 75.781 33.5521 76.5606 33.7885 77.4045C34.0296 78.2666 33.7885 79.0921 33.8303 79.9497C33.872 80.7156 34.0204 81.5136 34.0853 82.2841C34.1316 82.8757 34.1687 83.4764 34.2058 84.0772C34.3264 80.8027 34.9755 78.3446 35.9445 75.2169C36.0279 74.9463 36.116 74.6803 36.2968 74.4648C36.473 74.2492 36.7605 74.0979 37.034 74.1621C37.4003 74.2447 37.5858 74.6528 37.6692 75.0151C37.7805 75.4921 37.7944 75.9507 37.7573 76.4093C39.1297 76.9504 38.8376 78.1841 38.7634 79.3031C38.6382 81.0412 38.8051 82.8481 38.8237 84.5863C38.8376 85.8566 38.8469 86.8334 39.1575 87.8149L39.1529 87.8194Z" fill="#FFC0D6"/>
<path d="M63.513 91.0252C64.1528 90.2685 64.788 89.4934 65.5345 88.8376C66.1048 88.3377 68.3951 86.7418 69.0952 87.7828C69.3456 88.1589 69.1323 88.6633 68.8912 89.0394C68.2004 90.1125 67.1619 90.8325 66.4803 91.9378C65.7153 93.1852 65.2702 94.6069 64.839 95.9919C64.7695 96.2166 64.6999 96.4367 64.6211 96.666C63.9164 98.8123 62.9706 101.009 61.0186 102.123L61.2226 103.82L61.5982 106.957C61.5982 106.957 59.4794 109.874 55.3901 107.393L55.3159 104.559L55.2649 102.591C54.421 100.798 53.8879 98.8719 53.67 96.9091C53.6421 96.6156 53.6097 96.3175 53.5911 96.0194C53.466 94.0015 54.2541 91.8507 53.925 89.9153C53.721 88.6771 52.942 87.4893 52.6036 86.274C52.2929 85.1458 52.0611 83.981 52.0472 82.8115C52.0472 82.3345 51.8015 80.6194 52.3486 80.4451C52.6592 80.3442 53.0116 80.5139 53.2156 80.7707C53.4196 81.0229 53.5123 81.3485 53.6004 81.6558C54.1568 83.6508 54.4118 86.3107 56.0623 87.769L56.2153 87.8195C56.5213 86.8335 56.5352 85.8612 56.5492 84.5909C56.5677 82.8482 56.7346 81.0413 56.6094 79.3077C56.5306 78.1887 56.2432 76.9597 57.6155 76.4139C57.5831 75.9553 57.5923 75.4921 57.7036 75.0198C57.7871 74.6575 57.9679 74.2493 58.3388 74.1667C58.6123 74.1025 58.9044 74.2539 59.076 74.4694C59.2568 74.685 59.3403 74.951 59.4284 75.2215C60.3974 78.3447 61.0465 80.8028 61.167 84.0818C61.2041 83.4857 61.2412 82.8849 61.2875 82.2887C61.3525 81.5182 61.5008 80.7203 61.5426 79.9544C61.5843 79.0968 61.3478 78.2713 61.5843 77.4091C61.8207 76.5699 62.5116 75.7856 63.3971 75.7306C63.5223 75.5655 63.4388 75.9874 63.5547 76.1525C63.6753 76.3176 63.6753 76.5332 63.6753 76.7349C63.615 81.72 63.5687 86.0401 63.5084 91.0252H63.513Z" fill="#FFC0D6"/>
<path d="M69.3033 107.118C68.9834 109.356 68.6588 111.589 68.3204 113.818C68.1303 113.744 67.9402 113.662 67.7501 113.575L63.5032 111.584C60.9161 110.374 57.9071 110.374 55.3153 111.584L51.0684 113.575C48.4813 114.785 45.4769 114.785 42.8851 113.575L38.6382 111.584C36.0511 110.374 33.0467 110.374 30.4549 111.584L26.208 113.575C26.0411 113.653 25.8696 113.726 25.698 113.795C25.3595 111.566 25.035 109.333 24.7197 107.104C25.2297 106.962 25.7258 106.774 26.208 106.553L30.4549 104.563C31.6326 104.013 32.8937 103.71 34.1687 103.66L33.77 106.962C33.77 106.962 35.8888 109.878 39.9781 107.397L40.0337 105.214L42.8851 106.553C45.4722 107.764 48.4813 107.764 51.0684 106.553L55.3153 104.563L55.3895 107.397C59.4788 109.878 61.5976 106.962 61.5976 106.962L61.2221 103.825C62.0056 103.976 62.7706 104.219 63.5032 104.563L67.7501 106.553C68.2508 106.787 68.7701 106.98 69.3033 107.122V107.118Z" fill="#F579A4"/>
<path d="M34.3548 102.123L34.1694 103.66C32.8944 103.71 31.6379 104.013 30.4556 104.563L26.2087 106.553C25.7265 106.778 25.2304 106.962 24.7204 107.104C24.3309 104.38 23.9554 101.655 23.5752 98.9313C24.4747 98.7983 25.3648 98.5278 26.2087 98.1379L30.4556 96.1476L30.5715 96.1155C31.2994 98.4314 32.2267 100.917 34.3548 102.128V102.123Z" fill="#FAF9F6"/>
<path d="M55.2647 102.591L55.3157 104.559L51.0688 106.549C48.4817 107.76 45.4773 107.76 42.8856 106.549L40.0342 105.21L40.1037 102.591C40.8548 100.991 41.3648 99.2799 41.6152 97.5326L42.8856 98.1288C45.4727 99.3396 48.4817 99.3396 51.0688 98.1288L53.6698 96.9089C53.8877 98.8672 54.4209 100.798 55.2647 102.591Z" fill="#FAF9F6"/>
<path d="M70.449 98.9407C70.0734 101.665 69.6933 104.394 69.3038 107.118C68.7752 106.976 68.2513 106.787 67.7506 106.549L63.5037 104.559C62.7711 104.215 62.0061 103.972 61.2226 103.82L61.0186 102.123C62.9705 101.009 63.9163 98.8169 64.621 96.666L67.7506 98.1336C68.613 98.5371 69.5217 98.8077 70.4443 98.9407H70.449Z" fill="#FAF9F6"/>
<path d="M68.3211 113.818C68.2006 114.625 68.0754 115.432 67.9548 116.239H26.0836C25.9537 115.423 25.8332 114.607 25.708 113.79C25.8796 113.722 26.0511 113.653 26.218 113.57L30.4649 111.58C33.0521 110.369 36.0564 110.369 38.6482 111.58L42.8951 113.57C45.4822 114.781 48.4913 114.781 51.0784 113.57L55.3253 111.58C57.9124 110.369 60.9214 110.369 63.5132 111.58L67.7601 113.57C67.9502 113.657 68.1357 113.745 68.3304 113.813L68.3211 113.818Z" fill="#FAF9F6"/>
<path d="M78.9614 30.7044C78.9614 44.5452 69.633 56.2397 56.8272 60.0323C56.0437 58.4547 55.339 56.5607 54.7038 54.4373C65.2145 51.4977 72.9109 41.9861 72.9109 30.7044C72.9109 17.0791 61.6862 6.03129 47.8419 6.03129C33.9976 6.03129 22.7729 17.0746 22.7729 30.7044C22.7729 41.9861 30.474 51.4977 40.98 54.4373C40.3448 56.5607 39.6401 58.4593 38.8566 60.0369L38.838 60.0278C26.0369 56.2259 16.7178 44.536 16.7178 30.7044C16.7178 13.7909 30.6548 0.0739746 47.8419 0.0739746C65.029 0.0739746 78.9614 13.7863 78.9614 30.7044Z" fill="#A182FF"/>
<path d="M46.6039 12.7683C46.5437 13.9653 46.4602 15.4879 46.3489 17.2489C39.4639 17.9827 34.095 23.729 34.095 30.7045C34.095 36.6388 37.9803 41.6835 43.3817 43.5088L43.4466 43.5225C43.1916 45.0222 42.9087 46.5035 42.6074 47.9343C35.0732 45.7193 29.5791 38.8447 29.5791 30.709C29.5791 21.1883 37.0993 13.4012 46.6086 12.7729L46.6039 12.7683Z" fill="#815DEF"/>
<path d="M66.1096 30.7044C66.1096 38.8401 60.6154 45.7146 53.0767 47.9297C52.7753 46.4896 52.4925 44.9992 52.2328 43.4812L52.511 43.4353C57.8058 41.5504 61.5891 36.5608 61.5891 30.7044C61.5891 23.7244 56.2248 17.9872 49.3351 17.2534C49.2238 15.4969 49.1404 13.9789 49.0801 12.782H49.2099C58.6589 13.4653 66.1142 21.2295 66.1142 30.7044H66.1096Z" fill="#A182FF"/>
<path d="M46.3397 17.2487C45.9039 23.9903 45.0415 34.2447 43.4327 43.5178L43.3678 43.504C37.9617 41.6788 34.0811 36.6341 34.0811 30.6997C34.0811 23.7243 39.4454 17.9825 46.335 17.2441L46.3397 17.2487Z" fill="#815DEF"/>
<path d="M72.9058 30.7044C72.9058 41.9861 65.2094 51.4977 54.6987 54.4374C54.1006 52.4424 53.5628 50.2457 53.0759 47.9297C60.6147 45.7146 66.1088 38.8401 66.1088 30.7044C66.1088 21.2296 58.6582 13.4607 49.2045 12.7774H49.0747C49.033 11.929 49.0005 11.2365 48.982 10.7366H49.0191C49.7609 10.4248 50.6233 9.87444 50.5723 8.99391C50.5074 7.66853 48.9078 7.35209 47.8322 7.35209C46.7565 7.35209 45.157 7.66853 45.0874 8.99391C45.0457 9.87902 45.9034 10.4294 46.6406 10.7366H46.6823C46.6592 11.2365 46.6313 11.9244 46.5896 12.7728C37.0804 13.4011 29.5601 21.1883 29.5601 30.709C29.5601 38.8447 35.0543 45.7192 42.5884 47.9343C42.1016 50.2503 41.5638 52.447 40.961 54.4419C30.455 51.5023 22.7539 41.9907 22.7539 30.709C22.7539 17.0837 33.9786 6.03589 47.8229 6.03589C61.6672 6.03589 72.8919 17.0792 72.8919 30.709L72.9058 30.7044Z" fill="#815DEF"/>
<path d="M61.589 30.7044C61.589 36.5608 57.8057 41.5505 52.5109 43.4353L52.2327 43.4812C50.6285 34.2219 49.7708 23.9858 49.335 17.2534C56.2246 17.9872 61.589 23.7244 61.589 30.7044Z" fill="#815DEF"/>
<path d="M50.5819 8.98928C50.6282 9.87439 49.7705 10.4247 49.0287 10.732H48.9916C48.9638 10.1175 48.9545 9.78726 48.9545 9.78726C48.9545 9.78726 48.4445 9.58547 47.8464 9.58547C47.2483 9.58547 46.7383 9.78726 46.7383 9.78726C46.7383 9.78726 46.7244 10.1175 46.7012 10.7366H46.6595C45.9223 10.4247 45.0599 9.87439 45.1063 8.99387C45.1758 7.66849 46.7708 7.35205 47.851 7.35205C48.9313 7.35205 50.5262 7.66849 50.5911 8.99387L50.5819 8.98928Z" fill="#FF9A26"/>
<path d="M47.6983 60.3901C53.976 60.3901 57.9818 62.8483 57.9818 64.5405C57.9818 66.2328 53.976 68.6863 47.6983 68.6863C41.4206 68.6863 37.4102 66.2328 37.4102 64.5405C37.4102 62.8483 41.416 60.3901 47.6983 60.3901Z" fill="#FF9A26"/>
<path d="M38.6522 60.4313C40.8916 59.2114 44.1185 58.4456 47.7025 58.4456C51.4997 58.4456 54.8982 59.3077 57.1468 60.656C58.904 61.7108 59.9565 63.0591 59.9565 64.5359C59.9565 67.8975 54.467 70.6216 47.6978 70.6216C40.9287 70.6216 35.4346 67.8975 35.4346 64.5359C35.4346 62.9491 36.6539 61.5136 38.6476 60.4267L38.6522 60.4313ZM57.986 64.5405C57.986 62.8482 53.9802 60.3901 47.7025 60.3901C41.4248 60.3901 37.4143 62.8482 37.4143 64.5405C37.4143 66.2327 41.4202 68.6863 47.7025 68.6863C53.9848 68.6863 57.986 66.2327 57.986 64.5405Z" fill="#EFBC30"/>
<path d="M49.3344 17.2534C49.7702 23.9858 50.6279 34.2219 52.2321 43.4812C52.4917 44.9992 52.7746 46.4851 53.0759 47.9297C53.5627 50.2457 54.1006 52.4424 54.6987 54.4373C55.3338 56.5607 56.0386 58.4547 56.8221 60.0324C56.9241 60.2479 57.0354 60.4589 57.142 60.6606C54.8888 59.3123 51.4949 58.4502 47.6977 58.4502C44.1138 58.4502 40.8868 59.216 38.6475 60.4359C38.717 60.3075 38.7819 60.1745 38.8468 60.0415C39.6304 58.4639 40.3351 56.5653 40.9703 54.4419C41.573 52.447 42.1109 50.2502 42.5977 47.9343C42.899 46.5034 43.1772 45.0267 43.4369 43.5225C45.0411 34.254 45.9081 23.995 46.3439 17.2534C46.4552 15.4924 46.5386 13.9698 46.5989 12.7728C46.6406 11.929 46.6731 11.2365 46.6916 10.7412C46.7194 10.1221 46.7287 9.79187 46.7287 9.79187C46.7287 9.79187 47.2341 9.59009 47.8368 9.59009C48.4395 9.59009 48.9449 9.79187 48.9449 9.79187C48.9449 9.79187 48.9588 10.1221 48.982 10.7412C49.0052 11.2411 49.033 11.929 49.0747 12.7866C49.135 13.9835 49.2184 15.5015 49.3297 17.258L49.3344 17.2534ZM48.268 24.5636C48.268 24.2518 48.0176 23.9995 47.6977 23.9995C47.3778 23.9995 47.1274 24.2518 47.1274 24.5636C47.1274 24.8755 47.3824 25.1277 47.6977 25.1277C48.013 25.1277 48.268 24.8755 48.268 24.5636ZM48.268 28.5398C48.268 28.2279 48.0176 27.9757 47.6977 27.9757C47.3778 27.9757 47.1274 28.2279 47.1274 28.5398C47.1274 28.8516 47.3824 29.1038 47.6977 29.1038C48.013 29.1038 48.268 28.8516 48.268 28.5398ZM48.268 32.5205C48.268 32.2086 48.0176 31.9564 47.6977 31.9564C47.3778 31.9564 47.1274 32.2086 47.1274 32.5205C47.1274 32.8323 47.3824 33.0846 47.6977 33.0846C48.013 33.0846 48.268 32.8323 48.268 32.5205ZM48.268 36.4966C48.268 36.1848 48.0176 35.9325 47.6977 35.9325C47.3778 35.9325 47.1274 36.1848 47.1274 36.4966C47.1274 36.8085 47.3824 37.0607 47.6977 37.0607C48.013 37.0607 48.268 36.8085 48.268 36.4966ZM48.268 40.4727C48.268 40.1609 48.0176 39.9086 47.6977 39.9086C47.3778 39.9086 47.1274 40.1609 47.1274 40.4727C47.1274 40.7846 47.3824 41.0322 47.6977 41.0322C48.013 41.0322 48.268 40.7846 48.268 40.4727ZM48.268 44.4489C48.268 44.137 48.0176 43.8848 47.6977 43.8848C47.3778 43.8848 47.1274 44.137 47.1274 44.4489C47.1274 44.7607 47.3824 45.0084 47.6977 45.0084C48.013 45.0084 48.268 44.7607 48.268 44.4489Z" fill="#EFBC30"/>
<path d="M88.443 8.32902V67.4665H84.9008V63.7701H81.7109V67.4665H76.4718L76.7036 71.0941H81.8268V79.6563L81.8361 79.7297C76.8473 80.3029 72.5169 84.3433 71.738 89.7961C71.3022 92.8413 70.8803 95.8864 70.4537 98.9362C69.5311 98.8032 68.6224 98.5326 67.76 98.129L64.6304 96.6615C64.7093 96.4322 64.7788 96.212 64.8483 95.9873C65.2795 94.6023 65.7246 93.1852 66.4896 91.9332C67.1712 90.828 68.2051 90.108 68.9006 89.0348C69.1463 88.6542 69.3596 88.1497 69.1046 87.7782C68.4091 86.7372 66.1141 88.3331 65.5438 88.833C64.7973 89.4888 64.1622 90.2639 63.5223 91.0206C63.5826 86.0355 63.629 81.7154 63.6892 76.7304C63.6892 76.5286 63.6892 76.3084 63.5687 76.1479C63.4528 75.9828 63.5362 75.5655 63.4111 75.726C62.5255 75.781 61.8347 76.5607 61.5982 77.4045C61.3571 78.2667 61.5982 79.0922 61.5565 79.9498C61.5148 80.7157 61.3664 81.5137 61.3015 82.2841C61.2551 82.8757 61.218 83.4765 61.181 84.0773C61.0604 80.8028 60.4113 78.3447 59.4423 75.217C59.3589 74.9464 59.2708 74.6804 59.0899 74.4648C58.9138 74.2493 58.6263 74.098 58.3528 74.1622C57.9818 74.2447 57.801 74.6529 57.7176 75.0152C57.6063 75.4921 57.5924 75.9507 57.6295 76.4093C56.2571 76.9505 56.5492 78.1842 56.6234 79.3032C56.7486 81.0413 56.5816 82.8482 56.5631 84.5863C56.5492 85.8567 56.5353 86.8335 56.2293 87.8149L56.0763 87.7645C54.4257 86.3061 54.1707 83.6462 53.6144 81.6512C53.5309 81.3394 53.4335 81.0184 53.2295 80.7661C53.0255 80.5093 52.6732 80.3396 52.3625 80.4405C51.8154 80.6194 52.0612 82.3346 52.0612 82.8069C52.0751 83.981 52.3069 85.1458 52.6175 86.2694C52.956 87.4847 53.7349 88.6679 53.9389 89.9108C54.2681 91.8507 53.4799 93.9969 53.6051 96.0148C53.6236 96.3129 53.6514 96.611 53.6839 96.9045L51.0829 98.1244C48.4958 99.3351 45.4914 99.3351 42.8996 98.1244L41.6293 97.5282C41.7035 97.0283 41.7545 96.5193 41.7869 96.0148C41.9121 93.9969 41.1239 91.8461 41.4531 89.9108C41.6571 88.6725 42.436 87.4847 42.7745 86.2694C43.0851 85.1412 43.3169 83.9764 43.3308 82.8069C43.3308 82.33 43.5766 80.6148 43.0295 80.4405C42.7188 80.3396 42.3665 80.5093 42.1625 80.7661C41.9585 81.0184 41.8611 81.344 41.7776 81.6512C41.2213 83.6462 40.9663 86.3061 39.3157 87.7645L39.1627 87.8149C38.8521 86.8289 38.8428 85.8567 38.8289 84.5863C38.8103 82.8436 38.6434 81.0367 38.7686 79.3032C38.8474 78.1842 39.1349 76.9551 37.7625 76.4093C37.795 75.9507 37.7857 75.4875 37.6744 75.0152C37.591 74.6529 37.4055 74.2447 37.0392 74.1622C36.7657 74.098 36.4736 74.2493 36.3021 74.4648C36.1212 74.6804 36.0331 74.9464 35.9497 75.217C34.9807 78.3401 34.3316 80.7982 34.211 84.0773C34.1739 83.4811 34.1369 82.8803 34.0905 82.2841C34.0256 81.5137 33.8772 80.7157 33.8355 79.9498C33.7938 79.0922 34.0302 78.2667 33.7938 77.4045C33.5573 76.5653 32.8665 75.781 31.9809 75.726C31.8557 75.5609 31.9392 75.9828 31.8233 76.1479C31.7028 76.313 31.7027 76.5286 31.7027 76.7304C31.763 81.7154 31.8094 86.0355 31.8697 91.0206C31.2298 90.2639 30.5947 89.4888 29.8482 88.833C29.2779 88.3331 26.9875 86.7372 26.2874 87.7782C26.0371 88.1543 26.2457 88.6588 26.4914 89.0348C27.1823 90.108 28.2208 90.828 28.8977 91.9332C29.6674 93.1806 30.1125 94.6023 30.5436 95.9873C30.5576 96.024 30.5715 96.0653 30.5807 96.1065L30.4648 96.1386L26.2179 98.129C25.3741 98.5188 24.4885 98.7894 23.5844 98.9224C23.1625 95.8772 22.7406 92.8367 22.3048 89.7961C21.5212 84.3433 17.1955 80.3029 12.2067 79.7297L12.216 79.6563V71.0941H17.3392L17.5664 67.4665H12.3272V63.7701H9.14204V67.4665H5.56738V-0.0130572C6.65694 -0.0589179 7.52858 -0.944032 7.52858 -2.03093C7.52858 -3.11783 6.65694 -3.99836 5.56738 -4.04422V-11.2214C5.56738 -11.9735 6.18866 -12.5835 6.95367 -12.5835H10.7091C10.7091 -11.4691 11.6272 -10.561 12.7584 -10.561C13.8897 -10.561 14.8124 -11.4691 14.8124 -12.5835H24.0063C24.0063 -11.4691 24.9243 -10.561 26.0556 -10.561C27.1869 -10.561 28.1095 -11.4691 28.1095 -12.5835H38.8613L47.4201 -4.04881L55.4318 -12.5835H65.9101C65.9101 -11.4691 66.8327 -10.561 67.964 -10.561C69.0953 -10.561 70.0179 -11.4691 70.0179 -12.5835H79.2073C79.2073 -11.4691 80.1299 -10.561 81.2612 -10.561C82.3925 -10.561 83.3151 -11.4691 83.3151 -12.5835H87.066C87.831 -12.5835 88.4522 -11.9735 88.4522 -11.2214V-4.04422C87.358 -3.99836 86.491 -3.11325 86.491 -2.03093C86.491 -0.948618 87.358 -0.0589179 88.4522 -0.0130572V8.33361L88.443 8.32902ZM81.187 52.0206L83.0694 51.0025L81.187 49.989L80.1531 48.1316L79.1192 49.989L77.2368 51.0025L79.1192 52.0206L80.1531 53.8779L81.187 52.0206ZM78.9198 7.58149L80.1531 6.91651L78.9198 6.25153L78.2429 5.03622L77.566 6.25153L76.3327 6.91651L77.566 7.58149L78.2429 8.7968L78.9198 7.58149ZM73.5833 -0.141468L74.8212 -0.806448L73.5833 -1.47143L72.9064 -2.68674L72.2295 -1.47143L70.9962 -0.806448L72.2295 -0.141468L73.0005 0.500001L73.5833 -0.141468ZM72.7441 64.1829L73.9774 63.5179L72.7441 62.8529L72.0626 61.6376L71.3857 62.8529L70.1524 63.5179L71.3857 64.1829L72.0626 65.3982L72.7441 64.1829ZM56.8274 60.0325C69.6377 56.2398 78.9615 44.5453 78.9615 30.7045C78.9615 13.791 65.0292 0.0740782 47.842 0.0740782C30.6549 0.0740782 16.7179 13.7865 16.7179 30.7045C16.7179 44.5361 26.0371 56.2306 38.8382 60.0279L38.8567 60.037C38.7918 60.17 38.7223 60.303 38.6573 60.4314C36.6637 61.5183 35.4443 62.9538 35.4443 64.5406C35.4443 67.9022 40.9338 70.6263 47.7076 70.6263C54.4814 70.6263 59.9662 67.9022 59.9662 64.5406C59.9662 63.0639 58.9091 61.7156 57.1566 60.6608C57.0499 60.459 56.9387 60.248 56.8367 60.0325H56.8274ZM71.0379 77.1477L72.9249 76.1296L71.0379 75.1161L70.0087 73.2587L68.9747 75.1161L67.0877 76.1296L68.9747 77.1477L70.0087 79.0051L71.0379 77.1477ZM28.7772 67.9022L30.0105 67.2372L28.7772 66.5722L28.1003 65.3523L27.4234 66.5722L26.1901 67.2372L27.4234 67.9022L28.1003 69.1175L28.7772 67.9022ZM23.8023 75.1619L25.6893 74.1484L23.8023 73.1303L22.7684 71.2729L21.7391 73.1303L19.8521 74.1484L21.7391 75.1619L22.7684 77.0193L23.8023 75.1619ZM18.7579 58.542L19.9912 57.877L18.7579 57.212L18.081 55.9967L17.4041 57.212L16.1708 57.877L17.4041 58.542L18.081 59.7573L18.7579 58.542ZM12.5452 52.0206L14.4322 51.0025L12.5452 49.989L11.5112 48.1316L10.4773 49.989L8.59495 51.0025L10.4773 52.0206L11.5112 53.8779L12.5452 52.0206Z" fill="#815DEF"/>
<path d="M5.55762 105.916C6.64717 105.962 7.51881 106.852 7.51881 107.934C7.51881 109.016 6.64717 109.906 5.55762 109.952V105.916Z" fill="#F9CF81"/>
<path d="M88.4426 105.916V109.952C87.3485 109.906 86.4814 109.016 86.4814 107.934C86.4814 106.852 87.3485 105.962 88.4426 105.916Z" fill="#F9CF81"/>
<path d="M88.5351 105.911C89.6664 105.911 90.5844 106.819 90.5844 107.934C90.5844 109.048 89.6664 109.956 88.5351 109.956C88.5073 109.956 88.4702 109.956 88.4424 109.956V105.921C88.4702 105.921 88.5073 105.921 88.5351 105.921V105.911Z" fill="#654996"/>
<path d="M47.6982 23.9995C48.0135 23.9995 48.2685 24.2517 48.2685 24.5636C48.2685 24.8755 48.0181 25.1277 47.6982 25.1277C47.3783 25.1277 47.1279 24.8755 47.1279 24.5636C47.1279 24.2517 47.3829 23.9995 47.6982 23.9995Z" fill="#432D69"/>
<path d="M47.6982 27.9802C48.0135 27.9802 48.2685 28.2325 48.2685 28.5443C48.2685 28.8562 48.0181 29.1084 47.6982 29.1084C47.3783 29.1084 47.1279 28.8562 47.1279 28.5443C47.1279 28.2325 47.3829 27.9802 47.6982 27.9802Z" fill="#432D69"/>
<path d="M47.6982 31.9563C48.0135 31.9563 48.2685 32.2085 48.2685 32.5204C48.2685 32.8322 48.0181 33.0845 47.6982 33.0845C47.3783 33.0845 47.1279 32.8322 47.1279 32.5204C47.1279 32.2085 47.3829 31.9563 47.6982 31.9563Z" fill="#432D69"/>
<path d="M47.6982 35.9326C48.0135 35.9326 48.2685 36.1849 48.2685 36.4967C48.2685 36.8086 48.0181 37.0608 47.6982 37.0608C47.3783 37.0608 47.1279 36.8086 47.1279 36.4967C47.1279 36.1849 47.3829 35.9326 47.6982 35.9326Z" fill="#432D69"/>
<path d="M47.6982 39.9087C48.0135 39.9087 48.2685 40.1609 48.2685 40.4728C48.2685 40.7846 48.0181 41.0323 47.6982 41.0323C47.3783 41.0323 47.1279 40.7846 47.1279 40.4728C47.1279 40.1609 47.3829 39.9087 47.6982 39.9087Z" fill="#432D69"/>
<path d="M47.6982 43.8894C48.0135 43.8894 48.2685 44.1416 48.2685 44.4535C48.2685 44.7653 48.0181 45.013 47.6982 45.013C47.3783 45.013 47.1279 44.7653 47.1279 44.4535C47.1279 44.1416 47.3829 43.8894 47.6982 43.8894Z" fill="#432D69"/>
<path d="M5.55803 105.916V109.952C5.53021 109.952 5.49776 109.952 5.46994 109.952C4.33866 109.952 3.41602 109.044 3.41602 107.929C3.41602 106.815 4.33866 105.907 5.46994 105.907C5.49776 105.907 5.53021 105.907 5.55803 105.907V105.916Z" fill="#654996"/>
<path d="M1.00048 139L0.991211 88.5073L5.54879 93.0613V105.916C5.52097 105.916 5.48852 105.916 5.4607 105.916C4.32942 105.916 3.41141 106.82 3.41141 107.934C3.41141 109.048 4.32942 109.956 5.4607 109.956C5.48852 109.956 5.52097 109.956 5.54879 109.956V133.226C5.54879 133.974 6.1747 134.588 6.93971 134.588H87.0613C87.8216 134.588 88.4476 133.974 88.4476 133.226V109.956C88.4754 109.956 88.5078 109.956 88.5356 109.956C89.6669 109.956 90.5896 109.053 90.5896 107.934C90.5896 106.815 89.6669 105.916 88.5356 105.916C88.5078 105.916 88.4754 105.916 88.4476 105.916V93.0613H88.4568L93.0098 88.6128L93.0005 139H1.00048Z" fill="#F579A4"/>
<path d="M93.0048 79.3855V88.6127L88.4565 93.0612H88.4473V83.8294H88.4565L93.0048 79.3855Z" fill="#F9CF81"/>
<path d="M93.0046 57.8769V79.3856L88.4517 83.8295H88.4424V35.5382C90.5937 35.5061 90.8301 37.9321 90.9785 39.5235V53.2633C90.9785 55.0336 91.0434 56.9276 92.9814 57.8769H93H93.0046Z" fill="#FFC0D6"/>
<path d="M93.0048 12.305V57.8769H92.9863C91.0483 56.9322 90.9834 55.0335 90.9834 53.2633V39.5234C90.835 37.932 90.5939 35.506 88.4473 35.5381V8.3335L93.0048 12.305Z" fill="#F579A4"/>
<path d="M93.0045 -17V12.305L88.4469 8.33349V-0.0131691C88.4747 -0.0131691 88.5072 -0.0131691 88.535 -0.0131691C89.6663 -0.0131691 90.5889 -0.916626 90.5889 -2.03563C90.5889 -3.15463 89.6663 -4.0535 88.535 -4.0535C88.5072 -4.0535 88.4747 -4.0535 88.4469 -4.0535V-11.2307C88.4469 -11.9782 87.821 -12.5928 87.0606 -12.5928H83.3052C83.3052 -13.7072 82.3872 -14.6107 81.2512 -14.6107C80.1153 -14.6107 79.2019 -13.7072 79.2019 -12.5928H70.008C70.008 -13.7072 69.09 -14.6107 67.9541 -14.6107C66.8181 -14.6107 65.9048 -13.7072 65.9048 -12.5928H55.4219L59.4973 -17H93.0045Z" fill="#FFC0D6"/>
<path d="M1.00048 -17H34.772L38.852 -12.5836H28.0956C28.0956 -13.698 27.1776 -14.6015 26.0463 -14.6015C24.915 -14.6015 23.9924 -13.698 23.9924 -12.5836H14.7984C14.7984 -13.698 13.8804 -14.6015 12.7491 -14.6015C11.6178 -14.6015 10.6952 -13.698 10.6952 -12.5836H6.94434C6.17934 -12.5836 5.55342 -11.9691 5.55342 -11.2215V-4.04433C5.52561 -4.04433 5.49315 -4.04433 5.46533 -4.04433C4.33405 -4.04433 3.41605 -3.14087 3.41605 -2.02646C3.41605 -0.912041 4.33405 -0.00399788 5.46533 -0.00399788C5.49315 -0.00399788 5.52561 -0.00399788 5.55342 -0.00399788V8.34725L0.991211 12.1996L1.00048 -17Z" fill="#FFC0D6"/>
<path d="M5.55342 83.8294V93.0611H5.54879L0.991211 88.5072V79.2754L5.54879 83.8294H5.55342Z" fill="#F9CF81"/>
<path d="M5.55342 35.5382V83.8295L0.991211 79.2756V57.7715H1.00976C2.94777 56.8267 3.01268 55.0336 3.01268 53.2633V39.5235C3.16104 37.9321 3.40677 35.5061 5.54879 35.5382H5.55342Z" fill="#FFC0D6"/>
<path d="M5.55342 8.3335V35.5335C3.40677 35.5014 3.16568 37.9275 3.01732 39.5188V53.2587C3.01732 55.0289 2.95241 56.8221 1.01439 57.7668H0.991211V12.1996L5.54879 8.3335H5.55342Z" fill="#F579A4"/>
<path d="M87.0563 134.794H6.9394C6.05849 134.794 5.33984 134.088 5.33984 133.217V-11.2217C5.33984 -12.0884 6.05849 -12.7947 6.9394 -12.7947H87.0563C87.9372 -12.7947 88.6559 -12.0884 88.6559 -11.2217V133.221C88.6559 134.093 87.9372 134.799 87.0563 134.799V134.794ZM6.9394 -12.3773C6.29494 -12.3773 5.77103 -11.8591 5.77103 -11.2262V133.217C5.77103 133.854 6.29494 134.373 6.9394 134.373H87.0563C87.7008 134.373 88.2247 133.854 88.2247 133.217V-11.2217C88.2247 -11.8591 87.7008 -12.3728 87.0563 -12.3728H6.9394V-12.3773Z" fill="#432D69"/>
<path d="M5.46446 0.197848C4.21264 0.197848 3.19727 -0.801916 3.19727 -2.03557C3.19727 -3.26923 4.21264 -4.2644 5.46446 -4.2644C5.50155 -4.2644 5.53401 -4.2644 5.5711 -4.25982C6.7812 -4.20479 7.72702 -3.22795 7.72702 -2.03557C7.72702 -0.843191 6.77656 0.142816 5.56183 0.193263C5.54328 0.193263 5.50155 0.193263 5.46446 0.193263V0.197848ZM5.48301 -3.84249H5.46446C4.44909 -3.84249 3.62381 -3.03075 3.62381 -2.03557C3.62381 -1.04039 4.45373 -0.22407 5.48301 -0.22407C5.49692 -0.22407 5.51083 -0.22407 5.5201 -0.22407C6.5262 -0.269931 7.30048 -1.06332 7.30048 -2.03557C7.30048 -3.00782 6.53083 -3.79662 5.54328 -3.8379H5.52474C5.52474 -3.8379 5.49692 -3.8379 5.48301 -3.8379V-3.84249Z" fill="#432D69"/>
<path d="M5.46446 110.167C4.21264 110.167 3.19727 109.168 3.19727 107.934C3.19727 106.7 4.21264 105.7 5.46446 105.7C5.50155 105.7 5.53401 105.7 5.5711 105.7C6.7812 105.755 7.72702 106.732 7.72702 107.929C7.72702 109.126 6.77656 110.108 5.56183 110.158C5.54328 110.158 5.50155 110.158 5.46446 110.158V110.167ZM5.48301 106.122H5.46446C4.44909 106.122 3.62381 106.934 3.62381 107.934C3.62381 108.934 4.47227 109.759 5.48301 109.745C5.49692 109.745 5.51083 109.745 5.52474 109.745C6.53083 109.7 7.30048 108.906 7.30048 107.934C7.30048 106.962 6.53083 106.168 5.54328 106.127H5.52474C5.52474 106.127 5.49692 106.127 5.48301 106.127V106.122Z" fill="#432D69"/>
<path d="M88.5348 0.197901C88.493 0.197901 88.4513 0.197902 88.4096 0.193316C87.218 0.142869 86.2676 -0.833967 86.2676 -2.03093C86.2676 -3.2279 87.2134 -4.20015 88.4235 -4.25518C88.4606 -4.25518 88.5023 -4.25977 88.5348 -4.25977C89.782 -4.25977 90.7973 -3.26 90.7973 -2.03093C90.7973 -0.801864 89.782 0.202487 88.5348 0.202487V0.197901ZM88.5162 -3.84243C88.5162 -3.84243 88.4884 -3.84243 88.4745 -3.84243H88.456C87.473 -3.80116 86.6988 -3.00777 86.6988 -2.03552C86.6988 -1.06327 87.4684 -0.269879 88.456 -0.228604C88.4977 -0.224018 88.5209 -0.224018 88.5394 -0.228604C89.5501 -0.228604 90.3754 -1.04034 90.3754 -2.04011C90.3754 -3.03987 89.5501 -3.84702 88.5394 -3.84702H88.5162V-3.84243Z" fill="#432D69"/>
<path d="M88.5355 110.167C88.4984 110.167 88.4521 110.167 88.4103 110.163C87.2141 110.112 86.2637 109.136 86.2637 107.939C86.2637 106.742 87.2095 105.765 88.4196 105.71C88.4567 105.71 88.4984 105.71 88.5309 105.71C89.7781 105.71 90.7934 106.709 90.7934 107.943C90.7934 109.177 89.7781 110.177 88.5309 110.177L88.5355 110.167ZM88.517 106.122C88.517 106.122 88.4891 106.122 88.4752 106.122H88.4567C87.4738 106.164 86.6995 106.962 86.6995 107.934C86.6995 108.906 87.4691 109.7 88.4567 109.741C88.4984 109.745 88.5216 109.745 88.5401 109.741C89.5509 109.741 90.3762 108.929 90.3762 107.929C90.3762 106.93 89.5509 106.118 88.5401 106.118H88.517V106.122Z" fill="#432D69"/>
<path d="M11.5108 54.3134L10.3192 52.1717L8.14941 50.9977L10.3192 49.8282L11.5108 47.6865L12.7024 49.8282L14.8768 50.9977L12.7024 52.1717L11.5108 54.3134ZM9.0396 51.0023L10.6345 51.8644L11.5108 53.4421L12.3871 51.8644L13.9866 51.0023L12.3871 50.1447L11.5108 48.567L10.6345 50.1447L9.0396 51.0023Z" fill="#432D69"/>
<path d="M80.1524 54.3134L78.9608 52.1717L76.791 50.9977L78.9608 49.8282L80.1524 47.6865L81.344 49.8282L83.5138 50.9977L81.344 52.1717L80.1524 54.3134ZM77.6812 51.0023L79.2761 51.8644L80.1524 53.4421L81.0287 51.8644L82.6236 51.0023L81.0287 50.1447L80.1524 48.567L79.2761 50.1447L77.6812 51.0023Z" fill="#432D69"/>
<path d="M22.7676 77.4594L21.5807 75.3177L19.4062 74.1483L21.5807 72.9742L22.7676 70.8325L23.9592 72.9742L26.1383 74.1483L23.9592 75.3177L22.7676 77.4594ZM20.2964 74.1483L21.896 75.0058L22.7676 76.5789L23.6439 75.0058L25.2435 74.1483L23.6439 73.2861L22.7676 71.713L21.896 73.2861L20.2964 74.1483Z" fill="#432D69"/>
<path d="M70.0086 79.4452L68.817 77.3035L66.6426 76.1295L68.817 74.9601L70.0086 72.8184L71.1955 74.9601L73.37 76.1295L71.1955 77.3035L70.0086 79.4452ZM67.5281 76.1295L69.1277 76.9917L70.004 78.5647L70.8756 76.9917L72.4752 76.1295L70.8756 75.2719L70.004 73.6989L69.1277 75.2719L67.5281 76.1295Z" fill="#432D69"/>
<path d="M15.3553 9.64111L14.5207 8.14146L13 7.32514L14.5207 6.49965L15.3553 5L16.1898 6.49965L17.7106 7.32514L16.1898 8.14146L15.3553 9.64111ZM13.8902 7.32514L14.836 7.8342L15.3553 8.76517L15.8746 7.8342L16.8204 7.32514L15.8746 6.8115L15.3553 5.88053L14.836 6.8115L13.8902 7.32514Z" fill="#432D69"/>
<path d="M18.0809 60.1929L17.2463 58.6932L15.7256 57.8723L17.2463 57.0514L18.0809 55.5518L18.9154 57.0514L20.4362 57.8723L18.9154 58.6932L18.0809 60.1929ZM16.6204 57.8769L17.5662 58.386L18.0855 59.3169L18.6048 58.386L19.5506 57.8769L18.6048 57.3678L18.0855 56.4369L17.5662 57.3678L16.6204 57.8769Z" fill="#432D69"/>
<path d="M72.0662 65.8337L71.2363 64.3341L69.7109 63.5132L71.2363 62.6923L72.0662 61.1926L72.9054 62.6923L74.4262 63.5132L72.9054 64.3341L72.0662 65.8337ZM70.6011 63.5178L71.547 64.0268L72.0662 64.9578L72.5855 64.0222L73.5313 63.5132L72.5855 63.0041L72.0662 62.0732L71.547 63.0041L70.6011 63.5132V63.5178Z" fill="#432D69"/>
<path d="M28.0994 69.5576L27.2649 68.0579L25.7441 67.237L27.2649 66.4161L28.0994 64.9119L28.934 66.4161L30.4547 67.237L28.934 68.0579L28.0994 69.5576ZM26.639 67.237L27.5848 67.7461L28.1041 68.677L28.6233 67.7461L29.5692 67.237L28.6233 66.728L28.1041 65.7924L27.5848 66.728L26.639 67.237Z" fill="#432D69"/>
<path d="M73.0002 0.633386L72.0715 0.0142648L70.5508 -0.806642L72.0715 -1.62755L72.9061 -3.1272L73.7406 -1.62755L75.2706 -0.806642L73.7406 0.0142648L73.0002 0.633386ZM71.441 -0.806642L72.3868 -0.297589L72.9061 0.633386L73.4254 -0.297589L74.3758 -0.806642L73.4254 -1.3157L72.9061 -2.24667L72.3868 -1.3157L71.441 -0.806642Z" fill="#432D69"/>
<path d="M78.242 9.23706L77.4075 7.73741L75.8867 6.9165L77.4075 6.09559L78.242 4.59595L79.0719 6.09559L80.5927 6.9165L79.0719 7.73741L78.242 9.23706ZM76.7769 6.9165L77.7227 7.42556L78.242 8.35653L78.7613 7.42556L79.7071 6.9165L78.7613 6.40745L78.242 5.47647L77.7227 6.40745L76.7769 6.9165Z" fill="#432D69"/>
<path d="M23.6118 99.1332L23.5469 98.7159C24.4278 98.5829 25.2948 98.3214 26.1201 97.9408L30.367 95.9504L30.5525 96.3311L26.3055 98.3214C25.4432 98.725 24.5344 98.9956 23.6118 99.1332Z" fill="#432D69"/>
<path d="M46.9788 99.2571C45.5508 99.2571 44.1227 98.9452 42.7967 98.3261L41.5264 97.7299L41.7118 97.3493L42.9822 97.9455C45.5276 99.1333 48.4392 99.1333 50.98 97.9455L53.581 96.7256L53.7665 97.1062L51.1654 98.3261C49.8394 98.9498 48.4114 99.2571 46.9834 99.2571H46.9788Z" fill="#432D69"/>
<path d="M70.4165 99.1471C69.4614 99.0095 68.5342 98.7297 67.6579 98.3216L64.5283 96.854L64.7138 96.4734L67.8433 97.9409C68.6779 98.3308 69.5634 98.5967 70.4768 98.7297L70.4165 99.1471Z" fill="#432D69"/>
<path d="M24.7849 107.301L24.6689 106.897C25.1558 106.76 25.6472 106.581 26.1248 106.356L30.3717 104.37C31.5725 103.811 32.8522 103.499 34.1689 103.444L34.206 103.655V103.866H34.1782C32.9264 103.916 31.707 104.215 30.5572 104.751L26.3102 106.741C25.8095 106.971 25.2995 107.163 24.7895 107.306L24.7849 107.301Z" fill="#432D69"/>
<path d="M46.9787 107.673C45.5507 107.673 44.1227 107.361 42.7967 106.742L39.9453 105.402L40.1308 105.022L42.9822 106.361C45.5275 107.549 48.4392 107.549 50.9799 106.361L55.2269 104.371L55.4123 104.751L51.1654 106.742C49.8394 107.365 48.4114 107.673 46.9834 107.673H46.9787Z" fill="#432D69"/>
<path d="M69.2434 107.319C68.6963 107.173 68.1584 106.975 67.6577 106.737L63.4108 104.746C62.7107 104.416 61.9596 104.173 61.1807 104.022L61.2641 103.609C62.0801 103.765 62.8637 104.022 63.5962 104.366L67.8432 106.356C68.3253 106.581 68.8354 106.769 69.3593 106.911L69.248 107.315L69.2434 107.319Z" fill="#432D69"/>
<path d="M46.9795 114.698C45.5515 114.698 44.1235 114.386 42.7975 113.767L38.5505 111.777C36.0098 110.589 33.0935 110.589 30.5528 111.777L26.3058 113.767C26.1343 113.85 25.9581 113.923 25.7865 113.992L25.6289 113.602C25.7958 113.538 25.9627 113.469 26.125 113.391L30.3719 111.401C33.0332 110.158 36.0793 110.158 38.736 111.401L42.9829 113.391C45.5283 114.579 48.44 114.579 50.9807 113.391L55.2277 111.401C57.889 110.158 60.9351 110.158 63.5964 111.401L67.8433 113.391C68.0241 113.478 68.2096 113.561 68.395 113.63L68.242 114.024C68.0427 113.951 67.8526 113.864 67.6578 113.772L63.4109 111.782C60.8702 110.594 57.9492 110.594 55.4085 111.782L51.1615 113.772C49.8355 114.396 48.4075 114.703 46.9795 114.703V114.698Z" fill="#432D69"/>
<path d="M38.6849 60.8212L38.3047 60.6286L38.3557 60.5369C38.3881 60.4727 38.4252 60.4085 38.4577 60.3443C38.5272 60.2067 38.5968 60.0829 38.6571 59.9545C39.3989 58.4594 40.1082 56.5883 40.7666 54.3824C41.3323 52.5067 41.8793 50.3191 42.3894 47.8931C42.6954 46.4393 42.9735 44.958 43.2239 43.4904C44.8142 34.3229 45.6812 24.1555 46.1263 17.2443C46.2283 15.6117 46.3164 14.0616 46.3813 12.7637C46.423 11.9199 46.4555 11.232 46.474 10.7367L46.5204 9.64978L46.6502 9.59934C46.6502 9.59934 47.2019 9.38379 47.8371 9.38379V9.80571C47.4569 9.80571 47.1138 9.89284 46.9377 9.94788L46.9052 10.755C46.882 11.2503 46.8542 11.9428 46.8125 12.7867C46.7476 14.0845 46.6595 15.6346 46.5575 17.2718C46.1077 24.1968 45.2407 34.3779 43.6505 43.5638C43.4001 45.036 43.1173 46.5218 42.8113 47.9802C42.2966 50.42 41.7495 52.6167 41.1793 54.5062C40.5116 56.7304 39.793 58.6245 39.0419 60.1379C38.977 60.2709 38.9121 60.3993 38.8425 60.5323C38.8054 60.6057 38.7683 60.6745 38.7312 60.7387L38.6849 60.8258V60.8212Z" fill="#432D69"/>
<path d="M56.9979 60.8302L56.9748 60.789C56.8496 60.5551 56.7383 60.3395 56.6317 60.124C55.8806 58.6106 55.1619 56.7165 54.4989 54.4969C53.9287 52.5891 53.3816 50.3969 52.8716 47.9709C52.5748 46.5584 52.2874 45.0587 52.0231 43.5132C50.4374 34.3548 49.5704 24.1829 49.1253 17.2625C49.0233 15.6666 48.9353 14.1165 48.8703 12.7865C48.8286 11.9335 48.7962 11.241 48.7776 10.7411L48.7452 9.93396C48.569 9.87893 48.2259 9.79179 47.8457 9.79179V9.36987C48.4763 9.36987 49.0094 9.57625 49.0326 9.58542L49.1624 9.63587L49.2042 10.7228C49.2273 11.2226 49.2552 11.9106 49.2969 12.7636C49.3618 14.0935 49.4545 15.639 49.5519 17.235C49.997 24.1462 50.864 34.2998 52.445 43.4398C52.7093 44.9808 52.9921 46.4712 53.2888 47.8792C53.7942 50.2914 54.3413 52.4744 54.9069 54.373C55.5653 56.5698 56.2747 58.4409 57.0165 59.936C57.1185 60.1515 57.2298 60.3579 57.3364 60.5597L56.9979 60.8257V60.8302Z" fill="#432D69"/>
<path d="M47.6982 70.8372C40.8178 70.8372 35.2217 68.0122 35.2217 64.5405C35.2217 62.94 36.3993 61.4128 38.546 60.248C40.892 58.9684 44.2302 58.2393 47.6982 58.2393C51.3934 58.2393 54.88 59.0556 57.2538 60.4818C59.1316 61.61 60.1655 63.0546 60.1655 64.5405C60.1655 68.0122 54.5694 70.8372 47.6936 70.8372H47.6982ZM47.6982 58.6566C44.2997 58.6566 41.0357 59.372 38.75 60.6148C36.7471 61.7017 35.6482 63.0959 35.6482 64.5405C35.6482 67.7829 41.0543 70.4199 47.6982 70.4199C54.3422 70.4199 59.7436 67.7829 59.7436 64.5405C59.7436 63.2014 58.7792 61.8898 57.0359 60.8396C54.7224 59.4546 51.3239 58.6612 47.7029 58.6612L47.6982 58.6566Z" fill="#432D69"/>
<path d="M47.6977 68.8973C41.1929 68.8973 37.1963 66.3612 37.1963 64.5406C37.1963 62.7199 41.1929 60.1792 47.6977 60.1792C54.2026 60.1792 58.1945 62.7199 58.1945 64.5406C58.1945 66.3612 54.2026 68.8973 47.6977 68.8973ZM47.6977 60.6011C41.6426 60.6011 37.6228 62.9721 37.6228 64.5406C37.6228 66.109 41.6426 68.4754 47.6977 68.4754C53.7529 68.4754 57.768 66.109 57.768 64.5406C57.768 62.9721 53.7529 60.6011 47.6977 60.6011Z" fill="#432D69"/>
<path d="M46.5708 10.9246C45.4303 10.4523 44.8461 9.77811 44.8878 8.98013C44.9574 7.62265 46.4596 7.14111 47.8459 7.14111V7.56303C47.2709 7.56303 45.3839 7.66851 45.3144 9.00306C45.2773 9.76894 46.0701 10.2596 46.7378 10.5394L46.5708 10.9246Z" fill="#432D69"/>
<path d="M49.1073 10.9246L48.9404 10.5348C49.6127 10.255 50.4055 9.7643 50.3638 8.99842C50.2988 7.66387 48.4165 7.55839 47.8369 7.55839V7.13647C49.2232 7.13647 50.7254 7.61801 50.7903 8.97549C50.832 9.77347 50.2478 10.4476 49.1027 10.92L49.1073 10.9246Z" fill="#432D69"/>
<path d="M52.5843 43.6325L52.4406 43.2381C53.8547 42.7336 55.1621 42.009 56.3351 41.0734L56.6041 41.399C55.394 42.3621 54.0401 43.1096 52.5843 43.6279V43.6325ZM57.5731 40.5506L57.2763 40.2479C57.6751 39.8627 58.0552 39.4545 58.4076 39.0234L58.7414 39.2849C58.3798 39.7297 57.9903 40.1516 57.5731 40.546V40.5506ZM61.1755 34.7905L60.7675 34.6667C60.8927 34.2723 60.9994 33.8687 61.0875 33.4651L61.5047 33.5523C61.4166 33.9696 61.3054 34.3869 61.1755 34.7905ZM61.7551 31.8646L61.3285 31.8279C61.361 31.4564 61.3749 31.0758 61.3749 30.6997C61.3749 29.411 61.1895 28.1361 60.8232 26.9116L61.2312 26.7924C61.6114 28.0535 61.8015 29.3698 61.8015 30.6997C61.8015 31.0895 61.7829 31.4793 61.7505 31.86L61.7551 31.8646ZM60.4059 25.7422C60.1973 25.2331 59.9562 24.7286 59.6826 24.2517L60.0582 24.0499C60.3364 24.5452 60.5867 25.0634 60.8 25.5908L60.4059 25.7467V25.7422ZM56.4835 20.4498C56.1636 20.1884 55.8205 19.9362 55.4774 19.7023L55.7185 19.3538C56.0755 19.5922 56.4232 19.8536 56.7571 20.1242L56.4835 20.4498ZM54.0355 18.8539C52.5565 18.1063 50.9708 17.6386 49.3156 17.4597L49.26 17.4505L49.2507 17.2396L49.3017 17.0332C49.3342 17.0332 49.3666 17.0424 49.3991 17.0515C51.0728 17.2258 52.7095 17.7074 54.2349 18.4824L54.0401 18.8539H54.0355Z" fill="#432D69"/>
<path d="M43.3074 43.7059C41.6568 43.151 40.1454 42.3026 38.8101 41.1836L39.0883 40.8626C40.3818 41.9449 41.8516 42.7658 43.4465 43.3069L43.3074 43.7059ZM37.5582 40.0004C37.2662 39.6885 36.9833 39.3583 36.7237 39.019L37.0622 38.7621C37.3172 39.0877 37.5861 39.4088 37.8735 39.7115L37.5582 39.9958V40.0004ZM34.4055 34.465C34.2479 33.9192 34.1227 33.3597 34.0346 32.7957L34.4565 32.7314C34.54 33.2772 34.6605 33.8183 34.8135 34.3457L34.4009 34.4604L34.4055 34.465ZM33.9001 31.5253C33.8816 31.2547 33.877 30.9796 33.877 30.6998C33.877 29.2552 34.1041 27.8335 34.5539 26.4715L34.9619 26.5999C34.526 27.9207 34.3081 29.3011 34.3081 30.6998C34.3081 30.9704 34.3174 31.2364 34.3313 31.4978L33.9048 31.5207L33.9001 31.5253ZM35.5739 25.0635L35.1844 24.8847C35.3652 24.4994 35.5692 24.1188 35.7918 23.7519L36.1581 23.9629C35.9448 24.3206 35.7454 24.6875 35.5692 25.0589L35.5739 25.0635ZM39.4545 20.2436L39.1903 19.9134C39.6446 19.5602 40.1222 19.2346 40.6136 18.9411L40.8362 19.2988C40.3586 19.5832 39.895 19.8996 39.4545 20.2436ZM41.9443 18.7072L41.7588 18.3312C43.1961 17.6478 44.7308 17.2122 46.3164 17.0425L46.3628 17.4598C44.8235 17.6249 43.3352 18.0468 41.9443 18.7072Z" fill="#432D69"/>
<path d="M53.1406 48.1314L53.0201 47.7279C53.6553 47.5398 54.2905 47.3151 54.8978 47.0629L55.0647 47.4481C54.4388 47.7095 53.7897 47.9388 53.1406 48.1314ZM56.2378 46.907L56.043 46.5309C56.5438 46.2787 57.0352 46.0035 57.5081 45.7054L57.7353 46.0585C57.2531 46.3612 56.7478 46.6455 56.2331 46.9024L56.2378 46.907ZM61.6716 42.7657L61.3517 42.486C61.6299 42.1741 61.9034 41.8531 62.1584 41.5229L62.4969 41.7797C62.2326 42.1145 61.9544 42.4447 61.6716 42.7611V42.7657ZM63.4891 40.3855L63.1274 40.1608C64.0315 38.7483 64.727 37.2257 65.1953 35.6252L65.6079 35.7399C65.1304 37.3771 64.4164 38.9363 63.4937 40.381L63.4891 40.3855ZM65.9185 34.5062L65.5013 34.4191C65.6172 33.8825 65.7099 33.3322 65.7748 32.7818L66.2014 32.8323C66.1365 33.3964 66.0391 33.9605 65.9232 34.5108L65.9185 34.5062ZM65.6589 27.8105C65.5894 27.4024 65.5059 26.9896 65.4085 26.5906L65.8258 26.4943C65.9232 26.9071 66.0113 27.3244 66.0808 27.7463L65.6589 27.8151V27.8105ZM64.9449 24.9947C64.4024 23.4216 63.6374 21.9266 62.6684 20.5599L63.0208 20.3215C64.013 21.7202 64.7965 23.252 65.3529 24.8617L64.9495 24.9947H64.9449ZM61.9081 19.5648C61.5557 19.1337 61.1802 18.7163 60.7907 18.3219L61.0967 18.0284C61.4954 18.432 61.8802 18.8631 62.2419 19.3034L61.9081 19.5693V19.5648ZM56.7988 15.2722C56.4325 15.0658 56.0569 14.8686 55.6767 14.6898L55.8622 14.3091C56.247 14.4926 56.6365 14.6943 57.012 14.9053L56.7988 15.2722ZM54.1236 14.0385C52.5425 13.4607 50.8827 13.1076 49.1904 12.9837L49.2229 12.5664C50.9523 12.6902 52.6538 13.0571 54.2719 13.6487L54.1236 14.0431V14.0385Z" fill="#432D69"/>
<path d="M42.537 48.1316C40.8818 47.6455 39.3008 46.93 37.8403 46.0036L38.0721 45.6505C39.4955 46.554 41.0394 47.2556 42.6575 47.728L42.537 48.1316ZM36.4355 45.013C36.097 44.7516 35.7632 44.4765 35.4433 44.1921L35.7308 43.8803C36.0414 44.16 36.3706 44.4306 36.6998 44.6828L36.4355 45.013ZM32.1283 40.2894C31.8269 39.8078 31.5441 39.308 31.2845 38.8035L31.6646 38.6155C31.915 39.1108 32.1932 39.5969 32.4853 40.0647L32.1236 40.2848L32.1283 40.2894ZM30.7513 37.6432C30.0883 36.0702 29.6571 34.41 29.467 32.7178L29.8935 32.6719C30.079 34.3275 30.5009 35.9464 31.1454 37.4827L30.7513 37.6432ZM29.3604 31.0163V30.6999C29.3604 30.3789 29.365 30.0578 29.3835 29.7414L29.8101 29.7643C29.7915 30.0762 29.7869 30.388 29.7869 30.6999V31.0072L29.3604 31.0117V31.0163ZM30.7745 24.8893L30.3711 24.7518C30.5565 24.2198 30.7745 23.6878 31.0109 23.1741L31.4004 23.3484C31.1685 23.8529 30.9553 24.3711 30.7745 24.8893ZM31.966 22.2294L31.5905 22.0276C32.4157 20.5326 33.4543 19.1567 34.669 17.9414L34.975 18.2349C33.7881 19.4227 32.7727 20.7665 31.966 22.2248V22.2294ZM36.2129 17.1113L35.9394 16.7903C36.2686 16.5197 36.6117 16.2538 36.9594 16.0015L37.2098 16.3409C36.8667 16.5839 36.5329 16.8454 36.2129 17.1113ZM41.6653 14.002L41.517 13.6076C42.0548 13.415 42.6112 13.2453 43.1675 13.1031L43.2742 13.5113C42.7317 13.6489 42.1893 13.8185 41.6607 14.0066L41.6653 14.002ZM44.5121 13.2361L44.4333 12.8234C45.1426 12.695 45.8659 12.6032 46.5892 12.5574L46.617 12.9747C45.9123 13.0206 45.2029 13.1077 44.5121 13.2361Z" fill="#432D69"/>
<path d="M54.7591 54.6391L54.6432 54.2355C54.8147 54.1897 54.9863 54.1392 55.1532 54.0888L55.2784 54.4924C55.1068 54.5428 54.9306 54.5932 54.7591 54.6437V54.6391ZM40.9148 54.6391C39.2596 54.1759 37.6462 53.543 36.1208 52.7542L36.3201 52.3828C37.8223 53.1578 39.408 53.7815 41.0307 54.2355L40.9148 54.6391ZM60.0307 52.502L59.8267 52.1351C60.1976 51.9333 60.5639 51.7224 60.9209 51.5022L61.148 51.8599C60.7864 52.0801 60.4109 52.2956 60.0353 52.502H60.0307ZM34.6232 51.915C34.2569 51.6948 33.8907 51.461 33.5383 51.2225L33.7794 50.8739C34.1271 51.1078 34.4841 51.3371 34.8458 51.5573L34.6232 51.915ZM62.5761 50.9198L62.3257 50.5804C63.6981 49.6082 64.9777 48.4938 66.1229 47.2693L66.4382 47.5536C65.2698 48.801 63.9716 49.9338 62.5761 50.9198ZM29.6066 47.9343C29.2126 47.5307 28.8231 47.1042 28.4568 46.6731L28.786 46.4025C29.1476 46.829 29.5278 47.2464 29.9173 47.6453L29.6113 47.9343H29.6066ZM67.2913 46.5951L66.9621 46.3245C67.3191 45.898 67.6715 45.4578 68.0006 45.0083L68.3484 45.256C68.0145 45.7146 67.6575 46.164 67.2913 46.5951ZM27.6501 45.6779C26.6115 44.325 25.7121 42.8621 24.9749 41.3349L25.3597 41.156C26.083 42.6557 26.9685 44.0957 27.9885 45.4257L27.6454 45.6779H27.6501ZM70.9262 40.8579L70.5367 40.6883C70.7083 40.3076 70.8752 39.9178 71.0282 39.5326L71.4269 39.6839C71.2739 40.0783 71.107 40.4727 70.9308 40.8579H70.9262ZM24.2933 39.7802C24.1357 39.3858 23.9873 38.9868 23.8529 38.5878L24.2562 38.4548C24.3907 38.8492 24.5344 39.2436 24.6874 39.6289L24.2887 39.7802H24.2933ZM71.9926 38.0788L71.5846 37.955C72.0853 36.3682 72.4191 34.7172 72.5814 33.057L73.0079 33.0983C72.8457 34.786 72.5026 36.4645 71.9926 38.0788ZM22.7309 33.6303C22.666 33.0708 22.615 32.5021 22.5871 31.9426L23.0137 31.9243C23.0415 32.4792 23.0879 33.0387 23.1528 33.5844L22.7262 33.6349L22.7309 33.6303ZM73.096 31.828L72.6695 31.8096C72.688 31.4427 72.6927 31.0713 72.6927 30.7044C72.6927 30.5163 72.6927 30.3329 72.688 30.1449L73.1146 30.1357C73.1146 30.3237 73.1192 30.5118 73.1192 30.7044C73.1192 31.0804 73.1099 31.4565 73.0914 31.8325L73.096 31.828ZM22.9812 30.6723H22.5547C22.5547 28.9708 22.7355 27.274 23.0832 25.623L23.5005 25.7101C23.1574 27.3336 22.9859 29.0029 22.9812 30.6769V30.6723ZM72.0621 25.1919C71.9694 24.7929 71.8628 24.3848 71.7468 23.9812L72.1595 23.8665C72.28 24.2793 72.3867 24.692 72.4794 25.1002L72.0621 25.1919ZM23.9039 24.0867L23.4912 23.972C23.6071 23.5684 23.737 23.1557 23.8714 22.7567L24.2748 22.8897C24.1403 23.2841 24.0152 23.6831 23.8992 24.0821L23.9039 24.0867ZM71.2229 22.3944C70.648 20.8305 69.9062 19.3171 69.0206 17.8955L69.3823 17.6753C70.2864 19.1199 71.0375 20.6563 71.6263 22.2476L71.2229 22.3898V22.3944ZM26.3797 18.3495L26.0088 18.1385C26.2963 17.6524 26.6069 17.1709 26.9314 16.7031L27.2838 16.9416C26.9685 17.4002 26.6625 17.8725 26.3797 18.3495ZM68.3252 16.8498C68.0099 16.3958 67.6715 15.9464 67.3191 15.5107L67.6529 15.2493C68.0099 15.6896 68.353 16.1482 68.6776 16.6114L68.3252 16.8498ZM28.0303 15.9234L27.6918 15.6712C28.7304 14.3229 29.9173 13.0755 31.2155 11.9611L31.4983 12.2775C30.2233 13.3736 29.0596 14.6027 28.0349 15.928L28.0303 15.9234ZM63.7815 11.9336C63.457 11.6676 63.1231 11.4062 62.7847 11.1539L63.0397 10.8191C63.3828 11.0714 63.7212 11.3374 64.0504 11.6125L63.7769 11.9336H63.7815ZM32.8058 11.2227L32.5461 10.8879C32.8892 10.6311 33.2416 10.3835 33.5939 10.145L33.835 10.4935C33.4873 10.7274 33.1396 10.9705 32.8058 11.2227ZM61.3984 10.2C59.9797 9.28739 58.4636 8.52151 56.8872 7.91615L57.0402 7.52633C58.6398 8.14087 60.1837 8.92509 61.6302 9.85147L61.3984 10.2046V10.2ZM38.2953 8.10877L38.133 7.71895C38.6615 7.5034 39.204 7.30162 39.7418 7.12276L39.8809 7.52175C39.3477 7.70061 38.8192 7.89781 38.2999 8.10877H38.2953ZM55.691 7.48506C55.1578 7.31079 54.6107 7.15028 54.0683 7.01269L54.1749 6.60453C54.7266 6.7467 55.283 6.90721 55.8255 7.08607L55.691 7.48506ZM41.091 7.15486L40.9751 6.75129C42.6256 6.29268 44.3365 6.00376 46.0612 5.88452L46.089 6.30185C44.3967 6.4165 42.7137 6.70543 41.091 7.15486ZM49.0517 6.26975C48.653 6.25141 48.245 6.24223 47.8416 6.24223H47.7813V5.82031H47.8416C48.2542 5.82031 48.6669 5.82949 49.0749 5.84783L49.0563 6.26975H49.0517Z" fill="#432D69"/>
<path d="M38.7725 60.2294C37.1312 59.7433 35.5178 59.115 33.9785 58.3675L34.1686 57.9914C35.6847 58.7298 37.2796 59.3489 38.8977 59.8304L38.7725 60.234V60.2294ZM56.9518 60.2157L56.8266 59.8121C57.3645 59.6516 57.9069 59.4727 58.4355 59.2847L58.5792 59.6791C58.0414 59.8717 57.4943 60.0506 56.9472 60.2157H56.9518ZM32.4531 57.5741C32.0776 57.3677 31.7067 57.1476 31.3404 56.9274L31.5676 56.5697C31.9292 56.7899 32.2955 57.0008 32.6617 57.2072L32.4531 57.5741ZM63.262 57.5512L63.0533 57.1843C63.4242 56.9779 63.7859 56.7669 64.1475 56.5468L64.3747 56.9045C64.0084 57.1292 63.6421 57.3448 63.2666 57.5512H63.262ZM65.8073 55.9735L65.5616 55.6296C66.9479 54.6757 68.2646 53.598 69.4747 52.4331L69.7715 52.7312C68.5474 53.9144 67.2122 55.0059 65.8073 55.9735ZM27.2001 53.9098C26.7735 53.5429 26.347 53.1531 25.939 52.7587L26.2357 52.456C26.6391 52.8458 27.061 53.2265 27.4829 53.5888L27.2001 53.9052V53.9098ZM25.0349 51.8507C23.8572 50.6216 22.7723 49.287 21.8172 47.8883L22.1696 47.6544C23.1154 49.0348 24.1818 50.351 25.3455 51.5663L25.0349 51.8552V51.8507ZM70.6756 51.8231L70.3649 51.5342C70.7497 51.1306 71.1299 50.7087 71.4916 50.2868L71.8207 50.5574C71.4545 50.9885 71.0696 51.4104 70.6756 51.8231ZM20.8946 46.4574C20.6767 46.0951 20.4634 45.7282 20.2594 45.3568L20.6349 45.155C20.8389 45.5219 21.0476 45.8842 21.2608 46.2419L20.8946 46.4574ZM74.8019 46.4207L74.4357 46.2052C74.6536 45.8475 74.8622 45.4806 75.0616 45.1137L75.4371 45.3155C75.2331 45.687 75.0199 46.0584 74.8019 46.4207ZM76.216 43.8021L75.8312 43.6232C76.5499 42.1144 77.148 40.5368 77.607 38.9317L78.0196 39.0463C77.556 40.6744 76.9486 42.2703 76.2207 43.8021H76.216ZM18.1869 40.7111C18.0015 40.1837 17.8299 39.6379 17.6769 39.0968L18.0896 38.9821C18.2426 39.5141 18.4141 40.0507 18.5949 40.5735L18.1916 40.7111H18.1869ZM17.3524 37.8677C16.9536 36.2305 16.694 34.5428 16.5781 32.8505L17.0046 32.823C17.1205 34.4878 17.3802 36.1525 17.7696 37.7714L17.3524 37.8677ZM78.3349 37.8173L77.9176 37.721C78.0474 37.1844 78.1633 36.6341 78.2607 36.0883L78.6826 36.1617C78.5806 36.7166 78.4647 37.2761 78.3349 37.8173ZM16.5039 31.1629C16.5039 31.0115 16.5039 30.8556 16.5039 30.7043C16.5039 30.4337 16.5039 30.1631 16.5132 29.8925L16.9397 29.9017C16.9305 30.1677 16.9305 30.4337 16.9305 30.6997C16.9305 30.851 16.9305 31.0024 16.9305 31.1537H16.5039V31.1629ZM79.1741 31.1124H78.7475C78.7475 30.9748 78.7475 30.8373 78.7475 30.7043C78.7475 30.4199 78.7475 30.1356 78.7336 29.8558L79.1602 29.8421C79.1694 30.1264 79.1741 30.4153 79.1741 30.7043C79.1741 30.8418 79.1741 30.9748 79.1741 31.1124ZM78.6455 28.1865C78.5064 26.5218 78.2282 24.8616 77.8156 23.2519L78.2282 23.151C78.6455 24.7836 78.9283 26.4667 79.0674 28.1544L78.6409 28.1911L78.6455 28.1865ZM17.4868 24.9304L17.0649 24.8524C17.1715 24.3021 17.2967 23.7472 17.4358 23.2014L17.8485 23.3023C17.7094 23.8389 17.5888 24.3892 17.4822 24.9304H17.4868ZM18.1869 22.0916L17.7789 21.9724C18.2657 20.3535 18.8917 18.7575 19.6427 17.2395L20.0276 17.423C19.2857 18.9226 18.6691 20.4911 18.1916 22.0916H18.1869ZM77.4771 22.0412C77.3149 21.5092 77.1387 20.9726 76.9486 20.4544L77.352 20.3122C77.5421 20.8396 77.7229 21.3808 77.8852 21.9219L77.4771 22.0412ZM20.8065 15.9417L20.4309 15.7353C20.6396 15.3638 20.8575 14.9969 21.08 14.6392L21.4463 14.8594C21.2238 15.2171 21.0105 15.5748 20.8018 15.9417H20.8065ZM74.8483 15.905C74.6397 15.5427 74.4264 15.1804 74.2085 14.8273L74.5701 14.6071C74.7927 14.9648 75.0106 15.3317 75.2192 15.7032L74.8483 15.9096V15.905ZM73.2812 13.4239C72.3168 12.0527 71.2366 10.7548 70.0589 9.55327L70.3649 9.25976C71.5565 10.4751 72.6599 11.7959 73.6336 13.1809L73.2812 13.4193V13.4239ZM24.4507 10.8144L24.1261 10.5393C24.5017 10.1128 24.8911 9.69085 25.2852 9.28728L25.5912 9.58079C25.2018 9.97978 24.817 10.3925 24.4461 10.8144H24.4507ZM26.4953 8.70026L26.1986 8.39758C27.4412 7.23272 28.7904 6.15957 30.2045 5.20567L30.4455 5.55421C29.05 6.49436 27.7193 7.54916 26.4953 8.70026ZM69.1548 8.67274C68.7468 8.2921 68.3249 7.91604 67.8937 7.55374L68.1719 7.23272C68.6077 7.5996 69.0389 7.98025 69.4515 8.36548L69.1548 8.66816V8.67274ZM31.8736 4.65075L31.651 4.29304C32.0173 4.07291 32.3882 3.86195 32.7684 3.66016L32.9724 4.02705C32.6015 4.22883 32.2352 4.43521 31.8736 4.65075ZM63.7673 4.62782C63.4057 4.41228 63.0348 4.2059 62.6639 4.00412L62.8679 3.63723C63.248 3.83902 63.619 4.05456 63.9899 4.27011L63.7673 4.63241V4.62782ZM61.1524 3.24283C59.6224 2.52281 58.0228 1.92662 56.3955 1.46343L56.5114 1.05986C58.1619 1.52764 59.7847 2.133 61.3332 2.86218L61.1478 3.24283H61.1524ZM37.6181 1.98624L37.479 1.59184C38.0214 1.40381 38.5685 1.23413 39.1156 1.0782L39.2362 1.48177C38.6983 1.63311 38.1512 1.80739 37.6181 1.99083V1.98624ZM40.4602 1.15616L40.3582 0.748003C42.0226 0.349014 43.7335 0.0784345 45.4489 -0.0499756L45.4814 0.367357C43.7891 0.491181 42.1014 0.757175 40.4602 1.15158V1.15616ZM55.1668 1.14241C54.6197 1.00941 54.0633 0.894756 53.507 0.793863L53.5858 0.381117C54.1468 0.48201 54.7124 0.601247 55.2688 0.734243L55.1668 1.14241ZM47.1783 0.289395L47.169 -0.132525C47.5956 -0.141697 48.0314 -0.141697 48.4579 -0.132525L48.4487 0.289395C48.0221 0.280223 47.6002 0.280223 47.1737 0.289395H47.1783Z" fill="#432D69"/>
<path d="M55.566 89.6126L55.209 89.3787C55.5845 88.8238 55.8442 88.2964 56.0111 87.7552C56.3124 86.7922 56.3217 85.8199 56.3356 84.5863C56.3403 83.9947 56.3634 83.3985 56.3866 82.7977C56.433 81.6466 56.4747 80.4542 56.3959 79.3169C56.3866 79.193 56.3774 79.0646 56.3634 78.9408C56.2707 77.9181 56.1687 76.7578 57.5318 76.2167C57.5457 76.2075 57.5828 76.1937 57.6199 76.1846L57.7497 76.5836L57.6895 76.6065C56.6184 77.0284 56.6973 77.8998 56.7854 78.9041C56.7946 79.0325 56.8085 79.1609 56.8178 79.2893C56.9013 80.4496 56.8549 81.6512 56.8085 82.816C56.7854 83.4122 56.7622 84.0038 56.7575 84.5909C56.7436 85.8566 56.7344 86.8564 56.4144 87.8791C56.2383 88.4569 55.9554 89.0256 55.5614 89.6126H55.566Z" fill="#432D69"/>
<path d="M58.185 88.1772L57.7585 88.1313C58.134 84.7651 57.9208 81.6191 57.6472 78.4272C57.6194 78.1153 57.573 77.8081 57.5313 77.5008C57.4803 77.1523 57.4247 76.79 57.4015 76.4277C57.3598 75.8819 57.3922 75.4187 57.4942 74.9693C57.6658 74.2447 58.0228 74.02 58.2917 73.9558C58.6209 73.8824 58.9964 74.0245 59.2468 74.3318C59.4508 74.5749 59.5435 74.8684 59.6362 75.1527C60.5172 77.9961 61.259 80.6285 61.3842 84.0681L60.9576 84.0818C60.8463 80.9862 60.2853 78.6886 59.2282 75.2766C59.1448 75.0197 59.0706 74.7767 58.9176 74.5978C58.8017 74.4556 58.5884 74.3226 58.3937 74.3639C58.1201 74.4281 57.981 74.7767 57.9161 75.061C57.8188 75.4692 57.7956 75.8911 57.8327 76.3955C57.8559 76.7441 57.9069 77.0789 57.9579 77.4366C58.0042 77.753 58.0506 78.0695 58.0784 78.3859C58.352 81.6008 58.5699 84.7651 58.1897 88.1726L58.185 88.1772Z" fill="#432D69"/>
<path d="M63.7259 91.0295H63.2993L63.4662 76.7347C63.4662 76.5651 63.4662 76.3862 63.3874 76.2761C63.3225 76.1798 63.2947 76.0606 63.2854 75.9597C62.5204 76.0789 61.9826 76.8081 61.7971 77.4685C61.6581 77.973 61.6951 78.4729 61.7322 78.9957C61.7554 79.3075 61.7786 79.6331 61.7647 79.9679C61.7415 80.4036 61.6812 80.8484 61.6256 81.2841C61.5792 81.6281 61.5375 81.972 61.5097 82.3114C61.4772 82.7425 61.4494 83.1782 61.4216 83.6093L61.3891 84.0954C61.301 85.3978 61.1805 86.7691 60.7586 88.0899L60.3506 87.9615C60.7586 86.6865 60.8745 85.3428 60.958 84.077L60.9904 83.5818C61.0182 83.1461 61.046 82.7058 61.0785 82.2747C61.1063 81.9308 61.1527 81.5776 61.199 81.2291C61.2547 80.8026 61.3103 80.3623 61.3335 79.945C61.3474 79.6423 61.3242 79.3305 61.3057 79.0278C61.264 78.4912 61.2269 77.9363 61.3845 77.3584C61.6117 76.5421 62.3071 75.6387 63.3086 75.5332C63.3874 75.4782 63.4662 75.4827 63.508 75.4965C63.6749 75.5424 63.6888 75.7029 63.6981 75.8313C63.7027 75.8863 63.712 76.0055 63.7352 76.0377C63.8928 76.2532 63.8928 76.5238 63.8928 76.7439L63.7259 91.0387V91.0295Z" fill="#432D69"/>
<path d="M58.505 108.599C57.6056 108.599 56.5299 108.333 55.2781 107.572L55.1807 107.512L55.0555 102.642C54.221 100.853 53.6832 98.9314 53.4606 96.9365C53.4328 96.6384 53.4004 96.3357 53.3818 96.033C53.3262 95.102 53.456 94.1435 53.5858 93.2126C53.7434 92.0661 53.8918 90.9837 53.7203 89.9473C53.609 89.2685 53.3076 88.5806 53.0155 87.9202C52.7884 87.402 52.5519 86.8654 52.4035 86.3289C52.0326 84.9851 51.8518 83.8661 51.8425 82.8113C51.8425 82.7242 51.8333 82.6004 51.824 82.4536C51.7498 81.3897 51.7313 80.422 52.2876 80.2431C52.7234 80.101 53.1546 80.3394 53.3911 80.6375C53.6136 80.9127 53.7156 81.2337 53.813 81.6006C53.9335 82.0317 54.0355 82.4811 54.1468 82.9581C54.5316 84.6228 54.9628 86.5077 56.21 87.613L55.9226 87.9248C54.5734 86.7324 54.1236 84.7788 53.7249 83.0498C53.6183 82.5775 53.5116 82.128 53.3957 81.7107C53.3076 81.3897 53.2242 81.1099 53.0526 80.899C52.9089 80.7155 52.6446 80.5733 52.4174 80.6421C52.2273 80.7063 52.1671 81.3025 52.2459 82.4261C52.2552 82.5866 52.2644 82.7196 52.2644 82.8113C52.2737 83.8295 52.4499 84.9118 52.8115 86.2234C52.9553 86.7324 53.1824 87.2552 53.405 87.7597C53.7064 88.4476 54.017 89.1539 54.1375 89.8831C54.323 90.9791 54.1607 92.144 54.0077 93.2722C53.8825 94.1802 53.7527 95.1204 53.8084 96.0101C53.8269 96.3082 53.8547 96.6017 53.8825 96.8952C54.1004 98.8626 54.6336 100.752 55.4589 102.509L55.4775 102.591L55.598 107.278C59.1263 109.36 61.0411 107.306 61.3703 106.902L60.7815 102.013L60.902 101.944C62.7983 100.862 63.7071 98.7388 64.4072 96.6063C64.486 96.377 64.5555 96.1568 64.6251 95.9367C65.0609 94.5471 65.506 93.1071 66.2895 91.8367C66.6512 91.2451 67.1102 90.7636 67.5553 90.2958C67.9772 89.8556 68.3759 89.4382 68.7005 88.9338C68.8998 88.6219 69.0992 88.1908 68.9091 87.9065C68.8164 87.7643 68.6773 87.6863 68.4918 87.6634C67.6944 87.5625 66.2385 88.5027 65.6683 89.0025C65.0006 89.585 64.4164 90.2821 63.8508 90.9516L63.67 91.1672C63.466 91.4148 63.2481 91.6671 63.0348 91.9055C61.6578 93.4465 60.0536 94.7718 58.2593 95.845L58.0367 95.4873C59.7893 94.437 61.3657 93.1392 62.7102 91.6304C62.9235 91.3919 63.1321 91.1488 63.3361 90.9012L63.517 90.6856C64.0919 90.0023 64.69 89.2961 65.3808 88.6907C65.7656 88.3513 67.4486 87.1039 68.5428 87.2461C68.8535 87.2874 69.0992 87.4295 69.2615 87.6772C69.5118 88.0486 69.4423 88.5623 69.0575 89.1631C68.7097 89.6996 68.2832 90.1491 67.8659 90.5893C67.4347 91.0388 66.9896 91.5065 66.6512 92.0569C65.9001 93.2859 65.4596 94.6985 65.0331 96.0605C64.9635 96.2852 64.8893 96.51 64.8152 96.7393C64.1058 98.9085 63.1785 101.069 61.2405 102.243L61.8154 107.021L61.7691 107.085C61.7691 107.085 60.6285 108.603 58.5004 108.603L58.505 108.599Z" fill="#432D69"/>
<path d="M39.8068 89.6126C39.4081 89.0255 39.1299 88.4569 38.9537 87.879C38.6338 86.8747 38.6245 85.8749 38.6106 84.6091C38.606 84.0038 38.5828 83.4076 38.5596 82.8114C38.5133 81.6465 38.4669 80.445 38.5504 79.2847C38.5596 79.1563 38.5689 79.0279 38.5828 78.8995C38.6709 77.8951 38.7497 77.0238 37.6787 76.6019L37.7529 76.1799C37.7853 76.1891 37.8271 76.2029 37.8688 76.2258C39.2041 76.7532 39.1021 77.9135 39.0094 78.9362C39.0001 79.0646 38.9862 79.1884 38.9769 79.3122C38.8934 80.4496 38.9398 81.642 38.9862 82.7931C39.0094 83.3938 39.0325 83.99 39.0372 84.5816C39.0511 85.829 39.0604 86.8013 39.3617 87.7506C39.5286 88.2918 39.7883 88.8192 40.1638 89.3741L39.8068 89.608V89.6126Z" fill="#432D69"/>
<path d="M37.1867 88.1771C36.8065 84.7697 37.0198 81.6053 37.2979 78.3905C37.3258 78.0694 37.3721 77.753 37.4185 77.4365C37.4695 77.0788 37.5205 76.7395 37.5437 76.3955C37.5808 75.891 37.5529 75.4691 37.4602 75.061C37.4046 74.8317 37.2701 74.4327 36.9827 74.3639C36.7879 74.318 36.5747 74.451 36.4588 74.5932C36.3057 74.7766 36.2223 75.0197 36.1481 75.2719C35.091 78.684 34.53 80.9816 34.4187 84.0772L33.9922 84.0634C34.1174 80.6239 34.8592 77.9915 35.7401 75.1527C35.8282 74.8592 35.9256 74.5703 36.1296 74.3272C36.3753 74.0245 36.7508 73.8778 37.08 73.9557C37.4648 74.0429 37.7384 74.3914 37.8775 74.9647C37.9841 75.4141 38.0119 75.8773 37.9702 76.423C37.947 76.7853 37.8914 77.143 37.8404 77.4962C37.794 77.8034 37.7523 78.1107 37.7245 78.4226C37.4509 81.6145 37.2377 84.7605 37.6132 88.1267L37.1867 88.1726V88.1771Z" fill="#432D69"/>
<path d="M31.6464 91.0297L31.4795 76.7395C31.4795 76.5194 31.4795 76.2488 31.6371 76.0287C31.6557 75.9966 31.6649 75.8819 31.6696 75.8269C31.6789 75.6985 31.6928 75.538 31.8597 75.4921C31.9014 75.4783 31.9802 75.4738 32.059 75.5288C33.0605 75.6343 33.756 76.5377 33.9831 77.3541C34.1454 77.9319 34.1037 78.4868 34.062 79.0234C34.0388 79.3261 34.0156 79.6379 34.0341 79.9452C34.0573 80.3625 34.113 80.8028 34.1686 81.2293C34.215 81.5778 34.2613 81.931 34.2892 82.2749C34.3216 82.706 34.3494 83.1417 34.3772 83.5774L34.4097 84.0727C34.4931 85.3476 34.6091 86.6959 35.0171 87.9662L34.6091 88.0946C34.1871 86.7784 34.0666 85.4026 33.9785 84.1093L33.9461 83.6049C33.9182 83.1738 33.8904 82.7381 33.858 82.3116C33.8301 81.9768 33.7838 81.6283 33.7421 81.2843C33.6864 80.8532 33.6261 80.4038 33.603 79.9727C33.5844 79.6379 33.6122 79.3169 33.6354 79.0005C33.6725 78.4776 33.7096 77.9778 33.5705 77.4733C33.3851 76.8129 32.8472 76.0837 32.0822 75.9645C32.0683 76.07 32.0451 76.1892 31.9802 76.2809C31.8968 76.391 31.8968 76.5698 31.8968 76.7441L32.0637 91.0343H31.6371L31.6464 91.0297Z" fill="#432D69"/>
<path d="M36.8667 108.599C34.7386 108.599 33.6166 107.099 33.598 107.081L33.5517 107.017L34.1266 102.238C32.017 100.963 31.0805 98.4454 30.3711 96.1753L30.334 96.0606C29.9075 94.694 29.467 93.2814 28.7113 92.0524C28.3728 91.4975 27.9277 91.0297 27.4965 90.5802C27.0793 90.1446 26.6527 89.6951 26.3096 89.1586C25.9202 88.567 25.8506 88.0533 26.1056 87.6727C26.2679 87.4296 26.509 87.2829 26.8243 87.2416C27.9324 87.104 29.6015 88.3422 29.9863 88.6862C30.6725 89.2916 31.2706 89.9978 31.8455 90.6766L32.0263 90.8921C32.2303 91.1397 32.4436 91.3874 32.6569 91.6259C34.0014 93.1347 35.5731 94.4326 37.3303 95.4828L37.1078 95.8405C35.3181 94.7673 33.714 93.442 32.3369 91.901C32.1237 91.658 31.9058 91.4103 31.6971 91.1581L31.5163 90.9425C30.9507 90.273 30.3665 89.5759 29.6988 88.9935C29.1286 88.4936 27.6681 87.558 26.8753 87.6543C26.6898 87.6773 26.5507 87.7598 26.458 87.8974C26.2494 88.2047 26.4997 88.6724 26.662 88.9247C26.9865 89.4291 27.3853 89.8419 27.8026 90.2867C28.2476 90.7545 28.7113 91.2406 29.0683 91.8277C29.8518 93.1026 30.3016 94.538 30.7328 95.9276L30.7698 96.0423C31.4746 98.2803 32.3926 100.766 34.4558 101.94L34.5763 102.009L33.9875 106.898C34.3167 107.301 36.2454 109.346 39.7598 107.274L39.8989 102.504C40.6407 100.926 41.1415 99.2433 41.3918 97.5052C41.4614 97.0329 41.5124 96.5284 41.5495 96.0056C41.6051 95.1159 41.4753 94.1757 41.3501 93.2677C41.1925 92.1395 41.0348 90.9746 41.2203 89.8786C41.3408 89.1494 41.6515 88.4385 41.9528 87.7552C42.1754 87.2508 42.4026 86.7279 42.5463 86.2189C42.9079 84.9073 43.0841 83.825 43.0934 82.8068C43.0934 82.7151 43.1027 82.5821 43.1166 82.4262C43.1954 81.3072 43.1351 80.7064 42.945 80.6422C42.7225 80.5734 42.4582 80.7156 42.3098 80.8945C42.1383 81.1054 42.0502 81.3897 41.9621 81.7062C41.8462 82.1281 41.7396 82.573 41.6329 83.0499C41.2342 84.7743 40.7845 86.7325 39.4353 87.9249L39.1478 87.6131C40.395 86.5124 40.8262 84.6229 41.211 82.9582C41.3223 82.4812 41.4243 82.0272 41.5448 81.6007C41.6468 81.2384 41.7442 80.9128 41.9667 80.6376C42.2032 80.3441 42.6344 80.1056 43.0656 80.2478C43.6219 80.4267 43.6034 81.3943 43.5292 82.4583C43.5199 82.6051 43.5107 82.7335 43.5107 82.816C43.4967 83.8708 43.3206 84.9898 42.9497 86.3335C42.8013 86.8747 42.5648 87.4067 42.3377 87.9249C42.0456 88.5853 41.7442 89.2732 41.6329 89.952C41.4567 90.9838 41.6051 92.0707 41.7674 93.2172C41.8972 94.1482 42.027 95.1067 41.9714 96.0377C41.9343 96.5742 41.8833 97.0879 41.8137 97.5694C41.5587 99.3351 41.0487 101.041 40.3023 102.646L40.1771 107.517L40.0797 107.576C38.8279 108.333 37.7523 108.604 36.8528 108.604L36.8667 108.599Z" fill="#432D69"/>
<path d="M68.1631 116.271L67.7412 116.207C67.8664 115.4 67.9869 114.593 68.1075 113.786C68.4459 111.552 68.7705 109.319 69.0904 107.086C69.4799 104.361 69.86 101.633 70.2356 98.9086L70.5509 96.6477C70.8708 94.3546 71.1907 92.057 71.5199 89.7685C72.2988 84.3432 76.5272 80.1286 81.808 79.5232C82.4386 79.4453 83.0923 79.4269 83.7507 79.4682C85.4105 79.5737 87.024 80.0644 88.5447 80.9174L88.6375 80.9679L88.4242 81.3347L88.3314 81.2843C86.8663 80.4634 85.3132 79.991 83.7182 79.8901C83.083 79.8489 82.4571 79.8672 81.8544 79.9452C76.7636 80.5276 72.6882 84.5954 71.9372 89.8327C71.608 92.1258 71.2881 94.4188 70.9681 96.7119L70.6529 98.9728C70.2773 101.697 69.8971 104.426 69.5077 107.15C69.1878 109.388 68.8632 111.621 68.5248 113.855C68.4042 114.662 68.279 115.469 68.1585 116.276L68.1631 116.271Z" fill="#432D69"/>
<path d="M82.0396 79.6609H81.6131V71.3096H76.4991L76.2441 67.2601H81.4972V63.5637H85.1136V67.2601H88.5677V67.682H84.687V63.9856H81.9237V67.682H76.6985L76.9025 70.8877H82.0396V79.6609Z" fill="#432D69"/>
<path d="M84.9978 79.6609H84.5713V70.8877H88.336V71.3096H84.9978V79.6609Z" fill="#432D69"/>
<path d="M25.8693 116.271C25.7395 115.455 25.619 114.639 25.4938 113.823C25.1785 111.75 24.8586 109.557 24.5155 107.127C24.2281 105.114 23.9452 103.096 23.6671 101.082L23.3518 98.8169C22.9345 95.8176 22.5172 92.8229 22.0907 89.8281C21.3396 84.5908 17.2642 80.523 12.1781 79.9406C11.223 79.8213 10.254 79.8443 9.3035 80.0002C8.0424 80.2066 6.81839 80.6468 5.66393 81.2935L5.38574 80.9633L5.45065 80.9266C6.64684 80.2524 7.91721 79.7984 9.22931 79.5829C10.2215 79.4178 11.2276 79.3948 12.2244 79.5186C17.5006 80.124 21.7337 84.3386 22.508 89.7639C22.9391 92.7586 23.3518 95.7579 23.7691 98.7526L24.0843 101.018C24.3625 103.031 24.6453 105.049 24.9328 107.063C25.2759 109.493 25.5958 111.681 25.9111 113.754C26.0362 114.57 26.1568 115.386 26.2866 116.198L25.8647 116.262L25.8693 116.271Z" fill="#432D69"/>
<path d="M12.4194 79.6609H11.9929V70.8877H17.13L17.3294 67.682H12.1042V63.9856H9.34551V67.682H5.46484V67.2601H8.91896V63.5637H12.5307V67.2601H17.7837L17.5334 71.3096H12.4194V79.6609Z" fill="#432D69"/>
<path d="M9.46177 79.6609H9.03522V71.3096H5.69238V70.8877H9.46177V79.6609Z" fill="#432D69"/>
<path d="M5.39067 83.9718L1 79.3994V79.2206V78.7849L5.70131 83.6828L5.39067 83.9718Z" fill="#432D69"/>
<path d="M1 12.8507V12.2728L1.13446 12.149L5.52976 8.06738L5.82185 8.37465L5.69667 8.4893L1 12.8507Z" fill="#432D69"/>
<path d="M5.39067 93.208L1 88.6265V87.9524L1.50537 88.5348L5.70131 92.9191L5.39067 93.208Z" fill="#432D69"/>
<path d="M1 58.23V57.7943C1 57.7943 1.21327 57.6796 1.22255 57.6751C2.84065 56.8725 2.8221 55.3591 2.80356 53.7585C2.80356 53.5934 2.80356 53.4238 2.80356 53.2587V39.5188C2.95192 37.9366 3.19765 35.3225 5.51121 35.3225C5.52976 35.3225 5.5483 35.3225 5.56221 35.3225C5.60394 35.3225 5.65031 35.3225 5.69203 35.3271L5.64103 35.7444C5.61321 35.7444 5.5854 35.7444 5.55758 35.7444C3.74011 35.7215 3.41556 37.6018 3.23011 39.5371V53.2587C3.23011 53.4238 3.23011 53.5889 3.23011 53.754C3.24865 55.4141 3.2672 57.1339 1.408 58.0511C1.40337 58.0511 1.00464 58.2254 1 58.2254L1 58.23Z" fill="#432D69"/>
<path d="M88.6095 83.9716L88.2988 83.6827L93.0001 78.7893V79.4038L92.875 79.5323L88.6095 83.9716Z" fill="#432D69"/>
<path d="M92.9857 12.8598L92.5731 12.4563L88.2334 8.4251L88.4699 8.06738L88.5904 8.17745L92.9996 12.2728L92.9857 12.8598Z" fill="#432D69"/>
<path d="M88.6095 93.208L88.2988 92.9191L93.0001 88.0166V88.6311L92.875 88.7595L88.6095 93.208Z" fill="#432D69"/>
<path d="M92.9996 58.2529C92.9996 58.2529 92.5824 58.0512 92.5685 58.0466C90.7278 57.1248 90.751 55.4142 90.7695 53.7586C90.7695 53.5935 90.7695 53.4284 90.7695 53.2633V39.5234C90.5887 37.6202 90.2642 35.7491 88.4884 35.7491C88.4745 35.7491 88.4606 35.7491 88.4421 35.7491C88.4143 35.7491 88.3818 35.7491 88.354 35.7491L88.3076 35.3317C88.3725 35.3271 88.4328 35.3271 88.4884 35.3271C90.7974 35.3271 91.0431 37.9412 91.1915 39.5051V53.2633C91.1915 53.4284 91.1915 53.5935 91.1915 53.7632C91.1729 55.3591 91.1544 56.868 92.7632 57.6705C92.7725 57.6751 92.9857 57.7577 92.995 57.7622V58.2529H92.9996Z" fill="#432D69"/>
</g>
<path d="M8 0.5H86C90.1421 0.5 93.5 3.85786 93.5 8V114.5H0.5V8C0.500001 3.85787 3.85787 0.5 8 0.5Z" stroke="#815DEF"/>
</g>
<defs>
<clipPath id="clip0_1255_44642">
<rect width="92" height="156" fill="white" transform="translate(1 -17)"/>
</clipPath>
</defs>
</svg>
