<svg width="375" height="812" viewBox="0 0 375 812" fill="none" xmlns="http://www.w3.org/2000/svg">
<g clip-path="url(#clip0_1255_43364)">
<rect width="375" height="812" fill="#FAF9F6"/>
<mask id="mask0_1255_43364" style="mask-type:alpha" maskUnits="userSpaceOnUse" x="0" y="-1" width="375" height="196">
<path d="M0 -1H375V179C375 187.837 367.837 195 359 195H16C7.16345 195 0 187.837 0 179V-1Z" fill="#432D69"/>
</mask>
<g mask="url(#mask0_1255_43364)">
<path d="M0 -1H375V179C375 187.837 367.837 195 359 195H16C7.16345 195 0 187.837 0 179V-1Z" fill="#432D69"/>
<circle opacity="0.6" cx="7" cy="-69" r="388" fill="url(#paint0_radial_1255_43364)"/>
</g>
<path d="M36 194.5H339C347.56 194.5 354.5 201.44 354.5 210V493C354.5 509.292 341.292 522.5 325 522.5H50C33.7076 522.5 20.5 509.292 20.5 493V210C20.5 201.44 27.4396 194.5 36 194.5Z" fill="#9978FF" fill-opacity="0.05" stroke="#815DEF"/>
<path d="M21.8 577V562.4H25.68L29.34 571.12H29.7L33.34 562.4H37.28V577H34.46V564.54L34.82 564.58L30.88 574.02H27.98L24.02 564.58L24.4 564.54V577H21.8ZM40.342 581.28V578.9H42.382C42.7687 578.9 43.0887 578.847 43.342 578.74C43.6087 578.647 43.8287 578.487 44.002 578.26C44.1754 578.047 44.3087 577.747 44.402 577.36L47.322 566.14H49.982L46.762 577.96C46.5487 578.773 46.2487 579.42 45.862 579.9C45.4754 580.393 44.9754 580.747 44.362 580.96C43.762 581.173 43.0154 581.28 42.122 581.28H40.342ZM43.722 576.76V574.56H46.042V576.76H43.722ZM42.782 576.76L39.262 566.14H42.062L45.402 576.76H42.782ZM56.4289 577V562.3H59.2689V577H56.4289ZM65.3489 577L60.8689 570.64H64.0489L68.6689 577H65.3489ZM58.4289 572.12V569.82H62.1489C62.6689 569.82 63.1156 569.713 63.4889 569.5C63.8756 569.287 64.1756 568.987 64.3889 568.6C64.6022 568.213 64.7089 567.773 64.7089 567.28C64.7089 566.773 64.6022 566.327 64.3889 565.94C64.1756 565.553 63.8756 565.253 63.4889 565.04C63.1156 564.827 62.6689 564.72 62.1489 564.72H58.4289V562.3H61.8489C63.0222 562.3 64.0356 562.473 64.8889 562.82C65.7556 563.167 66.4222 563.693 66.8889 564.4C67.3556 565.107 67.5889 565.993 67.5889 567.06V567.38C67.5889 568.46 67.3489 569.347 66.8689 570.04C66.4022 570.733 65.7422 571.253 64.8889 571.6C64.0356 571.947 63.0222 572.12 61.8489 572.12H58.4289ZM75.2681 577.38C74.3348 577.38 73.5148 577.22 72.8081 576.9C72.1148 576.58 71.5348 576.153 71.0681 575.62C70.6148 575.073 70.2681 574.467 70.0281 573.8C69.8015 573.133 69.6881 572.453 69.6881 571.76V571.38C69.6881 570.66 69.8015 569.967 70.0281 569.3C70.2681 568.62 70.6148 568.02 71.0681 567.5C71.5348 566.967 72.1081 566.547 72.7881 566.24C73.4681 565.92 74.2548 565.76 75.1481 565.76C76.3215 565.76 77.3015 566.02 78.0881 566.54C78.8881 567.047 79.4881 567.72 79.8881 568.56C80.2881 569.387 80.4881 570.28 80.4881 571.24V572.24H70.8681V570.54H78.7481L77.8881 571.38C77.8881 570.687 77.7881 570.093 77.5881 569.6C77.3881 569.107 77.0815 568.727 76.6681 568.46C76.2681 568.193 75.7615 568.06 75.1481 568.06C74.5348 568.06 74.0148 568.2 73.5881 568.48C73.1615 568.76 72.8348 569.167 72.6081 569.7C72.3948 570.22 72.2881 570.847 72.2881 571.58C72.2881 572.26 72.3948 572.867 72.6081 573.4C72.8215 573.92 73.1481 574.333 73.5881 574.64C74.0281 574.933 74.5881 575.08 75.2681 575.08C75.9481 575.08 76.5015 574.947 76.9281 574.68C77.3548 574.4 77.6281 574.06 77.7481 573.66H80.3081C80.1481 574.407 79.8415 575.06 79.3881 575.62C78.9348 576.18 78.3548 576.613 77.6481 576.92C76.9548 577.227 76.1615 577.38 75.2681 577.38ZM89.3905 577V573.78H88.9305V570.2C88.9305 569.573 88.7771 569.107 88.4705 568.8C88.1638 568.493 87.6905 568.34 87.0505 568.34C86.7171 568.34 86.3171 568.347 85.8505 568.36C85.3838 568.373 84.9105 568.393 84.4305 568.42C83.9638 568.433 83.5438 568.453 83.1705 568.48V566.12C83.4771 566.093 83.8238 566.067 84.2105 566.04C84.5971 566.013 84.9905 566 85.3905 566C85.8038 565.987 86.1905 565.98 86.5505 565.98C87.6705 565.98 88.5971 566.127 89.3305 566.42C90.0771 566.713 90.6371 567.173 91.0105 567.8C91.3971 568.427 91.5905 569.247 91.5905 570.26V577H89.3905ZM85.8905 577.28C85.1038 577.28 84.4105 577.14 83.8105 576.86C83.2238 576.58 82.7638 576.18 82.4305 575.66C82.1105 575.14 81.9505 574.513 81.9505 573.78C81.9505 572.98 82.1438 572.327 82.5305 571.82C82.9305 571.313 83.4838 570.933 84.1905 570.68C84.9105 570.427 85.7505 570.3 86.7105 570.3H89.2305V571.96H86.6705C86.0305 571.96 85.5371 572.12 85.1905 572.44C84.8571 572.747 84.6905 573.147 84.6905 573.64C84.6905 574.133 84.8571 574.533 85.1905 574.84C85.5371 575.147 86.0305 575.3 86.6705 575.3C87.0571 575.3 87.4105 575.233 87.7305 575.1C88.0638 574.953 88.3371 574.713 88.5505 574.38C88.7771 574.033 88.9038 573.567 88.9305 572.98L89.6105 573.76C89.5438 574.52 89.3571 575.16 89.0505 575.68C88.7571 576.2 88.3438 576.6 87.8105 576.88C87.2905 577.147 86.6505 577.28 85.8905 577.28ZM99.0683 577.36C98.3083 577.36 97.6083 577.22 96.9683 576.94C96.3283 576.66 95.7749 576.267 95.3083 575.76C94.8416 575.253 94.4816 574.667 94.2283 574C93.9749 573.32 93.8483 572.587 93.8483 571.8V571.38C93.8483 570.607 93.9683 569.88 94.2083 569.2C94.4616 568.52 94.8083 567.927 95.2483 567.42C95.7016 566.913 96.2416 566.52 96.8683 566.24C97.5083 565.947 98.2149 565.8 98.9883 565.8C99.8416 565.8 100.588 565.987 101.228 566.36C101.882 566.72 102.402 567.267 102.788 568C103.175 568.733 103.388 569.653 103.428 570.76L102.608 569.8V562.4H105.388V577H103.188V572.38H103.668C103.628 573.487 103.402 574.413 102.988 575.16C102.575 575.893 102.028 576.447 101.348 576.82C100.682 577.18 99.9216 577.36 99.0683 577.36ZM99.6883 575.02C100.235 575.02 100.735 574.9 101.188 574.66C101.642 574.407 102.002 574.047 102.268 573.58C102.548 573.1 102.688 572.54 102.688 571.9V571.1C102.688 570.46 102.548 569.927 102.268 569.5C101.988 569.06 101.622 568.727 101.168 568.5C100.715 568.26 100.222 568.14 99.6883 568.14C99.0883 568.14 98.5549 568.287 98.0883 568.58C97.6349 568.86 97.2749 569.26 97.0083 569.78C96.7549 570.3 96.6283 570.907 96.6283 571.6C96.6283 572.293 96.7616 572.9 97.0283 573.42C97.2949 573.927 97.6549 574.32 98.1083 574.6C98.5749 574.88 99.1016 575.02 99.6883 575.02ZM109.073 577V566.14H111.853V577H109.073ZM107.553 568.22V566.14H111.853V568.22H107.553ZM110.093 564.84C109.546 564.84 109.139 564.7 108.873 564.42C108.619 564.127 108.493 563.767 108.493 563.34C108.493 562.887 108.619 562.52 108.873 562.24C109.139 561.96 109.546 561.82 110.093 561.82C110.639 561.82 111.039 561.96 111.293 562.24C111.546 562.52 111.673 562.887 111.673 563.34C111.673 563.767 111.546 564.127 111.293 564.42C111.039 564.7 110.639 564.84 110.093 564.84ZM115.057 577V566.14H117.257V570.8H117.057C117.057 569.693 117.203 568.773 117.497 568.04C117.79 567.293 118.223 566.733 118.797 566.36C119.383 565.987 120.11 565.8 120.977 565.8H121.097C122.39 565.8 123.37 566.22 124.037 567.06C124.703 567.887 125.037 569.127 125.037 570.78V577H122.257V570.54C122.257 569.873 122.063 569.333 121.677 568.92C121.303 568.507 120.783 568.3 120.117 568.3C119.437 568.3 118.883 568.513 118.457 568.94C118.043 569.353 117.837 569.913 117.837 570.62V577H115.057ZM132.265 581.28C131.745 581.28 131.212 581.26 130.665 581.22C130.132 581.18 129.632 581.127 129.165 581.06V578.74C129.645 578.793 130.159 578.84 130.705 578.88C131.252 578.933 131.765 578.96 132.245 578.96C133.139 578.96 133.859 578.853 134.405 578.64C134.965 578.427 135.372 578.087 135.625 577.62C135.892 577.167 136.025 576.587 136.025 575.88V573.74L136.625 572.38C136.585 573.38 136.379 574.233 136.005 574.94C135.632 575.633 135.125 576.167 134.485 576.54C133.845 576.9 133.105 577.08 132.265 577.08C131.519 577.08 130.839 576.94 130.225 576.66C129.625 576.38 129.105 575.993 128.665 575.5C128.239 575.007 127.905 574.427 127.665 573.76C127.425 573.093 127.305 572.38 127.305 571.62V571.2C127.305 570.44 127.425 569.733 127.665 569.08C127.919 568.413 128.272 567.833 128.725 567.34C129.179 566.847 129.719 566.467 130.345 566.2C130.972 565.933 131.665 565.8 132.425 565.8C133.319 565.8 134.092 565.993 134.745 566.38C135.412 566.767 135.932 567.327 136.305 568.06C136.679 568.793 136.885 569.693 136.925 570.76L136.445 570.84V566.14H138.645V575.72C138.645 577.04 138.419 578.107 137.965 578.92C137.512 579.733 136.812 580.327 135.865 580.7C134.932 581.087 133.732 581.28 132.265 581.28ZM133.065 574.7C133.599 574.7 134.085 574.58 134.525 574.34C134.965 574.1 135.319 573.753 135.585 573.3C135.852 572.847 135.985 572.3 135.985 571.66V570.96C135.985 570.347 135.845 569.827 135.565 569.4C135.299 568.973 134.945 568.653 134.505 568.44C134.065 568.213 133.585 568.1 133.065 568.1C132.479 568.1 131.959 568.24 131.505 568.52C131.065 568.787 130.719 569.167 130.465 569.66C130.212 570.153 130.085 570.74 130.085 571.42C130.085 572.087 130.212 572.667 130.465 573.16C130.719 573.653 131.065 574.033 131.505 574.3C131.959 574.567 132.479 574.7 133.065 574.7ZM145.618 577.34C144.124 577.34 142.951 577.027 142.098 576.4C141.258 575.76 140.818 574.88 140.778 573.76H143.278C143.318 574.133 143.524 574.473 143.898 574.78C144.271 575.087 144.858 575.24 145.658 575.24C146.324 575.24 146.851 575.12 147.238 574.88C147.638 574.64 147.838 574.313 147.838 573.9C147.838 573.54 147.684 573.253 147.378 573.04C147.084 572.827 146.578 572.687 145.858 572.62L144.898 572.52C143.684 572.387 142.751 572.04 142.098 571.48C141.444 570.92 141.118 570.173 141.118 569.24C141.118 568.493 141.304 567.867 141.678 567.36C142.051 566.853 142.564 566.473 143.218 566.22C143.884 565.953 144.644 565.82 145.498 565.82C146.831 565.82 147.911 566.113 148.738 566.7C149.564 567.287 149.998 568.147 150.038 569.28H147.538C147.511 568.907 147.324 568.587 146.978 568.32C146.631 568.053 146.131 567.92 145.478 567.92C144.891 567.92 144.438 568.033 144.118 568.26C143.798 568.487 143.638 568.78 143.638 569.14C143.638 569.487 143.764 569.753 144.018 569.94C144.284 570.127 144.711 570.253 145.298 570.32L146.258 570.42C147.538 570.553 148.538 570.907 149.258 571.48C149.991 572.053 150.358 572.827 150.358 573.8C150.358 574.52 150.158 575.147 149.758 575.68C149.371 576.2 148.824 576.607 148.118 576.9C147.411 577.193 146.578 577.34 145.618 577.34Z" fill="#432D69"/>
<path opacity="0.7" d="M313.738 574.724C312.758 574.724 311.997 574.514 311.456 574.094C310.924 573.674 310.649 573.1 310.63 572.372H311.89C311.909 572.661 312.053 572.937 312.324 573.198C312.604 573.45 313.075 573.576 313.738 573.576C314.335 573.576 314.793 573.459 315.11 573.226C315.427 572.983 315.586 572.689 315.586 572.344C315.586 572.036 315.469 571.798 315.236 571.63C315.003 571.453 314.625 571.336 314.102 571.28L313.29 571.196C312.581 571.121 312.002 570.911 311.554 570.566C311.106 570.211 310.882 569.717 310.882 569.082C310.882 568.606 311.003 568.2 311.246 567.864C311.489 567.519 311.825 567.257 312.254 567.08C312.683 566.893 313.178 566.8 313.738 566.8C314.578 566.8 315.259 566.987 315.782 567.36C316.305 567.733 316.575 568.289 316.594 569.026H315.334C315.325 568.727 315.185 568.475 314.914 568.27C314.653 568.055 314.261 567.948 313.738 567.948C313.215 567.948 312.819 568.055 312.548 568.27C312.277 568.485 312.142 568.755 312.142 569.082C312.142 569.362 312.235 569.586 312.422 569.754C312.618 569.922 312.935 570.029 313.374 570.076L314.186 570.16C314.989 570.244 315.633 570.468 316.118 570.832C316.603 571.187 316.846 571.691 316.846 572.344C316.846 572.811 316.711 573.226 316.44 573.59C316.179 573.945 315.815 574.225 315.348 574.43C314.881 574.626 314.345 574.724 313.738 574.724ZM322.112 574.752C321.459 574.752 320.894 574.64 320.418 574.416C319.942 574.192 319.555 573.898 319.256 573.534C318.957 573.161 318.733 572.745 318.584 572.288C318.444 571.831 318.374 571.364 318.374 570.888V570.636C318.374 570.151 318.444 569.679 318.584 569.222C318.733 568.765 318.957 568.354 319.256 567.99C319.555 567.617 319.933 567.323 320.39 567.108C320.857 566.884 321.403 566.772 322.028 566.772C322.84 566.772 323.507 566.949 324.03 567.304C324.562 567.649 324.954 568.097 325.206 568.648C325.467 569.199 325.598 569.787 325.598 570.412V571.014H318.962V570.006H324.618L324.31 570.552C324.31 570.02 324.226 569.563 324.058 569.18C323.89 568.788 323.638 568.485 323.302 568.27C322.966 568.055 322.541 567.948 322.028 567.948C321.496 567.948 321.053 568.069 320.698 568.312C320.353 568.555 320.091 568.886 319.914 569.306C319.746 569.726 319.662 570.211 319.662 570.762C319.662 571.294 319.746 571.775 319.914 572.204C320.091 572.624 320.362 572.96 320.726 573.212C321.09 573.455 321.552 573.576 322.112 573.576C322.7 573.576 323.176 573.445 323.54 573.184C323.913 572.923 324.137 572.619 324.212 572.274H325.472C325.369 572.787 325.164 573.231 324.856 573.604C324.548 573.977 324.161 574.262 323.694 574.458C323.227 574.654 322.7 574.752 322.112 574.752ZM330.824 574.752C330.171 574.752 329.606 574.64 329.13 574.416C328.654 574.192 328.267 573.898 327.968 573.534C327.669 573.161 327.445 572.745 327.296 572.288C327.156 571.831 327.086 571.364 327.086 570.888V570.636C327.086 570.151 327.156 569.679 327.296 569.222C327.445 568.765 327.669 568.354 327.968 567.99C328.267 567.617 328.645 567.323 329.102 567.108C329.569 566.884 330.115 566.772 330.74 566.772C331.552 566.772 332.219 566.949 332.742 567.304C333.274 567.649 333.666 568.097 333.918 568.648C334.179 569.199 334.31 569.787 334.31 570.412V571.014H327.674V570.006H333.33L333.022 570.552C333.022 570.02 332.938 569.563 332.77 569.18C332.602 568.788 332.35 568.485 332.014 568.27C331.678 568.055 331.253 567.948 330.74 567.948C330.208 567.948 329.765 568.069 329.41 568.312C329.065 568.555 328.803 568.886 328.626 569.306C328.458 569.726 328.374 570.211 328.374 570.762C328.374 571.294 328.458 571.775 328.626 572.204C328.803 572.624 329.074 572.96 329.438 573.212C329.802 573.455 330.264 573.576 330.824 573.576C331.412 573.576 331.888 573.445 332.252 573.184C332.625 572.923 332.849 572.619 332.924 572.274H334.184C334.081 572.787 333.876 573.231 333.568 573.604C333.26 573.977 332.873 574.262 332.406 574.458C331.939 574.654 331.412 574.752 330.824 574.752ZM344.206 574.5V572.26H343.982V569.67C343.982 569.157 343.847 568.769 343.576 568.508C343.315 568.247 342.927 568.116 342.414 568.116C342.125 568.116 341.826 568.121 341.518 568.13C341.21 568.139 340.916 568.149 340.636 568.158C340.356 568.167 340.113 568.181 339.908 568.2V567.024C340.113 567.005 340.328 566.991 340.552 566.982C340.785 566.963 341.023 566.954 341.266 566.954C341.509 566.945 341.742 566.94 341.966 566.94C342.731 566.94 343.357 567.033 343.842 567.22C344.327 567.397 344.687 567.691 344.92 568.102C345.153 568.513 345.27 569.068 345.27 569.768V574.5H344.206ZM341.756 574.696C341.196 574.696 340.711 574.603 340.3 574.416C339.899 574.22 339.586 573.94 339.362 573.576C339.147 573.212 339.04 572.773 339.04 572.26C339.04 571.728 339.157 571.285 339.39 570.93C339.633 570.575 339.983 570.309 340.44 570.132C340.897 569.945 341.448 569.852 342.092 569.852H344.122V570.86H342.036C341.495 570.86 341.079 570.991 340.79 571.252C340.501 571.513 340.356 571.849 340.356 572.26C340.356 572.671 340.501 573.002 340.79 573.254C341.079 573.506 341.495 573.632 342.036 573.632C342.353 573.632 342.657 573.576 342.946 573.464C343.235 573.343 343.473 573.147 343.66 572.876C343.856 572.596 343.963 572.213 343.982 571.728L344.346 572.26C344.299 572.792 344.169 573.24 343.954 573.604C343.749 573.959 343.459 574.229 343.086 574.416C342.722 574.603 342.279 574.696 341.756 574.696ZM347.961 574.5V564.28H349.305V574.5H347.961ZM346.925 565.344V564.28H349.305V565.344H346.925ZM352.107 574.5V564.28H353.451V574.5H352.107ZM351.071 565.344V564.28H353.451V565.344H351.071Z" fill="#432D69"/>
<rect x="20.5" y="608.5" width="334" height="51" rx="25.5" stroke="#432D69" stroke-opacity="0.1"/>
<rect x="20" y="608" width="52" height="52" rx="26" fill="#432D69"/>
<path d="M51 624.667C52.1046 624.667 53 625.562 53 626.667V641.333C52.9998 642.438 52.1044 643.333 51 643.333H41C39.8956 643.333 39.0002 642.438 39 641.333V626.667C39 625.562 39.8955 624.667 41 624.667H51ZM46.0068 630.327C46.0399 632.427 44.5527 633.962 42.4521 633.996C44.5524 633.962 46.0879 635.45 46.1211 637.55C46.0879 635.45 47.5753 633.915 49.6758 633.881C47.5757 633.914 46.0401 632.427 46.0068 630.327Z" fill="#FAF9F6"/>
<path d="M84.312 639H82.926L80.308 629.256H81.68C82.436 632.448 83.486 636.48 83.668 637.586H83.682C83.934 636.34 85.278 631.748 85.908 629.256H87.168C87.756 631.44 89.086 636.382 89.296 637.544H89.31C89.632 635.864 90.99 631.258 91.522 629.256H92.796L89.954 639H88.568C87.98 636.76 86.734 632.112 86.496 630.95H86.482C86.188 632.406 84.928 636.76 84.312 639ZM93.9836 628.724H95.2156V632.952C95.5656 632.322 96.2236 631.734 97.4276 631.734C98.5616 631.734 99.8216 632.35 99.8216 634.464V639H98.5896V634.674C98.5896 633.47 98.0856 632.798 97.0496 632.798C95.7756 632.798 95.2156 633.638 95.2156 635.122V639H93.9836V628.724ZM107.123 634.058V637.446C107.123 638.104 107.179 638.79 107.221 639H106.045C105.989 638.846 105.947 638.51 105.933 638.076C105.681 638.538 105.107 639.168 103.735 639.168C102.055 639.168 101.341 638.076 101.341 636.998C101.341 635.416 102.587 634.688 104.701 634.688H105.905V634.086C105.905 633.456 105.709 632.7 104.379 632.7C103.203 632.7 102.993 633.288 102.867 633.834H101.677C101.775 632.854 102.377 631.734 104.421 631.734C106.157 631.734 107.123 632.448 107.123 634.058ZM105.919 635.766V635.542H104.771C103.357 635.542 102.601 635.934 102.601 636.928C102.601 637.67 103.105 638.202 103.987 638.202C105.695 638.202 105.919 637.054 105.919 635.766ZM108.236 632.896V631.902H109.468V629.802H110.686V631.902H112.254V632.896H110.686V637.054C110.686 637.754 110.854 638.104 111.498 638.104C111.666 638.104 111.918 638.09 112.114 638.048V638.972C111.82 639.084 111.4 639.098 111.05 639.098C109.944 639.098 109.468 638.524 109.468 637.348V632.896H108.236ZM116.527 636.97H117.759C117.955 637.74 118.529 638.202 119.495 638.202C120.531 638.202 120.937 637.754 120.937 637.11C120.937 636.438 120.615 636.13 119.257 635.808C117.227 635.318 116.807 634.688 116.807 633.722C116.807 632.728 117.549 631.734 119.369 631.734C121.203 631.734 121.959 632.798 122.043 633.778H120.867C120.755 633.33 120.405 632.686 119.327 632.686C118.333 632.686 118.025 633.162 118.025 633.624C118.025 634.156 118.319 634.422 119.621 634.73C121.777 635.248 122.211 635.962 122.211 637.012C122.211 638.258 121.217 639.168 119.453 639.168C117.619 639.168 116.709 638.244 116.527 636.97ZM123.679 628.724H124.911V632.952C125.261 632.322 125.919 631.734 127.123 631.734C128.257 631.734 129.517 632.35 129.517 634.464V639H128.285V634.674C128.285 633.47 127.781 632.798 126.745 632.798C125.471 632.798 124.911 633.638 124.911 635.122V639H123.679V628.724ZM134.451 631.734C136.425 631.734 137.713 633.204 137.713 635.43C137.713 637.488 136.537 639.168 134.367 639.168C132.337 639.168 131.105 637.6 131.105 635.458C131.105 633.358 132.309 631.734 134.451 631.734ZM134.395 632.756C133.065 632.756 132.365 633.834 132.365 635.444C132.365 637.012 133.149 638.146 134.423 638.146C135.711 638.146 136.453 637.068 136.453 635.458C136.453 633.862 135.725 632.756 134.395 632.756ZM145.004 631.902V636.928C145.004 637.628 145.018 638.58 145.018 639H143.828C143.8 638.818 143.786 638.384 143.772 637.936C143.422 638.72 142.75 639.168 141.63 639.168C140.426 639.168 139.278 638.566 139.278 636.564V631.902H140.496V636.312C140.496 637.236 140.79 638.104 141.966 638.104C143.268 638.104 143.772 637.376 143.772 635.598V631.902H145.004ZM148.331 639H147.099V628.724H148.331V639ZM155.097 628.724H156.329V636.998C156.329 637.656 156.329 638.314 156.343 639H155.167C155.125 638.818 155.097 638.272 155.097 637.992C154.747 638.734 154.033 639.168 152.871 639.168C151.037 639.168 149.917 637.684 149.917 635.528C149.917 633.344 151.135 631.734 153.095 631.734C154.355 631.734 154.915 632.238 155.097 632.644V628.724ZM151.191 635.486C151.191 637.194 152.003 638.132 153.123 638.132C154.775 638.132 155.153 636.9 155.153 635.346C155.153 633.764 154.817 632.77 153.221 632.77C151.961 632.77 151.191 633.764 151.191 635.486ZM162.198 629.256H163.486V639H162.198V629.256ZM170.812 639H169.58V632.896H168.446V631.902H169.58V631.048C169.58 629.746 170.084 628.584 171.652 628.584C171.918 628.584 172.268 628.612 172.436 628.668V629.718C172.268 629.676 172.002 629.648 171.82 629.648C171.092 629.648 170.812 630.096 170.812 631.132V631.902H172.24V632.896H170.812V639ZM176.136 631.734C178.11 631.734 179.398 633.204 179.398 635.43C179.398 637.488 178.222 639.168 176.052 639.168C174.022 639.168 172.79 637.6 172.79 635.458C172.79 633.358 173.994 631.734 176.136 631.734ZM176.08 632.756C174.75 632.756 174.05 633.834 174.05 635.444C174.05 637.012 174.834 638.146 176.108 638.146C177.396 638.146 178.138 637.068 178.138 635.458C178.138 633.862 177.41 632.756 176.08 632.756ZM185.455 636.83H186.673C186.379 638.048 185.553 639.168 183.747 639.168C181.787 639.168 180.583 637.768 180.583 635.486C180.583 633.484 181.717 631.734 183.831 631.734C185.875 631.734 186.589 633.19 186.673 634.1H185.455C185.287 633.386 184.839 632.756 183.803 632.756C182.557 632.756 181.843 633.834 181.843 635.444C181.843 637.068 182.529 638.146 183.761 638.146C184.643 638.146 185.161 637.67 185.455 636.83ZM193.785 631.902V636.928C193.785 637.628 193.799 638.58 193.799 639H192.609C192.581 638.818 192.567 638.384 192.553 637.936C192.203 638.72 191.531 639.168 190.411 639.168C189.207 639.168 188.059 638.566 188.059 636.564V631.902H189.277V636.312C189.277 637.236 189.571 638.104 190.747 638.104C192.049 638.104 192.553 637.376 192.553 635.598V631.902H193.785ZM195.154 636.97H196.386C196.582 637.74 197.156 638.202 198.122 638.202C199.158 638.202 199.564 637.754 199.564 637.11C199.564 636.438 199.242 636.13 197.884 635.808C195.854 635.318 195.434 634.688 195.434 633.722C195.434 632.728 196.176 631.734 197.996 631.734C199.83 631.734 200.586 632.798 200.67 633.778H199.494C199.382 633.33 199.032 632.686 197.954 632.686C196.96 632.686 196.652 633.162 196.652 633.624C196.652 634.156 196.946 634.422 198.248 634.73C200.404 635.248 200.838 635.962 200.838 637.012C200.838 638.258 199.844 639.168 198.08 639.168C196.246 639.168 195.336 638.244 195.154 636.97ZM208.785 631.734C210.759 631.734 212.047 633.204 212.047 635.43C212.047 637.488 210.871 639.168 208.701 639.168C206.671 639.168 205.439 637.6 205.439 635.458C205.439 633.358 206.643 631.734 208.785 631.734ZM208.729 632.756C207.399 632.756 206.699 633.834 206.699 635.444C206.699 637.012 207.483 638.146 208.757 638.146C210.045 638.146 210.787 637.068 210.787 635.458C210.787 633.862 210.059 632.756 208.729 632.756ZM213.64 639V633.694C213.64 633.078 213.64 632.448 213.626 631.902H214.816C214.858 632.112 214.872 632.854 214.872 633.064C215.152 632.462 215.726 631.734 217.098 631.734C218.442 631.734 219.478 632.546 219.478 634.436V639H218.246V634.59C218.246 633.512 217.826 632.798 216.748 632.798C215.404 632.798 214.872 633.82 214.872 635.248V639H213.64ZM224.201 632.896V631.902H225.433V629.802H226.651V631.902H228.219V632.896H226.651V637.054C226.651 637.754 226.819 638.104 227.463 638.104C227.631 638.104 227.883 638.09 228.079 638.048V638.972C227.785 639.084 227.365 639.098 227.015 639.098C225.909 639.098 225.433 638.524 225.433 637.348V632.896H224.201ZM229.527 628.724H230.759V632.952C231.109 632.322 231.767 631.734 232.971 631.734C234.105 631.734 235.365 632.35 235.365 634.464V639H234.133V634.674C234.133 633.47 233.629 632.798 232.593 632.798C231.319 632.798 230.759 633.638 230.759 635.122V639H229.527V628.724ZM237.456 639V631.902H238.688V639H237.456ZM238.688 630.25H237.456V628.724H238.688V630.25ZM240.08 636.97H241.312C241.508 637.74 242.082 638.202 243.048 638.202C244.084 638.202 244.49 637.754 244.49 637.11C244.49 636.438 244.168 636.13 242.81 635.808C240.78 635.318 240.36 634.688 240.36 633.722C240.36 632.728 241.102 631.734 242.922 631.734C244.756 631.734 245.512 632.798 245.596 633.778H244.42C244.308 633.33 243.958 632.686 242.88 632.686C241.886 632.686 241.578 633.162 241.578 633.624C241.578 634.156 241.872 634.422 243.174 634.73C245.33 635.248 245.764 635.962 245.764 637.012C245.764 638.258 244.77 639.168 243.006 639.168C241.172 639.168 240.262 638.244 240.08 636.97ZM250.868 639V633.736C250.868 633.12 250.868 632.476 250.854 631.902H252.03C252.058 632.112 252.086 632.63 252.086 632.994C252.408 632.364 253.024 631.734 254.144 631.734C255.152 631.734 255.838 632.238 256.118 633.008C256.496 632.336 257.168 631.734 258.372 631.734C259.534 631.734 260.612 632.42 260.612 634.338V639H259.408V634.478C259.408 633.666 259.114 632.798 258.008 632.798C256.846 632.798 256.342 633.666 256.342 634.926V639H255.138V634.52C255.138 633.61 254.886 632.798 253.766 632.798C252.632 632.798 252.086 633.722 252.086 635.066V639H250.868ZM265.55 631.734C267.524 631.734 268.812 633.204 268.812 635.43C268.812 637.488 267.636 639.168 265.466 639.168C263.436 639.168 262.204 637.6 262.204 635.458C262.204 633.358 263.408 631.734 265.55 631.734ZM265.494 632.756C264.164 632.756 263.464 633.834 263.464 635.444C263.464 637.012 264.248 638.146 265.522 638.146C266.81 638.146 267.552 637.068 267.552 635.458C267.552 633.862 266.824 632.756 265.494 632.756ZM270.405 639V633.694C270.405 633.078 270.405 632.448 270.391 631.902H271.581C271.623 632.112 271.637 632.854 271.637 633.064C271.917 632.462 272.491 631.734 273.863 631.734C275.207 631.734 276.243 632.546 276.243 634.436V639H275.011V634.59C275.011 633.512 274.591 632.798 273.513 632.798C272.169 632.798 271.637 633.82 271.637 635.248V639H270.405ZM277.343 632.896V631.902H278.575V629.802H279.793V631.902H281.361V632.896H279.793V637.054C279.793 637.754 279.961 638.104 280.605 638.104C280.773 638.104 281.025 638.09 281.221 638.048V638.972C280.927 639.084 280.507 639.098 280.157 639.098C279.051 639.098 278.575 638.524 278.575 637.348V632.896H277.343ZM282.669 628.724H283.901V632.952C284.251 632.322 284.909 631.734 286.113 631.734C287.247 631.734 288.507 632.35 288.507 634.464V639H287.275V634.674C287.275 633.47 286.771 632.798 285.735 632.798C284.461 632.798 283.901 633.638 283.901 635.122V639H282.669V628.724ZM293.528 636.06H292.268V635.85C292.268 635.108 292.492 634.408 293.598 633.428C294.396 632.7 294.536 632.154 294.536 631.58C294.536 630.908 294.102 630.138 293.038 630.138C292.002 630.138 291.526 630.782 291.372 631.734H290.168C290.21 630.88 290.798 629.116 293.066 629.116C295.11 629.13 295.796 630.544 295.796 631.608C295.796 632.588 295.474 633.218 294.452 634.156C293.752 634.786 293.528 635.276 293.528 635.948V636.06ZM293.528 639H292.268V637.068H293.528V639Z" fill="#1E1E1E"/>
<g opacity="0.8">
<path d="M318 632C319.105 632 320 632.895 320 634C320 635.105 319.105 636 318 636C316.895 636 316 635.105 316 634C316 632.895 316.895 632 318 632ZM325 632C326.105 632 327 632.895 327 634C327 635.105 326.105 636 325 636C323.895 636 323 635.105 323 634C323 632.895 323.895 632 325 632ZM332 632C333.105 632 334 632.895 334 634C334 635.105 333.105 636 332 636C330.895 636 330 635.105 330 634C330 632.895 330.895 632 332 632Z" fill="#432D69"/>
</g>
<rect x="20.5" y="670.5" width="334" height="51" rx="25.5" stroke="#432D69" stroke-opacity="0.1"/>
<rect x="20" y="670" width="52" height="52" rx="26" fill="#815DEF"/>
<path d="M48.9971 689.872C50.1016 689.872 50.997 690.768 50.9971 691.872V701C50.997 702.105 50.1016 703 48.9971 703H43.1514C42.0468 703 41.1514 702.105 41.1514 701V691.872C41.1514 690.768 42.0469 689.872 43.1514 689.872H48.9971ZM46.0791 693.853C46.1024 695.33 45.0564 696.409 43.5791 696.433C45.0561 696.409 46.1358 697.455 46.1592 698.933C46.1359 697.456 47.1819 696.376 48.6592 696.353C47.1822 696.376 46.1024 695.33 46.0791 693.853Z" fill="#FAF9F6"/>
<rect x="35.5" y="689.5" width="7" height="12" rx="1.5" stroke="#FAF9F6"/>
<rect x="49.5" y="689.5" width="7" height="12" rx="1.5" stroke="#FAF9F6"/>
<path d="M81.288 682.756H82.576V692.5H81.288V682.756ZM84.1251 690.47H85.3571C85.5531 691.24 86.1271 691.702 87.0931 691.702C88.1291 691.702 88.5351 691.254 88.5351 690.61C88.5351 689.938 88.2131 689.63 86.8551 689.308C84.8251 688.818 84.4051 688.188 84.4051 687.222C84.4051 686.228 85.1471 685.234 86.9671 685.234C88.8011 685.234 89.5571 686.298 89.6411 687.278H88.4651C88.3531 686.83 88.0031 686.186 86.9251 686.186C85.9311 686.186 85.6231 686.662 85.6231 687.124C85.6231 687.656 85.9171 687.922 87.2191 688.23C89.3751 688.748 89.8091 689.462 89.8091 690.512C89.8091 691.758 88.8151 692.668 87.0511 692.668C85.2171 692.668 84.3071 691.744 84.1251 690.47ZM94.0033 686.396V685.402H95.2353V683.302H96.4533V685.402H98.0213V686.396H96.4533V690.554C96.4533 691.254 96.6213 691.604 97.2653 691.604C97.4333 691.604 97.6853 691.59 97.8813 691.548V692.472C97.5873 692.584 97.1673 692.598 96.8173 692.598C95.7113 692.598 95.2353 692.024 95.2353 690.848V686.396H94.0033ZM99.3293 682.224H100.561V686.452C100.911 685.822 101.569 685.234 102.773 685.234C103.907 685.234 105.167 685.85 105.167 687.964V692.5H103.935V688.174C103.935 686.97 103.431 686.298 102.395 686.298C101.121 686.298 100.561 687.138 100.561 688.622V692.5H99.3293V682.224ZM107.259 692.5V685.402H108.491V692.5H107.259ZM108.491 683.75H107.259V682.224H108.491V683.75ZM109.883 690.47H111.115C111.311 691.24 111.885 691.702 112.851 691.702C113.887 691.702 114.293 691.254 114.293 690.61C114.293 689.938 113.971 689.63 112.613 689.308C110.583 688.818 110.163 688.188 110.163 687.222C110.163 686.228 110.905 685.234 112.725 685.234C114.559 685.234 115.315 686.298 115.399 687.278H114.223C114.111 686.83 113.761 686.186 112.683 686.186C111.689 686.186 111.381 686.662 111.381 687.124C111.381 687.656 111.675 687.922 112.977 688.23C115.133 688.748 115.567 689.462 115.567 690.512C115.567 691.758 114.573 692.668 112.809 692.668C110.975 692.668 110.065 691.744 109.883 690.47ZM125.053 690.33H126.271C125.977 691.548 125.151 692.668 123.345 692.668C121.385 692.668 120.181 691.268 120.181 688.986C120.181 686.984 121.315 685.234 123.429 685.234C125.473 685.234 126.187 686.69 126.271 687.6H125.053C124.885 686.886 124.437 686.256 123.401 686.256C122.155 686.256 121.441 687.334 121.441 688.944C121.441 690.568 122.127 691.646 123.359 691.646C124.241 691.646 124.759 691.17 125.053 690.33ZM130.663 685.234C132.637 685.234 133.925 686.704 133.925 688.93C133.925 690.988 132.749 692.668 130.579 692.668C128.549 692.668 127.317 691.1 127.317 688.958C127.317 686.858 128.521 685.234 130.663 685.234ZM130.607 686.256C129.277 686.256 128.577 687.334 128.577 688.944C128.577 690.512 129.361 691.646 130.635 691.646C131.923 691.646 132.665 690.568 132.665 688.958C132.665 687.362 131.937 686.256 130.607 686.256ZM135.519 692.5V687.194C135.519 686.578 135.519 685.948 135.505 685.402H136.695C136.737 685.612 136.751 686.354 136.751 686.564C137.031 685.962 137.605 685.234 138.977 685.234C140.321 685.234 141.357 686.046 141.357 687.936V692.5H140.125V688.09C140.125 687.012 139.705 686.298 138.627 686.298C137.283 686.298 136.751 687.32 136.751 688.748V692.5H135.519ZM143.448 692.5V687.194C143.448 686.578 143.448 685.948 143.434 685.402H144.624C144.666 685.612 144.68 686.354 144.68 686.564C144.96 685.962 145.534 685.234 146.906 685.234C148.25 685.234 149.286 686.046 149.286 687.936V692.5H148.054V688.09C148.054 687.012 147.634 686.298 146.556 686.298C145.212 686.298 144.68 687.32 144.68 688.748V692.5H143.448ZM157.118 689.168H152.106C152.12 690.61 152.848 691.646 154.052 691.646C155.172 691.646 155.536 691.058 155.76 690.54H157.006C156.726 691.45 155.956 692.668 154.01 692.668C151.784 692.668 150.874 690.848 150.874 689.028C150.874 686.914 151.938 685.234 154.094 685.234C156.39 685.234 157.132 687.068 157.132 688.58C157.132 688.804 157.132 688.986 157.118 689.168ZM152.148 688.314H155.886C155.872 687.138 155.284 686.2 154.08 686.2C152.82 686.2 152.274 687.068 152.148 688.314ZM163.17 690.33H164.388C164.094 691.548 163.268 692.668 161.462 692.668C159.502 692.668 158.298 691.268 158.298 688.986C158.298 686.984 159.432 685.234 161.546 685.234C163.59 685.234 164.304 686.69 164.388 687.6H163.17C163.002 686.886 162.554 686.256 161.518 686.256C160.272 686.256 159.558 687.334 159.558 688.944C159.558 690.568 160.244 691.646 161.476 691.646C162.358 691.646 162.876 691.17 163.17 690.33ZM165.097 686.396V685.402H166.329V683.302H167.547V685.402H169.115V686.396H167.547V690.554C167.547 691.254 167.715 691.604 168.359 691.604C168.527 691.604 168.779 691.59 168.975 691.548V692.472C168.681 692.584 168.261 692.598 167.911 692.598C166.805 692.598 166.329 692.024 166.329 690.848V686.396H165.097ZM170.423 692.5V685.402H171.655V692.5H170.423ZM171.655 683.75H170.423V682.224H171.655V683.75ZM176.587 685.234C178.561 685.234 179.849 686.704 179.849 688.93C179.849 690.988 178.673 692.668 176.503 692.668C174.473 692.668 173.241 691.1 173.241 688.958C173.241 686.858 174.445 685.234 176.587 685.234ZM176.531 686.256C175.201 686.256 174.501 687.334 174.501 688.944C174.501 690.512 175.285 691.646 176.559 691.646C177.847 691.646 178.589 690.568 178.589 688.958C178.589 687.362 177.861 686.256 176.531 686.256ZM181.443 692.5V687.194C181.443 686.578 181.443 685.948 181.429 685.402H182.619C182.661 685.612 182.675 686.354 182.675 686.564C182.955 685.962 183.529 685.234 184.901 685.234C186.245 685.234 187.281 686.046 187.281 687.936V692.5H186.049V688.09C186.049 687.012 185.629 686.298 184.551 686.298C183.207 686.298 182.675 687.32 182.675 688.748V692.5H181.443ZM192.913 692.5V687.236C192.913 686.62 192.913 685.976 192.899 685.402H194.075C194.103 685.612 194.131 686.13 194.131 686.494C194.453 685.864 195.069 685.234 196.189 685.234C197.197 685.234 197.883 685.738 198.163 686.508C198.541 685.836 199.213 685.234 200.417 685.234C201.579 685.234 202.657 685.92 202.657 687.838V692.5H201.453V687.978C201.453 687.166 201.159 686.298 200.053 686.298C198.891 686.298 198.387 687.166 198.387 688.426V692.5H197.183V688.02C197.183 687.11 196.931 686.298 195.811 686.298C194.677 686.298 194.131 687.222 194.131 688.566V692.5H192.913ZM210.493 689.168H205.481C205.495 690.61 206.223 691.646 207.427 691.646C208.547 691.646 208.911 691.058 209.135 690.54H210.381C210.101 691.45 209.331 692.668 207.385 692.668C205.159 692.668 204.249 690.848 204.249 689.028C204.249 686.914 205.313 685.234 207.469 685.234C209.765 685.234 210.507 687.068 210.507 688.58C210.507 688.804 210.507 688.986 210.493 689.168ZM205.523 688.314H209.261C209.247 687.138 208.659 686.2 207.455 686.2C206.195 686.2 205.649 687.068 205.523 688.314ZM217.373 687.558V690.946C217.373 691.604 217.429 692.29 217.471 692.5H216.295C216.239 692.346 216.197 692.01 216.183 691.576C215.931 692.038 215.357 692.668 213.985 692.668C212.305 692.668 211.591 691.576 211.591 690.498C211.591 688.916 212.837 688.188 214.951 688.188H216.155V687.586C216.155 686.956 215.959 686.2 214.629 686.2C213.453 686.2 213.243 686.788 213.117 687.334H211.927C212.025 686.354 212.627 685.234 214.671 685.234C216.407 685.234 217.373 685.948 217.373 687.558ZM216.169 689.266V689.042H215.021C213.607 689.042 212.851 689.434 212.851 690.428C212.851 691.17 213.355 691.702 214.237 691.702C215.945 691.702 216.169 690.554 216.169 689.266ZM219.491 692.5V687.194C219.491 686.578 219.491 685.948 219.477 685.402H220.667C220.709 685.612 220.723 686.354 220.723 686.564C221.003 685.962 221.577 685.234 222.949 685.234C224.293 685.234 225.329 686.046 225.329 687.936V692.5H224.097V688.09C224.097 687.012 223.677 686.298 222.599 686.298C221.255 686.298 220.723 687.32 220.723 688.748V692.5H219.491ZM226.429 686.396V685.402H227.661V683.302H228.879V685.402H230.447V686.396H228.879V690.554C228.879 691.254 229.047 691.604 229.691 691.604C229.859 691.604 230.111 691.59 230.307 691.548V692.472C230.013 692.584 229.593 692.598 229.243 692.598C228.137 692.598 227.661 692.024 227.661 690.848V686.396H226.429ZM234.441 686.396V685.402H235.673V683.302H236.891V685.402H238.459V686.396H236.891V690.554C236.891 691.254 237.059 691.604 237.703 691.604C237.871 691.604 238.123 691.59 238.319 691.548V692.472C238.025 692.584 237.605 692.598 237.255 692.598C236.149 692.598 235.673 692.024 235.673 690.848V686.396H234.441ZM242.568 685.234C244.542 685.234 245.83 686.704 245.83 688.93C245.83 690.988 244.654 692.668 242.484 692.668C240.454 692.668 239.222 691.1 239.222 688.958C239.222 686.858 240.426 685.234 242.568 685.234ZM242.512 686.256C241.182 686.256 240.482 687.334 240.482 688.944C240.482 690.512 241.266 691.646 242.54 691.646C243.828 691.646 244.57 690.568 244.57 688.958C244.57 687.362 243.842 686.256 242.512 686.256ZM256.816 687.446V691.856C256.816 694.138 255.878 695.426 253.554 695.426C251.398 695.426 250.74 694.222 250.614 693.256H251.86C252.07 694.04 252.7 694.446 253.61 694.446C255.22 694.446 255.612 693.424 255.612 691.8V691.226C255.234 692.01 254.59 692.472 253.4 692.472C251.65 692.472 250.46 691.044 250.46 688.958C250.46 686.648 251.818 685.234 253.526 685.234C254.884 685.234 255.458 685.864 255.612 686.34C255.626 686.018 255.668 685.542 255.682 685.402H256.83C256.83 685.808 256.816 686.774 256.816 687.446ZM251.734 688.902C251.734 690.4 252.518 691.422 253.68 691.422C255.206 691.422 255.654 690.386 255.654 688.818C255.654 687.222 255.234 686.27 253.722 686.27C252.406 686.27 251.734 687.376 251.734 688.902ZM258.907 692.5V687.334C258.907 686.34 258.893 685.78 258.893 685.402H260.097C260.111 685.598 260.139 686.158 260.139 686.844C260.503 685.892 261.343 685.262 262.519 685.234V686.452C261.063 686.494 260.139 687.264 260.139 689.056V692.5H258.907ZM266.562 685.234C268.536 685.234 269.824 686.704 269.824 688.93C269.824 690.988 268.648 692.668 266.478 692.668C264.448 692.668 263.216 691.1 263.216 688.958C263.216 686.858 264.42 685.234 266.562 685.234ZM266.506 686.256C265.176 686.256 264.476 687.334 264.476 688.944C264.476 690.512 265.26 691.646 266.534 691.646C267.822 691.646 268.564 690.568 268.564 688.958C268.564 687.362 267.836 686.256 266.506 686.256ZM270.649 685.402H271.937C272.819 688.734 273.323 690.638 273.449 691.366H273.463C273.589 690.708 274.093 688.93 275.101 685.402H276.305C277.411 689.42 277.747 690.582 277.859 691.226H277.873C278.055 690.47 278.335 689.406 279.441 685.402H280.687L278.503 692.5H277.173C276.487 689.91 275.801 687.516 275.647 686.746H275.633C275.507 687.516 274.877 689.686 274.079 692.5H272.707L270.649 685.402ZM85.726 699.224H86.958V707.498C86.958 708.156 86.958 708.814 86.972 709.5H85.796C85.754 709.318 85.726 708.772 85.726 708.492C85.376 709.234 84.662 709.668 83.5 709.668C81.666 709.668 80.546 708.184 80.546 706.028C80.546 703.844 81.764 702.234 83.724 702.234C84.984 702.234 85.544 702.738 85.726 703.144V699.224ZM81.82 705.986C81.82 707.694 82.632 708.632 83.752 708.632C85.404 708.632 85.782 707.4 85.782 705.846C85.782 704.264 85.446 703.27 83.85 703.27C82.59 703.27 81.82 704.264 81.82 705.986ZM94.788 706.168H89.776C89.79 707.61 90.518 708.646 91.722 708.646C92.842 708.646 93.206 708.058 93.43 707.54H94.676C94.396 708.45 93.626 709.668 91.68 709.668C89.454 709.668 88.544 707.848 88.544 706.028C88.544 703.914 89.608 702.234 91.764 702.234C94.06 702.234 94.802 704.068 94.802 705.58C94.802 705.804 94.802 705.986 94.788 706.168ZM89.818 705.314H93.556C93.542 704.138 92.954 703.2 91.75 703.2C90.49 703.2 89.944 704.068 89.818 705.314ZM102.198 706.168H97.1862C97.2002 707.61 97.9282 708.646 99.1322 708.646C100.252 708.646 100.616 708.058 100.84 707.54H102.086C101.806 708.45 101.036 709.668 99.0902 709.668C96.8642 709.668 95.9542 707.848 95.9542 706.028C95.9542 703.914 97.0182 702.234 99.1742 702.234C101.47 702.234 102.212 704.068 102.212 705.58C102.212 705.804 102.212 705.986 102.198 706.168ZM97.2282 705.314H100.966C100.952 704.138 100.364 703.2 99.1602 703.2C97.9002 703.2 97.3542 704.068 97.2282 705.314ZM105.004 712.286H103.786V704.138C103.786 703.55 103.786 702.948 103.772 702.402H104.962C104.99 702.64 105.004 703.06 105.004 703.522C105.396 702.794 106.11 702.234 107.328 702.234C108.966 702.234 110.156 703.606 110.156 705.762C110.156 708.31 108.798 709.668 107.076 709.668C105.928 709.668 105.326 709.192 105.004 708.618V712.286ZM108.896 705.818C108.896 704.306 108.21 703.284 107.006 703.284C105.536 703.284 104.948 704.208 104.948 705.944C104.948 707.61 105.424 708.632 106.908 708.632C108.21 708.632 108.896 707.568 108.896 705.818ZM117.593 706.168H112.581C112.595 707.61 113.323 708.646 114.527 708.646C115.647 708.646 116.011 708.058 116.235 707.54H117.481C117.201 708.45 116.431 709.668 114.485 709.668C112.259 709.668 111.349 707.848 111.349 706.028C111.349 703.914 112.413 702.234 114.569 702.234C116.865 702.234 117.607 704.068 117.607 705.58C117.607 705.804 117.607 705.986 117.593 706.168ZM112.623 705.314H116.361C116.347 704.138 115.759 703.2 114.555 703.2C113.295 703.2 112.749 704.068 112.623 705.314ZM119.181 709.5V704.334C119.181 703.34 119.167 702.78 119.167 702.402H120.371C120.385 702.598 120.413 703.158 120.413 703.844C120.777 702.892 121.617 702.262 122.793 702.234V703.452C121.337 703.494 120.413 704.264 120.413 706.056V709.5H119.181ZM127.62 706.56H126.36V706.35C126.36 705.608 126.584 704.908 127.69 703.928C128.488 703.2 128.628 702.654 128.628 702.08C128.628 701.408 128.194 700.638 127.13 700.638C126.094 700.638 125.618 701.282 125.464 702.234H124.26C124.302 701.38 124.89 699.616 127.158 699.616C129.202 699.63 129.888 701.044 129.888 702.108C129.888 703.088 129.566 703.718 128.544 704.656C127.844 705.286 127.62 705.776 127.62 706.448V706.56ZM127.62 709.5H126.36V707.568H127.62V709.5Z" fill="#1E1E1E"/>
<g opacity="0.8">
<path d="M318 694C319.105 694 320 694.895 320 696C320 697.105 319.105 698 318 698C316.895 698 316 697.105 316 696C316 694.895 316.895 694 318 694ZM325 694C326.105 694 327 694.895 327 696C327 697.105 326.105 698 325 698C323.895 698 323 697.105 323 696C323 694.895 323.895 694 325 694ZM332 694C333.105 694 334 694.895 334 696C334 697.105 333.105 698 332 698C330.895 698 330 697.105 330 696C330 694.895 330.895 694 332 694Z" fill="#432D69"/>
</g>
<rect x="20.5" y="732.5" width="334" height="51" rx="25.5" stroke="#432D69" stroke-opacity="0.1"/>
<rect x="20" y="732" width="52" height="52" rx="26" fill="#F579A4"/>
<path d="M48.9971 751.872C50.1016 751.872 50.997 752.768 50.9971 753.872V763C50.997 764.105 50.1016 765 48.9971 765H43.1514C42.0468 765 41.1514 764.105 41.1514 763V753.872C41.1514 752.768 42.0469 751.872 43.1514 751.872H48.9971ZM46.0791 755.853C46.1024 757.33 45.0564 758.409 43.5791 758.433C45.0561 758.409 46.1358 759.455 46.1592 760.933C46.1359 759.456 47.1819 758.376 48.6592 758.353C47.1822 758.376 46.1024 757.33 46.0791 755.853Z" fill="#FAF9F6"/>
<rect x="35.5" y="751.5" width="7" height="12" rx="1.5" stroke="#FAF9F6"/>
<rect x="49.5" y="751.5" width="7" height="12" rx="1.5" stroke="#FAF9F6"/>
<path d="M84.312 763H82.926L80.308 753.256H81.68C82.436 756.448 83.486 760.48 83.668 761.586H83.682C83.934 760.34 85.278 755.748 85.908 753.256H87.168C87.756 755.44 89.086 760.382 89.296 761.544H89.31C89.632 759.864 90.99 755.258 91.522 753.256H92.796L89.954 763H88.568C87.98 760.76 86.734 756.112 86.496 754.95H86.482C86.188 756.406 84.928 760.76 84.312 763ZM93.9836 752.724H95.2156V756.952C95.5656 756.322 96.2236 755.734 97.4276 755.734C98.5616 755.734 99.8216 756.35 99.8216 758.464V763H98.5896V758.674C98.5896 757.47 98.0856 756.798 97.0496 756.798C95.7756 756.798 95.2156 757.638 95.2156 759.122V763H93.9836V752.724ZM107.123 758.058V761.446C107.123 762.104 107.179 762.79 107.221 763H106.045C105.989 762.846 105.947 762.51 105.933 762.076C105.681 762.538 105.107 763.168 103.735 763.168C102.055 763.168 101.341 762.076 101.341 760.998C101.341 759.416 102.587 758.688 104.701 758.688H105.905V758.086C105.905 757.456 105.709 756.7 104.379 756.7C103.203 756.7 102.993 757.288 102.867 757.834H101.677C101.775 756.854 102.377 755.734 104.421 755.734C106.157 755.734 107.123 756.448 107.123 758.058ZM105.919 759.766V759.542H104.771C103.357 759.542 102.601 759.934 102.601 760.928C102.601 761.67 103.105 762.202 103.987 762.202C105.695 762.202 105.919 761.054 105.919 759.766ZM108.236 756.896V755.902H109.468V753.802H110.686V755.902H112.254V756.896H110.686V761.054C110.686 761.754 110.854 762.104 111.498 762.104C111.666 762.104 111.918 762.09 112.114 762.048V762.972C111.82 763.084 111.4 763.098 111.05 763.098C109.944 763.098 109.468 762.524 109.468 761.348V756.896H108.236ZM114.568 756.42H113.546C113.924 755.216 114.162 753.62 114.19 752.724H115.464C115.38 753.886 114.988 755.524 114.568 756.42ZM115.775 760.97H117.007C117.203 761.74 117.777 762.202 118.743 762.202C119.779 762.202 120.185 761.754 120.185 761.11C120.185 760.438 119.863 760.13 118.505 759.808C116.475 759.318 116.055 758.688 116.055 757.722C116.055 756.728 116.797 755.734 118.617 755.734C120.451 755.734 121.207 756.798 121.291 757.778H120.115C120.003 757.33 119.653 756.686 118.575 756.686C117.581 756.686 117.273 757.162 117.273 757.624C117.273 758.156 117.567 758.422 118.869 758.73C121.025 759.248 121.459 759.962 121.459 761.012C121.459 762.258 120.465 763.168 118.701 763.168C116.867 763.168 115.957 762.244 115.775 760.97ZM126.564 760.62V752.724H127.796V756.91C128.104 756.308 128.762 755.734 130.05 755.734C131.842 755.734 132.962 757.204 132.962 759.304C132.962 761.46 131.87 763.168 129.868 763.168C128.734 763.168 128.132 762.748 127.782 762.062C127.782 762.426 127.754 762.804 127.726 763H126.55C126.564 762.202 126.564 761.404 126.564 760.62ZM131.702 759.332C131.702 757.792 131.002 756.77 129.77 756.77C128.258 756.77 127.726 757.778 127.726 759.472C127.726 760.956 128.202 762.132 129.7 762.132C130.96 762.132 131.702 761.054 131.702 759.332ZM135.794 763H134.562V752.724H135.794V763ZM140.726 755.734C142.7 755.734 143.988 757.204 143.988 759.43C143.988 761.488 142.812 763.168 140.642 763.168C138.612 763.168 137.38 761.6 137.38 759.458C137.38 757.358 138.584 755.734 140.726 755.734ZM140.67 756.756C139.34 756.756 138.64 757.834 138.64 759.444C138.64 761.012 139.424 762.146 140.698 762.146C141.986 762.146 142.728 761.068 142.728 759.458C142.728 757.862 142 756.756 140.67 756.756ZM150.045 760.83H151.263C150.969 762.048 150.143 763.168 148.337 763.168C146.377 763.168 145.173 761.768 145.173 759.486C145.173 757.484 146.307 755.734 148.421 755.734C150.465 755.734 151.179 757.19 151.263 758.1H150.045C149.877 757.386 149.429 756.756 148.393 756.756C147.147 756.756 146.433 757.834 146.433 759.444C146.433 761.068 147.119 762.146 148.351 762.146C149.233 762.146 149.751 761.67 150.045 760.83ZM153.977 752.724V759.29C154.565 758.59 156.133 756.952 157.085 755.902H158.555L155.881 758.66L158.863 763H157.421L155.041 759.458L153.977 760.48V763H152.745V752.724H153.977ZM159.868 763V755.902H161.1V763H159.868ZM161.1 754.25H159.868V752.724H161.1V754.25ZM163.191 763V757.694C163.191 757.078 163.191 756.448 163.177 755.902H164.367C164.409 756.112 164.423 756.854 164.423 757.064C164.703 756.462 165.277 755.734 166.649 755.734C167.993 755.734 169.029 756.546 169.029 758.436V763H167.797V758.59C167.797 757.512 167.377 756.798 166.299 756.798C164.955 756.798 164.423 757.82 164.423 759.248V763H163.191ZM176.972 757.946V762.356C176.972 764.638 176.034 765.926 173.71 765.926C171.554 765.926 170.896 764.722 170.77 763.756H172.016C172.226 764.54 172.856 764.946 173.766 764.946C175.376 764.946 175.768 763.924 175.768 762.3V761.726C175.39 762.51 174.746 762.972 173.556 762.972C171.806 762.972 170.616 761.544 170.616 759.458C170.616 757.148 171.974 755.734 173.682 755.734C175.04 755.734 175.614 756.364 175.768 756.84C175.782 756.518 175.824 756.042 175.838 755.902H176.986C176.986 756.308 176.972 757.274 176.972 757.946ZM171.89 759.402C171.89 760.9 172.674 761.922 173.836 761.922C175.362 761.922 175.81 760.886 175.81 759.318C175.81 757.722 175.39 756.77 173.878 756.77C172.562 756.77 171.89 757.876 171.89 759.402ZM182.605 763V757.736C182.605 757.12 182.605 756.476 182.591 755.902H183.767C183.795 756.112 183.823 756.63 183.823 756.994C184.145 756.364 184.761 755.734 185.881 755.734C186.889 755.734 187.575 756.238 187.855 757.008C188.233 756.336 188.905 755.734 190.109 755.734C191.271 755.734 192.349 756.42 192.349 758.338V763H191.145V758.478C191.145 757.666 190.851 756.798 189.745 756.798C188.583 756.798 188.079 757.666 188.079 758.926V763H186.875V758.52C186.875 757.61 186.623 756.798 185.503 756.798C184.369 756.798 183.823 757.722 183.823 759.066V763H182.605ZM200.185 759.668H195.173C195.187 761.11 195.915 762.146 197.119 762.146C198.239 762.146 198.603 761.558 198.827 761.04H200.073C199.793 761.95 199.023 763.168 197.077 763.168C194.851 763.168 193.941 761.348 193.941 759.528C193.941 757.414 195.005 755.734 197.161 755.734C199.457 755.734 200.199 757.568 200.199 759.08C200.199 759.304 200.199 759.486 200.185 759.668ZM195.215 758.814H198.953C198.939 757.638 198.351 756.7 197.147 756.7C195.887 756.7 195.341 757.568 195.215 758.814ZM205.314 763V757.834C205.314 756.84 205.3 756.28 205.3 755.902H206.504C206.518 756.098 206.546 756.658 206.546 757.344C206.91 756.392 207.75 755.762 208.926 755.734V756.952C207.47 756.994 206.546 757.764 206.546 759.556V763H205.314ZM210.14 763V755.902H211.372V763H210.14ZM211.372 754.25H210.14V752.724H211.372V754.25ZM219.314 757.946V762.356C219.314 764.638 218.376 765.926 216.052 765.926C213.896 765.926 213.238 764.722 213.112 763.756H214.358C214.568 764.54 215.198 764.946 216.108 764.946C217.718 764.946 218.11 763.924 218.11 762.3V761.726C217.732 762.51 217.088 762.972 215.898 762.972C214.148 762.972 212.958 761.544 212.958 759.458C212.958 757.148 214.316 755.734 216.024 755.734C217.382 755.734 217.956 756.364 218.11 756.84C218.124 756.518 218.166 756.042 218.18 755.902H219.328C219.328 756.308 219.314 757.274 219.314 757.946ZM214.232 759.402C214.232 760.9 215.016 761.922 216.178 761.922C217.704 761.922 218.152 760.886 218.152 759.318C218.152 757.722 217.732 756.77 216.22 756.77C214.904 756.77 214.232 757.876 214.232 759.402ZM221.405 752.724H222.637V756.952C222.987 756.322 223.645 755.734 224.849 755.734C225.983 755.734 227.243 756.35 227.243 758.464V763H226.011V758.674C226.011 757.47 225.507 756.798 224.471 756.798C223.197 756.798 222.637 757.638 222.637 759.122V763H221.405V752.724ZM228.343 756.896V755.902H229.575V753.802H230.793V755.902H232.361V756.896H230.793V761.054C230.793 761.754 230.961 762.104 231.605 762.104C231.773 762.104 232.025 762.09 232.221 762.048V762.972C231.927 763.084 231.507 763.098 231.157 763.098C230.051 763.098 229.575 762.524 229.575 761.348V756.896H228.343ZM237.265 763V757.694C237.265 757.078 237.265 756.448 237.251 755.902H238.441C238.483 756.112 238.497 756.854 238.497 757.064C238.777 756.462 239.351 755.734 240.723 755.734C242.067 755.734 243.103 756.546 243.103 758.436V763H241.871V758.59C241.871 757.512 241.451 756.798 240.373 756.798C239.029 756.798 238.497 757.82 238.497 759.248V763H237.265ZM248.037 755.734C250.011 755.734 251.299 757.204 251.299 759.43C251.299 761.488 250.123 763.168 247.953 763.168C245.923 763.168 244.691 761.6 244.691 759.458C244.691 757.358 245.895 755.734 248.037 755.734ZM247.981 756.756C246.651 756.756 245.951 757.834 245.951 759.444C245.951 761.012 246.735 762.146 248.009 762.146C249.297 762.146 250.039 761.068 250.039 759.458C250.039 757.862 249.311 756.756 247.981 756.756ZM252.123 755.902H253.411C254.293 759.234 254.797 761.138 254.923 761.866H254.937C255.063 761.208 255.567 759.43 256.575 755.902H257.779C258.885 759.92 259.221 761.082 259.333 761.726H259.347C259.529 760.97 259.809 759.906 260.915 755.902H262.161L259.977 763H258.647C257.961 760.41 257.275 758.016 257.121 757.246H257.107C256.981 758.016 256.351 760.186 255.553 763H254.181L252.123 755.902ZM266.813 760.06H265.553V759.85C265.553 759.108 265.777 758.408 266.883 757.428C267.681 756.7 267.821 756.154 267.821 755.58C267.821 754.908 267.387 754.138 266.323 754.138C265.287 754.138 264.811 754.782 264.657 755.734H263.453C263.495 754.88 264.083 753.116 266.351 753.116C268.395 753.13 269.081 754.544 269.081 755.608C269.081 756.588 268.759 757.218 267.737 758.156C267.037 758.786 266.813 759.276 266.813 759.948V760.06ZM266.813 763H265.553V761.068H266.813V763Z" fill="#1E1E1E"/>
<g opacity="0.8">
<path d="M317 756C318.105 756 319 756.895 319 758C319 759.105 318.105 760 317 760C315.895 760 315 759.105 315 758C315 756.895 315.895 756 317 756ZM324 756C325.105 756 326 756.895 326 758C326 759.105 325.105 760 324 760C322.895 760 322 759.105 322 758C322 756.895 322.895 756 324 756ZM331 756C332.105 756 333 756.895 333 758C333 759.105 332.105 760 331 760C329.895 760 329 759.105 329 758C329 756.895 329.895 756 331 756Z" fill="#432D69"/>
</g>
<rect x="121" y="799" width="134" height="5" rx="2.5" fill="black"/>
<rect x="20.5" y="153.5" width="104" height="84" rx="13.5" fill="#FAF9F6"/>
<rect x="20.5" y="153.5" width="104" height="84" rx="13.5" stroke="#815DEF"/>
<path d="M83.0908 178.711C84.1954 178.711 85.0908 179.607 85.0908 180.711V210.289C85.0906 211.393 84.1952 212.289 83.0908 212.289H61.9082C60.8038 212.289 59.9085 211.393 59.9082 210.289V180.711C59.9082 179.607 60.8037 178.711 61.9082 178.711H83.0908ZM72.5127 188.892C72.5724 192.67 69.8967 195.432 66.1182 195.492C69.8959 195.432 72.658 198.107 72.7178 201.885C72.6582 198.108 75.333 195.346 79.1113 195.287C75.3337 195.346 72.5724 192.671 72.5127 188.892Z" fill="#815DEF"/>
<rect x="136.5" y="153.5" width="102" height="84" rx="13.5" fill="#815DEF"/>
<rect x="136.5" y="153.5" width="102" height="84" rx="13.5" stroke="#815DEF"/>
<path d="M198.823 179.163C199.928 179.163 200.823 180.059 200.823 181.163V212.163C200.823 213.268 199.928 214.163 198.823 214.163H176.572C175.468 214.163 174.572 213.268 174.572 212.163V181.163C174.572 180.059 175.468 179.163 176.572 179.163H198.823ZM187.711 189.775C187.773 193.713 184.984 196.592 181.046 196.654C184.984 196.592 187.863 199.381 187.925 203.319C187.863 199.381 190.651 196.503 194.59 196.44C190.652 196.503 187.773 193.714 187.711 189.775Z" fill="#FAF9F6"/>
<rect x="158.5" y="177.337" width="20.6735" height="32.7143" rx="1.5" stroke="#FAF9F6"/>
<rect x="195.826" y="177.337" width="20.6735" height="32.7143" rx="1.5" stroke="#FAF9F6"/>
<rect x="250.5" y="153.5" width="104" height="84" rx="13.5" fill="#FAF9F6"/>
<rect x="250.5" y="153.5" width="104" height="84" rx="13.5" stroke="#815DEF"/>
<rect x="285.588" y="181.418" width="26" height="36" rx="1.5" fill="#FAF9F6" stroke="#815DEF"/>
<rect x="289.588" y="176.418" width="26" height="36" rx="1.5" fill="#FAF9F6" stroke="#815DEF"/>
<path d="M317.911 173.082C319.016 173.082 319.911 173.977 319.911 175.082V206.082C319.911 207.186 319.016 208.081 317.911 208.082H295.66C294.556 208.081 293.66 207.186 293.66 206.082V175.082C293.66 173.977 294.556 173.082 295.66 173.082H317.911ZM306.799 183.694C306.861 187.632 304.072 190.51 300.134 190.573C304.072 190.511 306.95 193.299 307.013 197.238C306.951 193.3 309.739 190.421 313.678 190.359C309.74 190.421 306.861 187.633 306.799 183.694Z" fill="#815DEF"/>
<path opacity="0.35" d="M338.667 17.8333H355.333C356.53 17.8333 357.5 18.8036 357.5 20.0002V26.0002C357.5 27.1967 356.53 28.1663 355.333 28.1663H338.667C337.47 28.1663 336.5 27.1967 336.5 26.0002V20.0002C336.5 18.8036 337.47 17.8333 338.667 17.8333Z" stroke="#FAF9F6"/>
<path opacity="0.4" d="M359 21V25C359.805 24.6612 360.328 23.8731 360.328 23C360.328 22.1269 359.805 21.3388 359 21" fill="#FAF9F6"/>
<path d="M338 20.6666C338 19.9302 338.597 19.3333 339.333 19.3333H354.667C355.403 19.3333 356 19.9302 356 20.6666V25.3333C356 26.0696 355.403 26.6666 354.667 26.6666H339.333C338.597 26.6666 338 26.0696 338 25.3333V20.6666Z" fill="#FAF9F6"/>
<path d="M321.121 25.7311C322.397 24.6522 324.265 24.6522 325.541 25.7311C325.605 25.7892 325.642 25.8713 325.644 25.9577C325.645 26.0442 325.612 26.1276 325.55 26.1882L323.553 28.2038C323.494 28.263 323.414 28.2965 323.331 28.2966C323.248 28.2966 323.168 28.263 323.109 28.2038L321.111 26.1882C321.05 26.1276 321.016 26.0441 321.018 25.9577C321.019 25.8712 321.057 25.7891 321.121 25.7311ZM318.456 23.0417C321.204 20.4856 325.46 20.4857 328.208 23.0417C328.27 23.1015 328.306 23.1841 328.307 23.2702C328.308 23.3564 328.274 23.4395 328.213 23.5007L327.059 24.6677C326.94 24.7868 326.747 24.7894 326.625 24.6735C325.723 23.8563 324.549 23.4039 323.331 23.404C322.114 23.4045 320.941 23.8568 320.039 24.6735C319.917 24.7893 319.724 24.7867 319.605 24.6677L318.451 23.5007C318.391 23.4396 318.357 23.3563 318.357 23.2702C318.358 23.1841 318.394 23.1015 318.456 23.0417ZM315.791 20.36C320.006 16.3209 326.656 16.3206 330.871 20.36C330.932 20.42 330.966 20.5021 330.967 20.5876C330.967 20.6731 330.933 20.7554 330.873 20.8161L329.717 21.9831C329.598 22.1026 329.405 22.1038 329.284 21.986C327.678 20.4593 325.547 19.6082 323.331 19.6081C321.115 19.6081 318.983 20.4591 317.377 21.986C317.256 22.104 317.063 22.1028 316.944 21.9831L315.788 20.8161C315.728 20.7553 315.694 20.6732 315.694 20.5876C315.695 20.5021 315.73 20.42 315.791 20.36Z" fill="#FAF9F6"/>
<path d="M295.667 24.3335C296.219 24.3335 296.667 24.7812 296.667 25.3335V27.3335C296.667 27.8856 296.219 28.3335 295.667 28.3335H294.667C294.115 28.3335 293.667 27.8856 293.667 27.3335V25.3335C293.667 24.7812 294.115 24.3335 294.667 24.3335H295.667ZM300.334 22.3335C300.886 22.3337 301.334 22.7813 301.334 23.3335V27.3335C301.334 27.8855 300.886 28.3333 300.334 28.3335H299.334C298.782 28.3335 298.334 27.8856 298.334 27.3335V23.3335C298.334 22.7812 298.782 22.3335 299.334 22.3335H300.334ZM305 19.9995C305.552 19.9995 306 20.4474 306 20.9995V27.3335C306 27.8856 305.552 28.3335 305 28.3335H304C303.448 28.3333 303 27.8855 303 27.3335V20.9995C303 20.4475 303.448 19.9997 304 19.9995H305ZM309.667 17.6665C310.219 17.6665 310.667 18.1142 310.667 18.6665V27.3335C310.667 27.8856 310.219 28.3335 309.667 28.3335H308.667C308.115 28.3335 307.667 27.8856 307.667 27.3335V18.6665C307.667 18.1142 308.115 17.6665 308.667 17.6665H309.667Z" fill="#FAF9F6"/>
<path d="M37.3203 28.2563C40.0083 28.2563 41.605 26.1543 41.605 22.5947C41.605 21.2544 41.3486 20.1265 40.8579 19.2549C40.1475 17.8999 38.9243 17.1675 37.3789 17.1675C35.0791 17.1675 33.4531 18.7129 33.4531 20.8809C33.4531 22.917 34.918 24.3965 36.9321 24.3965C38.1699 24.3965 39.1733 23.8179 39.6714 22.8145H39.6934C39.6934 22.8145 39.7227 22.8145 39.73 22.8145C39.7446 22.8145 39.7959 22.8145 39.7959 22.8145C39.7959 25.2314 38.8804 26.6743 37.335 26.6743C36.4268 26.6743 35.7236 26.1763 35.4819 25.3779H33.5996C33.9146 27.1138 35.3867 28.2563 37.3203 28.2563ZM37.3862 22.895C36.1704 22.895 35.3062 22.0308 35.3062 20.8223C35.3062 19.6431 36.2144 18.7422 37.3936 18.7422C38.5728 18.7422 39.481 19.6577 39.481 20.8516C39.481 22.0308 38.5947 22.895 37.3862 22.895Z" fill="#FAF9F6"/>
<path d="M44.6961 28.1538C45.3919 28.1538 45.868 27.6558 45.868 26.9966C45.868 26.3301 45.3919 25.8394 44.6961 25.8394C44.0076 25.8394 43.5242 26.3301 43.5242 26.9966C43.5242 27.6558 44.0076 28.1538 44.6961 28.1538ZM44.6961 22.6606C45.3919 22.6606 45.868 22.1699 45.868 21.5107C45.868 20.8442 45.3919 20.3535 44.6961 20.3535C44.0076 20.3535 43.5242 20.8442 43.5242 21.5107C43.5242 22.1699 44.0076 22.6606 44.6961 22.6606Z" fill="#FAF9F6"/>
<path d="M52.7237 28H54.5328V26.0298H55.961V24.4331H54.5328V17.4312H51.8668C49.9991 20.2437 48.5123 22.5947 47.5602 24.3452V26.0298H52.7237V28ZM49.3106 24.3672C50.5411 22.1992 51.6397 20.4634 52.6505 18.9692H52.753V24.4771H49.3106V24.3672Z" fill="#FAF9F6"/>
<path d="M59.9896 28H61.8793V17.4312H59.997L57.2357 19.3647V21.1812L59.8651 19.3354H59.9896V28Z" fill="#FAF9F6"/>
<path d="M25.68 82V69.5H28.52V82H25.68ZM21.46 69.9V67.4H32.74V69.9H21.46ZM40.6444 82V78.78H40.1844V75.2C40.1844 74.5733 40.031 74.1067 39.7244 73.8C39.4177 73.4933 38.9444 73.34 38.3044 73.34C37.971 73.34 37.571 73.3467 37.1044 73.36C36.6377 73.3733 36.1644 73.3933 35.6844 73.42C35.2177 73.4333 34.7977 73.4533 34.4244 73.48V71.12C34.731 71.0933 35.0777 71.0667 35.4644 71.04C35.851 71.0133 36.2444 71 36.6444 71C37.0577 70.9867 37.4444 70.98 37.8044 70.98C38.9244 70.98 39.851 71.1267 40.5844 71.42C41.331 71.7133 41.891 72.1733 42.2644 72.8C42.651 73.4267 42.8444 74.2467 42.8444 75.26V82H40.6444ZM37.1444 82.28C36.3577 82.28 35.6644 82.14 35.0644 81.86C34.4777 81.58 34.0177 81.18 33.6844 80.66C33.3644 80.14 33.2044 79.5133 33.2044 78.78C33.2044 77.98 33.3977 77.3267 33.7844 76.82C34.1844 76.3133 34.7377 75.9333 35.4444 75.68C36.1644 75.4267 37.0044 75.3 37.9644 75.3H40.4844V76.96H37.9244C37.2844 76.96 36.791 77.12 36.4444 77.44C36.111 77.7467 35.9444 78.1467 35.9444 78.64C35.9444 79.1333 36.111 79.5333 36.4444 79.84C36.791 80.1467 37.2844 80.3 37.9244 80.3C38.311 80.3 38.6644 80.2333 38.9844 80.1C39.3177 79.9533 39.591 79.7133 39.8044 79.38C40.031 79.0333 40.1577 78.5667 40.1844 77.98L40.8644 78.76C40.7977 79.52 40.611 80.16 40.3044 80.68C40.011 81.2 39.5977 81.6 39.0644 81.88C38.5444 82.1467 37.9044 82.28 37.1444 82.28ZM45.8222 82V71.14H48.0222V75.74H47.9622C47.9622 74.18 48.2955 73 48.9622 72.2C49.6289 71.4 50.6089 71 51.9022 71H52.3022V73.42H51.5422C50.6089 73.42 49.8822 73.6733 49.3622 74.18C48.8555 74.6733 48.6022 75.3933 48.6022 76.34V82H45.8222ZM59.3039 82.38C58.3439 82.38 57.4972 82.2267 56.7639 81.92C56.0306 81.6133 55.4106 81.2 54.9039 80.68C54.3972 80.1467 54.0106 79.5467 53.7439 78.88C53.4906 78.2133 53.3639 77.52 53.3639 76.8V76.38C53.3639 75.6333 53.4972 74.9267 53.7639 74.26C54.0439 73.58 54.4372 72.98 54.9439 72.46C55.4639 71.9267 56.0906 71.5133 56.8239 71.22C57.5572 70.9133 58.3839 70.76 59.3039 70.76C60.2239 70.76 61.0506 70.9133 61.7839 71.22C62.5172 71.5133 63.1372 71.9267 63.6439 72.46C64.1639 72.98 64.5572 73.58 64.8239 74.26C65.0906 74.9267 65.2239 75.6333 65.2239 76.38V76.8C65.2239 77.52 65.0906 78.2133 64.8239 78.88C64.5706 79.5467 64.1906 80.1467 63.6839 80.68C63.1772 81.2 62.5572 81.6133 61.8239 81.92C61.0906 82.2267 60.2506 82.38 59.3039 82.38ZM59.3039 80C59.9839 80 60.5572 79.8533 61.0239 79.56C61.4906 79.2533 61.8439 78.8467 62.0839 78.34C62.3239 77.82 62.4439 77.2333 62.4439 76.58C62.4439 75.9133 62.3172 75.3267 62.0639 74.82C61.8239 74.3 61.4639 73.8933 60.9839 73.6C60.5172 73.2933 59.9572 73.14 59.3039 73.14C58.6506 73.14 58.0839 73.2933 57.6039 73.6C57.1372 73.8933 56.7772 74.3 56.5239 74.82C56.2706 75.3267 56.1439 75.9133 56.1439 76.58C56.1439 77.2333 56.2639 77.82 56.5039 78.34C56.7572 78.8467 57.1172 79.2533 57.5839 79.56C58.0506 79.8533 58.6239 80 59.3039 80ZM72.3781 82.14C71.3781 82.14 70.5515 82.0133 69.8981 81.76C69.2581 81.4933 68.7781 81.0533 68.4581 80.44C68.1381 79.8133 67.9781 78.9733 67.9781 77.92L67.9981 68.08H70.5981L70.5781 78.1C70.5781 78.6333 70.7181 79.0467 70.9981 79.34C71.2915 79.62 71.7048 79.76 72.2381 79.76H73.9381V82.14H72.3781ZM66.2581 73.18V71.14H73.9381V73.18H66.2581Z" fill="#FAF9F6"/>
<mask id="mask1_1255_43364" style="mask-type:alpha" maskUnits="userSpaceOnUse" x="325" y="60" width="30" height="30">
<circle cx="340" cy="75" r="14" fill="#FAF9F6" stroke="#FAF9F6" stroke-width="2"/>
</mask>
<g mask="url(#mask1_1255_43364)">
<circle cx="340" cy="75" r="15" fill="#432D69"/>
<g clip-path="url(#clip1_1255_43364)">
<path d="M327.211 86.992C326.437 90.7937 325.973 94.3529 325.713 97.5947C324.811 97.3663 324.052 97.4119 323.417 97.6947C319.57 99.4105 318.112 110.85 323.654 116.546C328.727 121.762 337.522 119.961 339.62 119.532C341.303 119.187 342.597 118.922 344.081 118C351.184 113.582 352.359 100.483 348.428 97.8893C347.671 97.39 346.766 97.3067 345.903 97.3992C345.783 96.5628 345.567 95.2599 345.179 93.6935C344.387 90.496 343.519 88.7929 342.683 86.3919C342.096 84.7054 341.352 82.1803 340.887 78.8898C341.641 78.9332 349.48 79.2953 351.667 75.0891C351.871 74.6972 352.498 73.5657 352.051 72.7494C351.716 72.1366 350.956 72.0257 347.874 71.6386C344.576 71.2243 344.072 71.1783 343.257 70.7636C342.773 70.5163 342.16 69.7106 340.887 69.0881C340.617 68.9561 340.388 68.8614 340.232 68.8005C340.219 68.5335 340.003 64.3781 339.256 64.3202C338.527 64.2637 337.692 68.1381 337.625 68.4546C336.915 68.4322 336.206 68.4103 335.496 68.388C335.182 65.6691 334.816 64.3023 334.398 64.286C333.931 64.2681 333.398 65.9352 332.801 69.2871C330.714 74.0843 328.629 80.0252 327.211 86.9916V86.992Z" fill="#815DEF"/>
<path d="M330.264 98.9975C330.328 100.661 330.58 107.175 335.03 109.097C335.203 109.172 337.917 110.296 340.408 108.974C344.549 106.775 343.911 100.023 343.814 98.9975C343.767 98.496 342.918 90.5648 337.891 89.2259C337.667 89.1663 335.457 88.6131 333.426 89.8217C329.988 91.8668 330.19 97.0953 330.264 98.9975Z" fill="#FAF9F6"/>
<path d="M336.205 72.474C336.217 72.4814 336.324 72.5454 336.436 72.5095C336.619 72.4512 336.673 72.1702 336.668 72.0014C336.665 71.9273 336.656 71.6687 336.463 71.5648C336.378 71.5192 336.249 71.4986 336.154 71.556C335.915 71.6998 335.937 72.3087 336.205 72.474H336.205Z" fill="#432D69"/>
<path d="M341.13 72.474C341.141 72.4814 341.249 72.5454 341.361 72.5095C341.544 72.4512 341.598 72.1702 341.592 72.0014C341.59 71.9273 341.581 71.6687 341.388 71.5648C341.303 71.5192 341.174 71.4986 341.079 71.556C340.84 71.6998 340.861 72.3087 341.13 72.474H341.13Z" fill="#432D69"/>
<path d="M348.241 76.3203C350.836 76.3203 351.612 73.6514 351.621 73.6225C351.639 73.5545 351.6 73.484 351.532 73.4647C351.465 73.4458 351.394 73.4853 351.375 73.5532C351.342 73.6698 350.541 76.4084 347.725 76.0283C347.655 76.02 347.59 76.0678 347.581 76.1379C347.572 76.2081 347.621 76.2725 347.691 76.2817C347.882 76.3076 348.066 76.3198 348.241 76.3198V76.3203Z" fill="#432D69"/>
<path d="M338.357 68.6705C338.724 68.6762 339.089 68.6815 339.456 68.6872C339.455 68.4829 339.446 68.1988 339.414 67.8622C339.379 67.5027 339.27 66.3712 339.073 66.3532C338.948 66.3419 338.738 66.7671 338.357 68.6705Z" fill="#FAF9F6"/>
<path d="M333.683 68.4869C334.049 68.4926 334.415 68.4979 334.781 68.5036C334.78 68.2993 334.772 68.0152 334.739 67.6786C334.705 67.3191 334.596 66.1876 334.398 66.1697C334.274 66.1583 334.063 66.5835 333.683 68.4869Z" fill="#FAF9F6"/>
<path d="M334.373 80.0335C334.905 80.0335 335.687 79.5986 336.29 78.7876L340.88 79.0173C340.951 79.0235 341.01 78.9665 341.014 78.8959C341.017 78.8253 340.963 78.7653 340.893 78.7617L336.234 78.5285C336.191 78.5268 336.149 78.5461 336.124 78.5816C335.398 79.5938 334.448 79.9362 334.139 79.7183C333.839 79.5079 333.821 78.5487 334.472 77.5246C334.502 77.4777 334.499 77.4168 334.463 77.3738C334.427 77.3309 334.368 77.3164 334.316 77.3374C333.115 77.8328 332.152 77.7447 332.017 77.4668C331.889 77.202 332.389 76.4076 333.465 75.7654C333.525 75.729 333.545 75.6505 333.509 75.5901C333.473 75.5296 333.394 75.5098 333.334 75.5458C332.251 76.192 331.557 77.1038 331.787 77.5786C332.005 78.0279 332.993 78.0682 334.075 77.7013C333.554 78.7017 333.591 79.6468 333.991 79.9283C334.092 79.9989 334.222 80.0335 334.372 80.0335H334.373Z" fill="#432D69"/>
<path d="M349.951 72.3652C349.768 73.0214 351.344 74.4979 352.309 74.0687C352.873 73.818 353.258 72.9022 352.948 72.3586C352.714 71.9478 352.159 71.8821 351.799 71.8391C351.129 71.7593 350.082 71.8979 349.951 72.3652H349.951Z" fill="#342057"/>
</g>
<circle cx="340" cy="75" r="14" stroke="white" stroke-width="2"/>
</g>
<rect opacity="0.3" y="660" width="375" height="152" fill="url(#paint1_linear_1255_43364)"/>
<path d="M102.542 289.342C101.354 289.342 100.334 289.138 99.4821 288.73C98.6301 288.31 97.9341 287.764 97.3941 287.092C96.8541 286.408 96.4521 285.676 96.1881 284.896C95.9361 284.104 95.8101 283.336 95.8101 282.592V282.196C95.8101 281.38 95.9421 280.576 96.2061 279.784C96.4701 278.98 96.8721 278.254 97.4121 277.606C97.9641 276.958 98.6541 276.442 99.4821 276.058C100.322 275.662 101.312 275.464 102.452 275.464C103.64 275.464 104.69 275.686 105.602 276.13C106.514 276.574 107.24 277.192 107.78 277.984C108.332 278.764 108.656 279.682 108.752 280.738H105.782C105.698 280.21 105.506 279.76 105.206 279.388C104.906 279.016 104.516 278.728 104.036 278.524C103.568 278.32 103.04 278.218 102.452 278.218C101.864 278.218 101.342 278.32 100.886 278.524C100.43 278.728 100.046 279.016 99.7341 279.388C99.4341 279.76 99.2001 280.204 99.0321 280.72C98.8761 281.224 98.7981 281.788 98.7981 282.412C98.7981 283.024 98.8761 283.588 99.0321 284.104C99.2001 284.608 99.4401 285.052 99.7521 285.436C100.076 285.808 100.472 286.096 100.94 286.3C101.408 286.492 101.942 286.588 102.542 286.588C103.454 286.588 104.222 286.366 104.846 285.922C105.482 285.478 105.866 284.866 105.998 284.086H108.95C108.842 285.046 108.518 285.928 107.978 286.732C107.45 287.524 106.724 288.16 105.8 288.64C104.888 289.108 103.802 289.342 102.542 289.342ZM110.747 289V275.86H113.627V283.438H113.195C113.195 282.442 113.321 281.602 113.573 280.918C113.825 280.234 114.197 279.718 114.689 279.37C115.181 279.01 115.799 278.83 116.543 278.83H116.669C117.761 278.83 118.595 279.22 119.171 280C119.747 280.768 120.035 281.896 120.035 283.384V289H117.155V283.204C117.155 282.664 116.993 282.232 116.669 281.908C116.357 281.572 115.943 281.404 115.427 281.404C114.887 281.404 114.449 281.578 114.113 281.926C113.789 282.274 113.627 282.736 113.627 283.312V289H110.747ZM127.295 289.342C126.431 289.342 125.663 289.21 124.991 288.946C124.319 288.67 123.749 288.298 123.281 287.83C122.825 287.362 122.477 286.828 122.237 286.228C121.997 285.616 121.877 284.974 121.877 284.302V283.888C121.877 283.204 121.997 282.556 122.237 281.944C122.489 281.32 122.849 280.774 123.317 280.306C123.797 279.838 124.373 279.472 125.045 279.208C125.717 278.932 126.467 278.794 127.295 278.794C128.147 278.794 128.903 278.932 129.563 279.208C130.235 279.472 130.805 279.838 131.273 280.306C131.741 280.774 132.101 281.32 132.353 281.944C132.605 282.556 132.731 283.204 132.731 283.888V284.302C132.731 284.974 132.611 285.616 132.371 286.228C132.131 286.828 131.777 287.362 131.309 287.83C130.853 288.298 130.289 288.67 129.617 288.946C128.945 289.21 128.171 289.342 127.295 289.342ZM127.295 286.912C127.859 286.912 128.327 286.792 128.699 286.552C129.071 286.312 129.353 285.976 129.545 285.544C129.749 285.112 129.851 284.632 129.851 284.104C129.851 283.54 129.749 283.048 129.545 282.628C129.341 282.196 129.047 281.854 128.663 281.602C128.291 281.35 127.835 281.224 127.295 281.224C126.767 281.224 126.311 281.35 125.927 281.602C125.543 281.854 125.249 282.196 125.045 282.628C124.853 283.048 124.757 283.54 124.757 284.104C124.757 284.632 124.853 285.112 125.045 285.544C125.237 285.976 125.525 286.312 125.909 286.552C126.293 286.792 126.755 286.912 127.295 286.912ZM139.547 289.342C138.683 289.342 137.915 289.21 137.243 288.946C136.571 288.67 136.001 288.298 135.533 287.83C135.077 287.362 134.729 286.828 134.489 286.228C134.249 285.616 134.129 284.974 134.129 284.302V283.888C134.129 283.204 134.249 282.556 134.489 281.944C134.741 281.32 135.101 280.774 135.569 280.306C136.049 279.838 136.625 279.472 137.297 279.208C137.969 278.932 138.719 278.794 139.547 278.794C140.399 278.794 141.155 278.932 141.815 279.208C142.487 279.472 143.057 279.838 143.525 280.306C143.993 280.774 144.353 281.32 144.605 281.944C144.857 282.556 144.983 283.204 144.983 283.888V284.302C144.983 284.974 144.863 285.616 144.623 286.228C144.383 286.828 144.029 287.362 143.561 287.83C143.105 288.298 142.541 288.67 141.869 288.946C141.197 289.21 140.423 289.342 139.547 289.342ZM139.547 286.912C140.111 286.912 140.579 286.792 140.951 286.552C141.323 286.312 141.605 285.976 141.797 285.544C142.001 285.112 142.103 284.632 142.103 284.104C142.103 283.54 142.001 283.048 141.797 282.628C141.593 282.196 141.299 281.854 140.915 281.602C140.543 281.35 140.087 281.224 139.547 281.224C139.019 281.224 138.563 281.35 138.179 281.602C137.795 281.854 137.501 282.196 137.297 282.628C137.105 283.048 137.009 283.54 137.009 284.104C137.009 284.632 137.105 285.112 137.297 285.544C137.489 285.976 137.777 286.312 138.161 286.552C138.545 286.792 139.007 286.912 139.547 286.912ZM150.737 289.306C149.333 289.306 148.235 289.018 147.443 288.442C146.651 287.866 146.231 287.056 146.183 286.012H148.739C148.787 286.324 148.973 286.606 149.297 286.858C149.633 287.098 150.131 287.218 150.791 287.218C151.295 287.218 151.709 287.134 152.033 286.966C152.369 286.786 152.537 286.534 152.537 286.21C152.537 285.922 152.411 285.694 152.159 285.526C151.907 285.346 151.457 285.22 150.809 285.148L150.035 285.076C148.847 284.956 147.953 284.626 147.353 284.086C146.765 283.546 146.471 282.856 146.471 282.016C146.471 281.32 146.645 280.738 146.993 280.27C147.341 279.802 147.821 279.448 148.433 279.208C149.057 278.968 149.765 278.848 150.557 278.848C151.829 278.848 152.855 279.13 153.635 279.694C154.415 280.246 154.823 281.05 154.859 282.106H152.303C152.255 281.782 152.087 281.512 151.799 281.296C151.511 281.068 151.085 280.954 150.521 280.954C150.077 280.954 149.723 281.038 149.459 281.206C149.195 281.374 149.063 281.602 149.063 281.89C149.063 282.166 149.177 282.376 149.405 282.52C149.633 282.664 150.005 282.766 150.521 282.826L151.295 282.898C152.507 283.03 153.449 283.366 154.121 283.906C154.793 284.446 155.129 285.172 155.129 286.084C155.129 286.744 154.949 287.32 154.589 287.812C154.229 288.292 153.719 288.664 153.059 288.928C152.399 289.18 151.625 289.306 150.737 289.306ZM161.513 289.342C160.673 289.342 159.929 289.198 159.281 288.91C158.645 288.622 158.111 288.238 157.679 287.758C157.259 287.266 156.935 286.72 156.707 286.12C156.491 285.508 156.383 284.884 156.383 284.248V283.888C156.383 283.228 156.491 282.598 156.707 281.998C156.935 281.386 157.259 280.84 157.679 280.36C158.099 279.88 158.621 279.502 159.245 279.226C159.881 278.938 160.601 278.794 161.405 278.794C162.461 278.794 163.349 279.034 164.069 279.514C164.801 279.982 165.359 280.6 165.743 281.368C166.127 282.124 166.319 282.952 166.319 283.852V284.824H157.589V283.186H164.573L163.637 283.942C163.637 283.354 163.553 282.85 163.385 282.43C163.217 282.01 162.965 281.692 162.629 281.476C162.305 281.248 161.897 281.134 161.405 281.134C160.901 281.134 160.475 281.248 160.127 281.476C159.779 281.704 159.515 282.04 159.335 282.484C159.155 282.916 159.065 283.45 159.065 284.086C159.065 284.674 159.149 285.19 159.317 285.634C159.485 286.066 159.749 286.402 160.109 286.642C160.469 286.882 160.937 287.002 161.513 287.002C162.041 287.002 162.473 286.9 162.809 286.696C163.145 286.492 163.373 286.24 163.493 285.94H166.139C165.995 286.6 165.713 287.188 165.293 287.704C164.873 288.22 164.345 288.622 163.709 288.91C163.073 289.198 162.341 289.342 161.513 289.342ZM171.898 292.906V290.458H173.95C174.262 290.458 174.526 290.416 174.742 290.332C174.958 290.26 175.132 290.134 175.264 289.954C175.396 289.774 175.504 289.528 175.588 289.216L178.018 279.136H180.754L178 289.792C177.808 290.56 177.538 291.172 177.19 291.628C176.854 292.084 176.398 292.408 175.822 292.6C175.258 292.804 174.538 292.906 173.662 292.906H171.898ZM174.994 288.784V286.534H177.082V288.784H174.994ZM173.806 288.784L170.782 279.136H173.68L176.542 288.784H173.806ZM186.849 289.342C185.985 289.342 185.217 289.21 184.545 288.946C183.873 288.67 183.303 288.298 182.835 287.83C182.379 287.362 182.031 286.828 181.791 286.228C181.551 285.616 181.431 284.974 181.431 284.302V283.888C181.431 283.204 181.551 282.556 181.791 281.944C182.043 281.32 182.403 280.774 182.871 280.306C183.351 279.838 183.927 279.472 184.599 279.208C185.271 278.932 186.021 278.794 186.849 278.794C187.701 278.794 188.457 278.932 189.117 279.208C189.789 279.472 190.359 279.838 190.827 280.306C191.295 280.774 191.655 281.32 191.907 281.944C192.159 282.556 192.285 283.204 192.285 283.888V284.302C192.285 284.974 192.165 285.616 191.925 286.228C191.685 286.828 191.331 287.362 190.863 287.83C190.407 288.298 189.843 288.67 189.171 288.946C188.499 289.21 187.725 289.342 186.849 289.342ZM186.849 286.912C187.413 286.912 187.881 286.792 188.253 286.552C188.625 286.312 188.907 285.976 189.099 285.544C189.303 285.112 189.405 284.632 189.405 284.104C189.405 283.54 189.303 283.048 189.099 282.628C188.895 282.196 188.601 281.854 188.217 281.602C187.845 281.35 187.389 281.224 186.849 281.224C186.321 281.224 185.865 281.35 185.481 281.602C185.097 281.854 184.803 282.196 184.599 282.628C184.407 283.048 184.311 283.54 184.311 284.104C184.311 284.632 184.407 285.112 184.599 285.544C184.791 285.976 185.079 286.312 185.463 286.552C185.847 286.792 186.309 286.912 186.849 286.912ZM197.625 289.306C196.485 289.306 195.609 288.94 194.997 288.208C194.385 287.464 194.079 286.348 194.079 284.86V279.136H196.959V285.004C196.959 285.532 197.109 285.952 197.409 286.264C197.709 286.576 198.111 286.732 198.615 286.732C199.131 286.732 199.551 286.57 199.875 286.246C200.199 285.922 200.361 285.484 200.361 284.932V279.136H203.241V289H200.955V284.842H201.153C201.153 285.838 201.021 286.672 200.757 287.344C200.505 288.004 200.127 288.496 199.623 288.82C199.119 289.144 198.495 289.306 197.751 289.306H197.625ZM205.897 289V279.136H208.183V283.366H208.129C208.129 281.974 208.423 280.9 209.011 280.144C209.611 279.388 210.475 279.01 211.603 279.01H211.981V281.494H211.261C210.469 281.494 209.857 281.71 209.425 282.142C208.993 282.562 208.777 283.174 208.777 283.978V289H205.897ZM221.518 289.342C220.498 289.342 219.61 289.156 218.854 288.784C218.11 288.4 217.54 287.884 217.144 287.236C216.748 286.588 216.55 285.856 216.55 285.04H219.394C219.394 285.592 219.58 286.042 219.952 286.39C220.324 286.726 220.846 286.894 221.518 286.894C221.962 286.894 222.34 286.81 222.652 286.642C222.964 286.474 223.204 286.246 223.372 285.958C223.54 285.658 223.624 285.322 223.624 284.95C223.624 284.374 223.438 283.9 223.066 283.528C222.706 283.156 222.19 282.97 221.518 282.97C221.158 282.97 220.84 283.024 220.564 283.132C220.3 283.24 220.072 283.372 219.88 283.528L218.548 281.278L222.526 278.686L222.364 278.38H217.09V275.86H225.946V278.596L221.356 281.512L219.916 281.116C220.156 281.044 220.408 280.99 220.672 280.954C220.948 280.906 221.242 280.882 221.554 280.882C222.574 280.882 223.45 281.05 224.182 281.386C224.914 281.722 225.478 282.196 225.874 282.808C226.282 283.408 226.486 284.11 226.486 284.914V285.13C226.486 285.934 226.282 286.654 225.874 287.29C225.478 287.926 224.908 288.43 224.164 288.802C223.432 289.162 222.55 289.342 221.518 289.342ZM236.833 289.342C235.981 289.342 235.237 289.204 234.601 288.928C233.977 288.64 233.455 288.256 233.035 287.776C232.615 287.296 232.303 286.756 232.099 286.156C231.895 285.544 231.793 284.914 231.793 284.266V283.924C231.793 283.252 231.901 282.61 232.117 281.998C232.333 281.374 232.651 280.822 233.071 280.342C233.491 279.862 234.013 279.484 234.637 279.208C235.273 278.932 235.999 278.794 236.815 278.794C237.703 278.794 238.489 278.968 239.173 279.316C239.857 279.652 240.403 280.126 240.811 280.738C241.219 281.35 241.447 282.052 241.495 282.844H238.669C238.621 282.4 238.441 282.028 238.129 281.728C237.829 281.416 237.391 281.26 236.815 281.26C236.335 281.26 235.933 281.38 235.609 281.62C235.297 281.86 235.063 282.19 234.907 282.61C234.751 283.03 234.673 283.528 234.673 284.104C234.673 284.632 234.745 285.112 234.889 285.544C235.033 285.964 235.261 286.294 235.573 286.534C235.897 286.762 236.317 286.876 236.833 286.876C237.217 286.876 237.541 286.81 237.805 286.678C238.081 286.534 238.297 286.342 238.453 286.102C238.621 285.85 238.723 285.562 238.759 285.238H241.567C241.531 286.054 241.303 286.774 240.883 287.398C240.463 288.01 239.905 288.49 239.209 288.838C238.513 289.174 237.721 289.342 236.833 289.342ZM249.367 289V286.084H248.881V282.916C248.881 282.412 248.761 282.034 248.521 281.782C248.281 281.53 247.897 281.404 247.369 281.404C247.105 281.404 246.757 281.41 246.325 281.422C245.893 281.434 245.449 281.452 244.993 281.476C244.537 281.5 244.123 281.524 243.751 281.548V279.118C244.027 279.094 244.351 279.07 244.723 279.046C245.095 279.022 245.479 279.004 245.875 278.992C246.271 278.98 246.643 278.974 246.991 278.974C247.999 278.974 248.845 279.118 249.529 279.406C250.225 279.694 250.753 280.132 251.113 280.72C251.473 281.296 251.653 282.04 251.653 282.952V289H249.367ZM246.217 289.252C245.509 289.252 244.885 289.126 244.345 288.874C243.817 288.622 243.403 288.262 243.103 287.794C242.803 287.314 242.653 286.744 242.653 286.084C242.653 285.364 242.839 284.776 243.211 284.32C243.583 283.852 244.105 283.51 244.777 283.294C245.449 283.066 246.223 282.952 247.099 282.952H249.205V284.554H247.081C246.577 284.554 246.187 284.68 245.911 284.932C245.647 285.172 245.515 285.502 245.515 285.922C245.515 286.318 245.647 286.642 245.911 286.894C246.187 287.134 246.577 287.254 247.081 287.254C247.405 287.254 247.693 287.2 247.945 287.092C248.209 286.972 248.425 286.774 248.593 286.498C248.761 286.222 248.857 285.838 248.881 285.346L249.565 286.066C249.505 286.75 249.337 287.326 249.061 287.794C248.797 288.262 248.425 288.622 247.945 288.874C247.477 289.126 246.901 289.252 246.217 289.252ZM254.096 289V279.136H256.382V283.366H256.328C256.328 281.974 256.622 280.9 257.21 280.144C257.81 279.388 258.674 279.01 259.802 279.01H260.18V281.494H259.46C258.668 281.494 258.056 281.71 257.624 282.142C257.192 282.562 256.976 283.174 256.976 283.978V289H254.096ZM265.688 289.324C264.992 289.324 264.356 289.198 263.78 288.946C263.216 288.694 262.724 288.346 262.304 287.902C261.884 287.446 261.56 286.912 261.332 286.3C261.116 285.688 261.008 285.028 261.008 284.32V283.906C261.008 283.198 261.11 282.538 261.314 281.926C261.53 281.314 261.836 280.78 262.232 280.324C262.64 279.856 263.126 279.496 263.69 279.244C264.254 278.98 264.884 278.848 265.58 278.848C266.372 278.848 267.056 279.022 267.632 279.37C268.208 279.706 268.658 280.21 268.982 280.882C269.306 281.542 269.486 282.358 269.522 283.33L268.766 282.628V275.86H271.664V289H269.378V284.914H269.774C269.738 285.85 269.54 286.648 269.18 287.308C268.832 287.968 268.358 288.472 267.758 288.82C267.158 289.156 266.468 289.324 265.688 289.324ZM266.408 286.912C266.852 286.912 267.254 286.816 267.614 286.624C267.986 286.42 268.28 286.126 268.496 285.742C268.724 285.358 268.838 284.896 268.838 284.356V283.69C268.838 283.162 268.724 282.718 268.496 282.358C268.268 281.998 267.968 281.722 267.596 281.53C267.224 281.338 266.822 281.242 266.39 281.242C265.91 281.242 265.478 281.368 265.094 281.62C264.722 281.86 264.428 282.196 264.212 282.628C263.996 283.048 263.888 283.54 263.888 284.104C263.888 284.68 263.996 285.178 264.212 285.598C264.428 286.018 264.728 286.342 265.112 286.57C265.496 286.798 265.928 286.912 266.408 286.912ZM278.02 289.306C276.616 289.306 275.518 289.018 274.726 288.442C273.934 287.866 273.514 287.056 273.466 286.012H276.022C276.07 286.324 276.256 286.606 276.58 286.858C276.916 287.098 277.414 287.218 278.074 287.218C278.578 287.218 278.992 287.134 279.316 286.966C279.652 286.786 279.82 286.534 279.82 286.21C279.82 285.922 279.694 285.694 279.442 285.526C279.19 285.346 278.74 285.22 278.092 285.148L277.318 285.076C276.13 284.956 275.236 284.626 274.636 284.086C274.048 283.546 273.754 282.856 273.754 282.016C273.754 281.32 273.928 280.738 274.276 280.27C274.624 279.802 275.104 279.448 275.716 279.208C276.34 278.968 277.048 278.848 277.84 278.848C279.112 278.848 280.138 279.13 280.918 279.694C281.698 280.246 282.106 281.05 282.142 282.106H279.586C279.538 281.782 279.37 281.512 279.082 281.296C278.794 281.068 278.368 280.954 277.804 280.954C277.36 280.954 277.006 281.038 276.742 281.206C276.478 281.374 276.346 281.602 276.346 281.89C276.346 282.166 276.46 282.376 276.688 282.52C276.916 282.664 277.288 282.766 277.804 282.826L278.578 282.898C279.79 283.03 280.732 283.366 281.404 283.906C282.076 284.446 282.412 285.172 282.412 286.084C282.412 286.744 282.232 287.32 281.872 287.812C281.512 288.292 281.002 288.664 280.342 288.928C279.682 289.18 278.908 289.306 278.02 289.306Z" fill="#432D69"/>
<g filter="url(#filter0_dd_1255_43364)">
<rect x="20" y="726" width="335" height="52" rx="26" fill="#FAF9F6"/>
</g>
<path d="M67.999 744.488C69.3582 747.973 72.0261 750.64 75.5107 751.999C72.0259 753.358 69.3594 756.026 68 759.511C66.6405 756.026 63.9731 753.359 60.4883 752C63.9735 750.641 66.6397 747.973 67.999 744.488Z" stroke="#432D69" stroke-width="2"/>
<rect x="103" y="730" width="86" height="44" rx="22" fill="#815DEF"/>
<path d="M150.38 754.561C150.531 756.72 149.325 758.639 147.308 759.452C145.726 760.088 143.447 760.057 141.803 758.063C140.607 756.612 140.346 754.634 141.12 752.904C141.893 751.184 143.463 750.12 145.325 750.059C147.969 749.964 150.194 751.947 150.38 754.561Z" fill="#FAF9F6"/>
<path d="M157.709 750.895C157.594 749.515 156.753 748.225 155.517 747.523C154.387 746.883 153.104 746.923 151.972 746.958C151.687 746.968 151.414 746.975 151.145 746.975C151.138 746.93 151.131 746.883 151.124 746.833C151.046 746.302 150.955 745.694 150.651 745.155C150.178 744.317 149.318 743.792 148.297 743.716C147.357 743.648 146.378 743.679 145.431 743.709C144.588 743.735 143.715 743.764 142.903 743.716H142.858H142.816C141.518 743.801 140.489 744.605 140.136 745.812C140.052 746.096 140.014 746.377 139.981 746.628C139.964 746.746 139.95 746.857 139.931 746.963C139.614 746.97 139.289 746.963 138.95 746.956C138.533 746.947 138.104 746.937 137.671 746.956C135.267 747.077 133.49 748.747 133.349 751.018C133.24 752.76 133.295 754.596 133.349 756.373C133.377 757.344 133.408 758.351 133.41 759.31C133.41 760.071 133.591 760.785 133.933 761.373C134.658 762.614 135.967 763.412 137.438 763.505H137.462L153.707 763.498H153.763C154.703 763.42 155.56 763.039 156.238 762.439C156.914 761.839 157.41 761.023 157.625 760.078C157.683 759.816 157.712 759.532 157.712 759.211V750.893L157.709 750.895ZM147.833 760.768C147.049 761.083 146.241 761.236 145.45 761.236C143.651 761.236 141.933 760.444 140.715 758.968C139.171 757.096 138.834 754.549 139.833 752.323C140.817 750.13 142.903 748.721 145.278 748.641C145.349 748.641 145.422 748.641 145.492 748.641C148.812 748.641 151.555 751.155 151.788 754.464C151.986 757.25 150.432 759.724 147.833 760.771V760.768Z" fill="#FAF9F6"/>
<path d="M160 743C158.255 743 157 741.745 157 740C157 741.745 155.745 743 154 743C155.745 743 157 744.255 157 746C157 744.255 158.255 743 160 743Z" fill="#FAF9F6"/>
<path d="M235.926 761.026C235.313 761.026 234.647 760.804 233.979 760.371L234.746 759.18C235.332 759.561 235.878 759.695 236.246 759.551C236.432 759.478 236.559 759.334 236.618 759.121L239.464 743.015C239.469 742.981 239.476 742.946 239.478 742.911C239.497 742.556 239.415 742.48 239.375 742.443C239.339 742.412 239.276 742.384 239.193 742.369C235.252 741.604 231.318 740.93 226.953 740.193C226.861 740.176 226.777 740.186 226.72 740.214C226.647 740.252 226.52 740.328 226.506 740.427C226.44 740.829 226.369 741.542 226.303 742.232C226.233 742.955 226.164 743.641 226.098 744.033L224.707 743.792C224.766 743.449 224.834 742.762 224.9 742.093C224.971 741.382 225.041 740.644 225.117 740.198C225.204 739.664 225.552 739.219 226.094 738.948C226.421 738.782 226.802 738.73 227.193 738.796C231.568 739.536 235.511 740.21 239.469 740.978C239.806 741.044 240.105 741.188 240.331 741.393C240.75 741.774 240.933 742.296 240.896 742.989C240.891 743.071 240.882 743.161 240.863 743.258L237.997 759.447C237.828 760.109 237.378 760.626 236.766 760.868C236.505 760.969 236.225 761.021 235.933 761.021L235.926 761.026Z" fill="#432D69"/>
<path d="M220.999 764.599C220.281 764.599 219.641 764.081 219.511 763.349L216.533 746.696C216.385 745.871 216.933 745.08 217.755 744.933L230.532 742.632C231.354 742.483 232.142 743.033 232.288 743.858L235.267 760.511C235.337 760.91 235.25 761.314 235.019 761.647C234.789 761.981 234.443 762.203 234.045 762.276L221.268 764.578C221.178 764.594 221.089 764.601 220.999 764.601V764.599ZM230.798 744.024C230.798 744.024 230.786 744.024 230.779 744.024L218.002 746.325C217.948 746.335 217.91 746.389 217.92 746.443L220.898 763.096C220.907 763.15 220.959 763.188 221.016 763.179L233.793 760.877C233.847 760.868 233.885 760.813 233.875 760.759L230.897 744.106C230.888 744.057 230.845 744.024 230.798 744.024Z" fill="#432D69"/>
<path d="M229.709 752.301C227.552 752.707 225.708 751.448 225.301 749.292C225.708 751.448 224.449 753.293 222.292 753.699C224.448 753.293 226.293 754.552 226.699 756.709C226.293 754.552 227.552 752.708 229.709 752.301Z" fill="#432D69"/>
<path d="M319.597 741.152C320.874 741.018 322.099 741.422 322.502 742.788C323.01 744.517 321.875 747.006 321.054 748.513C320.828 748.927 319.771 750.413 319.728 750.668C319.728 750.668 319.885 751.576 319.902 751.916C320.158 757.217 316.114 761.446 310.966 761.139C310.659 761.12 310.003 760.903 309.761 760.962C309.443 761.04 307.517 762.455 306.947 762.753C305.415 763.552 302.247 764.866 301.003 763.027C299.759 761.189 301.113 758.502 301.978 756.841C302.243 756.33 303.151 754.983 303.407 754.501C303.407 754.501 303.274 753.542 303.256 753.178C302.998 747.873 307.041 743.648 312.192 743.955C312.498 743.974 313.155 744.191 313.397 744.132C313.61 744.08 314.637 743.282 314.952 743.095C316.288 742.31 318.056 741.313 319.595 741.15L319.597 741.152ZM319.691 742.717C318.227 742.88 316.496 743.983 315.268 744.789C316.926 745.751 318.166 747.029 319.096 748.743C319.89 747.601 321.473 744.652 321.068 743.293C320.876 742.648 320.233 742.66 319.691 742.719V742.717ZM310.897 745.548C304.891 746.122 302.588 754.076 307.277 758.013C307.64 758.318 308.944 759.164 309.365 759.187C309.612 759.202 310.074 758.767 310.298 758.597C311.142 757.949 312.084 757.096 312.857 756.359C314.73 754.57 316.546 752.498 318.01 750.345C317.063 747.204 314.063 745.243 310.895 745.548H310.897ZM311.579 759.577C315.277 759.62 318.429 756.368 318.387 752.549C316.324 755.106 314.053 757.45 311.579 759.577ZM304.059 756.359C302.808 758.344 299.8 763.838 304.791 761.995C305.184 761.851 307.887 760.522 307.887 760.31C306.229 759.348 304.99 758.07 304.059 756.356V756.359Z" fill="#432D69"/>
<path d="M310.895 747.11C311.48 747.044 312.308 746.987 312.34 747.816C312.377 748.731 311.677 748.549 311.162 748.655C309.202 749.059 308.198 750.097 307.805 752.122C307.716 752.583 307.898 753.232 307.169 753.329C305.794 753.509 306.336 751.363 306.611 750.598C307.256 748.804 309.037 747.315 310.892 747.11H310.895Z" fill="#432D69"/>
<path d="M314.488 747.88C315.574 747.745 315.647 749.303 314.737 749.423C313.669 749.565 313.516 748.001 314.488 747.88Z" fill="#432D69"/>
<path d="M300.523 746.226C299.201 746.226 298.124 745.113 298.124 743.747C298.124 742.381 299.201 741.268 300.523 741.268C301.845 741.268 302.922 742.381 302.922 743.747C302.922 745.113 301.845 746.226 300.523 746.226ZM300.523 742.688C299.956 742.688 299.496 743.163 299.496 743.749C299.496 744.335 299.956 744.81 300.523 744.81C301.09 744.81 301.55 744.335 301.55 743.749C301.55 743.163 301.09 742.688 300.523 742.688Z" fill="#432D69"/>
</g>
<defs>
<filter id="filter0_dd_1255_43364" x="16" y="723" width="343" height="60" filterUnits="userSpaceOnUse" color-interpolation-filters="sRGB">
<feFlood flood-opacity="0" result="BackgroundImageFix"/>
<feColorMatrix in="SourceAlpha" type="matrix" values="0 0 0 0 0 0 0 0 0 0 0 0 0 0 0 0 0 0 127 0" result="hardAlpha"/>
<feOffset dy="1"/>
<feGaussianBlur stdDeviation="2"/>
<feComposite in2="hardAlpha" operator="out"/>
<feColorMatrix type="matrix" values="0 0 0 0 0.0470588 0 0 0 0 0.0470588 0 0 0 0 0.0509804 0 0 0 0.05 0"/>
<feBlend mode="normal" in2="BackgroundImageFix" result="effect1_dropShadow_1255_43364"/>
<feColorMatrix in="SourceAlpha" type="matrix" values="0 0 0 0 0 0 0 0 0 0 0 0 0 0 0 0 0 0 127 0" result="hardAlpha"/>
<feOffset dy="1"/>
<feGaussianBlur stdDeviation="2"/>
<feComposite in2="hardAlpha" operator="out"/>
<feColorMatrix type="matrix" values="0 0 0 0 0.0470588 0 0 0 0 0.0470588 0 0 0 0 0.0509804 0 0 0 0.1 0"/>
<feBlend mode="normal" in2="effect1_dropShadow_1255_43364" result="effect2_dropShadow_1255_43364"/>
<feBlend mode="normal" in="SourceGraphic" in2="effect2_dropShadow_1255_43364" result="shape"/>
</filter>
<radialGradient id="paint0_radial_1255_43364" cx="0" cy="0" r="1" gradientUnits="userSpaceOnUse" gradientTransform="translate(7 -69) rotate(90) scale(388)">
<stop stop-color="#9978FF"/>
<stop offset="1" stop-color="#432D69" stop-opacity="0"/>
</radialGradient>
<linearGradient id="paint1_linear_1255_43364" x1="188" y1="812" x2="188" y2="665.029" gradientUnits="userSpaceOnUse">
<stop stop-color="#3E2C4D"/>
<stop offset="0.870192" stop-color="#3E2C4D" stop-opacity="0"/>
</linearGradient>
<clipPath id="clip0_1255_43364">
<rect width="375" height="812" fill="white"/>
</clipPath>
<clipPath id="clip1_1255_43364">
<rect width="35" height="58.9286" fill="white" transform="translate(320 64.2859)"/>
</clipPath>
</defs>
</svg>
