<svg width="95" height="156" viewBox="0 0 95 156" fill="none" xmlns="http://www.w3.org/2000/svg">
<mask id="mask0_1255_44640" style="mask-type:alpha" maskUnits="userSpaceOnUse" x="0" y="0" width="95" height="156">
<path d="M8 0.5H87C91.1421 0.5 94.5 3.85786 94.5 8V148C94.5 152.142 91.1421 155.5 87 155.5H8C3.85786 155.5 0.5 152.142 0.5 148V8L0.509766 7.61426C0.710536 3.65139 3.98724 0.5 8 0.5Z" fill="#FAF9F6" stroke="#815DEF"/>
</mask>
<g mask="url(#mask0_1255_44640)">
<rect x="50.8926" y="3.25" width="40.7143" height="40.0833" fill="#432D69"/>
<rect x="3.39258" y="3.25" width="40.7143" height="40.0833" fill="#432D69"/>
<rect x="3.39258" y="110.5" width="40.7143" height="42.25" fill="#432D69"/>
<rect x="50.8926" y="110.5" width="40.7143" height="42.25" fill="#432D69"/>
<path d="M82.547 51.4029L81.2389 52.0868L80.5201 53.3352L79.8014 52.0868L78.498 51.4029L79.8014 50.7236L80.5201 49.4751L81.2389 50.7236L82.547 51.4029Z" fill="#F9CF81"/>
<path d="M82.547 61.5423L81.2389 62.2262L80.5201 63.4746L79.8014 62.2262L78.498 61.5423L79.8014 60.863L80.5201 59.6145L81.2389 60.863L82.547 61.5423Z" fill="#F9CF81"/>
<path d="M82.547 71.6768L81.2389 72.3607L80.5201 73.6092L79.8014 72.3607L78.498 71.6768L79.8014 70.9975L80.5201 69.749L81.2389 70.9975L82.547 71.6768Z" fill="#F9CF81"/>
<path d="M82.547 82.4036L81.2389 83.0875L80.5201 84.336L79.8014 83.0875L78.498 82.4036L79.8014 81.7243L80.5201 80.4758L81.2389 81.7243L82.547 82.4036Z" fill="#F9CF81"/>
<path d="M82.547 92.5381L81.2389 93.222L80.5201 94.4705L79.8014 93.222L78.498 92.5381L79.8014 91.8588L80.5201 90.6104L81.2389 91.8588L82.547 92.5381Z" fill="#F9CF81"/>
<path d="M49.9689 14.6236L48.6608 15.3075L47.942 16.556L47.2233 15.3075L45.9199 14.6236L47.2233 13.9443L47.942 12.6958L48.6608 13.9443L49.9689 14.6236Z" fill="#F9CF81"/>
<path d="M49.9689 24.7583L48.6608 25.4422L47.942 26.6907L47.2233 25.4422L45.9199 24.7583L47.2233 24.079L47.942 22.8306L48.6608 24.079L49.9689 24.7583Z" fill="#F9CF81"/>
<path d="M49.9689 34.8975L48.6608 35.5814L47.942 36.8299L47.2233 35.5814L45.9199 34.8975L47.2233 34.2182L47.942 32.9697L48.6608 34.2182L49.9689 34.8975Z" fill="#F9CF81"/>
<path d="M49.9689 122.088L48.6608 122.772L47.942 124.021L47.2233 122.772L45.9199 122.088L47.2233 121.409L47.942 120.16L48.6608 121.409L49.9689 122.088Z" fill="#F9CF81"/>
<path d="M49.9689 132.223L48.6608 132.907L47.942 134.155L47.2233 132.907L45.9199 132.223L47.2233 131.543L47.942 130.295L48.6608 131.543L49.9689 132.223Z" fill="#F9CF81"/>
<path d="M49.9689 142.357L48.6608 143.041L47.942 144.29L47.2233 143.041L45.9199 142.357L47.2233 141.678L47.942 140.43L48.6608 141.678L49.9689 142.357Z" fill="#F9CF81"/>
<path d="M47.8941 68.2939C47.7549 68.2939 47.6157 68.2939 47.4766 68.2939C47.5678 68.2847 47.6637 68.2847 47.7549 68.2847C47.8029 68.2847 47.8461 68.2847 47.8941 68.2847V68.2939Z" fill="#F9CF81"/>
<path d="M47.89 88.1548C47.8468 88.1548 47.8036 88.1548 47.7604 88.1548C47.6404 88.1548 47.5253 88.1548 47.4053 88.1455C47.5685 88.1455 47.722 88.1548 47.89 88.1455V88.1548Z" fill="#F9CF81"/>
<path d="M47.4771 68.2987C47.3763 68.2987 47.2707 68.2987 47.1699 68.3079C47.2707 68.2987 47.3763 68.2941 47.4771 68.2987Z" fill="#F9CF81"/>
<path d="M16.9007 51.4029L15.5973 52.0868L14.8785 53.3352L14.1646 52.0868L12.8564 51.4029L14.1646 50.7236L14.8785 49.4751L15.5973 50.7236L16.9007 51.4029Z" fill="#F9CF81"/>
<path d="M16.9007 61.5423L15.5973 62.2262L14.8785 63.4746L14.1646 62.2262L12.8564 61.5423L14.1646 60.863L14.8785 59.6145L15.5973 60.863L16.9007 61.5423Z" fill="#F9CF81"/>
<path d="M16.9007 71.6768L15.5973 72.3607L14.8785 73.6092L14.1646 72.3607L12.8564 71.6768L14.1646 70.9975L14.8785 69.749L15.5973 70.9975L16.9007 71.6768Z" fill="#F9CF81"/>
<path d="M16.9007 82.4036L15.5973 83.0875L14.8785 84.336L14.1646 83.0875L12.8564 82.4036L14.1646 81.7243L14.8785 80.4758L15.5973 81.7243L16.9007 82.4036Z" fill="#F9CF81"/>
<path d="M16.9007 92.5381L15.5973 93.222L14.8785 94.4705L14.1646 93.222L12.8564 92.5381L14.1646 91.8588L14.8785 90.6104L15.5973 91.8588L16.9007 92.5381Z" fill="#F9CF81"/>
<path d="M16.9007 102.677L15.5973 103.361L14.8785 104.61L14.1646 103.361L12.8564 102.677L14.1646 101.998L14.8785 100.75L15.5973 101.998L16.9007 102.677Z" fill="#F9CF81"/>
<path d="M82.547 102.677L81.2389 103.361L80.5201 104.61L79.8014 103.361L78.498 102.677L79.8014 101.998L80.5201 100.75L81.2389 101.998L82.547 102.677Z" fill="#F9CF81"/>
<path d="M4.97913 100.924L4.96954 52.6008L4.95996 33.4653L10.2165 36.4029L10.1015 36.5957V116.447L10.2213 116.64L4.98871 119.555L4.98392 110.159L4.97913 100.924Z" fill="#643EDE"/>
<path d="M90.5397 52.5779L90.554 100.901V110.136L90.5588 119.642L85.1777 116.635L85.2927 116.447V36.5957L85.1777 36.4075L90.5349 33.4194L90.5397 52.5779Z" fill="#643EDE"/>
<path d="M75.3546 125.962C79.0585 126.283 81.9527 129.253 81.948 132.87C81.9336 136.693 78.68 139.787 74.6741 139.773C72.3022 139.773 70.2083 138.676 68.8857 137.001C69.1014 137.024 69.3218 137.037 69.5422 137.037C73.5529 137.047 76.8017 133.953 76.8112 130.13C76.8112 128.564 76.265 127.128 75.3498 125.962H75.3546Z" fill="#F9CF81"/>
<path d="M26.772 137.037C26.9924 137.037 27.2128 137.024 27.4284 137.001C26.1059 138.681 24.0071 139.773 21.64 139.773C17.6294 139.787 14.3806 136.693 14.3662 132.87C14.3662 129.253 17.2604 126.279 20.9596 125.962C20.0396 127.128 19.4933 128.564 19.4981 130.13C19.5077 133.953 22.7613 137.047 26.7672 137.037H26.772Z" fill="#F9CF81"/>
<path d="M26.772 24.8912C26.9924 24.8912 27.2128 24.8775 27.4284 24.8545C26.1059 26.5344 24.0071 27.6268 21.64 27.6268C17.6294 27.6406 14.3806 24.547 14.3662 20.7236C14.3662 17.1067 17.2604 14.137 20.9596 13.8157C20.0396 14.9815 19.4933 16.4182 19.4981 17.9834C19.5077 21.8068 22.7613 24.9004 26.7672 24.8912H26.772Z" fill="#F9CF81"/>
<path d="M75.3546 13.8157C79.0585 14.1416 81.9527 17.1067 81.948 20.7236C81.9336 24.547 78.68 27.6406 74.6741 27.6268C72.3022 27.6268 70.2083 26.5298 68.8857 24.8545C69.1014 24.8775 69.3218 24.8912 69.5422 24.8912C73.5529 24.9004 76.8017 21.8068 76.8112 17.9834C76.8112 16.4182 76.265 14.9815 75.3498 13.8157H75.3546Z" fill="#F9CF81"/>
<path d="M90.5303 16.9965V12.9619C90.5638 12.9619 90.5878 12.9619 90.6213 12.9619C91.7905 12.9619 92.7393 13.8661 92.744 14.9815C92.744 16.0969 91.8001 17.0057 90.6261 17.0057C90.5926 17.0057 90.559 17.0057 90.5303 17.0057V16.9965Z" fill="#F9CF81"/>
<path d="M90.5591 123.006V127.041C89.4331 126.995 88.5322 126.109 88.5322 125.026C88.5322 123.942 89.4283 123.052 90.5591 123.006Z" fill="#F9CF81"/>
<path d="M81.0235 151.693H85.2593C85.2593 152.809 84.3154 153.713 83.1414 153.718C81.9722 153.718 81.0187 152.809 81.0235 151.693Z" fill="#F9CF81"/>
<path d="M4.98828 123.029C6.11433 123.07 7.01997 123.947 7.01517 125.044C7.01517 126.127 6.11912 127.018 4.98828 127.059V123.029Z" fill="#F9CF81"/>
<path d="M10.3027 151.716H14.5434C14.5434 152.827 13.5994 153.736 12.4255 153.736C11.2515 153.736 10.3027 152.827 10.3027 151.716Z" fill="#F9CF81"/>
<path d="M4.95508 12.9805C6.08592 13.031 6.98676 13.9122 6.98197 15C6.98197 16.0879 6.08592 16.9737 4.95508 17.015V12.9805Z" fill="#F9CF81"/>
<path d="M4.85915 12.9757C4.89269 12.9757 4.92623 12.9757 4.95498 12.9757V17.0103C4.92623 17.0103 4.89269 17.0103 4.85915 17.0103C3.68997 17.0103 2.746 16.1061 2.74121 14.9907C2.74121 13.8754 3.68518 12.9666 4.85915 12.9666V12.9757Z" fill="#8361EF"/>
<path d="M23.9883 4.43384H28.2289C28.2289 5.5492 27.285 6.45801 26.111 6.45801C24.9418 6.45801 23.9883 5.5492 23.9883 4.43384Z" fill="#8361EF"/>
<path d="M67.252 4.42017H71.4926C71.4926 5.53553 70.5439 6.44434 69.3699 6.44434C68.2007 6.44434 67.2472 5.53553 67.252 4.42017Z" fill="#8361EF"/>
<path d="M90.2408 13V17.0346C89.1099 16.9887 88.2091 16.1028 88.2139 15.0196C88.2139 13.9318 89.1099 13.0459 90.2408 13Z" fill="#8361EF"/>
<path d="M83.1414 149.669C84.3105 149.669 85.2641 150.573 85.2593 151.693H81.0234C81.0234 150.578 81.9674 149.674 83.1414 149.669Z" fill="#8361EF"/>
<path d="M67.29 151.698H71.5307C71.5307 152.813 70.5867 153.722 69.4128 153.718C68.2436 153.718 67.29 152.813 67.29 151.698Z" fill="#8361EF"/>
<path d="M24.0312 151.712H28.2767C28.2767 152.827 27.3279 153.731 26.154 153.731C24.98 153.731 24.036 152.822 24.0312 151.712Z" fill="#8361EF"/>
<path d="M14.5385 151.712H10.2979C10.2979 150.601 11.2418 149.692 12.4158 149.692C13.5898 149.692 14.5385 150.596 14.5385 151.712Z" fill="#8361EF"/>
<path d="M90.5645 127.041V123.006C90.5932 123.006 90.622 123.006 90.6507 123.006C91.8199 123.006 92.7734 123.91 92.7734 125.026C92.7734 126.141 91.8247 127.05 90.6507 127.05C90.6172 127.05 90.5932 127.05 90.5645 127.05V127.041Z" fill="#8361EF"/>
<path d="M90.4766 127.821V122.417C90.506 122.417 90.5354 122.417 90.5649 122.417C91.7621 122.417 92.7385 123.628 92.7385 125.122C92.7385 126.616 91.767 127.833 90.5649 127.833C90.5305 127.833 90.506 127.833 90.4766 127.833V127.821Z" fill="#8361EF"/>
<path d="M4.52372 122.435V127.833C4.47231 127.833 4.43559 127.833 4.38418 127.833C2.59228 127.833 1.13086 126.616 1.13086 125.128C1.13086 123.628 2.58494 122.417 4.38418 122.417C4.43559 122.417 4.47231 122.417 4.52372 122.429V122.435Z" fill="#8361EF"/>
<path d="M83.0984 6.43975C81.9292 6.43975 80.9853 5.53553 80.9805 4.42017H85.2211C85.2116 5.53094 84.2676 6.43975 83.0936 6.43975H83.0984Z" fill="#643EDE"/>
<path d="M12.2966 6.43975C11.1275 6.43975 10.1835 5.53553 10.1787 4.42017H14.4194C14.4098 5.53094 13.4658 6.43975 12.2919 6.43975H12.2966Z" fill="#643EDE"/>
<path d="M69.4128 149.674C70.5819 149.674 71.5355 150.583 71.5307 151.698H67.29C67.29 150.583 68.2388 149.674 69.4128 149.674Z" fill="#643EDE"/>
<path d="M28.2767 151.712H24.0312C24.0312 150.597 24.98 149.688 26.1492 149.688C27.3184 149.688 28.2719 150.597 28.2767 151.712Z" fill="#643EDE"/>
<path d="M70.1077 78.1257C70.1077 78.1257 64.6979 88.1593 48.1617 88.1593C48.0707 88.1593 47.9796 88.1593 47.8838 88.1593C53.5763 88.0997 58.1716 83.6795 58.1716 78.2312C58.1716 72.783 53.5763 68.3628 47.8934 68.2986C47.9796 68.2986 48.0659 68.2986 48.1569 68.2986C62.7237 68.2986 70.1077 78.1349 70.1077 78.1349V78.1257Z" fill="#FAF9F6"/>
<path d="M47.1703 68.3076C41.6934 68.5968 37.3473 72.9297 37.3473 78.2265C37.3473 83.5233 41.7173 87.8746 47.2086 88.1454C31.3912 87.769 25.4111 78.1255 25.4111 78.1255C25.4111 78.1255 33.2264 68.7345 47.1751 68.3076H47.1703Z" fill="#FAF9F6"/>
<path d="M19.5221 76.519V111.449L10.2214 116.635L10.1016 116.442V36.5956L10.2166 36.4028L19.5221 41.5941V76.519ZM15.5977 52.0867L16.901 51.4028L15.5977 50.7235L14.8789 49.475L14.1601 50.7235L12.852 51.4028L14.1601 52.0867L14.8789 53.3352L15.5977 52.0867ZM15.5977 62.2259L16.901 61.542L15.5977 60.8627L14.8789 59.6142L14.1601 60.8627L12.852 61.542L14.1601 62.2259L14.8789 63.4744L15.5977 62.2259ZM15.5977 72.3605L16.901 71.6766L15.5977 70.9973L14.8789 69.7489L14.1601 70.9973L12.852 71.6766L14.1601 72.3605L14.8789 73.609L15.5977 72.3605ZM15.5977 83.0873L16.901 82.4034L15.5977 81.724L14.8789 80.4756L14.1601 81.724L12.852 82.4034L14.1601 83.0873L14.8789 84.3357L15.5977 83.0873ZM15.5977 93.2219L16.901 92.538L15.5977 91.8587L14.8789 90.6102L14.1601 91.8587L12.852 92.538L14.1601 93.2219L14.8789 94.4703L15.5977 93.2219ZM15.5977 103.361L16.901 102.677L15.5977 101.998L14.8789 100.749L14.1601 101.998L12.852 102.677L14.1601 103.361L14.8789 104.61L15.5977 103.361Z" fill="#8361EF"/>
<path d="M85.2927 36.5957V116.447L85.1777 116.635L75.877 111.453V41.5941L85.1777 36.4075L85.2927 36.5957ZM81.2389 52.0868L82.547 51.4029L81.2389 50.7235L80.5201 49.4751L79.8014 50.7235L78.498 51.4029L79.8014 52.0868L80.5201 53.3352L81.2389 52.0868ZM81.2389 62.226L82.547 61.5421L81.2389 60.8628L80.5201 59.6143L79.8014 60.8628L78.498 61.5421L79.8014 62.226L80.5201 63.4744L81.2389 62.226ZM81.2389 72.3606L82.547 71.6767L81.2389 70.9974L80.5201 69.7489L79.8014 70.9974L78.498 71.6767L79.8014 72.3606L80.5201 73.609L81.2389 72.3606ZM81.2389 83.0873L82.547 82.4034L81.2389 81.7241L80.5201 80.4756L79.8014 81.7241L78.498 82.4034L79.8014 83.0873L80.5201 84.3358L81.2389 83.0873ZM81.2389 93.2219L82.547 92.538L81.2389 91.8587L80.5201 90.6102L79.8014 91.8587L78.498 92.538L79.8014 93.2219L80.5201 94.4704L81.2389 93.2219ZM81.2389 103.361L82.547 102.677L81.2389 101.998L80.5201 100.749L79.8014 101.998L78.498 102.677L79.8014 103.361L80.5201 104.61L81.2389 103.361Z" fill="#8361EF"/>
<path d="M47.8931 68.2939C53.5809 68.3582 58.1714 72.7829 58.1714 78.2266C58.1714 83.6703 53.5713 88.095 47.8836 88.1547C47.7159 88.1547 47.5625 88.1547 47.3996 88.1547C47.3373 88.1547 47.2702 88.1547 47.2031 88.1547C41.7118 87.8839 37.3418 83.5464 37.3418 78.2358C37.3418 72.9252 41.6927 68.6061 47.1648 68.3169C47.2654 68.3169 47.3708 68.3077 47.4715 68.3077C47.6104 68.3077 47.7494 68.3077 47.8884 68.3077L47.8931 68.2939ZM52.5986 78.2266C52.5986 75.6746 50.4327 73.6091 47.759 73.6091C45.0852 73.6091 42.9193 75.6792 42.9193 78.2266C42.9193 80.774 45.0852 82.8441 47.759 82.8441C50.4327 82.8441 52.5986 80.774 52.5986 78.2266Z" fill="#432D69"/>
<path d="M75.8768 76.5193V111.449L55.2197 151.689V151.698H40.1785V151.689L19.5215 111.449V41.5943L42.4019 4.72779V4.42944H52.9964V4.72779L75.8768 41.5943V76.5193ZM48.1615 88.1594C64.6977 88.1594 70.1076 78.1258 70.1076 78.1258C70.1076 78.1258 62.7235 68.2895 48.1567 68.2895C48.0705 68.2895 47.9842 68.2895 47.8932 68.2895C47.8453 68.2895 47.8022 68.2895 47.7542 68.2895C47.6632 68.2895 47.5674 68.2895 47.4763 68.2987C47.3757 68.2987 47.2703 68.2987 47.1697 68.3078C33.2258 68.7347 25.4057 78.1258 25.4057 78.1258C25.4057 78.1258 31.3858 87.7692 47.2032 88.1456C47.2703 88.1456 47.3374 88.1456 47.3997 88.1456C47.5194 88.1548 47.6344 88.1548 47.7542 88.1548C47.7974 88.1548 47.8405 88.1548 47.8836 88.1548C47.9747 88.1548 48.0657 88.1548 48.1615 88.1548V88.1594ZM48.6599 15.3076L49.968 14.6237L48.6599 13.9444L47.9411 12.696L47.2224 13.9444L45.919 14.6237L47.2224 15.3076L47.9411 16.5561L48.6599 15.3076ZM48.6599 25.4423L49.968 24.7584L48.6599 24.079L47.9411 22.8306L47.2224 24.079L45.919 24.7584L47.2224 25.4423L47.9411 26.6907L48.6599 25.4423ZM48.6599 35.5815L49.968 34.8976L48.6599 34.2182L47.9411 32.9698L47.2224 34.2182L45.919 34.8976L47.2224 35.5815L47.9411 36.8299L48.6599 35.5815ZM48.6599 122.772L49.968 122.088L48.6599 121.409L47.9411 120.161L47.2224 121.409L45.919 122.088L47.2224 122.772L47.9411 124.021L48.6599 122.772ZM48.6599 132.907L49.968 132.223L48.6599 131.544L47.9411 130.295L47.2224 131.544L45.919 132.223L47.2224 132.907L47.9411 134.155L48.6599 132.907ZM48.6599 143.041L49.968 142.358L48.6599 141.678L47.9411 140.43L47.2224 141.678L45.919 142.358L47.2224 143.041L47.9411 144.29L48.6599 143.041Z" fill="#815DEF"/>
<path d="M47.7595 82.8441C50.4324 82.8441 52.5992 80.7768 52.5992 78.2266C52.5992 75.6765 50.4324 73.6091 47.7595 73.6091C45.0867 73.6091 42.9199 75.6765 42.9199 78.2266C42.9199 80.7768 45.0867 82.8441 47.7595 82.8441Z" fill="#432D69"/>
<path d="M95.3414 0H60.7117L60.5057 0.215728H35.3684L35.1575 0H0.254701L0.245117 29.2242L0.546995 28.9764V29.339L4.95537 25.3687V25.3549V16.9966C4.92662 16.9966 4.89308 16.9966 4.86433 16.9966C3.69515 16.9966 2.74639 16.0924 2.74639 14.9724C2.74639 14.8347 2.76077 14.7016 2.78952 14.5731C2.99077 13.6597 3.8389 12.9712 4.85954 12.9712C4.89308 12.9712 4.92183 12.9712 4.95537 12.9712V12.9529L5.65497 9.20833C5.65497 9.13489 6.78592 7.58333 7.3514 7.04167C7.3514 7.04167 8.48235 5.95833 8.77733 5.76957L9.6133 5.41667H10.1788C10.1788 4.875 10.5143 5.1963 10.7443 4.875C10.7826 4.82451 11.2714 4.92549 11.3097 4.875C11.3529 4.8291 11.8273 4.91631 11.8752 4.875C11.8239 4.94334 11.9638 4.42013 12.5484 4.42013C13.7128 4.42013 14.4667 4.42013 14.4957 4.42013H23.9833C23.9833 4.42013 23.9833 4.41095 23.9833 4.40636H24.012C24.012 4.42013 24.1241 4.64545 24.8812 4.33333C25.4466 4.33333 25.7294 4.33333 26.0121 4.33333C27.1813 4.33333 28.274 4.42013 28.2191 4.42013H32.6083L63.6299 4.40636H67.238H67.3195C67.4562 4.40636 68.4086 4.36087 69.5538 4.33333C70.7134 4.34251 71.4835 4.40636 71.4835 4.40636H77.0131H81.0669C81.0669 4.40636 81.3954 4.88418 82.5597 4.875C83.6906 4.91631 83.6907 4.875 84.2562 4.875L84.8216 5.41667L87.649 7.04167C88.4636 7.05085 89.9109 11.141 89.9109 11.9167L90.521 12.9391C90.5545 12.9391 90.5785 12.9391 90.612 12.9391H90.6216V12.9483C90.6216 12.9483 90.6599 12.9483 90.6791 12.9483C91.8195 12.985 92.7299 13.8663 92.7299 14.9633C92.7299 16.0786 91.786 16.9874 90.612 16.9874C90.5785 16.9874 90.5497 16.9874 90.521 16.9874V25.3365L94.9341 29.3115V28.9856L95.3318 29.3206V0H95.3414Z" fill="#643EDE"/>
<path d="M90.4769 110.154H90.4673V123.02C90.496 123.02 90.5296 123.02 90.5583 123.02C91.7275 123.02 92.681 123.924 92.681 125.04C92.681 126.155 91.7275 127.064 90.5583 127.064C90.5296 127.064 90.1684 127.064 90.1396 127.064L90.3124 135.417L90.405 137.621L90.3124 143.542C90.3124 144.327 88.314 148.958 87.4851 148.958L85.7296 150.28L83.5267 151.125L80.8647 151.716C80.8647 151.716 80.8647 151.707 80.8647 151.703H74.0892H71.3675V151.712H67.1316V151.703H63.4804L32.4588 151.712H28.1127H23.8721H18.3904L12.8422 151.667C10.5803 151.125 5.49101 150.583 4.71003 143L4.83461 137.644L4.80107 137.671L4.82982 137.644V127.059C4.82982 127.059 4.81066 127.059 4.80107 127.059C4.77232 127.059 4.73878 127.059 4.71003 127.059C4.57107 127.059 4.4369 127.045 4.30273 127.018C3.3396 126.83 2.61605 126.017 2.61126 125.04C2.61126 123.924 3.56002 123.015 4.73878 123.02C4.77232 123.02 4.79628 123.02 4.82503 123.02L4.80107 109.1L4.80162 109.417L0.411865 105.698V105.9L0.0908203 105.587L0.100404 156.123H95.1823L95.1919 105.693L90.4864 110.145L90.4769 110.154Z" fill="#643EDE"/>
<path d="M94.9621 96.8249V96.4531L90.5633 100.901H90.5537V100.905L90.5585 110.14H90.5681L90.6304 110.076V110.154H90.64L95.3406 105.702V96.4669L94.9621 96.8249Z" fill="#8361EF"/>
<path d="M96.1031 75.05C93.7465 74.0752 93.6676 72.1162 93.6676 70.2896V56.1125C93.4872 54.4704 93.194 51.9672 90.5837 52.0003C90.5499 52.0003 90.516 52.0003 90.4766 52.0003L90.4935 101.819H90.5048L90.5837 101.748V101.833H90.595L96.1313 97.248V75.0548H96.1088L96.1031 75.05Z" fill="#F9CF81"/>
<path d="M90.6306 25.3548L90.4756 25.2683L90.4758 52.5416C92.6896 52.4957 93.0073 54.9692 93.1606 56.5665V64.5484C93.1606 66.467 93.1606 68.3902 93.1606 70.3134C93.1606 72.0897 92.9306 73.9854 94.9335 74.9309H94.9479V74.7427C95.0629 74.8116 95.1875 74.8804 95.3169 74.9401H95.336V29.3297L90.6258 25.3548H90.6306Z" fill="#8361EF"/>
<path d="M4.97454 100.929L0.566162 96.4717V96.6645L0.245117 96.3569V105.597L4.95537 110.154H4.96016V110.15L4.97454 110.164H4.97933V100.929H4.97454Z" fill="#8361EF"/>
<path d="M4.97933 100.929L4.96495 52.601C4.96495 52.601 4.96495 52.601 4.96016 52.601V52.5826C2.7416 52.5505 2.49243 54.9785 2.33909 56.5713V70.3228C2.33909 72.0945 2.27201 73.8892 0.269076 74.8347H0.245117V96.357L4.95537 100.91L4.96974 100.924L4.97933 100.929Z" fill="#F9CF81"/>
<path d="M4.96495 52.6009V35.6043L4.96016 25.355L0.245117 29.2243V74.8347H0.264284C0.369702 74.7842 0.460744 74.7337 0.556578 74.6786V74.954H0.575745C2.57868 74.0039 2.35347 72.1083 2.35347 70.3319C2.35347 68.4133 2.35347 66.4901 2.35347 64.567C2.35347 61.914 2.35347 59.2472 2.34389 56.5896C2.50201 54.9923 2.7416 52.5688 4.96495 52.6009Z" fill="#8361EF"/>
<rect x="4.77441" y="4.58325" width="85.4524" height="146.833" rx="7.75" stroke="#432D69" stroke-width="0.5"/>
<path d="M8 0.5H87C91.1421 0.5 94.5 3.85786 94.5 8V148C94.5 152.142 91.1421 155.5 87 155.5H8C3.85786 155.5 0.5 152.142 0.5 148V8L0.509766 7.61426C0.710536 3.65139 3.98724 0.5 8 0.5Z" stroke="#432D69"/>
</g>
</svg>
