<svg width="94" height="156" viewBox="0 0 94 156" fill="none" xmlns="http://www.w3.org/2000/svg">
<rect x="0.5" y="0.5" width="93" height="155" rx="7.5" fill="#FAF9F6" stroke="#815DEF"/>
<path d="M27.8474 138.228C27.2154 138.228 26.6594 138.104 26.1794 137.856C25.6994 137.608 25.3274 137.244 25.0634 136.764C24.7994 136.284 24.6674 135.696 24.6674 135V134.616H26.3594V135.144C26.3594 135.608 26.4954 135.976 26.7674 136.248C27.0394 136.512 27.3954 136.644 27.8354 136.644C28.2834 136.644 28.6394 136.512 28.9034 136.248C29.1754 135.976 29.3114 135.608 29.3114 135.144V130.5H31.0154V135C31.0154 135.696 30.8834 136.284 30.6194 136.764C30.3554 137.244 29.9874 137.608 29.5154 137.856C29.0434 138.104 28.4874 138.228 27.8474 138.228ZM25.7354 130.74V129.24H31.0154V130.74H25.7354ZM35.2346 138.204C34.4826 138.204 33.8986 137.956 33.4826 137.46C33.0746 136.964 32.8706 136.228 32.8706 135.252V131.472H34.5386V135.396C34.5386 135.796 34.6506 136.116 34.8746 136.356C35.0986 136.588 35.4026 136.704 35.7866 136.704C36.1706 136.704 36.4826 136.58 36.7226 136.332C36.9706 136.084 37.0946 135.748 37.0946 135.324V131.472H38.7626V138H37.4426V135.228H37.5746C37.5746 135.884 37.4906 136.432 37.3226 136.872C37.1546 137.312 36.9026 137.644 36.5666 137.868C36.2306 138.092 35.8106 138.204 35.3066 138.204H35.2346ZM43.1627 138.204C42.2667 138.204 41.5627 138.016 41.0507 137.64C40.5467 137.256 40.2827 136.728 40.2587 136.056H41.7587C41.7827 136.28 41.9067 136.484 42.1307 136.668C42.3547 136.852 42.7067 136.944 43.1867 136.944C43.5867 136.944 43.9027 136.872 44.1347 136.728C44.3747 136.584 44.4947 136.388 44.4947 136.14C44.4947 135.924 44.4027 135.752 44.2187 135.624C44.0427 135.496 43.7387 135.412 43.3067 135.372L42.7307 135.312C42.0027 135.232 41.4427 135.024 41.0507 134.688C40.6587 134.352 40.4627 133.904 40.4627 133.344C40.4627 132.896 40.5747 132.52 40.7987 132.216C41.0227 131.912 41.3307 131.684 41.7227 131.532C42.1227 131.372 42.5787 131.292 43.0907 131.292C43.8907 131.292 44.5387 131.468 45.0347 131.82C45.5307 132.172 45.7907 132.688 45.8147 133.368H44.3147C44.2987 133.144 44.1867 132.952 43.9787 132.792C43.7707 132.632 43.4707 132.552 43.0787 132.552C42.7267 132.552 42.4547 132.62 42.2627 132.756C42.0707 132.892 41.9747 133.068 41.9747 133.284C41.9747 133.492 42.0507 133.652 42.2027 133.764C42.3627 133.876 42.6187 133.952 42.9707 133.992L43.5467 134.052C44.3147 134.132 44.9147 134.344 45.3467 134.688C45.7867 135.032 46.0067 135.496 46.0067 136.08C46.0067 136.512 45.8867 136.888 45.6467 137.208C45.4147 137.52 45.0867 137.764 44.6627 137.94C44.2387 138.116 43.7387 138.204 43.1627 138.204ZM50.3366 138.084C49.7366 138.084 49.2406 138.008 48.8486 137.856C48.4646 137.696 48.1766 137.432 47.9846 137.064C47.7926 136.688 47.6966 136.184 47.6966 135.552L47.7086 129.648H49.2686L49.2566 135.66C49.2566 135.98 49.3406 136.228 49.5086 136.404C49.6846 136.572 49.9326 136.656 50.2526 136.656H51.2726V138.084H50.3366ZM46.6646 132.708V131.484H51.2726V132.708H46.6646ZM53.1046 138V131.484H54.7726V138H53.1046ZM52.1926 132.732V131.484H54.7726V132.732H52.1926ZM53.7166 130.704C53.3886 130.704 53.1446 130.62 52.9846 130.452C52.8326 130.276 52.7566 130.06 52.7566 129.804C52.7566 129.532 52.8326 129.312 52.9846 129.144C53.1446 128.976 53.3886 128.892 53.7166 128.892C54.0446 128.892 54.2846 128.976 54.4366 129.144C54.5886 129.312 54.6646 129.532 54.6646 129.804C54.6646 130.06 54.5886 130.276 54.4366 130.452C54.2846 130.62 54.0446 130.704 53.7166 130.704ZM59.707 138.228C59.139 138.228 58.647 138.132 58.231 137.94C57.823 137.748 57.479 137.492 57.199 137.172C56.927 136.852 56.723 136.492 56.587 136.092C56.451 135.692 56.383 135.284 56.383 134.868V134.64C56.383 134.2 56.451 133.78 56.587 133.38C56.731 132.972 56.943 132.612 57.223 132.3C57.503 131.98 57.847 131.728 58.255 131.544C58.671 131.352 59.151 131.256 59.695 131.256C60.263 131.256 60.771 131.368 61.219 131.592C61.667 131.808 62.023 132.112 62.287 132.504C62.559 132.896 62.711 133.352 62.743 133.872H61.123C61.083 133.536 60.939 133.256 60.691 133.032C60.451 132.808 60.119 132.696 59.695 132.696C59.327 132.696 59.019 132.784 58.771 132.96C58.531 133.136 58.351 133.38 58.231 133.692C58.111 133.996 58.051 134.348 58.051 134.748C58.051 135.132 58.107 135.48 58.219 135.792C58.339 136.104 58.519 136.348 58.759 136.524C59.007 136.7 59.323 136.788 59.707 136.788C59.995 136.788 60.243 136.736 60.451 136.632C60.659 136.528 60.823 136.384 60.943 136.2C61.071 136.016 61.151 135.808 61.183 135.576H62.803C62.771 136.104 62.615 136.568 62.335 136.968C62.063 137.36 61.699 137.668 61.243 137.892C60.795 138.116 60.283 138.228 59.707 138.228ZM67.1752 138.228C66.6152 138.228 66.1232 138.132 65.6992 137.94C65.2832 137.748 64.9352 137.492 64.6552 137.172C64.3832 136.844 64.1752 136.48 64.0312 136.08C63.8952 135.68 63.8272 135.272 63.8272 134.856V134.628C63.8272 134.196 63.8952 133.78 64.0312 133.38C64.1752 132.972 64.3832 132.612 64.6552 132.3C64.9352 131.98 65.2792 131.728 65.6872 131.544C66.0952 131.352 66.5672 131.256 67.1032 131.256C67.8072 131.256 68.3952 131.412 68.8672 131.724C69.3472 132.028 69.7072 132.432 69.9472 132.936C70.1872 133.432 70.3072 133.968 70.3072 134.544V135.144H64.5352V134.124H69.2632L68.7472 134.628C68.7472 134.212 68.6872 133.856 68.5672 133.56C68.4472 133.264 68.2632 133.036 68.0152 132.876C67.7752 132.716 67.4712 132.636 67.1032 132.636C66.7352 132.636 66.4232 132.72 66.1672 132.888C65.9112 133.056 65.7152 133.3 65.5792 133.62C65.4512 133.932 65.3872 134.308 65.3872 134.748C65.3872 135.156 65.4512 135.52 65.5792 135.84C65.7072 136.152 65.9032 136.4 66.1672 136.584C66.4312 136.76 66.7672 136.848 67.1752 136.848C67.5832 136.848 67.9152 136.768 68.1712 136.608C68.4272 136.44 68.5912 136.236 68.6632 135.996H70.1992C70.1032 136.444 69.9192 136.836 69.6472 137.172C69.3752 137.508 69.0272 137.768 68.6032 137.952C68.1872 138.136 67.7112 138.228 67.1752 138.228Z" fill="#432D69"/>
<mask id="mask0_1255_44642" style="mask-type:alpha" maskUnits="userSpaceOnUse" x="0" y="0" width="94" height="115">
<path d="M8 0.5H86C90.1421 0.5 93.5 3.85786 93.5 8V114.5H0.5V8C0.500001 3.85787 3.85787 0.5 8 0.5Z" fill="#FAF9F6" stroke="#815DEF"/>
</mask>
<g mask="url(#mask0_1255_44642)">
<path d="M47.4336 12.8256C46.8587 12.8256 46.3857 12.3606 46.3857 11.7944C46.3857 11.2281 46.854 10.7632 47.4336 10.7632C48.0131 10.7632 48.4814 11.2281 48.4814 11.7944C48.4814 12.3606 48.0131 12.8256 47.4336 12.8256Z" fill="#F579A4"/>
<path d="M31.308 20.5505L27.6406 9.26251C27.6406 9.26251 30.9093 8.91264 31.4425 10.929C31.4425 10.929 33.5845 10.3121 34.1177 12.6876C34.6509 15.0584 32.7824 16.1127 32.7824 16.1127C32.7824 16.1127 36.7882 17.2589 37.9473 14.3541C37.9473 14.3541 35.4576 11.8083 37.9473 8.7331C37.9473 8.7331 41.4061 9.94384 40.0893 13.9167C40.0893 13.9167 43.0288 16.2876 44.9019 14.0917C44.9019 14.0917 42.6765 14.0042 42.9407 11.8958C43.2096 9.78271 45.2543 9.96225 45.2543 9.96225C45.2543 9.96225 44.174 6.79959 47.4334 5.04102C50.6881 6.79959 49.6079 9.96225 49.6079 9.96225C49.6079 9.96225 51.6572 9.78732 51.9261 11.8958C52.1903 14.0042 49.9649 14.0917 49.9649 14.0917C51.838 16.2876 54.7775 13.9167 54.7775 13.9167C53.4561 9.94384 56.9148 8.7331 56.9148 8.7331C59.4092 11.8083 56.9148 14.3541 56.9148 14.3541C58.0739 17.2589 62.0844 16.1127 62.0844 16.1127C62.0844 16.1127 60.2113 15.0584 60.7491 12.6876C61.287 10.3167 63.4243 10.929 63.4243 10.929C63.9575 8.91264 67.2262 9.26251 67.2262 9.26251L63.5588 20.5505C59.743 17.5121 50.3497 17.2221 47.4334 17.2221C44.5171 17.2221 35.1238 17.5121 31.308 20.5505ZM46.3856 11.7899C46.3856 12.3607 46.8539 12.8211 47.4334 12.8211C48.0129 12.8211 48.4812 12.3561 48.4812 11.7899C48.4812 11.2236 48.0129 10.7587 47.4334 10.7587C46.8539 10.7587 46.3856 11.2236 46.3856 11.7899Z" fill="#F9CF81"/>
<path d="M47.434 17.2222C50.3456 17.2222 59.7436 17.5122 63.5594 20.5506C63.5594 20.5506 53.0301 21.1352 47.434 21.1352C41.8378 21.1352 31.3086 20.5506 31.3086 20.5506C35.1243 17.5122 44.5177 17.2222 47.434 17.2222Z" fill="#EFBC30"/>
<path d="M47.4194 4.24003L38.8652 -4.30884H55.4218L47.4194 4.24003ZM46.9789 -0.814712L46.9279 -0.777883L47.985 0.649229H48.9726V-2.28786H47.985L46.9789 -0.819316V-0.814712Z" fill="#432D69"/>
<path d="M32.7823 16.1127C32.7823 16.1127 34.6554 15.0585 34.1176 12.6876C33.5844 10.3168 31.4424 10.929 31.4424 10.929C30.9092 8.91268 27.6405 9.26255 27.6405 9.26255L31.3079 20.5506C31.3079 20.5506 41.8325 21.1352 47.4333 21.1352C53.0341 21.1352 63.5587 20.5506 63.5587 20.5506L67.2261 9.26255C67.2261 9.26255 63.9574 8.91268 63.4242 10.929C63.4242 10.929 61.2822 10.3122 60.749 12.6876C60.2158 15.0631 62.0843 16.1127 62.0843 16.1127C62.0843 16.1127 58.0738 17.259 56.9147 14.3541C56.9147 14.3541 59.4091 11.8083 56.9147 8.73314C56.9147 8.73314 53.456 9.94388 54.7773 13.9168C54.7773 13.9168 51.8379 16.2876 49.9648 14.0917C49.9648 14.0917 52.1902 14.0042 51.926 11.8958C51.6571 9.78275 49.6078 9.96229 49.6078 9.96229C49.6078 9.96229 50.688 6.79963 47.4333 5.04106C44.1739 6.79963 45.2542 9.96229 45.2542 9.96229C45.2542 9.96229 43.2095 9.78736 42.9406 11.8958C42.6764 14.0042 44.9018 14.0917 44.9018 14.0917C43.0287 16.2876 40.0892 13.9168 40.0892 13.9168C41.4106 9.94388 37.9472 8.73314 37.9472 8.73314C35.4575 11.8083 37.9472 14.3541 37.9472 14.3541C36.7881 17.259 32.7823 16.1127 32.7823 16.1127ZM38.8652 -4.30884L47.4194 4.24003L55.4218 -4.30884H65.9093C65.9093 -3.19017 66.8273 -2.28786 67.9586 -2.28786C69.0899 -2.28786 70.0125 -3.19477 70.0125 -4.30884H79.2065C79.2065 -3.19017 80.1245 -2.28786 81.2558 -2.28786C82.3871 -2.28786 83.3097 -3.19477 83.3097 -4.30884H87.0652C87.8256 -4.30884 88.4515 -3.69656 88.4515 -2.94157V4.24463C87.3573 4.29067 86.4857 5.17456 86.4857 6.26561C86.4857 7.35666 87.3573 8.23595 88.4515 8.28198V11.7853C88.4515 11.7853 80.2961 23.7961 50.5907 24.6524C50.0482 23.3357 48.7361 22.4058 47.2061 22.4058C45.6761 22.4058 44.3686 23.3357 43.8308 24.657H43.8169C15.8131 23.8421 6.53565 13.1434 5.55273 11.905V8.28198C6.64692 8.23595 7.51857 7.35206 7.51857 6.26561C7.51857 5.17916 6.64692 4.29067 5.55273 4.24463V-2.94157C5.55273 -3.69656 6.17865 -4.30884 6.93902 -4.30884H10.6945C10.6945 -3.19017 11.6125 -2.28786 12.7484 -2.28786C13.8843 -2.28786 14.7977 -3.19477 14.7977 -4.30884H23.9917C23.9917 -3.19017 24.9097 -2.28786 26.0456 -2.28786C27.1815 -2.28786 28.0949 -3.19477 28.0949 -4.30884H38.8513H38.8652Z" fill="#432D69"/>
<path d="M45.4027 29.1268C44.3085 28.5053 43.5713 27.3406 43.5713 26.0102C43.5713 25.536 43.664 25.0849 43.8356 24.666C44.3734 23.3493 45.6808 22.4148 47.2109 22.4148C48.7409 22.4148 50.053 23.3401 50.5954 24.6613C50.767 25.0803 50.8597 25.5314 50.8597 26.0056C50.8597 27.3406 50.1225 28.5053 49.0283 29.1176C48.4951 29.4261 47.8739 29.5964 47.2155 29.5964C46.5571 29.5964 45.9358 29.4261 45.4027 29.1222V29.1268Z" fill="#F579A4"/>
<path d="M48.9734 -2.28345V0.653643H47.9858L46.9287 -0.778073L46.9797 -0.814902L47.9858 -2.28345H48.9734Z" fill="#432D69"/>
<path d="M31.7627 70.5361C31.7905 70.5684 31.8044 70.6006 31.8044 70.6282L31.7627 70.5361Z" fill="#BCAA2B"/>
<path d="M84.3164 70.5361C84.3442 70.5684 84.3581 70.6006 84.3581 70.6282L84.3164 70.5361Z" fill="#BCAA2B"/>
<path d="M21.1547 47.2099L10.5513 70.5409C10.5234 70.5685 10.5095 70.6053 10.5095 70.6329C10.5095 70.6329 10.5095 70.6421 10.5095 70.6559C10.5281 70.8171 10.6347 71.6319 10.9871 72.7276C11.8912 75.5312 14.4041 80.1347 21.1501 80.1347C27.896 80.1347 30.4089 75.5312 31.313 72.7276C31.6654 71.6319 31.7767 70.8125 31.7906 70.6559C31.7906 70.6375 31.7906 70.6329 31.7906 70.6329C31.7906 70.6053 31.7767 70.5731 31.7489 70.5409L21.1454 47.2099H43.567L44.0446 75.3654L44.1559 81.7138L44.5731 106.325L47.2391 113.405L49.9004 106.32L50.3547 78.169L50.4521 72.0831L50.8555 47.2145H73.699L63.0955 70.5455C63.0677 70.5731 63.0538 70.6099 63.0538 70.6375C63.0538 70.6375 63.0538 70.6467 63.0538 70.6605C63.0724 70.8217 63.179 71.6365 63.5314 72.7322C64.4355 75.5358 66.9484 80.1393 73.6943 80.1393C80.4403 80.1393 82.9532 75.5358 83.8573 72.7322C84.2097 71.6365 84.321 70.8171 84.3349 70.6605C84.3349 70.6421 84.3349 70.6375 84.3349 70.6375C84.3349 70.6099 84.321 70.5777 84.2931 70.5455L73.6897 47.2145H73.7778C73.7778 47.2145 74.566 42.8779 70.6389 42.8779C67.2219 42.8779 67.4908 44.526 54.2307 44.9449C54.2307 44.9449 52.3994 43.8907 49.4924 43.504L49.5109 43.3659L49.4553 41.8283L49.344 38.6564L49.2281 35.4569L49.1168 32.2758L49.0055 29.1177C50.0997 28.5009 50.8369 27.3408 50.8369 26.0057C50.8369 25.5316 50.7442 25.0804 50.5726 24.6615C80.278 23.8052 88.4334 11.7944 88.4334 11.7944V104.985L58.6492 124.794H35.2354L5.5625 105.04V11.9095C6.54542 13.1479 15.8228 23.8512 43.8267 24.6569H43.8406C43.669 25.0804 43.5763 25.5269 43.5763 26.0057C43.5763 27.3362 44.3135 28.5055 45.4077 29.1223L45.3428 30.9776L45.2315 34.1725L45.1249 37.3582L45.0182 40.5531L44.9209 43.3659L44.9487 43.5546C42.2642 43.9781 40.5905 44.9403 40.5905 44.9403C27.3257 44.5168 27.5993 42.8733 24.1776 42.8733C20.2506 42.8733 21.0388 47.2099 21.0388 47.2099H21.1686H21.1547ZM81.9286 50.7592L83.1479 50.1009L81.9286 49.4426L81.2609 48.2411L80.5933 49.4426L79.3786 50.1009L80.5933 50.7592L81.2609 51.9562L81.9286 50.7592ZM81.9286 85.7419L83.1479 85.0836L81.9286 84.4299L81.2609 83.2284L80.5933 84.4299L79.3786 85.0836L80.5933 85.7419L81.2609 86.9435L81.9286 85.7419ZM79.8747 28.8599L81.0894 28.2062L79.8747 27.5479L79.207 26.3464L78.5394 27.5479L77.32 28.2062L78.5394 28.8599L79.207 30.0615L79.8747 28.8599ZM64.6441 36.5433L66.647 35.4615L64.6441 34.3797L63.5453 32.4047L62.4464 34.3797L60.4435 35.4615L62.4464 36.5433L63.5453 38.5183L64.6441 36.5433ZM62.4743 56.3526L63.6936 55.6943L62.4743 55.036L61.8066 53.8344L61.139 55.036L59.9196 55.6943L61.139 56.3526L61.8066 57.5541L62.4743 56.3526ZM57.9167 64.7541L59.9196 63.6769L57.9167 62.5951L56.8179 60.6201L55.7237 62.5951L53.7161 63.6769L55.7237 64.7541L56.8179 66.7337L57.9167 64.7541ZM35.7686 58.9951L36.988 58.3413L35.7686 57.683L35.101 56.4815L34.438 57.683L33.2186 58.3413L34.438 58.9951L35.101 60.1966L35.7686 58.9951ZM30.599 36.4375L31.8184 35.7837L30.599 35.1254L29.9314 33.9239L29.2684 35.1254L28.049 35.7837L29.2684 36.4375L29.9314 37.639L30.599 36.4375ZM17.1349 29.1177L19.1425 28.0405L17.1349 26.9587L16.0408 24.9837L14.9419 26.9587L12.939 28.0405L14.9419 29.1177L16.0408 31.0973L17.1349 29.1177ZM13.4305 50.7592L14.6498 50.1009L13.4305 49.4426L12.7628 48.2411L12.0952 49.4426L10.8758 50.1009L12.0952 50.7592L12.7628 51.9562L13.4305 50.7592Z" fill="#815DEF"/>
<path d="M83.1437 50.1009L81.9289 50.7592L81.2613 51.9561L80.5936 50.7592L79.3789 50.1009L80.5936 49.4471L81.2613 48.2456L81.9289 49.4471L83.1437 50.1009Z" fill="#BCAA2B"/>
<path d="M63.6886 55.6943L62.4738 56.3526L61.8062 57.5542L61.1386 56.3526L59.9238 55.6943L61.1386 55.036L61.8062 53.8345L62.4738 55.036L63.6886 55.6943Z" fill="#BCAA2B"/>
<path d="M63.1052 70.5361L63.0635 70.6282C63.0635 70.6006 63.0774 70.5638 63.1052 70.5361Z" fill="#BCAA2B"/>
<path d="M31.8185 35.7883L30.5991 36.4374L29.9315 37.639L29.2684 36.4374L28.0537 35.7883L29.2684 35.13L29.9315 33.9285L30.5991 35.13L31.8185 35.7883Z" fill="#BCAA2B"/>
<path d="M14.6493 50.1009L13.4299 50.7592L12.7623 51.9561L12.0993 50.7592L10.8799 50.1009L12.0993 49.4471L12.7623 48.2456L13.4299 49.4471L14.6493 50.1009Z" fill="#BCAA2B"/>
<path d="M10.5515 70.5361L10.5098 70.6282C10.5098 70.6006 10.5237 70.5638 10.5515 70.5361Z" fill="#BCAA2B"/>
<path d="M81.089 28.2063L79.8742 28.86L79.2112 30.0615L78.5436 28.86L77.3242 28.2063L78.5436 27.548L79.2112 26.3464L79.8742 27.548L81.089 28.2063Z" fill="#BCAA2B"/>
<path d="M19.142 28.0358L17.1344 29.1176L16.0402 31.0972L14.9414 29.1176L12.9385 28.0358L14.9414 26.9539L16.0402 24.979L17.1344 26.9539L19.142 28.0358Z" fill="#FFC0D6"/>
<path d="M83.1437 85.0882L81.9289 85.7419L81.2613 86.9434L80.5936 85.7419L79.3789 85.0882L80.5936 84.4344L81.2613 83.2329L81.9289 84.4344L83.1437 85.0882Z" fill="#FFC0D6"/>
<path d="M59.9242 63.6723L57.9166 64.7541L56.8224 66.7336L55.7283 64.7541L53.7207 63.6723L55.7283 62.5904L56.8224 60.6155L57.9166 62.5904L59.9242 63.6723Z" fill="#FFC0D6"/>
<path d="M36.9884 58.3459L35.769 58.995L35.1014 60.1966L34.4384 58.995L33.2236 58.3459L34.4384 57.6876L35.1014 56.4861L35.769 57.6876L36.9884 58.3459Z" fill="#FFC0D6"/>
<path d="M66.6469 35.4616L64.6439 36.5434L63.5451 38.523L62.4463 36.5434L60.4434 35.4616L62.4463 34.3797L63.5451 32.4048L64.6439 34.3797L66.6469 35.4616Z" fill="#FFC0D6"/>
<path d="M35.2537 124.794H23.8482L7.36117 117.253C7.46318 117.014 7.52345 116.747 7.52345 116.466C7.52345 115.38 6.65181 114.496 5.55762 114.45V105.045L35.2537 124.799V124.794Z" fill="#432D69"/>
<path d="M88.4568 104.98V114.445C87.3626 114.491 86.491 115.375 86.491 116.462C86.491 116.729 86.542 116.982 86.6393 117.217L70.0735 124.794H58.668L88.4522 104.985L88.4568 104.98Z" fill="#432D69"/>
<path d="M21.1542 71.6734V73.4596C16.3833 73.4596 12.345 73.1465 10.9912 72.7276C10.6389 71.632 10.5276 70.8125 10.5137 70.656C10.6481 71.2222 15.3633 71.6734 21.1588 71.6734H21.1542Z" fill="#FF9A26"/>
<path d="M31.7997 70.656C31.7812 70.8171 31.6745 71.632 31.3222 72.7276C29.9683 73.1512 25.93 73.4596 21.1592 73.4596V71.6734C26.9547 71.6734 31.6699 71.2176 31.8043 70.656H31.7997Z" fill="#FF9A26"/>
<path d="M73.7128 71.6734V73.4596C68.9419 73.4596 64.9036 73.1465 63.5498 72.7276C63.1974 71.632 63.0862 70.8125 63.0723 70.656C63.2067 71.2222 67.9219 71.6734 73.7174 71.6734H73.7128Z" fill="#FF9A26"/>
<path d="M84.3534 70.656C84.3349 70.8171 84.2282 71.632 83.8759 72.7276C82.522 73.1512 78.4837 73.4596 73.7129 73.4596V71.6734C79.5084 71.6734 84.2236 71.2176 84.3581 70.656H84.3534Z" fill="#FF9A26"/>
<path d="M84.3163 70.5362L84.3581 70.6282C84.3581 70.6282 84.3581 70.6374 84.3581 70.6513C84.2236 71.2175 79.5084 71.6686 73.7129 71.6686V69.5786C79.2812 69.5786 83.8527 70.0021 84.3163 70.5316V70.5362Z" fill="#EFBC30"/>
<path d="M73.7125 69.5833V71.6733C67.917 71.6733 63.2018 71.2175 63.0674 70.6559C63.0674 70.6375 63.0674 70.6329 63.0674 70.6329L63.1091 70.5408C63.5727 70.0114 68.1489 69.5879 73.7125 69.5879V69.5833Z" fill="#EFBC30"/>
<path d="M21.1549 69.5833V71.6733C15.3594 71.6733 10.6442 71.2175 10.5098 70.6559C10.5098 70.6375 10.5098 70.6329 10.5098 70.6329L10.5515 70.5408C11.0151 70.0114 15.5913 69.5879 21.1549 69.5879V69.5833Z" fill="#EFBC30"/>
<path d="M31.7626 70.5362L31.8043 70.6282C31.8043 70.6282 31.8043 70.6374 31.8043 70.6513C31.6699 71.2175 26.9547 71.6686 21.1592 71.6686V69.5786C26.7275 69.5786 31.299 70.0021 31.7626 70.5316V70.5362Z" fill="#EFBC30"/>
<path d="M31.3221 72.7275C30.418 75.5311 27.905 80.1347 21.1591 80.1347C14.4131 80.1347 11.9002 75.5311 10.9961 72.7275C12.3499 73.1511 16.3882 73.4595 21.1591 73.4595C25.9299 73.4595 29.9682 73.1465 31.3221 72.7275Z" fill="#F9CF81"/>
<path d="M83.8758 72.7275C82.9717 75.5311 80.4587 80.1347 73.7128 80.1347C66.9668 80.1347 64.4539 75.5311 63.5498 72.7275C64.9036 73.1511 68.9419 73.4595 73.7128 73.4595C78.4836 73.4595 82.5219 73.1465 83.8758 72.7275Z" fill="#F9CF81"/>
<path d="M21.1542 47.21V69.588C15.5859 69.588 11.0144 70.0115 10.5508 70.541L21.1542 47.21Z" fill="#A588FF"/>
<path d="M21.1543 47.21L31.7577 70.541C31.2941 70.0115 26.718 69.588 21.1543 69.588V47.21Z" fill="#A588FF"/>
<path d="M73.7128 47.21V69.588C68.1445 69.588 63.573 70.0115 63.1094 70.541L73.7128 47.21Z" fill="#A588FF"/>
<path d="M73.7129 47.21L84.3163 70.541C83.8527 70.0115 79.2766 69.588 73.7129 69.588V47.21Z" fill="#A588FF"/>
<path d="M49.0287 29.1177L49.14 32.2757L45.4077 30.9867H45.3428L45.4077 29.1269C45.9409 29.4307 46.5621 29.6011 47.2205 29.6011C47.8789 29.6011 48.5002 29.4261 49.0333 29.1223L49.0287 29.1177Z" fill="#FFC0D6"/>
<path d="M49.2511 35.4522L49.3624 38.6517H49.3439L45.2082 37.3627L45.1201 37.358L45.2268 34.1724H45.2685L49.2511 35.4522Z" fill="#FFC0D6"/>
<path d="M49.4741 41.8236L49.5297 43.3612L49.5112 43.4993C48.8621 43.4164 48.162 43.3612 47.4155 43.3612C46.5161 43.3612 45.6908 43.4348 44.935 43.5545L44.9072 43.3658L45.0046 40.553H45.0185L49.4694 41.8236H49.4741Z" fill="#FFC0D6"/>
<path d="M70.6621 42.8733C74.5892 42.8733 73.801 47.2099 73.801 47.2099H21.0295C21.0295 47.2099 20.2413 42.8733 24.1684 42.8733C27.5854 42.8733 27.3165 44.5214 40.5812 44.9403C42.5424 45.0048 44.8003 45.0416 47.4152 45.0416C50.0302 45.0416 52.2881 45.0048 54.2493 44.9403C67.5094 44.5168 67.2405 42.8733 70.6575 42.8733H70.6621Z" fill="#F579A4"/>
<path d="M49.1397 32.2712L49.251 35.4522L45.2683 34.1724H45.2266L45.3378 30.9775L45.4027 30.9821L49.1397 32.2712Z" fill="#F579A4"/>
<path d="M49.3624 38.6518L49.4736 41.8236L45.0227 40.553H45.0088L45.1154 37.3582H45.1201L45.2082 37.3628L49.3438 38.6518H49.3624Z" fill="#F579A4"/>
<path d="M49.5156 43.4994C52.4227 43.8861 54.254 44.9404 54.254 44.9404C52.2882 45.0048 50.0303 45.0416 47.42 45.0416C44.8097 45.0416 42.5425 45.0048 40.5859 44.9404C40.5859 44.9404 42.2597 43.9736 44.9442 43.5547C45.6952 43.435 46.5252 43.3613 47.4246 43.3613C48.1711 43.3613 48.8712 43.4166 49.5203 43.4994H49.5156Z" fill="#F579A4"/>
<path d="M50.8695 47.21L50.4661 72.074L50.3687 78.1645L49.9144 106.315L47.2531 113.405L44.5872 106.32L44.1699 81.7093L44.0586 75.3609L43.5811 47.2146V47.21H47.4154H50.8695Z" fill="#FAF9F6"/>
<path d="M5.5625 4.24459C6.65669 4.29063 7.52833 5.17452 7.52833 6.26557C7.52833 7.35662 6.65669 8.23591 5.5625 8.28194V4.23999V4.24459Z" fill="#F579A4"/>
<path d="M88.5441 4.23999C89.6754 4.23999 90.5934 5.1469 90.5934 6.26557C90.5934 7.38424 89.6754 8.28655 88.5441 8.28655C88.5163 8.28655 88.4839 8.28655 88.4561 8.28655V4.24459C88.4839 4.24459 88.5163 4.24459 88.5441 4.24459V4.23999Z" fill="#FFC0D6"/>
<path d="M88.5441 114.441C89.6754 114.441 90.5934 115.348 90.5934 116.462C90.5934 117.576 89.6754 118.487 88.5441 118.487C88.5163 118.487 88.4839 118.487 88.4561 118.487V114.445C88.4839 114.445 88.5163 114.445 88.5441 114.445V114.441Z" fill="#FFC0D6"/>
<path d="M88.4561 114.445V118.487C87.6262 118.455 86.9307 117.939 86.6386 117.221C86.5412 116.991 86.4902 116.733 86.4902 116.466C86.4902 115.38 87.3619 114.496 88.4561 114.45V114.445Z" fill="#F579A4"/>
<path d="M88.4561 4.24463V8.28658C87.3619 8.24055 86.4902 7.35666 86.4902 6.27021C86.4902 5.18376 87.3619 4.29527 88.4561 4.24923V4.24463Z" fill="#F579A4"/>
<path d="M7.36606 117.249C7.06469 117.953 6.37851 118.45 5.5625 118.483V114.441C6.65669 114.487 7.52833 115.371 7.52833 116.457C7.52833 116.738 7.46806 117.005 7.36606 117.244V117.249Z" fill="#F579A4"/>
<path d="M5.56218 114.445V118.487C5.53436 118.487 5.50191 118.487 5.47409 118.487C4.34281 118.487 3.4248 117.58 3.4248 116.462C3.4248 115.343 4.34281 114.441 5.47409 114.441C5.50191 114.441 5.53436 114.441 5.56218 114.441V114.445Z" fill="#FFC0D6"/>
<path d="M5.56218 4.24459V8.28655C5.53436 8.28655 5.50191 8.28655 5.47409 8.28655C4.34281 8.28655 3.4248 7.37964 3.4248 6.26557C3.4248 5.1515 4.34281 4.23999 5.47409 4.23999C5.50191 4.23999 5.53436 4.23999 5.56218 4.23999V4.24459Z" fill="#FFC0D6"/>
<path d="M1.00927 147.596L1 96.9102L5.55758 101.482V114.385C5.52976 114.385 5.4973 114.385 5.46949 114.385C4.33821 114.385 3.4202 115.292 3.4202 116.411C3.4202 117.53 4.33821 118.441 5.46949 118.441C5.4973 118.441 5.52976 118.441 5.55758 118.441V141.8C5.55758 142.55 6.18349 143.167 6.9485 143.167H87.0701C87.8304 143.167 88.4563 142.55 88.4563 141.8V118.441C88.4842 118.441 88.5166 118.441 88.5444 118.441C89.6757 118.441 90.5984 117.534 90.5984 116.411C90.5984 115.288 89.6757 114.385 88.5444 114.385C88.5166 114.385 88.4842 114.385 88.4563 114.385V101.482H88.4656L93.0185 97.016L93.0093 147.596H1.00927Z" fill="#F579A4"/>
<path d="M93.0136 87.7537V97.0161L88.4653 101.482H88.4561V92.2145H88.4653L93.0136 87.7537Z" fill="#F9CF81"/>
<path d="M93.0144 66.1629V87.7538L88.4614 92.2147H88.4521V43.7388C90.6034 43.7066 90.8399 46.1419 90.9883 47.7394V61.5317C90.9883 63.3087 91.0532 65.21 92.9912 66.1629H93.0097H93.0144Z" fill="#FFC0D6"/>
<path d="M93.0136 20.4169V66.1628H92.9951C91.0571 65.2144 90.9922 63.3085 90.9922 61.5316V47.7392C90.8438 46.1417 90.6027 43.7064 88.4561 43.7387V16.4302L93.0136 20.4169Z" fill="#F579A4"/>
<path d="M93.0143 -9V20.4169L88.4567 16.4302V8.0517C88.4845 8.0517 88.517 8.0517 88.5448 8.0517C89.6761 8.0517 90.5987 7.14479 90.5987 6.02152C90.5987 4.89824 89.6761 3.99594 88.5448 3.99594C88.517 3.99594 88.4845 3.99594 88.4567 3.99594V-3.20868C88.4567 -3.95907 87.8308 -4.57595 87.0704 -4.57595H83.3149C83.3149 -5.69462 82.3969 -6.60153 81.261 -6.60153C80.1251 -6.60153 79.2117 -5.69462 79.2117 -4.57595H70.0177C70.0177 -5.69462 69.0997 -6.60153 67.9638 -6.60153C66.8279 -6.60153 65.9145 -5.69462 65.9145 -4.57595H55.4316L59.507 -9H93.0143Z" fill="#FFCCDD"/>
<path d="M1.00927 -9H34.7808L38.8608 -4.56674H28.1044C28.1044 -5.68541 27.1864 -6.59232 26.0551 -6.59232C24.9238 -6.59232 24.0012 -5.68541 24.0012 -4.56674H14.8072C14.8072 -5.68541 13.8892 -6.59232 12.7579 -6.59232C11.6266 -6.59232 10.704 -5.68541 10.704 -4.56674H6.95313C6.18813 -4.56674 5.56221 -3.94986 5.56221 -3.19948V4.00514C5.53439 4.00514 5.50194 4.00514 5.47412 4.00514C4.34284 4.00514 3.42483 4.91205 3.42483 6.03073C3.42483 7.1494 4.34284 8.06091 5.47412 8.06091C5.50194 8.06091 5.53439 8.06091 5.56221 8.06091V16.444L1 20.3111L1.00927 -9Z" fill="#FFCCDD"/>
<path d="M5.56221 92.2144V101.481H5.55758L1 96.9101V87.6431L5.55758 92.2144H5.56221Z" fill="#F9CF81"/>
<path d="M5.56221 43.7388V92.2147L1 87.6433V66.057H1.01855C2.95656 65.1087 3.02147 63.3087 3.02147 61.5317V47.7394C3.16983 46.1419 3.41556 43.7066 5.55758 43.7388H5.56221Z" fill="#FFC0D6"/>
<path d="M5.56221 16.4302V43.7341C3.41556 43.7018 3.17447 46.1371 3.0261 47.7346V61.5269C3.0261 63.3039 2.9612 65.1039 1.02318 66.0523H1V20.311L5.55758 16.4302H5.56221Z" fill="#F579A4"/>
<path d="M87.0705 143.383H6.94428C6.06337 143.383 5.34473 142.674 5.34473 141.809V-2.94169C5.34473 -3.81176 6.06337 -4.51611 6.94428 -4.51611H87.0705C87.9514 -4.51611 88.67 -3.80716 88.67 -2.94169V141.804C88.67 142.674 87.9514 143.379 87.0705 143.379V143.383ZM6.94428 -4.09719C6.29982 -4.09719 5.77591 -3.58158 5.77591 -2.94169V141.804C5.77591 142.44 6.29982 142.96 6.94428 142.96H87.0705C87.7149 142.96 88.2435 142.44 88.2435 141.804V-2.94169C88.2435 -3.57698 87.7196 -4.09719 87.0705 -4.09719H6.94428Z" fill="#281751"/>
<path d="M5.46959 8.5028C4.2224 8.5028 3.20703 7.49922 3.20703 6.27006C3.20703 5.0409 4.2224 4.03271 5.46959 4.03271C5.50668 4.03271 5.54378 4.03271 5.57623 4.03732C6.78633 4.09256 7.73679 5.07313 7.73679 6.27006C7.73679 7.46699 6.78169 8.44756 5.56696 8.4982C5.54841 8.4982 5.50668 8.4982 5.46959 8.4982V8.5028ZM5.48814 4.45164H5.46959C4.45422 4.45164 3.63358 5.26648 3.63358 6.26546C3.63358 7.26444 4.45886 8.07927 5.46959 8.07927C5.48814 8.07927 5.51132 8.07927 5.52987 8.07927C6.5406 8.03323 7.31024 7.24142 7.31024 6.27006C7.31024 5.2987 6.53596 4.49768 5.54841 4.45625H5.52987C5.52987 4.45625 5.50205 4.45625 5.48814 4.45625V4.45164Z" fill="#281751"/>
<path d="M5.46959 118.699C4.2224 118.699 3.20703 117.696 3.20703 116.462C3.20703 115.228 4.2224 114.229 5.46959 114.229C5.50668 114.229 5.54377 114.229 5.58087 114.234C6.79097 114.289 7.74143 115.265 7.74143 116.462C7.74143 116.761 7.68115 117.056 7.56061 117.332C7.22215 118.124 6.44324 118.658 5.57159 118.694C5.55305 118.694 5.51132 118.694 5.47423 118.694L5.46959 118.699ZM5.49277 114.653C4.4774 114.653 3.63358 115.458 3.63358 116.466C3.63358 117.475 4.48204 118.289 5.48814 118.28C5.50205 118.28 5.51596 118.28 5.52987 118.28C6.25778 118.248 6.89297 117.815 7.16651 117.171C7.26388 116.945 7.31024 116.706 7.31024 116.466C7.31024 115.495 6.53596 114.699 5.54841 114.657H5.52523C5.52523 114.657 5.50205 114.657 5.48814 114.657L5.49277 114.653Z" fill="#281751"/>
<path d="M88.5445 8.5028C88.5028 8.5028 88.4657 8.5028 88.424 8.4982C87.2278 8.44756 86.2773 7.4716 86.2773 6.27006C86.2773 5.06852 87.2278 4.09256 88.4379 4.03732C88.475 4.03732 88.5074 4.03271 88.5445 4.03271C89.7917 4.03271 90.8071 5.0363 90.8071 6.27006C90.8071 7.50382 89.7917 8.5028 88.5445 8.5028ZM88.526 4.45164C88.526 4.45164 88.4982 4.45164 88.4843 4.45164H88.4657C87.4782 4.49307 86.7039 5.2895 86.7039 6.26546C86.7039 7.24142 87.4782 8.03324 88.4657 8.07467C88.5075 8.07927 88.526 8.07927 88.5445 8.07467C89.5599 8.07467 90.3805 7.25983 90.3805 6.26085C90.3805 5.26187 89.5553 4.44704 88.5445 4.44704H88.526V4.45164Z" fill="#281751"/>
<path d="M88.5453 118.699C88.5035 118.699 88.4665 118.699 88.4247 118.694C87.5577 118.662 86.7695 118.11 86.4403 117.295C86.3337 117.037 86.2734 116.756 86.2734 116.462C86.2734 115.265 87.2193 114.289 88.434 114.234C88.4711 114.234 88.5082 114.229 88.5453 114.229C89.7925 114.229 90.8078 115.233 90.8078 116.462C90.8078 117.691 89.7925 118.699 88.5453 118.699ZM88.5267 114.653C88.5267 114.653 88.5035 114.653 88.4896 114.653H88.4665C87.4789 114.699 86.7046 115.49 86.7046 116.462C86.7046 116.701 86.751 116.927 86.8391 117.134C87.108 117.797 87.7432 118.243 88.4665 118.271C88.5082 118.276 88.5267 118.271 88.5453 118.271C89.5606 118.271 90.3813 117.456 90.3813 116.457C90.3813 115.458 89.556 114.643 88.5453 114.643H88.5267V114.653Z" fill="#281751"/>
<path d="M47.8144 0.773536L46.9057 -0.451019L46.0711 0.768932L45.7188 0.534149L46.7248 -0.934396L47.0679 -0.943604L47.0958 -0.906775L48.1575 0.529546L47.8144 0.773536Z" fill="#FAF9F6"/>
<path d="M49.1863 -2.28345H48.7598V0.653643H49.1863V-2.28345Z" fill="#FAF9F6"/>
<path d="M49.1451 32.4829L49.0663 32.4691L45.334 31.1801L45.4731 30.7842L49.21 32.0732L49.1405 32.2665L49.1451 32.4829Z" fill="#281751"/>
<path d="M49.219 35.6641L45.1992 34.3751L45.3337 33.97L49.3163 35.2544L49.219 35.6641Z" fill="#281751"/>
<path d="M49.2792 38.8543L45.1436 37.5607L45.2734 37.1602L49.409 38.4492L49.2792 38.8543Z" fill="#281751"/>
<path d="M49.4695 42.0401L49.4138 42.0263L44.9629 40.7557L45.0834 40.3506L49.5946 41.6396L49.4695 42.0401Z" fill="#281751"/>
<path d="M46.4461 28.2936C45.6579 28.0404 45.0042 27.4235 44.7353 26.6777C44.6379 26.4107 44.5869 26.1207 44.5869 25.826C44.5869 25.0757 44.9115 24.3391 45.4539 23.8557L45.7414 24.1688C45.287 24.5739 45.0135 25.1954 45.0135 25.826C45.0135 26.0746 45.0552 26.314 45.134 26.535C45.3612 27.1565 45.9129 27.6767 46.5759 27.8931L46.4415 28.2936H46.4461Z" fill="#281751"/>
<path d="M45.9037 104.11V103.687L46.3256 103.682V104.106L45.9037 104.11ZM45.8759 102.002L45.811 96.947H46.2375L46.3024 101.997H45.8759V102.002ZM45.7971 95.681L45.7739 93.9961H46.2004L46.2236 95.6764H45.7971V95.681ZM45.7136 88.9413L45.6997 87.6754H46.1263L46.1402 88.9321H45.7136V88.9413ZM45.6765 85.9904L45.6163 80.9357H46.0428L46.1031 85.9858H45.6765V85.9904ZM45.5977 79.6743L45.5745 77.9894H46.0011L46.0243 79.6697H45.5977V79.6743ZM45.5143 72.9301L45.5003 71.6641H45.9269L45.9408 72.9208H45.5143V72.9301ZM45.4772 69.9838L45.4169 64.929H45.8434L45.9037 69.9792H45.4772V69.9838ZM45.3983 63.663L45.3752 61.9873L45.8017 61.9735H45.5884L45.8017 61.9827L45.8249 63.6584H45.3983V63.663ZM45.3149 56.9234L45.301 55.6574H45.7275L45.7414 56.9142H45.3149V56.9234ZM45.2778 53.9725L45.2129 48.9177H45.6394L45.7044 53.9679H45.2778V53.9725Z" fill="#281751"/>
<path d="M47.2159 29.8083C46.5343 29.8083 45.8713 29.6333 45.2964 29.3065C44.1002 28.6297 43.3584 27.3638 43.3584 26.0057C43.3584 25.5177 43.4511 25.0389 43.6366 24.5832C44.2254 23.1377 45.6302 22.2031 47.2112 22.2031C48.7923 22.2031 50.1971 23.1377 50.7952 24.5786C50.9806 25.0343 51.0734 25.5131 51.0734 26.0011C51.0734 27.3591 50.3315 28.6251 49.1307 29.2973C48.5558 29.6287 47.8882 29.8037 47.2112 29.8037L47.2159 29.8083ZM47.2112 22.6221C45.8064 22.6221 44.5592 23.4553 44.0353 24.7397C43.8684 25.1448 43.7849 25.5684 43.7849 26.0057C43.7849 27.2118 44.448 28.3397 45.5097 28.9428C46.5297 29.5228 47.8928 29.5274 48.9174 28.9336C49.9838 28.3351 50.6422 27.2118 50.6422 26.0011C50.6422 25.5683 50.5587 25.1402 50.3918 24.7351C49.8633 23.4507 48.6114 22.6221 47.2066 22.6221H47.2112Z" fill="#281751"/>
<path d="M47.2535 114.008L44.3743 106.325L43.3682 47.2145L43.7947 47.2099L44.8008 106.283L47.2535 112.797L49.7015 106.279L50.6566 47.2053L51.0831 47.2099L50.128 106.357L50.1188 106.389L47.2535 114.008Z" fill="#281751"/>
<path d="M47.4159 47.4215H20.8493L20.8169 47.2466C20.7983 47.1591 20.432 45.0415 21.568 43.7064C22.1568 43.0159 23.0284 42.666 24.169 42.666C25.3976 42.666 26.1534 42.8732 27.2058 43.1586C29.116 43.6788 32.0045 44.4614 40.5865 44.7376C42.6636 44.8067 44.9632 44.8389 47.4159 44.8389V45.2624C44.9539 45.2624 42.6543 45.2302 40.5725 45.1612C31.9349 44.8849 29.0186 44.0931 27.0899 43.5683C26.0745 43.2921 25.3374 43.0941 24.169 43.0941C23.1629 43.0941 22.4025 43.3934 21.8971 43.9826C21.0626 44.9632 21.1553 46.4962 21.2156 47.0072H47.4159V47.4307V47.4215Z" fill="#281751"/>
<path d="M73.9818 47.4217H47.4199V46.9982H73.6156C73.6758 46.4872 73.7639 44.9542 72.934 43.9736C72.4333 43.3844 71.6683 43.0851 70.6622 43.0851C69.4938 43.0851 68.7566 43.2831 67.7412 43.5593C65.8125 44.0841 62.8962 44.8759 54.2632 45.1521C52.1769 45.2212 49.8772 45.2534 47.4199 45.2534V44.8299C49.8726 44.8299 52.1676 44.7977 54.2493 44.7286C62.8313 44.457 65.7198 43.6698 67.63 43.1496C68.6778 42.8641 69.4382 42.657 70.6668 42.657C71.8027 42.657 72.679 43.0069 73.2678 43.6974C74.4037 45.037 74.0375 47.1501 74.0189 47.2376L73.9865 47.4125L73.9818 47.4217Z" fill="#281751"/>
<path d="M54.1473 45.1245C54.1473 45.1245 52.3113 44.0887 49.4878 43.7112C47.9253 43.5086 46.4602 43.5316 44.9719 43.7664C42.357 44.1761 40.7064 45.1153 40.6879 45.1245L40.4746 44.7608C40.5442 44.7194 42.2133 43.771 44.907 43.3475C46.4324 43.1081 47.9392 43.0851 49.5434 43.2922C52.4597 43.6789 54.2864 44.7148 54.3606 44.7608L54.1473 45.1245Z" fill="#281751"/>
<path d="M31.605 70.679C31.2805 70.3061 27.4694 69.7951 21.1592 69.7951C14.8491 69.7951 11.038 70.3061 10.7181 70.6744C10.7181 70.6744 10.7273 70.656 10.7273 70.6284H10.3008C10.3008 70.5409 10.3379 70.4535 10.4074 70.389C10.987 69.7261 16.2586 69.3762 21.1639 69.3762C26.0692 69.3762 31.3407 69.7261 31.9296 70.4028C31.9945 70.4719 32.0223 70.5501 32.0223 70.633H31.5957C31.5957 70.6606 31.605 70.679 31.6097 70.6836L31.605 70.679Z" fill="#281751"/>
<path d="M21.1548 71.8851C20.7236 71.8851 10.5792 71.8713 10.3057 70.702L10.7229 70.6053C11.0058 70.9506 14.7983 71.4616 21.1595 71.4616C27.5206 71.4616 31.3132 70.9506 31.6053 70.5823L32.0133 70.702C31.7397 71.8713 21.5953 71.8851 21.1595 71.8851H21.1548Z" fill="#281751"/>
<path d="M21.1546 73.6712C16.4673 73.6712 12.3548 73.372 10.9268 72.9301L11.0566 72.5295C12.4243 72.9577 16.5785 73.2523 21.1593 73.2523C25.74 73.2523 29.8896 72.9531 31.262 72.5295L31.3918 72.9301C29.9638 73.3766 25.8513 73.6712 21.1639 73.6712H21.1546Z" fill="#281751"/>
<path d="M21.1546 80.3465C14.2556 80.3465 11.6963 75.614 10.7876 72.792C10.4074 71.6227 10.3101 70.771 10.3008 70.6789V70.6329L10.3147 70.5454L10.3564 70.4533L20.9599 47.127H21.3493L31.9991 70.55L32.0177 70.6375L32.0084 70.7111C32.0037 70.7756 31.9064 71.6273 31.5262 72.7966C30.6128 75.6186 28.0535 80.3511 21.1592 80.3511L21.1546 80.3465ZM10.7273 70.6651C10.7505 70.8539 10.8571 71.6227 11.1956 72.6631C12.0719 75.3746 14.5338 79.9229 21.1546 79.9229C27.7754 79.9229 30.2373 75.3746 31.1136 72.6631C31.4567 71.6088 31.5587 70.8354 31.5818 70.6605L31.5633 70.6237L21.1546 47.7208L10.7273 70.6651Z" fill="#281751"/>
<path d="M21.368 47.21H20.9414V73.4642H21.368V47.21Z" fill="#281751"/>
<path d="M84.1587 70.679C83.8342 70.3061 80.0231 69.7951 73.7129 69.7951C67.4028 69.7951 63.5917 70.3061 63.2718 70.6744C63.2718 70.6744 63.281 70.656 63.281 70.6284H62.8545C62.8545 70.5409 62.8916 70.4534 62.9611 70.3844C63.5407 69.7215 68.8123 69.3716 73.7176 69.3716C78.6229 69.3716 83.8945 69.7215 84.4833 70.3982C84.5435 70.4672 84.576 70.5455 84.576 70.6284H84.1495C84.1495 70.656 84.1587 70.6744 84.1634 70.679H84.1587Z" fill="#281751"/>
<path d="M73.7132 71.8851C73.282 71.8851 63.1376 71.8713 62.8594 70.702L63.2767 70.6053C63.5595 70.9506 67.352 71.4616 73.7132 71.4616C80.0743 71.4616 83.8669 70.9506 84.159 70.5823L84.567 70.702C84.2934 71.8713 74.149 71.8851 73.7132 71.8851Z" fill="#281751"/>
<path d="M73.7132 73.6712C69.0212 73.6712 64.9134 73.372 63.4854 72.9301L63.6152 72.5295C64.9829 72.9577 69.1371 73.2523 73.7179 73.2523C78.2986 73.2523 82.4482 72.9531 83.8206 72.5295L83.9504 72.9301C82.5224 73.3766 78.4099 73.6712 73.7225 73.6712H73.7132Z" fill="#281751"/>
<path d="M73.7132 80.3465C66.8189 80.3465 64.2549 75.614 63.3462 72.792C62.966 71.6181 62.8686 70.771 62.8594 70.6789V70.6329L62.8733 70.5454L62.915 70.4533L73.5185 47.127H73.9079L84.5577 70.55L84.5763 70.6375L84.567 70.7111C84.5623 70.7756 84.465 71.6273 84.0848 72.7966C83.1714 75.6186 80.6121 80.3511 73.7178 80.3511L73.7132 80.3465ZM63.2813 70.6651C63.3045 70.8539 63.4111 71.6227 63.7496 72.6631C64.6258 75.3746 67.0878 79.9229 73.7085 79.9229C80.3293 79.9229 82.7912 75.3746 83.6675 72.6631C84.0106 71.6088 84.1126 70.8354 84.1358 70.6605L84.1173 70.6237L73.7085 47.7208L63.2813 70.6651Z" fill="#281751"/>
<path d="M73.9217 47.21H73.4951V73.4642H73.9217V47.21Z" fill="#281751"/>
<path d="M45.1248 43.375L44.6982 43.3566L45.1897 29.1177L45.6162 29.1269L45.1248 43.375Z" fill="#281751"/>
<path d="M49.2368 29.1138L48.8105 29.1287L49.314 43.3726L49.7403 43.3578L49.2368 29.1138Z" fill="#281751"/>
<path d="M63.2998 118.137L62.85 116.954L63.2488 116.807L63.6985 117.99L63.2998 118.137ZM62.2519 115.375L60.4577 110.638L60.8564 110.491L62.6507 115.228L62.2519 115.375ZM60.0079 109.455L59.4098 107.876L59.8086 107.729L60.4067 109.308L60.0079 109.455ZM57.6155 103.143L57.1658 101.96L57.5645 101.813L58.0143 102.996L57.6155 103.143ZM56.5677 100.377L54.7734 95.6395L55.1722 95.4922L56.9665 100.229L56.5677 100.377Z" fill="#281751"/>
<path d="M70.8197 111.485L56.6416 90.4421L56.9986 90.2119L71.1767 111.25L70.8197 111.485Z" fill="#281751"/>
<path d="M76.3235 101.633L75.387 100.773L75.6791 100.464L76.6156 101.325L76.3235 101.633ZM74.1398 99.6217L70.3936 96.169L70.6857 95.8606L74.4319 99.3133L74.1398 99.6217ZM69.4524 95.3081L68.2052 94.1572L68.4973 93.8488L69.7445 94.9997L69.4524 95.3081ZM64.459 90.7045L63.5224 89.8437L63.8145 89.5352L64.7511 90.3961L64.459 90.7045ZM62.2706 88.6928L58.5244 85.2401L58.8165 84.9316L62.5627 88.3843L62.2706 88.6928Z" fill="#281751"/>
<path d="M84.3532 94.0975L60.4062 80.0244L60.6242 79.6653L84.5711 93.7339L84.3532 94.0975Z" fill="#281751"/>
<path d="M31.5687 118.137L31.1699 117.99L31.6196 116.807L32.0184 116.954L31.5687 118.137ZM32.6165 115.375L32.2177 115.228L34.012 110.491L34.4108 110.638L32.6165 115.375ZM34.8605 109.455L34.4618 109.308L35.0599 107.729L35.4586 107.876L34.8605 109.455ZM37.2529 103.143L36.8541 102.996L37.3039 101.813L37.7026 101.96L37.2529 103.143ZM38.3007 100.377L37.902 100.229L39.6963 95.4922L40.095 95.6395L38.3007 100.377Z" fill="#281751"/>
<path d="M24.0484 111.485L23.6914 111.25L37.8649 90.2119L38.2219 90.4421L24.0484 111.485Z" fill="#281751"/>
<path d="M18.545 101.633L18.2529 101.325L19.1895 100.464L19.4816 100.773L18.545 101.633ZM20.7288 99.6217L20.4367 99.3133L24.1829 95.8606L24.475 96.169L20.7288 99.6217ZM25.4162 95.3081L25.1241 94.9997L26.3713 93.8488L26.6634 94.1572L25.4162 95.3081ZM30.4096 90.7045L30.1175 90.3961L31.054 89.5352L31.3461 89.8437L30.4096 90.7045ZM32.5933 88.6928L32.3012 88.3843L36.0474 84.9316L36.3395 85.2401L32.5933 88.6928Z" fill="#281751"/>
<path d="M10.5148 94.0975L10.2969 93.7339L34.2439 79.6653L34.4618 80.0244L10.5148 94.0975Z" fill="#281751"/>
<path d="M63.6663 20.9095L63.4252 20.7162C59.5028 17.5904 49.414 17.4338 47.4342 17.4338C45.4545 17.4338 35.3657 17.5904 31.4433 20.7162L31.2022 20.9095L27.3633 9.08292L27.6229 9.0553C27.762 9.04149 30.8823 8.73305 31.5963 10.685C31.9255 10.6297 32.6024 10.5837 33.2237 10.9474C33.7801 11.2742 34.1556 11.8451 34.3364 12.6415C34.7398 14.4323 33.8311 15.528 33.2793 16.0113C34.2947 16.2047 36.7937 16.4487 37.7071 14.3955C37.262 13.8661 35.5002 11.4308 37.7859 8.60415L37.8786 8.48906L38.0224 8.5397C38.0594 8.55351 41.5831 9.83331 40.3406 13.843C40.8506 14.2205 42.9369 15.5878 44.4623 14.2435C44.0821 14.1607 43.535 13.9673 43.1502 13.5208C42.7886 13.0973 42.6448 12.5448 42.7283 11.8773C42.9555 10.0957 44.3649 9.80108 44.9816 9.76425C44.8008 8.9264 44.5226 6.38062 47.3322 4.86603L47.4342 4.81079L47.5362 4.86603C50.3413 6.38062 50.0631 8.931 49.8823 9.76425C50.5035 9.80569 51.913 10.0957 52.1402 11.8773C52.2236 12.5494 52.0845 13.1019 51.7183 13.5208C51.3335 13.9673 50.7864 14.1607 50.4062 14.2435C51.9315 15.5878 54.0133 14.2159 54.5279 13.843C53.2854 9.83331 56.8044 8.55351 56.8415 8.5397L56.9852 8.48906L57.0826 8.60415C59.373 11.4308 57.6065 13.8661 57.1614 14.3955C58.0748 16.4441 60.5784 16.2047 61.5938 16.0113C61.0421 15.5326 60.138 14.4323 60.5367 12.6461C60.7175 11.8451 61.0931 11.2742 61.6494 10.952C62.2707 10.5883 62.943 10.6343 63.2768 10.6896C63.9908 8.73305 67.1111 9.04149 67.2502 9.05991L67.5098 9.08753L63.6709 20.9142L63.6663 20.9095ZM47.4342 17.0103C50.1975 17.0103 59.3776 17.2451 63.4484 20.2006L66.9396 9.45581C66.1838 9.42819 64.0279 9.48344 63.6292 10.9842L63.5735 11.1914L63.3649 11.1315C63.3649 11.1315 62.5489 10.9105 61.8673 11.3111C61.4176 11.5735 61.1116 12.0522 60.9586 12.7336C60.4672 14.9203 62.1223 15.8916 62.1919 15.9285L62.6277 16.1771L62.1455 16.3152C62.1038 16.329 57.931 17.4799 56.7163 14.4323L56.6653 14.308L56.7627 14.2113C56.86 14.1146 59.0299 11.8267 56.8461 8.99085C56.2248 9.26246 53.8788 10.5331 54.9823 13.8522L55.0287 13.9904L54.9174 14.0824C54.8849 14.11 51.7925 16.5592 49.8081 14.2297L49.5299 13.9029L49.9611 13.8845C49.9611 13.8845 50.893 13.8384 51.3984 13.2446C51.6812 12.9177 51.7878 12.4712 51.7183 11.9279C51.4772 10.0497 49.7014 10.1694 49.6273 10.1786L49.3027 10.2062L49.4047 9.90236C49.4464 9.78267 50.3644 6.94686 47.4342 5.28956C44.4994 6.94686 45.4174 9.78267 45.4591 9.90236L45.5611 10.2062L45.2366 10.1786C45.1624 10.174 43.3913 10.0497 43.1502 11.9279C43.0807 12.4758 43.1873 12.9177 43.4701 13.2492C43.9801 13.843 44.8981 13.8845 44.9074 13.8891L45.3432 13.9075L45.065 14.2343C43.0807 16.5592 39.9836 14.11 39.9557 14.087L39.8445 13.995L39.8908 13.8568C40.9943 10.5377 38.6436 9.26707 38.0224 8.99546C35.8433 11.8267 38.0131 14.1193 38.1058 14.2159L38.1985 14.3126L38.1475 14.4369C36.9328 17.4845 32.7647 16.329 32.723 16.3198L32.2408 16.1817L32.6766 15.9331C32.7461 15.8916 34.4013 14.9203 33.9099 12.7382C33.7569 12.0568 33.4509 11.5781 33.0011 11.3157C32.3196 10.9152 31.5129 11.1361 31.5036 11.1361L31.2949 11.196L31.2393 10.9888C30.8406 9.48804 28.6893 9.4328 27.9289 9.46042L31.4201 20.2052C35.4909 17.2497 44.6709 17.0149 47.4342 17.0149V17.0103Z" fill="#281751"/>
<path d="M47.4339 13.0328C46.7385 13.0328 46.1729 12.4758 46.1729 11.7898C46.1729 11.1039 46.7385 10.5469 47.4339 10.5469C48.1294 10.5469 48.695 11.1039 48.695 11.7898C48.695 12.4758 48.1294 13.0328 47.4339 13.0328ZM47.4339 10.9704C46.9749 10.9704 46.5994 11.3387 46.5994 11.7898C46.5994 12.241 46.9749 12.6093 47.4339 12.6093C47.893 12.6093 48.2685 12.241 48.2685 11.7898C48.2685 11.3387 47.893 10.9704 47.4339 10.9704Z" fill="#281751"/>
<path d="M50.6011 24.8687L50.5918 24.4451C79.8428 23.6027 88.193 11.7899 88.2764 11.6702L88.6288 11.9049C88.5453 12.0246 80.07 24.017 50.5964 24.8641L50.6011 24.8687Z" fill="#281751"/>
<path d="M43.8178 24.8687C15.7212 24.0584 6.36959 13.2676 5.39131 12.0385C5.3264 11.9556 5.29395 11.9142 5.29395 11.9142L5.64167 11.6702C5.64167 11.6702 5.66949 11.7116 5.72513 11.7807C6.68486 12.9914 15.9206 23.6441 43.827 24.4497L43.8131 24.8733L43.8178 24.8687Z" fill="#281751"/>
<path d="M58.7882 124.965L58.5518 124.619L88.336 104.805L88.5771 105.155L58.7882 124.965Z" fill="#281751"/>
<path d="M65.9613 122.718L65.7295 122.363L70.0228 119.601L70.2546 119.956L65.9613 122.718ZM71.6873 119.035L71.4554 118.681L72.5265 117.99L72.7583 118.344L71.6873 119.035ZM77.0562 115.582L76.8244 115.228L78.257 114.307L78.4889 114.662L77.0562 115.582ZM79.5599 113.971L79.328 113.617L83.6213 110.854L83.8532 111.209L79.5599 113.971ZM85.2951 110.274L85.0494 109.929L85.0633 109.92L85.2997 110.274H85.2951Z" fill="#281751"/>
<path d="M35.1387 124.965L5.35449 105.155L5.59095 104.805L5.67904 104.865L35.3752 124.619L35.1387 124.965Z" fill="#281751"/>
<path d="M27.9656 122.718L23.6723 119.956L23.9041 119.601L28.1974 122.363L27.9656 122.718ZM22.2397 119.035L21.1687 118.344L21.4005 117.99L22.4715 118.681L22.2397 119.035ZM16.8707 115.582L15.4381 114.662L15.6699 114.307L17.1025 115.228L16.8707 115.582ZM14.3671 113.971L10.0738 111.209L10.3056 110.854L14.5989 113.617L14.3671 113.971ZM8.64574 110.284L8.63184 110.274L8.86366 109.92L8.64574 110.284Z" fill="#281751"/>
<path d="M56.8222 67.171L55.5704 64.9061L53.2754 63.6723L55.5704 62.4339L56.8222 60.1736L58.0787 62.4339L60.3691 63.6723L58.0787 64.9061L56.8222 67.171ZM54.1656 63.6723L55.8857 64.5976L56.8222 66.2918L57.7634 64.5976L59.4789 63.6723L57.7634 62.747L56.8222 61.0529L55.8857 62.747L54.1656 63.6723Z" fill="#281751"/>
<path d="M63.5459 38.9601L62.2894 36.6997L59.999 35.4614L62.2894 34.223L63.5459 31.9626L64.8023 34.223L67.0927 35.4614L64.8023 36.6997L63.5459 38.9601ZM60.8892 35.4614L62.6047 36.3913L63.5459 38.0854L64.4871 36.3913L66.2025 35.4614L64.4871 34.5314L63.5459 32.8373L62.6047 34.5314L60.8892 35.4614Z" fill="#281751"/>
<path d="M16.041 31.5346L14.7845 29.2696L12.4941 28.0358L14.7845 26.7975L16.041 24.5371L17.2928 26.7975L19.5878 28.0358L17.2928 29.2696L16.041 31.5346ZM13.3843 28.0358L15.0998 28.9612L16.041 30.6553L16.9775 28.9612L18.6976 28.0358L16.9775 27.1105L16.041 25.4164L15.0998 27.1105L13.3843 28.0358Z" fill="#281751"/>
<path d="M61.8067 57.9914L60.9814 56.5091L59.4746 55.6988L60.9814 54.8886L61.8067 53.4062L62.632 54.8886L64.1388 55.6988L62.632 56.5091L61.8067 57.9914ZM60.3694 55.6942L61.3013 56.196L61.8114 57.1121L62.3214 56.196L63.2533 55.6942L62.3214 55.1924L61.8114 54.2763L61.3013 55.1924L60.3694 55.6942Z" fill="#281751"/>
<path d="M35.1009 60.6386L34.2803 59.1516L32.7734 58.346L34.2803 57.5312L35.1009 56.0442L35.9262 57.5312L37.433 58.346L35.9262 59.1562L35.1009 60.6432V60.6386ZM33.6683 58.3414L34.5955 58.8386L35.1009 59.7547L35.6109 58.8386L36.5382 58.3414L35.6109 57.8396L35.1009 56.9235L34.5955 57.8396L33.6683 58.3414Z" fill="#281751"/>
<path d="M81.2613 52.3936L80.436 50.9158L78.9385 50.1056L80.436 49.2953L81.2613 47.813L82.0866 49.2953L83.5934 50.1056L82.0866 50.9204L81.2613 52.3982V52.3936ZM79.824 50.101L80.7513 50.6028L81.2613 51.5189L81.7713 50.6028L82.7032 50.101L81.7713 49.5992L81.2613 48.6831L80.7513 49.5992L79.824 50.101Z" fill="#281751"/>
<path d="M12.7628 52.3935L11.9375 50.9158L10.4307 50.1009L11.9375 49.2907L12.7628 47.8083L13.588 49.2907L15.0949 50.1009L13.588 50.9158L12.7628 52.3935ZM11.3255 50.1009L12.2574 50.6027L12.7674 51.5188L13.2774 50.6027L14.2093 50.1009L13.2774 49.5991L12.7674 48.683L12.2574 49.5991L11.3255 50.1009Z" fill="#281751"/>
<path d="M81.2611 87.3808L80.4358 85.8985L78.9336 85.0836L80.4358 84.278L81.2611 82.7957L82.0863 84.278L83.5932 85.0836L82.0863 85.8985L81.2611 87.3808ZM79.8238 85.0882L80.7511 85.59L81.2611 86.5062L81.7711 85.59L82.6983 85.0882L81.7711 84.5911L81.2611 83.6749L80.7511 84.5911L79.8238 85.0882Z" fill="#281751"/>
<path d="M79.212 30.4988L78.3867 29.0164L76.8799 28.2108L78.3867 27.3959L79.212 25.9136L80.0373 27.3959L81.5395 28.2108L80.0373 29.0164L79.212 30.4988ZM77.7701 28.2062L78.6973 28.7034L79.2074 29.6195L79.7174 28.7034L80.6446 28.2062L79.7174 27.7044L79.2074 26.7883L78.6973 27.7044L77.7701 28.2062Z" fill="#281751"/>
<path d="M29.932 38.081L29.1113 36.594L27.6045 35.7884L29.1113 34.9735L29.932 33.4866L30.7572 34.9735L32.2641 35.7884L30.7572 36.5986L29.932 38.0856V38.081ZM28.4993 35.7838L29.4266 36.281L29.932 37.1971L30.442 36.281L31.3692 35.7838L30.442 35.282L29.932 34.3659L29.4266 35.282L28.4993 35.7838Z" fill="#281751"/>
<path d="M47.434 21.3468C41.8889 21.3468 31.4014 20.7668 31.2947 20.7622C31.1788 20.7576 31.0861 20.6563 31.0954 20.5412C31.1 20.4261 31.1927 20.3433 31.3225 20.3433C31.4292 20.3479 41.9028 20.9279 47.434 20.9279C52.9652 20.9279 63.4435 20.3479 63.5455 20.3433C63.68 20.3433 63.7634 20.4261 63.7727 20.5412C63.7773 20.6563 63.6892 20.7576 63.5733 20.7622C63.4667 20.7668 52.9745 21.3468 47.434 21.3468Z" fill="#281751"/>
<path d="M47.4246 4.30438L34.1367 -9H34.7348L47.4154 3.6921L59.2799 -9H59.8594L47.4246 4.30438Z" fill="#281751"/>
<path d="M5.40043 92.3573L1.00977 87.7675V87.588V87.1506L5.71107 92.0673L5.40043 92.3573Z" fill="#281751"/>
<path d="M1.00977 20.9649V20.3848L1.14422 20.2605L5.53952 16.1633L5.83162 16.4718L5.70643 16.5869L1.00977 20.9649Z" fill="#281751"/>
<path d="M5.40043 101.629L1.00977 97.03V96.3533L1.51513 96.9379L5.71107 101.339L5.40043 101.629Z" fill="#281751"/>
<path d="M1.00977 66.5174V66.0801C1.00977 66.0801 1.22304 65.965 1.23231 65.9604C2.85041 65.1547 2.83187 63.6355 2.81332 62.0289C2.81332 61.8632 2.81332 61.6928 2.81332 61.5271V47.7347C2.96169 46.1465 3.20742 43.5225 5.52098 43.5225C5.53952 43.5225 5.55807 43.5225 5.57198 43.5225C5.61371 43.5225 5.66007 43.5225 5.7018 43.5271L5.6508 43.946C5.62298 43.946 5.59516 43.946 5.56734 43.946C3.74988 43.923 3.42533 45.8104 3.23987 47.7532V61.5271C3.23987 61.6928 3.23987 61.8586 3.23987 62.0243C3.25842 63.6908 3.27696 65.4171 1.41777 66.3379C1.41313 66.3379 1.0144 66.5128 1.00977 66.5128L1.00977 66.5174Z" fill="#281751"/>
<path d="M88.6192 92.3573L88.3086 92.0673L93.0099 87.1553V87.7722L92.8847 87.9011L88.6192 92.3573Z" fill="#281751"/>
<path d="M92.9955 20.9741L92.5828 20.569L88.2432 16.5224L88.4796 16.1633L88.6002 16.2738L93.0094 20.3848L92.9955 20.9741Z" fill="#281751"/>
<path d="M88.6192 101.629L88.3086 101.339L93.0099 96.4177V97.0346L92.8847 97.1635L88.6192 101.629Z" fill="#281751"/>
<path d="M93.0094 66.5402C93.0094 66.5402 92.5921 66.3376 92.5782 66.333C90.7376 65.4077 90.7608 63.6906 90.7793 62.0287C90.7793 61.863 90.7793 61.6972 90.7793 61.5315V47.7391C90.5985 45.8287 90.2739 43.9504 88.4982 43.9504C88.4843 43.9504 88.4704 43.9504 88.4518 43.9504C88.424 43.9504 88.3916 43.9504 88.3637 43.9504L88.3174 43.5315C88.3823 43.5269 88.4426 43.5269 88.4982 43.5269C90.8071 43.5269 91.0529 46.1509 91.2012 47.7207V61.5315C91.2012 61.6972 91.2012 61.863 91.2012 62.0333C91.1827 63.6353 91.1641 65.1499 92.773 65.9556C92.7822 65.9602 92.9955 66.043 93.0048 66.0476V66.5402H93.0094Z" fill="#281751"/>
<path d="M8 0.5H86C90.1421 0.5 93.5 3.85786 93.5 8V114.5H0.5V8C0.500001 3.85787 3.85787 0.5 8 0.5Z" stroke="#815DEF"/>
</g>
</svg>
