<svg width="489" height="295" viewBox="0 0 489 295" fill="none" xmlns="http://www.w3.org/2000/svg">
<rect x="225.5" width="38" height="38" rx="19" fill="#FAF9F6"/>
<path d="M244.58 25.342C243.56 25.342 242.672 25.156 241.916 24.784C241.172 24.4 240.602 23.884 240.206 23.236C239.81 22.588 239.612 21.856 239.612 21.04H242.456C242.456 21.592 242.642 22.042 243.014 22.39C243.386 22.726 243.908 22.894 244.58 22.894C245.024 22.894 245.402 22.81 245.714 22.642C246.026 22.474 246.266 22.246 246.434 21.958C246.602 21.658 246.686 21.322 246.686 20.95C246.686 20.374 246.5 19.9 246.128 19.528C245.768 19.156 245.252 18.97 244.58 18.97C244.22 18.97 243.902 19.024 243.626 19.132C243.362 19.24 243.134 19.372 242.942 19.528L241.61 17.278L245.588 14.686L245.426 14.38H240.152V11.86H249.008V14.596L244.418 17.512L242.978 17.116C243.218 17.044 243.47 16.99 243.734 16.954C244.01 16.906 244.304 16.882 244.616 16.882C245.636 16.882 246.512 17.05 247.244 17.386C247.976 17.722 248.54 18.196 248.936 18.808C249.344 19.408 249.548 20.11 249.548 20.914V21.13C249.548 21.934 249.344 22.654 248.936 23.29C248.54 23.926 247.97 24.43 247.226 24.802C246.494 25.162 245.612 25.342 244.58 25.342Z" fill="#432D69"/>
<path d="M181.062 79L186.846 61.48H193.206L199.206 79H195.126L190.278 64.192L191.526 64.696H188.43L189.726 64.192L184.998 79H181.062ZM185.454 74.656L186.654 71.392H193.518L194.742 74.656H185.454ZM201.48 79V61.48H205.416V79H201.48ZM214.104 79V65.848H217.152V71.488H217.08C217.08 69.632 217.472 68.2 218.256 67.192C219.056 66.184 220.208 65.68 221.712 65.68H222.216V68.992H221.256C220.2 68.992 219.384 69.28 218.808 69.856C218.232 70.416 217.944 71.232 217.944 72.304V79H214.104ZM230.099 79.456C228.979 79.456 227.987 79.264 227.123 78.88C226.275 78.496 225.563 77.984 224.987 77.344C224.427 76.688 223.995 75.96 223.691 75.16C223.403 74.344 223.259 73.512 223.259 72.664V72.184C223.259 71.304 223.403 70.464 223.691 69.664C223.995 68.848 224.427 68.12 224.987 67.48C225.547 66.84 226.243 66.336 227.075 65.968C227.923 65.584 228.883 65.392 229.955 65.392C231.363 65.392 232.547 65.712 233.507 66.352C234.483 66.976 235.227 67.8 235.739 68.824C236.251 69.832 236.507 70.936 236.507 72.136V73.432H224.867V71.248H234.179L232.931 72.256C232.931 71.472 232.819 70.8 232.595 70.24C232.371 69.68 232.035 69.256 231.587 68.968C231.155 68.664 230.611 68.512 229.955 68.512C229.283 68.512 228.715 68.664 228.251 68.968C227.787 69.272 227.435 69.72 227.195 70.312C226.955 70.888 226.835 71.6 226.835 72.448C226.835 73.232 226.947 73.92 227.171 74.512C227.395 75.088 227.747 75.536 228.227 75.856C228.707 76.176 229.331 76.336 230.099 76.336C230.803 76.336 231.379 76.2 231.827 75.928C232.275 75.656 232.579 75.32 232.739 74.92H236.267C236.075 75.8 235.699 76.584 235.139 77.272C234.579 77.96 233.875 78.496 233.027 78.88C232.179 79.264 231.203 79.456 230.099 79.456ZM246.936 79V75.112H246.288V70.888C246.288 70.216 246.128 69.712 245.808 69.376C245.488 69.04 244.976 68.872 244.272 68.872C243.92 68.872 243.456 68.88 242.88 68.896C242.304 68.912 241.712 68.936 241.104 68.968C240.496 69 239.944 69.032 239.448 69.064V65.824C239.816 65.792 240.248 65.76 240.744 65.728C241.24 65.696 241.752 65.672 242.28 65.656C242.808 65.64 243.304 65.632 243.768 65.632C245.112 65.632 246.24 65.824 247.152 66.208C248.08 66.592 248.784 67.176 249.264 67.96C249.744 68.728 249.984 69.72 249.984 70.936V79H246.936ZM242.736 79.336C241.792 79.336 240.96 79.168 240.24 78.832C239.536 78.496 238.984 78.016 238.584 77.392C238.184 76.752 237.984 75.992 237.984 75.112C237.984 74.152 238.232 73.368 238.728 72.76C239.224 72.136 239.92 71.68 240.816 71.392C241.712 71.088 242.744 70.936 243.912 70.936H246.72V73.072H243.888C243.216 73.072 242.696 73.24 242.328 73.576C241.976 73.896 241.8 74.336 241.8 74.896C241.8 75.424 241.976 75.856 242.328 76.192C242.696 76.512 243.216 76.672 243.888 76.672C244.32 76.672 244.704 76.6 245.04 76.456C245.392 76.296 245.68 76.032 245.904 75.664C246.128 75.296 246.256 74.784 246.288 74.128L247.2 75.088C247.12 76 246.896 76.768 246.528 77.392C246.176 78.016 245.68 78.496 245.04 78.832C244.416 79.168 243.648 79.336 242.736 79.336ZM258.606 79.432C257.678 79.432 256.83 79.264 256.062 78.928C255.31 78.592 254.654 78.128 254.094 77.536C253.534 76.928 253.102 76.216 252.798 75.4C252.51 74.584 252.366 73.704 252.366 72.76V72.208C252.366 71.264 252.502 70.384 252.774 69.568C253.062 68.752 253.47 68.04 253.998 67.432C254.542 66.808 255.19 66.328 255.942 65.992C256.694 65.64 257.534 65.464 258.462 65.464C259.518 65.464 260.43 65.696 261.198 66.16C261.966 66.608 262.566 67.28 262.998 68.176C263.43 69.056 263.67 70.144 263.718 71.44L262.71 70.504V61.48H266.574V79H263.526V73.552H264.054C264.006 74.8 263.742 75.864 263.262 76.744C262.798 77.624 262.166 78.296 261.366 78.76C260.566 79.208 259.646 79.432 258.606 79.432ZM259.566 76.216C260.158 76.216 260.694 76.088 261.174 75.832C261.67 75.56 262.062 75.168 262.35 74.656C262.654 74.144 262.806 73.528 262.806 72.808V71.92C262.806 71.216 262.654 70.624 262.35 70.144C262.046 69.664 261.646 69.296 261.15 69.04C260.654 68.784 260.118 68.656 259.542 68.656C258.902 68.656 258.326 68.824 257.814 69.16C257.318 69.48 256.926 69.928 256.638 70.504C256.35 71.064 256.206 71.72 256.206 72.472C256.206 73.24 256.35 73.904 256.638 74.464C256.926 75.024 257.326 75.456 257.838 75.76C258.35 76.064 258.926 76.216 259.566 76.216ZM270.621 79V65.848H274.461V79H270.621ZM268.869 68.68V65.848H274.461V68.68H268.869ZM272.109 64.552C271.389 64.552 270.853 64.368 270.501 64C270.165 63.616 269.997 63.136 269.997 62.56C269.997 61.968 270.165 61.488 270.501 61.12C270.853 60.736 271.389 60.544 272.109 60.544C272.829 60.544 273.357 60.736 273.693 61.12C274.045 61.488 274.221 61.968 274.221 62.56C274.221 63.136 274.045 63.616 273.693 64C273.357 64.368 272.829 64.552 272.109 64.552ZM277.952 79V65.848H281V71.488H280.784C280.784 70.144 280.952 69.024 281.288 68.128C281.64 67.232 282.168 66.56 282.872 66.112C283.576 65.664 284.432 65.44 285.44 65.44H285.608C287.144 65.44 288.312 65.944 289.112 66.952C289.928 67.944 290.336 69.456 290.336 71.488V79H286.496V71.272C286.496 70.568 286.288 69.992 285.872 69.544C285.456 69.096 284.896 68.872 284.192 68.872C283.472 68.872 282.888 69.104 282.44 69.568C282.008 70.016 281.792 70.608 281.792 71.344V79H277.952ZM298.732 84.232C298.092 84.232 297.436 84.208 296.764 84.16C296.092 84.112 295.476 84.048 294.916 83.968V80.728C295.476 80.808 296.092 80.872 296.764 80.92C297.452 80.984 298.076 81.016 298.636 81.016C299.676 81.016 300.516 80.896 301.156 80.656C301.812 80.416 302.292 80.048 302.596 79.552C302.9 79.072 303.052 78.448 303.052 77.68V75.064L303.748 73.528C303.716 74.696 303.484 75.696 303.052 76.528C302.636 77.36 302.052 78 301.3 78.448C300.548 78.88 299.652 79.096 298.612 79.096C297.716 79.096 296.9 78.936 296.164 78.616C295.444 78.28 294.828 77.816 294.316 77.224C293.804 76.632 293.412 75.944 293.14 75.16C292.868 74.36 292.732 73.496 292.732 72.568V72.016C292.732 71.088 292.876 70.224 293.164 69.424C293.452 68.624 293.868 67.928 294.412 67.336C294.956 66.744 295.604 66.288 296.356 65.968C297.108 65.632 297.94 65.464 298.852 65.464C299.908 65.464 300.82 65.696 301.588 66.16C302.372 66.624 302.988 67.304 303.436 68.2C303.884 69.096 304.124 70.176 304.156 71.44L303.628 71.584V65.848H306.676V77.44C306.676 79.056 306.388 80.36 305.812 81.352C305.236 82.344 304.356 83.072 303.172 83.536C302.004 84 300.524 84.232 298.732 84.232ZM299.812 75.856C300.404 75.856 300.94 75.728 301.42 75.472C301.9 75.2 302.276 74.816 302.548 74.32C302.836 73.824 302.98 73.224 302.98 72.52V71.824C302.98 71.136 302.828 70.56 302.524 70.096C302.236 69.616 301.852 69.256 301.372 69.016C300.892 68.76 300.38 68.632 299.836 68.632C299.196 68.632 298.628 68.784 298.132 69.088C297.636 69.392 297.252 69.816 296.98 70.36C296.708 70.904 296.572 71.544 296.572 72.28C296.572 73.032 296.708 73.68 296.98 74.224C297.268 74.752 297.652 75.16 298.132 75.448C298.628 75.72 299.188 75.856 299.812 75.856Z" fill="#FAF9F6"/>
<rect x="21" y="111" width="135" height="40" rx="20" fill="#815DEF"/>
<path d="M48.7405 130.398C46.6046 130.421 45.0507 128.901 45.0275 126.765C45.0507 128.901 43.5307 130.455 41.3944 130.478C43.5303 130.455 45.0842 131.975 45.1074 134.111C45.0842 131.975 46.6042 130.421 48.7405 130.398Z" fill="#FAF9F6"/>
<path d="M38.3044 140.705C37.6162 140.583 37.0903 139.978 37.0907 139.254L37.0658 122.788C37.0637 121.972 37.724 121.306 38.5364 121.306L51.1733 121.271C51.9861 121.268 52.6484 121.929 52.6482 122.745L52.6731 139.211C52.673 139.605 52.5208 139.978 52.2431 140.258C51.9653 140.538 51.5959 140.692 51.2021 140.695L38.5652 140.73C38.4767 140.73 38.3897 140.722 38.304 140.707L38.3044 140.705ZM51.1918 122.65C51.1918 122.65 51.1805 122.648 51.1737 122.647L38.5368 122.682C38.4833 122.682 38.438 122.727 38.4378 122.781L38.4627 139.247C38.4625 139.301 38.5057 139.346 38.5615 139.346L51.1984 139.311C51.2519 139.311 51.2972 139.266 51.2974 139.212L51.2725 122.746C51.2719 122.697 51.2369 122.658 51.1918 122.65Z" fill="#FAF9F6"/>
<path d="M70.7353 135.5V127.773H67.8736V126.111H75.6137V127.773H72.7657V135.5H70.7353ZM76.6206 125.552H78.5829V129.286C79.019 128.614 79.6913 128.278 80.5997 128.278C81.2993 128.278 81.8671 128.5 82.3031 128.945C82.7392 129.391 82.9572 130.067 82.9572 130.976V135.5H81.0222V131.262C81.0222 130.326 80.6406 129.858 79.8775 129.858C79.3778 129.858 79.0372 130.022 78.8555 130.349C78.6738 130.676 78.5829 131.144 78.5829 131.753V135.5H76.6206V125.552ZM90.9256 132.393H86.2652C86.2652 132.875 86.3878 133.288 86.6331 133.633C86.8784 133.969 87.2282 134.137 87.6824 134.137C88.0549 134.137 88.3274 134.078 88.5 133.96C88.6726 133.833 88.8134 133.642 88.9225 133.388H90.8711C90.7984 133.642 90.694 133.887 90.5577 134.124C90.4305 134.351 90.2443 134.592 89.999 134.846C89.7628 135.091 89.4403 135.291 89.0315 135.445C88.6227 135.591 88.1593 135.664 87.6415 135.664C86.5423 135.664 85.711 135.318 85.1478 134.628C84.5845 133.937 84.3029 133.088 84.3029 132.08C84.3029 130.926 84.5936 130.004 85.175 129.313C85.7564 128.623 86.6013 128.278 87.7096 128.278C88.2911 128.278 88.7953 128.378 89.2222 128.577C89.6583 128.768 89.999 129.036 90.2443 129.381C90.4896 129.727 90.6667 130.099 90.7757 130.499C90.8938 130.899 90.9529 131.33 90.9529 131.793C90.9529 132.057 90.9438 132.257 90.9256 132.393ZM86.3061 131.194H88.9906C88.9724 130.185 88.5409 129.681 87.696 129.681C86.8602 129.681 86.3969 130.185 86.3061 131.194ZM95.816 135.5V126.111H97.8465V133.838H102.534L102.302 135.5H95.816ZM106.783 128.278C107.819 128.278 108.645 128.614 109.263 129.286C109.89 129.958 110.203 130.849 110.203 131.957C110.203 133.056 109.89 133.951 109.263 134.641C108.636 135.323 107.778 135.664 106.688 135.664C105.625 135.664 104.78 135.323 104.153 134.641C103.535 133.951 103.226 133.07 103.226 131.998C103.226 130.89 103.544 129.995 104.18 129.313C104.816 128.623 105.684 128.278 106.783 128.278ZM106.701 129.818C106.238 129.818 105.87 129.999 105.597 130.363C105.334 130.717 105.202 131.253 105.202 131.971C105.202 132.652 105.339 133.183 105.611 133.565C105.884 133.947 106.256 134.137 106.729 134.137C107.21 134.137 107.578 133.951 107.832 133.579C108.096 133.197 108.227 132.666 108.227 131.984C108.227 130.54 107.719 129.818 106.701 129.818ZM110.67 128.441H112.782C113.581 131.303 114.036 133.079 114.145 133.769H114.158C114.249 133.233 114.749 131.457 115.657 128.441H117.606L115.112 135.5H113.068L110.67 128.441ZM124.661 132.393H120C120 132.875 120.123 133.288 120.368 133.633C120.613 133.969 120.963 134.137 121.417 134.137C121.79 134.137 122.062 134.078 122.235 133.96C122.408 133.833 122.548 133.642 122.657 133.388H124.606C124.533 133.642 124.429 133.887 124.293 134.124C124.165 134.351 123.979 134.592 123.734 134.846C123.498 135.091 123.175 135.291 122.766 135.445C122.358 135.591 121.894 135.664 121.376 135.664C120.277 135.664 119.446 135.318 118.883 134.628C118.319 133.937 118.038 133.088 118.038 132.08C118.038 130.926 118.328 130.004 118.91 129.313C119.491 128.623 120.336 128.278 121.445 128.278C122.026 128.278 122.53 128.378 122.957 128.577C123.393 128.768 123.734 129.036 123.979 129.381C124.224 129.727 124.402 130.099 124.511 130.499C124.629 130.899 124.688 131.33 124.688 131.793C124.688 132.057 124.679 132.257 124.661 132.393ZM120.041 131.194H122.725C122.707 130.185 122.276 129.681 121.431 129.681C120.595 129.681 120.132 130.185 120.041 131.194ZM126.045 135.5V130.363C126.045 129.481 126.041 128.841 126.032 128.441H127.953C127.989 128.659 128.008 129.073 128.008 129.681C128.171 129.263 128.444 128.927 128.825 128.673C129.216 128.418 129.697 128.287 130.27 128.278V130.145C129.497 130.126 128.925 130.276 128.553 130.594C128.189 130.903 128.008 131.512 128.008 132.42V135.5H126.045ZM130.931 133.374H132.853C133.007 133.965 133.452 134.26 134.188 134.26C134.842 134.26 135.169 134.028 135.169 133.565C135.169 133.347 135.078 133.179 134.897 133.061C134.715 132.943 134.37 132.82 133.861 132.693C132.789 132.429 132.076 132.125 131.722 131.78C131.367 131.426 131.19 130.971 131.19 130.417C131.19 129.827 131.417 129.322 131.872 128.905C132.335 128.487 133.057 128.278 134.038 128.278C135.01 128.278 135.733 128.491 136.205 128.918C136.677 129.345 136.932 129.84 136.968 130.403H135.115C134.988 129.904 134.602 129.654 133.957 129.654C133.384 129.654 133.098 129.854 133.098 130.254C133.098 130.435 133.184 130.581 133.357 130.69C133.539 130.79 133.907 130.908 134.461 131.044C135.033 131.18 135.501 131.33 135.864 131.494C136.237 131.657 136.514 131.848 136.696 132.066C136.877 132.275 137 132.484 137.063 132.693C137.127 132.893 137.159 133.138 137.159 133.429C137.159 134.065 136.904 134.596 136.396 135.023C135.887 135.45 135.128 135.664 134.12 135.664C133.112 135.664 132.349 135.455 131.831 135.037C131.322 134.619 131.022 134.065 130.931 133.374Z" fill="#FAF9F6"/>
<rect x="177" y="111" width="135" height="40" rx="20" fill="#815DEF"/>
<path d="M204.74 131.371C202.605 131.395 201.051 129.875 201.028 127.738C201.051 129.874 199.531 131.428 197.394 131.451C199.53 131.428 201.084 132.948 201.107 135.084C201.084 132.949 202.604 131.395 204.74 131.371Z" fill="#FAF9F6"/>
<path d="M194.303 141.678C193.615 141.556 193.089 140.951 193.09 140.227L193.065 123.761C193.063 122.945 193.723 122.28 194.535 122.279L207.172 122.244C207.985 122.241 208.647 122.903 208.647 123.718L208.672 140.184C208.672 140.579 208.52 140.951 208.242 141.231C207.964 141.511 207.595 141.665 207.201 141.668L194.564 141.703C194.476 141.704 194.389 141.695 194.303 141.68L194.303 141.678ZM207.191 123.623C207.191 123.623 207.18 123.621 207.173 123.62L194.536 123.655C194.482 123.655 194.437 123.7 194.437 123.754L194.462 140.22C194.462 140.274 194.505 140.319 194.561 140.319L207.197 140.285C207.251 140.285 207.296 140.239 207.296 140.185L207.272 123.719C207.271 123.67 207.236 123.631 207.191 123.623Z" fill="#FAF9F6"/>
<path d="M209.678 139.556C209.083 139.556 208.434 139.339 207.783 138.919L208.53 137.759C209.101 138.13 209.633 138.261 209.99 138.12C210.171 138.049 210.295 137.909 210.352 137.702L213.123 122.024C213.127 121.992 213.134 121.958 213.137 121.923C213.155 121.578 213.075 121.504 213.036 121.468C213.001 121.438 212.939 121.41 212.859 121.396C209.023 120.651 205.194 119.996 200.945 119.278C200.856 119.262 200.773 119.271 200.718 119.299C200.647 119.335 200.523 119.409 200.51 119.506C200.445 119.897 200.377 120.591 200.313 121.263C200.244 121.967 200.177 122.634 200.113 123.016L198.759 122.781C198.816 122.447 198.883 121.778 198.947 121.127C199.015 120.435 199.084 119.717 199.158 119.282C199.242 118.763 199.581 118.33 200.109 118.066C200.427 117.905 200.798 117.854 201.179 117.919C205.437 118.638 209.275 119.294 213.127 120.042C213.455 120.106 213.746 120.246 213.966 120.446C214.374 120.817 214.553 121.325 214.516 121.999C214.512 122.079 214.502 122.167 214.484 122.261L211.695 138.019C211.53 138.663 211.092 139.167 210.497 139.402C210.242 139.5 209.97 139.551 209.685 139.551L209.678 139.556Z" fill="#FAF9F6"/>
<path d="M229.519 135.5V127.773H226.658V126.111H234.398V127.773H231.55V135.5H229.519ZM235.405 125.552H237.367V129.286C237.803 128.614 238.475 128.278 239.384 128.278C240.083 128.278 240.651 128.5 241.087 128.945C241.523 129.391 241.741 130.067 241.741 130.976V135.5H239.806V131.262C239.806 130.326 239.425 129.858 238.662 129.858C238.162 129.858 237.821 130.022 237.64 130.349C237.458 130.676 237.367 131.144 237.367 131.753V135.5H235.405V125.552ZM249.71 132.393H245.049C245.049 132.875 245.172 133.288 245.417 133.633C245.663 133.969 246.012 134.137 246.467 134.137C246.839 134.137 247.112 134.078 247.284 133.96C247.457 133.833 247.598 133.642 247.707 133.388H249.655C249.583 133.642 249.478 133.887 249.342 134.124C249.215 134.351 249.028 134.592 248.783 134.846C248.547 135.091 248.224 135.291 247.816 135.445C247.407 135.591 246.944 135.664 246.426 135.664C245.326 135.664 244.495 135.318 243.932 134.628C243.369 133.937 243.087 133.088 243.087 132.08C243.087 130.926 243.378 130.004 243.959 129.313C244.541 128.623 245.385 128.278 246.494 128.278C247.075 128.278 247.579 128.378 248.006 128.577C248.442 128.768 248.783 129.036 249.028 129.381C249.274 129.727 249.451 130.099 249.56 130.499C249.678 130.899 249.737 131.33 249.737 131.793C249.737 132.057 249.728 132.257 249.71 132.393ZM245.09 131.194H247.775C247.757 130.185 247.325 129.681 246.48 129.681C245.644 129.681 245.181 130.185 245.09 131.194ZM256.481 135.5V127.773H253.619V126.111H261.359V127.773H258.511V135.5H256.481ZM264.303 128.278C265.339 128.278 266.165 128.614 266.783 129.286C267.41 129.958 267.723 130.849 267.723 131.957C267.723 133.056 267.41 133.951 266.783 134.641C266.156 135.323 265.298 135.664 264.208 135.664C263.145 135.664 262.3 135.323 261.673 134.641C261.055 133.951 260.746 133.07 260.746 131.998C260.746 130.89 261.064 129.995 261.7 129.313C262.336 128.623 263.204 128.278 264.303 128.278ZM264.221 129.818C263.758 129.818 263.39 129.999 263.117 130.363C262.854 130.717 262.722 131.253 262.722 131.971C262.722 132.652 262.859 133.183 263.131 133.565C263.404 133.947 263.776 134.137 264.248 134.137C264.73 134.137 265.098 133.951 265.352 133.579C265.616 133.197 265.747 132.666 265.747 131.984C265.747 130.54 265.239 129.818 264.221 129.818ZM268.326 128.441H270.384C271.002 131.194 271.374 132.97 271.501 133.769H271.529C271.783 132.452 272.187 130.676 272.741 128.441H274.554C275.253 131.521 275.63 133.27 275.685 133.688H275.698C275.944 132.516 276.339 130.767 276.884 128.441H278.819L276.721 135.5H274.636C273.981 132.52 273.623 130.849 273.559 130.485H273.545C273.464 131.148 273.091 132.82 272.428 135.5H270.329L268.326 128.441ZM285.96 132.393H281.299C281.299 132.875 281.422 133.288 281.667 133.633C281.913 133.969 282.262 134.137 282.717 134.137C283.089 134.137 283.362 134.078 283.534 133.96C283.707 133.833 283.848 133.642 283.957 133.388H285.905C285.833 133.642 285.728 133.887 285.592 134.124C285.465 134.351 285.279 134.592 285.033 134.846C284.797 135.091 284.475 135.291 284.066 135.445C283.657 135.591 283.194 135.664 282.676 135.664C281.576 135.664 280.745 135.318 280.182 134.628C279.619 133.937 279.337 133.088 279.337 132.08C279.337 130.926 279.628 130.004 280.209 129.313C280.791 128.623 281.636 128.278 282.744 128.278C283.325 128.278 283.829 128.378 284.256 128.577C284.693 128.768 285.033 129.036 285.279 129.381C285.524 129.727 285.701 130.099 285.81 130.499C285.928 130.899 285.987 131.33 285.987 131.793C285.987 132.057 285.978 132.257 285.96 132.393ZM281.34 131.194H284.025C284.007 130.185 283.575 129.681 282.73 129.681C281.894 129.681 281.431 130.185 281.34 131.194ZM287.345 135.5V130.363C287.345 129.481 287.34 128.841 287.331 128.441H289.252C289.289 128.659 289.307 129.073 289.307 129.681C289.47 129.263 289.743 128.927 290.125 128.673C290.515 128.418 290.997 128.287 291.569 128.278V130.145C290.797 130.126 290.224 130.276 289.852 130.594C289.489 130.903 289.307 131.512 289.307 132.42V135.5H287.345Z" fill="#FAF9F6"/>
<rect x="333" y="111" width="135" height="40" rx="20" fill="#815DEF"/>
<rect x="347.574" y="121.023" width="9.75681" height="17.6086" rx="1.2167" stroke="#FAF9F6" stroke-width="1.46004"/>
<rect x="367.764" y="121.023" width="9.75681" height="17.6086" rx="1.2167" stroke="#FAF9F6" stroke-width="1.46004"/>
<rect x="355.862" y="122.357" width="13.5998" height="18.6198" rx="1.2167" fill="#815DEF" stroke="#FAF9F6" stroke-width="1.46004"/>
<path d="M366.615 131.539C364.356 131.575 362.704 129.975 362.668 127.716C362.704 129.975 361.104 131.627 358.845 131.662C361.104 131.627 362.755 133.226 362.791 135.486C362.755 133.227 364.355 131.575 366.615 131.539Z" fill="#FAF9F6"/>
<path d="M394.092 135.5V127.773H391.23V126.111H398.97V127.773H396.122V135.5H394.092ZM399.977 125.552H401.939V129.286C402.375 128.614 403.048 128.278 403.956 128.278C404.656 128.278 405.223 128.5 405.66 128.945C406.096 129.391 406.314 130.067 406.314 130.976V135.5H404.379V131.262C404.379 130.326 403.997 129.858 403.234 129.858C402.734 129.858 402.394 130.022 402.212 130.349C402.03 130.676 401.939 131.144 401.939 131.753V135.5H399.977V125.552ZM414.282 132.393H409.622C409.622 132.875 409.744 133.288 409.99 133.633C410.235 133.969 410.585 134.137 411.039 134.137C411.411 134.137 411.684 134.078 411.856 133.96C412.029 133.833 412.17 133.642 412.279 133.388H414.228C414.155 133.642 414.05 133.887 413.914 134.124C413.787 134.351 413.601 134.592 413.355 134.846C413.119 135.091 412.797 135.291 412.388 135.445C411.979 135.591 411.516 135.664 410.998 135.664C409.899 135.664 409.067 135.318 408.504 134.628C407.941 133.937 407.659 133.088 407.659 132.08C407.659 130.926 407.95 130.004 408.531 129.313C409.113 128.623 409.958 128.278 411.066 128.278C411.648 128.278 412.152 128.378 412.579 128.577C413.015 128.768 413.355 129.036 413.601 129.381C413.846 129.727 414.023 130.099 414.132 130.499C414.25 130.899 414.309 131.33 414.309 131.793C414.309 132.057 414.3 132.257 414.282 132.393ZM409.663 131.194H412.347C412.329 130.185 411.897 129.681 411.052 129.681C410.217 129.681 409.753 130.185 409.663 131.194ZM418.505 132.747H420.549C420.758 133.656 421.416 134.11 422.525 134.11C423.56 134.11 424.078 133.738 424.078 132.993C424.078 132.602 423.933 132.307 423.642 132.107C423.361 131.898 422.82 131.703 422.021 131.521C420.812 131.239 419.976 130.876 419.513 130.431C419.059 129.977 418.832 129.404 418.832 128.714C418.832 127.878 419.132 127.215 419.731 126.724C420.34 126.225 421.189 125.975 422.279 125.975C423.442 125.975 424.319 126.234 424.909 126.751C425.5 127.269 425.832 127.914 425.904 128.686H423.86C423.797 128.323 423.642 128.032 423.397 127.814C423.161 127.587 422.77 127.474 422.225 127.474C421.344 127.474 420.903 127.81 420.903 128.482C420.903 128.809 421.03 129.059 421.285 129.232C421.548 129.404 422.061 129.577 422.825 129.749C424.105 130.058 424.978 130.453 425.441 130.935C425.913 131.407 426.15 132.011 426.15 132.747C426.15 133.619 425.822 134.319 425.168 134.846C424.514 135.373 423.583 135.636 422.375 135.636C421.221 135.636 420.313 135.377 419.649 134.86C418.995 134.342 418.614 133.638 418.505 132.747ZM426.736 129.913V128.441H427.826V126.533H429.775V128.441H431.165V129.913H429.775V133.401C429.775 133.674 429.825 133.865 429.925 133.974C430.034 134.083 430.234 134.137 430.524 134.137C430.724 134.137 430.87 134.133 430.96 134.124V135.459C430.706 135.55 430.27 135.595 429.652 135.595C428.989 135.595 428.517 135.432 428.235 135.105C427.963 134.769 427.826 134.274 427.826 133.619V129.913H426.736ZM438.148 130.717V133.674C438.148 134.637 438.179 135.246 438.243 135.5H436.376C436.313 135.336 436.281 135.105 436.281 134.805C435.908 135.377 435.245 135.664 434.291 135.664C433.492 135.664 432.888 135.45 432.479 135.023C432.079 134.587 431.879 134.065 431.879 133.456C431.879 132.675 432.17 132.089 432.751 131.698C433.342 131.298 434.169 131.098 435.232 131.098H436.24V130.676C436.24 130.013 435.877 129.681 435.15 129.681C434.768 129.681 434.5 129.754 434.346 129.899C434.2 130.036 434.105 130.249 434.06 130.54H432.206C432.324 129.032 433.333 128.278 435.232 128.278C437.176 128.296 438.148 129.109 438.148 130.717ZM436.24 132.475V132.284H435.45C434.877 132.284 434.464 132.37 434.209 132.543C433.955 132.716 433.828 132.979 433.828 133.333C433.828 133.606 433.914 133.833 434.087 134.015C434.259 134.187 434.514 134.274 434.85 134.274C435.413 134.274 435.786 134.115 435.967 133.797C436.149 133.479 436.24 133.038 436.24 132.475ZM439.9 135.5V130.363C439.9 129.481 439.896 128.841 439.886 128.441H441.808C441.844 128.659 441.862 129.073 441.862 129.681C442.026 129.263 442.298 128.927 442.68 128.673C443.071 128.418 443.552 128.287 444.124 128.278V130.145C443.352 130.126 442.78 130.276 442.407 130.594C442.044 130.903 441.862 131.512 441.862 132.42V135.5H439.9Z" fill="#FAF9F6"/>
<rect x="21" y="167" width="447" height="101" rx="16" fill="#FAF9F6" fill-opacity="0.1"/>
<path d="M47.64 201.5V190.574H43.644V188.99H53.508V190.574H49.512V201.5H47.64ZM54.9214 188.306H56.6854V193.634C57.2854 192.626 58.2214 192.122 59.4934 192.122C60.3694 192.122 61.1014 192.404 61.6894 192.968C62.2894 193.52 62.5894 194.414 62.5894 195.65V201.5H60.8254V195.938C60.8254 194.39 60.1954 193.616 58.9354 193.616C57.4354 193.616 56.6854 194.582 56.6854 196.514V201.5H54.9214V188.306ZM65.2222 201.5V192.338H66.9862V201.5H65.2222ZM66.9862 190.34H65.2222V188.306H66.9862V190.34ZM68.7548 198.854H70.5188C70.7588 199.85 71.4728 200.348 72.6608 200.348C73.8248 200.348 74.4068 199.916 74.4068 199.052C74.4068 198.644 74.2628 198.332 73.9748 198.116C73.6988 197.888 73.1528 197.672 72.3368 197.468C71.0648 197.168 70.2068 196.808 69.7628 196.388C69.3308 195.968 69.1148 195.416 69.1148 194.732C69.1148 194.012 69.3968 193.4 69.9608 192.896C70.5248 192.38 71.3708 192.122 72.4988 192.122C73.6268 192.122 74.4788 192.386 75.0548 192.914C75.6308 193.43 75.9488 194.054 76.0088 194.786H74.3168C74.1128 193.898 73.4828 193.454 72.4268 193.454C71.8748 193.454 71.4728 193.562 71.2208 193.778C70.9808 193.994 70.8608 194.264 70.8608 194.588C70.8608 194.924 70.9928 195.188 71.2568 195.38C71.5208 195.56 72.0548 195.746 72.8588 195.938C74.1908 196.25 75.0848 196.64 75.5408 197.108C75.9968 197.564 76.2248 198.164 76.2248 198.908C76.2248 199.736 75.9068 200.414 75.2708 200.942C74.6468 201.458 73.7528 201.716 72.5888 201.716C71.4248 201.716 70.5248 201.458 69.8888 200.942C69.2528 200.426 68.8748 199.73 68.7548 198.854ZM81.9384 198.854H83.7024C83.9424 199.85 84.6564 200.348 85.8444 200.348C87.0084 200.348 87.5904 199.916 87.5904 199.052C87.5904 198.644 87.4464 198.332 87.1584 198.116C86.8824 197.888 86.3364 197.672 85.5204 197.468C84.2484 197.168 83.3904 196.808 82.9464 196.388C82.5144 195.968 82.2984 195.416 82.2984 194.732C82.2984 194.012 82.5804 193.4 83.1444 192.896C83.7084 192.38 84.5544 192.122 85.6824 192.122C86.8104 192.122 87.6624 192.386 88.2384 192.914C88.8144 193.43 89.1324 194.054 89.1924 194.786H87.5004C87.2964 193.898 86.6664 193.454 85.6104 193.454C85.0584 193.454 84.6564 193.562 84.4044 193.778C84.1644 193.994 84.0444 194.264 84.0444 194.588C84.0444 194.924 84.1764 195.188 84.4404 195.38C84.7044 195.56 85.2384 195.746 86.0424 195.938C87.3744 196.25 88.2684 196.64 88.7244 197.108C89.1804 197.564 89.4084 198.164 89.4084 198.908C89.4084 199.736 89.0904 200.414 88.4544 200.942C87.8304 201.458 86.9364 201.716 85.7724 201.716C84.6084 201.716 83.7084 201.458 83.0724 200.942C82.4364 200.426 82.0584 199.73 81.9384 198.854ZM93.0546 205.082H91.2906V194.57C91.2906 193.562 91.2846 192.818 91.2726 192.338H92.9826C93.0306 192.722 93.0546 193.184 93.0546 193.724C93.6186 192.656 94.5906 192.122 95.9706 192.122C97.0506 192.122 97.9326 192.536 98.6166 193.364C99.3006 194.192 99.6426 195.296 99.6426 196.676C99.6426 198.26 99.2646 199.496 98.5086 200.384C97.7526 201.272 96.7986 201.716 95.6466 201.716C94.4106 201.716 93.5466 201.29 93.0546 200.438V205.082ZM97.8246 196.748C97.8246 195.788 97.6146 195.026 97.1946 194.462C96.7866 193.886 96.2166 193.598 95.4846 193.598C94.5966 193.598 93.9546 193.874 93.5586 194.426C93.1626 194.978 92.9646 195.806 92.9646 196.91C92.9646 198.014 93.1446 198.848 93.5046 199.412C93.8766 199.964 94.4946 200.24 95.3586 200.24C96.1626 200.24 96.7746 199.934 97.1946 199.322C97.6146 198.71 97.8246 197.852 97.8246 196.748ZM101.644 201.5V194.822C101.644 194.366 101.638 193.868 101.626 193.328C101.626 192.788 101.626 192.458 101.626 192.338H103.354C103.39 192.59 103.408 193.196 103.408 194.156C103.648 193.544 104.032 193.058 104.56 192.698C105.088 192.326 105.724 192.134 106.468 192.122V193.868C104.428 193.904 103.408 194.996 103.408 197.144V201.5H101.644ZM115.514 197.252H109.142C109.154 198.14 109.37 198.866 109.79 199.43C110.21 199.982 110.786 200.258 111.518 200.258C112.13 200.258 112.586 200.138 112.886 199.898C113.198 199.658 113.438 199.334 113.606 198.926H115.388C115.28 199.262 115.142 199.58 114.974 199.88C114.806 200.168 114.572 200.462 114.272 200.762C113.984 201.05 113.594 201.284 113.102 201.464C112.622 201.632 112.076 201.716 111.464 201.716C110.108 201.716 109.082 201.26 108.386 200.348C107.702 199.436 107.36 198.326 107.36 197.018C107.36 195.578 107.72 194.402 108.44 193.49C109.172 192.578 110.216 192.122 111.572 192.122C112.28 192.122 112.904 192.254 113.444 192.518C113.984 192.782 114.398 193.13 114.686 193.562C114.986 193.994 115.202 194.456 115.334 194.948C115.478 195.44 115.55 195.956 115.55 196.496C115.55 196.832 115.538 197.084 115.514 197.252ZM109.196 196.046H113.768C113.756 195.29 113.564 194.678 113.192 194.21C112.82 193.73 112.274 193.49 111.554 193.49C110.15 193.49 109.364 194.342 109.196 196.046ZM124.483 195.146V199.43C124.483 200.414 124.525 201.104 124.609 201.5H122.935C122.875 201.32 122.821 200.942 122.773 200.366C122.305 201.266 121.381 201.716 120.001 201.716C118.981 201.716 118.207 201.44 117.679 200.888C117.163 200.336 116.905 199.676 116.905 198.908C116.905 197.9 117.277 197.15 118.021 196.658C118.777 196.154 119.851 195.902 121.243 195.902H122.755V195.164C122.755 194.036 122.137 193.472 120.901 193.472C120.241 193.472 119.791 193.598 119.551 193.85C119.311 194.09 119.143 194.432 119.047 194.876H117.337C117.409 194.084 117.727 193.424 118.291 192.896C118.855 192.368 119.743 192.11 120.955 192.122C123.307 192.122 124.483 193.13 124.483 195.146ZM122.773 197.378V197.09H121.369C119.593 197.09 118.705 197.66 118.705 198.8C118.705 199.268 118.855 199.646 119.155 199.934C119.455 200.222 119.869 200.366 120.397 200.366C120.901 200.366 121.315 200.288 121.639 200.132C121.975 199.976 122.221 199.748 122.377 199.448C122.533 199.148 122.635 198.842 122.683 198.53C122.743 198.206 122.773 197.822 122.773 197.378ZM133.144 188.306H134.908V198.926C134.908 200.054 134.914 200.912 134.926 201.5H133.216C133.168 201.164 133.144 200.75 133.144 200.258C132.664 201.23 131.722 201.716 130.318 201.716C129.154 201.716 128.224 201.284 127.528 200.42C126.844 199.556 126.502 198.422 126.502 197.018C126.502 195.578 126.874 194.402 127.618 193.49C128.362 192.578 129.364 192.122 130.624 192.122C131.932 192.122 132.772 192.494 133.144 193.238V188.306ZM128.338 196.964C128.338 197.996 128.554 198.8 128.986 199.376C129.43 199.952 130.006 200.24 130.714 200.24C131.218 200.24 131.638 200.156 131.974 199.988C132.31 199.808 132.562 199.55 132.73 199.214C132.91 198.878 133.03 198.524 133.09 198.152C133.162 197.768 133.198 197.318 133.198 196.802C133.198 195.722 133.036 194.918 132.712 194.39C132.388 193.862 131.764 193.598 130.84 193.598C130.048 193.598 129.43 193.892 128.986 194.48C128.554 195.068 128.338 195.896 128.338 196.964ZM143.803 205.082H142.039V194.57C142.039 193.562 142.033 192.818 142.021 192.338H143.731C143.779 192.722 143.803 193.184 143.803 193.724C144.367 192.656 145.339 192.122 146.719 192.122C147.799 192.122 148.681 192.536 149.365 193.364C150.049 194.192 150.391 195.296 150.391 196.676C150.391 198.26 150.013 199.496 149.257 200.384C148.501 201.272 147.547 201.716 146.395 201.716C145.159 201.716 144.295 201.29 143.803 200.438V205.082ZM148.573 196.748C148.573 195.788 148.363 195.026 147.943 194.462C147.535 193.886 146.965 193.598 146.233 193.598C145.345 193.598 144.703 193.874 144.307 194.426C143.911 194.978 143.713 195.806 143.713 196.91C143.713 198.014 143.893 198.848 144.253 199.412C144.625 199.964 145.243 200.24 146.107 200.24C146.911 200.24 147.523 199.934 147.943 199.322C148.363 198.71 148.573 197.852 148.573 196.748ZM156.242 192.122C157.526 192.122 158.552 192.56 159.32 193.436C160.1 194.3 160.49 195.452 160.49 196.892C160.49 198.284 160.106 199.436 159.338 200.348C158.57 201.26 157.502 201.716 156.134 201.716C154.826 201.716 153.788 201.272 153.02 200.384C152.252 199.484 151.868 198.332 151.868 196.928C151.868 195.524 152.258 194.372 153.038 193.472C153.818 192.572 154.886 192.122 156.242 192.122ZM158.024 194.48C157.592 193.88 156.974 193.58 156.17 193.58C155.366 193.58 154.748 193.874 154.316 194.462C153.896 195.05 153.686 195.866 153.686 196.91C153.686 197.906 153.914 198.716 154.37 199.34C154.826 199.952 155.438 200.258 156.206 200.258C156.986 200.258 157.592 199.958 158.024 199.358C158.468 198.758 158.69 197.948 158.69 196.928C158.69 195.896 158.468 195.08 158.024 194.48ZM162.482 201.5V192.338H164.246V201.5H162.482ZM164.246 190.34H162.482V188.306H164.246V190.34ZM166.877 201.5V194.642C166.877 193.574 166.871 192.806 166.859 192.338H168.587C168.635 192.698 168.659 193.178 168.659 193.778C169.163 192.674 170.105 192.122 171.485 192.122C172.409 192.122 173.147 192.416 173.699 193.004C174.263 193.592 174.545 194.462 174.545 195.614V201.5H172.781V195.83C172.781 194.354 172.163 193.616 170.927 193.616C169.415 193.616 168.659 194.612 168.659 196.604V201.5H166.877ZM175.921 193.742V192.338H177.469V189.674H179.233V192.338H181.213V193.742H179.233V198.944C179.233 199.4 179.305 199.73 179.449 199.934C179.593 200.126 179.863 200.222 180.259 200.222C180.607 200.222 180.859 200.198 181.015 200.15V201.464C180.703 201.572 180.229 201.626 179.593 201.626C178.849 201.626 178.309 201.44 177.973 201.068C177.637 200.684 177.469 200.096 177.469 199.304V193.742H175.921ZM182.257 198.854H184.021C184.261 199.85 184.975 200.348 186.163 200.348C187.327 200.348 187.909 199.916 187.909 199.052C187.909 198.644 187.765 198.332 187.477 198.116C187.201 197.888 186.655 197.672 185.839 197.468C184.567 197.168 183.709 196.808 183.265 196.388C182.833 195.968 182.617 195.416 182.617 194.732C182.617 194.012 182.899 193.4 183.463 192.896C184.027 192.38 184.873 192.122 186.001 192.122C187.129 192.122 187.981 192.386 188.557 192.914C189.133 193.43 189.451 194.054 189.511 194.786H187.819C187.615 193.898 186.985 193.454 185.929 193.454C185.377 193.454 184.975 193.562 184.723 193.778C184.483 193.994 184.363 194.264 184.363 194.588C184.363 194.924 184.495 195.188 184.759 195.38C185.023 195.56 185.557 195.746 186.361 195.938C187.693 196.25 188.587 196.64 189.043 197.108C189.499 197.564 189.727 198.164 189.727 198.908C189.727 199.736 189.409 200.414 188.773 200.942C188.149 201.458 187.255 201.716 186.091 201.716C184.927 201.716 184.027 201.458 183.391 200.942C182.755 200.426 182.377 199.73 182.257 198.854ZM195.098 193.742V192.338H196.646V189.674H198.41V192.338H200.39V193.742H198.41V198.944C198.41 199.4 198.482 199.73 198.626 199.934C198.77 200.126 199.04 200.222 199.436 200.222C199.784 200.222 200.036 200.198 200.192 200.15V201.464C199.88 201.572 199.406 201.626 198.77 201.626C198.026 201.626 197.486 201.44 197.15 201.068C196.814 200.684 196.646 200.096 196.646 199.304V193.742H195.098ZM205.706 192.122C206.99 192.122 208.016 192.56 208.784 193.436C209.564 194.3 209.954 195.452 209.954 196.892C209.954 198.284 209.57 199.436 208.802 200.348C208.034 201.26 206.966 201.716 205.598 201.716C204.29 201.716 203.252 201.272 202.484 200.384C201.716 199.484 201.332 198.332 201.332 196.928C201.332 195.524 201.722 194.372 202.502 193.472C203.282 192.572 204.35 192.122 205.706 192.122ZM207.488 194.48C207.056 193.88 206.438 193.58 205.634 193.58C204.83 193.58 204.212 193.874 203.78 194.462C203.36 195.05 203.15 195.866 203.15 196.91C203.15 197.906 203.378 198.716 203.834 199.34C204.29 199.952 204.902 200.258 205.67 200.258C206.45 200.258 207.056 199.958 207.488 199.358C207.932 198.758 208.154 197.948 208.154 196.928C208.154 195.896 207.932 195.08 207.488 194.48ZM223.43 195.146V199.43C223.43 200.414 223.472 201.104 223.556 201.5H221.882C221.822 201.32 221.768 200.942 221.72 200.366C221.252 201.266 220.328 201.716 218.948 201.716C217.928 201.716 217.154 201.44 216.626 200.888C216.11 200.336 215.852 199.676 215.852 198.908C215.852 197.9 216.224 197.15 216.968 196.658C217.724 196.154 218.798 195.902 220.19 195.902H221.702V195.164C221.702 194.036 221.084 193.472 219.848 193.472C219.188 193.472 218.738 193.598 218.498 193.85C218.258 194.09 218.09 194.432 217.994 194.876H216.284C216.356 194.084 216.674 193.424 217.238 192.896C217.802 192.368 218.69 192.11 219.902 192.122C222.254 192.122 223.43 193.13 223.43 195.146ZM221.72 197.378V197.09H220.316C218.54 197.09 217.652 197.66 217.652 198.8C217.652 199.268 217.802 199.646 218.102 199.934C218.402 200.222 218.816 200.366 219.344 200.366C219.848 200.366 220.262 200.288 220.586 200.132C220.922 199.976 221.168 199.748 221.324 199.448C221.48 199.148 221.582 198.842 221.63 198.53C221.69 198.206 221.72 197.822 221.72 197.378ZM229.481 193.742V192.338H231.029V189.674H232.793V192.338H234.773V193.742H232.793V198.944C232.793 199.4 232.865 199.73 233.009 199.934C233.153 200.126 233.423 200.222 233.819 200.222C234.167 200.222 234.419 200.198 234.575 200.15V201.464C234.263 201.572 233.789 201.626 233.153 201.626C232.409 201.626 231.869 201.44 231.533 201.068C231.197 200.684 231.029 200.096 231.029 199.304V193.742H229.481ZM236.363 201.5V194.822C236.363 194.366 236.357 193.868 236.345 193.328C236.345 192.788 236.345 192.458 236.345 192.338H238.073C238.109 192.59 238.127 193.196 238.127 194.156C238.367 193.544 238.751 193.058 239.279 192.698C239.807 192.326 240.443 192.134 241.187 192.122V193.868C239.147 193.904 238.127 194.996 238.127 197.144V201.5H236.363ZM250.214 192.338V198.836C250.214 199.148 250.214 199.628 250.214 200.276C250.226 200.924 250.232 201.332 250.232 201.5H248.504C248.468 201.26 248.45 200.822 248.45 200.186C247.97 201.206 247.064 201.716 245.732 201.716C244.832 201.716 244.1 201.452 243.536 200.924C242.972 200.384 242.69 199.526 242.69 198.35V192.338H244.454V197.972C244.454 199.46 245.054 200.204 246.254 200.204C247.046 200.204 247.61 199.97 247.946 199.502C248.282 199.022 248.45 198.23 248.45 197.126V192.338H250.214ZM251.893 193.742V192.338H253.441V189.674H255.205V192.338H257.185V193.742H255.205V198.944C255.205 199.4 255.277 199.73 255.421 199.934C255.565 200.126 255.835 200.222 256.231 200.222C256.579 200.222 256.831 200.198 256.987 200.15V201.464C256.675 201.572 256.201 201.626 255.565 201.626C254.821 201.626 254.281 201.44 253.945 201.068C253.609 200.684 253.441 200.096 253.441 199.304V193.742H251.893ZM258.81 188.306H260.574V193.634C261.174 192.626 262.11 192.122 263.382 192.122C264.258 192.122 264.99 192.404 265.578 192.968C266.178 193.52 266.478 194.414 266.478 195.65V201.5H264.714V195.938C264.714 194.39 264.084 193.616 262.824 193.616C261.324 193.616 260.574 194.582 260.574 196.514V201.5H258.81V188.306ZM272.512 193.742V192.338H274.06V189.674H275.824V192.338H277.804V193.742H275.824V198.944C275.824 199.4 275.896 199.73 276.04 199.934C276.184 200.126 276.454 200.222 276.85 200.222C277.198 200.222 277.45 200.198 277.606 200.15V201.464C277.294 201.572 276.82 201.626 276.184 201.626C275.44 201.626 274.9 201.44 274.564 201.068C274.228 200.684 274.06 200.096 274.06 199.304V193.742H272.512ZM279.429 188.306H281.193V193.634C281.793 192.626 282.729 192.122 284.001 192.122C284.877 192.122 285.609 192.404 286.197 192.968C286.797 193.52 287.097 194.414 287.097 195.65V201.5H285.333V195.938C285.333 194.39 284.703 193.616 283.443 193.616C281.943 193.616 281.193 194.582 281.193 196.514V201.5H279.429V188.306ZM296.591 195.146V199.43C296.591 200.414 296.633 201.104 296.717 201.5H295.043C294.983 201.32 294.929 200.942 294.881 200.366C294.413 201.266 293.489 201.716 292.109 201.716C291.089 201.716 290.315 201.44 289.787 200.888C289.271 200.336 289.013 199.676 289.013 198.908C289.013 197.9 289.385 197.15 290.129 196.658C290.885 196.154 291.959 195.902 293.351 195.902H294.863V195.164C294.863 194.036 294.245 193.472 293.009 193.472C292.349 193.472 291.899 193.598 291.659 193.85C291.419 194.09 291.251 194.432 291.155 194.876H289.445C289.517 194.084 289.835 193.424 290.399 192.896C290.963 192.368 291.851 192.11 293.063 192.122C295.415 192.122 296.591 193.13 296.591 195.146ZM294.881 197.378V197.09H293.477C291.701 197.09 290.813 197.66 290.813 198.8C290.813 199.268 290.963 199.646 291.263 199.934C291.563 200.222 291.977 200.366 292.505 200.366C293.009 200.366 293.423 200.288 293.747 200.132C294.083 199.976 294.329 199.748 294.485 199.448C294.641 199.148 294.743 198.842 294.791 198.53C294.851 198.206 294.881 197.822 294.881 197.378ZM297.983 193.742V192.338H299.531V189.674H301.295V192.338H303.275V193.742H301.295V198.944C301.295 199.4 301.367 199.73 301.511 199.934C301.655 200.126 301.925 200.222 302.321 200.222C302.669 200.222 302.921 200.198 303.077 200.15V201.464C302.765 201.572 302.291 201.626 301.655 201.626C300.911 201.626 300.371 201.44 300.035 201.068C299.699 200.684 299.531 200.096 299.531 199.304V193.742H297.983ZM308.605 192.338H310.477C311.605 196.694 312.223 199.208 312.331 199.88H312.349C312.541 198.944 313.213 196.43 314.365 192.338H316.075C317.251 196.742 317.887 199.202 317.983 199.718H318.001C318.229 198.674 318.871 196.214 319.927 192.338H321.709L318.901 201.5H316.993C315.769 196.748 315.151 194.33 315.139 194.246H315.121C315.025 194.846 314.389 197.264 313.213 201.5H311.251L308.605 192.338ZM330.024 195.146V199.43C330.024 200.414 330.066 201.104 330.15 201.5H328.476C328.416 201.32 328.362 200.942 328.314 200.366C327.846 201.266 326.922 201.716 325.542 201.716C324.522 201.716 323.748 201.44 323.22 200.888C322.704 200.336 322.446 199.676 322.446 198.908C322.446 197.9 322.818 197.15 323.562 196.658C324.318 196.154 325.392 195.902 326.784 195.902H328.296V195.164C328.296 194.036 327.678 193.472 326.442 193.472C325.782 193.472 325.332 193.598 325.092 193.85C324.852 194.09 324.684 194.432 324.588 194.876H322.878C322.95 194.084 323.268 193.424 323.832 192.896C324.396 192.368 325.284 192.11 326.496 192.122C328.848 192.122 330.024 193.13 330.024 195.146ZM328.314 197.378V197.09H326.91C325.134 197.09 324.246 197.66 324.246 198.8C324.246 199.268 324.396 199.646 324.696 199.934C324.996 200.222 325.41 200.366 325.938 200.366C326.442 200.366 326.856 200.288 327.18 200.132C327.516 199.976 327.762 199.748 327.918 199.448C328.074 199.148 328.176 198.842 328.224 198.53C328.284 198.206 328.314 197.822 328.314 197.378ZM332.673 201.5V194.642C332.673 193.574 332.667 192.806 332.655 192.338H334.383C334.431 192.698 334.455 193.178 334.455 193.778C334.959 192.674 335.901 192.122 337.281 192.122C338.205 192.122 338.943 192.416 339.495 193.004C340.059 193.592 340.341 194.462 340.341 195.614V201.5H338.577V195.83C338.577 194.354 337.959 193.616 336.723 193.616C335.211 193.616 334.455 194.612 334.455 196.604V201.5H332.673ZM341.718 193.742V192.338H343.266V189.674H345.03V192.338H347.01V193.742H345.03V198.944C345.03 199.4 345.102 199.73 345.246 199.934C345.39 200.126 345.66 200.222 346.056 200.222C346.404 200.222 346.656 200.198 346.812 200.15V201.464C346.5 201.572 346.026 201.626 345.39 201.626C344.646 201.626 344.106 201.44 343.77 201.068C343.434 200.684 343.266 200.096 343.266 199.304V193.742H341.718ZM348.054 198.854H349.818C350.058 199.85 350.772 200.348 351.96 200.348C353.124 200.348 353.706 199.916 353.706 199.052C353.706 198.644 353.562 198.332 353.274 198.116C352.998 197.888 352.452 197.672 351.636 197.468C350.364 197.168 349.506 196.808 349.062 196.388C348.63 195.968 348.414 195.416 348.414 194.732C348.414 194.012 348.696 193.4 349.26 192.896C349.824 192.38 350.67 192.122 351.798 192.122C352.926 192.122 353.778 192.386 354.354 192.914C354.93 193.43 355.248 194.054 355.308 194.786H353.616C353.412 193.898 352.782 193.454 351.726 193.454C351.174 193.454 350.772 193.562 350.52 193.778C350.28 193.994 350.16 194.264 350.16 194.588C350.16 194.924 350.292 195.188 350.556 195.38C350.82 195.56 351.354 195.746 352.158 195.938C353.49 196.25 354.384 196.64 354.84 197.108C355.296 197.564 355.524 198.164 355.524 198.908C355.524 199.736 355.206 200.414 354.57 200.942C353.946 201.458 353.052 201.716 351.888 201.716C350.724 201.716 349.824 201.458 349.188 200.942C348.552 200.426 348.174 199.73 348.054 198.854ZM360.895 193.742V192.338H362.443V189.674H364.207V192.338H366.187V193.742H364.207V198.944C364.207 199.4 364.279 199.73 364.423 199.934C364.567 200.126 364.837 200.222 365.233 200.222C365.581 200.222 365.833 200.198 365.989 200.15V201.464C365.677 201.572 365.203 201.626 364.567 201.626C363.823 201.626 363.283 201.44 362.947 201.068C362.611 200.684 362.443 200.096 362.443 199.304V193.742H360.895ZM371.503 192.122C372.787 192.122 373.813 192.56 374.581 193.436C375.361 194.3 375.751 195.452 375.751 196.892C375.751 198.284 375.367 199.436 374.599 200.348C373.831 201.26 372.763 201.716 371.395 201.716C370.087 201.716 369.049 201.272 368.281 200.384C367.513 199.484 367.129 198.332 367.129 196.928C367.129 195.524 367.519 194.372 368.299 193.472C369.079 192.572 370.147 192.122 371.503 192.122ZM373.285 194.48C372.853 193.88 372.235 193.58 371.431 193.58C370.627 193.58 370.009 193.874 369.577 194.462C369.157 195.05 368.947 195.866 368.947 196.91C368.947 197.906 369.175 198.716 369.631 199.34C370.087 199.952 370.699 200.258 371.467 200.258C372.247 200.258 372.853 199.958 373.285 199.358C373.729 198.758 373.951 197.948 373.951 196.928C373.951 195.896 373.729 195.08 373.285 194.48ZM381.487 198.854H383.251C383.491 199.85 384.205 200.348 385.393 200.348C386.557 200.348 387.139 199.916 387.139 199.052C387.139 198.644 386.995 198.332 386.707 198.116C386.431 197.888 385.885 197.672 385.069 197.468C383.797 197.168 382.939 196.808 382.495 196.388C382.063 195.968 381.847 195.416 381.847 194.732C381.847 194.012 382.129 193.4 382.693 192.896C383.257 192.38 384.103 192.122 385.231 192.122C386.359 192.122 387.211 192.386 387.787 192.914C388.363 193.43 388.681 194.054 388.741 194.786H387.049C386.845 193.898 386.215 193.454 385.159 193.454C384.607 193.454 384.205 193.562 383.953 193.778C383.713 193.994 383.593 194.264 383.593 194.588C383.593 194.924 383.725 195.188 383.989 195.38C384.253 195.56 384.787 195.746 385.591 195.938C386.923 196.25 387.817 196.64 388.273 197.108C388.729 197.564 388.957 198.164 388.957 198.908C388.957 199.736 388.639 200.414 388.003 200.942C387.379 201.458 386.485 201.716 385.321 201.716C384.157 201.716 383.257 201.458 382.621 200.942C381.985 200.426 381.607 199.73 381.487 198.854ZM398.257 192.338V198.836C398.257 199.148 398.257 199.628 398.257 200.276C398.269 200.924 398.275 201.332 398.275 201.5H396.547C396.511 201.26 396.493 200.822 396.493 200.186C396.013 201.206 395.107 201.716 393.775 201.716C392.875 201.716 392.143 201.452 391.579 200.924C391.015 200.384 390.733 199.526 390.733 198.35V192.338H392.497V197.972C392.497 199.46 393.097 200.204 394.297 200.204C395.089 200.204 395.653 199.97 395.989 199.502C396.325 199.022 396.493 198.23 396.493 197.126V192.338H398.257ZM400.877 201.5V194.822C400.877 194.366 400.871 193.868 400.859 193.328C400.859 192.788 400.859 192.458 400.859 192.338H402.587C402.623 192.59 402.641 193.196 402.641 194.156C402.881 193.544 403.265 193.058 403.793 192.698C404.321 192.326 404.957 192.134 405.701 192.122V193.868C403.661 193.904 402.641 194.996 402.641 197.144V201.5H400.877ZM409.889 201.5H408.125V193.742H406.685V192.338H408.125V191.294C408.125 190.346 408.341 189.584 408.773 189.008C409.205 188.42 409.895 188.126 410.843 188.126C411.323 188.126 411.671 188.162 411.887 188.234V189.71C411.707 189.662 411.455 189.638 411.131 189.638C410.687 189.638 410.369 189.776 410.177 190.052C409.985 190.328 409.889 190.784 409.889 191.42V192.338H411.689V193.742H409.889V201.5ZM419.884 195.146V199.43C419.884 200.414 419.926 201.104 420.01 201.5H418.336C418.276 201.32 418.222 200.942 418.174 200.366C417.706 201.266 416.782 201.716 415.402 201.716C414.382 201.716 413.608 201.44 413.08 200.888C412.564 200.336 412.306 199.676 412.306 198.908C412.306 197.9 412.678 197.15 413.422 196.658C414.178 196.154 415.252 195.902 416.644 195.902H418.156V195.164C418.156 194.036 417.538 193.472 416.302 193.472C415.642 193.472 415.192 193.598 414.952 193.85C414.712 194.09 414.544 194.432 414.448 194.876H412.738C412.81 194.084 413.128 193.424 413.692 192.896C414.256 192.368 415.144 192.11 416.356 192.122C418.708 192.122 419.884 193.13 419.884 195.146ZM418.174 197.378V197.09H416.77C414.994 197.09 414.106 197.66 414.106 198.8C414.106 199.268 414.256 199.646 414.556 199.934C414.856 200.222 415.27 200.366 415.798 200.366C416.302 200.366 416.716 200.288 417.04 200.132C417.376 199.976 417.622 199.748 417.778 199.448C417.934 199.148 418.036 198.842 418.084 198.53C418.144 198.206 418.174 197.822 418.174 197.378ZM428.149 198.674H429.895C429.679 199.562 429.259 200.294 428.635 200.87C428.023 201.434 427.159 201.716 426.043 201.716C424.759 201.716 423.751 201.29 423.019 200.438C422.287 199.574 421.921 198.416 421.921 196.964C421.921 195.596 422.299 194.45 423.055 193.526C423.811 192.59 424.849 192.122 426.169 192.122C426.805 192.122 427.369 192.23 427.861 192.446C428.365 192.65 428.749 192.92 429.013 193.256C429.289 193.58 429.493 193.91 429.625 194.246C429.769 194.57 429.859 194.894 429.895 195.218H428.149C427.909 194.126 427.237 193.58 426.133 193.58C425.377 193.58 424.789 193.88 424.369 194.48C423.949 195.08 423.739 195.89 423.739 196.91C423.739 197.942 423.943 198.764 424.351 199.376C424.759 199.976 425.335 200.276 426.079 200.276C427.099 200.276 427.789 199.742 428.149 198.674ZM439.356 197.252H432.984C432.996 198.14 433.212 198.866 433.632 199.43C434.052 199.982 434.628 200.258 435.36 200.258C435.972 200.258 436.428 200.138 436.728 199.898C437.04 199.658 437.28 199.334 437.448 198.926H439.23C439.122 199.262 438.984 199.58 438.816 199.88C438.648 200.168 438.414 200.462 438.114 200.762C437.826 201.05 437.436 201.284 436.944 201.464C436.464 201.632 435.918 201.716 435.306 201.716C433.95 201.716 432.924 201.26 432.228 200.348C431.544 199.436 431.202 198.326 431.202 197.018C431.202 195.578 431.562 194.402 432.282 193.49C433.014 192.578 434.058 192.122 435.414 192.122C436.122 192.122 436.746 192.254 437.286 192.518C437.826 192.782 438.24 193.13 438.528 193.562C438.828 193.994 439.044 194.456 439.176 194.948C439.32 195.44 439.392 195.956 439.392 196.496C439.392 196.832 439.38 197.084 439.356 197.252ZM433.038 196.046H437.61C437.598 195.29 437.406 194.678 437.034 194.21C436.662 193.73 436.116 193.49 435.396 193.49C433.992 193.49 433.206 194.342 433.038 196.046ZM443.03 201.5H441.158V198.746H443.03V201.5ZM47.64 221.5V210.574H43.644V208.99H53.508V210.574H49.512V221.5H47.64ZM54.9214 208.306H56.6854V213.634C57.2854 212.626 58.2214 212.122 59.4934 212.122C60.3694 212.122 61.1014 212.404 61.6894 212.968C62.2894 213.52 62.5894 214.414 62.5894 215.65V221.5H60.8254V215.938C60.8254 214.39 60.1954 213.616 58.9354 213.616C57.4354 213.616 56.6854 214.582 56.6854 216.514V221.5H54.9214V208.306ZM72.7462 217.252H66.3742C66.3862 218.14 66.6022 218.866 67.0222 219.43C67.4422 219.982 68.0182 220.258 68.7502 220.258C69.3622 220.258 69.8182 220.138 70.1182 219.898C70.4302 219.658 70.6702 219.334 70.8382 218.926H72.6202C72.5122 219.262 72.3742 219.58 72.2062 219.88C72.0382 220.168 71.8042 220.462 71.5042 220.762C71.2162 221.05 70.8262 221.284 70.3342 221.464C69.8542 221.632 69.3082 221.716 68.6962 221.716C67.3402 221.716 66.3142 221.26 65.6182 220.348C64.9342 219.436 64.5922 218.326 64.5922 217.018C64.5922 215.578 64.9522 214.402 65.6722 213.49C66.4042 212.578 67.4482 212.122 68.8042 212.122C69.5122 212.122 70.1362 212.254 70.6762 212.518C71.2162 212.782 71.6302 213.13 71.9182 213.562C72.2182 213.994 72.4342 214.456 72.5662 214.948C72.7102 215.44 72.7822 215.956 72.7822 216.496C72.7822 216.832 72.7702 217.084 72.7462 217.252ZM66.4282 216.046H71.0002C70.9882 215.29 70.7962 214.678 70.4242 214.21C70.0522 213.73 69.5062 213.49 68.7862 213.49C67.3822 213.49 66.5962 214.342 66.4282 216.046ZM84.8831 218.674H86.6291C86.4131 219.562 85.9931 220.294 85.3691 220.87C84.7571 221.434 83.8931 221.716 82.7771 221.716C81.4931 221.716 80.4851 221.29 79.7531 220.438C79.0211 219.574 78.6551 218.416 78.6551 216.964C78.6551 215.596 79.0331 214.45 79.7891 213.526C80.5451 212.59 81.5831 212.122 82.9031 212.122C83.5391 212.122 84.1031 212.23 84.5951 212.446C85.0991 212.65 85.4831 212.92 85.7471 213.256C86.0231 213.58 86.2271 213.91 86.3591 214.246C86.5031 214.57 86.5931 214.894 86.6291 215.218H84.8831C84.6431 214.126 83.9711 213.58 82.8671 213.58C82.1111 213.58 81.5231 213.88 81.1031 214.48C80.6831 215.08 80.4731 215.89 80.4731 216.91C80.4731 217.942 80.6771 218.764 81.0851 219.376C81.4931 219.976 82.0691 220.276 82.8131 220.276C83.8331 220.276 84.5231 219.742 84.8831 218.674ZM92.31 212.122C93.594 212.122 94.62 212.56 95.388 213.436C96.168 214.3 96.558 215.452 96.558 216.892C96.558 218.284 96.174 219.436 95.406 220.348C94.638 221.26 93.57 221.716 92.202 221.716C90.894 221.716 89.856 221.272 89.088 220.384C88.32 219.484 87.936 218.332 87.936 216.928C87.936 215.524 88.326 214.372 89.106 213.472C89.886 212.572 90.954 212.122 92.31 212.122ZM94.092 214.48C93.66 213.88 93.042 213.58 92.238 213.58C91.434 213.58 90.816 213.874 90.384 214.462C89.964 215.05 89.754 215.866 89.754 216.91C89.754 217.906 89.982 218.716 90.438 219.34C90.894 219.952 91.506 220.258 92.274 220.258C93.054 220.258 93.66 219.958 94.092 219.358C94.536 218.758 94.758 217.948 94.758 216.928C94.758 215.896 94.536 215.08 94.092 214.48ZM98.5503 221.5V214.642C98.5503 213.574 98.5443 212.806 98.5323 212.338H100.26C100.308 212.698 100.332 213.178 100.332 213.778C100.836 212.674 101.778 212.122 103.158 212.122C104.082 212.122 104.82 212.416 105.372 213.004C105.936 213.592 106.218 214.462 106.218 215.614V221.5H104.454V215.83C104.454 214.354 103.836 213.616 102.6 213.616C101.088 213.616 100.332 214.612 100.332 216.604V221.5H98.5503ZM108.834 221.5V214.642C108.834 213.574 108.828 212.806 108.816 212.338H110.544C110.592 212.698 110.616 213.178 110.616 213.778C111.12 212.674 112.062 212.122 113.442 212.122C114.366 212.122 115.104 212.416 115.656 213.004C116.22 213.592 116.502 214.462 116.502 215.614V221.5H114.738V215.83C114.738 214.354 114.12 213.616 112.884 213.616C111.372 213.616 110.616 214.612 110.616 216.604V221.5H108.834ZM126.641 217.252H120.269C120.281 218.14 120.497 218.866 120.917 219.43C121.337 219.982 121.913 220.258 122.645 220.258C123.257 220.258 123.713 220.138 124.013 219.898C124.325 219.658 124.565 219.334 124.733 218.926H126.515C126.407 219.262 126.269 219.58 126.101 219.88C125.933 220.168 125.699 220.462 125.399 220.762C125.111 221.05 124.721 221.284 124.229 221.464C123.749 221.632 123.203 221.716 122.591 221.716C121.235 221.716 120.209 221.26 119.513 220.348C118.829 219.436 118.487 218.326 118.487 217.018C118.487 215.578 118.847 214.402 119.567 213.49C120.299 212.578 121.343 212.122 122.699 212.122C123.407 212.122 124.031 212.254 124.571 212.518C125.111 212.782 125.525 213.13 125.813 213.562C126.113 213.994 126.329 214.456 126.461 214.948C126.605 215.44 126.677 215.956 126.677 216.496C126.677 216.832 126.665 217.084 126.641 217.252ZM120.323 216.046H124.895C124.883 215.29 124.691 214.678 124.319 214.21C123.947 213.73 123.401 213.49 122.681 213.49C121.277 213.49 120.491 214.342 120.323 216.046ZM134.383 218.674H136.129C135.913 219.562 135.493 220.294 134.869 220.87C134.257 221.434 133.393 221.716 132.277 221.716C130.993 221.716 129.985 221.29 129.253 220.438C128.521 219.574 128.155 218.416 128.155 216.964C128.155 215.596 128.533 214.45 129.289 213.526C130.045 212.59 131.083 212.122 132.403 212.122C133.039 212.122 133.603 212.23 134.095 212.446C134.599 212.65 134.983 212.92 135.247 213.256C135.523 213.58 135.727 213.91 135.859 214.246C136.003 214.57 136.093 214.894 136.129 215.218H134.383C134.143 214.126 133.471 213.58 132.367 213.58C131.611 213.58 131.023 213.88 130.603 214.48C130.183 215.08 129.973 215.89 129.973 216.91C129.973 217.942 130.177 218.764 130.585 219.376C130.993 219.976 131.569 220.276 132.313 220.276C133.333 220.276 134.023 219.742 134.383 218.674ZM137.038 213.742V212.338H138.586V209.674H140.35V212.338H142.33V213.742H140.35V218.944C140.35 219.4 140.422 219.73 140.566 219.934C140.71 220.126 140.98 220.222 141.376 220.222C141.724 220.222 141.976 220.198 142.132 220.15V221.464C141.82 221.572 141.346 221.626 140.71 221.626C139.966 221.626 139.426 221.44 139.09 221.068C138.754 220.684 138.586 220.096 138.586 219.304V213.742H137.038ZM143.955 221.5V212.338H145.719V221.5H143.955ZM145.719 210.34H143.955V208.306H145.719V210.34ZM152.093 212.122C153.377 212.122 154.403 212.56 155.171 213.436C155.951 214.3 156.341 215.452 156.341 216.892C156.341 218.284 155.957 219.436 155.189 220.348C154.421 221.26 153.353 221.716 151.985 221.716C150.677 221.716 149.639 221.272 148.871 220.384C148.103 219.484 147.719 218.332 147.719 216.928C147.719 215.524 148.109 214.372 148.889 213.472C149.669 212.572 150.737 212.122 152.093 212.122ZM153.875 214.48C153.443 213.88 152.825 213.58 152.021 213.58C151.217 213.58 150.599 213.874 150.167 214.462C149.747 215.05 149.537 215.866 149.537 216.91C149.537 217.906 149.765 218.716 150.221 219.34C150.677 219.952 151.289 220.258 152.057 220.258C152.837 220.258 153.443 219.958 153.875 219.358C154.319 218.758 154.541 217.948 154.541 216.928C154.541 215.896 154.319 215.08 153.875 214.48ZM158.334 221.5V214.642C158.334 213.574 158.328 212.806 158.316 212.338H160.044C160.092 212.698 160.116 213.178 160.116 213.778C160.62 212.674 161.562 212.122 162.942 212.122C163.866 212.122 164.604 212.416 165.156 213.004C165.72 213.592 166.002 214.462 166.002 215.614V221.5H164.238V215.83C164.238 214.354 163.62 213.616 162.384 213.616C160.872 213.616 160.116 214.612 160.116 216.604V221.5H158.334ZM173.134 221.5V214.696C173.134 213.628 173.128 212.842 173.116 212.338H174.808C174.856 212.698 174.88 213.148 174.88 213.688C175.444 212.644 176.326 212.122 177.526 212.122C178.15 212.122 178.678 212.266 179.11 212.554C179.542 212.842 179.848 213.226 180.028 213.706C180.652 212.65 181.618 212.122 182.926 212.122C183.766 212.122 184.456 212.398 184.996 212.95C185.548 213.49 185.824 214.336 185.824 215.488V221.5H184.096V215.686C184.096 215.098 183.964 214.606 183.7 214.21C183.436 213.814 182.992 213.616 182.368 213.616C181.684 213.616 181.174 213.85 180.838 214.318C180.514 214.774 180.352 215.416 180.352 216.244V221.5H178.624V215.758C178.624 214.33 178.06 213.616 176.932 213.616C176.26 213.616 175.75 213.868 175.402 214.372C175.054 214.864 174.88 215.548 174.88 216.424V221.5H173.134ZM195.305 215.146V219.43C195.305 220.414 195.347 221.104 195.431 221.5H193.757C193.697 221.32 193.643 220.942 193.595 220.366C193.127 221.266 192.203 221.716 190.823 221.716C189.803 221.716 189.029 221.44 188.501 220.888C187.985 220.336 187.727 219.676 187.727 218.908C187.727 217.9 188.099 217.15 188.843 216.658C189.599 216.154 190.673 215.902 192.065 215.902H193.577V215.164C193.577 214.036 192.959 213.472 191.723 213.472C191.063 213.472 190.613 213.598 190.373 213.85C190.133 214.09 189.965 214.432 189.869 214.876H188.159C188.231 214.084 188.549 213.424 189.113 212.896C189.677 212.368 190.565 212.11 191.777 212.122C194.129 212.122 195.305 213.13 195.305 215.146ZM193.595 217.378V217.09H192.191C190.415 217.09 189.527 217.66 189.527 218.8C189.527 219.268 189.677 219.646 189.977 219.934C190.277 220.222 190.691 220.366 191.219 220.366C191.723 220.366 192.137 220.288 192.461 220.132C192.797 219.976 193.043 219.748 193.199 219.448C193.355 219.148 193.457 218.842 193.505 218.53C193.565 218.206 193.595 217.822 193.595 217.378ZM196.697 212.338H198.605C199.997 216.502 200.807 219.028 201.035 219.916H201.053C201.341 218.812 202.115 216.286 203.375 212.338H205.157L201.899 221.896C201.443 223.24 200.975 224.134 200.495 224.578C200.027 225.034 199.307 225.262 198.335 225.262C198.023 225.262 197.681 225.244 197.309 225.208V223.696C197.537 223.732 197.783 223.75 198.047 223.75C198.599 223.75 199.019 223.612 199.307 223.336C199.595 223.06 199.865 222.562 200.117 221.842L196.697 212.338ZM213.208 221.5H211.444V213.742H210.004V212.338H211.444V211.294C211.444 210.346 211.66 209.584 212.092 209.008C212.524 208.42 213.214 208.126 214.162 208.126C214.642 208.126 214.99 208.162 215.206 208.234V209.71C215.026 209.662 214.774 209.638 214.45 209.638C214.006 209.638 213.688 209.776 213.496 210.052C213.304 210.328 213.208 210.784 213.208 211.42V212.338H215.008V213.742H213.208V221.5ZM223.848 217.252H217.476C217.488 218.14 217.704 218.866 218.124 219.43C218.544 219.982 219.12 220.258 219.852 220.258C220.464 220.258 220.92 220.138 221.22 219.898C221.532 219.658 221.772 219.334 221.94 218.926H223.722C223.614 219.262 223.476 219.58 223.308 219.88C223.14 220.168 222.906 220.462 222.606 220.762C222.318 221.05 221.928 221.284 221.436 221.464C220.956 221.632 220.41 221.716 219.798 221.716C218.442 221.716 217.416 221.26 216.72 220.348C216.036 219.436 215.694 218.326 215.694 217.018C215.694 215.578 216.054 214.402 216.774 213.49C217.506 212.578 218.55 212.122 219.906 212.122C220.614 212.122 221.238 212.254 221.778 212.518C222.318 212.782 222.732 213.13 223.02 213.562C223.32 213.994 223.536 214.456 223.668 214.948C223.812 215.44 223.884 215.956 223.884 216.496C223.884 216.832 223.872 217.084 223.848 217.252ZM217.53 216.046H222.102C222.09 215.29 221.898 214.678 221.526 214.21C221.154 213.73 220.608 213.49 219.888 213.49C218.484 213.49 217.698 214.342 217.53 216.046ZM233.498 217.252H227.126C227.138 218.14 227.354 218.866 227.774 219.43C228.194 219.982 228.77 220.258 229.502 220.258C230.114 220.258 230.57 220.138 230.87 219.898C231.182 219.658 231.422 219.334 231.59 218.926H233.372C233.264 219.262 233.126 219.58 232.958 219.88C232.79 220.168 232.556 220.462 232.256 220.762C231.968 221.05 231.578 221.284 231.086 221.464C230.606 221.632 230.06 221.716 229.448 221.716C228.092 221.716 227.066 221.26 226.37 220.348C225.686 219.436 225.344 218.326 225.344 217.018C225.344 215.578 225.704 214.402 226.424 213.49C227.156 212.578 228.2 212.122 229.556 212.122C230.264 212.122 230.888 212.254 231.428 212.518C231.968 212.782 232.382 213.13 232.67 213.562C232.97 213.994 233.186 214.456 233.318 214.948C233.462 215.44 233.534 215.956 233.534 216.496C233.534 216.832 233.522 217.084 233.498 217.252ZM227.18 216.046H231.752C231.74 215.29 231.548 214.678 231.176 214.21C230.804 213.73 230.258 213.49 229.538 213.49C228.134 213.49 227.348 214.342 227.18 216.046ZM237.318 221.5H235.554V208.306H237.318V221.5ZM244.466 221.5V212.338H246.23V221.5H244.466ZM246.23 210.34H244.466V208.306H246.23V210.34ZM248.861 221.5V214.642C248.861 213.574 248.855 212.806 248.843 212.338H250.571C250.619 212.698 250.643 213.178 250.643 213.778C251.147 212.674 252.089 212.122 253.469 212.122C254.393 212.122 255.131 212.416 255.683 213.004C256.247 213.592 256.529 214.462 256.529 215.614V221.5H254.765V215.83C254.765 214.354 254.147 213.616 252.911 213.616C251.399 213.616 250.643 214.612 250.643 216.604V221.5H248.861ZM257.905 213.742V212.338H259.453V209.674H261.217V212.338H263.197V213.742H261.217V218.944C261.217 219.4 261.289 219.73 261.433 219.934C261.577 220.126 261.847 220.222 262.243 220.222C262.591 220.222 262.843 220.198 262.999 220.15V221.464C262.687 221.572 262.213 221.626 261.577 221.626C260.833 221.626 260.293 221.44 259.957 221.068C259.621 220.684 259.453 220.096 259.453 219.304V213.742H257.905ZM272.293 217.252H265.921C265.933 218.14 266.149 218.866 266.569 219.43C266.989 219.982 267.565 220.258 268.297 220.258C268.909 220.258 269.365 220.138 269.665 219.898C269.977 219.658 270.217 219.334 270.385 218.926H272.167C272.059 219.262 271.921 219.58 271.753 219.88C271.585 220.168 271.351 220.462 271.051 220.762C270.763 221.05 270.373 221.284 269.881 221.464C269.401 221.632 268.855 221.716 268.243 221.716C266.887 221.716 265.861 221.26 265.165 220.348C264.481 219.436 264.139 218.326 264.139 217.018C264.139 215.578 264.499 214.402 265.219 213.49C265.951 212.578 266.995 212.122 268.351 212.122C269.059 212.122 269.683 212.254 270.223 212.518C270.763 212.782 271.177 213.13 271.465 213.562C271.765 213.994 271.981 214.456 272.113 214.948C272.257 215.44 272.329 215.956 272.329 216.496C272.329 216.832 272.317 217.084 272.293 217.252ZM265.975 216.046H270.547C270.535 215.29 270.343 214.678 269.971 214.21C269.599 213.73 269.053 213.49 268.333 213.49C266.929 213.49 266.143 214.342 265.975 216.046ZM274.296 221.5V214.642C274.296 213.574 274.29 212.806 274.278 212.338H276.006C276.054 212.698 276.078 213.178 276.078 213.778C276.582 212.674 277.524 212.122 278.904 212.122C279.828 212.122 280.566 212.416 281.118 213.004C281.682 213.592 281.964 214.462 281.964 215.614V221.5H280.2V215.83C280.2 214.354 279.582 213.616 278.346 213.616C276.834 213.616 276.078 214.612 276.078 216.604V221.5H274.296ZM283.7 218.854H285.464C285.704 219.85 286.418 220.348 287.606 220.348C288.77 220.348 289.352 219.916 289.352 219.052C289.352 218.644 289.208 218.332 288.92 218.116C288.644 217.888 288.098 217.672 287.282 217.468C286.01 217.168 285.152 216.808 284.708 216.388C284.276 215.968 284.06 215.416 284.06 214.732C284.06 214.012 284.342 213.4 284.906 212.896C285.47 212.38 286.316 212.122 287.444 212.122C288.572 212.122 289.424 212.386 290 212.914C290.576 213.43 290.894 214.054 290.954 214.786H289.262C289.058 213.898 288.428 213.454 287.372 213.454C286.82 213.454 286.418 213.562 286.166 213.778C285.926 213.994 285.806 214.264 285.806 214.588C285.806 214.924 285.938 215.188 286.202 215.38C286.466 215.56 287 215.746 287.804 215.938C289.136 216.25 290.03 216.64 290.486 217.108C290.942 217.564 291.17 218.164 291.17 218.908C291.17 219.736 290.852 220.414 290.216 220.942C289.592 221.458 288.698 221.716 287.534 221.716C286.37 221.716 285.47 221.458 284.834 220.942C284.198 220.426 283.82 219.73 283.7 218.854ZM300.717 217.252H294.345C294.357 218.14 294.573 218.866 294.993 219.43C295.413 219.982 295.989 220.258 296.721 220.258C297.333 220.258 297.789 220.138 298.089 219.898C298.401 219.658 298.641 219.334 298.809 218.926H300.591C300.483 219.262 300.345 219.58 300.177 219.88C300.009 220.168 299.775 220.462 299.475 220.762C299.187 221.05 298.797 221.284 298.305 221.464C297.825 221.632 297.279 221.716 296.667 221.716C295.311 221.716 294.285 221.26 293.589 220.348C292.905 219.436 292.563 218.326 292.563 217.018C292.563 215.578 292.923 214.402 293.643 213.49C294.375 212.578 295.419 212.122 296.775 212.122C297.483 212.122 298.107 212.254 298.647 212.518C299.187 212.782 299.601 213.13 299.889 213.562C300.189 213.994 300.405 214.456 300.537 214.948C300.681 215.44 300.753 215.956 300.753 216.496C300.753 216.832 300.741 217.084 300.717 217.252ZM294.399 216.046H298.971C298.959 215.29 298.767 214.678 298.395 214.21C298.023 213.73 297.477 213.49 296.757 213.49C295.353 213.49 294.567 214.342 294.399 216.046ZM303.164 223.57H301.742C302.486 221.95 302.918 220.342 303.038 218.746H304.838C304.646 220.666 304.088 222.274 303.164 223.57ZM311.474 218.44V208.306H313.238V213.58C313.778 212.608 314.732 212.122 316.1 212.122C317.252 212.122 318.164 212.548 318.836 213.4C319.508 214.252 319.844 215.362 319.844 216.73C319.844 218.17 319.49 219.364 318.782 220.312C318.086 221.248 317.114 221.716 315.866 221.716C314.606 221.716 313.724 221.26 313.22 220.348C313.22 220.78 313.196 221.164 313.148 221.5H311.456C311.468 220.816 311.474 219.796 311.474 218.44ZM318.044 216.766C318.044 215.806 317.834 215.038 317.414 214.462C316.994 213.886 316.406 213.598 315.65 213.598C314.762 213.598 314.12 213.88 313.724 214.444C313.34 215.008 313.148 215.842 313.148 216.946C313.148 219.142 313.964 220.24 315.596 220.24C316.364 220.24 316.964 219.934 317.396 219.322C317.828 218.698 318.044 217.846 318.044 216.766ZM329.333 212.338V218.836C329.333 219.148 329.333 219.628 329.333 220.276C329.345 220.924 329.351 221.332 329.351 221.5H327.623C327.587 221.26 327.569 220.822 327.569 220.186C327.089 221.206 326.183 221.716 324.851 221.716C323.951 221.716 323.219 221.452 322.655 220.924C322.091 220.384 321.809 219.526 321.809 218.35V212.338H323.573V217.972C323.573 219.46 324.173 220.204 325.373 220.204C326.165 220.204 326.729 219.97 327.065 219.502C327.401 219.022 327.569 218.23 327.569 217.126V212.338H329.333ZM331.012 213.742V212.338H332.56V209.674H334.324V212.338H336.304V213.742H334.324V218.944C334.324 219.4 334.396 219.73 334.54 219.934C334.684 220.126 334.954 220.222 335.35 220.222C335.698 220.222 335.95 220.198 336.106 220.15V221.464C335.794 221.572 335.32 221.626 334.684 221.626C333.94 221.626 333.4 221.44 333.064 221.068C332.728 220.684 332.56 220.096 332.56 219.304V213.742H331.012ZM342.535 221.5V212.338H344.299V221.5H342.535ZM344.299 210.34H342.535V208.306H344.299V210.34ZM345.866 213.742V212.338H347.414V209.674H349.178V212.338H351.158V213.742H349.178V218.944C349.178 219.4 349.25 219.73 349.394 219.934C349.538 220.126 349.808 220.222 350.204 220.222C350.552 220.222 350.804 220.198 350.96 220.15V221.464C350.648 221.572 350.174 221.626 349.538 221.626C348.794 221.626 348.254 221.44 347.918 221.068C347.582 220.684 347.414 220.096 347.414 219.304V213.742H345.866ZM357.388 221.5V212.338H359.152V221.5H357.388ZM359.152 210.34H357.388V208.306H359.152V210.34ZM360.921 218.854H362.685C362.925 219.85 363.639 220.348 364.827 220.348C365.991 220.348 366.573 219.916 366.573 219.052C366.573 218.644 366.429 218.332 366.141 218.116C365.865 217.888 365.319 217.672 364.503 217.468C363.231 217.168 362.373 216.808 361.929 216.388C361.497 215.968 361.281 215.416 361.281 214.732C361.281 214.012 361.563 213.4 362.127 212.896C362.691 212.38 363.537 212.122 364.665 212.122C365.793 212.122 366.645 212.386 367.221 212.914C367.797 213.43 368.115 214.054 368.175 214.786H366.483C366.279 213.898 365.649 213.454 364.593 213.454C364.041 213.454 363.639 213.562 363.387 213.778C363.147 213.994 363.027 214.264 363.027 214.588C363.027 214.924 363.159 215.188 363.423 215.38C363.687 215.56 364.221 215.746 365.025 215.938C366.357 216.25 367.251 216.64 367.707 217.108C368.163 217.564 368.391 218.164 368.391 218.908C368.391 219.736 368.073 220.414 367.437 220.942C366.813 221.458 365.919 221.716 364.755 221.716C363.591 221.716 362.691 221.458 362.055 220.942C361.419 220.426 361.041 219.73 360.921 218.854ZM374.878 208.306H376.642V213.634C377.242 212.626 378.178 212.122 379.45 212.122C380.326 212.122 381.058 212.404 381.646 212.968C382.246 213.52 382.546 214.414 382.546 215.65V221.5H380.782V215.938C380.782 214.39 380.152 213.616 378.892 213.616C377.392 213.616 376.642 214.582 376.642 216.514V221.5H374.878V208.306ZM392.703 217.252H386.331C386.343 218.14 386.559 218.866 386.979 219.43C387.399 219.982 387.975 220.258 388.707 220.258C389.319 220.258 389.775 220.138 390.075 219.898C390.387 219.658 390.627 219.334 390.795 218.926H392.577C392.469 219.262 392.331 219.58 392.163 219.88C391.995 220.168 391.761 220.462 391.461 220.762C391.173 221.05 390.783 221.284 390.291 221.464C389.811 221.632 389.265 221.716 388.653 221.716C387.297 221.716 386.271 221.26 385.575 220.348C384.891 219.436 384.549 218.326 384.549 217.018C384.549 215.578 384.909 214.402 385.629 213.49C386.361 212.578 387.405 212.122 388.761 212.122C389.469 212.122 390.093 212.254 390.633 212.518C391.173 212.782 391.587 213.13 391.875 213.562C392.175 213.994 392.391 214.456 392.523 214.948C392.667 215.44 392.739 215.956 392.739 216.496C392.739 216.832 392.727 217.084 392.703 217.252ZM386.385 216.046H390.957C390.945 215.29 390.753 214.678 390.381 214.21C390.009 213.73 389.463 213.49 388.743 213.49C387.339 213.49 386.553 214.342 386.385 216.046ZM394.707 221.5V214.822C394.707 214.366 394.701 213.868 394.689 213.328C394.689 212.788 394.689 212.458 394.689 212.338H396.417C396.453 212.59 396.471 213.196 396.471 214.156C396.711 213.544 397.095 213.058 397.623 212.698C398.151 212.326 398.787 212.134 399.531 212.122V213.868C397.491 213.904 396.471 214.996 396.471 217.144V221.5H394.707ZM408.576 217.252H402.204C402.216 218.14 402.432 218.866 402.852 219.43C403.272 219.982 403.848 220.258 404.58 220.258C405.192 220.258 405.648 220.138 405.948 219.898C406.26 219.658 406.5 219.334 406.668 218.926H408.45C408.342 219.262 408.204 219.58 408.036 219.88C407.868 220.168 407.634 220.462 407.334 220.762C407.046 221.05 406.656 221.284 406.164 221.464C405.684 221.632 405.138 221.716 404.526 221.716C403.17 221.716 402.144 221.26 401.448 220.348C400.764 219.436 400.422 218.326 400.422 217.018C400.422 215.578 400.782 214.402 401.502 213.49C402.234 212.578 403.278 212.122 404.634 212.122C405.342 212.122 405.966 212.254 406.506 212.518C407.046 212.782 407.46 213.13 407.748 213.562C408.048 213.994 408.264 214.456 408.396 214.948C408.54 215.44 408.612 215.956 408.612 216.496C408.612 216.832 408.6 217.084 408.576 217.252ZM402.258 216.046H406.83C406.818 215.29 406.626 214.678 406.254 214.21C405.882 213.73 405.336 213.49 404.616 213.49C403.212 213.49 402.426 214.342 402.258 216.046ZM413.981 213.742V212.338H415.529V209.674H417.293V212.338H419.273V213.742H417.293V218.944C417.293 219.4 417.365 219.73 417.509 219.934C417.653 220.126 417.923 220.222 418.319 220.222C418.667 220.222 418.919 220.198 419.075 220.15V221.464C418.763 221.572 418.289 221.626 417.653 221.626C416.909 221.626 416.369 221.44 416.033 221.068C415.697 220.684 415.529 220.096 415.529 219.304V213.742H413.981ZM424.589 212.122C425.873 212.122 426.899 212.56 427.667 213.436C428.447 214.3 428.837 215.452 428.837 216.892C428.837 218.284 428.453 219.436 427.685 220.348C426.917 221.26 425.849 221.716 424.481 221.716C423.173 221.716 422.135 221.272 421.367 220.384C420.599 219.484 420.215 218.332 420.215 216.928C420.215 215.524 420.605 214.372 421.385 213.472C422.165 212.572 423.233 212.122 424.589 212.122ZM426.371 214.48C425.939 213.88 425.321 213.58 424.517 213.58C423.713 213.58 423.095 213.874 422.663 214.462C422.243 215.05 422.033 215.866 422.033 216.91C422.033 217.906 422.261 218.716 422.717 219.34C423.173 219.952 423.785 220.258 424.553 220.258C425.333 220.258 425.939 219.958 426.371 219.358C426.815 218.758 427.037 217.948 427.037 216.928C427.037 215.896 426.815 215.08 426.371 214.48ZM44.04 238.854H45.804C46.044 239.85 46.758 240.348 47.946 240.348C49.11 240.348 49.692 239.916 49.692 239.052C49.692 238.644 49.548 238.332 49.26 238.116C48.984 237.888 48.438 237.672 47.622 237.468C46.35 237.168 45.492 236.808 45.048 236.388C44.616 235.968 44.4 235.416 44.4 234.732C44.4 234.012 44.682 233.4 45.246 232.896C45.81 232.38 46.656 232.122 47.784 232.122C48.912 232.122 49.764 232.386 50.34 232.914C50.916 233.43 51.234 234.054 51.294 234.786H49.602C49.398 233.898 48.768 233.454 47.712 233.454C47.16 233.454 46.758 233.562 46.506 233.778C46.266 233.994 46.146 234.264 46.146 234.588C46.146 234.924 46.278 235.188 46.542 235.38C46.806 235.56 47.34 235.746 48.144 235.938C49.476 236.25 50.37 236.64 50.826 237.108C51.282 237.564 51.51 238.164 51.51 238.908C51.51 239.736 51.192 240.414 50.556 240.942C49.932 241.458 49.038 241.716 47.874 241.716C46.71 241.716 45.81 241.458 45.174 240.942C44.538 240.426 44.16 239.73 44.04 238.854ZM53.357 228.306H55.121V233.634C55.721 232.626 56.657 232.122 57.929 232.122C58.805 232.122 59.537 232.404 60.125 232.968C60.725 233.52 61.025 234.414 61.025 235.65V241.5H59.261V235.938C59.261 234.39 58.631 233.616 57.371 233.616C55.871 233.616 55.121 234.582 55.121 236.514V241.5H53.357V228.306ZM67.4018 232.122C68.6858 232.122 69.7118 232.56 70.4798 233.436C71.2598 234.3 71.6498 235.452 71.6498 236.892C71.6498 238.284 71.2658 239.436 70.4978 240.348C69.7298 241.26 68.6618 241.716 67.2938 241.716C65.9858 241.716 64.9478 241.272 64.1798 240.384C63.4118 239.484 63.0278 238.332 63.0278 236.928C63.0278 235.524 63.4178 234.372 64.1978 233.472C64.9778 232.572 66.0458 232.122 67.4018 232.122ZM69.1838 234.48C68.7518 233.88 68.1338 233.58 67.3298 233.58C66.5258 233.58 65.9078 233.874 65.4758 234.462C65.0558 235.05 64.8458 235.866 64.8458 236.91C64.8458 237.906 65.0738 238.716 65.5298 239.34C65.9858 239.952 66.5978 240.258 67.3658 240.258C68.1458 240.258 68.7518 239.958 69.1838 239.358C69.6278 238.758 69.8498 237.948 69.8498 236.928C69.8498 235.896 69.6278 235.08 69.1838 234.48ZM72.6542 232.338H74.5262C75.6542 236.694 76.2722 239.208 76.3802 239.88H76.3982C76.5902 238.944 77.2622 236.43 78.4142 232.338H80.1242C81.3002 236.742 81.9362 239.202 82.0322 239.718H82.0502C82.2782 238.674 82.9202 236.214 83.9762 232.338H85.7582L82.9502 241.5H81.0422C79.8182 236.748 79.2002 234.33 79.1882 234.246H79.1702C79.0742 234.846 78.4382 237.264 77.2622 241.5H75.3002L72.6542 232.338ZM91.1113 232.338H92.9833C94.1113 236.694 94.7293 239.208 94.8373 239.88H94.8553C95.0473 238.944 95.7193 236.43 96.8713 232.338H98.5813C99.7573 236.742 100.393 239.202 100.489 239.718H100.507C100.735 238.674 101.377 236.214 102.433 232.338H104.215L101.407 241.5H99.4993C98.2753 236.748 97.6573 234.33 97.6453 234.246H97.6273C97.5313 234.846 96.8953 237.264 95.7193 241.5H93.7573L91.1113 232.338ZM105.81 228.306H107.574V233.634C108.174 232.626 109.11 232.122 110.382 232.122C111.258 232.122 111.99 232.404 112.578 232.968C113.178 233.52 113.478 234.414 113.478 235.65V241.5H111.714V235.938C111.714 234.39 111.084 233.616 109.824 233.616C108.324 233.616 107.574 234.582 107.574 236.514V241.5H105.81V228.306ZM122.971 235.146V239.43C122.971 240.414 123.013 241.104 123.097 241.5H121.423C121.363 241.32 121.309 240.942 121.261 240.366C120.793 241.266 119.869 241.716 118.489 241.716C117.469 241.716 116.695 241.44 116.167 240.888C115.651 240.336 115.393 239.676 115.393 238.908C115.393 237.9 115.765 237.15 116.509 236.658C117.265 236.154 118.339 235.902 119.731 235.902H121.243V235.164C121.243 234.036 120.625 233.472 119.389 233.472C118.729 233.472 118.279 233.598 118.039 233.85C117.799 234.09 117.631 234.432 117.535 234.876H115.825C115.897 234.084 116.215 233.424 116.779 232.896C117.343 232.368 118.231 232.11 119.443 232.122C121.795 232.122 122.971 233.13 122.971 235.146ZM121.261 237.378V237.09H119.857C118.081 237.09 117.193 237.66 117.193 238.8C117.193 239.268 117.343 239.646 117.643 239.934C117.943 240.222 118.357 240.366 118.885 240.366C119.389 240.366 119.803 240.288 120.127 240.132C120.463 239.976 120.709 239.748 120.865 239.448C121.021 239.148 121.123 238.842 121.171 238.53C121.231 238.206 121.261 237.822 121.261 237.378ZM124.364 233.742V232.338H125.912V229.674H127.676V232.338H129.656V233.742H127.676V238.944C127.676 239.4 127.748 239.73 127.892 239.934C128.036 240.126 128.306 240.222 128.702 240.222C129.05 240.222 129.302 240.198 129.458 240.15V241.464C129.146 241.572 128.672 241.626 128.036 241.626C127.292 241.626 126.752 241.44 126.416 241.068C126.08 240.684 125.912 240.096 125.912 239.304V233.742H124.364ZM135.886 241.5V234.642C135.886 233.574 135.88 232.806 135.868 232.338H137.596C137.644 232.698 137.668 233.178 137.668 233.778C138.172 232.674 139.114 232.122 140.494 232.122C141.418 232.122 142.156 232.416 142.708 233.004C143.272 233.592 143.554 234.462 143.554 235.614V241.5H141.79V235.83C141.79 234.354 141.172 233.616 139.936 233.616C138.424 233.616 137.668 234.612 137.668 236.604V241.5H135.886ZM153.693 237.252H147.321C147.333 238.14 147.549 238.866 147.969 239.43C148.389 239.982 148.965 240.258 149.697 240.258C150.309 240.258 150.765 240.138 151.065 239.898C151.377 239.658 151.617 239.334 151.785 238.926H153.567C153.459 239.262 153.321 239.58 153.153 239.88C152.985 240.168 152.751 240.462 152.451 240.762C152.163 241.05 151.773 241.284 151.281 241.464C150.801 241.632 150.255 241.716 149.643 241.716C148.287 241.716 147.261 241.26 146.565 240.348C145.881 239.436 145.539 238.326 145.539 237.018C145.539 235.578 145.899 234.402 146.619 233.49C147.351 232.578 148.395 232.122 149.751 232.122C150.459 232.122 151.083 232.254 151.623 232.518C152.163 232.782 152.577 233.13 152.865 233.562C153.165 233.994 153.381 234.456 153.513 234.948C153.657 235.44 153.729 235.956 153.729 236.496C153.729 236.832 153.717 237.084 153.693 237.252ZM147.375 236.046H151.947C151.935 235.29 151.743 234.678 151.371 234.21C150.999 233.73 150.453 233.49 149.733 233.49C148.329 233.49 147.543 234.342 147.375 236.046ZM163.344 237.252H156.972C156.984 238.14 157.2 238.866 157.62 239.43C158.04 239.982 158.616 240.258 159.348 240.258C159.96 240.258 160.416 240.138 160.716 239.898C161.028 239.658 161.268 239.334 161.436 238.926H163.218C163.11 239.262 162.972 239.58 162.804 239.88C162.636 240.168 162.402 240.462 162.102 240.762C161.814 241.05 161.424 241.284 160.932 241.464C160.452 241.632 159.906 241.716 159.294 241.716C157.938 241.716 156.912 241.26 156.216 240.348C155.532 239.436 155.19 238.326 155.19 237.018C155.19 235.578 155.55 234.402 156.27 233.49C157.002 232.578 158.046 232.122 159.402 232.122C160.11 232.122 160.734 232.254 161.274 232.518C161.814 232.782 162.228 233.13 162.516 233.562C162.816 233.994 163.032 234.456 163.164 234.948C163.308 235.44 163.38 235.956 163.38 236.496C163.38 236.832 163.368 237.084 163.344 237.252ZM157.026 236.046H161.598C161.586 235.29 161.394 234.678 161.022 234.21C160.65 233.73 160.104 233.49 159.384 233.49C157.98 233.49 157.194 234.342 157.026 236.046ZM171.482 228.306H173.246V238.926C173.246 240.054 173.252 240.912 173.264 241.5H171.554C171.506 241.164 171.482 240.75 171.482 240.258C171.002 241.23 170.06 241.716 168.656 241.716C167.492 241.716 166.562 241.284 165.866 240.42C165.182 239.556 164.84 238.422 164.84 237.018C164.84 235.578 165.212 234.402 165.956 233.49C166.7 232.578 167.702 232.122 168.962 232.122C170.27 232.122 171.11 232.494 171.482 233.238V228.306ZM166.676 236.964C166.676 237.996 166.892 238.8 167.324 239.376C167.768 239.952 168.344 240.24 169.052 240.24C169.556 240.24 169.976 240.156 170.312 239.988C170.648 239.808 170.9 239.55 171.068 239.214C171.248 238.878 171.368 238.524 171.428 238.152C171.5 237.768 171.536 237.318 171.536 236.802C171.536 235.722 171.374 234.918 171.05 234.39C170.726 233.862 170.102 233.598 169.178 233.598C168.386 233.598 167.768 233.892 167.324 234.48C166.892 235.068 166.676 235.896 166.676 236.964ZM174.997 238.854H176.761C177.001 239.85 177.715 240.348 178.903 240.348C180.067 240.348 180.649 239.916 180.649 239.052C180.649 238.644 180.505 238.332 180.217 238.116C179.941 237.888 179.395 237.672 178.579 237.468C177.307 237.168 176.449 236.808 176.005 236.388C175.573 235.968 175.357 235.416 175.357 234.732C175.357 234.012 175.639 233.4 176.203 232.896C176.767 232.38 177.613 232.122 178.741 232.122C179.869 232.122 180.721 232.386 181.297 232.914C181.873 233.43 182.191 234.054 182.251 234.786H180.559C180.355 233.898 179.725 233.454 178.669 233.454C178.117 233.454 177.715 233.562 177.463 233.778C177.223 233.994 177.103 234.264 177.103 234.588C177.103 234.924 177.235 235.188 177.499 235.38C177.763 235.56 178.297 235.746 179.101 235.938C180.433 236.25 181.327 236.64 181.783 237.108C182.239 237.564 182.467 238.164 182.467 238.908C182.467 239.736 182.149 240.414 181.513 240.942C180.889 241.458 179.995 241.716 178.831 241.716C177.667 241.716 176.767 241.458 176.131 240.942C175.495 240.426 175.117 239.73 174.997 238.854ZM188.955 228.306H190.719V233.634C191.319 232.626 192.255 232.122 193.527 232.122C194.403 232.122 195.135 232.404 195.723 232.968C196.323 233.52 196.623 234.414 196.623 235.65V241.5H194.859V235.938C194.859 234.39 194.229 233.616 192.969 233.616C191.469 233.616 190.719 234.582 190.719 236.514V241.5H188.955V228.306ZM202.999 232.122C204.283 232.122 205.309 232.56 206.077 233.436C206.857 234.3 207.247 235.452 207.247 236.892C207.247 238.284 206.863 239.436 206.095 240.348C205.327 241.26 204.259 241.716 202.891 241.716C201.583 241.716 200.545 241.272 199.777 240.384C199.009 239.484 198.625 238.332 198.625 236.928C198.625 235.524 199.015 234.372 199.795 233.472C200.575 232.572 201.643 232.122 202.999 232.122ZM204.781 234.48C204.349 233.88 203.731 233.58 202.927 233.58C202.123 233.58 201.505 233.874 201.073 234.462C200.653 235.05 200.443 235.866 200.443 236.91C200.443 237.906 200.671 238.716 201.127 239.34C201.583 239.952 202.195 240.258 202.963 240.258C203.743 240.258 204.349 239.958 204.781 239.358C205.225 238.758 205.447 237.948 205.447 236.928C205.447 235.896 205.225 235.08 204.781 234.48ZM209.24 241.5V234.642C209.24 233.574 209.234 232.806 209.222 232.338H210.95C210.998 232.698 211.022 233.178 211.022 233.778C211.526 232.674 212.468 232.122 213.848 232.122C214.772 232.122 215.51 232.416 216.062 233.004C216.626 233.592 216.908 234.462 216.908 235.614V241.5H215.144V235.83C215.144 234.354 214.526 233.616 213.29 233.616C211.778 233.616 211.022 234.612 211.022 236.604V241.5H209.24ZM227.047 237.252H220.675C220.687 238.14 220.903 238.866 221.323 239.43C221.743 239.982 222.319 240.258 223.051 240.258C223.663 240.258 224.119 240.138 224.419 239.898C224.731 239.658 224.971 239.334 225.139 238.926H226.921C226.813 239.262 226.675 239.58 226.507 239.88C226.339 240.168 226.105 240.462 225.805 240.762C225.517 241.05 225.127 241.284 224.635 241.464C224.155 241.632 223.609 241.716 222.997 241.716C221.641 241.716 220.615 241.26 219.919 240.348C219.235 239.436 218.893 238.326 218.893 237.018C218.893 235.578 219.253 234.402 219.973 233.49C220.705 232.578 221.749 232.122 223.105 232.122C223.813 232.122 224.437 232.254 224.977 232.518C225.517 232.782 225.931 233.13 226.219 233.562C226.519 233.994 226.735 234.456 226.867 234.948C227.011 235.44 227.083 235.956 227.083 236.496C227.083 236.832 227.071 237.084 227.047 237.252ZM220.729 236.046H225.301C225.289 235.29 225.097 234.678 224.725 234.21C224.353 233.73 223.807 233.49 223.087 233.49C221.683 233.49 220.897 234.342 220.729 236.046ZM228.399 238.854H230.163C230.403 239.85 231.117 240.348 232.305 240.348C233.469 240.348 234.051 239.916 234.051 239.052C234.051 238.644 233.907 238.332 233.619 238.116C233.343 237.888 232.797 237.672 231.981 237.468C230.709 237.168 229.851 236.808 229.407 236.388C228.975 235.968 228.759 235.416 228.759 234.732C228.759 234.012 229.041 233.4 229.605 232.896C230.169 232.38 231.015 232.122 232.143 232.122C233.271 232.122 234.123 232.386 234.699 232.914C235.275 233.43 235.593 234.054 235.653 234.786H233.961C233.757 233.898 233.127 233.454 232.071 233.454C231.519 233.454 231.117 233.562 230.865 233.778C230.625 233.994 230.505 234.264 230.505 234.588C230.505 234.924 230.637 235.188 230.901 235.38C231.165 235.56 231.699 235.746 232.503 235.938C233.835 236.25 234.729 236.64 235.185 237.108C235.641 237.564 235.869 238.164 235.869 238.908C235.869 239.736 235.551 240.414 234.915 240.942C234.291 241.458 233.397 241.716 232.233 241.716C231.069 241.716 230.169 241.458 229.533 240.942C228.897 240.426 228.519 239.73 228.399 238.854ZM236.653 233.742V232.338H238.201V229.674H239.965V232.338H241.945V233.742H239.965V238.944C239.965 239.4 240.037 239.73 240.181 239.934C240.325 240.126 240.595 240.222 240.991 240.222C241.339 240.222 241.591 240.198 241.747 240.15V241.464C241.435 241.572 240.961 241.626 240.325 241.626C239.581 241.626 239.041 241.44 238.705 241.068C238.369 240.684 238.201 240.096 238.201 239.304V233.742H236.653ZM242.928 232.338H244.836C246.228 236.502 247.038 239.028 247.266 239.916H247.284C247.572 238.812 248.346 236.286 249.606 232.338H251.388L248.13 241.896C247.674 243.24 247.206 244.134 246.726 244.578C246.258 245.034 245.538 245.262 244.566 245.262C244.254 245.262 243.912 245.244 243.54 245.208V243.696C243.768 243.732 244.014 243.75 244.278 243.75C244.83 243.75 245.25 243.612 245.538 243.336C245.826 243.06 246.096 242.562 246.348 241.842L242.928 232.338ZM252.012 243.57H250.59C251.334 241.95 251.766 240.342 251.886 238.746H253.686C253.494 240.666 252.936 242.274 252.012 243.57ZM260.322 241.5V234.822C260.322 234.366 260.316 233.868 260.304 233.328C260.304 232.788 260.304 232.458 260.304 232.338H262.032C262.068 232.59 262.086 233.196 262.086 234.156C262.326 233.544 262.71 233.058 263.238 232.698C263.766 232.326 264.402 232.134 265.146 232.122V233.868C263.106 233.904 262.086 234.996 262.086 237.144V241.5H260.322ZM274.192 237.252H267.82C267.832 238.14 268.048 238.866 268.468 239.43C268.888 239.982 269.464 240.258 270.196 240.258C270.808 240.258 271.264 240.138 271.564 239.898C271.876 239.658 272.116 239.334 272.284 238.926H274.066C273.958 239.262 273.82 239.58 273.652 239.88C273.484 240.168 273.25 240.462 272.95 240.762C272.662 241.05 272.272 241.284 271.78 241.464C271.3 241.632 270.754 241.716 270.142 241.716C268.786 241.716 267.76 241.26 267.064 240.348C266.38 239.436 266.038 238.326 266.038 237.018C266.038 235.578 266.398 234.402 267.118 233.49C267.85 232.578 268.894 232.122 270.25 232.122C270.958 232.122 271.582 232.254 272.122 232.518C272.662 232.782 273.076 233.13 273.364 233.562C273.664 233.994 273.88 234.456 274.012 234.948C274.156 235.44 274.228 235.956 274.228 236.496C274.228 236.832 274.216 237.084 274.192 237.252ZM267.874 236.046H272.446C272.434 235.29 272.242 234.678 271.87 234.21C271.498 233.73 270.952 233.49 270.232 233.49C268.828 233.49 268.042 234.342 267.874 236.046ZM278.012 241.5H276.248V228.306H278.012V241.5ZM288.166 237.252H281.794C281.806 238.14 282.022 238.866 282.442 239.43C282.862 239.982 283.438 240.258 284.17 240.258C284.782 240.258 285.238 240.138 285.538 239.898C285.85 239.658 286.09 239.334 286.258 238.926H288.04C287.932 239.262 287.794 239.58 287.626 239.88C287.458 240.168 287.224 240.462 286.924 240.762C286.636 241.05 286.246 241.284 285.754 241.464C285.274 241.632 284.728 241.716 284.116 241.716C282.76 241.716 281.734 241.26 281.038 240.348C280.354 239.436 280.012 238.326 280.012 237.018C280.012 235.578 280.372 234.402 281.092 233.49C281.824 232.578 282.868 232.122 284.224 232.122C284.932 232.122 285.556 232.254 286.096 232.518C286.636 232.782 287.05 233.13 287.338 233.562C287.638 233.994 287.854 234.456 287.986 234.948C288.13 235.44 288.202 235.956 288.202 236.496C288.202 236.832 288.19 237.084 288.166 237.252ZM281.848 236.046H286.42C286.408 235.29 286.216 234.678 285.844 234.21C285.472 233.73 284.926 233.49 284.206 233.49C282.802 233.49 282.016 234.342 281.848 236.046ZM297.135 235.146V239.43C297.135 240.414 297.177 241.104 297.261 241.5H295.587C295.527 241.32 295.473 240.942 295.425 240.366C294.957 241.266 294.033 241.716 292.653 241.716C291.633 241.716 290.859 241.44 290.331 240.888C289.815 240.336 289.557 239.676 289.557 238.908C289.557 237.9 289.929 237.15 290.673 236.658C291.429 236.154 292.503 235.902 293.895 235.902H295.407V235.164C295.407 234.036 294.789 233.472 293.553 233.472C292.893 233.472 292.443 233.598 292.203 233.85C291.963 234.09 291.795 234.432 291.699 234.876H289.989C290.061 234.084 290.379 233.424 290.943 232.896C291.507 232.368 292.395 232.11 293.607 232.122C295.959 232.122 297.135 233.13 297.135 235.146ZM295.425 237.378V237.09H294.021C292.245 237.09 291.357 237.66 291.357 238.8C291.357 239.268 291.507 239.646 291.807 239.934C292.107 240.222 292.521 240.366 293.049 240.366C293.553 240.366 293.967 240.288 294.291 240.132C294.627 239.976 294.873 239.748 295.029 239.448C295.185 239.148 295.287 238.842 295.335 238.53C295.395 238.206 295.425 237.822 295.425 237.378ZM298.888 238.854H300.652C300.892 239.85 301.606 240.348 302.794 240.348C303.958 240.348 304.54 239.916 304.54 239.052C304.54 238.644 304.396 238.332 304.108 238.116C303.832 237.888 303.286 237.672 302.47 237.468C301.198 237.168 300.34 236.808 299.896 236.388C299.464 235.968 299.248 235.416 299.248 234.732C299.248 234.012 299.53 233.4 300.094 232.896C300.658 232.38 301.504 232.122 302.632 232.122C303.76 232.122 304.612 232.386 305.188 232.914C305.764 233.43 306.082 234.054 306.142 234.786H304.45C304.246 233.898 303.616 233.454 302.56 233.454C302.008 233.454 301.606 233.562 301.354 233.778C301.114 233.994 300.994 234.264 300.994 234.588C300.994 234.924 301.126 235.188 301.39 235.38C301.654 235.56 302.188 235.746 302.992 235.938C304.324 236.25 305.218 236.64 305.674 237.108C306.13 237.564 306.358 238.164 306.358 238.908C306.358 239.736 306.04 240.414 305.404 240.942C304.78 241.458 303.886 241.716 302.722 241.716C301.558 241.716 300.658 241.458 300.022 240.942C299.386 240.426 299.008 239.73 298.888 238.854ZM315.904 237.252H309.532C309.544 238.14 309.76 238.866 310.18 239.43C310.6 239.982 311.176 240.258 311.908 240.258C312.52 240.258 312.976 240.138 313.276 239.898C313.588 239.658 313.828 239.334 313.996 238.926H315.778C315.67 239.262 315.532 239.58 315.364 239.88C315.196 240.168 314.962 240.462 314.662 240.762C314.374 241.05 313.984 241.284 313.492 241.464C313.012 241.632 312.466 241.716 311.854 241.716C310.498 241.716 309.472 241.26 308.776 240.348C308.092 239.436 307.75 238.326 307.75 237.018C307.75 235.578 308.11 234.402 308.83 233.49C309.562 232.578 310.606 232.122 311.962 232.122C312.67 232.122 313.294 232.254 313.834 232.518C314.374 232.782 314.788 233.13 315.076 233.562C315.376 233.994 315.592 234.456 315.724 234.948C315.868 235.44 315.94 235.956 315.94 236.496C315.94 236.832 315.928 237.084 315.904 237.252ZM309.586 236.046H314.158C314.146 235.29 313.954 234.678 313.582 234.21C313.21 233.73 312.664 233.49 311.944 233.49C310.54 233.49 309.754 234.342 309.586 236.046ZM318.351 243.57H316.929C317.673 241.95 318.105 240.342 318.225 238.746H320.025C319.833 240.666 319.275 242.274 318.351 243.57ZM333.628 235.146V239.43C333.628 240.414 333.67 241.104 333.754 241.5H332.08C332.02 241.32 331.966 240.942 331.918 240.366C331.45 241.266 330.526 241.716 329.146 241.716C328.126 241.716 327.352 241.44 326.824 240.888C326.308 240.336 326.05 239.676 326.05 238.908C326.05 237.9 326.422 237.15 327.166 236.658C327.922 236.154 328.996 235.902 330.388 235.902H331.9V235.164C331.9 234.036 331.282 233.472 330.046 233.472C329.386 233.472 328.936 233.598 328.696 233.85C328.456 234.09 328.288 234.432 328.192 234.876H326.482C326.554 234.084 326.872 233.424 327.436 232.896C328 232.368 328.888 232.11 330.1 232.122C332.452 232.122 333.628 233.13 333.628 235.146ZM331.918 237.378V237.09H330.514C328.738 237.09 327.85 237.66 327.85 238.8C327.85 239.268 328 239.646 328.3 239.934C328.6 240.222 329.014 240.366 329.542 240.366C330.046 240.366 330.46 240.288 330.784 240.132C331.12 239.976 331.366 239.748 331.522 239.448C331.678 239.148 331.78 238.842 331.828 238.53C331.888 238.206 331.918 237.822 331.918 237.378ZM336.277 241.5V234.642C336.277 233.574 336.271 232.806 336.259 232.338H337.987C338.035 232.698 338.059 233.178 338.059 233.778C338.563 232.674 339.505 232.122 340.885 232.122C341.809 232.122 342.547 232.416 343.099 233.004C343.663 233.592 343.945 234.462 343.945 235.614V241.5H342.181V235.83C342.181 234.354 341.563 233.616 340.327 233.616C338.815 233.616 338.059 234.612 338.059 236.604V241.5H336.277ZM352.572 228.306H354.336V238.926C354.336 240.054 354.342 240.912 354.354 241.5H352.644C352.596 241.164 352.572 240.75 352.572 240.258C352.092 241.23 351.15 241.716 349.746 241.716C348.582 241.716 347.652 241.284 346.956 240.42C346.272 239.556 345.93 238.422 345.93 237.018C345.93 235.578 346.302 234.402 347.046 233.49C347.79 232.578 348.792 232.122 350.052 232.122C351.36 232.122 352.2 232.494 352.572 233.238V228.306ZM347.766 236.964C347.766 237.996 347.982 238.8 348.414 239.376C348.858 239.952 349.434 240.24 350.142 240.24C350.646 240.24 351.066 240.156 351.402 239.988C351.738 239.808 351.99 239.55 352.158 239.214C352.338 238.878 352.458 238.524 352.518 238.152C352.59 237.768 352.626 237.318 352.626 236.802C352.626 235.722 352.464 234.918 352.14 234.39C351.816 233.862 351.192 233.598 350.268 233.598C349.476 233.598 348.858 233.892 348.414 234.48C347.982 235.068 347.766 235.896 347.766 236.964ZM361.466 228.306H363.23V233.634C363.83 232.626 364.766 232.122 366.038 232.122C366.914 232.122 367.646 232.404 368.234 232.968C368.834 233.52 369.134 234.414 369.134 235.65V241.5H367.37V235.938C367.37 234.39 366.74 233.616 365.48 233.616C363.98 233.616 363.23 234.582 363.23 236.514V241.5H361.466V228.306ZM379.291 237.252H372.919C372.931 238.14 373.147 238.866 373.567 239.43C373.987 239.982 374.563 240.258 375.295 240.258C375.907 240.258 376.363 240.138 376.663 239.898C376.975 239.658 377.215 239.334 377.383 238.926H379.165C379.057 239.262 378.919 239.58 378.751 239.88C378.583 240.168 378.349 240.462 378.049 240.762C377.761 241.05 377.371 241.284 376.879 241.464C376.399 241.632 375.853 241.716 375.241 241.716C373.885 241.716 372.859 241.26 372.163 240.348C371.479 239.436 371.137 238.326 371.137 237.018C371.137 235.578 371.497 234.402 372.217 233.49C372.949 232.578 373.993 232.122 375.349 232.122C376.057 232.122 376.681 232.254 377.221 232.518C377.761 232.782 378.175 233.13 378.463 233.562C378.763 233.994 378.979 234.456 379.111 234.948C379.255 235.44 379.327 235.956 379.327 236.496C379.327 236.832 379.315 237.084 379.291 237.252ZM372.973 236.046H377.545C377.533 235.29 377.341 234.678 376.969 234.21C376.597 233.73 376.051 233.49 375.331 233.49C373.927 233.49 373.141 234.342 372.973 236.046ZM388.26 235.146V239.43C388.26 240.414 388.302 241.104 388.386 241.5H386.712C386.652 241.32 386.598 240.942 386.55 240.366C386.082 241.266 385.158 241.716 383.778 241.716C382.758 241.716 381.984 241.44 381.456 240.888C380.94 240.336 380.682 239.676 380.682 238.908C380.682 237.9 381.054 237.15 381.798 236.658C382.554 236.154 383.628 235.902 385.02 235.902H386.532V235.164C386.532 234.036 385.914 233.472 384.678 233.472C384.018 233.472 383.568 233.598 383.328 233.85C383.088 234.09 382.92 234.432 382.824 234.876H381.114C381.186 234.084 381.504 233.424 382.068 232.896C382.632 232.368 383.52 232.11 384.732 232.122C387.084 232.122 388.26 233.13 388.26 235.146ZM386.55 237.378V237.09H385.146C383.37 237.09 382.482 237.66 382.482 238.8C382.482 239.268 382.632 239.646 382.932 239.934C383.232 240.222 383.646 240.366 384.174 240.366C384.678 240.366 385.092 240.288 385.416 240.132C385.752 239.976 385.998 239.748 386.154 239.448C386.31 239.148 386.412 238.842 386.46 238.53C386.52 238.206 386.55 237.822 386.55 237.378ZM392.674 241.5H390.91V228.306H392.674V241.5ZM395.304 241.5V232.338H397.068V241.5H395.304ZM397.068 230.34H395.304V228.306H397.068V230.34ZM399.699 241.5V234.642C399.699 233.574 399.693 232.806 399.681 232.338H401.409C401.457 232.698 401.481 233.178 401.481 233.778C401.985 232.674 402.927 232.122 404.307 232.122C405.231 232.122 405.969 232.416 406.521 233.004C407.085 233.592 407.367 234.462 407.367 235.614V241.5H405.603V235.83C405.603 234.354 404.985 233.616 403.749 233.616C402.237 233.616 401.481 234.612 401.481 236.604V241.5H399.699ZM417.686 234.984V240.618C417.686 242.142 417.344 243.294 416.66 244.074C415.988 244.866 414.902 245.262 413.402 245.262C412.718 245.262 412.124 245.172 411.62 244.992C411.116 244.824 410.726 244.59 410.45 244.29C410.174 243.99 409.964 243.69 409.82 243.39C409.688 243.09 409.598 242.772 409.55 242.436H411.35C411.614 243.408 412.328 243.894 413.492 243.894C414.44 243.894 415.088 243.618 415.436 243.066C415.784 242.526 415.958 241.698 415.958 240.582V239.898C415.442 240.93 414.506 241.446 413.15 241.446C412.01 241.446 411.092 241.026 410.396 240.186C409.7 239.346 409.352 238.26 409.352 236.928C409.352 235.476 409.73 234.312 410.486 233.436C411.242 232.56 412.19 232.122 413.33 232.122C414.098 232.122 414.698 232.266 415.13 232.554C415.562 232.83 415.838 233.148 415.958 233.508C415.982 232.956 416.006 232.566 416.03 232.338H417.704C417.704 232.506 417.698 232.908 417.686 233.544C417.686 234.18 417.686 234.66 417.686 234.984ZM411.188 236.856C411.188 237.792 411.404 238.542 411.836 239.106C412.28 239.67 412.862 239.952 413.582 239.952C414.482 239.952 415.112 239.682 415.472 239.142C415.832 238.59 416.012 237.792 416.012 236.748C416.012 235.692 415.838 234.906 415.49 234.39C415.154 233.862 414.536 233.598 413.636 233.598C412.856 233.598 412.25 233.892 411.818 234.48C411.398 235.068 411.188 235.86 411.188 236.856ZM421.69 241.5H419.818V238.746H421.69V241.5Z" fill="#FAF9F6"/>
</svg>
