<svg width="376" height="164" viewBox="0 0 376 164" fill="none" xmlns="http://www.w3.org/2000/svg">
<rect x="0.5" y="21.5" width="375" height="142" rx="15.5" fill="#FAF9F6" fill-opacity="0.1"/>
<rect x="0.5" y="21.5" width="375" height="142" rx="15.5" stroke="#FAF9F6"/>
<path d="M107.413 68.352L102.301 57.48H106.333L110.005 65.616L109.309 65.4H111.325L110.581 65.616L113.893 57.48H117.709L113.005 68.352H107.413ZM108.277 75V67.8H112.141V75H108.277ZM124.671 75.456C123.519 75.456 122.495 75.28 121.599 74.928C120.703 74.56 119.943 74.064 119.319 73.44C118.711 72.816 118.247 72.104 117.927 71.304C117.607 70.488 117.447 69.632 117.447 68.736V68.184C117.447 67.272 117.607 66.408 117.927 65.592C118.263 64.76 118.743 64.032 119.367 63.408C120.007 62.784 120.775 62.296 121.671 61.944C122.567 61.576 123.567 61.392 124.671 61.392C125.807 61.392 126.815 61.576 127.695 61.944C128.591 62.296 129.351 62.784 129.975 63.408C130.599 64.032 131.079 64.76 131.415 65.592C131.751 66.408 131.919 67.272 131.919 68.184V68.736C131.919 69.632 131.759 70.488 131.439 71.304C131.119 72.104 130.647 72.816 130.023 73.44C129.415 74.064 128.663 74.56 127.767 74.928C126.871 75.28 125.839 75.456 124.671 75.456ZM124.671 72.216C125.423 72.216 126.047 72.056 126.543 71.736C127.039 71.416 127.415 70.968 127.671 70.392C127.943 69.816 128.079 69.176 128.079 68.472C128.079 67.72 127.943 67.064 127.671 66.504C127.399 65.928 127.007 65.472 126.495 65.136C125.999 64.8 125.391 64.632 124.671 64.632C123.967 64.632 123.359 64.8 122.847 65.136C122.335 65.472 121.943 65.928 121.671 66.504C121.415 67.064 121.287 67.72 121.287 68.472C121.287 69.176 121.415 69.816 121.671 70.392C121.927 70.968 122.311 71.416 122.823 71.736C123.335 72.056 123.951 72.216 124.671 72.216ZM138.979 75.408C137.459 75.408 136.291 74.92 135.475 73.944C134.659 72.952 134.251 71.464 134.251 69.48V61.848H138.091V69.672C138.091 70.376 138.291 70.936 138.691 71.352C139.091 71.768 139.627 71.976 140.299 71.976C140.987 71.976 141.547 71.76 141.979 71.328C142.411 70.896 142.627 70.312 142.627 69.576V61.848H146.467V75H143.419V69.456H143.683C143.683 70.784 143.507 71.896 143.155 72.792C142.819 73.672 142.315 74.328 141.643 74.76C140.971 75.192 140.139 75.408 139.147 75.408H138.979ZM149.948 75V61.848H152.996V67.488H152.924C152.924 65.632 153.316 64.2 154.1 63.192C154.9 62.184 156.052 61.68 157.556 61.68H158.06V64.992H157.1C156.044 64.992 155.228 65.28 154.652 65.856C154.076 66.416 153.788 67.232 153.788 68.304V75H149.948ZM174.496 79.8V71.112L175.528 69.72C175.496 70.904 175.256 71.928 174.808 72.792C174.376 73.64 173.768 74.296 172.984 74.76C172.2 75.208 171.28 75.432 170.224 75.432C169.312 75.432 168.48 75.264 167.728 74.928C166.976 74.576 166.328 74.104 165.784 73.512C165.256 72.904 164.848 72.192 164.56 71.376C164.288 70.56 164.152 69.68 164.152 68.736V68.184C164.152 67.24 164.296 66.36 164.584 65.544C164.888 64.728 165.312 64.016 165.856 63.408C166.416 62.8 167.072 62.328 167.824 61.992C168.592 61.64 169.44 61.464 170.368 61.464C171.456 61.464 172.392 61.704 173.176 62.184C173.976 62.648 174.6 63.328 175.048 64.224C175.496 65.104 175.736 66.184 175.768 67.464H175.312V61.848H178.36V79.8H174.496ZM171.352 72.192C171.944 72.192 172.48 72.064 172.96 71.808C173.456 71.536 173.848 71.144 174.136 70.632C174.44 70.12 174.592 69.504 174.592 68.784V67.896C174.592 67.192 174.44 66.6 174.136 66.12C173.832 65.64 173.432 65.272 172.936 65.016C172.44 64.76 171.912 64.632 171.352 64.632C170.696 64.632 170.112 64.8 169.6 65.136C169.104 65.456 168.712 65.904 168.424 66.48C168.136 67.04 167.992 67.704 167.992 68.472C167.992 69.224 168.136 69.88 168.424 70.44C168.712 71 169.104 71.432 169.6 71.736C170.112 72.04 170.696 72.192 171.352 72.192ZM186.223 75.408C184.703 75.408 183.535 74.92 182.719 73.944C181.903 72.952 181.495 71.464 181.495 69.48V61.848H185.335V69.672C185.335 70.376 185.535 70.936 185.935 71.352C186.335 71.768 186.871 71.976 187.543 71.976C188.231 71.976 188.791 71.76 189.223 71.328C189.655 70.896 189.871 70.312 189.871 69.576V61.848H193.711V75H190.663V69.456H190.927C190.927 70.784 190.751 71.896 190.399 72.792C190.063 73.672 189.559 74.328 188.887 74.76C188.215 75.192 187.383 75.408 186.391 75.408H186.223ZM203.216 75.456C202.096 75.456 201.104 75.264 200.24 74.88C199.392 74.496 198.68 73.984 198.104 73.344C197.544 72.688 197.112 71.96 196.808 71.16C196.52 70.344 196.376 69.512 196.376 68.664V68.184C196.376 67.304 196.52 66.464 196.808 65.664C197.112 64.848 197.544 64.12 198.104 63.48C198.664 62.84 199.36 62.336 200.192 61.968C201.04 61.584 202 61.392 203.072 61.392C204.48 61.392 205.664 61.712 206.624 62.352C207.6 62.976 208.344 63.8 208.856 64.824C209.368 65.832 209.624 66.936 209.624 68.136V69.432H197.984V67.248H207.296L206.048 68.256C206.048 67.472 205.936 66.8 205.712 66.24C205.488 65.68 205.152 65.256 204.704 64.968C204.272 64.664 203.728 64.512 203.072 64.512C202.4 64.512 201.832 64.664 201.368 64.968C200.904 65.272 200.552 65.72 200.312 66.312C200.072 66.888 199.952 67.6 199.952 68.448C199.952 69.232 200.064 69.92 200.288 70.512C200.512 71.088 200.864 71.536 201.344 71.856C201.824 72.176 202.448 72.336 203.216 72.336C203.92 72.336 204.496 72.2 204.944 71.928C205.392 71.656 205.696 71.32 205.856 70.92H209.384C209.192 71.8 208.816 72.584 208.256 73.272C207.696 73.96 206.992 74.496 206.144 74.88C205.296 75.264 204.32 75.456 203.216 75.456ZM217.101 75.408C215.229 75.408 213.765 75.024 212.709 74.256C211.653 73.488 211.093 72.408 211.029 71.016H214.437C214.501 71.432 214.749 71.808 215.181 72.144C215.629 72.464 216.293 72.624 217.173 72.624C217.845 72.624 218.397 72.512 218.829 72.288C219.277 72.048 219.501 71.712 219.501 71.28C219.501 70.896 219.333 70.592 218.997 70.368C218.661 70.128 218.061 69.96 217.197 69.864L216.165 69.768C214.581 69.608 213.389 69.168 212.589 68.448C211.805 67.728 211.413 66.808 211.413 65.688C211.413 64.76 211.645 63.984 212.109 63.36C212.573 62.736 213.213 62.264 214.029 61.944C214.861 61.624 215.805 61.464 216.861 61.464C218.557 61.464 219.925 61.84 220.965 62.592C222.005 63.328 222.549 64.4 222.597 65.808H219.189C219.125 65.376 218.901 65.016 218.517 64.728C218.133 64.424 217.565 64.272 216.813 64.272C216.221 64.272 215.749 64.384 215.397 64.608C215.045 64.832 214.869 65.136 214.869 65.52C214.869 65.888 215.021 66.168 215.325 66.36C215.629 66.552 216.125 66.688 216.813 66.768L217.845 66.864C219.461 67.04 220.717 67.488 221.613 68.208C222.509 68.928 222.957 69.896 222.957 71.112C222.957 71.992 222.717 72.76 222.237 73.416C221.757 74.056 221.077 74.552 220.197 74.904C219.317 75.24 218.285 75.408 217.101 75.408ZM231.361 75.168C230.033 75.168 228.961 75.008 228.145 74.688C227.329 74.352 226.729 73.8 226.345 73.032C225.977 72.248 225.793 71.192 225.793 69.864V58.296H229.369V70.008C229.369 70.632 229.529 71.112 229.849 71.448C230.185 71.768 230.657 71.928 231.265 71.928H233.209V75.168H231.361ZM223.801 64.656V61.848H233.209V64.656H223.801ZM236.355 75V61.848H240.195V75H236.355ZM234.603 64.68V61.848H240.195V64.68H234.603ZM237.843 60.552C237.123 60.552 236.587 60.368 236.235 60C235.899 59.616 235.731 59.136 235.731 58.56C235.731 57.968 235.899 57.488 236.235 57.12C236.587 56.736 237.123 56.544 237.843 56.544C238.563 56.544 239.091 56.736 239.427 57.12C239.779 57.488 239.955 57.968 239.955 58.56C239.955 59.136 239.779 59.616 239.427 60C239.091 60.368 238.563 60.552 237.843 60.552ZM250.094 75.456C248.942 75.456 247.918 75.28 247.022 74.928C246.126 74.56 245.366 74.064 244.742 73.44C244.134 72.816 243.67 72.104 243.35 71.304C243.03 70.488 242.87 69.632 242.87 68.736V68.184C242.87 67.272 243.03 66.408 243.35 65.592C243.686 64.76 244.166 64.032 244.79 63.408C245.43 62.784 246.198 62.296 247.094 61.944C247.99 61.576 248.99 61.392 250.094 61.392C251.23 61.392 252.238 61.576 253.118 61.944C254.014 62.296 254.774 62.784 255.398 63.408C256.022 64.032 256.502 64.76 256.838 65.592C257.174 66.408 257.342 67.272 257.342 68.184V68.736C257.342 69.632 257.182 70.488 256.862 71.304C256.542 72.104 256.07 72.816 255.446 73.44C254.838 74.064 254.086 74.56 253.19 74.928C252.294 75.28 251.262 75.456 250.094 75.456ZM250.094 72.216C250.846 72.216 251.47 72.056 251.966 71.736C252.462 71.416 252.838 70.968 253.094 70.392C253.366 69.816 253.502 69.176 253.502 68.472C253.502 67.72 253.366 67.064 253.094 66.504C252.822 65.928 252.43 65.472 251.918 65.136C251.422 64.8 250.814 64.632 250.094 64.632C249.39 64.632 248.782 64.8 248.27 65.136C247.758 65.472 247.366 65.928 247.094 66.504C246.838 67.064 246.71 67.72 246.71 68.472C246.71 69.176 246.838 69.816 247.094 70.392C247.35 70.968 247.734 71.416 248.246 71.736C248.758 72.056 249.374 72.216 250.094 72.216ZM259.962 75V61.848H263.01V67.488H262.794C262.794 66.144 262.962 65.024 263.298 64.128C263.65 63.232 264.178 62.56 264.882 62.112C265.586 61.664 266.442 61.44 267.45 61.44H267.618C269.154 61.44 270.322 61.944 271.122 62.952C271.938 63.944 272.346 65.456 272.346 67.488V75H268.506V67.272C268.506 66.568 268.298 65.992 267.882 65.544C267.466 65.096 266.906 64.872 266.202 64.872C265.482 64.872 264.898 65.104 264.45 65.568C264.018 66.016 263.802 66.608 263.802 67.344V75H259.962Z" fill="#FAF9F6"/>
<rect x="39.5" y="99" width="297" height="41" rx="20.5" fill="#FAF9F6" fill-opacity="0.1"/>
<g clip-path="url(#clip0_1249_41926)">
<path d="M83.6539 127.474H66.5293C65.4182 127.474 64.5147 126.57 64.5147 125.459C64.5147 124.348 65.4183 123.445 66.5293 123.445H68.544C69.1 123.445 69.5513 122.993 69.5513 122.437C69.5513 121.881 69.1 121.43 68.544 121.43H66.5293C64.3071 121.43 62.5 123.237 62.5 125.459C62.5 127.681 64.3071 129.489 66.5293 129.489H83.6539C84.21 129.489 84.6613 129.037 84.6613 128.481C84.6613 127.925 84.21 127.474 83.6539 127.474Z" fill="white"/>
<path d="M85.3749 109.638C83.872 108.137 81.4262 108.135 79.9202 109.638L78.379 111.179C78.3598 111.195 78.3366 111.201 78.3186 111.219C78.3005 111.238 78.2944 111.261 78.2782 111.28L73.1096 116.448C72.1144 117.446 71.5664 118.771 71.5664 120.181V122.437C71.5664 122.993 72.0177 123.444 72.5737 123.444H74.8302C76.2394 123.444 77.565 122.896 78.5644 121.9L85.3739 115.091C86.8758 113.588 86.8758 111.141 85.3749 109.638ZM77.141 120.475C76.5235 121.09 75.7025 121.43 74.8302 121.43H73.5811V120.181C73.5811 119.308 73.9205 118.487 74.535 117.871L79.0408 113.365L81.6457 115.97L77.141 120.475ZM83.9495 113.666L83.0701 114.546L80.4652 111.941L81.3435 111.062C82.0617 110.345 83.2313 110.346 83.9485 111.062C84.6657 111.781 84.6657 112.949 83.9495 113.666Z" fill="white"/>
</g>
<path d="M97.716 124L94.836 112.32H97.54L99.796 122.24L99.236 121.872H100.692L100.068 122.24L101.812 112.752H103.988L101.7 124H97.716ZM104.676 124L102.212 112.752H104.5L106.516 122.24L105.908 121.872H107.3L106.772 122.24L108.74 112.32H111.3L108.74 124H104.676ZM112.847 124V112.32H115.407V119.056H115.023C115.023 118.171 115.135 117.424 115.359 116.816C115.583 116.208 115.914 115.749 116.351 115.44C116.788 115.12 117.338 114.96 117.999 114.96H118.111C119.082 114.96 119.823 115.307 120.335 116C120.847 116.683 121.103 117.685 121.103 119.008V124H118.543V118.848C118.543 118.368 118.399 117.984 118.111 117.696C117.834 117.397 117.466 117.248 117.007 117.248C116.527 117.248 116.138 117.403 115.839 117.712C115.551 118.021 115.407 118.432 115.407 118.944V124H112.847ZM128.619 124V121.408H128.187V118.592C128.187 118.144 128.08 117.808 127.867 117.584C127.654 117.36 127.312 117.248 126.843 117.248C126.608 117.248 126.299 117.253 125.915 117.264C125.531 117.275 125.136 117.291 124.731 117.312C124.326 117.333 123.958 117.355 123.627 117.376V115.216C123.872 115.195 124.16 115.173 124.491 115.152C124.822 115.131 125.163 115.115 125.515 115.104C125.867 115.093 126.198 115.088 126.507 115.088C127.403 115.088 128.155 115.216 128.763 115.472C129.382 115.728 129.851 116.117 130.171 116.64C130.491 117.152 130.651 117.813 130.651 118.624V124H128.619ZM125.819 124.224C125.19 124.224 124.635 124.112 124.155 123.888C123.686 123.664 123.318 123.344 123.051 122.928C122.784 122.501 122.651 121.995 122.651 121.408C122.651 120.768 122.816 120.245 123.147 119.84C123.478 119.424 123.942 119.12 124.539 118.928C125.136 118.725 125.824 118.624 126.603 118.624H128.475V120.048H126.587C126.139 120.048 125.792 120.16 125.547 120.384C125.312 120.597 125.195 120.891 125.195 121.264C125.195 121.616 125.312 121.904 125.547 122.128C125.792 122.341 126.139 122.448 126.587 122.448C126.875 122.448 127.131 122.4 127.355 122.304C127.59 122.197 127.782 122.021 127.931 121.776C128.08 121.531 128.166 121.189 128.187 120.752L128.795 121.392C128.742 122 128.592 122.512 128.347 122.928C128.112 123.344 127.782 123.664 127.355 123.888C126.939 124.112 126.427 124.224 125.819 124.224ZM136.845 124.112C135.96 124.112 135.245 124.005 134.701 123.792C134.157 123.568 133.757 123.2 133.501 122.688C133.256 122.165 133.133 121.461 133.133 120.576V112.864H135.517V120.672C135.517 121.088 135.624 121.408 135.837 121.632C136.061 121.845 136.376 121.952 136.781 121.952H138.077V124.112H136.845ZM131.805 117.104V115.232H138.077V117.104H131.805ZM143.651 124V115.232H146.211V124H143.651ZM142.483 117.12V115.232H146.211V117.12H142.483ZM144.643 114.368C144.163 114.368 143.806 114.245 143.571 114C143.347 113.744 143.235 113.424 143.235 113.04C143.235 112.645 143.347 112.325 143.571 112.08C143.806 111.824 144.163 111.696 144.643 111.696C145.123 111.696 145.475 111.824 145.699 112.08C145.934 112.325 146.051 112.645 146.051 113.04C146.051 113.424 145.934 113.744 145.699 114C145.475 114.245 145.123 114.368 144.643 114.368ZM151.945 124.272C150.697 124.272 149.721 124.016 149.017 123.504C148.313 122.992 147.94 122.272 147.897 121.344H150.169C150.212 121.621 150.377 121.872 150.665 122.096C150.964 122.309 151.406 122.416 151.993 122.416C152.441 122.416 152.809 122.341 153.097 122.192C153.396 122.032 153.545 121.808 153.545 121.52C153.545 121.264 153.433 121.061 153.209 120.912C152.985 120.752 152.585 120.64 152.009 120.576L151.321 120.512C150.265 120.405 149.47 120.112 148.937 119.632C148.414 119.152 148.153 118.539 148.153 117.792C148.153 117.173 148.308 116.656 148.617 116.24C148.926 115.824 149.353 115.509 149.897 115.296C150.452 115.083 151.081 114.976 151.785 114.976C152.916 114.976 153.828 115.227 154.521 115.728C155.214 116.219 155.577 116.933 155.609 117.872H153.337C153.294 117.584 153.145 117.344 152.889 117.152C152.633 116.949 152.254 116.848 151.753 116.848C151.358 116.848 151.044 116.923 150.809 117.072C150.574 117.221 150.457 117.424 150.457 117.68C150.457 117.925 150.558 118.112 150.761 118.24C150.964 118.368 151.294 118.459 151.753 118.512L152.441 118.576C153.518 118.693 154.356 118.992 154.953 119.472C155.55 119.952 155.849 120.597 155.849 121.408C155.849 121.995 155.689 122.507 155.369 122.944C155.049 123.371 154.596 123.701 154.009 123.936C153.422 124.16 152.734 124.272 151.945 124.272ZM164.928 124.112C164.043 124.112 163.328 124.005 162.784 123.792C162.24 123.568 161.84 123.2 161.584 122.688C161.339 122.165 161.216 121.461 161.216 120.576V112.864H163.6V120.672C163.6 121.088 163.707 121.408 163.92 121.632C164.144 121.845 164.459 121.952 164.864 121.952H166.16V124.112H164.928ZM159.888 117.104V115.232H166.16V117.104H159.888ZM167.92 124V112.32H170.48V119.056H170.096C170.096 118.171 170.208 117.424 170.432 116.816C170.656 116.208 170.987 115.749 171.424 115.44C171.861 115.12 172.411 114.96 173.072 114.96H173.184C174.155 114.96 174.896 115.307 175.408 116C175.92 116.683 176.176 117.685 176.176 119.008V124H173.616V118.848C173.616 118.368 173.472 117.984 173.184 117.696C172.907 117.397 172.539 117.248 172.08 117.248C171.6 117.248 171.211 117.403 170.912 117.712C170.624 118.021 170.48 118.432 170.48 118.944V124H167.92ZM178.812 124V115.232H181.372V124H178.812ZM177.644 117.12V115.232H181.372V117.12H177.644ZM179.804 114.368C179.324 114.368 178.966 114.245 178.732 114C178.508 113.744 178.396 113.424 178.396 113.04C178.396 112.645 178.508 112.325 178.732 112.08C178.966 111.824 179.324 111.696 179.804 111.696C180.284 111.696 180.636 111.824 180.86 112.08C181.094 112.325 181.212 112.645 181.212 113.04C181.212 113.424 181.094 113.744 180.86 114C180.636 114.245 180.284 114.368 179.804 114.368ZM187.106 124.272C185.858 124.272 184.882 124.016 184.178 123.504C183.474 122.992 183.101 122.272 183.058 121.344H185.33C185.373 121.621 185.538 121.872 185.826 122.096C186.125 122.309 186.567 122.416 187.154 122.416C187.602 122.416 187.97 122.341 188.258 122.192C188.557 122.032 188.706 121.808 188.706 121.52C188.706 121.264 188.594 121.061 188.37 120.912C188.146 120.752 187.746 120.64 187.17 120.576L186.482 120.512C185.426 120.405 184.631 120.112 184.098 119.632C183.575 119.152 183.314 118.539 183.314 117.792C183.314 117.173 183.469 116.656 183.778 116.24C184.087 115.824 184.514 115.509 185.058 115.296C185.613 115.083 186.242 114.976 186.946 114.976C188.077 114.976 188.989 115.227 189.682 115.728C190.375 116.219 190.738 116.933 190.77 117.872H188.498C188.455 117.584 188.306 117.344 188.05 117.152C187.794 116.949 187.415 116.848 186.914 116.848C186.519 116.848 186.205 116.923 185.97 117.072C185.735 117.221 185.618 117.424 185.618 117.68C185.618 117.925 185.719 118.112 185.922 118.24C186.125 118.368 186.455 118.459 186.914 118.512L187.602 118.576C188.679 118.693 189.517 118.992 190.114 119.472C190.711 119.952 191.01 120.597 191.01 121.408C191.01 121.995 190.85 122.507 190.53 122.944C190.21 123.371 189.757 123.701 189.17 123.936C188.583 124.16 187.895 124.272 187.106 124.272ZM200.089 124.112C199.203 124.112 198.489 124.005 197.945 123.792C197.401 123.568 197.001 123.2 196.745 122.688C196.499 122.165 196.377 121.461 196.377 120.576V112.864H198.761V120.672C198.761 121.088 198.867 121.408 199.081 121.632C199.305 121.845 199.619 121.952 200.025 121.952H201.321V124.112H200.089ZM195.049 117.104V115.232H201.321V117.104H195.049ZM207.065 124.304C206.319 124.304 205.657 124.176 205.081 123.92C204.516 123.664 204.041 123.323 203.657 122.896C203.284 122.459 202.996 121.973 202.793 121.44C202.601 120.896 202.505 120.341 202.505 119.776V119.456C202.505 118.869 202.601 118.309 202.793 117.776C202.996 117.232 203.284 116.747 203.657 116.32C204.031 115.893 204.495 115.557 205.049 115.312C205.615 115.056 206.255 114.928 206.969 114.928C207.908 114.928 208.697 115.141 209.337 115.568C209.988 115.984 210.484 116.533 210.825 117.216C211.167 117.888 211.337 118.624 211.337 119.424V120.288H203.577V118.832H209.785L208.953 119.504C208.953 118.981 208.879 118.533 208.729 118.16C208.58 117.787 208.356 117.504 208.057 117.312C207.769 117.109 207.407 117.008 206.969 117.008C206.521 117.008 206.143 117.109 205.833 117.312C205.524 117.515 205.289 117.813 205.129 118.208C204.969 118.592 204.889 119.067 204.889 119.632C204.889 120.155 204.964 120.613 205.113 121.008C205.263 121.392 205.497 121.691 205.817 121.904C206.137 122.117 206.553 122.224 207.065 122.224C207.535 122.224 207.919 122.133 208.217 121.952C208.516 121.771 208.719 121.547 208.825 121.28H211.177C211.049 121.867 210.799 122.389 210.425 122.848C210.052 123.307 209.583 123.664 209.017 123.92C208.452 124.176 207.801 124.304 207.065 124.304ZM218.368 124V121.408H217.936V118.592C217.936 118.144 217.829 117.808 217.616 117.584C217.403 117.36 217.061 117.248 216.592 117.248C216.357 117.248 216.048 117.253 215.664 117.264C215.28 117.275 214.885 117.291 214.48 117.312C214.075 117.333 213.707 117.355 213.376 117.376V115.216C213.621 115.195 213.909 115.173 214.24 115.152C214.571 115.131 214.912 115.115 215.264 115.104C215.616 115.093 215.947 115.088 216.256 115.088C217.152 115.088 217.904 115.216 218.512 115.472C219.131 115.728 219.6 116.117 219.92 116.64C220.24 117.152 220.4 117.813 220.4 118.624V124H218.368ZM215.568 124.224C214.939 124.224 214.384 124.112 213.904 123.888C213.435 123.664 213.067 123.344 212.8 122.928C212.533 122.501 212.4 121.995 212.4 121.408C212.4 120.768 212.565 120.245 212.896 119.84C213.227 119.424 213.691 119.12 214.288 118.928C214.885 118.725 215.573 118.624 216.352 118.624H218.224V120.048H216.336C215.888 120.048 215.541 120.16 215.296 120.384C215.061 120.597 214.944 120.891 214.944 121.264C214.944 121.616 215.061 121.904 215.296 122.128C215.541 122.341 215.888 122.448 216.336 122.448C216.624 122.448 216.88 122.4 217.104 122.304C217.339 122.197 217.531 122.021 217.68 121.776C217.829 121.531 217.915 121.189 217.936 120.752L218.544 121.392C218.491 122 218.341 122.512 218.096 122.928C217.861 123.344 217.531 123.664 217.104 123.888C216.688 124.112 216.176 124.224 215.568 124.224ZM226.547 124.304C225.789 124.304 225.128 124.181 224.563 123.936C224.008 123.68 223.544 123.339 223.171 122.912C222.797 122.485 222.52 122.005 222.339 121.472C222.157 120.928 222.067 120.368 222.067 119.792V119.488C222.067 118.891 222.163 118.32 222.355 117.776C222.547 117.221 222.829 116.731 223.203 116.304C223.576 115.877 224.04 115.541 224.595 115.296C225.16 115.051 225.805 114.928 226.531 114.928C227.32 114.928 228.019 115.083 228.627 115.392C229.235 115.691 229.72 116.112 230.083 116.656C230.445 117.2 230.648 117.824 230.691 118.528H228.179C228.136 118.133 227.976 117.803 227.699 117.536C227.432 117.259 227.043 117.12 226.531 117.12C226.104 117.12 225.747 117.227 225.459 117.44C225.181 117.653 224.973 117.947 224.835 118.32C224.696 118.693 224.627 119.136 224.627 119.648C224.627 120.117 224.691 120.544 224.819 120.928C224.947 121.301 225.149 121.595 225.427 121.808C225.715 122.011 226.088 122.112 226.547 122.112C226.888 122.112 227.176 122.053 227.411 121.936C227.656 121.808 227.848 121.637 227.987 121.424C228.136 121.2 228.227 120.944 228.259 120.656H230.755C230.723 121.381 230.52 122.021 230.147 122.576C229.773 123.12 229.277 123.547 228.659 123.856C228.04 124.155 227.336 124.304 226.547 124.304ZM232.43 124V112.32H234.99V119.056H234.606C234.606 118.171 234.718 117.424 234.942 116.816C235.166 116.208 235.497 115.749 235.934 115.44C236.372 115.12 236.921 114.96 237.582 114.96H237.694C238.665 114.96 239.406 115.307 239.918 116C240.43 116.683 240.686 117.685 240.686 119.008V124H238.126V118.848C238.126 118.368 237.982 117.984 237.694 117.696C237.417 117.397 237.049 117.248 236.59 117.248C236.11 117.248 235.721 117.403 235.422 117.712C235.134 118.021 234.99 118.432 234.99 118.944V124H232.43ZM243.322 124V115.232H245.882V124H243.322ZM242.154 117.12V115.232H245.882V117.12H242.154ZM244.314 114.368C243.834 114.368 243.477 114.245 243.242 114C243.018 113.744 242.906 113.424 242.906 113.04C242.906 112.645 243.018 112.325 243.242 112.08C243.477 111.824 243.834 111.696 244.314 111.696C244.794 111.696 245.146 111.824 245.37 112.08C245.605 112.325 245.722 112.645 245.722 113.04C245.722 113.424 245.605 113.744 245.37 114C245.146 114.245 244.794 114.368 244.314 114.368ZM248.288 124V115.232H250.32V118.992H250.176C250.176 118.096 250.288 117.349 250.512 116.752C250.747 116.155 251.099 115.707 251.568 115.408C252.038 115.109 252.608 114.96 253.28 114.96H253.392C254.416 114.96 255.195 115.296 255.728 115.968C256.272 116.629 256.544 117.637 256.544 118.992V124H253.984V118.848C253.984 118.379 253.846 117.995 253.568 117.696C253.291 117.397 252.918 117.248 252.448 117.248C251.968 117.248 251.579 117.403 251.28 117.712C250.992 118.011 250.848 118.405 250.848 118.896V124H248.288ZM262.22 127.488C261.793 127.488 261.356 127.472 260.908 127.44C260.46 127.408 260.049 127.365 259.676 127.312V125.152C260.049 125.205 260.46 125.248 260.908 125.28C261.367 125.323 261.783 125.344 262.156 125.344C262.849 125.344 263.409 125.264 263.836 125.104C264.273 124.944 264.593 124.699 264.796 124.368C264.999 124.048 265.1 123.632 265.1 123.12V121.376L265.564 120.352C265.543 121.131 265.388 121.797 265.1 122.352C264.823 122.907 264.433 123.333 263.932 123.632C263.431 123.92 262.833 124.064 262.14 124.064C261.543 124.064 260.999 123.957 260.508 123.744C260.028 123.52 259.617 123.211 259.276 122.816C258.935 122.421 258.673 121.963 258.492 121.44C258.311 120.907 258.22 120.331 258.22 119.712V119.344C258.22 118.725 258.316 118.149 258.508 117.616C258.7 117.083 258.977 116.619 259.34 116.224C259.703 115.829 260.135 115.525 260.636 115.312C261.137 115.088 261.692 114.976 262.3 114.976C263.004 114.976 263.612 115.131 264.124 115.44C264.647 115.749 265.057 116.203 265.356 116.8C265.655 117.397 265.815 118.117 265.836 118.96L265.484 119.056V115.232H267.516V122.96C267.516 124.037 267.324 124.907 266.94 125.568C266.556 126.229 265.969 126.715 265.18 127.024C264.401 127.333 263.415 127.488 262.22 127.488ZM262.94 121.904C263.335 121.904 263.692 121.819 264.012 121.648C264.332 121.467 264.583 121.211 264.764 120.88C264.956 120.549 265.052 120.149 265.052 119.68V119.216C265.052 118.757 264.951 118.373 264.748 118.064C264.556 117.744 264.3 117.504 263.98 117.344C263.66 117.173 263.319 117.088 262.956 117.088C262.529 117.088 262.151 117.189 261.82 117.392C261.489 117.595 261.233 117.877 261.052 118.24C260.871 118.603 260.78 119.029 260.78 119.52C260.78 120.021 260.871 120.453 261.052 120.816C261.244 121.168 261.5 121.44 261.82 121.632C262.151 121.813 262.524 121.904 262.94 121.904ZM273.169 124V115.232H275.201V119.008H275.057C275.057 118.112 275.169 117.365 275.393 116.768C275.617 116.171 275.953 115.723 276.401 115.424C276.849 115.115 277.398 114.96 278.049 114.96H278.161C278.822 114.96 279.372 115.115 279.809 115.424C280.257 115.723 280.593 116.171 280.817 116.768C281.052 117.365 281.169 118.112 281.169 119.008H280.545C280.545 118.112 280.657 117.365 280.881 116.768C281.116 116.171 281.457 115.723 281.905 115.424C282.353 115.115 282.902 114.96 283.553 114.96H283.665C284.326 114.96 284.881 115.115 285.329 115.424C285.788 115.723 286.134 116.171 286.369 116.768C286.604 117.365 286.721 118.112 286.721 119.008V124H284.161V118.864C284.161 118.384 284.033 117.995 283.777 117.696C283.532 117.397 283.18 117.248 282.721 117.248C282.262 117.248 281.9 117.403 281.633 117.712C281.366 118.011 281.233 118.411 281.233 118.912V124H278.657V118.864C278.657 118.384 278.529 117.995 278.273 117.696C278.028 117.397 277.681 117.248 277.233 117.248C276.764 117.248 276.396 117.403 276.129 117.712C275.862 118.011 275.729 118.411 275.729 118.912V124H273.169ZM292.958 124.304C292.211 124.304 291.55 124.176 290.974 123.92C290.408 123.664 289.934 123.323 289.55 122.896C289.176 122.459 288.888 121.973 288.686 121.44C288.494 120.896 288.398 120.341 288.398 119.776V119.456C288.398 118.869 288.494 118.309 288.686 117.776C288.888 117.232 289.176 116.747 289.55 116.32C289.923 115.893 290.387 115.557 290.942 115.312C291.507 115.056 292.147 114.928 292.862 114.928C293.8 114.928 294.59 115.141 295.23 115.568C295.88 115.984 296.376 116.533 296.718 117.216C297.059 117.888 297.23 118.624 297.23 119.424V120.288H289.47V118.832H295.678L294.846 119.504C294.846 118.981 294.771 118.533 294.622 118.16C294.472 117.787 294.248 117.504 293.95 117.312C293.662 117.109 293.299 117.008 292.862 117.008C292.414 117.008 292.035 117.109 291.726 117.312C291.416 117.515 291.182 117.813 291.022 118.208C290.862 118.592 290.782 119.067 290.782 119.632C290.782 120.155 290.856 120.613 291.006 121.008C291.155 121.392 291.39 121.691 291.71 121.904C292.03 122.117 292.446 122.224 292.958 122.224C293.427 122.224 293.811 122.133 294.11 121.952C294.408 121.771 294.611 121.547 294.718 121.28H297.07C296.942 121.867 296.691 122.389 296.318 122.848C295.944 123.307 295.475 123.664 294.91 123.92C294.344 124.176 293.694 124.304 292.958 124.304ZM300.395 120.08V117.296H301.883C302.448 117.296 302.869 117.147 303.147 116.848C303.424 116.539 303.563 116.165 303.563 115.728C303.563 115.419 303.499 115.152 303.371 114.928C303.253 114.693 303.077 114.512 302.843 114.384C302.619 114.245 302.347 114.176 302.027 114.176C301.685 114.176 301.397 114.251 301.163 114.4C300.928 114.539 300.747 114.725 300.619 114.96C300.491 115.195 300.427 115.461 300.427 115.76H297.979C297.979 115.056 298.133 114.421 298.443 113.856C298.763 113.28 299.232 112.821 299.851 112.48C300.469 112.139 301.216 111.968 302.091 111.968C302.901 111.968 303.6 112.123 304.187 112.432C304.773 112.731 305.227 113.147 305.547 113.68C305.867 114.213 306.027 114.827 306.027 115.52V115.712C306.027 116.395 305.861 116.997 305.531 117.52C305.211 118.032 304.741 118.437 304.123 118.736C303.504 119.024 302.752 119.179 301.867 119.2L302.971 118.32L302.939 120.08H300.395ZM300.203 124V121.424H303.115V124H300.203Z" fill="white"/>
<rect x="174" width="38" height="38" rx="19" fill="#FAF9F6"/>
<path d="M192.668 25V13.804L193.46 14.416H190.094V11.86H195.602V25H192.668Z" fill="#432D69"/>
<defs>
<clipPath id="clip0_1249_41926">
<rect width="24" height="24" fill="white" transform="translate(62.5 107)"/>
</clipPath>
</defs>
</svg>
